<svg width="80" height="80" viewBox="0 0 80 80" fill="none" xmlns="http://www.w3.org/2000/svg">
<rect x="0.5" y="0.5" width="78.2685" height="78.2685" rx="11.5" fill="#29316F" stroke="#29316F"/>
<rect x="10" y="10" width="60" height="60" rx="30" fill="#1B1D23"/>
<path d="M37.1133 44.5703H41.1562V43.457C41.1562 41.4844 41.8789 40.4297 44.3984 38.9453C46.9766 37.4023 48.5 35.2734 48.5 32.2656V32.2461C48.5 28.0469 45.0039 25 39.8672 25C34.2031 25 31.2734 28.3594 31.0195 32.5586L31 32.793H35.043L35.0625 32.6172C35.2773 30.2344 36.957 28.5938 39.6523 28.5938C42.3086 28.5938 44.0664 30.1953 44.0664 32.4219V32.4414C44.0664 34.4336 43.2266 35.5664 40.8633 36.9922C38.1875 38.5938 37.0352 40.3516 37.0938 43.0078L37.1133 44.5703ZM39.1641 53.6328C40.6289 53.6328 41.7422 52.5195 41.7422 51.0938C41.7422 49.668 40.6289 48.5742 39.1641 48.5742C37.7383 48.5742 36.6055 49.668 36.6055 51.0938C36.6055 52.5195 37.7383 53.6328 39.1641 53.6328Z" fill="white"/>
</svg>
