<svg width="150" height="150" viewBox="0 0 150 150" fill="none" xmlns="http://www.w3.org/2000/svg">
<g filter="url(#filter0_ii)">
<rect width="150" height="150" rx="6" fill="#F0F0F3"/>
</g>
<path d="M97.4435 95.4262L93.6788 88.1205L89.7635 80.8148C89.6129 80.6657 89.3117 80.5166 89.1611 80.6657C87.0529 81.8584 84.9446 83.0512 82.6858 84.3931C81.0293 85.2877 79.5234 86.3313 77.8669 87.2259C77.5657 86.9277 77.2646 86.7786 76.9634 86.6295C76.9634 82.753 76.9634 78.8765 76.9634 75C76.9634 64.7123 76.9634 54.4247 76.8128 44.137C76.6622 34.1476 76.6622 24.009 76.361 14.0196L82.8364 21.6235L76.361 13.2741L76.2104 13.125C76.0599 13.125 75.9093 13.2741 75.9093 13.4232C75.7587 23.5617 75.7587 33.8494 75.6081 44.137C75.6081 54.4247 75.4575 64.7123 75.4575 75C75.4575 78.8765 75.4575 82.753 75.4575 86.6295C74.7045 86.9277 74.1022 87.6732 74.1022 88.5678C74.1022 89.4623 74.7045 90.2078 75.4575 90.506C75.4575 95.5753 75.4575 100.794 75.6081 105.863C75.6081 106.459 75.6081 107.056 75.6081 107.652C72.2951 104.67 68.9822 101.837 65.5186 99.0045C63.7115 97.3645 61.7539 95.8735 59.9468 94.3825C58.1397 92.8916 56.1821 91.2515 54.375 89.7605C57.8386 93.0407 61.4527 96.4699 64.9162 99.75C68.5304 103.03 71.9939 106.31 75.6081 109.59C75.7587 118.685 75.9093 127.78 76.0599 136.875C76.361 127.78 76.5116 118.685 76.5116 109.59L86.7517 103.179L96.9918 96.619C97.4435 96.1717 97.5941 95.7244 97.4435 95.4262ZM86.1493 101.688L76.8128 107.801C76.8128 107.205 76.8128 106.459 76.8128 105.863C76.9634 100.794 76.9634 95.5753 76.9634 90.506C77.7163 90.2078 78.3187 89.4623 78.3187 88.5678C78.3187 88.1205 78.1681 87.6732 77.8669 87.375C79.5234 86.6295 81.1799 85.7349 82.8364 84.8404C84.9446 83.7967 86.9023 82.753 89.0105 81.7093L92.4741 88.7169L95.9376 95.5753L86.1493 101.688Z" fill="#555353"/>
<defs>
<filter id="filter0_ii" x="-3" y="-3" width="156" height="156" filterUnits="userSpaceOnUse" color-interpolation-filters="sRGB">
<feFlood flood-opacity="0" result="BackgroundImageFix"/>
<feBlend mode="normal" in="SourceGraphic" in2="BackgroundImageFix" result="shape"/>
<feColorMatrix in="SourceAlpha" type="matrix" values="0 0 0 0 0 0 0 0 0 0 0 0 0 0 0 0 0 0 127 0" result="hardAlpha"/>
<feOffset dx="-3" dy="-3"/>
<feGaussianBlur stdDeviation="1.5"/>
<feComposite in2="hardAlpha" operator="arithmetic" k2="-1" k3="1"/>
<feColorMatrix type="matrix" values="0 0 0 0 0.682353 0 0 0 0 0.682353 0 0 0 0 0.752941 0 0 0 0.25 0"/>
<feBlend mode="normal" in2="shape" result="effect1_innerShadow"/>
<feColorMatrix in="SourceAlpha" type="matrix" values="0 0 0 0 0 0 0 0 0 0 0 0 0 0 0 0 0 0 127 0" result="hardAlpha"/>
<feOffset dx="3" dy="3"/>
<feGaussianBlur stdDeviation="1.5"/>
<feComposite in2="hardAlpha" operator="arithmetic" k2="-1" k3="1"/>
<feColorMatrix type="matrix" values="0 0 0 0 1 0 0 0 0 1 0 0 0 0 1 0 0 0 1 0"/>
<feBlend mode="normal" in2="effect1_innerShadow" result="effect2_innerShadow"/>
</filter>
</defs>
</svg>
