<svg width="91" height="91" viewBox="0 0 91 91" fill="none" xmlns="http://www.w3.org/2000/svg">
<rect x="0.5" y="0.5" width="89.6678" height="89.6678" rx="5.5" fill="white" stroke="#0054E7"/>
<path d="M58.8999 57.6806L56.6243 53.2646L54.2577 48.8487C54.1667 48.7585 53.9847 48.6684 53.8936 48.7585C52.6193 49.4795 51.345 50.2005 49.9796 51.0116C48.9783 51.5523 48.0681 52.1832 47.0668 52.7239C46.8848 52.5437 46.7027 52.4535 46.5207 52.3634C46.5207 50.0203 46.5207 47.6771 46.5207 45.3339C46.5207 39.1155 46.5207 32.8971 46.4297 26.6788C46.3386 20.6406 46.3386 14.5123 46.1566 8.4742L50.0706 13.0704L46.1566 8.02359L46.0656 7.93347C45.9745 7.93347 45.8835 8.02359 45.8835 8.11371C45.7925 14.242 45.7925 20.4604 45.7015 26.6788C45.7015 32.8971 45.6104 39.1155 45.6104 45.3339C45.6104 47.6771 45.6104 50.0203 45.6104 52.3634C45.1553 52.5437 44.7912 52.9943 44.7912 53.535C44.7912 54.0757 45.1553 54.5263 45.6104 54.7066C45.6104 57.7707 45.6104 60.925 45.7015 63.9891C45.7015 64.3496 45.7015 64.7101 45.7015 65.0706C43.6989 63.2681 41.6964 61.5558 39.6029 59.8435C38.5106 58.8522 37.3273 57.9509 36.235 57.0497C35.1427 56.1485 33.9594 55.1572 32.8671 54.256C34.9606 56.2386 37.1452 58.3114 39.2388 60.2941C41.4233 62.2768 43.5169 64.2595 45.7015 66.2421C45.7925 71.7396 45.8835 77.237 45.9745 82.7344C46.1566 77.237 46.2476 71.7396 46.2476 66.2421L52.4372 62.3669L58.6269 58.4016C58.8999 58.1312 58.991 57.8608 58.8999 57.6806ZM52.0732 61.4657L46.4297 65.1607C46.4297 64.8002 46.4297 64.3496 46.4297 63.9891C46.5207 60.925 46.5207 57.7707 46.5207 54.7066C46.9758 54.5263 47.3399 54.0757 47.3399 53.535C47.3399 53.2646 47.2489 52.9943 47.0668 52.814C48.0681 52.3634 49.0694 51.8227 50.0706 51.282C51.345 50.6511 52.5283 50.0202 53.8026 49.3894L55.8962 53.6251L57.9897 57.7707L52.0732 61.4657Z" fill="#1D1F28"/>
</svg>
