<svg width="493" height="153" viewBox="0 0 493 153" fill="none" xmlns="http://www.w3.org/2000/svg">
<path fill-rule="evenodd" clip-rule="evenodd" d="M52.5645 6.44922V4.64014H53.5103C54.4963 4.64014 55.1839 4.54704 55.5732 4.36084C55.9668 4.17464 56.2673 3.90169 56.4746 3.54199C56.6862 3.18229 56.792 2.76758 56.792 2.29785C56.792 1.75618 56.6375 1.30762 56.3286 0.952148C56.0239 0.59668 55.6304 0.349121 55.1479 0.209473C54.6698 0.0698242 53.9863 0 53.0977 0C52.6152 0 51.9424 0.0148112 51.0791 0.0444336L50 0.0825195V0.374512H50.1587C50.5946 0.374512 50.8781 0.412598 51.0093 0.48877C51.1405 0.564941 51.2251 0.702474 51.2632 0.901367C51.3013 1.10026 51.3203 1.54248 51.3203 2.22803V6.44922C51.3203 7.16862 51.3013 7.62777 51.2632 7.82666C51.2251 8.02132 51.1341 8.1652 50.9902 8.2583C50.8506 8.3514 50.5967 8.39795 50.2285 8.39795H50V8.68994H53.9419V8.39795H53.6562C53.2712 8.39795 53.0088 8.34717 52.8691 8.24561C52.7295 8.14404 52.6427 7.98958 52.6089 7.78223C52.5793 7.57064 52.5645 7.1263 52.5645 6.44922ZM53.1802 4.32275H52.5645V0.336426C52.7168 0.319499 52.9368 0.311035 53.2246 0.311035C54.0075 0.311035 54.5724 0.47819 54.9194 0.8125C55.2707 1.14258 55.4463 1.66309 55.4463 2.37402C55.4463 2.83952 55.3447 3.23096 55.1416 3.54834C54.9385 3.86572 54.6846 4.0752 54.3799 4.17676C54.0752 4.27409 53.6753 4.32275 53.1802 4.32275ZM62.1621 5.03369C61.7347 4.63167 61.2417 4.40739 60.6831 4.36084C61.3009 4.21273 61.7643 3.95459 62.0732 3.58643C62.3864 3.21826 62.543 2.78027 62.543 2.27246C62.543 1.63346 62.2975 1.12354 61.8066 0.742676C61.32 0.357585 60.7593 0.165039 60.1245 0.165039C59.439 0.165039 58.8698 0.361816 58.417 0.755371C57.9642 1.14469 57.7378 1.65039 57.7378 2.27246C57.7378 2.78027 57.9028 3.22249 58.2329 3.59912C58.5672 3.97575 58.9946 4.22965 59.5151 4.36084C58.8719 4.48356 58.3683 4.74593 58.0044 5.14795C57.6405 5.54997 57.4585 6.03451 57.4585 6.60156C57.4585 7.25749 57.7124 7.8055 58.2202 8.24561C58.728 8.68148 59.3628 8.89941 60.1245 8.89941C60.8693 8.89941 61.502 8.69417 62.0225 8.28369C62.543 7.87321 62.8032 7.30404 62.8032 6.57617C62.8032 5.94564 62.5895 5.43148 62.1621 5.03369ZM59.0645 3.70068C58.8444 3.35368 58.7344 2.83529 58.7344 2.14551C58.7344 1.56999 58.8634 1.14258 59.1216 0.863281C59.3797 0.579753 59.7056 0.437988 60.0991 0.437988C60.5435 0.437988 60.8905 0.592448 61.1401 0.901367C61.394 1.21029 61.521 1.66097 61.521 2.25342C61.521 2.90511 61.4004 3.396 61.1592 3.72607C60.918 4.05192 60.554 4.21484 60.0674 4.21484C59.623 4.21484 59.2887 4.04346 59.0645 3.70068ZM58.6455 7.65527C58.5566 7.37598 58.5122 6.99723 58.5122 6.51904C58.5122 5.9012 58.6413 5.41455 58.8994 5.05908C59.1576 4.69938 59.5469 4.51953 60.0674 4.51953C60.5583 4.51953 60.9603 4.66341 61.2734 4.95117C61.5866 5.23893 61.7432 5.78695 61.7432 6.59521C61.7432 7.39925 61.5866 7.93669 61.2734 8.20752C60.9603 8.47835 60.5667 8.61377 60.0928 8.61377C59.7204 8.61377 59.4072 8.52279 59.1533 8.34082C58.9036 8.15885 58.7344 7.93034 58.6455 7.65527ZM68.3096 7.49552V1.08252H67.8476V7.49552C67.6129 7.29752 67.2609 7.08485 66.7916 6.85752V7.24252C67.327 7.70452 67.7229 8.18852 67.9796 8.69452H68.1776C68.4269 8.18852 68.8229 7.70452 69.3656 7.24252V6.85752C68.8963 7.08485 68.5443 7.29752 68.3096 7.49552ZM131.776 7.12207L134.912 0H137.553V0.291992H137.235C136.812 0.291992 136.535 0.327962 136.404 0.399902C136.273 0.467611 136.184 0.59668 136.137 0.787109C136.095 0.977539 136.074 1.43034 136.074 2.14551V6.3667C136.074 7.04378 136.091 7.48812 136.125 7.69971C136.158 7.90706 136.243 8.06152 136.378 8.16309C136.518 8.26465 136.783 8.31543 137.172 8.31543H137.553V8.60742H133.439V8.31543H133.744C134.108 8.31543 134.36 8.26888 134.5 8.17578C134.643 8.08268 134.734 7.9388 134.772 7.74414C134.815 7.54525 134.836 7.0861 134.836 6.3667V0.888672L131.427 8.60742H131.129L127.695 0.888672V5.92871C127.695 6.61849 127.716 7.08822 127.758 7.33789C127.801 7.58756 127.932 7.80762 128.152 7.99805C128.372 8.18425 128.681 8.29004 129.079 8.31543V8.60742H126V8.31543C126.368 8.29427 126.667 8.19482 126.895 8.01709C127.128 7.83512 127.27 7.61296 127.32 7.35059C127.371 7.08822 127.396 6.60156 127.396 5.89062V2.14551C127.396 1.45996 127.375 1.01774 127.333 0.818848C127.295 0.619954 127.21 0.482422 127.079 0.40625C126.952 0.330078 126.671 0.291992 126.235 0.291992H126V0H128.622L131.776 7.12207ZM138.784 1.82812L139.317 0.0825195H139.54C139.548 0.167155 139.582 0.224284 139.641 0.253906C139.705 0.279297 139.872 0.291992 140.143 0.291992H143.431L141.152 7.23633C140.902 7.99805 140.712 8.45296 140.581 8.60107C140.454 8.74495 140.322 8.81689 140.187 8.81689C139.933 8.81689 139.806 8.68571 139.806 8.42334C139.806 8.26676 139.925 7.93457 140.162 7.42676C140.225 7.29557 140.278 7.17708 140.32 7.07129L142.878 1.12988H140.168C139.804 1.12988 139.586 1.13835 139.514 1.15527C139.442 1.16797 139.375 1.21452 139.311 1.29492C139.248 1.37109 139.167 1.54883 139.07 1.82812H138.784ZM150.481 1V7.413C150.716 7.215 151.068 7.00233 151.537 6.775V7.16C150.994 7.622 150.598 8.106 150.349 8.612H150.151C149.894 8.106 149.498 7.622 148.963 7.16V6.775C149.432 7.00233 149.784 7.215 150.019 7.413V1H150.481ZM214.912 0L211.776 7.12207L208.622 0H206V0.291992H206.235C206.671 0.291992 206.952 0.330078 207.079 0.40625C207.21 0.482422 207.295 0.619954 207.333 0.818848C207.375 1.01774 207.396 1.45996 207.396 2.14551V5.89062C207.396 6.60156 207.371 7.08822 207.32 7.35059C207.27 7.61296 207.128 7.83512 206.895 8.01709C206.667 8.19482 206.368 8.29427 206 8.31543V8.60742H209.079V8.31543C208.681 8.29004 208.372 8.18425 208.152 7.99805C207.932 7.80762 207.801 7.58756 207.758 7.33789C207.716 7.08822 207.695 6.61849 207.695 5.92871V0.888672L211.129 8.60742H211.427L214.836 0.888672V6.3667C214.836 7.0861 214.815 7.54525 214.772 7.74414C214.734 7.9388 214.643 8.08268 214.5 8.17578C214.36 8.26888 214.108 8.31543 213.744 8.31543H213.439V8.60742H217.553V8.31543H217.172C216.783 8.31543 216.518 8.26465 216.378 8.16309C216.243 8.06152 216.158 7.90706 216.125 7.69971C216.091 7.48812 216.074 7.04378 216.074 6.3667V2.14551C216.074 1.43034 216.095 0.977539 216.137 0.787109C216.184 0.59668 216.273 0.467611 216.404 0.399902C216.535 0.327962 216.812 0.291992 217.235 0.291992H217.553V0H214.912ZM219.317 0.0825195L218.784 1.82812H219.07C219.167 1.54883 219.248 1.37109 219.311 1.29492C219.375 1.21452 219.442 1.16797 219.514 1.15527C219.586 1.13835 219.804 1.12988 220.168 1.12988H222.878L220.32 7.07129C220.278 7.17708 220.225 7.29557 220.162 7.42676C219.925 7.93457 219.806 8.26676 219.806 8.42334C219.806 8.68571 219.933 8.81689 220.187 8.81689C220.322 8.81689 220.454 8.74495 220.581 8.60107C220.712 8.45296 220.902 7.99805 221.152 7.23633L223.431 0.291992H220.143C219.872 0.291992 219.705 0.279297 219.641 0.253906C219.582 0.224284 219.548 0.167155 219.54 0.0825195H219.317ZM230.481 7.413V1H230.019V7.413C229.784 7.215 229.432 7.00233 228.963 6.775V7.16C229.498 7.622 229.894 8.106 230.151 8.612H230.349C230.598 8.106 230.994 7.622 231.537 7.16V6.775C231.068 7.00233 230.716 7.215 230.481 7.413ZM288.776 7.12207L291.912 0H294.553V0.291992H294.235C293.812 0.291992 293.535 0.327962 293.404 0.399902C293.273 0.467611 293.184 0.59668 293.137 0.787109C293.095 0.977539 293.074 1.43034 293.074 2.14551V6.3667C293.074 7.04378 293.091 7.48812 293.125 7.69971C293.158 7.90706 293.243 8.06152 293.378 8.16309C293.518 8.26465 293.783 8.31543 294.172 8.31543H294.553V8.60742H290.439V8.31543H290.744C291.108 8.31543 291.36 8.26888 291.5 8.17578C291.643 8.08268 291.734 7.9388 291.772 7.74414C291.815 7.54525 291.836 7.0861 291.836 6.3667V0.888672L288.427 8.60742H288.129L284.695 0.888672V5.92871C284.695 6.61849 284.716 7.08822 284.758 7.33789C284.801 7.58756 284.932 7.80762 285.152 7.99805C285.372 8.18425 285.681 8.29004 286.079 8.31543V8.60742H283V8.31543C283.368 8.29427 283.667 8.19482 283.895 8.01709C284.128 7.83512 284.27 7.61296 284.32 7.35059C284.371 7.08822 284.396 6.60156 284.396 5.89062V2.14551C284.396 1.45996 284.375 1.01774 284.333 0.818848C284.295 0.619954 284.21 0.482422 284.079 0.40625C283.952 0.330078 283.671 0.291992 283.235 0.291992H283V0H285.622L288.776 7.12207ZM296.527 4.30371C296.789 3.99056 297.064 3.7557 297.352 3.59912C297.644 3.44255 297.949 3.36426 298.266 3.36426C298.952 3.36426 299.544 3.6224 300.043 4.13867C300.543 4.65495 300.792 5.30241 300.792 6.08105C300.792 6.81315 300.551 7.45215 300.069 7.99805C299.586 8.54395 298.971 8.81689 298.222 8.81689C297.587 8.81689 297.052 8.61589 296.616 8.21387C296.18 7.81185 295.873 7.31038 295.695 6.70947C295.522 6.10433 295.435 5.47591 295.435 4.82422C295.435 3.47852 295.729 2.35286 296.317 1.44727C296.91 0.537435 297.701 0.0825195 298.691 0.0825195C299.157 0.0825195 299.567 0.184082 299.923 0.387207C300.278 0.5861 300.456 0.8125 300.456 1.06641C300.456 1.30339 300.335 1.42188 300.094 1.42188C299.887 1.42188 299.722 1.3055 299.599 1.07275C299.472 0.831543 299.335 0.65804 299.187 0.552246C299.038 0.450684 298.816 0.399902 298.52 0.399902C297.851 0.399902 297.35 0.696126 297.016 1.28857C296.681 1.88102 296.514 2.77181 296.514 3.96094C296.514 4.06673 296.518 4.18099 296.527 4.30371ZM296.489 5.99219C296.489 6.40267 296.546 6.81104 296.66 7.21729C296.779 7.6193 296.973 7.93669 297.244 8.16943C297.515 8.40218 297.818 8.51855 298.152 8.51855C298.681 8.51855 299.076 8.30697 299.339 7.88379C299.601 7.46061 299.732 6.82796 299.732 5.98584C299.732 5.45264 299.682 5.03792 299.58 4.7417C299.483 4.44124 299.301 4.19157 299.034 3.99268C298.772 3.79378 298.478 3.69434 298.152 3.69434C297.712 3.69434 297.325 3.86149 296.99 4.1958C296.656 4.52588 296.489 5.12467 296.489 5.99219ZM307.481 1V7.413C307.716 7.215 308.068 7.00233 308.537 6.775V7.16C307.994 7.622 307.598 8.106 307.349 8.612H307.151C306.894 8.106 306.498 7.622 305.963 7.16V6.775C306.432 7.00233 306.784 7.215 307.019 7.413V1H307.481ZM445.564 4.64014V6.44922C445.564 7.1263 445.579 7.57064 445.609 7.78223C445.643 7.98958 445.729 8.14404 445.869 8.24561C446.009 8.34717 446.271 8.39795 446.656 8.39795H446.942V8.68994H443V8.39795H443.229C443.597 8.39795 443.851 8.3514 443.99 8.2583C444.134 8.1652 444.225 8.02132 444.263 7.82666C444.301 7.62777 444.32 7.16862 444.32 6.44922V2.22803C444.32 1.54248 444.301 1.10026 444.263 0.901367C444.225 0.702474 444.14 0.564941 444.009 0.48877C443.878 0.412598 443.595 0.374512 443.159 0.374512H443V0.0825195L444.079 0.0444336C444.942 0.0148112 445.615 0 446.098 0C446.986 0 447.67 0.0698242 448.148 0.209473C448.63 0.349121 449.024 0.59668 449.329 0.952148C449.638 1.30762 449.792 1.75618 449.792 2.29785C449.792 2.76758 449.686 3.18229 449.475 3.54199C449.267 3.90169 448.967 4.17464 448.573 4.36084C448.184 4.54704 447.496 4.64014 446.51 4.64014H445.564ZM445.564 4.32275H446.18C446.675 4.32275 447.075 4.27409 447.38 4.17676C447.685 4.0752 447.938 3.86572 448.142 3.54834C448.345 3.23096 448.446 2.83952 448.446 2.37402C448.446 1.66309 448.271 1.14258 447.919 0.8125C447.572 0.47819 447.007 0.311035 446.225 0.311035C445.937 0.311035 445.717 0.319499 445.564 0.336426V4.32275ZM451.595 4.32275H451.265L451.455 0.374512H454.75C454.568 0.801921 454.434 1.04948 454.35 1.11719C454.269 1.1849 454.127 1.21875 453.924 1.21875H451.696L451.595 3.84668C452.022 3.30078 452.547 3.02783 453.169 3.02783C453.829 3.02783 454.392 3.29232 454.857 3.82129C455.327 4.35026 455.562 5.00619 455.562 5.78906C455.562 6.69043 455.298 7.43522 454.769 8.02344C454.244 8.60742 453.507 8.89941 452.56 8.89941C451.899 8.89941 451.385 8.74707 451.017 8.44238C450.649 8.13346 450.465 7.85417 450.465 7.60449C450.465 7.49447 450.501 7.39925 450.573 7.31885C450.649 7.23844 450.75 7.19824 450.877 7.19824C451.017 7.19824 451.123 7.24056 451.195 7.3252C451.267 7.4056 451.351 7.57487 451.449 7.83301C451.639 8.35775 452.018 8.62012 452.585 8.62012C453.127 8.62012 453.582 8.40218 453.95 7.96631C454.322 7.53044 454.508 6.82161 454.508 5.83984C454.508 4.9554 454.356 4.32699 454.051 3.95459C453.747 3.58219 453.387 3.396 452.972 3.396C452.388 3.396 451.929 3.70492 451.595 4.32275ZM459.518 0.689941V7.10294C459.753 6.90494 460.105 6.69228 460.574 6.46494V6.84994C460.031 7.31194 459.635 7.79594 459.386 8.30194H459.188C458.931 7.79594 458.535 7.31194 458 6.84994V6.46494C458.469 6.69228 458.821 6.90494 459.056 7.10294V0.689941H459.518ZM368.776 7.12207L371.912 0H374.553V0.291992H374.235C373.812 0.291992 373.535 0.327962 373.404 0.399902C373.273 0.467611 373.184 0.59668 373.137 0.787109C373.095 0.977539 373.074 1.43034 373.074 2.14551V6.3667C373.074 7.04378 373.091 7.48812 373.125 7.69971C373.158 7.90706 373.243 8.06152 373.378 8.16309C373.518 8.26465 373.783 8.31543 374.172 8.31543H374.553V8.60742H370.439V8.31543H370.744C371.108 8.31543 371.36 8.26888 371.5 8.17578C371.643 8.08268 371.734 7.9388 371.772 7.74414C371.815 7.54525 371.836 7.0861 371.836 6.3667V0.888672L368.427 8.60742H368.129L364.695 0.888672V5.92871C364.695 6.61849 364.716 7.08822 364.758 7.33789C364.801 7.58756 364.932 7.80762 365.152 7.99805C365.372 8.18425 365.681 8.29004 366.079 8.31543V8.60742H363V8.31543C363.368 8.29427 363.667 8.19482 363.895 8.01709C364.128 7.83512 364.27 7.61296 364.32 7.35059C364.371 7.08822 364.396 6.60156 364.396 5.89062V2.14551C364.396 1.45996 364.375 1.01774 364.333 0.818848C364.295 0.619954 364.21 0.482422 364.079 0.40625C363.952 0.330078 363.671 0.291992 363.235 0.291992H363V0H365.622L368.776 7.12207ZM376.527 4.30371C376.789 3.99056 377.064 3.7557 377.352 3.59912C377.644 3.44255 377.949 3.36426 378.266 3.36426C378.952 3.36426 379.544 3.6224 380.043 4.13867C380.543 4.65495 380.792 5.30241 380.792 6.08105C380.792 6.81315 380.551 7.45215 380.069 7.99805C379.586 8.54395 378.971 8.81689 378.222 8.81689C377.587 8.81689 377.052 8.61589 376.616 8.21387C376.18 7.81185 375.873 7.31038 375.695 6.70947C375.522 6.10433 375.435 5.47591 375.435 4.82422C375.435 3.47852 375.729 2.35286 376.317 1.44727C376.91 0.537435 377.701 0.0825195 378.691 0.0825195C379.157 0.0825195 379.567 0.184082 379.923 0.387207C380.278 0.5861 380.456 0.8125 380.456 1.06641C380.456 1.30339 380.335 1.42188 380.094 1.42188C379.887 1.42188 379.722 1.3055 379.599 1.07275C379.472 0.831543 379.335 0.65804 379.187 0.552246C379.038 0.450684 378.816 0.399902 378.52 0.399902C377.851 0.399902 377.35 0.696126 377.016 1.28857C376.681 1.88102 376.514 2.77181 376.514 3.96094C376.514 4.06673 376.518 4.18099 376.527 4.30371ZM376.489 5.99219C376.489 6.40267 376.546 6.81104 376.66 7.21729C376.779 7.6193 376.973 7.93669 377.244 8.16943C377.515 8.40218 377.818 8.51855 378.152 8.51855C378.681 8.51855 379.077 8.30697 379.339 7.88379C379.601 7.46061 379.732 6.82796 379.732 5.98584C379.732 5.45264 379.682 5.03792 379.58 4.7417C379.483 4.44124 379.301 4.19157 379.034 3.99268C378.772 3.79378 378.478 3.69434 378.152 3.69434C377.712 3.69434 377.325 3.86149 376.99 4.1958C376.656 4.52588 376.489 5.12467 376.489 5.99219ZM387.227 1V7.413C387.462 7.215 387.814 7.00233 388.283 6.775V7.16C387.74 7.622 387.344 8.106 387.095 8.612H386.897C386.64 8.106 386.244 7.622 385.709 7.16V6.775C386.178 7.00233 386.53 7.215 386.765 7.413V1H387.227ZM15.5631 42.2854C15.3441 42.3768 15.2977 42.3961 15.3152 42.5608H95.4801V37.1123H19.8338C19.5298 39.5284 17.9384 41.3422 15.6588 42.245L15.6071 42.2669L15.5631 42.2854ZM128.286 37.1123H176.645V42.5608H131.442C131.143 42.4091 130.815 42.3188 130.482 42.2971C130.162 42.2971 129.744 42.4095 129.406 42.5608H128.144C128.166 41.9712 128.242 39.0096 128.286 37.1123ZM127.063 36.2498H95.8251V30.8014H176.645V36.2498H128.305C128.313 35.8771 128.318 35.6161 128.318 35.5273C128.318 35.2505 128.091 35.0995 127.839 35.0995C127.487 35.0995 127.084 35.3512 127.059 35.8041L127.063 36.2498ZM127.07 37.1123C127.081 38.3891 127.1 40.4437 127.129 42.5608H95.8251V37.1123H127.07ZM127.141 43.4233H95.8251V44.5698H95.4801V43.4233H15.4656C15.7339 44.9275 16.0614 46.8387 16.0614 48.0585C16.0614 52.3368 12.7898 53.0918 11.1036 53.0918C7.30347 53.0918 6.32198 50.6255 6.32198 48.9897C6.32198 47.4293 7.32864 46.0955 9.0148 46.0955C10.55 46.0955 11.4308 47.2783 11.4308 48.6625C11.4308 50.1222 10.5248 50.8017 9.74462 51.0281C9.16579 51.2043 8.9393 51.2798 8.9393 51.456C8.9393 51.7831 9.59363 52.1858 10.9526 52.1858C12.4374 52.1858 14.9541 51.7328 14.9541 48.0082C14.9541 46.9334 14.6424 45.0275 14.3589 43.4233H0V42.5608H9.39989C6.20994 41.7857 4.23136 39.6563 3.42198 37.1123H0V36.2498H3.19534C3.06493 35.6274 3 34.9875 3 34.3428C3 33.0745 3.23967 31.8986 3.65569 30.8014H0V29.9389H4.02558C5.01705 27.8685 6.62137 26.0867 8.36145 24.4905H0V23.6279H9.33236C9.71241 23.2998 10.0947 22.9793 10.4745 22.6655C10.7625 22.4254 10.7529 22.3686 10.7077 22.1017L10.701 22.0615C10.5346 21.0871 10.3682 19.5741 10.3502 18.1794H0V17.3169H10.3598C10.4498 14.8358 11.0969 12.0111 12.8149 10.1074C13.3183 9.55374 14.0984 8.89941 14.4508 8.89941C14.7276 8.89941 15.3819 9.60408 15.7594 10.1577C16.7912 11.6677 17.3952 13.832 17.3952 16.0215C17.3952 16.4619 17.3683 16.8937 17.3164 17.3169H95.4801V16.1704H95.8251V17.3169H176.645V16.1704H176.99V17.3169H254.49V16.1704H254.835V17.3169H335.645V16.1704H335.99V17.3169H413.487V16.1704H413.832V17.3169H491.338V16.1704H491.683V17.3169H492.141V18.1794H491.683V23.6279H492.141V24.4905H491.683V29.9389H492.141V30.8014H491.683V36.2498H492.141V37.1123H491.683V42.5608H492.141V43.4233H491.683V44.5698H491.338V43.4233H413.832V44.5698H413.487V43.4233H379.005C378.065 45.1446 375.805 46.5154 373.888 46.5154C372.378 46.5154 371.17 45.6346 371.17 44.1749C371.17 43.9222 371.197 43.6708 371.249 43.4233H335.99V44.5698H335.645V43.4233H301.16C300.22 45.1446 297.96 46.5154 296.043 46.5154C294.533 46.5154 293.325 45.6346 293.325 44.1749C293.325 43.9222 293.352 43.6708 293.404 43.4233H291.149C290.679 44.1781 289.905 44.9909 288.728 45.8107C288.466 45.9893 288.208 46.2116 287.941 46.4412C287.569 46.7618 287.18 47.0966 286.74 47.3459C286.74 47.3459 286.665 47.3962 286.589 47.3962C286.514 47.3962 286.438 47.371 286.363 47.2704C286.296 47.1872 286.241 45.5621 286.196 43.4233H254.835V44.5698H254.49V43.4233H219.849C220.231 43.8194 220.449 44.346 220.449 44.9648C220.449 47.3556 217.379 49.671 214.887 49.671C213.377 49.671 212.169 48.7901 212.169 47.3305C212.169 45.7899 213.172 44.3004 214.695 43.4233H176.99V44.5698H176.645V43.4233H142.004C142.386 43.8194 142.604 44.346 142.604 44.9648C142.604 47.3556 139.534 49.671 137.042 49.671C135.532 49.671 134.324 48.7901 134.324 47.3305C134.324 45.7899 135.327 44.3004 136.85 43.4233H132.391C132.614 43.7812 132.747 44.2153 132.747 44.7131C132.747 45.8708 131.967 47.4059 129.727 48.9662C129.464 49.1448 129.206 49.3671 128.94 49.5967C128.567 49.9173 128.179 50.2521 127.739 50.5014C127.739 50.5014 127.663 50.5517 127.588 50.5517C127.512 50.5517 127.437 50.5266 127.361 50.4259C127.264 50.3047 127.191 46.9106 127.141 43.4233ZM379.351 42.5608C379.415 42.3129 379.449 42.0615 379.449 41.8093C379.449 40.4 378.317 39.4688 376.706 39.4688C374.339 39.4688 372.331 40.8301 371.535 42.5608H335.99V37.1123H413.487V42.5608H379.351ZM301.506 42.5608C301.57 42.3129 301.604 42.0615 301.604 41.8093C301.604 40.4 300.472 39.4688 298.861 39.4688C296.494 39.4688 294.486 40.8301 293.69 42.5608H291.568C291.693 42.2039 291.748 41.8672 291.748 41.5576C291.748 40.1231 290.641 39.2171 289.483 39.1416C289.056 39.1416 288.452 39.3429 288.099 39.5694C287.948 39.6953 287.671 39.9218 287.546 39.9218C287.495 39.9218 287.47 39.9218 287.42 39.8966C287.244 39.8211 287.143 39.6449 287.143 39.4688C287.152 39.2611 287.18 38.2818 287.21 37.1123H335.645V42.5608H301.506ZM287.319 32.3718C287.319 32.6413 287.276 34.4978 287.232 36.2498H335.645V30.8014H254.835V36.2498H286.093C286.072 34.1791 286.061 32.6486 286.061 32.6486C286.086 32.1956 286.489 31.944 286.841 31.944C287.093 31.944 287.319 32.095 287.319 32.3718ZM286.179 42.5608C286.147 40.8129 286.121 38.8373 286.102 37.1123H254.835V42.5608H286.179ZM287.168 42.5139L287.168 42.5608H289.934C289.984 42.3539 290.012 42.1445 290.012 41.9351C290.012 41.3059 289.71 40.4754 288.98 40.4754C288.401 40.4754 287.395 41.2052 287.218 41.7086C287.193 41.8092 287.168 42.1112 287.168 42.5139ZM289.591 43.4233H287.182C287.204 44.2411 287.244 45.0306 287.244 45.0306C287.244 45.1564 287.294 45.4081 287.52 45.4081C287.596 45.4081 287.671 45.3829 287.772 45.3326C288.45 44.907 289.157 44.215 289.591 43.4233ZM254.49 37.1123H176.99V42.5608H254.49V37.1123ZM254.49 36.2498H176.99V30.8014H254.49V36.2498ZM413.487 36.2498H335.99V30.8014H413.487V36.2498ZM413.832 37.1123H491.338V42.5608H413.832V37.1123ZM413.832 36.2498H491.338V30.8014H413.832V36.2498ZM413.832 18.1794H491.338V23.6279H413.832V18.1794ZM413.832 24.4905H491.338V29.9389H413.832V24.4905ZM413.487 18.1794H335.99V23.6279H413.487V18.1794ZM413.487 24.4905H378.85C379.231 24.8865 379.449 25.413 379.449 26.0317C379.449 27.56 378.195 29.0574 376.639 29.9389H413.487V24.4905ZM373.695 24.4905H335.99V29.9389H371.771C371.394 29.5489 371.17 29.027 371.17 28.3974C371.17 26.8569 372.172 25.3676 373.695 24.4905ZM254.835 18.1794H335.645V23.6279H254.835V18.1794ZM254.835 24.4905H295.85C294.327 25.3676 293.325 26.8569 293.325 28.3974C293.325 29.027 293.549 29.5489 293.926 29.9389H254.835V24.4905ZM301.604 26.0317C301.604 25.413 301.386 24.8865 301.005 24.4905H335.645V29.9389H298.794C300.35 29.0574 301.604 27.56 301.604 26.0317ZM254.49 18.1794H176.99V23.6279H254.49V18.1794ZM214.695 24.4905H176.99V29.9389H212.771C212.394 29.5489 212.169 29.027 212.169 28.3974C212.169 26.8569 213.172 25.3676 214.695 24.4905ZM254.49 24.4905H219.85C220.231 24.8865 220.449 25.413 220.449 26.0317C220.449 27.56 219.194 29.0574 217.639 29.9389H254.49V24.4905ZM95.8251 18.1794H176.645V23.6279H95.8251V18.1794ZM142.005 24.4905H176.645V29.9389H139.794C141.349 29.0574 142.604 27.56 142.604 26.0317C142.604 25.413 142.386 24.8865 142.005 24.4905ZM136.85 24.4905H95.8251V29.9389H134.926C134.549 29.5489 134.324 29.027 134.324 28.3974C134.324 26.8569 135.327 25.3676 136.85 24.4905ZM95.4801 18.1794H17.1744C16.7557 20.2025 15.7706 22.0187 14.4695 23.6279H95.4801V18.1794ZM95.4801 24.4905H60.8545C61.2356 24.8865 61.4539 25.413 61.4539 26.0317C61.4539 27.56 60.1993 29.0574 58.6434 29.9389H95.4801V24.4905ZM13.7252 24.4905H55.6994C54.1768 25.3676 53.1741 26.8569 53.1741 28.3974C53.1741 29.027 53.3988 29.5489 53.7757 29.9389H13.1291C13.1163 29.8844 13.1052 29.818 13.0918 29.7373L12.4626 26.0881C12.4156 25.8059 12.4565 25.7654 12.5853 25.6381L12.6136 25.61C12.9986 25.2499 13.3705 24.8768 13.7252 24.4905ZM95.4801 30.8014H16.5855C18.6558 31.8066 19.8847 33.9299 19.8867 36.2498H95.4801V30.8014ZM5.10915 37.1123C5.63883 40.0208 8.3277 41.9682 12.2613 41.9682C12.7646 41.9682 13.2679 41.9179 13.6706 41.8424L13.6898 41.8385C14.0489 41.7668 14.0724 41.7621 14.0229 41.49L13.2884 37.1123H9.77145C9.91446 38.1218 10.6159 39.0232 11.5566 39.4264L11.5855 39.4387C11.7541 39.5104 11.9341 39.587 11.9341 39.7536C11.9341 39.9045 11.8334 40.0304 11.6321 40.0304C11.4559 40.0304 11.1539 39.9549 10.9526 39.8794C9.70434 39.4572 8.73726 38.486 8.3053 37.1123H5.10915ZM5.01714 36.2498H8.11358C8.07728 35.9857 8.05847 35.7105 8.05847 35.4249C8.05847 33.4971 9.22352 31.6919 11.0747 30.8014H6.84745C5.22294 32.8994 5.01332 34.6738 5.01332 36.0289C5.01332 36.103 5.0146 36.1766 5.01714 36.2498ZM9.78346 36.2498C9.97942 35.0572 10.9039 34.1674 12.2613 33.7891C12.6639 33.6884 12.7143 33.7136 12.7646 33.9904L13.1437 36.2498H9.78346ZM14.367 37.1123L15.0548 41.1125C15.1051 41.4145 15.1554 41.4145 15.4574 41.2635C16.8667 40.5589 17.8231 39.2754 17.8231 37.6899C17.8231 37.4932 17.8098 37.3004 17.7841 37.1123H14.367ZM17.5701 36.2498H14.2187L13.8216 33.9401C13.7713 33.6381 13.7964 33.5626 14.0984 33.5878C15.6665 33.7233 17.0261 34.7672 17.5701 36.2498ZM7.58138 29.9389H12.0852L12.0851 29.9386L11.5566 26.7173C11.5063 26.4405 11.4559 26.4153 11.2043 26.6166L11.1683 26.6458C10.058 27.5434 8.96657 28.4258 7.58138 29.9389ZM11.5187 18.1794C11.4941 18.4892 11.4811 18.8103 11.4811 19.1422C11.4811 19.9475 11.5314 20.8032 11.6321 21.4575C11.6824 21.7847 11.7831 21.8098 11.9593 21.6588C13.0911 20.6703 14.3534 19.5105 15.2308 18.1794H11.5187ZM11.6212 17.3169H15.7285C16.107 16.5503 16.3382 15.7327 16.3382 14.8639C16.3382 13.4797 15.6588 12.8002 14.8283 12.8002C13.5478 12.8002 12.0748 14.481 11.6212 17.3169ZM61.009 49.7344H64.6023V48.8718H61.3556C61.4197 48.6239 61.4539 48.3725 61.4539 48.1203C61.4539 46.711 60.3214 45.7798 58.7107 45.7798C56.3436 45.7798 54.3354 47.1411 53.5398 48.8718H50.0183V49.7344H53.2529C53.2011 49.9819 53.1741 50.2332 53.1741 50.486C53.1741 51.9456 54.3821 52.8265 55.8921 52.8265C57.8092 52.8265 60.069 51.4556 61.009 49.7344ZM449.095 62.3563H445.863V61.4937H449.382C450.177 59.763 452.186 58.4017 454.553 58.4017C456.163 58.4017 457.296 59.3329 457.296 60.7422C457.296 60.9944 457.262 61.2458 457.198 61.4937H460.44V62.3563H456.851C455.911 64.0775 453.651 65.4484 451.734 65.4484C450.224 65.4484 449.016 64.5675 449.016 63.1079C449.016 62.8551 449.043 62.6038 449.095 62.3563ZM445.863 56.0455H460.44V55.1829H445.863V56.0455ZM460.44 49.7344H456.851C455.911 51.4557 453.651 52.8265 451.734 52.8265C450.224 52.8265 449.016 51.9456 449.016 50.486C449.016 50.2333 449.043 49.9819 449.095 49.7344H445.863V48.8719H449.382C450.177 47.1412 452.186 45.7798 454.553 45.7798C456.163 45.7798 457.296 46.711 457.296 48.1203C457.296 48.3726 457.262 48.624 457.198 48.8719H460.44V49.7344ZM129.979 43.6309C129.4 43.6309 128.393 44.3608 128.217 44.8641C128.192 44.9648 128.167 45.2668 128.167 45.6694C128.167 46.6761 128.242 48.1861 128.242 48.1861C128.242 48.3119 128.292 48.5636 128.519 48.5636C128.594 48.5636 128.67 48.5384 128.771 48.4881C129.853 47.8086 131.01 46.4496 131.01 45.0906C131.01 44.4614 130.708 43.6309 129.979 43.6309ZM47.7504 55.1796C48.5943 54.9096 49.455 54.8083 50.3325 54.994C51.3283 55.2134 52.189 55.6184 52.4084 56.7323C52.6278 57.7955 52.2058 58.6731 51.3283 59.23C50.6194 59.6688 50.4507 59.9725 50.9907 60.7657C51.8852 62.1159 51.3789 63.8373 49.995 64.7149C49.2018 65.2211 48.3074 65.4237 47.7504 65.4237C44.8983 65.4237 43.4807 63.9554 44.0882 62.0146C44.3414 61.2045 44.8983 60.6814 45.6409 60.3438C46.1978 60.0907 46.3159 59.8713 45.9784 59.23C45.0839 57.5086 45.894 55.7872 47.7504 55.1796ZM45.7084 62.9766C45.7084 64.0735 46.2653 64.6811 47.6154 64.7486C48.4255 64.7824 49.3537 63.9892 49.3368 63.061C49.3368 62.4703 47.7336 60.7657 47.1766 60.732C46.5522 60.6982 45.7084 61.9809 45.7084 62.9766ZM47.7504 57.1542C47.8011 58.2005 48.6111 58.9937 49.4718 59.0106C50.4507 59.0275 50.6869 57.9474 50.8051 57.1373C50.7545 56.1078 50.2819 55.5846 49.32 55.6353C48.3917 55.6859 47.6998 56.1247 47.7504 57.1542ZM55.4197 59.3207C55.268 59.7172 55.1061 60.1405 55.0918 60.5969L55.1127 60.587C55.8511 60.2344 56.734 59.8129 57.2858 60.7826C57.9271 61.9471 57.5051 63.1115 56.8301 64.141C56.2732 64.9848 55.48 65.5586 54.3999 65.3561C53.3873 65.1536 53.0835 64.3604 53.2523 63.4659C53.5223 62.1158 53.8261 60.7657 54.248 59.4662C54.4842 58.673 54.4167 58.2511 53.4548 58.0823C54.248 57.6773 55.3618 57.4073 55.5812 57.8292C55.8151 58.2872 55.627 58.779 55.4197 59.3207ZM55.4462 64.3773C56.0538 63.601 56.3069 62.6727 56.425 61.7108C56.4588 61.3733 56.4588 61.0188 56.1213 60.867C55.7162 60.6644 55.4293 60.9682 55.1931 61.2382C54.5349 61.9808 54.3324 62.9259 54.1467 63.871C54.0792 64.2423 54.1298 64.6642 54.518 64.8161C54.923 64.9848 55.2268 64.6642 55.4462 64.3773ZM62.3063 62.218L62.3065 62.2174L62.3067 62.2168C62.4459 61.7782 62.585 61.3396 62.72 60.901C62.7875 60.6648 62.8888 60.1247 62.6356 60.2597C62.1452 60.5437 61.6636 60.4372 61.1862 60.3317C60.7272 60.2302 60.2722 60.1297 59.8172 60.3779C58.6021 61.0192 57.657 62.9769 58.0283 64.2595C58.349 65.3902 59.4291 65.7615 60.1716 64.9176C60.5598 64.4789 60.6779 64.5464 60.948 64.9008C61.6773 65.8318 62.1355 65.3361 62.8212 64.5942L62.8221 64.5932C62.8819 64.5286 62.9434 64.4621 63.0069 64.3945C62.2394 64.5209 61.8826 64.5797 61.7657 64.439C61.6642 64.3168 61.7439 64.0439 61.893 63.5338C62.0278 63.0959 62.1667 62.6581 62.3056 62.2203L62.3057 62.2199L62.3059 62.2195L62.3063 62.218ZM61.2349 61.6774C61.0492 62.5718 60.7961 63.4494 60.2054 64.1751C60.1763 64.2115 60.1472 64.2514 60.1173 64.2923C59.9394 64.5359 59.7348 64.8162 59.3447 64.6139C59.0668 64.4749 59.0725 64.232 59.0788 63.963V63.9629C59.081 63.8725 59.0832 63.7791 59.0747 63.6857C59.1928 62.7912 59.4291 61.863 60.121 61.1373C60.3067 60.9348 60.5767 60.766 60.8467 60.8673C61.1842 61.0023 61.3024 61.3398 61.2349 61.6774ZM69.3495 62.6462V57.6662H68.3495V62.1462H63.8695V63.1462H68.8495H69.3495V62.6462ZM127.333 54.994C126.455 54.8083 125.594 54.9096 124.75 55.1796C122.894 55.7872 122.084 57.5086 122.978 59.23C123.316 59.8713 123.198 60.0907 122.641 60.3438C121.898 60.6814 121.341 61.2045 121.088 62.0146C120.481 63.9554 121.898 65.4237 124.75 65.4237C125.307 65.4237 126.202 65.2211 126.995 64.7149C128.379 63.8373 128.885 62.1159 127.991 60.7657C127.451 59.9725 127.619 59.6688 128.328 59.23C129.206 58.6731 129.628 57.7955 129.408 56.7323C129.189 55.6184 128.328 55.2134 127.333 54.994ZM124.615 64.7486C123.265 64.6811 122.708 64.0735 122.708 62.9766C122.708 61.9809 123.552 60.6982 124.177 60.732C124.734 60.7657 126.337 62.4703 126.337 63.061C126.354 63.9892 125.425 64.7824 124.615 64.7486ZM126.472 59.0106C125.611 58.9937 124.801 58.2005 124.75 57.1542C124.7 56.1247 125.392 55.6859 126.32 55.6353C127.282 55.5846 127.754 56.1078 127.805 57.1373C127.687 57.9474 127.451 59.0275 126.472 59.0106ZM132.092 60.5969C132.106 60.1405 132.268 59.7172 132.42 59.3207C132.627 58.779 132.815 58.2872 132.581 57.8292C132.362 57.4073 131.248 57.6773 130.455 58.0823C131.417 58.2511 131.484 58.673 131.248 59.4662C130.826 60.7657 130.522 62.1158 130.252 63.4659C130.083 64.3604 130.387 65.1536 131.4 65.3561C132.48 65.5586 133.273 64.9848 133.83 64.141C134.505 63.1115 134.927 61.9471 134.286 60.7826C133.734 59.8129 132.851 60.2344 132.113 60.587L132.092 60.5969ZM133.425 61.7108C133.307 62.6727 133.054 63.601 132.446 64.3773C132.227 64.6642 131.923 64.9848 131.518 64.8161C131.13 64.6642 131.079 64.2423 131.147 63.871C131.332 62.9259 131.535 61.9808 132.193 61.2382C132.429 60.9682 132.716 60.6644 133.121 60.867C133.459 61.0188 133.459 61.3733 133.425 61.7108ZM139.307 62.2174L139.306 62.218L139.306 62.2203C139.167 62.6581 139.028 63.0959 138.893 63.5338C138.744 64.0439 138.664 64.3168 138.766 64.439C138.883 64.5797 139.239 64.5209 140.007 64.3945C139.943 64.4624 139.881 64.5293 139.821 64.5942C139.136 65.3361 138.677 65.8318 137.948 64.9008C137.678 64.5464 137.56 64.4789 137.172 64.9176C136.429 65.7615 135.349 65.3902 135.028 64.2595C134.657 62.9769 135.602 61.0192 136.817 60.3779C137.272 60.1297 137.727 60.2302 138.186 60.3317C138.664 60.4372 139.145 60.5437 139.636 60.2597C139.889 60.1247 139.788 60.6648 139.72 60.901C139.585 61.3396 139.446 61.7782 139.307 62.2168L139.307 62.2174ZM137.205 64.1751C137.796 63.4494 138.049 62.5718 138.235 61.6774C138.302 61.3398 138.184 61.0023 137.847 60.8673C137.577 60.766 137.307 60.9348 137.121 61.1373C136.429 61.863 136.193 62.7912 136.075 63.6857C136.083 63.779 136.081 63.8723 136.079 63.9626V63.9628V63.963C136.073 64.232 136.067 64.4749 136.345 64.6139C136.735 64.8162 136.939 64.5359 137.117 64.2923L137.118 64.2918L137.118 64.291C137.148 64.2505 137.177 64.2111 137.205 64.1751ZM146.349 57.6662V62.6462V63.1462H145.849H140.869V62.1462H145.349V57.6662H146.349ZM207.75 55.1796C208.594 54.9096 209.455 54.8083 210.333 54.994C211.328 55.2134 212.189 55.6184 212.408 56.7323C212.628 57.7955 212.206 58.6731 211.328 59.23C210.619 59.6688 210.451 59.9725 210.991 60.7657C211.885 62.1159 211.379 63.8373 209.995 64.7149C209.202 65.2211 208.307 65.4237 207.75 65.4237C204.898 65.4237 203.481 63.9554 204.088 62.0146C204.341 61.2045 204.898 60.6814 205.641 60.3438C206.198 60.0907 206.316 59.8713 205.978 59.23C205.084 57.5086 205.894 55.7872 207.75 55.1796ZM205.708 62.9766C205.708 64.0735 206.265 64.6811 207.615 64.7486C208.425 64.7824 209.354 63.9892 209.337 63.061C209.337 62.4703 207.734 60.7657 207.177 60.732C206.552 60.6982 205.708 61.9809 205.708 62.9766ZM207.75 57.1542C207.801 58.2005 208.611 58.9937 209.472 59.0106C210.451 59.0275 210.687 57.9474 210.805 57.1373C210.754 56.1078 210.282 55.5846 209.32 55.6353C208.392 55.6859 207.7 56.1247 207.75 57.1542ZM215.42 59.3207C215.268 59.7172 215.106 60.1405 215.092 60.5969L215.113 60.587C215.851 60.2344 216.734 59.8129 217.286 60.7826C217.927 61.9471 217.505 63.1115 216.83 64.141C216.273 64.9848 215.48 65.5586 214.4 65.3561C213.387 65.1536 213.083 64.3604 213.252 63.4659C213.522 62.1158 213.826 60.7657 214.248 59.4662C214.484 58.673 214.417 58.2511 213.455 58.0823C214.248 57.6773 215.362 57.4073 215.581 57.8292C215.815 58.2872 215.627 58.779 215.42 59.3207ZM215.446 64.3773C216.054 63.601 216.307 62.6727 216.425 61.7108C216.459 61.3733 216.459 61.0188 216.121 60.867C215.716 60.6644 215.429 60.9682 215.193 61.2382C214.535 61.9808 214.332 62.9259 214.147 63.871C214.079 64.2423 214.13 64.6642 214.518 64.8161C214.923 64.9848 215.227 64.6642 215.446 64.3773ZM222.306 62.218L222.307 62.2174L222.307 62.2168C222.446 61.7782 222.585 61.3396 222.72 60.901C222.787 60.6648 222.889 60.1247 222.636 60.2597C222.145 60.5437 221.664 60.4372 221.186 60.3317C220.727 60.2302 220.272 60.1297 219.817 60.3779C218.602 61.0192 217.657 62.9769 218.028 64.2595C218.349 65.3902 219.429 65.7615 220.172 64.9176C220.56 64.4789 220.678 64.5464 220.948 64.9008C221.677 65.8318 222.136 65.3361 222.821 64.5942C222.854 64.5592 222.886 64.5237 222.92 64.4877C222.948 64.4569 222.977 64.4258 223.007 64.3945C222.239 64.5209 221.883 64.5797 221.766 64.439C221.664 64.3168 221.744 64.0439 221.893 63.5338C222.028 63.0955 222.167 62.6573 222.306 62.2191L222.306 62.2187L222.306 62.2183L222.306 62.218ZM221.235 61.6774C221.049 62.5718 220.796 63.4494 220.205 64.1751C220.198 64.1847 220.19 64.1946 220.182 64.2047C220.174 64.2149 220.167 64.2252 220.159 64.2357C220.152 64.2448 220.145 64.2541 220.138 64.2635L220.118 64.2916L220.117 64.2923C219.939 64.5359 219.735 64.8162 219.345 64.6139C219.067 64.4749 219.073 64.232 219.079 63.963C219.081 63.8725 219.083 63.7791 219.075 63.6857C219.193 62.7912 219.429 61.863 220.121 61.1373C220.307 60.9348 220.577 60.766 220.847 60.8673C221.184 61.0023 221.302 61.3398 221.235 61.6774ZM229.349 62.6462V57.6662H228.349V62.1462H223.869V63.1462H228.849H229.349V62.6462ZM287.333 54.994C286.455 54.8083 285.594 54.9096 284.75 55.1796C282.894 55.7872 282.084 57.5086 282.978 59.23C283.316 59.8713 283.198 60.0907 282.641 60.3438C281.898 60.6814 281.341 61.2045 281.088 62.0146C280.481 63.9554 281.898 65.4237 284.75 65.4237C285.307 65.4237 286.202 65.2211 286.995 64.7149C288.379 63.8373 288.885 62.1159 287.991 60.7657C287.451 59.9725 287.619 59.6688 288.328 59.23C289.206 58.6731 289.628 57.7955 289.408 56.7323C289.189 55.6184 288.328 55.2134 287.333 54.994ZM284.615 64.7486C283.265 64.6811 282.708 64.0735 282.708 62.9766C282.708 61.9809 283.552 60.6982 284.177 60.732C284.734 60.7657 286.337 62.4703 286.337 63.061C286.354 63.9892 285.426 64.7824 284.615 64.7486ZM286.472 59.0106C285.611 58.9937 284.801 58.2005 284.75 57.1542C284.7 56.1247 285.392 55.6859 286.32 55.6353C287.282 55.5846 287.754 56.1078 287.805 57.1373C287.687 57.9474 287.451 59.0275 286.472 59.0106ZM292.092 60.5969C292.106 60.1405 292.268 59.7172 292.42 59.3207C292.627 58.779 292.815 58.2872 292.581 57.8292C292.362 57.4073 291.248 57.6773 290.455 58.0823C291.417 58.2511 291.484 58.673 291.248 59.4662C290.826 60.7657 290.522 62.1158 290.252 63.4659C290.083 64.3604 290.387 65.1536 291.4 65.3561C292.48 65.5586 293.273 64.9848 293.83 64.141C294.505 63.1115 294.927 61.9471 294.286 60.7826C293.734 59.8129 292.851 60.2344 292.113 60.587L292.092 60.5969ZM293.425 61.7108C293.307 62.6727 293.054 63.601 292.446 64.3773C292.227 64.6642 291.923 64.9848 291.518 64.8161C291.13 64.6642 291.079 64.2423 291.147 63.871C291.332 62.9259 291.535 61.9808 292.193 61.2382C292.429 60.9682 292.716 60.6644 293.121 60.867C293.459 61.0188 293.459 61.3733 293.425 61.7108ZM299.307 62.2174L299.306 62.218C299.167 62.6566 299.028 63.0952 298.893 63.5338C298.744 64.0439 298.664 64.3168 298.766 64.439C298.883 64.5797 299.239 64.5209 300.007 64.3945C299.99 64.4129 299.973 64.4312 299.956 64.4494C299.938 64.4681 299.921 64.4868 299.904 64.5053L299.821 64.5942C299.136 65.3361 298.677 65.8318 297.948 64.9008C297.678 64.5464 297.56 64.4789 297.172 64.9176C296.429 65.7615 295.349 65.3902 295.028 64.2595C294.657 62.9769 295.602 61.0192 296.817 60.3779C297.272 60.1297 297.727 60.2302 298.186 60.3317C298.664 60.4372 299.145 60.5437 299.636 60.2597C299.889 60.1247 299.788 60.6648 299.72 60.901C299.585 61.3396 299.446 61.7782 299.307 62.2168L299.307 62.2174ZM297.205 64.1751C297.796 63.4494 298.049 62.5718 298.235 61.6774C298.302 61.3398 298.184 61.0023 297.847 60.8673C297.577 60.766 297.307 60.9348 297.121 61.1373C296.429 61.863 296.193 62.7912 296.075 63.6857C296.083 63.7791 296.081 63.8725 296.079 63.963C296.073 64.232 296.067 64.4749 296.345 64.6139C296.735 64.8162 296.939 64.5359 297.117 64.2923L297.118 64.2918L297.118 64.2914C297.148 64.2508 297.176 64.2112 297.205 64.1751ZM306.349 57.6662V62.6462V63.1462H305.849H300.869V62.1462H305.349V57.6662H306.349ZM368.333 54.994C367.455 54.8083 366.594 54.9096 365.75 55.1796C363.894 55.7872 363.084 57.5086 363.978 59.23C364.316 59.8713 364.198 60.0907 363.641 60.3438C362.898 60.6814 362.341 61.2045 362.088 62.0146C361.481 63.9554 362.898 65.4237 365.75 65.4237C366.307 65.4237 367.202 65.2211 367.995 64.7149C369.379 63.8373 369.885 62.1159 368.991 60.7657C368.451 59.9725 368.619 59.6688 369.328 59.23C370.206 58.6731 370.628 57.7955 370.408 56.7323C370.189 55.6184 369.328 55.2134 368.333 54.994ZM365.615 64.7486C364.265 64.6811 363.708 64.0735 363.708 62.9766C363.708 61.9809 364.552 60.6982 365.177 60.732C365.734 60.7657 367.337 62.4703 367.337 63.061C367.354 63.9892 366.426 64.7824 365.615 64.7486ZM367.472 59.0106C366.611 58.9937 365.801 58.2005 365.75 57.1542C365.7 56.1247 366.392 55.6859 367.32 55.6353C368.282 55.5846 368.754 56.1078 368.805 57.1373C368.687 57.9474 368.451 59.0275 367.472 59.0106ZM373.42 59.321L373.42 59.3207C373.627 58.779 373.815 58.2872 373.581 57.8292C373.362 57.4073 372.248 57.6773 371.455 58.0823C372.417 58.2511 372.484 58.673 372.248 59.4662C371.826 60.7657 371.522 62.1158 371.252 63.4659C371.084 64.3604 371.387 65.1536 372.4 65.3561C373.48 65.5586 374.273 64.9848 374.83 64.141C375.505 63.1115 375.927 61.9471 375.286 60.7826C374.734 59.8129 373.851 60.2344 373.113 60.587L373.092 60.5969C373.106 60.1406 373.268 59.7174 373.42 59.321ZM374.425 61.7108C374.307 62.6727 374.054 63.601 373.446 64.3773C373.227 64.6642 372.923 64.9848 372.518 64.8161C372.13 64.6642 372.079 64.2423 372.147 63.871C372.332 62.9259 372.535 61.9808 373.193 61.2382C373.429 60.9682 373.716 60.6644 374.121 60.867C374.459 61.0188 374.459 61.3733 374.425 61.7108ZM380.307 62.2174L380.306 62.218L380.303 62.2273C380.165 62.6628 380.027 63.0983 379.893 63.5338C379.744 64.0439 379.664 64.3168 379.766 64.439C379.883 64.5797 380.239 64.5209 381.007 64.3945C380.947 64.4586 380.888 64.5218 380.831 64.5833L380.827 64.5885L380.821 64.5942C380.136 65.3361 379.677 65.8318 378.948 64.9008C378.678 64.5464 378.56 64.4789 378.172 64.9176C377.429 65.7615 376.349 65.3902 376.028 64.2595C375.657 62.9769 376.602 61.0192 377.817 60.3779C378.272 60.1297 378.727 60.2302 379.186 60.3317C379.664 60.4372 380.145 60.5437 380.636 60.2597C380.889 60.1247 380.788 60.6648 380.72 60.901C380.586 61.3365 380.448 61.772 380.31 62.2074L380.307 62.2168L380.307 62.2174ZM378.205 64.1751C378.796 63.4494 379.049 62.5718 379.235 61.6774C379.302 61.3398 379.184 61.0023 378.847 60.8673C378.577 60.766 378.307 60.9348 378.121 61.1373C377.429 61.863 377.193 62.7912 377.075 63.6857C377.083 63.7791 377.081 63.8725 377.079 63.963C377.073 64.232 377.067 64.4749 377.345 64.6139C377.735 64.8162 377.939 64.5359 378.117 64.2923L378.118 64.2918L378.118 64.2913L378.118 64.2909L378.119 64.2905L378.119 64.29C378.148 64.2499 378.177 64.2108 378.205 64.1751ZM387.349 57.6662V62.6462V63.1462H386.849H381.87V62.1462H386.349V57.6662H387.349ZM51.3674 85.5299V83.4987C51.3674 82.9443 51.359 82.5952 51.342 82.4513C51.3293 82.3074 51.2701 82.1974 51.1643 82.1212C51.0585 82.045 50.8702 82.007 50.5994 82.007H50.4661V81.715C50.9781 81.7023 51.5388 81.6134 52.1482 81.4484H52.2815V88.4371C52.2815 89.0423 52.2921 89.4104 52.3132 89.5416C52.3344 89.6728 52.4 89.7701 52.51 89.8336C52.6243 89.8971 52.8337 89.9288 53.1384 89.9288V90.2208C52.5248 90.2335 51.9789 90.2885 51.5007 90.3859C51.45 90.187 51.4246 89.8738 51.4246 89.4464C51.1114 89.7596 50.7877 89.9944 50.4534 90.151C50.1233 90.3076 49.7805 90.3859 49.425 90.3859C48.7522 90.3859 48.1703 90.115 47.6794 89.5734C47.1928 89.0317 46.9495 88.3758 46.9495 87.6056C46.9495 86.7592 47.1991 86.0758 47.6985 85.5553C48.1978 85.0306 48.7924 84.7682 49.4822 84.7682C49.8334 84.7682 50.1656 84.8317 50.4788 84.9586C50.7919 85.0856 51.0881 85.276 51.3674 85.5299ZM51.3674 85.8981C51.0881 85.6569 50.8067 85.477 50.5232 85.3585C50.2439 85.2358 49.9625 85.1744 49.679 85.1744C49.2008 85.1744 48.8009 85.3585 48.4792 85.7267C48.1619 86.0948 48.0032 86.6958 48.0032 87.5294C48.0032 88.3758 48.1661 89 48.4919 89.402C48.822 89.804 49.2283 90.005 49.7107 90.005C50.0323 90.005 50.3306 89.9288 50.6057 89.7765C50.8808 89.6241 51.1347 89.3956 51.3674 89.0909V85.8981ZM54.9729 85.8092H54.6428L54.8333 81.861H58.1277C57.9457 82.2884 57.8124 82.5359 57.7278 82.6036C57.6474 82.6713 57.5056 82.7052 57.3025 82.7052H55.0745L54.9729 85.3331C55.4003 84.7872 55.925 84.5143 56.5471 84.5143C57.2073 84.5143 57.7701 84.7788 58.2356 85.3077C58.7053 85.8367 58.9402 86.4926 58.9402 87.2755C58.9402 88.1769 58.6757 88.9217 58.1467 89.5099C57.622 90.0939 56.8857 90.3859 55.9377 90.3859C55.2776 90.3859 54.7634 90.2335 54.3953 89.9288C54.0271 89.6199 53.843 89.3406 53.843 89.0909C53.843 88.9809 53.879 88.8857 53.9509 88.8053C54.0271 88.7249 54.1287 88.6847 54.2556 88.6847C54.3953 88.6847 54.5011 88.727 54.573 88.8116C54.6449 88.8921 54.7296 89.0613 54.8269 89.3195C55.0173 89.8442 55.3961 90.1066 55.9631 90.1066C56.5048 90.1066 56.9597 89.8886 57.3279 89.4528C57.7003 89.0169 57.8865 88.3081 57.8865 87.3263C57.8865 86.4419 57.7341 85.8134 57.4294 85.441C57.1248 85.0686 56.7651 84.8824 56.3503 84.8824C55.7664 84.8824 55.3072 85.1914 54.9729 85.8092ZM65.221 82.569V88.982C65.4557 88.784 65.8077 88.5713 66.277 88.344V88.729C65.7343 89.191 65.3383 89.675 65.089 90.181H64.891C64.6343 89.675 64.2383 89.191 63.703 88.729V88.344C64.1723 88.5713 64.5243 88.784 64.759 88.982V82.569H65.221ZM210.862 81.4484L207.726 88.5704L204.571 81.4484H201.949V81.7404H202.184C202.62 81.7404 202.902 81.7784 203.029 81.8546C203.16 81.9308 203.244 82.0683 203.282 82.2672C203.325 82.4661 203.346 82.9083 203.346 83.5939V87.339C203.346 88.0499 203.321 88.5366 203.27 88.799C203.219 89.0613 203.077 89.2835 202.844 89.4655C202.616 89.6432 202.318 89.7426 201.949 89.7638V90.0558H205.028V89.7638C204.63 89.7384 204.321 89.6326 204.101 89.4464C203.881 89.256 203.75 89.0359 203.708 88.7863C203.665 88.5366 203.644 88.0669 203.644 87.3771V82.337L207.078 90.0558H207.377L210.785 82.337V87.8151C210.785 88.5345 210.764 88.9936 210.722 89.1925C210.684 89.3872 210.593 89.531 210.449 89.6241C210.309 89.7172 210.058 89.7638 209.694 89.7638H209.389V90.0558H213.502V89.7638H213.121C212.732 89.7638 212.468 89.713 212.328 89.6115C212.192 89.5099 212.108 89.3554 212.074 89.1481C212.04 88.9365 212.023 88.4921 212.023 87.8151V83.5939C212.023 82.8787 212.044 82.4259 212.087 82.2355C212.133 82.045 212.222 81.916 212.353 81.8483C212.484 81.7763 212.762 81.7404 213.185 81.7404H213.502V81.4484H210.862ZM217.381 85.3776C217.249 85.3776 217.118 85.3966 216.987 85.4347L217.501 85.0792C218.081 84.6899 218.491 84.3471 218.733 84.0509C218.978 83.7505 219.101 83.4267 219.101 83.0797C219.101 82.6862 218.921 82.3307 218.561 82.0133C218.206 81.6917 217.679 81.5309 216.981 81.5309C216.299 81.5309 215.756 81.7213 215.349 82.1022C214.943 82.483 214.74 82.9083 214.74 83.3781C214.74 83.6108 214.797 83.8266 214.911 84.0255C215.026 84.2244 215.148 84.3239 215.28 84.3239C215.343 84.3239 215.445 84.2921 215.584 84.2286C215.724 84.1652 215.794 84.1059 215.794 84.0509C215.794 84.0297 215.779 84.0044 215.749 83.9747C215.491 83.7124 215.362 83.4309 215.362 83.1305C215.362 82.7539 215.508 82.4449 215.8 82.2037C216.096 81.9583 216.435 81.8356 216.816 81.8356C217.188 81.8356 217.486 81.9562 217.711 82.1974C217.935 82.4344 218.047 82.7708 218.047 83.2067C218.047 83.6637 217.939 84.0424 217.723 84.3429C217.508 84.6433 217.065 85.02 216.397 85.4728C216.092 85.6801 215.906 85.8177 215.838 85.8854C215.775 85.9489 215.743 86.0102 215.743 86.0695C215.743 86.2049 215.806 86.2726 215.933 86.2726C215.997 86.2726 216.058 86.2408 216.117 86.1774C216.469 85.8219 216.79 85.6442 217.082 85.6442C217.421 85.6442 217.713 85.805 217.958 86.1266C218.208 86.4482 218.333 86.937 218.333 87.5929C218.333 88.4096 218.166 89.0127 217.831 89.402C217.501 89.7913 217.07 89.986 216.536 89.986C216.325 89.986 216.111 89.9288 215.895 89.8146C215.675 89.7046 215.506 89.457 215.387 89.0719C215.294 88.7714 215.138 88.6212 214.918 88.6212C214.795 88.6212 214.696 88.6656 214.619 88.7545C214.543 88.8391 214.505 88.9428 214.505 89.0656C214.505 89.3575 214.706 89.6305 215.108 89.8844C215.51 90.1383 215.99 90.2653 216.549 90.2653C217.383 90.2653 218.064 90.0177 218.593 89.5226C219.122 89.0275 219.386 88.3927 219.386 87.6183C219.386 86.9751 219.207 86.4419 218.847 86.0187C218.491 85.5913 218.003 85.3776 217.381 85.3776ZM226.43 88.8614V82.4484H225.968V88.8614C225.734 88.6634 225.382 88.4507 224.912 88.2234V88.6084C225.448 89.0704 225.844 89.5544 226.1 90.0604H226.298C226.548 89.5544 226.944 89.0704 227.486 88.6084V88.2234C227.017 88.4507 226.665 88.6634 226.43 88.8614ZM282.441 84.5651H282.505C282.627 84.8486 282.689 85.2125 282.689 85.6569C282.972 85.2929 283.277 85.02 283.603 84.838C283.933 84.656 284.286 84.5651 284.663 84.5651C285.09 84.5651 285.437 84.6624 285.704 84.8571C285.97 85.0517 286.157 85.3437 286.262 85.733C286.584 85.3437 286.914 85.0517 287.253 84.8571C287.591 84.6624 287.936 84.5651 288.287 84.5651C288.689 84.5651 289.03 84.6582 289.309 84.8444C289.589 85.0306 289.758 85.2421 289.817 85.4791C289.876 85.7161 289.906 86.0991 289.906 86.6281V88.1896C289.906 88.7947 289.917 89.1629 289.938 89.2941C289.963 89.4253 290.031 89.5226 290.141 89.5861C290.255 89.6495 290.465 89.6813 290.769 89.6813V89.9733H288.173V89.6813C288.448 89.6813 288.641 89.6516 288.751 89.5924C288.865 89.5289 288.935 89.4358 288.96 89.3131C288.986 89.1862 288.998 88.8116 288.998 88.1896V86.4567C288.998 86.1054 288.977 85.8409 288.935 85.6632C288.897 85.4855 288.793 85.3331 288.624 85.2062C288.455 85.0792 288.234 85.0157 287.964 85.0157C287.689 85.0157 287.411 85.1088 287.132 85.295C286.857 85.4812 286.58 85.7627 286.301 86.1393V88.1896C286.301 88.7439 286.307 89.0931 286.32 89.2369C286.336 89.3766 286.396 89.4866 286.497 89.567C286.603 89.6432 286.789 89.6813 287.056 89.6813V89.9733H284.542V89.6813C284.826 89.6813 285.023 89.6516 285.133 89.5924C285.247 89.5332 285.317 89.4422 285.342 89.3195C285.372 89.1967 285.386 88.8201 285.386 88.1896V86.7487C285.386 86.2916 285.367 85.9615 285.329 85.7584C285.295 85.5511 285.188 85.3755 285.006 85.2316C284.824 85.0835 284.597 85.0094 284.326 85.0094C284.064 85.0094 283.795 85.094 283.52 85.2633C283.249 85.4326 282.972 85.6865 282.689 86.025V88.1896C282.689 88.7609 282.697 89.1163 282.714 89.256C282.731 89.3956 282.794 89.5014 282.905 89.5734C283.015 89.6453 283.211 89.6813 283.495 89.6813V89.9733H280.949V89.6813C281.229 89.6813 281.423 89.6516 281.533 89.5924C281.648 89.5289 281.718 89.4358 281.743 89.3131C281.768 89.1904 281.781 88.8159 281.781 88.1896V86.6344C281.781 86.042 281.77 85.6801 281.749 85.549C281.732 85.4135 281.667 85.312 281.552 85.2443C281.442 85.1766 281.241 85.1427 280.949 85.1427V84.8507C281.55 84.7915 282.048 84.6963 282.441 84.5651ZM294.286 85.3522C294.417 85.3141 294.548 85.295 294.679 85.295C295.302 85.295 295.79 85.5088 296.146 85.9362C296.505 86.3593 296.685 86.8925 296.685 87.5358C296.685 88.3102 296.421 88.9449 295.892 89.4401C295.363 89.9352 294.682 90.1827 293.848 90.1827C293.289 90.1827 292.809 90.0558 292.407 89.8019C292.005 89.548 291.804 89.275 291.804 88.983C291.804 88.8603 291.842 88.7566 291.918 88.672C291.994 88.5831 292.094 88.5387 292.217 88.5387C292.437 88.5387 292.593 88.6889 292.686 88.9894C292.805 89.3745 292.974 89.622 293.194 89.7321C293.41 89.8463 293.624 89.9034 293.835 89.9034C294.368 89.9034 294.8 89.7088 295.13 89.3195C295.464 88.9301 295.632 88.3271 295.632 87.5104C295.632 86.8545 295.507 86.3657 295.257 86.0441C295.012 85.7225 294.72 85.5616 294.381 85.5616C294.089 85.5616 293.768 85.7394 293.416 86.0948C293.357 86.1583 293.296 86.1901 293.232 86.1901C293.105 86.1901 293.042 86.1224 293.042 85.9869C293.042 85.9277 293.073 85.8663 293.137 85.8029C293.205 85.7351 293.391 85.5976 293.696 85.3903C294.364 84.9375 294.806 84.5608 295.022 84.2604C295.238 83.9599 295.346 83.5812 295.346 83.1241C295.346 82.6883 295.234 82.3518 295.01 82.1149C294.785 81.8737 294.487 81.7531 294.115 81.7531C293.734 81.7531 293.395 81.8758 293.099 82.1212C292.807 82.3624 292.661 82.6713 292.661 83.048C292.661 83.3484 292.79 83.6298 293.048 83.8922C293.078 83.9218 293.093 83.9472 293.093 83.9684C293.093 84.0234 293.023 84.0826 292.883 84.1461C292.743 84.2096 292.642 84.2413 292.578 84.2413C292.447 84.2413 292.324 84.1419 292.21 83.943C292.096 83.7441 292.039 83.5283 292.039 83.2955C292.039 82.8258 292.242 82.4005 292.648 82.0197C293.054 81.6388 293.598 81.4484 294.28 81.4484C294.978 81.4484 295.505 81.6092 295.86 81.9308C296.22 82.2482 296.4 82.6036 296.4 82.9972C296.4 83.3442 296.277 83.6679 296.031 83.9684C295.79 84.2646 295.38 84.6074 294.8 84.9967L294.286 85.3522ZM301.137 82.6632V89.0762C301.372 88.8782 301.724 88.6655 302.193 88.4382V88.8232C301.651 89.2852 301.255 89.7692 301.005 90.2752H300.807C300.551 89.7692 300.155 89.2852 299.619 88.8232V88.4382C300.089 88.6655 300.441 88.8782 300.675 89.0762V82.6632H301.137ZM443.441 84.5651H443.505C443.627 84.8486 443.689 85.2125 443.689 85.6569C443.972 85.2929 444.277 85.02 444.603 84.838C444.933 84.656 445.286 84.5651 445.663 84.5651C446.09 84.5651 446.437 84.6624 446.704 84.8571C446.97 85.0517 447.157 85.3437 447.262 85.733C447.584 85.3437 447.914 85.0517 448.253 84.8571C448.591 84.6624 448.936 84.5651 449.287 84.5651C449.689 84.5651 450.03 84.6582 450.309 84.8444C450.589 85.0306 450.758 85.2421 450.817 85.4791C450.876 85.7161 450.906 86.0991 450.906 86.6281V88.1896C450.906 88.7947 450.917 89.1629 450.938 89.2941C450.963 89.4253 451.031 89.5226 451.141 89.5861C451.255 89.6495 451.465 89.6813 451.769 89.6813V89.9733H449.173V89.6813C449.448 89.6813 449.641 89.6516 449.751 89.5924C449.865 89.5289 449.935 89.4358 449.96 89.3131C449.986 89.1862 449.998 88.8116 449.998 88.1896V86.4567C449.998 86.1054 449.977 85.8409 449.935 85.6632C449.897 85.4855 449.793 85.3331 449.624 85.2062C449.454 85.0792 449.234 85.0157 448.964 85.0157C448.689 85.0157 448.411 85.1088 448.132 85.295C447.857 85.4812 447.58 85.7627 447.301 86.1393V88.1896C447.301 88.7439 447.307 89.0931 447.32 89.2369C447.337 89.3766 447.396 89.4866 447.497 89.567C447.603 89.6432 447.789 89.6813 448.056 89.6813V89.9733H445.542V89.6813C445.826 89.6813 446.023 89.6516 446.133 89.5924C446.247 89.5332 446.317 89.4422 446.342 89.3195C446.372 89.1967 446.386 88.8201 446.386 88.1896V86.7487C446.386 86.2916 446.367 85.9615 446.329 85.7584C446.296 85.5511 446.188 85.3755 446.006 85.2316C445.824 85.0835 445.597 85.0094 445.326 85.0094C445.064 85.0094 444.795 85.094 444.52 85.2633C444.249 85.4326 443.972 85.6865 443.689 86.025V88.1896C443.689 88.7609 443.697 89.1163 443.714 89.256C443.731 89.3956 443.795 89.5014 443.905 89.5734C444.015 89.6453 444.211 89.6813 444.495 89.6813V89.9733H441.949V89.6813C442.229 89.6813 442.423 89.6516 442.533 89.5924C442.648 89.5289 442.718 89.4358 442.743 89.3131C442.768 89.1904 442.781 88.8159 442.781 88.1896V86.6344C442.781 86.042 442.77 85.6801 442.749 85.549C442.732 85.4135 442.667 85.312 442.552 85.2443C442.442 85.1766 442.241 85.1427 441.949 85.1427V84.8507C442.55 84.7915 443.048 84.6963 443.441 84.5651ZM456.536 89.9733H452.798V89.5797C453.28 89.2031 453.889 88.6085 454.626 87.796C455.366 86.9793 455.9 86.2747 456.225 85.6823C456.551 85.0898 456.714 84.491 456.714 83.8859C456.714 83.1622 456.549 82.6311 456.219 82.2926C455.889 81.9498 455.478 81.7784 454.988 81.7784C454.505 81.7784 454.131 81.935 453.864 82.2482C453.602 82.5613 453.47 82.8956 453.47 83.2511C453.47 83.6573 453.642 83.979 453.985 84.2159C454.112 84.3048 454.175 84.3725 454.175 84.4191C454.175 84.4952 454.103 84.5989 453.959 84.7301C453.815 84.8613 453.697 84.9269 453.604 84.9269C453.477 84.9269 453.322 84.7999 453.14 84.546C452.963 84.2879 452.874 83.9578 452.874 83.5558C452.874 82.9083 453.126 82.3963 453.629 82.0197C454.133 81.6388 454.685 81.4484 455.286 81.4484C455.921 81.4484 456.492 81.6451 457 82.0387C457.512 82.4323 457.768 83.0162 457.768 83.7906C457.768 84.2773 457.654 84.7407 457.425 85.1808C457.197 85.6167 456.64 86.2853 455.756 87.1866C454.875 88.0838 454.167 88.7588 453.629 89.2115H457.666L457.304 90.6334H457.006C457.006 90.5573 457.019 90.4811 457.044 90.4049C457.057 90.3626 457.063 90.3055 457.063 90.2335C457.063 90.1066 457.036 90.0304 456.981 90.005C456.926 89.9838 456.778 89.9733 456.536 89.9733ZM462.137 82.6632V89.0762C462.372 88.8782 462.724 88.6655 463.193 88.4382V88.8232C462.651 89.2852 462.255 89.7692 462.005 90.2752H461.807C461.551 89.7692 461.155 89.2852 460.619 88.8232V88.4382C461.089 88.6655 461.441 88.8782 461.675 89.0762V82.6632H462.137ZM126.514 87.8976V86.0885H127.46C128.446 86.0885 129.133 85.9954 129.523 85.8092C129.916 85.623 130.217 85.3501 130.424 84.9904C130.636 84.6307 130.741 84.2159 130.741 83.7462C130.741 83.2046 130.587 82.756 130.278 82.4005C129.973 82.045 129.58 81.7975 129.097 81.6578C128.619 81.5182 127.936 81.4484 127.047 81.4484C126.565 81.4484 125.892 81.4632 125.029 81.4928L123.949 81.5309V81.8229H124.108C124.544 81.8229 124.828 81.861 124.959 81.9371C125.09 82.0133 125.175 82.1508 125.213 82.3497C125.251 82.5486 125.27 82.9908 125.27 83.6764V87.8976C125.27 88.617 125.251 89.0761 125.213 89.275C125.175 89.4697 125.084 89.6136 124.94 89.7067C124.8 89.7998 124.546 89.8463 124.178 89.8463H123.949V90.1383H127.891V89.8463H127.606C127.221 89.8463 126.958 89.7955 126.819 89.694C126.679 89.5924 126.592 89.438 126.558 89.2306C126.529 89.019 126.514 88.5747 126.514 87.8976ZM127.13 85.7711H126.514V81.7848C126.666 81.7679 126.886 81.7594 127.174 81.7594C127.957 81.7594 128.522 81.9266 128.869 82.2609C129.22 82.5909 129.396 83.1115 129.396 83.8224C129.396 84.2879 129.294 84.6793 129.091 84.9967C128.888 85.3141 128.634 85.5236 128.329 85.6251C128.025 85.7225 127.625 85.7711 127.13 85.7711ZM131.262 87.2755H134.385V88.3546C134.385 88.9555 134.374 89.3195 134.353 89.4464C134.332 89.5734 134.267 89.6728 134.156 89.7448C134.051 89.8125 133.871 89.8463 133.617 89.8463H133.395V90.1383H136.169V89.8463C135.86 89.8463 135.648 89.8167 135.534 89.7574C135.42 89.694 135.35 89.5988 135.324 89.4718C135.303 89.3406 135.293 88.9682 135.293 88.3546V87.2755H136.93L137.076 86.2916H136.797C136.679 86.609 136.586 86.7889 136.518 86.8312C136.45 86.8735 136.236 86.8947 135.877 86.8947H135.293V81.6134H134.886L131.262 86.8947V87.2755ZM134.385 82.8639V86.8947H131.617L134.385 82.8639ZM142.259 88.9439V82.5309H141.797V88.9439C141.562 88.7459 141.21 88.5332 140.741 88.3059V88.6909C141.276 89.1529 141.672 89.6369 141.929 90.1429H142.127C142.376 89.6369 142.772 89.1529 143.315 88.6909V88.3059C142.846 88.5332 142.494 88.7459 142.259 88.9439ZM362.726 88.5704L365.862 81.4484H368.502V81.7404H368.185C367.762 81.7404 367.484 81.7763 367.353 81.8483C367.222 81.916 367.133 82.045 367.087 82.2355C367.044 82.4259 367.023 82.8787 367.023 83.5939V87.8151C367.023 88.4921 367.04 88.9365 367.074 89.1481C367.108 89.3554 367.192 89.5099 367.328 89.6115C367.468 89.713 367.732 89.7638 368.121 89.7638H368.502V90.0558H364.389V89.7638H364.694C365.058 89.7638 365.309 89.7172 365.449 89.6241C365.593 89.531 365.684 89.3872 365.722 89.1925C365.764 88.9936 365.785 88.5345 365.785 87.8151V82.337L362.377 90.0558H362.078L358.644 82.337V87.3771C358.644 88.0669 358.665 88.5366 358.708 88.7863C358.75 89.0359 358.881 89.256 359.101 89.4464C359.321 89.6326 359.63 89.7384 360.028 89.7638V90.0558H356.949V89.7638C357.318 89.7426 357.616 89.6432 357.844 89.4655C358.077 89.2835 358.219 89.0613 358.27 88.799C358.321 88.5366 358.346 88.0499 358.346 87.339V83.5939C358.346 82.9083 358.325 82.4661 358.282 82.2672C358.244 82.0683 358.16 81.9308 358.029 81.8546C357.902 81.7784 357.62 81.7404 357.184 81.7404H356.949V81.4484H359.571L362.726 88.5704ZM369.499 90.0558V89.6622C369.981 89.2856 370.591 88.691 371.327 87.8785C372.067 87.0618 372.601 86.3572 372.927 85.7648C373.252 85.1723 373.415 84.5735 373.415 83.9684C373.415 83.2448 373.25 82.7137 372.92 82.3751C372.59 82.0323 372.18 81.861 371.689 81.861C371.206 81.861 370.832 82.0175 370.565 82.3307C370.303 82.6438 370.172 82.9781 370.172 83.3336C370.172 83.7399 370.343 84.0615 370.686 84.2985C370.813 84.3873 370.876 84.455 370.876 84.5016C370.876 84.5778 370.804 84.6814 370.66 84.8126C370.517 84.9438 370.398 85.0094 370.305 85.0094C370.178 85.0094 370.024 84.8824 369.842 84.6285C369.664 84.3704 369.575 84.0403 369.575 83.6383C369.575 82.9908 369.827 82.4788 370.33 82.1022C370.834 81.7213 371.386 81.5309 371.987 81.5309C372.622 81.5309 373.193 81.7277 373.701 82.1212C374.213 82.5148 374.469 83.0988 374.469 83.8732C374.469 84.3598 374.355 84.8232 374.126 85.2633C373.898 85.6992 373.341 86.3678 372.457 87.2692C371.577 88.1663 370.868 88.8413 370.33 89.2941H374.367L374.006 90.7159H373.707C373.707 90.6398 373.72 90.5636 373.745 90.4874C373.758 90.4451 373.764 90.388 373.764 90.316C373.764 90.1891 373.737 90.1129 373.682 90.0875C373.627 90.0664 373.479 90.0558 373.238 90.0558H369.499ZM381.177 82.4484V88.8614C381.411 88.6634 381.763 88.4507 382.233 88.2234V88.6084C381.69 89.0704 381.294 89.5544 381.045 90.0604H380.847C380.59 89.5544 380.194 89.0704 379.659 88.6084V88.2234C380.128 88.4507 380.48 88.6634 380.715 88.8614V82.4484H381.177ZM14.488 125.091C14.7782 126.725 15.1096 128.716 15.1096 129.825C15.1096 133.549 12.593 134.002 11.1081 134.002C9.74914 134.002 9.09481 133.6 9.09481 133.273C9.09481 133.096 9.32131 133.021 9.90014 132.845C10.6803 132.618 11.5863 131.939 11.5863 130.479C11.5863 129.095 10.7055 127.912 9.17031 127.912C7.48416 127.912 6.4775 129.246 6.4775 130.806C6.4775 132.442 7.45899 134.908 11.2591 134.908C12.9453 134.908 16.2169 134.153 16.2169 129.875C16.2169 128.615 15.8672 126.616 15.5945 125.091H94.744V126.237H95.089V125.091H171.854V126.237H172.199V125.091H252.283V126.237H252.628V125.091H329.393V126.237H329.738V125.091H360.971C361.002 128.64 361.099 138.2 361.263 138.404C361.338 138.505 361.414 138.53 361.489 138.53C361.565 138.53 361.64 138.48 361.64 138.48C362.08 138.231 362.469 137.896 362.841 137.575C363.108 137.346 363.366 137.123 363.628 136.945C365.868 135.384 366.648 133.849 366.648 132.692C366.648 131.257 365.541 130.351 364.383 130.276C363.956 130.276 363.352 130.477 362.999 130.703C362.848 130.829 362.571 131.056 362.446 131.056C362.395 131.056 362.37 131.056 362.32 131.031C362.144 130.955 362.043 130.779 362.043 130.603C362.061 130.211 362.141 127.071 362.187 125.091H409.809V126.237H410.154V125.091H486.915V126.237H487.261V125.091H491.339V126.237H491.684V125.091H492.141V124.228H491.684V118.78H492.141V117.917H491.684V112.469H492.141V111.606H491.684V106.158H492.141V105.295H491.684V99.847H492.141V98.9844H491.684V97.838H491.339V98.9844H487.261V97.838H486.915V98.9844H410.154V97.838H409.809V98.9844H329.738V97.838H329.393V98.9844H252.628V97.838H252.283V98.9844H172.199V97.838H171.854V98.9844H95.089V97.838H94.744V98.9844H17.4891C17.5297 98.609 17.5508 98.2269 17.5508 97.8381C17.5508 95.6486 16.9468 93.4843 15.9149 91.9743C15.5374 91.4206 14.8831 90.7159 14.6063 90.7159C14.2539 90.7159 13.4738 91.3703 12.9705 91.9239C11.2868 93.7896 10.6316 96.5399 10.5214 98.9844H0V99.847H10.5044C10.5119 101.282 10.6842 102.869 10.8565 103.878L10.8632 103.918C10.9084 104.185 10.9181 104.242 10.63 104.482C10.3079 104.748 9.98404 105.019 9.66126 105.295H0V106.158H8.68042C6.91978 107.754 5.28174 109.535 4.25373 111.606H0V112.469H3.86896C3.41744 113.609 3.15552 114.833 3.15552 116.159C3.15552 116.753 3.21052 117.342 3.32095 117.917H0V118.78H3.53158C4.26585 121.24 6.07966 123.335 9.01047 124.228H0V125.091H14.488ZM5.23956 118.78C5.70339 121.771 8.41642 123.785 12.4168 123.785C12.9201 123.785 13.4235 123.734 13.8261 123.659L13.8453 123.655C14.2045 123.583 14.2279 123.579 14.1784 123.307L13.4189 118.78H9.91002C10.0019 119.849 10.7254 120.82 11.7121 121.243L11.741 121.255C11.9096 121.327 12.0896 121.403 12.0896 121.57C12.0896 121.721 11.989 121.847 11.7876 121.847C11.6115 121.847 11.3095 121.771 11.1081 121.696C9.8152 121.259 8.82394 120.232 8.41652 118.78H5.23956ZM5.16924 117.917H8.25061C8.22643 117.699 8.21399 117.474 8.21399 117.241C8.21399 115.199 9.52168 113.294 11.5675 112.469H7.12026C5.38846 114.632 5.16884 116.458 5.16884 117.845C5.16884 117.869 5.16897 117.893 5.16924 117.917ZM7.87419 111.606H12.2162L11.7121 108.534C11.6618 108.257 11.6115 108.232 11.3598 108.433L11.3238 108.462C10.2505 109.33 9.19474 110.184 7.87419 111.606ZM9.96758 117.917C10.2135 116.8 11.1166 115.968 12.4168 115.606C12.8195 115.505 12.8698 115.53 12.9201 115.807L13.2742 117.917H9.96758ZM14.4969 118.78L15.2103 122.929C15.2606 123.231 15.3109 123.231 15.6129 123.08C17.0223 122.375 17.9786 121.092 17.9786 119.506C17.9786 119.257 17.9573 119.015 17.9165 118.78H14.4969ZM17.6676 117.917H14.3486L13.9771 115.757C13.9268 115.455 13.9519 115.379 14.2539 115.404C15.7689 115.535 17.0893 116.514 17.6676 117.917ZM20.0064 118.78H94.744V124.228H15.4922M20.0064 118.78C19.7502 121.27 18.1406 123.14 15.8143 124.062L20.0064 118.78ZM15.8143 124.062C15.7993 124.068 15.7849 124.074 15.7711 124.08L15.8143 124.062ZM15.7711 124.08C15.7526 124.088 15.7351 124.095 15.7186 124.102L15.7711 124.08ZM20.0404 117.917C19.9843 115.535 18.6326 113.382 16.408 112.469H94.744V117.917H20.0404ZM13.2561 111.606L13.2473 111.554L12.6181 107.905C12.5711 107.622 12.612 107.582 12.7408 107.455L12.7691 107.427C13.2034 107.02 13.621 106.598 14.0161 106.158H94.744V111.606H13.2561ZM14.7442 105.295H94.744V99.847H17.3597C16.9713 101.867 16.0175 103.684 14.7442 105.295ZM15.4824 99.847C14.6028 101.241 13.2886 102.45 12.1148 103.475C11.9386 103.626 11.838 103.601 11.7876 103.274C11.687 102.62 11.6366 101.764 11.6366 100.959C11.6366 100.573 11.6541 100.202 11.687 99.847H15.4824ZM15.9554 98.9844H11.8017C12.2822 96.2388 13.7259 94.6168 14.9838 94.6168C15.8143 94.6168 16.4938 95.2962 16.4938 96.6804C16.4938 97.4931 16.2914 98.2611 15.9554 98.9844ZM409.809 124.228H362.206C362.213 123.939 362.217 123.717 362.218 123.591C362.219 123.554 362.219 123.526 362.219 123.506C362.219 123.229 361.993 123.078 361.741 123.078C361.389 123.078 360.986 123.33 360.961 123.783L360.964 124.228H329.738V118.78H409.809V124.228ZM487.261 99.847H491.339V105.295H487.261V99.847ZM487.261 106.158H491.339V111.606H487.261V106.158ZM487.261 112.469H491.339V117.917H487.261V112.469ZM487.261 118.78H491.339V124.228H487.261V118.78ZM486.915 124.228V118.78H410.154V124.228H486.915ZM486.915 117.917V112.469H410.154V117.917H486.915ZM486.915 111.606V106.158H410.154V111.606H486.915ZM486.915 105.295V99.847H410.154V105.295H486.915ZM329.738 99.847H409.809V105.295H329.738V99.847ZM329.738 106.158H409.809V111.606H329.738V106.158ZM329.738 112.469H409.809V117.917H329.738V112.469ZM329.393 124.228V118.78H252.628V124.228H329.393ZM329.393 117.917V112.469H252.628V117.917H329.393ZM329.393 111.606V106.158H252.628V111.606H329.393ZM329.393 105.295V99.847H252.628V105.295H329.393ZM172.199 99.847H252.283V105.295H172.199V99.847ZM172.199 106.158H252.283V111.606H172.199V106.158ZM172.199 112.469H252.283V117.917H172.199V112.469ZM172.199 118.78H252.283V124.228H172.199V118.78ZM171.854 124.228V118.78H95.089V124.228H171.854ZM171.854 117.917V112.469H95.089V117.917H171.854ZM171.854 111.606V106.158H95.089V111.606H171.854ZM171.854 105.295V99.847H95.089V105.295H171.854ZM61.0089 144.024H64.602V143.161H61.3556C61.4197 142.913 61.4539 142.662 61.4539 142.41C61.4539 141 60.3214 140.069 58.7107 140.069C56.3435 140.069 54.3353 141.431 53.5397 143.161H50.8069V144.024H53.2529C53.201 144.271 53.1741 144.523 53.1741 144.775C53.1741 146.235 54.3821 147.116 55.8921 147.116C57.8091 147.116 60.0688 145.745 61.0089 144.024ZM64.6022 137.713H52.2271V136.85H64.6022V137.713ZM50.0183 131.402H53.2529C53.2011 131.649 53.1741 131.901 53.1741 132.154C53.1741 133.613 54.3821 134.494 55.8921 134.494C57.8092 134.494 60.069 133.123 61.009 131.402H64.6023V130.539H61.3556C61.4197 130.291 61.4539 130.04 61.4539 129.788C61.4539 128.379 60.3214 127.447 58.7107 127.447C56.3436 127.447 54.3354 128.809 53.5398 130.539H50.0183V131.402ZM132.793 137.713H127.112V136.85H141.696V137.713H137.948C138.329 138.109 138.547 138.636 138.547 139.254C138.547 141.645 135.477 143.961 132.986 143.961C131.476 143.961 130.268 143.08 130.268 141.62C130.268 140.079 131.27 138.59 132.793 137.713ZM127.112 131.402H130.346C130.295 131.649 130.268 131.901 130.268 132.154C130.268 133.613 131.476 134.494 132.986 134.494C134.903 134.494 137.162 133.123 138.103 131.402H141.696V130.539H138.449C138.513 130.291 138.547 130.04 138.547 129.788C138.547 128.379 137.415 127.447 135.804 127.447C133.437 127.447 131.429 128.809 130.633 130.539H127.112V131.402ZM208.94 136.85C209.064 136.493 209.12 136.157 209.12 135.847C209.12 134.413 208.013 133.507 206.855 133.431C206.427 133.431 205.823 133.633 205.471 133.859C205.32 133.985 205.043 134.211 204.917 134.211C204.867 134.211 204.842 134.211 204.791 134.186C204.615 134.111 204.515 133.935 204.515 133.758C204.54 133.205 204.691 127.165 204.691 126.661C204.691 126.385 204.464 126.234 204.213 126.234C203.86 126.234 203.458 126.485 203.432 126.938C203.432 126.938 203.533 141.308 203.734 141.56C203.81 141.661 203.885 141.686 203.961 141.686C204.036 141.686 204.112 141.635 204.112 141.635C204.552 141.386 204.941 141.051 205.313 140.731L205.313 140.731C205.579 140.501 205.838 140.279 206.1 140.1C207.277 139.281 208.051 138.468 208.52 137.713H210.775C210.723 137.96 210.696 138.212 210.696 138.465C210.696 139.924 211.904 140.805 213.414 140.805C215.331 140.805 217.591 139.434 218.531 137.713H222.125V136.85H218.878C218.942 136.602 218.976 136.351 218.976 136.099C218.976 134.69 217.844 133.758 216.233 133.758C216.17 133.758 216.108 133.759 216.046 133.761C217.09 133.196 218.012 132.353 218.531 131.402H222.126V130.539H218.878C218.942 130.291 218.976 130.04 218.976 129.788C218.976 128.379 217.844 127.447 216.233 127.447C213.866 127.447 211.858 128.809 211.062 130.539H207.542V131.402H210.775C210.723 131.649 210.696 131.901 210.696 132.154C210.696 133.588 211.863 134.463 213.336 134.493C212.306 135.057 211.5 135.897 211.062 136.85H208.94ZM299.229 137.713H295.641C294.701 139.434 292.441 140.805 290.524 140.805C289.014 140.805 287.806 139.924 287.806 138.465C287.806 138.212 287.833 137.96 287.885 137.713H284.65V136.85H288.172C288.61 135.897 289.415 135.057 290.446 134.493C288.973 134.463 287.806 133.588 287.806 132.154C287.806 131.901 287.833 131.649 287.885 131.402H284.65V130.539H288.172C288.967 128.809 290.975 127.447 293.343 127.447C294.953 127.447 296.086 128.379 296.086 129.788C296.086 130.04 296.052 130.291 295.987 130.539H299.229V131.402H295.641C295.122 132.353 294.2 133.196 293.156 133.761C293.218 133.759 293.28 133.758 293.343 133.758C294.953 133.758 296.086 134.69 296.086 136.099C296.086 136.351 296.052 136.602 295.987 136.85H299.229V137.713ZM370.751 131.402H367.276V130.539H376.107C376.902 128.809 378.91 127.447 381.277 127.447C382.888 127.447 384.021 128.379 384.021 129.788C384.021 130.04 383.986 130.291 383.922 130.539H387.167V131.402H383.576C382.636 133.123 380.376 134.494 378.459 134.494C377.629 134.494 376.891 134.228 376.394 133.746C375.82 135.827 373.154 137.65 370.944 137.65C369.434 137.65 368.226 136.769 368.226 135.309C368.226 133.768 369.229 132.279 370.751 131.402ZM442.175 130.539H453.215C454.011 128.809 456.019 127.447 458.386 127.447C459.997 127.447 461.129 128.379 461.129 129.788C461.129 130.04 461.095 130.291 461.031 130.539H464.273V131.402H460.685C459.745 133.123 457.485 134.494 455.568 134.494C454.738 134.494 453.999 134.228 453.502 133.746C452.929 135.827 450.262 137.65 448.052 137.65C446.542 137.65 445.334 136.769 445.334 135.309C445.334 133.768 446.337 132.279 447.86 131.402H442.175V130.539ZM45.5368 142.938C45.6374 142.938 46.1156 142.712 46.1911 142.662C46.2037 142.662 46.2163 142.655 46.2289 142.649C46.2366 142.645 46.2444 142.641 46.2522 142.639C46.257 142.637 46.2618 142.636 46.2666 142.636C46.4428 142.636 46.5938 142.888 46.5938 143.089V145.581C46.5938 145.858 46.4679 146.084 46.3169 146.16C46.1659 146.21 45.6374 146.437 45.6374 146.437C45.4613 146.487 45.3354 146.688 45.3354 146.839V148.626C45.3354 148.777 45.4109 148.853 45.5368 148.853M45.5368 142.938C45.4109 142.938 45.3354 142.863 45.3354 142.712L45.5368 142.938ZM45.3354 142.712V140.925V142.712ZM45.3354 140.925C45.3354 140.774 45.4613 140.573 45.6374 140.522L45.3354 140.925ZM45.6374 140.522C45.6374 140.522 46.1408 140.321 46.2918 140.246L45.6374 140.522ZM46.2918 140.246C46.4428 140.17 46.5938 139.918 46.5938 139.566L46.2918 140.246ZM46.5938 139.566V136.169V139.566ZM46.5938 136.169C46.5938 136.018 46.7448 135.892 46.9964 135.892L46.5938 136.169ZM46.9964 135.892C47.1726 135.892 47.3488 136.018 47.3488 136.169L46.9964 135.892ZM47.3488 136.169V139.189V136.169ZM47.3488 139.189C47.3488 139.39 47.4243 139.692 47.6508 139.692L47.3488 139.189ZM47.6508 139.692C48.0786 139.591 48.9343 139.239 49.2363 139.063L47.6508 139.692ZM49.2363 139.063C49.4628 138.912 49.5383 138.585 49.5634 138.333L49.2363 139.063ZM49.5634 138.333V135.061V138.333ZM49.5634 135.061C49.5634 134.91 49.7144 134.784 49.9661 134.784L49.5634 135.061ZM49.9661 134.784C50.1674 134.784 50.3184 134.91 50.3184 135.061L49.9661 134.784ZM50.3184 135.061V138.132V135.061ZM50.3184 138.132C50.3184 138.333 50.4946 138.459 50.6707 138.459L50.3184 138.132ZM50.6707 138.459C50.7966 138.434 51.2999 138.232 51.2999 138.232L50.6707 138.459ZM51.2999 138.232C51.3502 138.207 51.3754 138.207 51.4257 138.207L51.2999 138.232ZM51.4257 138.207C51.5264 138.207 51.6019 138.283 51.6019 138.408L51.4257 138.207ZM51.6019 138.408V140.195V138.408ZM51.6019 140.195C51.6019 140.346 51.4761 140.548 51.2999 140.623L51.6019 140.195ZM51.2999 140.623L50.6456 140.875L51.2999 140.623ZM50.6456 140.875C50.4443 140.95 50.3184 141.428 50.3184 141.605L50.6456 140.875ZM50.3184 141.605V143.945V141.605ZM50.3184 143.945C50.3184 144.247 50.4946 144.398 50.6456 144.398L50.3184 143.945ZM50.6456 144.398L51.2999 144.146L50.6456 144.398ZM51.2999 144.146C51.3502 144.121 51.3754 144.121 51.4257 144.121L51.2999 144.146ZM51.4257 144.121C51.5264 144.121 51.6019 144.197 51.6019 144.323L51.4257 144.121ZM51.6019 144.323V146.109V144.323ZM51.6019 146.109C51.6019 146.26 51.4761 146.462 51.2999 146.537L51.6019 146.109ZM51.2999 146.537C51.2999 146.537 50.7714 146.739 50.5952 146.814L51.2999 146.537ZM50.5952 146.814C50.4191 146.89 50.3184 147.192 50.3184 147.393L50.5952 146.814ZM50.3184 147.393V150.966V147.393ZM50.3184 150.966C50.3184 151.117 50.1674 151.243 49.8906 151.243L50.3184 150.966ZM49.8906 151.243C49.7144 151.243 49.5634 151.117 49.5634 150.966L49.8906 151.243ZM49.5634 150.966V147.821V150.966ZM49.5634 147.821C49.5634 147.67 49.4376 147.368 49.2363 147.368L49.5634 147.821ZM49.2363 147.368C49.2237 147.368 49.2048 147.374 49.1858 147.38L49.2363 147.368ZM49.1356 147.393L47.6004 148.022L49.1356 147.393ZM47.6004 148.022C47.4746 148.072 47.3488 148.249 47.3488 148.576L47.6004 148.022ZM47.3488 148.576V152.074V148.576ZM47.3488 152.074C47.3488 152.225 47.1726 152.351 46.9209 152.351L47.3488 152.074ZM46.9209 152.351C46.7448 152.351 46.5938 152.225 46.5938 152.074L46.9209 152.351ZM46.5938 152.074V148.978V152.074ZM46.5938 148.978C46.5938 148.853 46.4679 148.576 46.2918 148.576L46.5938 148.978ZM46.2918 148.576C46.2666 148.576 46.2414 148.576 46.2163 148.601L46.2918 148.576ZM46.2163 148.601C45.9898 148.676 45.6374 148.827 45.6374 148.827L46.2163 148.601ZM45.6374 148.827C45.6249 148.827 45.606 148.834 45.587 148.84L45.6374 148.827ZM47.2733 144.348C47.2733 143.568 47.2984 142.687 47.3488 142.485C47.3991 142.058 48.5568 141.529 49.1859 141.529C49.3621 141.529 49.5131 141.579 49.5634 141.68C49.6138 141.806 49.6641 142.435 49.6641 143.115C49.6641 143.794 49.6138 144.499 49.5634 144.725C49.4124 145.229 48.2296 145.732 47.6508 145.732C47.4998 145.732 47.3739 145.682 47.3488 145.606C47.2984 145.505 47.2733 144.952 47.2733 144.348ZM206.352 134.765C205.773 134.765 204.766 135.495 204.59 135.998C204.565 136.099 204.54 136.401 204.54 136.803C204.54 137.81 204.615 139.32 204.615 139.32C204.615 139.446 204.666 139.698 204.892 139.698C204.968 139.698 205.043 139.672 205.144 139.622C206.226 138.943 207.384 137.584 207.384 136.225C207.384 135.595 207.082 134.765 206.352 134.765ZM362.118 132.843C362.295 132.339 363.301 131.609 363.88 131.609C364.61 131.609 364.912 132.44 364.912 133.069C364.912 134.428 363.754 135.787 362.672 136.467C362.571 136.517 362.496 136.542 362.42 136.542C362.194 136.542 362.144 136.29 362.144 136.165C362.144 136.165 362.068 134.655 362.068 133.648C362.068 133.245 362.093 132.943 362.118 132.843Z" fill="black"/>
</svg>
