<svg width="493" height="54" viewBox="0 0 493 54" fill="none" xmlns="http://www.w3.org/2000/svg">
<path fill-rule="evenodd" clip-rule="evenodd" d="M44.5139 6.44922V4.64014H45.4597C46.4457 4.64014 47.1334 4.54704 47.5227 4.36084C47.9163 4.17464 48.2167 3.90169 48.4241 3.54199C48.6357 3.18229 48.7415 2.76758 48.7415 2.29785C48.7415 1.75618 48.587 1.30762 48.2781 0.952148C47.9734 0.59668 47.5798 0.349121 47.0974 0.209473C46.6192 0.0698242 45.9358 0 45.0471 0C44.5647 0 43.8918 0.0148112 43.0286 0.0444336L41.9495 0.0825195V0.374512H42.1082C42.544 0.374512 42.8276 0.412598 42.9587 0.48877C43.0899 0.564941 43.1746 0.702474 43.2126 0.901367C43.2507 1.10026 43.2698 1.54248 43.2698 2.22803V6.44922C43.2698 7.16862 43.2507 7.62777 43.2126 7.82666C43.1746 8.02132 43.0836 8.1652 42.9397 8.2583C42.8 8.3514 42.5461 8.39795 42.178 8.39795H41.9495V8.68994H45.8914V8.39795H45.6057C45.2206 8.39795 44.9583 8.34717 44.8186 8.24561C44.679 8.14404 44.5922 7.98958 44.5583 7.78223C44.5287 7.57064 44.5139 7.1263 44.5139 6.44922ZM45.1296 4.32275H44.5139V0.336426C44.6663 0.319499 44.8863 0.311035 45.1741 0.311035C45.957 0.311035 46.5219 0.47819 46.8689 0.8125C47.2201 1.14258 47.3958 1.66309 47.3958 2.37402C47.3958 2.83952 47.2942 3.23096 47.0911 3.54834C46.8879 3.86572 46.634 4.0752 46.3293 4.17676C46.0247 4.27409 45.6248 4.32275 45.1296 4.32275ZM52.6008 0.165039H52.3215C51.9703 0.444336 51.4286 0.590332 50.6965 0.603027V0.89502H50.9695C51.2699 0.89502 51.4667 0.941569 51.5598 1.03467C51.6571 1.12354 51.7122 1.22933 51.7249 1.35205C51.7375 1.47054 51.7439 1.81543 51.7439 2.38672V6.90625C51.7439 7.486 51.7354 7.83724 51.7185 7.95996C51.7058 8.07845 51.6529 8.18213 51.5598 8.271C51.4709 8.35563 51.2742 8.39795 50.9695 8.39795H50.76V8.68994H53.6165V8.39795H53.3689C53.0981 8.39795 52.9097 8.35986 52.804 8.28369C52.6982 8.20752 52.6368 8.09749 52.6199 7.95361C52.6072 7.80973 52.6008 7.46061 52.6008 6.90625V0.165039ZM59.0432 2.27694V8.68994H59.5052V2.27694C59.7398 2.47494 60.0918 2.68761 60.5612 2.91494V2.52994C60.0258 2.06794 59.6298 1.58394 59.3732 1.07794H59.1752C58.9258 1.58394 58.5298 2.06794 57.9872 2.52994V2.91494C58.4565 2.68761 58.8085 2.47494 59.0432 2.27694ZM218.514 4.64014V6.44922C218.514 7.1263 218.529 7.57064 218.558 7.78223C218.592 7.98958 218.679 8.14404 218.819 8.24561C218.958 8.34717 219.221 8.39795 219.606 8.39795H219.891V8.68994H215.949V8.39795H216.178C216.546 8.39795 216.8 8.3514 216.94 8.2583C217.084 8.1652 217.175 8.02132 217.213 7.82666C217.251 7.62777 217.27 7.16862 217.27 6.44922V2.22803C217.27 1.54248 217.251 1.10026 217.213 0.901367C217.175 0.702474 217.09 0.564941 216.959 0.48877C216.828 0.412598 216.544 0.374512 216.108 0.374512H215.949V0.0825195L217.029 0.0444336C217.892 0.0148112 218.565 0 219.047 0C219.936 0 220.619 0.0698242 221.097 0.209473C221.58 0.349121 221.973 0.59668 222.278 0.952148C222.587 1.30762 222.741 1.75618 222.741 2.29785C222.741 2.76758 222.636 3.18229 222.424 3.54199C222.217 3.90169 221.916 4.17464 221.523 4.36084C221.133 4.54704 220.446 4.64014 219.46 4.64014H218.514ZM218.514 4.32275H219.13C219.625 4.32275 220.025 4.27409 220.329 4.17676C220.634 4.0752 220.888 3.86572 221.091 3.54834C221.294 3.23096 221.396 2.83952 221.396 2.37402C221.396 1.66309 221.22 1.14258 220.869 0.8125C220.522 0.47819 219.957 0.311035 219.174 0.311035C218.886 0.311035 218.666 0.319499 218.514 0.336426V4.32275ZM226.385 5.82715H223.262V5.44629L226.886 0.165039H227.293V5.44629H227.877C228.236 5.44629 228.45 5.42513 228.518 5.38281C228.586 5.34049 228.679 5.16064 228.797 4.84326H229.076L228.93 5.82715H227.293V6.90625C227.293 7.51986 227.303 7.89225 227.324 8.02344C227.35 8.15039 227.42 8.24561 227.534 8.30908C227.648 8.36833 227.86 8.39795 228.169 8.39795V8.68994H225.395V8.39795H225.617C225.871 8.39795 226.051 8.36409 226.156 8.29639C226.267 8.22445 226.332 8.125 226.353 7.99805C226.374 7.87109 226.385 7.50716 226.385 6.90625V5.82715ZM226.385 5.44629V1.41553L223.617 5.44629H226.385ZM233.043 2.27703V8.68994H233.505L233.505 2.27704C233.74 2.47501 234.092 2.68764 234.561 2.91489L234.561 2.91494V2.52994C234.026 2.06794 233.63 1.58394 233.373 1.07794H233.175C232.926 1.58394 232.53 2.06794 231.987 2.52994V2.91494L231.987 2.91489C232.456 2.68764 232.808 2.47501 233.043 2.27703ZM276.514 6.44922V4.64014H277.46C278.446 4.64014 279.133 4.54704 279.523 4.36084C279.916 4.17464 280.217 3.90169 280.424 3.54199C280.636 3.18229 280.741 2.76758 280.741 2.29785C280.741 1.75618 280.587 1.30762 280.278 0.952148C279.973 0.59668 279.58 0.349121 279.097 0.209473C278.619 0.0698242 277.936 0 277.047 0C276.565 0 275.892 0.0148112 275.029 0.0444336L273.949 0.0825195V0.374512H274.108C274.544 0.374512 274.828 0.412598 274.959 0.48877C275.09 0.564941 275.175 0.702474 275.213 0.901367C275.251 1.10026 275.27 1.54248 275.27 2.22803V6.44922C275.27 7.16862 275.251 7.62777 275.213 7.82666C275.175 8.02132 275.084 8.1652 274.94 8.2583C274.8 8.3514 274.546 8.39795 274.178 8.39795H273.949V8.68994H277.891V8.39795H277.606C277.221 8.39795 276.958 8.34717 276.819 8.24561C276.679 8.14404 276.592 7.98958 276.558 7.78223C276.529 7.57064 276.514 7.1263 276.514 6.44922ZM277.13 4.32275H276.514V0.336426C276.666 0.319499 276.886 0.311035 277.174 0.311035C277.957 0.311035 278.522 0.47819 278.869 0.8125C279.22 1.14258 279.396 1.66309 279.396 2.37402C279.396 2.83952 279.294 3.23096 279.091 3.54834C278.888 3.86572 278.634 4.0752 278.329 4.17676C278.025 4.27409 277.625 4.32275 277.13 4.32275ZM282.214 4.32275H282.544C282.878 3.70492 283.338 3.396 283.922 3.396C284.336 3.396 284.696 3.58219 285.001 3.95459C285.305 4.32699 285.458 4.9554 285.458 5.83984C285.458 6.82161 285.272 7.53044 284.899 7.96631C284.531 8.40218 284.076 8.62012 283.534 8.62012C282.967 8.62012 282.589 8.35775 282.398 7.83301C282.301 7.57487 282.216 7.4056 282.144 7.3252C282.072 7.24056 281.967 7.19824 281.827 7.19824C281.7 7.19824 281.598 7.23844 281.522 7.31885C281.45 7.39925 281.414 7.49447 281.414 7.60449C281.414 7.85417 281.598 8.13346 281.967 8.44238C282.335 8.74707 282.849 8.89941 283.509 8.89941C284.457 8.89941 285.193 8.60742 285.718 8.02344C286.247 7.43522 286.511 6.69043 286.511 5.78906C286.511 5.00619 286.277 4.35026 285.807 3.82129C285.341 3.29232 284.779 3.02783 284.118 3.02783C283.496 3.02783 282.972 3.30078 282.544 3.84668L282.646 1.21875H284.874C285.077 1.21875 285.219 1.1849 285.299 1.11719C285.384 1.04948 285.517 0.801921 285.699 0.374512H282.405L282.214 4.32275ZM291.043 8.68994V2.27703C290.808 2.47501 290.456 2.68764 289.987 2.91494V2.52994C290.53 2.06794 290.926 1.58394 291.175 1.07794H291.373C291.63 1.58394 292.026 2.06794 292.561 2.52994V2.91494C292.092 2.68764 291.74 2.47501 291.505 2.27704L291.505 8.68994H291.043ZM449.514 4.64014V6.44922C449.514 7.1263 449.529 7.57064 449.558 7.78223C449.592 7.98958 449.679 8.14404 449.819 8.24561C449.958 8.34717 450.221 8.39795 450.606 8.39795H450.891V8.68994H446.949V8.39795H447.178C447.546 8.39795 447.8 8.3514 447.94 8.2583C448.084 8.1652 448.175 8.02132 448.213 7.82666C448.251 7.62777 448.27 7.16862 448.27 6.44922V2.22803C448.27 1.54248 448.251 1.10026 448.213 0.901367C448.175 0.702474 448.09 0.564941 447.959 0.48877C447.828 0.412598 447.544 0.374512 447.108 0.374512H446.949V0.0825195L448.029 0.0444336C448.892 0.0148112 449.565 0 450.047 0C450.936 0 451.619 0.0698242 452.097 0.209473C452.58 0.349121 452.973 0.59668 453.278 0.952148C453.587 1.30762 453.741 1.75618 453.741 2.29785C453.741 2.76758 453.636 3.18229 453.424 3.54199C453.217 3.90169 452.916 4.17464 452.523 4.36084C452.133 4.54704 451.446 4.64014 450.46 4.64014H449.514ZM449.514 4.32275H450.13C450.625 4.32275 451.025 4.27409 451.329 4.17676C451.634 4.0752 451.888 3.86572 452.091 3.54834C452.294 3.23096 452.396 2.83952 452.396 2.37402C452.396 1.66309 452.22 1.14258 451.869 0.8125C451.522 0.47819 450.957 0.311035 450.174 0.311035C449.886 0.311035 449.666 0.319499 449.514 0.336426V4.32275ZM457.633 4.36084C458.191 4.40739 458.684 4.63167 459.112 5.03369C459.539 5.43148 459.753 5.94564 459.753 6.57617C459.753 7.30404 459.492 7.87321 458.972 8.28369C458.451 8.69417 457.819 8.89941 457.074 8.89941C456.312 8.89941 455.677 8.68148 455.17 8.24561C454.662 7.8055 454.408 7.25749 454.408 6.60156C454.408 6.03451 454.59 5.54997 454.954 5.14795C455.318 4.74593 455.821 4.48356 456.465 4.36084C455.944 4.22965 455.517 3.97575 455.182 3.59912C454.852 3.22249 454.687 2.78027 454.687 2.27246C454.687 1.65039 454.914 1.14469 455.366 0.755371C455.819 0.361816 456.388 0.165039 457.074 0.165039C457.709 0.165039 458.269 0.357585 458.756 0.742676C459.247 1.12354 459.492 1.63346 459.492 2.27246C459.492 2.78027 459.336 3.21826 459.023 3.58643C458.714 3.95459 458.25 4.21273 457.633 4.36084ZM455.684 2.14551C455.684 2.83529 455.794 3.35368 456.014 3.70068C456.238 4.04346 456.573 4.21484 457.017 4.21484C457.504 4.21484 457.867 4.05192 458.109 3.72607C458.35 3.396 458.47 2.90511 458.47 2.25342C458.47 1.66097 458.344 1.21029 458.09 0.901367C457.84 0.592448 457.493 0.437988 457.049 0.437988C456.655 0.437988 456.329 0.579753 456.071 0.863281C455.813 1.14258 455.684 1.56999 455.684 2.14551ZM455.462 6.51904C455.462 6.99723 455.506 7.37598 455.595 7.65527C455.684 7.93034 455.853 8.15885 456.103 8.34082C456.357 8.52279 456.67 8.61377 457.042 8.61377C457.516 8.61377 457.91 8.47835 458.223 8.20752C458.536 7.93669 458.693 7.39925 458.693 6.59521C458.693 5.78695 458.536 5.23893 458.223 4.95117C457.91 4.66341 457.508 4.51953 457.017 4.51953C456.496 4.51953 456.107 4.69938 455.849 5.05908C455.591 5.41455 455.462 5.9012 455.462 6.51904ZM464.043 2.27703V8.68994H464.505L464.505 2.27704C464.74 2.47501 465.092 2.68764 465.561 2.91494V2.52994C465.026 2.06794 464.63 1.58394 464.373 1.07794H464.175C463.926 1.58394 463.53 2.06794 462.987 2.52994V2.91494C463.456 2.68764 463.808 2.47501 464.043 2.27703ZM105.726 7.12207L108.862 0H111.502V0.291992H111.185C110.762 0.291992 110.484 0.327962 110.353 0.399902C110.222 0.467611 110.133 0.59668 110.087 0.787109C110.044 0.977539 110.023 1.43034 110.023 2.14551V6.3667C110.023 7.04378 110.04 7.48812 110.074 7.69971C110.108 7.90706 110.192 8.06152 110.328 8.16309C110.468 8.26465 110.732 8.31543 111.121 8.31543H111.502V8.60742H107.389V8.31543H107.694C108.058 8.31543 108.309 8.26888 108.449 8.17578C108.593 8.08268 108.684 7.9388 108.722 7.74414C108.764 7.54525 108.785 7.0861 108.785 6.3667V0.888672L105.377 8.60742H105.078L101.644 0.888672V5.92871C101.644 6.61849 101.665 7.08822 101.708 7.33789C101.75 7.58756 101.881 7.80762 102.101 7.99805C102.321 8.18425 102.63 8.29004 103.028 8.31543V8.60742H99.9495V8.31543C100.318 8.29427 100.616 8.19482 100.844 8.01709C101.077 7.83512 101.219 7.61296 101.27 7.35059C101.321 7.08822 101.346 6.60156 101.346 5.89062V2.14551C101.346 1.45996 101.325 1.01774 101.282 0.818848C101.244 0.619954 101.16 0.482422 101.029 0.40625C100.902 0.330078 100.62 0.291992 100.184 0.291992H99.9495V0H102.571L105.726 7.12207ZM112.499 8.60742V8.21387C112.981 7.83724 113.591 7.24268 114.327 6.43018C115.067 5.61344 115.601 4.90885 115.927 4.31641C116.252 3.72396 116.415 3.12516 116.415 2.52002C116.415 1.79639 116.25 1.2653 115.92 0.926758C115.59 0.583984 115.18 0.412598 114.689 0.412598C114.206 0.412598 113.832 0.569173 113.565 0.882324C113.303 1.19548 113.172 1.52979 113.172 1.88525C113.172 2.2915 113.343 2.61312 113.686 2.8501C113.813 2.93896 113.876 3.00667 113.876 3.05322C113.876 3.12939 113.804 3.23307 113.66 3.36426C113.517 3.49544 113.398 3.56104 113.305 3.56104C113.178 3.56104 113.024 3.43408 112.842 3.18018C112.664 2.92204 112.575 2.59196 112.575 2.18994C112.575 1.54248 112.827 1.03044 113.33 0.653809C113.834 0.272949 114.386 0.0825195 114.987 0.0825195C115.622 0.0825195 116.193 0.279297 116.701 0.672852C117.213 1.06641 117.469 1.65039 117.469 2.4248C117.469 2.91146 117.355 3.37484 117.126 3.81494C116.898 4.25081 116.341 4.91943 115.457 5.8208C114.577 6.71794 113.868 7.3929 113.33 7.8457H117.367L117.006 9.26758H116.707C116.707 9.19141 116.72 9.11523 116.745 9.03906C116.758 8.99675 116.764 8.93962 116.764 8.86768C116.764 8.74072 116.737 8.66455 116.682 8.63916C116.627 8.618 116.479 8.60742 116.238 8.60742H112.499ZM122.215 8.60742V2.19442C121.98 2.39242 121.628 2.60509 121.159 2.83242V2.44742C121.701 1.98542 122.097 1.50142 122.347 0.995422H122.545C122.801 1.50142 123.197 1.98542 123.733 2.44742V2.83242C123.263 2.60509 122.911 2.39242 122.677 2.19442V8.60742H122.215ZM162.862 0L159.726 7.12207L156.571 0H153.949V0.291992H154.184C154.62 0.291992 154.902 0.330078 155.029 0.40625C155.16 0.482422 155.244 0.619954 155.282 0.818848C155.325 1.01774 155.346 1.45996 155.346 2.14551V5.89062C155.346 6.60156 155.321 7.08822 155.27 7.35059C155.219 7.61296 155.077 7.83512 154.844 8.01709C154.616 8.19482 154.318 8.29427 153.949 8.31543V8.60742H157.028V8.31543C156.63 8.29004 156.321 8.18425 156.101 7.99805C155.881 7.80762 155.75 7.58756 155.708 7.33789C155.665 7.08822 155.644 6.61849 155.644 5.92871V0.888672L159.078 8.60742H159.377L162.785 0.888672V6.3667C162.785 7.0861 162.764 7.54525 162.722 7.74414C162.684 7.9388 162.593 8.08268 162.449 8.17578C162.309 8.26888 162.058 8.31543 161.694 8.31543H161.389V8.60742H165.502V8.31543H165.121C164.732 8.31543 164.468 8.26465 164.328 8.16309C164.192 8.06152 164.108 7.90706 164.074 7.69971C164.04 7.48812 164.023 7.04378 164.023 6.3667V2.14551C164.023 1.43034 164.044 0.977539 164.087 0.787109C164.133 0.59668 164.222 0.467611 164.353 0.399902C164.484 0.327962 164.762 0.291992 165.185 0.291992H165.502V0H162.862ZM169.381 3.9292C169.249 3.9292 169.118 3.94824 168.987 3.98633L169.501 3.63086C170.081 3.24154 170.491 2.89876 170.733 2.60254C170.978 2.30208 171.101 1.97835 171.101 1.63135C171.101 1.23779 170.921 0.882324 170.561 0.564941C170.206 0.243327 169.679 0.0825195 168.981 0.0825195C168.299 0.0825195 167.756 0.272949 167.349 0.653809C166.943 1.03467 166.74 1.45996 166.74 1.92969C166.74 2.16243 166.797 2.37826 166.911 2.57715C167.026 2.77604 167.148 2.87549 167.28 2.87549C167.343 2.87549 167.445 2.84375 167.584 2.78027C167.724 2.7168 167.794 2.65755 167.794 2.60254C167.794 2.58138 167.779 2.55599 167.749 2.52637C167.491 2.264 167.362 1.98258 167.362 1.68213C167.362 1.3055 167.508 0.996582 167.8 0.755371C168.096 0.509928 168.435 0.387207 168.816 0.387207C169.188 0.387207 169.486 0.507812 169.711 0.749023C169.935 0.986003 170.047 1.32243 170.047 1.7583C170.047 2.21533 169.939 2.59408 169.723 2.89453C169.508 3.19499 169.065 3.57161 168.397 4.02441C168.092 4.23177 167.906 4.3693 167.838 4.43701C167.775 4.50049 167.743 4.56185 167.743 4.62109C167.743 4.75651 167.806 4.82422 167.933 4.82422C167.997 4.82422 168.058 4.79248 168.117 4.729C168.469 4.37354 168.79 4.1958 169.082 4.1958C169.421 4.1958 169.713 4.35661 169.958 4.67822C170.208 4.99984 170.333 5.48861 170.333 6.14453C170.333 6.96126 170.166 7.56429 169.831 7.95361C169.501 8.34294 169.07 8.5376 168.536 8.5376C168.325 8.5376 168.111 8.48047 167.895 8.36621C167.675 8.25618 167.506 8.00863 167.387 7.62354C167.294 7.32308 167.138 7.17285 166.918 7.17285C166.795 7.17285 166.696 7.21729 166.619 7.30615C166.543 7.39079 166.505 7.49447 166.505 7.61719C166.505 7.90918 166.706 8.18213 167.108 8.43604C167.51 8.68994 167.99 8.81689 168.549 8.81689C169.383 8.81689 170.064 8.56934 170.593 8.07422C171.122 7.5791 171.386 6.94434 171.386 6.16992C171.386 5.52669 171.207 4.99349 170.847 4.57031C170.491 4.1429 170.003 3.9292 169.381 3.9292ZM176.215 2.19442V8.60742H176.677V2.19442C176.911 2.39242 177.263 2.60509 177.733 2.83242V2.44742C177.197 1.98542 176.801 1.50142 176.545 0.995422H176.347C176.097 1.50142 175.701 1.98542 175.159 2.44742V2.83242C175.628 2.60509 175.98 2.39242 176.215 2.19442ZM333.726 7.12207L336.862 0H339.502V0.291992H339.185C338.762 0.291992 338.484 0.327962 338.353 0.399902C338.222 0.467611 338.133 0.59668 338.087 0.787109C338.044 0.977539 338.023 1.43034 338.023 2.14551V6.3667C338.023 7.04378 338.04 7.48812 338.074 7.69971C338.108 7.90706 338.192 8.06152 338.328 8.16309C338.468 8.26465 338.732 8.31543 339.121 8.31543H339.502V8.60742H335.389V8.31543H335.694C336.058 8.31543 336.309 8.26888 336.449 8.17578C336.593 8.08268 336.684 7.9388 336.722 7.74414C336.764 7.54525 336.785 7.0861 336.785 6.3667V0.888672L333.377 8.60742H333.078L329.644 0.888672V5.92871C329.644 6.61849 329.665 7.08822 329.708 7.33789C329.75 7.58756 329.881 7.80762 330.101 7.99805C330.321 8.18425 330.63 8.29004 331.028 8.31543V8.60742H327.949V8.31543C328.318 8.29427 328.616 8.19482 328.844 8.01709C329.077 7.83512 329.219 7.61296 329.27 7.35059C329.321 7.08822 329.346 6.60156 329.346 5.89062V2.14551C329.346 1.45996 329.325 1.01774 329.282 0.818848C329.244 0.619954 329.16 0.482422 329.029 0.40625C328.902 0.330078 328.62 0.291992 328.184 0.291992H327.949V0H330.571L333.726 7.12207ZM341.476 4.30371C341.739 3.99056 342.014 3.7557 342.302 3.59912C342.594 3.44255 342.898 3.36426 343.216 3.36426C343.901 3.36426 344.494 3.6224 344.993 4.13867C345.492 4.65495 345.742 5.30241 345.742 6.08105C345.742 6.81315 345.501 7.45215 345.018 7.99805C344.536 8.54395 343.92 8.81689 343.171 8.81689C342.536 8.81689 342.001 8.61589 341.565 8.21387C341.129 7.81185 340.823 7.31038 340.645 6.70947C340.471 6.10433 340.385 5.47591 340.385 4.82422C340.385 3.47852 340.679 2.35286 341.267 1.44727C341.859 0.537435 342.651 0.0825195 343.641 0.0825195C344.106 0.0825195 344.517 0.184082 344.872 0.387207C345.228 0.5861 345.406 0.8125 345.406 1.06641C345.406 1.30339 345.285 1.42188 345.044 1.42188C344.836 1.42188 344.671 1.3055 344.549 1.07275C344.422 0.831543 344.284 0.65804 344.136 0.552246C343.988 0.450684 343.766 0.399902 343.469 0.399902C342.801 0.399902 342.299 0.696126 341.965 1.28857C341.631 1.88102 341.464 2.77181 341.464 3.96094C341.464 4.06673 341.468 4.18099 341.476 4.30371ZM341.438 5.99219C341.438 6.40267 341.495 6.81104 341.61 7.21729C341.728 7.6193 341.923 7.93669 342.194 8.16943C342.464 8.40218 342.767 8.51855 343.101 8.51855C343.63 8.51855 344.026 8.30697 344.288 7.88379C344.551 7.46061 344.682 6.82796 344.682 5.98584C344.682 5.45264 344.631 5.03792 344.53 4.7417C344.432 4.44124 344.25 4.19157 343.984 3.99268C343.721 3.79378 343.427 3.69434 343.101 3.69434C342.661 3.69434 342.274 3.86149 341.94 4.1958C341.605 4.52588 341.438 5.12467 341.438 5.99219ZM350.215 8.60742V2.19442C349.98 2.39242 349.628 2.60509 349.159 2.83242V2.44742C349.701 1.98542 350.097 1.50142 350.347 0.995422H350.545C350.801 1.50142 351.197 1.98542 351.733 2.44742V2.83242C351.263 2.60509 350.911 2.39242 350.677 2.19442V8.60742H350.215ZM394.862 0L391.726 7.12207L388.571 0H385.949V0.291992H386.184C386.62 0.291992 386.902 0.330078 387.029 0.40625C387.16 0.482422 387.244 0.619954 387.282 0.818848C387.325 1.01774 387.346 1.45996 387.346 2.14551V5.89062C387.346 6.60156 387.321 7.08822 387.27 7.35059C387.219 7.61296 387.077 7.83512 386.844 8.01709C386.616 8.19482 386.318 8.29427 385.949 8.31543V8.60742H389.028V8.31543C388.63 8.29004 388.321 8.18425 388.101 7.99805C387.881 7.80762 387.75 7.58756 387.708 7.33789C387.665 7.08822 387.644 6.61849 387.644 5.92871V0.888672L391.078 8.60742H391.377L394.785 0.888672V6.3667C394.785 7.0861 394.764 7.54525 394.722 7.74414C394.684 7.9388 394.593 8.08268 394.449 8.17578C394.309 8.26888 394.058 8.31543 393.694 8.31543H393.389V8.60742H397.502V8.31543H397.121C396.732 8.31543 396.468 8.26465 396.328 8.16309C396.192 8.06152 396.108 7.90706 396.074 7.69971C396.04 7.48812 396.023 7.04378 396.023 6.3667V2.14551C396.023 1.43034 396.044 0.977539 396.087 0.787109C396.133 0.59668 396.222 0.467611 396.353 0.399902C396.484 0.327962 396.762 0.291992 397.185 0.291992H397.502V0H394.862ZM399.267 0.0825195L398.734 1.82812H399.019C399.117 1.54883 399.197 1.37109 399.26 1.29492C399.324 1.21452 399.392 1.16797 399.464 1.15527C399.536 1.13835 399.754 1.12988 400.117 1.12988H402.828L400.27 7.07129C400.227 7.17708 400.175 7.29557 400.111 7.42676C399.874 7.93457 399.756 8.26676 399.756 8.42334C399.756 8.68571 399.883 8.81689 400.136 8.81689C400.272 8.81689 400.403 8.74495 400.53 8.60107C400.661 8.45296 400.852 7.99805 401.101 7.23633L403.38 0.291992H400.092C399.821 0.291992 399.654 0.279297 399.591 0.253906C399.531 0.224284 399.497 0.167155 399.489 0.0825195H399.267ZM408.215 2.19442V8.60742H408.677V2.19442C408.911 2.39242 409.263 2.60509 409.733 2.83242V2.44742C409.197 1.98542 408.801 1.50142 408.545 0.995422H408.347C408.097 1.50142 407.701 1.98542 407.159 2.44742V2.83242C407.628 2.60509 407.98 2.39242 408.215 2.19442ZM15.1096 48.3763C15.1096 47.2681 14.7782 45.2763 14.4881 43.6426H0V42.7801H9.01087C6.07985 41.8866 4.26591 39.7922 3.5316 37.3315H0V36.469H3.32096C3.21052 35.8936 3.15552 35.3044 3.15552 34.7109C3.15552 33.3851 3.41743 32.1602 3.86892 31.0207H0V30.1582H4.25369C5.28166 28.0869 6.91967 26.3058 8.68029 24.7097H0V23.8472H9.66112C9.98395 23.5708 10.3079 23.2999 10.63 23.0337C10.9181 22.7936 10.9084 22.7367 10.8632 22.4698L10.8565 22.4297C10.6842 21.4205 10.5119 19.8335 10.5044 18.3987H0V17.5361H10.5214C10.6316 15.0916 11.2867 12.3413 12.9705 10.4756C13.4738 9.92191 14.2539 9.26758 14.6063 9.26758C14.8831 9.26758 15.5374 9.97224 15.9149 10.5259C16.9468 12.0359 17.5508 14.2002 17.5508 16.3897C17.5508 16.7785 17.5297 17.1607 17.4891 17.5361H81.8319V16.3896H82.1769V17.5361H139.701V16.3896H140.046V17.5361H197.571V16.3896H197.916V17.5361H255.441V16.3896H255.786V17.5361H313.306V16.3896H313.651V17.5361H371.179V16.3896H371.524V17.5361H429.052V16.3896H429.397V17.5361H486.916V16.3896H487.261V17.5361H491.339V16.3896H491.684V17.5361H492.141V18.3987H491.684V23.8472H492.141V24.7097H491.684V30.1582H492.141V31.0207H491.684V36.469H492.141V37.3315H491.684V42.7801H492.141V43.6426H491.684V44.7891H491.339V43.6426H487.261V44.7891H486.916V43.6426H429.397V44.7891H429.052V43.6426H371.524V44.7891H371.179V43.6426H313.651V44.7891H313.306V43.6426H255.786V44.7891H255.441V43.6426H197.916V44.7891H197.571V43.6426H170.437C169.918 44.5932 168.997 45.437 167.952 46.0019C168.014 46 168.077 45.9991 168.139 45.9991C169.75 45.9991 170.882 46.9302 170.882 48.3396C170.882 48.5918 170.848 48.8432 170.784 49.0911H174.031V49.9536H170.438C169.497 51.6749 167.238 53.0457 165.321 53.0457C163.811 53.0457 162.603 52.1649 162.603 50.7052C162.603 50.4525 162.63 50.2011 162.681 49.9536H159.447V49.0911H162.968C163.406 48.1382 164.212 47.2973 165.243 46.7339C163.769 46.7041 162.603 45.8287 162.603 44.3942C162.603 44.1415 162.63 43.8901 162.681 43.6426H140.046V44.7891H139.701V43.6426H119.929C120.31 44.0387 120.528 44.5653 120.528 45.1841C120.528 47.1325 118.489 49.0309 116.385 49.6666V49.9536H112.568C111.628 51.6749 109.368 53.0457 107.451 53.0457C105.941 53.0457 104.733 52.1649 104.733 50.7052C104.733 50.4525 104.76 50.2011 104.812 49.9536H101.578V49.0911H105.099C105.895 47.3604 107.903 45.9991 110.27 45.9991C111.131 45.9991 111.855 46.265 112.343 46.7276C112.625 45.4937 113.525 44.3622 114.774 43.6426H82.1769V44.7891H81.8319V43.6426H15.5946C15.8672 45.1676 16.2169 47.1663 16.2169 48.4267C16.2169 52.705 12.9453 53.46 11.2591 53.46C7.45899 53.46 6.4775 50.9936 6.4775 49.3578C6.4775 47.7975 7.48416 46.4637 9.17031 46.4637C10.7055 46.4637 11.5863 47.6465 11.5863 49.0307C11.5863 50.4903 10.6803 51.1698 9.90014 51.3963C9.32131 51.5725 9.09481 51.648 9.09481 51.8241C9.09481 52.1513 9.74914 52.554 11.1081 52.554C12.593 52.554 15.1096 52.101 15.1096 48.3763ZM12.4168 42.3364C8.41645 42.3364 5.70343 40.3223 5.23957 37.3315H8.41654C8.82396 38.784 9.81522 39.8102 11.1081 40.2476C11.3095 40.3231 11.6115 40.3985 11.7876 40.3985C11.989 40.3985 12.0896 40.2727 12.0896 40.1217C12.0896 39.9551 11.9096 39.8785 11.741 39.8069L11.7121 39.7946C10.7254 39.3717 10.0019 38.4006 9.91003 37.3315H13.4189L14.1784 41.8582C14.2279 42.1303 14.2045 42.135 13.8453 42.2067L13.8261 42.2105C13.4235 42.286 12.9201 42.3364 12.4168 42.3364ZM8.25061 36.469H5.16924C5.16897 36.4451 5.16884 36.4211 5.16884 36.3971C5.16884 35.01 5.38846 33.1837 7.12019 31.0207H11.5673C9.52158 31.846 8.21399 33.7507 8.21399 35.7931C8.21399 36.0254 8.22643 36.2508 8.25061 36.469ZM12.2163 30.1582H7.87411C9.19469 28.7352 10.2504 27.8817 11.3238 27.0139L11.3598 26.9848C11.6115 26.7835 11.6618 26.8086 11.7121 27.0855L12.2163 30.1582ZM12.4168 34.1573C11.1166 34.5196 10.2135 35.3514 9.96757 36.469H13.2742L12.9201 34.3586C12.8698 34.0818 12.8195 34.0566 12.4168 34.1573ZM15.2103 41.4807L14.4969 37.3315H17.9165C17.9573 37.5664 17.9786 37.809 17.9786 38.0581C17.9786 39.6436 17.0223 40.927 15.6129 41.6317C15.3109 41.7827 15.2606 41.7827 15.2103 41.4807ZM14.3486 36.469H17.6676C17.0894 35.0657 15.769 34.0869 14.2539 33.9559C13.9519 33.9308 13.9268 34.0063 13.9771 34.3083L14.3486 36.469ZM81.8319 37.3315H20.0064C19.7501 39.822 18.1406 41.6919 15.8143 42.6132C15.7792 42.6282 15.7474 42.6415 15.7186 42.6535C15.5936 42.7057 15.5248 42.7344 15.4921 42.7801H81.8319V37.3315ZM16.4082 31.0207C18.6327 31.9335 19.9843 34.0863 20.0404 36.469H81.8319V31.0207H16.4082ZM13.2473 30.1054L13.2561 30.1582H81.8319V24.7097H14.016C13.6209 25.1492 13.2034 25.572 12.7691 25.9781L12.7408 26.0062C12.612 26.1336 12.5711 26.174 12.6181 26.4563L13.2473 30.1054ZM81.8319 23.8472H14.7441C16.0175 22.2353 16.9713 20.4192 17.3597 18.3987H81.8319V23.8472ZM12.1148 22.027C13.2886 21.0018 14.6028 19.7923 15.4824 18.3987H11.687C11.6541 18.7541 11.6366 19.125 11.6366 19.5103C11.6366 20.3157 11.687 21.1713 11.7876 21.8257C11.838 22.1528 11.9386 22.178 12.1148 22.027ZM11.8017 17.5361H15.9554C16.2914 16.8128 16.4938 16.0448 16.4938 15.232C16.4938 13.8479 15.8143 13.1684 14.9838 13.1684C13.7259 13.1684 12.2822 14.7904 11.8017 17.5361ZM197.571 42.7801H170.784C170.848 42.5322 170.882 42.2808 170.882 42.0285C170.882 40.6192 169.75 39.688 168.139 39.688C165.772 39.688 163.764 41.0494 162.968 42.7801H140.046V37.3315H197.571V42.7801ZM487.261 18.3987H491.339V23.8472H487.261V18.3987ZM487.261 24.7097H491.339V30.1582H487.261V24.7097ZM487.261 31.0207H491.339V36.469H487.261V31.0207ZM487.261 37.3315H491.339V42.7801H487.261V37.3315ZM486.916 42.7801V37.3315H429.397V42.7801H486.916ZM486.916 36.469V31.0207H429.397V36.469H486.916ZM486.916 30.1582V24.7097H459.632C460.013 25.1058 460.232 25.6324 460.232 26.2511C460.232 27.7793 458.977 29.2766 457.421 30.1582H486.916ZM451.952 28.6168C451.952 27.0762 452.955 25.5868 454.478 24.7097H429.397V30.1582H452.553C452.177 29.7682 451.952 29.2463 451.952 28.6168ZM486.916 23.8472V18.3987H429.397V23.8472H486.916ZM371.524 18.3987H429.052V23.8472H371.524V18.3987ZM371.524 24.7097H429.052V30.1582H402.262C402.327 29.9103 402.361 29.6589 402.361 29.4066C402.361 27.9973 401.228 27.0662 399.618 27.0662C397.25 27.0662 395.242 28.4275 394.447 30.1582H371.524V24.7097ZM429.052 31.0207H401.916C400.976 32.742 398.716 34.1128 396.799 34.1128C395.289 34.1128 394.081 33.232 394.081 31.7723C394.081 31.5196 394.108 31.2682 394.16 31.0207H371.524V36.469H429.052V31.0207ZM371.524 37.3315H429.052V42.7801H371.524V37.3315ZM371.179 42.7801V37.3315H313.651V42.7801H371.179ZM371.179 36.469V31.0207H343.892C344.273 31.4168 344.491 31.9434 344.491 32.5622C344.491 34.0902 343.237 35.5874 341.681 36.469H371.179ZM336.211 34.9279C336.211 33.3873 337.214 31.8978 338.737 31.0207H313.651V36.469H336.813C336.436 36.0791 336.211 35.5573 336.211 34.9279ZM371.179 30.1582V24.7097H313.651V30.1582H371.179ZM371.179 23.8472V18.3987H313.651V23.8472H371.179ZM255.786 18.3987H313.306V23.8472H255.786V18.3987ZM255.786 24.7097H313.306V30.1582H255.786V24.7097ZM255.786 31.0207H313.306V36.469H286.524C286.588 36.2212 286.622 35.9699 286.622 35.7177C286.622 34.3084 285.49 33.3773 283.879 33.3773C281.512 33.3773 279.504 34.7384 278.708 36.469H255.786V31.0207ZM313.306 37.3315H286.177C285.237 39.0529 282.977 40.4239 281.06 40.4239C279.55 40.4239 278.342 39.5431 278.342 38.0834C278.342 37.8306 278.369 37.5791 278.421 37.3315H255.786V42.7801H313.306V37.3315ZM255.441 42.7801V37.3315H228.152C228.533 37.7276 228.751 38.2542 228.751 38.873C228.751 40.4012 227.497 41.8985 225.941 42.7801H255.441ZM220.472 41.2387C220.472 39.6981 221.475 38.2086 222.997 37.3315H197.916V42.7801H221.073C220.696 42.3901 220.472 41.8682 220.472 41.2387ZM255.441 36.469V31.0207H197.916V36.469H255.441ZM255.441 30.1582V24.7097H197.916V30.1582H255.441ZM255.441 23.8472V18.3987H197.916V23.8472H255.441ZM140.046 18.3987H197.571V23.8472H140.046V18.3987ZM140.046 24.7097H197.571V30.1582H140.046V24.7097ZM140.046 31.0207H197.571V36.469H140.046V31.0207ZM139.701 42.7801V37.3315H82.1769V42.7801H139.701ZM139.701 36.469V31.0207H82.1769V36.469H139.701ZM139.701 30.1582V24.7097H82.1769V30.1582H139.701ZM139.701 23.8472V18.3987H82.1769V23.8472H139.701ZM54.6977 49.9536H58.2915V49.0911H55.0443C55.1084 48.8432 55.1426 48.5918 55.1426 48.3396C55.1426 46.9302 54.0101 45.9991 52.3994 45.9991C50.0323 45.9991 48.0242 47.3604 47.2285 49.0911H43.7075V49.9536H46.9416C46.8898 50.2011 46.8628 50.4525 46.8628 50.7052C46.8628 52.1649 48.0708 53.0457 49.5808 53.0457C51.4979 53.0457 53.7577 51.6749 54.6977 49.9536ZM220.551 49.9536H217.316V49.0911H220.837C221.633 47.3604 223.641 45.9991 226.008 45.9991C227.619 45.9991 228.751 46.9302 228.751 48.3396C228.751 48.5918 228.717 48.8432 228.653 49.0911H231.9V49.9536H228.307C227.367 51.6749 225.107 53.0457 223.19 53.0457C221.68 53.0457 220.472 52.1649 220.472 50.7052C220.472 50.4525 220.499 50.2011 220.551 49.9536ZM286.177 49.9536H289.771V49.0911H286.524C286.588 48.8432 286.622 48.5918 286.622 48.3396C286.622 46.9302 285.49 45.9991 283.879 45.9991C281.512 45.9991 279.504 47.3604 278.708 49.0911H275.187V49.9536H278.421C278.369 50.2011 278.342 50.4525 278.342 50.7052C278.342 52.1649 279.55 53.0457 281.06 53.0457C282.977 53.0457 285.237 51.6749 286.177 49.9536ZM336.29 49.9536H333.06V49.0911H336.577C337.373 47.3604 339.381 45.9991 341.748 45.9991C343.359 45.9991 344.491 46.9302 344.491 48.3396C344.491 48.5918 344.457 48.8432 344.393 49.0911H347.637V49.9536H344.046C343.106 51.6749 340.847 53.0457 338.929 53.0457C337.419 53.0457 336.211 52.1649 336.211 50.7052C336.211 50.4525 336.238 50.2011 336.29 49.9536ZM401.916 49.9536H405.51V49.0911H402.262C402.327 48.8432 402.361 48.5918 402.361 48.3396C402.361 46.9302 401.228 45.9991 399.618 45.9991C397.25 45.9991 395.242 47.3604 394.447 49.0911H390.923V49.9536H394.16C394.108 50.2011 394.081 50.4525 394.081 50.7052C394.081 52.1649 395.289 53.0457 396.799 53.0457C398.716 53.0457 400.976 51.6749 401.916 49.9536ZM452.031 49.9536H448.797V49.0911H452.318C453.113 47.3604 455.121 45.9991 457.489 45.9991C459.099 45.9991 460.232 46.9302 460.232 48.3396C460.232 48.5918 460.198 48.8432 460.133 49.0911H463.384V49.9536H459.787C458.847 51.6749 456.587 53.0457 454.67 53.0457C453.16 53.0457 451.952 52.1649 451.952 50.7052C451.952 50.4525 451.979 50.2011 452.031 49.9536Z" fill="black"/>
</svg>
