<svg width="493" height="54" viewBox="0 0 493 54" fill="none" xmlns="http://www.w3.org/2000/svg">
<path fill-rule="evenodd" clip-rule="evenodd" d="M49.8616 0L46.7258 7.12207L43.571 0H40.9495V0.291992H41.1843C41.6202 0.291992 41.9016 0.330078 42.0286 0.40625C42.1597 0.482422 42.2444 0.619954 42.2825 0.818848C42.3248 1.01774 42.3459 1.45996 42.3459 2.14551V5.89062C42.3459 6.60156 42.3206 7.08822 42.2698 7.35059C42.219 7.61296 42.0772 7.83512 41.8445 8.01709C41.616 8.19482 41.3176 8.29427 40.9495 8.31543V8.60742H44.0281V8.31543C43.6303 8.29004 43.3214 8.18425 43.1013 7.99805C42.8813 7.80762 42.7501 7.58756 42.7078 7.33789C42.6654 7.08822 42.6443 6.61849 42.6443 5.92871V0.888672L46.0784 8.60742H46.3767L49.7854 0.888672V6.3667C49.7854 7.0861 49.7642 7.54525 49.7219 7.74414C49.6838 7.9388 49.5929 8.08268 49.449 8.17578C49.3093 8.26888 49.0575 8.31543 48.6936 8.31543H48.3889V8.60742H52.5022V8.31543H52.1213C51.732 8.31543 51.4675 8.26465 51.3279 8.16309C51.1925 8.06152 51.1078 7.90706 51.074 7.69971C51.0401 7.48812 51.0232 7.04378 51.0232 6.3667V2.14551C51.0232 1.43034 51.0444 0.977539 51.0867 0.787109C51.1332 0.59668 51.2221 0.467611 51.3533 0.399902C51.4845 0.327962 51.7616 0.291992 52.1848 0.291992H52.5022V0H49.8616ZM53.4988 8.21387V8.60742H57.2375C57.4788 8.60742 57.6269 8.618 57.6819 8.63916C57.7369 8.66455 57.7644 8.74072 57.7644 8.86768C57.7644 8.93962 57.7581 8.99675 57.7454 9.03906C57.72 9.11523 57.7073 9.19141 57.7073 9.26758H58.0056L58.3674 7.8457H54.3303C54.8678 7.3929 55.5766 6.71794 56.4568 5.8208C57.3412 4.91943 57.8977 4.25081 58.1262 3.81494C58.3547 3.37484 58.469 2.91146 58.469 2.4248C58.469 1.65039 58.213 1.06641 57.7009 0.672852C57.1931 0.279297 56.6218 0.0825195 55.9871 0.0825195C55.3862 0.0825195 54.8339 0.272949 54.3303 0.653809C53.8267 1.03044 53.575 1.54248 53.575 2.18994C53.575 2.59196 53.6638 2.92204 53.8416 3.18018C54.0235 3.43408 54.178 3.56104 54.3049 3.56104C54.398 3.56104 54.5165 3.49544 54.6604 3.36426C54.8043 3.23307 54.8762 3.12939 54.8762 3.05322C54.8762 3.00667 54.8127 2.93896 54.6858 2.8501C54.343 2.61312 54.1716 2.2915 54.1716 1.88525C54.1716 1.52979 54.3028 1.19548 54.5652 0.882324C54.8318 0.569173 55.2063 0.412598 55.6887 0.412598C56.1796 0.412598 56.5901 0.583984 56.9202 0.926758C57.2502 1.2653 57.4153 1.79639 57.4153 2.52002C57.4153 3.12516 57.2524 3.72396 56.9265 4.31641C56.6007 4.90885 56.0675 5.61344 55.3269 6.43018C54.5906 7.24268 53.9812 7.83724 53.4988 8.21387ZM63.2144 8.60742V2.19451C62.9798 2.39249 62.6278 2.60512 62.1586 2.83242L62.1584 2.83242V2.44742C62.7011 1.98542 63.0971 1.50142 63.3464 0.995422L63.3466 0.995422H63.5446C63.8012 1.50142 64.1972 1.98542 64.7326 2.44742V2.83242L64.7324 2.83242C64.2632 2.60512 63.9112 2.39249 63.6766 2.19452V8.60742L63.6764 8.60742L63.2146 8.60742L63.2144 8.60742ZM236.554 5.5542H233.285L233.063 6.1001C232.733 6.89144 232.568 7.40771 232.568 7.64893C232.568 7.90706 232.655 8.10384 232.828 8.23926C233.006 8.37044 233.232 8.43604 233.508 8.43604V8.72803H230.949V8.43604C231.33 8.37679 231.614 8.24349 231.8 8.03613C231.986 7.82454 232.211 7.38232 232.473 6.70947C232.494 6.646 232.596 6.40055 232.778 5.97314L235.279 0H235.526L238.402 6.83643L238.795 7.73779C238.884 7.94092 239.003 8.10173 239.151 8.22021C239.303 8.33447 239.529 8.40641 239.83 8.43604V8.72803H236.447V8.43604C236.861 8.43604 237.141 8.40641 237.284 8.34717C237.433 8.28369 237.507 8.16097 237.507 7.979C237.507 7.8859 237.409 7.60872 237.215 7.14746L236.554 5.5542ZM236.447 5.26855L234.923 1.59961L233.406 5.26855H236.447ZM243.302 5.86523H240.179V5.48438L243.803 0.203125H244.21V5.48438H244.794C245.153 5.48438 245.367 5.46322 245.435 5.4209C245.503 5.37858 245.596 5.19873 245.714 4.88135H245.993L245.847 5.86523H244.21V6.94434C244.21 7.55794 244.22 7.93034 244.241 8.06152C244.267 8.18848 244.337 8.28369 244.451 8.34717C244.565 8.40641 244.777 8.43604 245.086 8.43604V8.72803H242.312V8.43604H242.534C242.788 8.43604 242.968 8.40218 243.073 8.33447C243.184 8.26253 243.249 8.16309 243.27 8.03613C243.291 7.90918 243.302 7.54525 243.302 6.94434V5.86523ZM243.302 5.48438V1.45361L240.534 5.48438H243.302ZM250.462 8.72803V2.31503C250.227 2.51303 249.875 2.72569 249.406 2.95303V2.56803C249.949 2.10603 250.345 1.62203 250.594 1.11603H250.792C251.049 1.62203 251.445 2.10603 251.98 2.56803V2.95303C251.511 2.72569 251.159 2.51303 250.924 2.31503V8.72803H250.462ZM142.862 0L139.726 7.12207L136.571 0H133.949V0.291992H134.184C134.62 0.291992 134.902 0.330078 135.029 0.40625C135.16 0.482422 135.244 0.619954 135.282 0.818848C135.325 1.01774 135.346 1.45996 135.346 2.14551V5.89062C135.346 6.60156 135.321 7.08822 135.27 7.35059C135.219 7.61296 135.077 7.83512 134.844 8.01709C134.616 8.19482 134.318 8.29427 133.949 8.31543V8.60742H137.028V8.31543C136.63 8.29004 136.321 8.18425 136.101 7.99805C135.881 7.80762 135.75 7.58756 135.708 7.33789C135.665 7.08822 135.644 6.61849 135.644 5.92871V0.888672L139.078 8.60742H139.377L142.785 0.888672V6.3667C142.785 7.0861 142.764 7.54525 142.722 7.74414C142.684 7.9388 142.593 8.08268 142.449 8.17578C142.309 8.26888 142.058 8.31543 141.694 8.31543H141.389V8.60742H145.502V8.31543H145.121C144.732 8.31543 144.468 8.26465 144.328 8.16309C144.192 8.06152 144.108 7.90706 144.074 7.69971C144.04 7.48812 144.023 7.04378 144.023 6.3667V2.14551C144.023 1.43034 144.044 0.977539 144.087 0.787109C144.133 0.59668 144.222 0.467611 144.353 0.399902C144.484 0.327962 144.762 0.291992 145.185 0.291992H145.502V0H142.862ZM149.381 3.9292C149.249 3.9292 149.118 3.94824 148.987 3.98633L149.501 3.63086C150.081 3.24154 150.491 2.89876 150.733 2.60254C150.978 2.30208 151.101 1.97835 151.101 1.63135C151.101 1.23779 150.921 0.882324 150.561 0.564941C150.206 0.243327 149.679 0.0825195 148.981 0.0825195C148.299 0.0825195 147.756 0.272949 147.349 0.653809C146.943 1.03467 146.74 1.45996 146.74 1.92969C146.74 2.16243 146.797 2.37826 146.911 2.57715C147.026 2.77604 147.148 2.87549 147.28 2.87549C147.343 2.87549 147.445 2.84375 147.584 2.78027C147.724 2.7168 147.794 2.65755 147.794 2.60254C147.794 2.58138 147.779 2.55599 147.749 2.52637C147.491 2.264 147.362 1.98258 147.362 1.68213C147.362 1.3055 147.508 0.996582 147.8 0.755371C148.096 0.509928 148.435 0.387207 148.816 0.387207C149.188 0.387207 149.486 0.507812 149.711 0.749023C149.935 0.986003 150.047 1.32243 150.047 1.7583C150.047 2.21533 149.939 2.59408 149.723 2.89453C149.508 3.19499 149.065 3.57161 148.397 4.02441C148.092 4.23177 147.906 4.3693 147.838 4.43701C147.775 4.50049 147.743 4.56185 147.743 4.62109C147.743 4.75651 147.806 4.82422 147.933 4.82422C147.997 4.82422 148.058 4.79248 148.117 4.729C148.469 4.37354 148.79 4.1958 149.082 4.1958C149.421 4.1958 149.713 4.35661 149.958 4.67822C150.208 4.99984 150.333 5.48861 150.333 6.14453C150.333 6.96126 150.166 7.56429 149.831 7.95361C149.501 8.34294 149.07 8.5376 148.536 8.5376C148.325 8.5376 148.111 8.48047 147.895 8.36621C147.675 8.25618 147.506 8.00863 147.387 7.62354C147.294 7.32308 147.138 7.17285 146.918 7.17285C146.795 7.17285 146.696 7.21729 146.619 7.30615C146.543 7.39079 146.505 7.49447 146.505 7.61719C146.505 7.90918 146.706 8.18213 147.108 8.43604C147.51 8.68994 147.99 8.81689 148.549 8.81689C149.383 8.81689 150.064 8.56934 150.593 8.07422C151.122 7.5791 151.386 6.94434 151.386 6.16992C151.386 5.52669 151.207 4.99349 150.847 4.57031C150.491 4.1429 150.003 3.9292 149.381 3.9292ZM156.215 2.19442V8.60742H156.677V2.19442C156.911 2.39242 157.263 2.60509 157.733 2.83242V2.44742C157.197 1.98542 156.801 1.50142 156.545 0.995422H156.347C156.097 1.50142 155.701 1.98542 155.159 2.44742V2.83242C155.628 2.60509 155.98 2.39242 156.215 2.19442ZM327.949 0H330.571L333.726 7.12207L336.862 0H339.502V0.291992H339.185C338.762 0.291992 338.484 0.327962 338.353 0.399902C338.222 0.467611 338.133 0.59668 338.087 0.787109C338.044 0.977539 338.023 1.43034 338.023 2.14551V6.3667C338.023 7.04378 338.04 7.48812 338.074 7.69971C338.108 7.90706 338.192 8.06152 338.328 8.16309C338.468 8.26465 338.732 8.31543 339.121 8.31543H339.502V8.60742H335.389V8.31543H335.694C336.058 8.31543 336.309 8.26888 336.449 8.17578C336.593 8.08268 336.684 7.9388 336.722 7.74414C336.764 7.54525 336.785 7.0861 336.785 6.3667V0.888672L333.377 8.60742H333.078L329.644 0.888672V5.92871C329.644 6.61849 329.665 7.08822 329.708 7.33789C329.75 7.58756 329.881 7.80762 330.101 7.99805C330.321 8.18425 330.63 8.29004 331.028 8.31543V8.60742H327.949V8.31543C328.318 8.29427 328.616 8.19482 328.844 8.01709C329.077 7.83512 329.219 7.61296 329.27 7.35059C329.321 7.08822 329.346 6.60156 329.346 5.89062V2.14551C329.346 1.45996 329.325 1.01774 329.282 0.818848C329.244 0.619954 329.16 0.482422 329.029 0.40625C328.902 0.330078 328.62 0.291992 328.184 0.291992H327.949V0ZM341.476 4.30371C341.739 3.99056 342.014 3.7557 342.302 3.59912C342.594 3.44255 342.898 3.36426 343.216 3.36426C343.901 3.36426 344.494 3.6224 344.993 4.13867C345.492 4.65495 345.742 5.30241 345.742 6.08105C345.742 6.81315 345.501 7.45215 345.018 7.99805C344.536 8.54395 343.92 8.81689 343.171 8.81689C342.536 8.81689 342.001 8.61589 341.565 8.21387C341.129 7.81185 340.823 7.31038 340.645 6.70947C340.471 6.10433 340.385 5.47591 340.385 4.82422C340.385 3.47852 340.679 2.35286 341.267 1.44727C341.859 0.537435 342.651 0.0825195 343.641 0.0825195C344.106 0.0825195 344.517 0.184082 344.872 0.387207C345.228 0.5861 345.406 0.8125 345.406 1.06641C345.406 1.30339 345.285 1.42188 345.044 1.42188C344.836 1.42188 344.671 1.3055 344.549 1.07275C344.422 0.831543 344.284 0.65804 344.136 0.552246C343.988 0.450684 343.766 0.399902 343.469 0.399902C342.801 0.399902 342.299 0.696126 341.965 1.28857C341.631 1.88102 341.464 2.77181 341.464 3.96094C341.464 4.06673 341.468 4.18099 341.476 4.30371ZM341.438 5.99219C341.438 6.40267 341.495 6.81104 341.61 7.21729C341.728 7.6193 341.923 7.93669 342.194 8.16943C342.464 8.40218 342.767 8.51855 343.101 8.51855C343.63 8.51855 344.026 8.30697 344.288 7.88379C344.551 7.46061 344.682 6.82796 344.682 5.98584C344.682 5.45264 344.631 5.03792 344.53 4.7417C344.432 4.44124 344.25 4.19157 343.984 3.99268C343.721 3.79378 343.427 3.69434 343.101 3.69434C342.661 3.69434 342.274 3.86149 341.94 4.1958C341.605 4.52588 341.438 5.12467 341.438 5.99219ZM350.215 8.60742V2.19442C349.98 2.39242 349.628 2.60509 349.159 2.83242V2.44742C349.701 1.98542 350.097 1.50142 350.347 0.995422H350.545C350.801 1.50142 351.197 1.98542 351.733 2.44742V2.83242C351.263 2.60509 350.911 2.39242 350.677 2.19442V8.60742H350.215ZM427.571 0H424.949V0.291992H425.184C425.62 0.291992 425.902 0.330078 426.029 0.40625C426.16 0.482422 426.244 0.619954 426.282 0.818848C426.325 1.01774 426.346 1.45996 426.346 2.14551V5.89062C426.346 6.60156 426.321 7.08822 426.27 7.35059C426.219 7.61296 426.077 7.83512 425.844 8.01709C425.616 8.19482 425.318 8.29427 424.949 8.31543V8.60742H428.028V8.31543C427.63 8.29004 427.321 8.18425 427.101 7.99805C426.881 7.80762 426.75 7.58756 426.708 7.33789C426.665 7.08822 426.644 6.61849 426.644 5.92871V0.888672L430.078 8.60742H430.377L433.785 0.888672V6.3667C433.785 7.0861 433.764 7.54525 433.722 7.74414C433.684 7.9388 433.593 8.08268 433.449 8.17578C433.309 8.26888 433.058 8.31543 432.694 8.31543H432.389V8.60742H436.502V8.31543H436.121C435.732 8.31543 435.468 8.26465 435.328 8.16309C435.192 8.06152 435.108 7.90706 435.074 7.69971C435.04 7.48812 435.023 7.04378 435.023 6.3667V2.14551C435.023 1.43034 435.044 0.977539 435.087 0.787109C435.133 0.59668 435.222 0.467611 435.353 0.399902C435.484 0.327962 435.762 0.291992 436.185 0.291992H436.502V0H433.862L430.726 7.12207L427.571 0ZM438.267 0.0825195L437.734 1.82812H438.019C438.117 1.54883 438.197 1.37109 438.26 1.29492C438.324 1.21452 438.392 1.16797 438.464 1.15527C438.536 1.13835 438.754 1.12988 439.117 1.12988H441.828L439.27 7.07129C439.227 7.17708 439.175 7.29557 439.111 7.42676C438.874 7.93457 438.756 8.26676 438.756 8.42334C438.756 8.68571 438.883 8.81689 439.136 8.81689C439.272 8.81689 439.403 8.74495 439.53 8.60107C439.661 8.45296 439.852 7.99805 440.101 7.23633L442.38 0.291992H439.092C438.821 0.291992 438.654 0.279297 438.591 0.253906C438.531 0.224284 438.497 0.167155 438.489 0.0825195H438.267ZM447.215 2.19442V8.60742H447.677V2.19442C447.911 2.39242 448.263 2.60509 448.733 2.83242V2.44742C448.197 1.98542 447.801 1.50142 447.545 0.995422H447.347C447.097 1.50142 446.701 1.98542 446.159 2.44742V2.83242C446.628 2.60509 446.98 2.39242 447.215 2.19442ZM14.9036 48.3763C14.9036 47.2682 14.5722 45.2764 14.282 43.6428H0V42.7802H8.80521C5.87404 41.8868 4.05998 39.7924 3.3256 37.3317H0V36.4692H3.11495C3.00448 35.8938 2.94946 35.3044 2.94946 34.7109C2.94946 33.3851 3.21134 32.1604 3.66279 31.0209H0V30.1584H4.04754C5.07547 28.0871 6.71343 26.306 8.47403 24.7099H0V23.8474H9.45485C9.77775 23.5709 10.1017 23.2999 10.4239 23.0337C10.712 22.7936 10.7024 22.7367 10.6572 22.4698L10.6504 22.4297C10.4781 21.4205 10.3058 19.8336 10.2983 18.3989H0V17.5363H10.3153C10.4255 15.0917 11.0806 12.3414 12.7644 10.4756C13.2677 9.92191 14.0479 9.26758 14.4002 9.26758C14.6771 9.26758 15.3314 9.97224 15.7089 10.5259C16.7407 12.0359 17.3447 14.2002 17.3447 16.3897C17.3447 16.7786 17.3237 17.1608 17.283 17.5363H98.64V16.3899H98.985V17.5363H195.57V16.3899H195.915V17.5363H293.077V16.3899H293.422V17.5363H389.995V16.3899H390.34V17.5363H486.916V16.3899H487.261V17.5363H491.339V16.3899H491.684V17.5363H492.141V18.3989H491.684V23.8474H492.141V24.7099H491.684V30.1584H492.141V31.0209H491.684V36.4692H492.141V37.3317H491.684V42.7802H492.141V43.6428H491.684V44.7893H491.339V43.6428H487.261V44.7893H486.916V43.6428H390.34V44.7893H389.995V43.6428H293.422V44.7893H293.077V43.6428H241.63C241.61 43.7171 241.599 43.7918 241.599 43.8562V47.4298C241.599 47.5808 241.448 47.7066 241.172 47.7066C240.995 47.7066 240.844 47.5808 240.844 47.4298V44.284C240.844 44.133 240.719 43.831 240.517 43.831C240.505 43.831 240.486 43.8373 240.467 43.8436L240.449 43.8493C240.437 43.8532 240.425 43.8562 240.417 43.8562L238.881 44.4853C238.756 44.5357 238.63 44.7118 238.63 45.039V48.5371C238.63 48.6881 238.454 48.814 238.202 48.814C238.026 48.814 237.875 48.6881 237.875 48.5371V45.4417C237.875 45.3158 237.749 45.039 237.573 45.039C237.548 45.039 237.522 45.039 237.497 45.0642C237.271 45.1397 236.918 45.2907 236.918 45.2907C236.906 45.2907 236.887 45.2969 236.868 45.3032C236.849 45.3095 236.83 45.3158 236.818 45.3158C236.692 45.3158 236.616 45.2403 236.616 45.0893V43.6428H195.915V44.7893H195.57V43.6428H154.785C154.266 44.5933 153.344 45.437 152.3 46.0019C152.349 46.0004 152.399 45.9995 152.448 45.9992L152.487 45.9991C154.097 45.9991 155.23 46.9302 155.23 48.3396C155.23 48.5918 155.196 48.8432 155.132 49.0911H158.378V49.9536H154.785C153.845 51.6749 151.585 53.0457 149.668 53.0457C148.158 53.0457 146.95 52.1649 146.95 50.7052C146.95 50.4525 146.977 50.2011 147.029 49.9536H143.794V49.0911H147.316C147.754 48.1382 148.559 47.2973 149.59 46.7339C148.117 46.7041 146.95 45.8287 146.95 44.3942C146.95 44.1415 146.977 43.8902 147.029 43.6428H144.774C144.304 44.3975 143.53 45.2104 142.354 46.0301C142.091 46.2086 141.833 46.4309 141.567 46.6605L141.566 46.6606C141.194 46.9812 140.805 47.316 140.366 47.5653C140.366 47.5653 140.29 47.6156 140.215 47.6156C140.139 47.6156 140.064 47.5905 139.988 47.4898C139.921 47.4066 139.866 45.7815 139.821 43.6428H98.985V44.7893H98.64V43.6428H65.2148C65.596 44.0388 65.8142 44.5654 65.8142 45.1841C65.8142 47.133 63.7739 49.0318 61.6701 49.6671V49.9536H57.8533C56.9132 51.6749 54.6534 53.0457 52.7363 53.0457C51.2263 53.0457 50.0183 52.1649 50.0183 50.7052C50.0183 50.4525 50.0453 50.2011 50.0971 49.9536H47.6514V49.0911H50.384C51.1797 47.3604 53.1878 45.9991 55.5549 45.9991C56.4162 45.9991 57.1407 46.2653 57.6285 46.7286C57.911 45.4944 58.8104 44.3625 60.0598 43.6428H48.0852C48.3077 44.0006 48.441 44.4348 48.441 44.9326C48.441 46.0902 47.6609 47.6254 45.4211 49.1857C45.1585 49.3642 44.9004 49.5866 44.6338 49.8162C44.2615 50.1368 43.8729 50.4716 43.4329 50.7209C43.4329 50.7209 43.3574 50.7712 43.2819 50.7712C43.2064 50.7712 43.1309 50.746 43.0554 50.6454C42.9585 50.5242 42.8849 47.13 42.8346 43.6428H15.3885C15.6612 45.1677 16.0109 47.1663 16.0109 48.4267C16.0109 52.705 12.7392 53.46 11.0531 53.46C7.25294 53.46 6.27144 50.9936 6.27144 49.3578C6.27144 47.7975 7.2781 46.4637 8.96426 46.4637C10.4994 46.4637 11.3802 47.6465 11.3802 49.0307C11.3802 50.4903 10.4742 51.1698 9.69409 51.3963C9.11526 51.5725 8.88876 51.648 8.88876 51.8241C8.88876 52.1513 9.54309 52.554 10.9021 52.554C12.3869 52.554 14.9036 52.101 14.9036 48.3763ZM12.2107 42.3364C8.21048 42.3364 5.49748 40.3224 5.03354 37.3317H8.21054C8.61799 38.7841 9.60922 39.8103 10.9021 40.2476C11.1034 40.3231 11.4054 40.3985 11.5816 40.3985C11.7829 40.3985 11.8836 40.2727 11.8836 40.1217C11.8836 39.9551 11.7035 39.8785 11.535 39.8069L11.5061 39.7946C10.5194 39.3717 9.79593 38.4007 9.70399 37.3317H13.2129L13.9724 41.8582C14.0219 42.1303 13.9984 42.135 13.6393 42.2067L13.6201 42.2105C13.2174 42.286 12.7141 42.3364 12.2107 42.3364ZM8.04458 36.4692H4.96319C4.96292 36.4452 4.96278 36.4212 4.96278 36.3971C4.96278 35.01 5.18239 33.1838 6.91399 31.0209H11.3608C9.31534 31.8463 8.00793 33.7509 8.00793 35.7931C8.00793 36.0255 8.02038 36.251 8.04458 36.4692ZM12.0102 30.1584H7.66788C8.98855 28.7353 10.0443 27.8817 11.1177 27.0139L11.1537 26.9848C11.4054 26.7835 11.4557 26.8086 11.5061 27.0855L12.0102 30.1584ZM12.2107 34.1573C10.9104 34.5196 10.0074 35.3514 9.76147 36.4692H13.0682L12.7141 34.3586C12.6637 34.0818 12.6134 34.0566 12.2107 34.1573ZM15.0042 41.4807L14.2909 37.3317H17.7105C17.7512 37.5665 17.7725 37.8091 17.7725 38.0581C17.7725 39.6436 16.8162 40.927 15.4069 41.6317C15.1049 41.7827 15.0546 41.7827 15.0042 41.4807ZM14.1426 36.4692H17.4616C16.8834 35.0658 15.563 34.0869 14.0479 33.9559C13.7459 33.9308 13.7207 34.0063 13.7711 34.3083L14.1426 36.4692ZM42.7639 37.3317H19.8003C19.544 39.8221 17.9344 41.6919 15.6082 42.6132C15.5732 42.6282 15.5414 42.6415 15.5126 42.6535C15.3874 42.7058 15.3186 42.7345 15.2859 42.7802H42.8227C42.7944 40.6631 42.7748 38.6085 42.7639 37.3317ZM16.2026 31.0209C18.4269 31.9338 19.7783 34.0865 19.8344 36.4692H42.7568L42.7534 36.0236C42.7786 35.5706 43.1812 35.319 43.5336 35.319C43.7852 35.319 44.0117 35.47 44.0117 35.7468C44.0117 35.8356 44.007 36.0965 43.9992 36.4692H98.64V31.0209H16.2026ZM13.0412 30.1054L13.0501 30.1584H98.64V24.7099H13.8098C13.4148 25.1493 12.9973 25.5721 12.5631 25.9781L12.5348 26.0062C12.4059 26.1336 12.365 26.174 12.4121 26.4563L13.0412 30.1054ZM98.64 23.8474H14.5379C15.8113 22.2355 16.7652 20.4194 17.1536 18.3989H98.64V23.8474ZM11.9087 22.027C13.0825 21.0018 14.3966 19.7924 15.2762 18.3989H11.481C11.448 18.7542 11.4306 19.125 11.4306 19.5103C11.4306 20.3157 11.4809 21.1713 11.5816 21.8257C11.6319 22.1528 11.7326 22.178 11.9087 22.027ZM11.5956 17.5363H15.7493C16.0853 16.813 16.2877 16.0449 16.2877 15.232C16.2877 13.8479 15.6082 13.1684 14.7777 13.1684C13.5198 13.1684 12.076 14.7905 11.5956 17.5363ZM242.82 42.7802H245.057C244.681 42.3902 244.456 41.8684 244.456 41.2389C244.456 39.6982 245.459 38.2088 246.982 37.3317H241.943L241.927 37.338C241.725 37.4135 241.599 37.8917 241.599 38.0679V40.4084C241.599 40.7104 241.776 40.8613 241.927 40.8613L242.581 40.6097C242.631 40.5845 242.656 40.5845 242.707 40.5845C242.807 40.5845 242.883 40.66 242.883 40.7858V42.5727C242.883 42.6372 242.86 42.711 242.82 42.7802ZM293.077 42.7802H249.925C251.481 41.8986 252.736 40.4013 252.736 38.8732C252.736 38.2544 252.517 37.7278 252.136 37.3317H293.077V42.7802ZM236.618 37.3584C236.617 37.3686 236.616 37.3786 236.616 37.3884V39.1752C236.616 39.3262 236.692 39.4017 236.818 39.4017C236.918 39.4017 237.397 39.1752 237.472 39.1249C237.485 39.1249 237.497 39.1186 237.51 39.1123C237.522 39.106 237.535 39.0997 237.548 39.0997C237.724 39.0997 237.875 39.3514 237.875 39.5527V42.0442C237.875 42.321 237.749 42.5475 237.598 42.623C237.522 42.6482 237.353 42.7173 237.202 42.7802H195.915V37.3317H236.622C236.62 37.3407 236.619 37.3496 236.618 37.3584ZM242.883 36.4692V34.8717C242.883 34.7459 242.807 34.6704 242.707 34.6704C242.656 34.6704 242.631 34.6704 242.581 34.6956C242.581 34.6956 242.078 34.8969 241.952 34.9221C241.776 34.9221 241.599 34.7962 241.599 34.5949V31.5246C241.599 31.3736 241.448 31.2477 241.247 31.2477C240.995 31.2477 240.844 31.3736 240.844 31.5246V34.7962C240.819 35.0479 240.744 35.375 240.517 35.526C240.215 35.7022 239.36 36.0545 238.932 36.1552C238.705 36.1552 238.63 35.8532 238.63 35.6519V32.6319C238.63 32.4809 238.454 32.3551 238.277 32.3551C238.026 32.3551 237.875 32.4809 237.875 32.6319V36.0294C237.875 36.2037 237.838 36.3533 237.782 36.4692H195.915V31.0209H293.077V36.4692H242.883ZM155.131 42.7802C155.196 42.5322 155.23 42.2808 155.23 42.0285C155.23 40.6192 154.097 39.688 152.487 39.688C150.119 39.688 148.111 41.0494 147.316 42.7802H145.193C145.318 42.4233 145.374 42.0866 145.374 41.777C145.374 40.3425 144.266 39.4365 143.109 39.361C142.681 39.361 142.077 39.5623 141.725 39.7888C141.574 39.9147 141.297 40.1412 141.171 40.1412C141.121 40.1412 141.095 40.1412 141.045 40.116C140.869 40.0405 140.768 39.8643 140.768 39.6882C140.778 39.4805 140.805 38.5012 140.835 37.3317H195.57V42.7802H155.131ZM140.944 32.5912C140.944 32.8607 140.901 34.7173 140.857 36.4692H195.57V31.0209H98.985V36.4692H139.718C139.697 34.3985 139.686 32.8681 139.686 32.8681C139.711 32.4151 140.114 32.1634 140.466 32.1634C140.718 32.1634 140.944 32.3144 140.944 32.5912ZM139.805 42.7802C139.772 41.0324 139.747 39.0567 139.727 37.3317H98.985V42.7802H139.805ZM140.793 42.7333L140.793 42.7802H143.559C143.61 42.5733 143.637 42.3639 143.637 42.1545C143.637 41.5253 143.335 40.6948 142.605 40.6948C142.027 40.6948 141.02 41.4247 140.844 41.928C140.819 42.0287 140.793 42.3307 140.793 42.7333ZM143.216 43.6428H140.808C140.829 44.4605 140.869 45.25 140.869 45.25C140.869 45.3758 140.919 45.6275 141.146 45.6275C141.221 45.6275 141.297 45.6023 141.397 45.552C142.075 45.1264 142.782 44.4344 143.216 43.6428ZM43.98 37.3317C43.9361 39.229 43.8601 42.1905 43.8381 42.7802H45.1007C45.4385 42.6289 45.8565 42.5166 46.1761 42.5166C46.5087 42.5383 46.8372 42.6285 47.1364 42.7802H98.64V37.3317H43.98ZM491.339 42.7802V37.3317H487.261V42.7802H491.339ZM491.339 36.4692V31.0209H487.261V36.4692H491.339ZM491.339 30.1584V24.7099H487.261V30.1584H491.339ZM491.339 23.8474V18.3989H487.261V23.8474H491.339ZM390.34 18.3989H486.916V23.8474H432.205C432.249 22.0954 432.293 20.2386 432.293 19.9692C432.293 19.6923 432.066 19.5413 431.815 19.5413C431.462 19.5413 431.06 19.793 431.034 20.246C431.034 20.246 431.045 21.7765 431.067 23.8474H390.34V18.3989ZM431.076 24.7099H390.34V30.1584H431.153C431.121 28.4106 431.095 26.4349 431.076 24.7099ZM432.183 24.7099C432.153 25.8793 432.126 26.8585 432.117 27.0661C432.117 27.2423 432.217 27.4184 432.393 27.4939C432.444 27.5191 432.469 27.5191 432.519 27.5191C432.645 27.5191 432.922 27.2926 433.073 27.1668C433.425 26.9403 434.029 26.7389 434.457 26.7389C435.615 26.8144 436.722 27.7204 436.722 29.1549C436.722 29.4646 436.666 29.8014 436.542 30.1584H438.665C439.46 28.4276 441.468 27.0662 443.836 27.0662C445.446 27.0662 446.579 27.9973 446.579 29.4066C446.579 29.6589 446.545 29.9104 446.481 30.1584H486.916V24.7099H432.183ZM436.122 31.0209H438.378C438.326 31.2684 438.299 31.5196 438.299 31.7723C438.299 33.232 439.507 34.1128 441.017 34.1128C442.934 34.1128 445.194 32.7421 446.134 31.0209H486.916V36.4692H390.34V31.0209H431.17C431.214 33.1596 431.27 34.7846 431.336 34.8677C431.412 34.9684 431.487 34.9936 431.563 34.9936C431.638 34.9936 431.714 34.9432 431.714 34.9432C432.154 34.6939 432.543 34.3592 432.915 34.0386C433.181 33.809 433.44 33.5866 433.702 33.4081C434.879 32.5884 435.653 31.7756 436.122 31.0209ZM434.908 30.1584C434.958 29.9514 434.986 29.7419 434.986 29.5324C434.986 28.9033 434.684 28.0728 433.954 28.0728C433.375 28.0728 432.368 28.8026 432.192 29.3059C432.167 29.4066 432.142 29.7086 432.142 30.1113L432.142 30.1584H434.908ZM432.156 31.0209H434.565C434.131 31.8125 433.423 32.5044 432.746 32.9299C432.645 32.9802 432.57 33.0054 432.494 33.0054C432.268 33.0054 432.217 32.7537 432.217 32.6279C432.217 32.6279 432.178 31.8386 432.156 31.0209ZM390.34 37.3317H486.916V42.7802H390.34V37.3317ZM389.995 42.7802V37.3317H335.833C335.509 37.6084 335.169 37.885 334.792 38.0987C334.792 38.0987 334.717 38.1491 334.641 38.1491C334.566 38.1491 334.49 38.1239 334.415 38.0232C334.39 37.992 334.366 37.7434 334.344 37.3317H293.422V42.7802H389.995ZM341.978 36.4692H336.914C339.051 34.9415 339.8 33.4447 339.8 32.3104C339.8 31.8128 339.667 31.3788 339.444 31.0209H343.902C342.379 31.898 341.377 33.3874 341.377 34.9279C341.377 35.5574 341.601 36.0792 341.978 36.4692ZM346.846 36.4692C348.402 35.5876 349.656 34.0903 349.656 32.5622C349.656 31.9435 349.438 31.417 349.057 31.0209H389.995V36.4692H346.846ZM334.194 31.0209C334.224 33.0919 334.262 35.13 334.308 36.4692H293.422V31.0209H334.194ZM293.422 30.1584H334.182C334.154 28.0413 334.134 25.9867 334.123 24.7099H293.422V30.1584ZM335.339 24.7099C335.295 26.6075 335.219 29.5694 335.197 30.1584H336.459C336.797 30.007 337.215 29.8945 337.535 29.8945C337.868 29.9162 338.197 30.0065 338.496 30.1584H389.995V24.7099H335.339ZM389.995 23.8474H335.358C335.366 23.4745 335.371 23.2135 335.371 23.1247C335.371 22.8478 335.144 22.6968 334.893 22.6968C334.54 22.6968 334.138 22.9485 334.113 23.4015L334.116 23.8474H293.422V18.3989H389.995V23.8474ZM195.915 18.3989H293.077V23.8474H195.915V18.3989ZM195.915 24.7099H293.077V30.1584H195.915V24.7099ZM195.57 30.1584V24.7099H98.985V30.1584H195.57ZM195.57 23.8474V18.3989H98.985V23.8474H195.57ZM244.535 49.9536H241.3V49.0911H244.822C245.617 47.3604 247.625 45.9991 249.992 45.9991C251.603 45.9991 252.736 46.9302 252.736 48.3396C252.736 48.5918 252.701 48.8432 252.637 49.0911H255.884V49.9536H252.291C251.351 51.6749 249.091 53.0457 247.174 53.0457C245.664 53.0457 244.456 52.1649 244.456 50.7052C244.456 50.4525 244.483 50.2011 244.535 49.9536ZM338.218 49.9536H341.456C341.404 50.2011 341.377 50.4525 341.377 50.7052C341.377 52.1649 342.585 53.0457 344.095 53.0457C346.012 53.0457 348.272 51.6749 349.212 49.9536H352.805V49.0911H349.558C349.622 48.8432 349.656 48.5918 349.656 48.3396C349.656 46.9302 348.524 45.9991 346.913 45.9991C344.546 45.9991 342.538 47.3604 341.742 49.0911H338.218V49.9536ZM438.378 49.9536H435.138V49.0911H438.665C439.46 47.3604 441.469 45.9991 443.836 45.9991C445.446 45.9991 446.579 46.9302 446.579 48.3396C446.579 48.5918 446.545 48.8432 446.481 49.0911H449.725V49.9536H446.134C445.194 51.6749 442.934 53.0457 441.017 53.0457C439.507 53.0457 438.299 52.1649 438.299 50.7052C438.299 50.4525 438.326 50.2011 438.378 49.9536ZM45.6727 43.8504C45.0939 43.8504 44.0872 44.5802 43.9111 45.0836C43.8859 45.1842 43.8607 45.4862 43.8607 45.8889C43.8607 46.8956 43.9362 48.4056 43.9362 48.4056C43.9362 48.5314 43.9866 48.7831 44.2131 48.7831C44.2886 48.7831 44.3641 48.7579 44.4647 48.7076C45.5469 48.0281 46.7046 46.6691 46.7046 45.3101C46.7046 44.6809 46.4026 43.8504 45.6727 43.8504ZM238.63 38.9487C238.579 39.15 238.554 40.0309 238.554 40.811C238.554 41.415 238.579 41.9687 238.63 42.0693C238.655 42.1448 238.781 42.1952 238.932 42.1952C239.511 42.1952 240.693 41.6918 240.844 41.1885C240.895 40.962 240.945 40.2574 240.945 39.5779C240.945 38.8984 240.895 38.2692 240.844 38.1434C240.794 38.0427 240.643 37.9924 240.467 37.9924C239.838 37.9924 238.68 38.5209 238.63 38.9487ZM335.27 32.4614C335.446 31.9581 336.453 31.2283 337.032 31.2283C337.762 31.2283 338.064 32.0588 338.064 32.6879C338.064 34.0469 336.906 35.4059 335.824 36.0854C335.723 36.1358 335.648 36.1609 335.572 36.1609C335.346 36.1609 335.295 35.9093 335.295 35.7834C335.295 35.7834 335.22 34.2734 335.22 33.2668C335.22 32.8641 335.245 32.5621 335.27 32.4614Z" fill="black"/>
</svg>
