<svg width="493" height="54" viewBox="0 0 493 54" fill="none" xmlns="http://www.w3.org/2000/svg">
<path fill-rule="evenodd" clip-rule="evenodd" d="M52.4763 5.53516H52.2034C52.1526 6.03451 51.9854 6.5529 51.7019 7.09033C51.4226 7.62354 51.0417 8.00228 50.5593 8.22656C50.0769 8.45085 49.6051 8.56299 49.1438 8.56299C48.2805 8.56299 47.559 8.22021 46.9792 7.53467C46.3995 6.84489 46.1096 5.85465 46.1096 4.56396C46.1096 3.20133 46.3741 2.15397 46.9031 1.42188C47.4363 0.689779 48.1536 0.32373 49.0549 0.32373C49.7913 0.32373 50.4514 0.55013 51.0354 1.00293C51.6236 1.45573 52.0129 2.26188 52.2034 3.42139H52.4763L52.4001 0.158691H52.1208C52.0828 0.543783 51.9727 0.916178 51.7908 1.27588C51.5326 0.954264 51.1412 0.662272 50.6165 0.399902C50.0959 0.133301 49.5141 0 48.8708 0C48.0922 0 47.377 0.181966 46.7253 0.545898C46.0737 0.909831 45.5658 1.46842 45.2019 2.22168C44.838 2.9707 44.656 3.77051 44.656 4.62109C44.656 5.91602 45.0496 6.95703 45.8367 7.74414C46.628 8.53125 47.6458 8.9248 48.8899 8.9248C50.0663 8.9248 51.0333 8.4974 51.7908 7.64258C51.9897 7.90495 52.1272 8.20752 52.2034 8.55029H52.4763V5.53516ZM56.0183 2.67236H53.9172V3.33252H55.8787L55.3645 5.80811H53.9172V6.46826H55.2249L54.679 9.06445H55.3455L55.8723 6.46826H58.6843L58.1321 9.06445H58.7986L59.3381 6.46826H61.4202V5.80811H59.4714L59.9856 3.33252H61.4202V2.67236H60.1125L60.6648 0.0634766H60.0046L59.4587 2.67236H56.6721L57.2244 0.0634766H56.5706L56.0183 2.67236ZM58.8176 5.79541H56.012L56.5325 3.33252H59.3318L58.8176 5.79541ZM65.7683 0.241211H65.489C65.1378 0.520508 64.5961 0.666504 63.864 0.679199V0.971191H64.137C64.4374 0.971191 64.6342 1.01774 64.7273 1.11084C64.8246 1.19971 64.8796 1.3055 64.8923 1.42822C64.905 1.54671 64.9114 1.8916 64.9114 2.46289V6.98242C64.9114 7.56217 64.9029 7.91341 64.886 8.03613C64.8733 8.15462 64.8204 8.2583 64.7273 8.34717C64.6384 8.4318 64.4417 8.47412 64.137 8.47412H63.9275V8.76611H66.7839V8.47412H66.5364C66.2655 8.47412 66.0772 8.43604 65.9714 8.35986C65.8656 8.28369 65.8043 8.17367 65.7874 8.02979C65.7747 7.8859 65.7683 7.53678 65.7683 6.98242V0.241211ZM239.112 2.3042L239.042 0.158691H232.402V0.450684H232.554C232.99 0.450684 233.272 0.48877 233.399 0.564941C233.53 0.641113 233.615 0.778646 233.653 0.977539C233.695 1.17643 233.716 1.61865 233.716 2.3042V6.52539C233.716 7.24479 233.695 7.70394 233.653 7.90283C233.615 8.09749 233.524 8.24137 233.38 8.33447C233.24 8.42757 232.986 8.47412 232.618 8.47412H232.351V8.76611H236.35V8.47412H236.058C235.665 8.47412 235.398 8.42334 235.259 8.32178C235.123 8.22021 235.038 8.06575 235.005 7.8584C234.971 7.64681 234.954 7.20247 234.954 6.52539V4.38623H235.76C236.183 4.38623 236.467 4.42643 236.611 4.50684C236.759 4.58301 236.869 4.729 236.941 4.94482C237.017 5.15641 237.055 5.44629 237.055 5.81445H237.372V2.78027H237.055C237.055 3.30924 236.968 3.6626 236.795 3.84033C236.625 4.01383 236.281 4.10059 235.76 4.10059H234.954V0.450684H236.636C237.169 0.450684 237.548 0.48877 237.772 0.564941C237.997 0.641113 238.21 0.833659 238.413 1.14258C238.621 1.44727 238.754 1.83447 238.813 2.3042H239.112ZM241.86 2.67236H239.759V3.33252H241.72L241.206 5.80811H239.759V6.46826H241.067L240.521 9.06445H241.187L241.714 6.46826H244.526L243.974 9.06445H244.64L245.18 6.46826H247.262V5.80811H245.313L245.827 3.33252H247.262V2.67236H245.954L246.507 0.0634766H245.846L245.301 2.67236H242.514L243.066 0.0634766H242.412L241.86 2.67236ZM244.659 5.79541H241.854L242.374 3.33252H245.174L244.659 5.79541ZM251.61 0.241211H251.331C250.98 0.520508 250.438 0.666504 249.706 0.679199V0.971191H249.979C250.279 0.971191 250.476 1.01774 250.569 1.11084C250.666 1.19971 250.721 1.3055 250.734 1.42822C250.747 1.54671 250.753 1.8916 250.753 2.46289V6.98242C250.753 7.56217 250.745 7.91341 250.728 8.03613C250.715 8.15462 250.662 8.2583 250.569 8.34717C250.48 8.4318 250.283 8.47412 249.979 8.47412H249.769V8.76611H252.626V8.47412H252.378C252.107 8.47412 251.919 8.43604 251.813 8.35986C251.707 8.28369 251.646 8.17367 251.629 8.02979C251.616 7.8859 251.61 7.53678 251.61 6.98242V0.241211ZM143.41 6.0874H143.715L143.531 8.76611H136.402V8.47412H136.58C137.007 8.47412 137.282 8.41699 137.405 8.30273C137.532 8.18848 137.612 8.0446 137.646 7.87109C137.68 7.69336 137.697 7.24479 137.697 6.52539V2.3042C137.697 1.64827 137.678 1.21663 137.64 1.00928C137.606 0.801921 137.524 0.65804 137.392 0.577637C137.265 0.493001 136.995 0.450684 136.58 0.450684V0.158691H142.731L142.934 2.3042H142.635C142.5 1.70329 142.333 1.27799 142.134 1.02832C141.939 0.774414 141.707 0.615723 141.436 0.552246C141.165 0.484538 140.729 0.450684 140.128 0.450684H138.935V4.0625H139.849C140.268 4.0625 140.56 4.02653 140.725 3.95459C140.894 3.88265 141.004 3.77474 141.055 3.63086C141.11 3.48275 141.137 3.1971 141.137 2.77393H141.436V5.71924H141.137C141.137 5.24105 141.097 4.92155 141.017 4.76074C140.936 4.5957 140.818 4.48991 140.661 4.44336C140.509 4.39258 140.249 4.36719 139.881 4.36719H138.935V6.40479C138.935 7.42464 139 8.02555 139.132 8.20752C139.263 8.38525 139.616 8.47412 140.192 8.47412H140.833C141.286 8.47412 141.658 8.41699 141.95 8.30273C142.242 8.18425 142.519 7.94515 142.781 7.58545C143.048 7.22152 143.258 6.72217 143.41 6.0874ZM145.365 8.97559H145.117V2.01855C145.117 1.51074 145.103 1.18278 145.073 1.03467C145.048 0.886556 144.978 0.77653 144.864 0.70459C144.754 0.63265 144.559 0.59668 144.28 0.59668V0.304688C144.529 0.304688 144.83 0.275065 145.181 0.21582C145.532 0.156576 145.771 0.0973307 145.898 0.0380859H146.031V4.15137C146.328 3.88477 146.628 3.68587 146.933 3.55469C147.238 3.4235 147.546 3.35791 147.86 3.35791C148.609 3.35791 149.222 3.61816 149.7 4.13867C150.179 4.65918 150.418 5.32357 150.418 6.13184C150.418 6.94434 150.172 7.62142 149.681 8.16309C149.191 8.70475 148.554 8.97559 147.771 8.97559C147.386 8.97559 147.047 8.89518 146.755 8.73438C146.467 8.57357 146.226 8.33447 146.031 8.01709C145.756 8.29216 145.534 8.61165 145.365 8.97559ZM146.031 4.52588V6.56348C146.031 7.08822 146.065 7.46696 146.133 7.69971C146.205 7.92822 146.374 8.14827 146.641 8.35986C146.907 8.57145 147.219 8.67725 147.574 8.67725C148.12 8.67725 148.554 8.45296 148.875 8.00439C149.201 7.55583 149.364 6.91048 149.364 6.06836C149.364 5.29395 149.212 4.70573 148.907 4.30371C148.607 3.89746 148.204 3.69434 147.701 3.69434C147.413 3.69434 147.13 3.76416 146.85 3.90381C146.575 4.03923 146.302 4.24658 146.031 4.52588ZM154.379 0.241211H154.658V6.98242C154.658 7.53678 154.664 7.8859 154.677 8.02979C154.694 8.17367 154.755 8.28369 154.861 8.35986C154.967 8.43604 155.155 8.47412 155.426 8.47412H155.674V8.76611H152.817V8.47412H153.027C153.331 8.47412 153.528 8.4318 153.617 8.34717C153.71 8.2583 153.763 8.15462 153.776 8.03613C153.793 7.91341 153.801 7.56217 153.801 6.98242V2.46289C153.801 1.8916 153.795 1.54671 153.782 1.42822C153.769 1.3055 153.714 1.19971 153.617 1.11084C153.524 1.01774 153.327 0.971191 153.027 0.971191H152.754V0.679199C153.486 0.666504 154.027 0.520508 154.379 0.241211ZM332.332 5.59229H335.601L336.261 7.18555C336.456 7.64681 336.553 7.92399 336.553 8.01709C336.553 8.19906 336.479 8.32178 336.331 8.38525C336.187 8.4445 335.908 8.47412 335.493 8.47412V8.76611H338.876V8.47412C338.576 8.4445 338.349 8.37256 338.197 8.2583C338.049 8.13981 337.93 7.979 337.842 7.77588L337.448 6.87451L334.573 0.0380859H334.325L331.824 6.01123C331.642 6.43864 331.54 6.68408 331.519 6.74756C331.257 7.42041 331.033 7.86263 330.846 8.07422C330.66 8.28158 330.377 8.41488 329.996 8.47412V8.76611H332.554V8.47412C332.279 8.47412 332.052 8.40853 331.875 8.27734C331.701 8.14193 331.615 7.94515 331.615 7.68701C331.615 7.4458 331.78 6.92952 332.11 6.13818L332.332 5.59229ZM333.969 1.6377L335.493 5.30664H332.452L333.969 1.6377ZM339.803 8.97559H340.051C340.22 8.61165 340.442 8.29216 340.717 8.01709C340.912 8.33447 341.153 8.57357 341.441 8.73438C341.733 8.89518 342.071 8.97559 342.456 8.97559C343.239 8.97559 343.876 8.70475 344.367 8.16309C344.858 7.62142 345.103 6.94434 345.103 6.13184C345.103 5.32357 344.864 4.65918 344.386 4.13867C343.908 3.61816 343.294 3.35791 342.545 3.35791C342.232 3.35791 341.923 3.4235 341.618 3.55469C341.314 3.68587 341.013 3.88477 340.717 4.15137V0.0380859H340.584C340.457 0.0973307 340.218 0.156576 339.866 0.21582C339.515 0.275065 339.215 0.304688 338.965 0.304688V0.59668C339.244 0.59668 339.439 0.63265 339.549 0.70459C339.663 0.77653 339.733 0.886556 339.759 1.03467C339.788 1.18278 339.803 1.51074 339.803 2.01855V8.97559ZM340.717 6.56348V4.52588C340.988 4.24658 341.261 4.03923 341.536 3.90381C341.815 3.76416 342.099 3.69434 342.386 3.69434C342.89 3.69434 343.292 3.89746 343.593 4.30371C343.897 4.70573 344.05 5.29395 344.05 6.06836C344.05 6.91048 343.887 7.55583 343.561 8.00439C343.239 8.45296 342.805 8.67725 342.26 8.67725C341.904 8.67725 341.593 8.57145 341.326 8.35986C341.06 8.14827 340.891 7.92822 340.819 7.69971C340.751 7.46696 340.717 7.08822 340.717 6.56348ZM349.344 0.241211H349.064C348.713 0.520508 348.171 0.666504 347.439 0.679199V0.971191H347.712C348.013 0.971191 348.209 1.01774 348.302 1.11084C348.4 1.19971 348.455 1.3055 348.468 1.42822C348.48 1.54671 348.487 1.8916 348.487 2.46289V6.98242C348.487 7.56217 348.478 7.91341 348.461 8.03613C348.448 8.15462 348.396 8.2583 348.302 8.34717C348.214 8.4318 348.017 8.47412 347.712 8.47412H347.503V8.76611H350.359V8.47412H350.112C349.841 8.47412 349.652 8.43604 349.547 8.35986C349.441 8.28369 349.379 8.17367 349.363 8.02979C349.35 7.8859 349.344 7.53678 349.344 6.98242V0.241211ZM431.515 4.13232C432.493 4.20426 433.219 4.44759 433.693 4.8623C434.167 5.27702 434.404 5.79541 434.404 6.41748C434.404 6.95915 434.243 7.42676 433.921 7.82031C433.6 8.20964 433.187 8.46566 432.683 8.58838C432.184 8.70687 431.513 8.76611 430.671 8.76611H427.294V8.47412H427.624C427.992 8.47412 428.246 8.42757 428.386 8.33447C428.53 8.24137 428.621 8.09749 428.659 7.90283C428.697 7.70394 428.716 7.24479 428.716 6.52539V2.33594C428.716 1.6377 428.695 1.18701 428.653 0.983887C428.615 0.780762 428.53 0.641113 428.399 0.564941C428.272 0.48877 427.99 0.450684 427.554 0.450684H427.389V0.158691L428.805 0.120605L430.417 0.0698242C432.77 0.0698242 433.947 0.746908 433.947 2.10107C433.947 2.65967 433.743 3.10824 433.337 3.44678C432.935 3.78532 432.328 4.01383 431.515 4.13232ZM429.96 4.01172C430.066 4.01595 430.155 4.01807 430.227 4.01807C431.141 4.01807 431.765 3.87419 432.099 3.58643C432.434 3.29867 432.601 2.83317 432.601 2.18994C432.601 1.74137 432.535 1.39437 432.404 1.14893C432.273 0.903483 432.076 0.715169 431.814 0.583984C431.551 0.448568 431.103 0.380859 430.468 0.380859C430.303 0.380859 430.134 0.387207 429.96 0.399902V4.01172ZM429.96 4.32275V6.23975C429.96 7.05648 429.975 7.57487 430.005 7.79492C430.034 8.01497 430.113 8.18213 430.24 8.29639C430.371 8.41064 430.627 8.46777 431.008 8.46777C431.685 8.46777 432.192 8.29427 432.531 7.94727C432.87 7.60026 433.039 7.07975 433.039 6.38574C433.039 5.6748 432.846 5.15218 432.461 4.81787C432.08 4.47933 431.407 4.31006 430.443 4.31006C430.29 4.31006 430.129 4.31429 429.96 4.32275ZM436.238 8.97559H435.99V2.01855C435.99 1.51074 435.976 1.18278 435.946 1.03467C435.921 0.886556 435.851 0.77653 435.737 0.70459C435.627 0.63265 435.432 0.59668 435.153 0.59668V0.304688C435.402 0.304688 435.703 0.275065 436.054 0.21582C436.405 0.156576 436.644 0.0973307 436.771 0.0380859H436.905V4.15137C437.201 3.88477 437.501 3.68587 437.806 3.55469C438.111 3.4235 438.42 3.35791 438.733 3.35791C439.482 3.35791 440.095 3.61816 440.573 4.13867C441.052 4.65918 441.291 5.32357 441.291 6.13184C441.291 6.94434 441.045 7.62142 440.554 8.16309C440.064 8.70475 439.427 8.97559 438.644 8.97559C438.259 8.97559 437.92 8.89518 437.628 8.73438C437.34 8.57357 437.099 8.33447 436.905 8.01709C436.629 8.29216 436.407 8.61165 436.238 8.97559ZM436.905 4.52588V6.56348C436.905 7.08822 436.938 7.46696 437.006 7.69971C437.078 7.92822 437.247 8.14827 437.514 8.35986C437.781 8.57145 438.092 8.67725 438.447 8.67725C438.993 8.67725 439.427 8.45296 439.748 8.00439C440.074 7.55583 440.237 6.91048 440.237 6.06836C440.237 5.29395 440.085 4.70573 439.78 4.30371C439.48 3.89746 439.078 3.69434 438.574 3.69434C438.286 3.69434 438.003 3.76416 437.723 3.90381C437.448 4.03923 437.175 4.24658 436.905 4.52588ZM445.252 0.241211H445.531V6.98242C445.531 7.53678 445.537 7.8859 445.55 8.02979C445.567 8.17367 445.628 8.28369 445.734 8.35986C445.84 8.43604 446.028 8.47412 446.299 8.47412H446.547V8.76611H443.69V8.47412H443.9C444.204 8.47412 444.401 8.4318 444.49 8.34717C444.583 8.2583 444.636 8.15462 444.649 8.03613C444.666 7.91341 444.674 7.56217 444.674 6.98242V2.46289C444.674 1.8916 444.668 1.54671 444.655 1.42822C444.642 1.3055 444.587 1.19971 444.49 1.11084C444.397 1.01774 444.2 0.971191 443.9 0.971191H443.627V0.679199C444.359 0.666504 444.9 0.520508 445.252 0.241211ZM15.1096 48.1732C15.1096 47.065 14.7783 45.0733 14.4881 43.4397H0V42.5772H9.01147C6.0802 41.6838 4.26608 39.5894 3.53167 37.1287H0V36.2661H3.32101C3.21054 35.6907 3.15552 35.1013 3.15552 34.5078C3.15552 33.182 3.41739 31.9573 3.86882 30.8179H0V29.9553H4.25356C5.28148 27.884 6.91943 26.1029 8.68002 24.5068H0V23.6443H9.66083C9.98376 23.3679 10.3078 23.0968 10.63 22.8305C10.9181 22.5905 10.9084 22.5336 10.8632 22.2667L10.8565 22.2265C10.6842 21.2174 10.5119 19.6306 10.5044 18.1958H0.00012207V17.3333H10.5214C10.6315 14.8886 11.2867 12.1382 12.9705 10.2724C13.4738 9.71878 14.2539 9.06445 14.6063 9.06445C14.8831 9.06445 15.5374 9.76912 15.9149 10.3228C16.9468 11.8328 17.5508 13.9971 17.5508 16.1866C17.5508 16.5755 17.5297 16.9577 17.4891 17.3333H98.6401V16.1868H98.9851V17.3333H195.571V16.1867H195.916V17.3333H293.077V16.1867H293.422V17.3333H389.996V16.1867H390.341V17.3333H486.915V16.1867H487.261V17.3333H491.339V16.1867H491.684V17.3333H492.141V18.1958H491.684V23.6443H492.141V24.5068H491.684V29.9553H492.141V30.8179H491.684V36.2661H492.141V37.1287H491.684V42.5772H492.141V43.4397H491.684V44.5861H491.339V43.4397H487.261V44.5861H486.915V43.4397H390.341V44.5861H389.996V43.4397H293.422V44.5861H293.077V43.4397H241.63C241.61 43.514 241.6 43.5887 241.6 43.653V47.2267C241.6 47.3777 241.449 47.5035 241.172 47.5035C240.996 47.5035 240.845 47.3777 240.845 47.2267V44.0809C240.845 43.9299 240.719 43.6279 240.518 43.6279C240.511 43.6279 240.502 43.6297 240.493 43.6323C240.485 43.6346 240.476 43.6375 240.467 43.6405C240.448 43.6467 240.429 43.653 240.417 43.653L238.882 44.2822C238.756 44.3325 238.63 44.5087 238.63 44.8359V48.334C238.63 48.485 238.454 48.6108 238.202 48.6108C238.026 48.6108 237.875 48.485 237.875 48.334V45.2385C237.875 45.1127 237.749 44.8359 237.573 44.8359C237.548 44.8359 237.523 44.8359 237.498 44.861C237.271 44.9365 236.919 45.0875 236.919 45.0875C236.906 45.0875 236.887 45.0938 236.868 45.1001C236.849 45.1064 236.831 45.1127 236.818 45.1127C236.692 45.1127 236.617 45.0372 236.617 44.8862V43.4397H195.916V44.5861H195.571V43.4397H154.785C153.845 45.1608 151.585 46.5315 149.668 46.5315C148.158 46.5315 146.95 45.6507 146.95 44.1911C146.95 43.9384 146.977 43.6871 147.029 43.4397H144.774C144.304 44.1945 143.53 45.0073 142.354 45.8271C142.091 46.0056 141.833 46.2279 141.567 46.4574L141.566 46.4575C141.194 46.7782 140.805 47.1129 140.366 47.3622C140.366 47.3622 140.29 47.4126 140.215 47.4126C140.139 47.4126 140.064 47.3874 139.988 47.2867C139.921 47.2036 139.866 45.5785 139.821 43.4397H98.9851V44.5862H98.6401V43.4397H15.5946C15.8672 44.9646 16.2169 46.9632 16.2169 48.2235C16.2169 52.5018 12.9453 53.2568 11.2591 53.2568C7.45899 53.2568 6.4775 50.7905 6.4775 49.1547C6.4775 47.5944 7.48416 46.2606 9.17031 46.2606C10.7055 46.2606 11.5863 47.4434 11.5863 48.8275C11.5863 50.2872 10.6803 50.9667 9.90014 51.1932C9.32131 51.3694 9.09481 51.4449 9.09481 51.621C9.09481 51.9482 9.74914 52.3508 11.1081 52.3508C12.593 52.3508 15.1096 51.8979 15.1096 48.1732ZM12.4168 42.1332C8.41656 42.1332 5.70358 40.1193 5.2396 37.1287H8.41661C8.82407 38.581 9.81529 39.6071 11.1081 40.0444C11.3095 40.1199 11.6115 40.1954 11.7876 40.1954C11.989 40.1954 12.0896 40.0696 12.0896 39.9186C12.0896 39.752 11.9096 39.6754 11.741 39.6037L11.7121 39.5914C10.7255 39.1686 10.002 38.1976 9.91005 37.1287H13.419L14.1784 41.6551C14.2279 41.9271 14.2045 41.9318 13.8453 42.0036L13.8261 42.0074C13.4235 42.0829 12.9201 42.1332 12.4168 42.1332ZM8.25064 36.2661H5.16924C5.16897 36.2421 5.16884 36.2181 5.16884 36.1939C5.16884 34.8069 5.38844 32.9807 7.11999 30.8179H11.5667C9.52133 31.6433 8.21399 33.5478 8.21399 35.59C8.21399 35.8224 8.22644 36.0479 8.25064 36.2661ZM12.2163 29.9553H7.87388C9.19457 28.5322 10.2504 27.6786 11.3238 26.8108L11.3598 26.7817C11.6115 26.5803 11.6618 26.6055 11.7121 26.8823L12.2163 29.9553ZM12.4168 33.9541C11.1165 34.3165 10.2134 35.1484 9.96751 36.2661H13.2743L12.9201 34.1555C12.8698 33.8786 12.8195 33.8535 12.4168 33.9541ZM15.2103 41.2776L14.497 37.1287H17.9166C17.9573 37.3634 17.9786 37.606 17.9786 37.8549C17.9786 39.4404 17.0223 40.7239 15.6129 41.4286C15.3109 41.5796 15.2606 41.5796 15.2103 41.2776ZM14.3487 36.2661H17.6677C17.0895 34.8627 15.7691 33.8837 14.2539 33.7528C13.9519 33.7276 13.9268 33.8031 13.9771 34.1051L14.3487 36.2661ZM98.6401 37.1287H20.0064C19.75 39.619 18.1405 41.4888 15.8143 42.4101C15.7792 42.4251 15.7474 42.4384 15.7186 42.4504C15.5934 42.5027 15.5246 42.5314 15.4919 42.5772H98.6401V37.1287ZM16.4088 30.8179C18.633 31.7308 19.9844 33.8835 20.0404 36.2661H98.6401V30.8179H16.4088ZM13.2473 29.9023L13.2562 29.9553H98.6401V24.5068H14.0158C13.6208 24.9463 13.2033 25.369 12.7691 25.775L12.7408 25.8031C12.612 25.9305 12.5711 25.9709 12.6181 26.2532L13.2473 29.9023ZM98.6401 23.6443H14.7439C16.0173 22.0325 16.9712 20.2163 17.3596 18.1958H98.6401V23.6443ZM12.1148 21.8239C13.2885 20.7987 14.6026 19.5894 15.4822 18.1958H11.687C11.6541 18.5512 11.6366 18.9219 11.6366 19.3072C11.6366 20.1126 11.687 20.9682 11.7876 21.6225C11.838 21.9497 11.9386 21.9749 12.1148 21.8239ZM11.8016 17.3333H15.9553C16.2913 16.6099 16.4938 15.8418 16.4938 15.0289C16.4938 13.6448 15.8143 12.9653 14.9838 12.9653C13.7259 12.9653 12.2821 14.5874 11.8016 17.3333ZM245.057 42.5772H242.82C242.86 42.5079 242.883 42.4341 242.883 42.3695V40.5827C242.883 40.4569 242.808 40.3814 242.707 40.3814C242.657 40.3814 242.632 40.3814 242.581 40.4066L241.927 40.6582C241.776 40.6582 241.6 40.5072 241.6 40.2052V37.8647C241.6 37.6886 241.725 37.2104 241.927 37.1349L241.943 37.1287H246.982C245.459 38.0057 244.456 39.4952 244.456 41.0358C244.456 41.6653 244.681 42.1872 245.057 42.5772ZM249.926 42.5772H293.077V37.1287H252.136C252.517 37.5247 252.736 38.0513 252.736 38.6701C252.736 40.1983 251.481 41.6956 249.926 42.5772ZM236.617 37.1852C236.617 37.167 236.619 37.148 236.622 37.1287H195.916V42.5772H237.202C237.353 42.5142 237.523 42.445 237.598 42.4199C237.749 42.3444 237.875 42.1179 237.875 41.841V39.3496C237.875 39.1482 237.724 38.8966 237.548 38.8966C237.535 38.8966 237.523 38.9029 237.51 38.9092C237.498 38.9154 237.485 38.9217 237.472 38.9217C237.397 38.9721 236.919 39.1986 236.818 39.1986C236.692 39.1986 236.617 39.1231 236.617 38.9721V37.1852ZM242.883 34.6686V36.2661H293.077V30.8179H195.916V36.2661H237.782C237.838 36.1502 237.875 36.0006 237.875 35.8263V32.4288C237.875 32.2778 238.026 32.1519 238.278 32.1519C238.454 32.1519 238.63 32.2778 238.63 32.4288V35.4488C238.63 35.6501 238.706 35.9521 238.932 35.9521C239.36 35.8514 240.216 35.4991 240.518 35.3229C240.744 35.1719 240.82 34.8448 240.845 34.5931V31.3214C240.845 31.1705 240.996 31.0446 241.247 31.0446C241.449 31.0446 241.6 31.1705 241.6 31.3214V34.3918C241.6 34.5931 241.776 34.7189 241.952 34.7189C242.078 34.6938 242.581 34.4924 242.581 34.4924C242.632 34.4673 242.657 34.4673 242.707 34.4673C242.808 34.4673 242.883 34.5428 242.883 34.6686ZM155.132 42.5772H195.571V37.1287H140.835C140.805 38.2982 140.778 39.2775 140.768 39.4851C140.768 39.6613 140.869 39.8374 141.045 39.9129C141.095 39.9381 141.121 39.9381 141.171 39.9381C141.297 39.9381 141.574 39.7116 141.725 39.5858C142.077 39.3593 142.681 39.1579 143.109 39.1579C144.266 39.2334 145.374 40.1394 145.374 41.5739C145.374 41.8836 145.318 42.2202 145.193 42.5772H147.316C148.111 40.8463 150.119 39.4849 152.487 39.4849C154.097 39.4849 155.23 40.4161 155.23 41.8254C155.23 42.0777 155.196 42.3292 155.132 42.5772ZM140.869 45.0469C140.869 45.0469 140.829 44.2575 140.808 43.4397H143.216C142.782 44.2313 142.075 44.9234 141.397 45.3489C141.297 45.3992 141.221 45.4244 141.146 45.4244C140.919 45.4244 140.869 45.1727 140.869 45.0469ZM140.793 42.5772H143.559C143.61 42.3702 143.637 42.1608 143.637 41.9514C143.637 41.3223 143.335 40.4918 142.605 40.4918C142.027 40.4918 141.02 41.2216 140.844 41.7249C140.819 41.8256 140.793 42.1276 140.793 42.5303L140.793 42.5772ZM139.805 42.5772C139.772 40.8293 139.747 38.8536 139.727 37.1287H98.9851V42.5772H139.805ZM140.944 32.3882C140.944 32.6576 140.901 34.5142 140.857 36.2661H195.571V30.8179H98.9851V36.2661H139.718C139.697 34.1954 139.686 32.665 139.686 32.665C139.711 32.212 140.114 31.9603 140.466 31.9603C140.718 31.9603 140.944 32.1113 140.944 32.3882ZM491.339 18.1958H487.261V23.6443H491.339V18.1958ZM491.339 24.5068H487.261V29.9553H491.339V24.5068ZM491.339 30.8179H487.261V36.2661H491.339V30.8179ZM491.339 37.1287H487.261V42.5772H491.339V37.1287ZM486.915 37.1287V42.5772H390.341V37.1287H486.915ZM486.915 30.8179V36.2661H390.341V30.8179H431.17C431.214 32.9565 431.27 34.5814 431.336 34.6646C431.412 34.7653 431.487 34.7904 431.563 34.7904C431.638 34.7904 431.714 34.7401 431.714 34.7401C432.154 34.4908 432.542 34.1561 432.915 33.8354C433.181 33.6058 433.439 33.3835 433.702 33.2049C434.879 32.3853 435.652 31.5726 436.122 30.8179H438.378C438.326 31.0653 438.299 31.3166 438.299 31.5692C438.299 33.0289 439.507 33.9097 441.017 33.9097C442.934 33.9097 445.194 32.539 446.134 30.8179H486.915ZM446.481 29.9553H486.915V24.5068H432.183C432.153 25.6762 432.126 26.6554 432.116 26.863C432.116 27.0391 432.217 27.2153 432.393 27.2908C432.444 27.316 432.469 27.316 432.519 27.316C432.645 27.316 432.922 27.0895 433.073 26.9636C433.425 26.7371 434.029 26.5358 434.457 26.5358C435.615 26.6113 436.722 27.5173 436.722 28.9518C436.722 29.2615 436.666 29.5983 436.541 29.9553H438.665C439.46 28.2245 441.469 26.8631 443.836 26.8631C445.447 26.8631 446.579 27.7943 446.579 29.2036C446.579 29.4559 446.545 29.7073 446.481 29.9553ZM432.217 32.4248C432.217 32.4248 432.178 31.6355 432.156 30.8179H434.565C434.13 31.6094 433.423 32.3013 432.746 32.7268C432.645 32.7771 432.569 32.8023 432.494 32.8023C432.267 32.8023 432.217 32.5506 432.217 32.4248ZM432.142 29.9553H434.907C434.958 29.7483 434.985 29.5388 434.985 29.3293C434.985 28.7001 434.683 27.8696 433.954 27.8696C433.375 27.8696 432.368 28.5995 432.192 29.1028C432.167 29.2035 432.142 29.5055 432.142 29.9081L432.142 29.9553ZM431.153 29.9553C431.121 28.2075 431.095 26.2318 431.076 24.5068H390.341V29.9553H431.153ZM432.293 19.766C432.293 20.0355 432.249 21.8923 432.205 23.6443H486.915V18.1958H390.341V23.6443H431.066C431.045 21.5734 431.034 20.0429 431.034 20.0429C431.059 19.5899 431.462 19.3382 431.814 19.3382C432.066 19.3382 432.293 19.4892 432.293 19.766ZM389.996 18.1958H293.422V23.6443H334.116L334.113 23.1984C334.138 22.7454 334.54 22.4938 334.893 22.4938C335.145 22.4938 335.371 22.6448 335.371 22.9216C335.371 23.0104 335.366 23.2715 335.358 23.6443H389.996V18.1958ZM293.422 24.5068H334.123C334.134 25.7837 334.154 27.8383 334.182 29.9553H293.422V24.5068ZM335.197 29.9553C335.219 29.3664 335.295 26.4044 335.339 24.5068H389.996V29.9553H338.496C338.197 29.8035 337.868 29.7131 337.535 29.6914C337.215 29.6914 336.797 29.8039 336.459 29.9553H335.197ZM343.902 30.8179H339.445C339.667 31.1757 339.8 31.6097 339.8 32.1074C339.8 33.2417 339.051 34.7384 336.914 36.2661H341.978C341.601 35.8761 341.377 35.3543 341.377 34.7248C341.377 33.1843 342.379 31.695 343.902 30.8179ZM349.057 30.8179H389.996V36.2661H346.846C348.402 35.3845 349.656 33.8872 349.656 32.3591C349.656 31.7404 349.438 31.2139 349.057 30.8179ZM334.308 36.2661C334.262 34.9269 334.224 32.8888 334.194 30.8179H293.422V36.2661H334.308ZM293.422 37.1287H334.344C334.366 37.5403 334.39 37.7889 334.415 37.8202C334.49 37.9208 334.566 37.946 334.641 37.946C334.717 37.946 334.792 37.8957 334.792 37.8957C335.169 37.6819 335.509 37.4053 335.833 37.1287H389.996V42.5772H293.422V37.1287ZM293.077 24.5068V29.9553H195.916V24.5068H293.077ZM293.077 18.1958V23.6443H195.916V18.1958H293.077ZM195.571 29.9553V24.5068H98.9851V29.9553H195.571ZM195.571 23.6443V18.1958H98.9851V23.6443H195.571ZM50.0974 49.7505H47.6517V48.888H50.3842C51.1799 47.1573 53.188 45.796 55.5552 45.796C57.1658 45.796 58.2983 46.7271 58.2983 48.1364C58.2983 48.3887 58.2642 48.6401 58.2001 48.888H61.4469V49.7505H57.8535C56.9134 51.4718 54.6536 52.8426 52.7365 52.8426C51.2265 52.8426 50.0186 51.9618 50.0186 50.5021C50.0186 50.2494 50.0455 49.998 50.0974 49.7505ZM238.555 40.6079C238.555 39.8277 238.58 38.9469 238.63 38.7456C238.68 38.3177 239.838 37.7892 240.467 37.7892C240.643 37.7892 240.794 37.8396 240.845 37.9402C240.895 38.0661 240.945 38.6952 240.945 39.3747C240.945 40.0542 240.895 40.7589 240.845 40.9854C240.694 41.4887 239.511 41.9921 238.932 41.9921C238.781 41.9921 238.655 41.9417 238.63 41.8662C238.58 41.7655 238.555 41.2119 238.555 40.6079ZM335.27 32.2584C335.447 31.755 336.453 31.0252 337.032 31.0252C337.762 31.0252 338.064 31.8557 338.064 32.4849C338.064 33.8439 336.906 35.2029 335.824 35.8824C335.723 35.9327 335.648 35.9579 335.572 35.9579C335.346 35.9579 335.296 35.7062 335.296 35.5804C335.296 35.5804 335.22 34.0704 335.22 33.0637C335.22 32.661 335.245 32.359 335.27 32.2584Z" fill="black"/>
</svg>
