<svg width="493" height="161" viewBox="0 0 493 161" fill="none" xmlns="http://www.w3.org/2000/svg">
<path fill-rule="evenodd" clip-rule="evenodd" d="M57.4763 5.53516H57.2034C57.1526 6.03451 56.9854 6.5529 56.7019 7.09033C56.4226 7.62354 56.0417 8.00228 55.5593 8.22656C55.0769 8.45085 54.6051 8.56299 54.1438 8.56299C53.2805 8.56299 52.559 8.22021 51.9792 7.53467C51.3995 6.84489 51.1096 5.85465 51.1096 4.56396C51.1096 3.20133 51.3741 2.15397 51.9031 1.42188C52.4363 0.689779 53.1536 0.32373 54.0549 0.32373C54.7913 0.32373 55.4514 0.55013 56.0354 1.00293C56.6236 1.45573 57.0129 2.26188 57.2034 3.42139H57.4763L57.4001 0.158691H57.1208C57.0828 0.543783 56.9727 0.916178 56.7908 1.27588C56.5326 0.954264 56.1412 0.662272 55.6165 0.399902C55.0959 0.133301 54.5141 0 53.8708 0C53.0922 0 52.377 0.181966 51.7253 0.545898C51.0737 0.909831 50.5658 1.46842 50.2019 2.22168C49.838 2.9707 49.656 3.77051 49.656 4.62109C49.656 5.91602 50.0496 6.95703 50.8367 7.74414C51.628 8.53125 52.6458 8.9248 53.8899 8.9248C55.0663 8.9248 56.0333 8.4974 56.7908 7.64258C56.9897 7.90495 57.1272 8.20752 57.2034 8.55029H57.4763V5.53516ZM59.6282 1.43457C59.1288 2.22591 58.8792 3.28385 58.8792 4.6084C58.8792 5.92448 59.1288 6.98242 59.6282 7.78223C60.1318 8.5778 60.7898 8.97559 61.6023 8.97559C62.419 8.97559 63.0771 8.57568 63.5764 7.77588C64.0758 6.97184 64.3254 5.91602 64.3254 4.6084C64.3254 3.29232 64.0736 2.23649 63.5701 1.44092C63.0707 0.641113 62.4148 0.241211 61.6023 0.241211C60.7898 0.241211 60.1318 0.638997 59.6282 1.43457ZM60.3708 7.95996C60.0789 7.48177 59.9329 6.36458 59.9329 4.6084C59.9329 2.84375 60.081 1.72656 60.3772 1.25684C60.6734 0.782878 61.0818 0.545898 61.6023 0.545898C62.1228 0.545898 62.5291 0.782878 62.821 1.25684C63.1173 1.73079 63.2654 2.84798 63.2654 4.6084C63.2654 6.17839 63.1427 7.24902 62.8972 7.82031C62.6518 8.38737 62.2201 8.6709 61.6023 8.6709C61.0776 8.6709 60.6671 8.43392 60.3708 7.95996ZM209.71 0.158691L208.294 0.228516V0.520508H208.548C208.984 0.520508 209.265 0.558594 209.392 0.634766C209.524 0.706706 209.608 0.844238 209.646 1.04736C209.689 1.24626 209.71 1.68848 209.71 2.37402V6.52539C209.71 7.24479 209.689 7.70394 209.646 7.90283C209.608 8.09749 209.517 8.24137 209.373 8.33447C209.234 8.42757 208.98 8.47412 208.612 8.47412H208.256V8.76611H212.071C212.786 8.76611 213.341 8.74495 213.734 8.70264C214.128 8.65609 214.542 8.54395 214.978 8.36621C215.418 8.18425 215.803 7.92188 216.134 7.5791C216.468 7.2321 216.73 6.79834 216.921 6.27783C217.111 5.75309 217.206 5.17546 217.206 4.54492C217.206 3.67318 217.031 2.90511 216.679 2.24072C216.332 1.5721 215.801 1.04313 215.086 0.653809C214.371 0.264486 213.374 0.0698242 212.096 0.0698242C211.686 0.0698242 210.89 0.0994466 209.71 0.158691ZM210.948 6.15723V0.40625C211.278 0.385091 211.603 0.374512 211.925 0.374512C212.594 0.374512 213.142 0.440104 213.569 0.571289C213.997 0.698242 214.386 0.941569 214.737 1.30127C215.088 1.65674 215.357 2.12012 215.543 2.69141C215.734 3.2627 215.829 3.91227 215.829 4.64014C215.829 5.57536 215.666 6.34554 215.34 6.95068C215.018 7.5516 214.616 7.95573 214.134 8.16309C213.652 8.36621 213.036 8.46777 212.287 8.46777C211.775 8.46777 211.438 8.41911 211.278 8.32178C211.121 8.22021 211.026 8.04671 210.992 7.80127C210.962 7.55583 210.948 7.00781 210.948 6.15723ZM219.174 1.43457C218.675 2.22591 218.425 3.28385 218.425 4.6084C218.425 5.92448 218.675 6.98242 219.174 7.78223C219.678 8.5778 220.336 8.97559 221.148 8.97559C221.965 8.97559 222.623 8.57568 223.122 7.77588C223.622 6.97184 223.871 5.91602 223.871 4.6084C223.871 3.29232 223.62 2.23649 223.116 1.44092C222.617 0.641113 221.961 0.241211 221.148 0.241211C220.336 0.241211 219.678 0.638997 219.174 1.43457ZM219.917 7.95996C219.625 7.48177 219.479 6.36458 219.479 4.6084C219.479 2.84375 219.627 1.72656 219.923 1.25684C220.219 0.782878 220.628 0.545898 221.148 0.545898C221.669 0.545898 222.075 0.782878 222.367 1.25684C222.663 1.73079 222.811 2.84798 222.811 4.6084C222.811 6.17839 222.689 7.24902 222.443 7.82031C222.198 8.38737 221.766 8.6709 221.148 8.6709C220.623 8.6709 220.213 8.43392 219.917 7.95996ZM373.41 6.0874H373.715L373.531 8.76611H366.402V8.47412H366.58C367.007 8.47412 367.282 8.41699 367.405 8.30273C367.532 8.18848 367.612 8.0446 367.646 7.87109C367.68 7.69336 367.697 7.24479 367.697 6.52539V2.3042C367.697 1.64827 367.678 1.21663 367.64 1.00928C367.606 0.801921 367.524 0.65804 367.392 0.577637C367.265 0.493001 366.995 0.450684 366.58 0.450684V0.158691H372.731L372.934 2.3042H372.635C372.5 1.70329 372.333 1.27799 372.134 1.02832C371.939 0.774414 371.707 0.615723 371.436 0.552246C371.165 0.484538 370.729 0.450684 370.128 0.450684H368.935V4.0625H369.849C370.268 4.0625 370.56 4.02653 370.725 3.95459C370.894 3.88265 371.004 3.77474 371.055 3.63086C371.11 3.48275 371.137 3.1971 371.137 2.77393H371.436V5.71924H371.137C371.137 5.24105 371.097 4.92155 371.017 4.76074C370.936 4.5957 370.818 4.48991 370.661 4.44336C370.509 4.39258 370.249 4.36719 369.881 4.36719H368.935V6.40479C368.935 7.42464 369 8.02555 369.132 8.20752C369.263 8.38525 369.616 8.47412 370.192 8.47412H370.833C371.286 8.47412 371.658 8.41699 371.95 8.30273C372.242 8.18425 372.519 7.94515 372.781 7.58545C373.048 7.22152 373.258 6.72217 373.41 6.0874ZM374.66 4.6084C374.66 3.28385 374.91 2.22591 375.409 1.43457C375.913 0.638997 376.571 0.241211 377.384 0.241211C378.196 0.241211 378.852 0.641113 379.351 1.44092C379.855 2.23649 380.107 3.29232 380.107 4.6084C380.107 5.91602 379.857 6.97184 379.358 7.77588C378.858 8.57568 378.2 8.97559 377.384 8.97559C376.571 8.97559 375.913 8.5778 375.409 7.78223C374.91 6.98242 374.66 5.92448 374.66 4.6084ZM375.714 4.6084C375.714 6.36458 375.86 7.48177 376.152 7.95996C376.448 8.43392 376.859 8.6709 377.384 8.6709C378.001 8.6709 378.433 8.38737 378.678 7.82031C378.924 7.24902 379.047 6.17839 379.047 4.6084C379.047 2.84798 378.899 1.73079 378.602 1.25684C378.31 0.782878 377.904 0.545898 377.384 0.545898C376.863 0.545898 376.455 0.782878 376.158 1.25684C375.862 1.72656 375.714 2.84375 375.714 4.6084ZM453.112 2.3042L453.042 0.158691H446.402V0.450684H446.554C446.99 0.450684 447.272 0.48877 447.399 0.564941C447.53 0.641113 447.615 0.778646 447.653 0.977539C447.695 1.17643 447.716 1.61865 447.716 2.3042V6.52539C447.716 7.24479 447.695 7.70394 447.653 7.90283C447.615 8.09749 447.524 8.24137 447.38 8.33447C447.24 8.42757 446.986 8.47412 446.618 8.47412H446.351V8.76611H450.35V8.47412H450.058C449.665 8.47412 449.398 8.42334 449.259 8.32178C449.123 8.22021 449.038 8.06575 449.005 7.8584C448.971 7.64681 448.954 7.20247 448.954 6.52539V4.38623H449.76C450.183 4.38623 450.467 4.42643 450.611 4.50684C450.759 4.58301 450.869 4.729 450.941 4.94482C451.017 5.15641 451.055 5.44629 451.055 5.81445H451.372V2.78027H451.055C451.055 3.30924 450.968 3.6626 450.795 3.84033C450.625 4.01383 450.281 4.10059 449.76 4.10059H448.954V0.450684H450.636C451.169 0.450684 451.548 0.48877 451.772 0.564941C451.996 0.641113 452.21 0.833659 452.413 1.14258C452.621 1.44727 452.754 1.83447 452.813 2.3042H453.112ZM454.47 1.43457C453.971 2.22591 453.721 3.28385 453.721 4.6084C453.721 5.92448 453.971 6.98242 454.47 7.78223C454.974 8.5778 455.632 8.97559 456.444 8.97559C457.261 8.97559 457.919 8.57568 458.418 7.77588C458.918 6.97184 459.167 5.91602 459.167 4.6084C459.167 3.29232 458.915 2.23649 458.412 1.44092C457.913 0.641113 457.257 0.241211 456.444 0.241211C455.632 0.241211 454.974 0.638997 454.47 1.43457ZM455.213 7.95996C454.921 7.48177 454.775 6.36458 454.775 4.6084C454.775 2.84375 454.923 1.72656 455.219 1.25684C455.515 0.782878 455.924 0.545898 456.444 0.545898C456.965 0.545898 457.371 0.782878 457.663 1.25684C457.959 1.73079 458.107 2.84798 458.107 4.6084C458.107 6.17839 457.984 7.24902 457.739 7.82031C457.494 8.38737 457.062 8.6709 456.444 8.6709C455.919 8.6709 455.509 8.43392 455.213 7.95996ZM131.203 5.53516H131.476V8.55029H131.203C131.127 8.20752 130.99 7.90495 130.791 7.64258C130.033 8.4974 129.066 8.9248 127.89 8.9248C126.646 8.9248 125.628 8.53125 124.837 7.74414C124.05 6.95703 123.656 5.91602 123.656 4.62109C123.656 3.77051 123.838 2.9707 124.202 2.22168C124.566 1.46842 125.074 0.909831 125.725 0.545898C126.377 0.181966 127.092 0 127.871 0C128.514 0 129.096 0.133301 129.616 0.399902C130.141 0.662272 130.533 0.954264 130.791 1.27588C130.973 0.916178 131.083 0.543783 131.121 0.158691H131.4L131.476 3.42139H131.203C131.013 2.26188 130.624 1.45573 130.035 1.00293C129.451 0.55013 128.791 0.32373 128.055 0.32373C127.154 0.32373 126.436 0.689779 125.903 1.42188C125.374 2.15397 125.11 3.20133 125.11 4.56396C125.11 5.85465 125.399 6.84489 125.979 7.53467C126.559 8.22021 127.281 8.56299 128.144 8.56299C128.605 8.56299 129.077 8.45085 129.559 8.22656C130.042 8.00228 130.423 7.62354 130.702 7.09033C130.985 6.5529 131.153 6.03451 131.203 5.53516ZM132.917 2.67236H135.018L135.571 0.0634766H136.224L135.672 2.67236H138.459L139.005 0.0634766H139.665L139.113 2.67236H140.42V3.33252H138.986L138.471 5.80811H140.42V6.46826H138.338L137.799 9.06445H137.132L137.684 6.46826H134.872L134.345 9.06445H133.679L134.225 6.46826H132.917V5.80811H134.365L134.879 3.33252H132.917V2.67236ZM135.012 5.79541H137.818L138.332 3.33252H135.532L135.012 5.79541ZM141.55 4.6084C141.55 3.28385 141.8 2.22591 142.299 1.43457C142.803 0.638997 143.461 0.241211 144.273 0.241211C145.086 0.241211 145.742 0.641113 146.241 1.44092C146.745 2.23649 146.996 3.29232 146.996 4.6084C146.996 5.91602 146.747 6.97184 146.247 7.77588C145.748 8.57568 145.09 8.97559 144.273 8.97559C143.461 8.97559 142.803 8.5778 142.299 7.78223C141.8 6.98242 141.55 5.92448 141.55 4.6084ZM142.604 4.6084C142.604 6.36458 142.75 7.48177 143.042 7.95996C143.338 8.43392 143.748 8.6709 144.273 8.6709C144.891 8.6709 145.323 8.38737 145.568 7.82031C145.814 7.24902 145.936 6.17839 145.936 4.6084C145.936 2.84798 145.788 1.73079 145.492 1.25684C145.2 0.782878 144.794 0.545898 144.273 0.545898C143.753 0.545898 143.344 0.782878 143.048 1.25684C142.752 1.72656 142.604 2.84375 142.604 4.6084ZM289.715 6.0874H289.41C289.258 6.72217 289.048 7.22152 288.781 7.58545C288.519 7.94515 288.242 8.18425 287.95 8.30273C287.658 8.41699 287.286 8.47412 286.833 8.47412H286.192C285.616 8.47412 285.263 8.38525 285.132 8.20752C285 8.02555 284.935 7.42464 284.935 6.40479V4.36719H285.881C286.249 4.36719 286.509 4.39258 286.661 4.44336C286.818 4.48991 286.936 4.5957 287.017 4.76074C287.097 4.92155 287.137 5.24105 287.137 5.71924H287.436V2.77393H287.137C287.137 3.1971 287.11 3.48275 287.055 3.63086C287.004 3.77474 286.894 3.88265 286.725 3.95459C286.56 4.02653 286.268 4.0625 285.849 4.0625H284.935V0.450684H286.128C286.729 0.450684 287.165 0.484538 287.436 0.552246C287.707 0.615723 287.939 0.774414 288.134 1.02832C288.333 1.27799 288.5 1.70329 288.635 2.3042H288.934L288.731 0.158691H282.58V0.450684C282.995 0.450684 283.265 0.493001 283.392 0.577637C283.523 0.65804 283.606 0.801921 283.64 1.00928C283.678 1.21663 283.697 1.64827 283.697 2.3042V6.52539C283.697 7.24479 283.68 7.69336 283.646 7.87109C283.612 8.0446 283.532 8.18848 283.405 8.30273C283.282 8.41699 283.007 8.47412 282.58 8.47412H282.402V8.76611H289.531L289.715 6.0874ZM291.117 8.97559H291.365C291.534 8.61165 291.756 8.29216 292.031 8.01709C292.226 8.33447 292.467 8.57357 292.755 8.73438C293.047 8.89518 293.386 8.97559 293.771 8.97559C294.554 8.97559 295.19 8.70475 295.681 8.16309C296.172 7.62142 296.418 6.94434 296.418 6.13184C296.418 5.32357 296.179 4.65918 295.7 4.13867C295.222 3.61816 294.609 3.35791 293.86 3.35791C293.546 3.35791 293.238 3.4235 292.933 3.55469C292.628 3.68587 292.328 3.88477 292.031 4.15137V0.0380859H291.898C291.771 0.0973307 291.532 0.156576 291.181 0.21582C290.83 0.275065 290.529 0.304688 290.28 0.304688V0.59668C290.559 0.59668 290.753 0.63265 290.864 0.70459C290.978 0.77653 291.048 0.886556 291.073 1.03467C291.103 1.18278 291.117 1.51074 291.117 2.01855V8.97559ZM292.031 6.56348V4.52588C292.302 4.24658 292.575 4.03923 292.85 3.90381C293.13 3.76416 293.413 3.69434 293.701 3.69434C294.205 3.69434 294.607 3.89746 294.907 4.30371C295.212 4.70573 295.364 5.29395 295.364 6.06836C295.364 6.91048 295.201 7.55583 294.875 8.00439C294.554 8.45296 294.12 8.67725 293.574 8.67725C293.219 8.67725 292.907 8.57145 292.641 8.35986C292.374 8.14827 292.205 7.92822 292.133 7.69971C292.065 7.46696 292.031 7.08822 292.031 6.56348ZM298.189 1.43457C297.689 2.22591 297.44 3.28385 297.44 4.6084C297.44 5.92448 297.689 6.98242 298.189 7.78223C298.692 8.5778 299.35 8.97559 300.163 8.97559C300.98 8.97559 301.638 8.57568 302.137 7.77588C302.636 6.97184 302.886 5.91602 302.886 4.6084C302.886 3.29232 302.634 2.23649 302.131 1.44092C301.631 0.641113 300.975 0.241211 300.163 0.241211C299.35 0.241211 298.692 0.638997 298.189 1.43457ZM298.931 7.95996C298.639 7.48177 298.493 6.36458 298.493 4.6084C298.493 2.84375 298.642 1.72656 298.938 1.25684C299.234 0.782878 299.642 0.545898 300.163 0.545898C300.683 0.545898 301.09 0.782878 301.382 1.25684C301.678 1.73079 301.826 2.84798 301.826 4.6084C301.826 6.17839 301.703 7.24902 301.458 7.82031C301.212 8.38737 300.781 8.6709 300.163 8.6709C299.638 8.6709 299.228 8.43392 298.931 7.95996ZM15.1096 48.1732C15.1096 47.065 14.7783 45.0733 14.4881 43.4397H0V42.5771H9.01137C6.08014 41.6837 4.26606 39.5893 3.53166 37.1286H0V36.2661H3.32101C3.21053 35.6907 3.15552 35.1013 3.15552 34.5078C3.15552 33.182 3.4174 31.9572 3.86885 30.8178H0V29.9553H4.25359C5.28153 27.8839 6.91951 26.1029 8.68012 24.5067H0V23.6442H9.66094C9.98383 23.3678 10.3078 23.0968 10.63 22.8305C10.9181 22.5905 10.9084 22.5336 10.8632 22.2667L10.8565 22.2265C10.6842 21.2174 10.5119 19.6305 10.5044 18.1957H0.00012207V17.3332H10.5214C10.6315 14.8886 11.2867 12.1382 12.9705 10.2724C13.4738 9.71878 14.2539 9.06445 14.6063 9.06445C14.8831 9.06445 15.5374 9.76912 15.9149 10.3228C16.9468 11.8328 17.5508 13.9971 17.5508 16.1866C17.5508 16.5755 17.5297 16.9577 17.4891 17.3332H95.3845V16.1867H95.7295V17.3332H177.029V16.1867H177.374V17.3332H254.779V16.1867H255.124V17.3332H335.839V16.1867H336.184V17.3332H413.584V16.1867H413.929V17.3332H491.339V16.1867H491.684V17.3332H492.141V18.1957H491.684V23.6442H492.141V24.5067H491.684V29.9553H492.141V30.8178H491.684V36.2661H492.141V37.1286H491.684V42.5771H492.141V43.4397H491.684V44.5861H491.339V43.4397H413.929V44.5861H413.584V43.4397H379.197C378.257 45.1609 375.997 46.5317 374.08 46.5317C372.57 46.5317 371.362 45.6509 371.362 44.1912C371.362 43.9385 371.389 43.6872 371.441 43.4397H336.184V44.5861H335.839V43.4397H301.447C300.507 45.1609 298.248 46.5317 296.331 46.5317C294.821 46.5317 293.613 45.6509 293.613 44.1912C293.613 43.9385 293.64 43.6872 293.691 43.4397H291.436C290.967 44.1944 290.193 45.0073 289.016 45.827C288.754 46.0055 288.495 46.2279 288.229 46.4575C287.857 46.7781 287.468 47.1129 287.028 47.3622C287.028 47.3622 286.953 47.4125 286.877 47.4125C286.802 47.4125 286.726 47.3873 286.651 47.2867C286.584 47.2035 286.528 45.5784 286.484 43.4397H255.124V44.5861H254.779V43.4397H220.233C220.614 43.8357 220.832 44.3623 220.832 44.9811C220.832 47.3719 217.762 49.6872 215.27 49.6872C213.76 49.6872 212.552 48.8064 212.552 47.3468C212.552 45.8062 213.555 44.3167 215.078 43.4397H177.374V44.5861H177.029V43.4397H131.947V43.858C131.947 44.0594 132.123 44.1852 132.299 44.1852C132.425 44.16 132.928 43.9587 132.928 43.9587C132.979 43.9335 133.004 43.9335 133.054 43.9335C133.155 43.9335 133.23 44.009 133.23 44.1349V45.9217C133.23 46.0727 133.105 46.274 132.928 46.3495L132.274 46.6012C132.073 46.6767 131.947 47.1549 131.947 47.331V49.6715C131.947 49.9735 132.123 50.1245 132.274 50.1245L132.928 49.8728C132.979 49.8477 133.004 49.8477 133.054 49.8477C133.155 49.8477 133.23 49.9232 133.23 50.049V51.8358C133.23 51.9868 133.105 52.1882 132.928 52.2637C132.928 52.2637 132.4 52.465 132.224 52.5405C132.048 52.616 131.947 52.918 131.947 53.1193V56.693C131.947 56.844 131.796 56.9698 131.519 56.9698C131.343 56.9698 131.192 56.844 131.192 56.693V53.5471C131.192 53.3961 131.066 53.0941 130.865 53.0941C130.852 53.0941 130.833 53.1004 130.814 53.1067C130.796 53.113 130.777 53.1193 130.764 53.1193L129.229 53.7485C129.103 53.7988 128.977 53.975 128.977 54.3021V57.8003C128.977 57.9513 128.801 58.0771 128.549 58.0771C128.373 58.0771 128.222 57.9513 128.222 57.8003V54.7048C128.222 54.579 128.096 54.3021 127.92 54.3021C127.895 54.3021 127.87 54.3021 127.845 54.3273C127.618 54.4028 127.266 54.5538 127.266 54.5538C127.253 54.5538 127.235 54.5601 127.216 54.5664C127.197 54.5727 127.178 54.579 127.165 54.579C127.039 54.579 126.964 54.5035 126.964 54.3525V52.5657C126.964 52.4147 127.09 52.2133 127.266 52.163C127.266 52.163 127.794 51.9365 127.945 51.8862C128.096 51.8107 128.222 51.5842 128.222 51.3073V48.8158C128.222 48.6145 128.071 48.3628 127.895 48.3628C127.883 48.3628 127.87 48.3691 127.857 48.3754C127.851 48.3787 127.844 48.3819 127.838 48.3843C127.835 48.3854 127.832 48.3863 127.829 48.387C127.826 48.3876 127.823 48.388 127.82 48.388C127.744 48.4383 127.266 48.6648 127.165 48.6648C127.039 48.6648 126.964 48.5893 126.964 48.4383V46.6515C126.964 46.5005 127.09 46.2992 127.266 46.2489C127.266 46.2489 127.769 46.0475 127.92 45.972C128.071 45.8965 128.222 45.6449 128.222 45.2925V43.4397H95.7295V44.5861H95.3845V43.4397H15.5946C15.8672 44.9646 16.2169 46.9632 16.2169 48.2235C16.2169 52.5018 12.9453 53.2568 11.2591 53.2568C7.45899 53.2568 6.4775 50.7905 6.4775 49.1547C6.4775 47.5944 7.48416 46.2606 9.17031 46.2606C10.7055 46.2606 11.5863 47.4434 11.5863 48.8275C11.5863 50.2872 10.6803 50.9667 9.90014 51.1932C9.32131 51.3694 9.09481 51.4449 9.09481 51.621C9.09481 51.9482 9.74914 52.3508 11.1081 52.3508C12.593 52.3508 15.1096 51.8979 15.1096 48.1732ZM12.4168 42.1332C8.41654 42.1332 5.70356 40.1193 5.2396 37.1286H8.4166C8.82406 38.5809 9.81528 39.6071 11.1081 40.0444C11.3095 40.1199 11.6115 40.1954 11.7876 40.1954C11.989 40.1954 12.0896 40.0696 12.0896 39.9186C12.0896 39.752 11.9096 39.6754 11.741 39.6037L11.7121 39.5914C10.7255 39.1686 10.002 38.1976 9.91004 37.1286H13.419L14.1784 41.6551C14.2279 41.9271 14.2045 41.9318 13.8453 42.0036L13.8261 42.0074C13.4235 42.0829 12.9201 42.1332 12.4168 42.1332ZM8.25064 36.2661H5.16924C5.16897 36.2421 5.16884 36.218 5.16884 36.1939C5.16884 34.8069 5.38844 32.9807 7.12004 30.8178H11.5669C9.52139 31.6432 8.21399 33.5478 8.21399 35.59C8.21399 35.8224 8.22644 36.0479 8.25064 36.2661ZM12.2163 29.9553H7.87394C9.1946 28.5322 10.2504 27.6786 11.3238 26.8108L11.3598 26.7817C11.6115 26.5803 11.6618 26.6055 11.7121 26.8823L12.2163 29.9553ZM12.4168 33.9541C11.1165 34.3165 10.2134 35.1483 9.96752 36.2661H13.2743L12.9201 34.1555C12.8698 33.8786 12.8195 33.8535 12.4168 33.9541ZM15.2103 41.2776L14.4969 37.1286H17.9166C17.9573 37.3634 17.9786 37.606 17.9786 37.8549C17.9786 39.4404 17.0223 40.7239 15.6129 41.4286C15.3109 41.5796 15.2606 41.5796 15.2103 41.2776ZM14.3486 36.2661H17.6677C17.0895 34.8627 15.769 33.8837 14.2539 33.7528C13.9519 33.7276 13.9268 33.8031 13.9771 34.1051L14.3486 36.2661ZM95.3845 37.1286H20.0064C19.75 39.619 18.1405 41.4888 15.8143 42.4101C15.7792 42.4251 15.7474 42.4384 15.7186 42.4504C15.5934 42.5026 15.5246 42.5314 15.492 42.5771H95.3845V37.1286ZM16.4086 30.8178C18.633 31.7307 19.9844 33.8834 20.0404 36.2661H95.3845V30.8178H16.4086ZM13.2473 29.9023L13.2562 29.9553H95.3845V24.5067H14.0159C13.6208 24.9462 13.2033 25.369 12.7691 25.775L12.7408 25.8031C12.612 25.9305 12.5711 25.9709 12.6181 26.2532L13.2473 29.9023ZM95.3845 23.6442H14.7439C16.0174 22.0324 16.9712 20.2162 17.3596 18.1957H95.3845V23.6442ZM12.1148 21.8239C13.2885 20.7987 14.6026 19.5893 15.4823 18.1957H11.687C11.6541 18.5511 11.6366 18.9219 11.6366 19.3072C11.6366 20.1126 11.687 20.9682 11.7876 21.6225C11.838 21.9497 11.9386 21.9749 12.1148 21.8239ZM11.8016 17.3332H15.9553C16.2913 16.6098 16.4938 15.8418 16.4938 15.0289C16.4938 13.6448 15.8143 12.9653 14.9838 12.9653C13.7259 12.9653 12.2821 14.5874 11.8016 17.3332ZM379.641 41.8256C379.641 42.0778 379.607 42.3292 379.543 42.5771H413.584V37.1286H336.184V42.5771H371.727C372.523 40.8464 374.531 39.4851 376.898 39.4851C378.509 39.4851 379.641 40.4162 379.641 41.8256ZM301.794 42.5771H335.839V37.1286H287.497C287.467 38.2981 287.44 39.2774 287.431 39.4851C287.431 39.6612 287.531 39.8374 287.707 39.9129C287.758 39.938 287.783 39.938 287.833 39.938C287.959 39.938 288.236 39.7115 288.387 39.5857C288.739 39.3592 289.343 39.1579 289.771 39.1579C290.929 39.2334 292.036 40.1394 292.036 41.5739C292.036 41.8835 291.98 42.2202 291.856 42.5771H293.978C294.774 40.8464 296.782 39.4851 299.149 39.4851C300.76 39.4851 301.892 40.4162 301.892 41.8256C301.892 42.0778 301.858 42.3292 301.794 42.5771ZM287.531 45.0468C287.531 45.0468 287.492 44.2574 287.47 43.4397H289.879C289.445 44.2313 288.738 44.9233 288.06 45.3488C287.959 45.3992 287.884 45.4243 287.808 45.4243C287.582 45.4243 287.531 45.1727 287.531 45.0468ZM287.456 42.5771H290.222C290.272 42.3702 290.3 42.1608 290.3 41.9514C290.3 41.3222 289.998 40.4917 289.268 40.4917C288.689 40.4917 287.682 41.2215 287.506 41.7249C287.481 41.8255 287.456 42.1275 287.456 42.5302L287.456 42.5771ZM286.467 42.5771C286.435 40.8293 286.409 38.8536 286.39 37.1286H255.124V42.5771H286.467ZM287.607 32.3881C287.607 32.6576 287.564 34.5142 287.519 36.2661H335.839V30.8178H255.124V36.2661H286.381C286.359 34.1954 286.349 32.6649 286.349 32.6649C286.374 32.2119 286.776 31.9603 287.129 31.9603C287.38 31.9603 287.607 32.1113 287.607 32.3881ZM131.947 42.5771V40.7877C131.947 40.6367 131.796 40.5109 131.595 40.5109C131.343 40.5109 131.192 40.6367 131.192 40.7877V42.5771H128.977V41.8951C128.977 41.7441 128.801 41.6182 128.625 41.6182C128.373 41.6182 128.222 41.7441 128.222 41.8951V42.5771H95.7295V37.1286H177.029V42.5771H131.947ZM128.977 43.4397H131.192V44.0594C131.167 44.311 131.091 44.6382 130.865 44.7892C130.563 44.9654 129.707 45.3177 129.279 45.4184C129.053 45.4184 128.977 45.1164 128.977 44.915V43.4397ZM491.339 37.1286V42.5771H413.929V37.1286H491.339ZM491.339 30.8178V36.2661H413.929V30.8178H491.339ZM491.339 24.5067V29.9553H413.929V24.5067H491.339ZM491.339 18.1957V23.6442H413.929V18.1957H491.339ZM413.584 18.1957H336.184V23.6442H413.584V18.1957ZM413.584 24.5067H336.184V29.9553H413.584V24.5067ZM413.584 30.8178H336.184V36.2661H413.584V30.8178ZM335.839 24.5067V29.9553H255.124V24.5067H335.839ZM335.839 18.1957V23.6442H255.124V18.1957H335.839ZM254.779 18.1957H177.374V23.6442H254.779V18.1957ZM254.779 24.5067H177.374V29.9553H254.779V24.5067ZM254.779 30.8178H177.374V36.2661H254.779V30.8178ZM254.779 37.1286H177.374V42.5771H254.779V37.1286ZM177.029 30.8178V36.2661H95.7295V30.8178H177.029ZM177.029 24.5067V29.9553H95.7295V24.5067H177.029ZM177.029 18.1957V23.6442H95.7295V18.1957H177.029ZM50.0186 49.7505H53.253C53.2011 49.998 53.1741 50.2495 53.1741 50.5023C53.1741 51.9619 54.3821 52.8428 55.8921 52.8428C57.8092 52.8428 60.0692 51.4718 61.0091 49.7505H64.6026V48.8879H61.3557C61.4197 48.6401 61.4539 48.3888 61.4539 48.1366C61.4539 46.7273 60.3214 45.7961 58.7107 45.7961C56.3437 45.7961 54.3356 47.1573 53.5399 48.8879H50.0186V49.7505ZM146.232 49.7505H142.638C141.698 51.4718 139.438 52.8428 137.521 52.8428C136.011 52.8428 134.803 51.9619 134.803 50.5023C134.803 50.2495 134.83 49.998 134.882 49.7505H132.437V48.8879H135.169C135.965 47.1573 137.973 45.7961 140.34 45.7961C141.951 45.7961 143.083 46.7273 143.083 48.1366C143.083 48.3888 143.049 48.6401 142.985 48.8879H146.232V49.7505ZM456.947 62.3726H460.538V61.51H457.293C457.357 61.2621 457.391 61.0107 457.391 60.7585C457.391 59.3492 456.259 58.418 454.648 58.418C452.281 58.418 450.273 59.7793 449.477 61.51H445.961V62.3726H449.191C449.139 62.6201 449.112 62.8714 449.112 63.1241C449.112 64.5838 450.32 65.4646 451.83 65.4646C453.747 65.4646 456.007 64.0938 456.947 62.3726ZM460.538 56.0615H445.961V55.1989H460.538V56.0615ZM445.961 49.7505H460.538V48.8879H445.961V49.7505ZM128.977 48.2118C128.927 48.4132 128.902 49.294 128.902 50.0742C128.902 50.6782 128.927 51.2318 128.977 51.3325C129.002 51.408 129.128 51.4583 129.279 51.4583C129.858 51.4583 131.041 50.955 131.192 50.4517C131.242 50.2252 131.293 49.5205 131.293 48.841C131.293 48.1615 131.242 47.5324 131.192 47.4065C131.142 47.3059 130.991 47.2555 130.814 47.2555C130.185 47.2555 129.028 47.784 128.977 48.2118ZM48.7905 63.8799C49.6343 63.6099 50.495 63.5086 51.3726 63.6943C52.3683 63.9137 53.229 64.3187 53.4484 65.4326C53.6678 66.4958 53.2459 67.3734 52.3683 67.9303C51.6595 68.3691 51.4907 68.6729 52.0308 69.4661C52.9252 70.8162 52.4189 72.5376 51.035 73.4152C50.2419 73.9215 49.3474 74.124 48.7905 74.124C45.9383 74.124 44.5207 72.6557 45.1283 70.7149C45.3814 69.9048 45.9383 69.3817 46.6809 69.0441C47.2378 68.791 47.356 68.5716 47.0184 67.9303C46.124 66.2089 46.9341 64.4875 48.7905 63.8799ZM46.7484 71.6769C46.7484 72.7739 47.3053 73.3814 48.6555 73.4489C49.4655 73.4827 50.3937 72.6895 50.3769 71.7613C50.3769 71.1706 48.7736 69.4661 48.2167 69.4323C47.5922 69.3986 46.7484 70.6812 46.7484 71.6769ZM48.7905 65.8545C48.8411 66.9008 49.6512 67.694 50.5119 67.7109C51.4907 67.7278 51.727 66.6477 51.8451 65.8376C51.7945 64.8081 51.3219 64.285 50.36 64.3356C49.4318 64.3862 48.7398 64.825 48.7905 65.8545ZM56.4597 68.021C56.308 68.4175 56.1461 68.8408 56.1318 69.2972L56.1527 69.2873C56.8911 68.9348 57.7741 68.5132 58.3258 69.4829C58.9671 70.6474 58.5452 71.8119 57.8701 72.8413C57.3132 73.6852 56.52 74.2589 55.4399 74.0564C54.4273 73.8539 54.1235 73.0607 54.2923 72.1663C54.5623 70.8161 54.8661 69.466 55.288 68.1665C55.5243 67.3733 55.4568 66.9514 54.4948 66.7826C55.288 66.3776 56.4019 66.1076 56.6213 66.5295C56.8551 66.9875 56.667 67.4793 56.4597 68.021ZM56.4862 73.0776C57.0938 72.3013 57.347 71.3731 57.4651 70.4111C57.4988 70.0736 57.4988 69.7192 57.1613 69.5673C56.7563 69.3648 56.4694 69.6685 56.2331 69.9386C55.5749 70.6811 55.3724 71.6262 55.1868 72.5713C55.1192 72.9426 55.1699 73.3645 55.558 73.5164C55.9631 73.6852 56.2669 73.3645 56.4862 73.0776ZM63.3464 70.9183L63.3466 70.9177L63.3467 70.9171C63.4859 70.4785 63.6251 70.0399 63.76 69.6013C63.8275 69.3651 63.9288 68.825 63.6757 68.96C63.1852 69.244 62.7036 69.1375 62.2262 69.032C61.7673 68.9306 61.3123 68.83 60.8573 69.0782C59.6422 69.7195 58.6971 71.6772 59.0684 72.9598C59.389 74.0905 60.4691 74.4618 61.2117 73.618C61.5998 73.1792 61.718 73.2467 61.988 73.6011C62.7173 74.5322 63.1756 74.0364 63.8612 73.2945L63.8622 73.2935C63.9019 73.2506 63.9424 73.2067 63.9838 73.1623C64.0046 73.14 64.0257 73.1174 64.0469 73.0948C63.2795 73.2212 62.9226 73.28 62.8058 73.1393C62.7042 73.0171 62.784 72.7442 62.9331 72.2341C63.0678 71.7963 63.2067 71.3584 63.3457 70.9206L63.3459 70.9198L63.3464 70.9183ZM62.2749 70.3777C62.0893 71.2721 61.8361 72.1497 61.2454 72.8754C61.2163 72.9118 61.1872 72.9517 61.1573 72.9926C60.9794 73.2363 60.7749 73.5165 60.3847 73.3142C60.1069 73.1753 60.1126 72.9324 60.1189 72.6633V72.6632C60.121 72.5728 60.1232 72.4794 60.1147 72.386C60.2328 71.4915 60.4691 70.5633 61.161 69.8376C61.3467 69.6351 61.6167 69.4663 61.8867 69.5676C62.2243 69.7026 62.3424 70.0401 62.2749 70.3777ZM70.3895 71.3465V66.3665H69.3895V70.8465H64.9095V71.8465H69.8895H70.3895V71.3465ZM128.373 63.6943C127.495 63.5086 126.634 63.6099 125.79 63.8799C123.934 64.4875 123.124 66.2089 124.018 67.9303C124.356 68.5716 124.238 68.791 123.681 69.0441C122.938 69.3817 122.381 69.9048 122.128 70.7149C121.521 72.6557 122.938 74.124 125.79 74.124C126.347 74.124 127.242 73.9215 128.035 73.4152C129.419 72.5376 129.925 70.8162 129.031 69.4661C128.491 68.6729 128.659 68.3691 129.368 67.9303C130.246 67.3734 130.668 66.4958 130.448 65.4326C130.229 64.3187 129.368 63.9137 128.373 63.6943ZM125.655 73.4489C124.305 73.3814 123.748 72.7739 123.748 71.6769C123.748 70.6812 124.592 69.3986 125.217 69.4323C125.774 69.4661 127.377 71.1706 127.377 71.7613C127.394 72.6895 126.466 73.4827 125.655 73.4489ZM127.512 67.7109C126.651 67.694 125.841 66.9008 125.79 65.8545C125.74 64.825 126.432 64.3862 127.36 64.3356C128.322 64.285 128.794 64.8081 128.845 65.8376C128.727 66.6477 128.491 67.7278 127.512 67.7109ZM133.132 69.2972C133.146 68.8408 133.308 68.4175 133.46 68.021C133.667 67.4793 133.855 66.9875 133.621 66.5295C133.402 66.1076 132.288 66.3776 131.495 66.7826C132.457 66.9514 132.524 67.3733 132.288 68.1665C131.866 69.466 131.562 70.8161 131.292 72.1663C131.124 73.0607 131.427 73.8539 132.44 74.0564C133.52 74.2589 134.313 73.6852 134.87 72.8413C135.545 71.8119 135.967 70.6474 135.326 69.4829C134.774 68.5132 133.891 68.9348 133.153 69.2873L133.132 69.2972ZM134.465 70.4111C134.347 71.3731 134.094 72.3013 133.486 73.0776C133.267 73.3645 132.963 73.6852 132.558 73.5164C132.17 73.3645 132.119 72.9426 132.187 72.5713C132.372 71.6262 132.575 70.6811 133.233 69.9386C133.469 69.6685 133.756 69.3648 134.161 69.5673C134.499 69.7192 134.499 70.0736 134.465 70.4111ZM140.347 70.9177L140.346 70.9183L140.346 70.9206C140.207 71.3584 140.068 71.7963 139.933 72.2341C139.784 72.7442 139.704 73.0171 139.806 73.1393C139.923 73.28 140.279 73.2212 141.047 73.0948C141.013 73.1304 140.981 73.1658 140.948 73.2007L140.861 73.2945C140.176 74.0364 139.717 74.5322 138.988 73.6011C138.718 73.2467 138.6 73.1792 138.212 73.618C137.469 74.4618 136.389 74.0905 136.068 72.9598C135.697 71.6772 136.642 69.7195 137.857 69.0782C138.312 68.83 138.767 68.9306 139.226 69.032C139.704 69.1375 140.185 69.244 140.676 68.96C140.929 68.825 140.828 69.3651 140.76 69.6013C140.625 70.0399 140.486 70.4785 140.347 70.9171L140.347 70.9177ZM138.245 72.8754C138.836 72.1497 139.089 71.2721 139.275 70.3777C139.342 70.0401 139.224 69.7026 138.887 69.5676C138.617 69.4663 138.347 69.6351 138.161 69.8376C137.469 70.5633 137.233 71.4915 137.115 72.386C137.123 72.4793 137.121 72.5727 137.119 72.6631V72.6633C137.113 72.9324 137.107 73.1753 137.385 73.3142C137.775 73.5165 137.979 73.2363 138.157 72.9926L138.158 72.992L138.177 72.9662C138.189 72.9489 138.202 72.932 138.214 72.9155C138.225 72.9018 138.235 72.8884 138.245 72.8754ZM147.39 66.3665V71.3465V71.8465H146.89H141.91V70.8465H146.39V66.3665H147.39ZM208.79 63.8799C209.634 63.6099 210.495 63.5086 211.373 63.6943C212.368 63.9137 213.229 64.3187 213.448 65.4326C213.668 66.4958 213.246 67.3734 212.368 67.9303C211.659 68.3691 211.491 68.6729 212.031 69.4661C212.925 70.8162 212.419 72.5376 211.035 73.4152C210.242 73.9215 209.347 74.124 208.79 74.124C205.938 74.124 204.521 72.6557 205.128 70.7149C205.381 69.9048 205.938 69.3817 206.681 69.0441C207.238 68.791 207.356 68.5716 207.018 67.9303C206.124 66.2089 206.934 64.4875 208.79 63.8799ZM206.748 71.6769C206.748 72.7739 207.305 73.3814 208.655 73.4489C209.466 73.4827 210.394 72.6895 210.377 71.7613C210.377 71.1706 208.774 69.4661 208.217 69.4323C207.592 69.3986 206.748 70.6812 206.748 71.6769ZM208.79 65.8545C208.841 66.9008 209.651 67.694 210.512 67.7109C211.491 67.7278 211.727 66.6477 211.845 65.8376C211.794 64.8081 211.322 64.285 210.36 64.3356C209.432 64.3862 208.74 64.825 208.79 65.8545ZM216.46 68.021C216.308 68.4175 216.146 68.8408 216.132 69.2972L216.153 69.2873C216.891 68.9348 217.774 68.5132 218.326 69.4829C218.967 70.6474 218.545 71.8119 217.87 72.8413C217.313 73.6852 216.52 74.2589 215.44 74.0564C214.427 73.8539 214.124 73.0607 214.292 72.1663C214.562 70.8161 214.866 69.466 215.288 68.1665C215.524 67.3733 215.457 66.9514 214.495 66.7826C215.288 66.3776 216.402 66.1076 216.621 66.5295C216.855 66.9875 216.667 67.4793 216.46 68.021ZM216.486 73.0776C217.094 72.3013 217.347 71.3731 217.465 70.4111C217.499 70.0736 217.499 69.7192 217.161 69.5673C216.756 69.3648 216.469 69.6685 216.233 69.9386C215.575 70.6811 215.372 71.6262 215.187 72.5713C215.119 72.9426 215.17 73.3645 215.558 73.5164C215.963 73.6852 216.267 73.3645 216.486 73.0776ZM223.346 70.9183L223.347 70.9177L223.347 70.9171C223.486 70.4785 223.625 70.0399 223.76 69.6013C223.828 69.3651 223.929 68.825 223.676 68.96C223.185 69.244 222.704 69.1375 222.226 69.032C221.767 68.9306 221.312 68.83 220.857 69.0782C219.642 69.7195 218.697 71.6772 219.068 72.9598C219.389 74.0905 220.469 74.4618 221.212 73.618C221.6 73.1792 221.718 73.2467 221.988 73.6011C222.717 74.5322 223.176 74.0364 223.861 73.2945L223.934 73.2158C223.954 73.1944 223.974 73.173 223.994 73.1513C224.012 73.1326 224.029 73.1137 224.047 73.0948C223.279 73.2212 222.923 73.28 222.806 73.1393C222.704 73.0171 222.784 72.7442 222.933 72.2341C223.068 71.7959 223.207 71.3576 223.346 70.9194L223.346 70.9186L223.346 70.9183ZM222.275 70.3777C222.089 71.2721 221.836 72.1497 221.245 72.8754C221.216 72.9116 221.188 72.9513 221.158 72.992L221.157 72.9926C220.979 73.2363 220.775 73.5165 220.385 73.3142C220.107 73.1753 220.113 72.9324 220.119 72.6633C220.121 72.5728 220.123 72.4794 220.115 72.386C220.233 71.4915 220.469 70.5633 221.161 69.8376C221.347 69.6351 221.617 69.4663 221.887 69.5676C222.224 69.7026 222.342 70.0401 222.275 70.3777ZM230.39 71.3465V66.3665H229.39V70.8465H224.91V71.8465H229.89H230.39V71.3465ZM288.373 63.6943C287.495 63.5086 286.634 63.6099 285.79 63.8799C283.934 64.4875 283.124 66.2089 284.018 67.9303C284.356 68.5716 284.238 68.791 283.681 69.0441C282.938 69.3817 282.381 69.9048 282.128 70.7149C281.521 72.6557 282.938 74.124 285.79 74.124C286.347 74.124 287.242 73.9215 288.035 73.4152C289.419 72.5376 289.925 70.8162 289.031 69.4661C288.491 68.6729 288.659 68.3691 289.368 67.9303C290.246 67.3734 290.668 66.4958 290.448 65.4326C290.229 64.3187 289.368 63.9137 288.373 63.6943ZM285.655 73.4489C284.305 73.3814 283.748 72.7739 283.748 71.6769C283.748 70.6812 284.592 69.3986 285.217 69.4323C285.774 69.4661 287.377 71.1706 287.377 71.7613C287.394 72.6895 286.466 73.4827 285.655 73.4489ZM287.512 67.7109C286.651 67.694 285.841 66.9008 285.79 65.8545C285.74 64.825 286.432 64.3862 287.36 64.3356C288.322 64.285 288.794 64.8081 288.845 65.8376C288.727 66.6477 288.491 67.7278 287.512 67.7109ZM293.132 69.2972C293.146 68.8408 293.308 68.4175 293.46 68.021C293.667 67.4793 293.855 66.9875 293.621 66.5295C293.402 66.1076 292.288 66.3776 291.495 66.7826C292.457 66.9514 292.524 67.3733 292.288 68.1665C291.866 69.466 291.562 70.8161 291.292 72.1663C291.124 73.0607 291.427 73.8539 292.44 74.0564C293.52 74.2589 294.313 73.6852 294.87 72.8413C295.545 71.8119 295.967 70.6474 295.326 69.4829C294.774 68.5132 293.891 68.9348 293.153 69.2873L293.132 69.2972ZM294.465 70.4111C294.347 71.3731 294.094 72.3013 293.486 73.0776C293.267 73.3645 292.963 73.6852 292.558 73.5164C292.17 73.3645 292.119 72.9426 292.187 72.5713C292.372 71.6262 292.575 70.6811 293.233 69.9386C293.469 69.6685 293.756 69.3648 294.161 69.5673C294.499 69.7192 294.499 70.0736 294.465 70.4111ZM300.347 70.9177L300.346 70.9183C300.207 71.3569 300.068 71.7955 299.933 72.2341C299.784 72.7442 299.704 73.0171 299.806 73.1393C299.923 73.28 300.279 73.2212 301.047 73.0948C301.012 73.1321 300.977 73.1691 300.944 73.2056L300.861 73.2945C300.176 74.0364 299.717 74.5322 298.988 73.6011C298.718 73.2467 298.6 73.1792 298.212 73.618C297.469 74.4618 296.389 74.0905 296.068 72.9598C295.697 71.6772 296.642 69.7195 297.857 69.0782C298.312 68.83 298.767 68.9306 299.226 69.032C299.704 69.1375 300.185 69.244 300.676 68.96C300.929 68.825 300.828 69.3651 300.76 69.6013C300.625 70.0399 300.486 70.4785 300.347 70.9171L300.347 70.9177ZM298.245 72.8754C298.836 72.1497 299.089 71.2721 299.275 70.3777C299.342 70.0401 299.224 69.7026 298.887 69.5676C298.617 69.4663 298.347 69.6351 298.161 69.8376C297.469 70.5633 297.233 71.4915 297.115 72.386C297.123 72.4794 297.121 72.5728 297.119 72.6633C297.113 72.9324 297.107 73.1753 297.385 73.3142C297.775 73.5165 297.979 73.2363 298.157 72.9926L298.158 72.9921C298.17 72.9748 298.183 72.9576 298.195 72.9408C298.212 72.9182 298.229 72.8962 298.245 72.8754ZM307.39 66.3665V71.3465V71.8465H306.89H301.91V70.8465H306.39V66.3665H307.39ZM369.373 63.6943C368.495 63.5086 367.634 63.6099 366.79 63.8799C364.934 64.4875 364.124 66.2089 365.018 67.9303C365.356 68.5716 365.238 68.791 364.681 69.0441C363.938 69.3817 363.381 69.9048 363.128 70.7149C362.521 72.6557 363.938 74.124 366.79 74.124C367.347 74.124 368.242 73.9215 369.035 73.4152C370.419 72.5376 370.925 70.8162 370.031 69.4661C369.491 68.6729 369.66 68.3691 370.368 67.9303C371.246 67.3734 371.668 66.4958 371.448 65.4326C371.229 64.3187 370.368 63.9137 369.373 63.6943ZM366.655 73.4489C365.305 73.3814 364.748 72.7739 364.748 71.6769C364.748 70.6812 365.592 69.3986 366.217 69.4323C366.774 69.4661 368.377 71.1706 368.377 71.7613C368.394 72.6895 367.466 73.4827 366.655 73.4489ZM368.512 67.7109C367.651 67.694 366.841 66.9008 366.79 65.8545C366.74 64.825 367.432 64.3862 368.36 64.3356C369.322 64.285 369.795 64.8081 369.845 65.8376C369.727 66.6477 369.491 67.7278 368.512 67.7109ZM374.46 68.0213L374.46 68.021C374.667 67.4793 374.855 66.9875 374.621 66.5295C374.402 66.1076 373.288 66.3776 372.495 66.7826C373.457 66.9514 373.524 67.3733 373.288 68.1665C372.866 69.466 372.562 70.8161 372.292 72.1663C372.124 73.0607 372.427 73.8539 373.44 74.0564C374.52 74.2589 375.313 73.6852 375.87 72.8413C376.545 71.8119 376.967 70.6474 376.326 69.4829C375.774 68.5132 374.891 68.9348 374.153 69.2873L374.132 69.2972C374.146 68.8409 374.308 68.4177 374.46 68.0213ZM375.465 70.4111C375.347 71.3731 375.094 72.3013 374.486 73.0776C374.267 73.3645 373.963 73.6852 373.558 73.5164C373.17 73.3645 373.119 72.9426 373.187 72.5713C373.372 71.6262 373.575 70.6811 374.233 69.9386C374.469 69.6685 374.756 69.3648 375.161 69.5673C375.499 69.7192 375.499 70.0736 375.465 70.4111ZM381.347 70.9177L381.346 70.9183L381.343 70.9276C381.205 71.3631 381.067 71.7986 380.933 72.2341C380.784 72.7442 380.704 73.0171 380.806 73.1393C380.923 73.28 381.28 73.2212 382.047 73.0948C382.008 73.1366 381.969 73.1779 381.931 73.2187L381.871 73.2838L381.868 73.2876L381.861 73.2945C381.176 74.0364 380.717 74.5322 379.988 73.6011C379.718 73.2467 379.6 73.1792 379.212 73.618C378.469 74.4618 377.389 74.0905 377.068 72.9598C376.697 71.6772 377.642 69.7195 378.857 69.0782C379.312 68.83 379.767 68.9306 380.226 69.032C380.704 69.1375 381.185 69.244 381.676 68.96C381.929 68.825 381.828 69.3651 381.76 69.6013C381.626 70.0368 381.488 70.4723 381.35 70.9077L381.347 70.9171L381.347 70.9177ZM379.245 72.8754C379.836 72.1497 380.089 71.2721 380.275 70.3777C380.342 70.0401 380.224 69.7026 379.887 69.5676C379.617 69.4663 379.347 69.6351 379.161 69.8376C378.469 70.5633 378.233 71.4915 378.115 72.386C378.123 72.4794 378.121 72.5728 378.119 72.6633C378.113 72.9324 378.107 73.1753 378.385 73.3142C378.775 73.5165 378.979 73.2363 379.157 72.9926L379.158 72.9921L379.158 72.9916L379.158 72.9912L379.159 72.9908L379.159 72.9903C379.188 72.9502 379.217 72.9111 379.245 72.8754ZM388.39 66.3665V71.3465V71.8465H387.89H382.91V70.8465H387.39V66.3665H388.39ZM135.701 95.2148H131.988V95.5195H132.191C132.53 95.5195 132.762 95.547 132.889 95.602C133.016 95.6528 133.109 95.7565 133.169 95.9131C133.232 96.0654 133.264 96.3722 133.264 96.8335C133.264 97.227 133.198 97.5529 133.067 97.811C132.936 98.0691 132.691 98.2892 132.331 98.4712C131.971 98.6489 131.571 98.7378 131.131 98.7378C130.272 98.7378 129.553 98.4204 128.973 97.7856C128.393 97.1466 128.103 96.0633 128.103 94.5356C128.103 93.0037 128.404 91.9373 129.005 91.3364C129.606 90.7355 130.31 90.435 131.118 90.435C131.901 90.435 132.566 90.6932 133.112 91.2094C133.662 91.7257 133.998 92.4261 134.121 93.3105H134.426V90.435H134.121C134.083 90.7778 133.994 91.0973 133.854 91.3935C133.101 90.5472 132.149 90.124 130.998 90.124C129.661 90.124 128.603 90.5874 127.824 91.5141C127.045 92.4409 126.656 93.52 126.656 94.7514C126.656 95.9956 127.064 97.0239 127.881 97.8364C128.698 98.6447 129.722 99.0488 130.953 99.0488C131.567 99.0488 132.233 98.9134 132.953 98.6425C133.482 98.4437 133.909 98.3442 134.235 98.3442C134.316 98.3442 134.406 98.3527 134.508 98.3696V97.4555C134.508 96.715 134.531 96.2495 134.578 96.0591C134.624 95.8644 134.72 95.7269 134.864 95.6465C135.012 95.5618 135.291 95.5195 135.701 95.5195V95.2148ZM137.314 91.5586C136.814 92.3499 136.565 93.4078 136.565 94.7324C136.565 96.0485 136.814 97.1064 137.314 97.9062C137.817 98.7018 138.475 99.0996 139.288 99.0996C140.105 99.0996 140.763 98.6997 141.262 97.8999C141.761 97.0958 142.011 96.04 142.011 94.7324C142.011 93.4163 141.759 92.3605 141.256 91.5649C140.756 90.7651 140.1 90.3652 139.288 90.3652C138.475 90.3652 137.817 90.763 137.314 91.5586ZM138.056 98.084C137.764 97.6058 137.618 96.4886 137.618 94.7324C137.618 92.9677 137.767 91.8506 138.063 91.3808C138.359 90.9069 138.767 90.6699 139.288 90.6699C139.808 90.6699 140.215 90.9069 140.507 91.3808C140.803 91.8548 140.951 92.972 140.951 94.7324C140.951 96.3024 140.828 97.373 140.583 97.9443C140.337 98.5114 139.906 98.7949 139.288 98.7949C138.763 98.7949 138.353 98.5579 138.056 98.084ZM53.1116 92.4282L53.0417 90.2827H46.4021V90.5747H46.5544C46.9903 90.5747 47.2717 90.6128 47.3987 90.6889C47.5299 90.7651 47.6145 90.9026 47.6526 91.1015C47.6949 91.3004 47.7161 91.7426 47.7161 92.4282V96.6494C47.7161 97.3688 47.6949 97.8279 47.6526 98.0268C47.6145 98.2215 47.5235 98.3654 47.3796 98.4585C47.24 98.5516 46.9861 98.5981 46.6179 98.5981H46.3513V98.8901H50.3503V98.5981H50.0583C49.6648 98.5981 49.3982 98.5473 49.2585 98.4458C49.1231 98.3442 49.0385 98.1898 49.0046 97.9824C48.9708 97.7708 48.9539 97.3265 48.9539 96.6494V94.5102H49.76C50.1832 94.5102 50.4667 94.5504 50.6106 94.6308C50.7587 94.707 50.8687 94.853 50.9407 95.0688C51.0168 95.2804 51.0549 95.5703 51.0549 95.9384H51.3723V92.9043H51.0549C51.0549 93.4332 50.9682 93.7866 50.7947 93.9643C50.6254 94.1378 50.2805 94.2246 49.76 94.2246H48.9539V90.5747H50.636C51.1692 90.5747 51.5479 90.6128 51.7722 90.6889C51.9965 90.7651 52.2102 90.9576 52.4133 91.2666C52.6207 91.5713 52.754 91.9585 52.8132 92.4282H53.1116ZM55.8601 92.7964H53.759V93.4565H55.7205L55.2063 95.9321H53.759V96.5923H55.0667L54.5208 99.1884H55.1873L55.7141 96.5923H58.5261L57.9739 99.1884H58.6404L59.1799 96.5923H61.262V95.9321H59.3132L59.8274 93.4565H61.262V92.7964H59.9543L60.5066 90.1875H59.8464L59.3005 92.7964H56.5139L57.0662 90.1875H56.4124L55.8601 92.7964ZM55.8538 95.9194L56.3743 93.4565H59.1736L58.6594 95.9194H55.8538ZM63.1409 91.5586C62.6415 92.3499 62.3918 93.4078 62.3918 94.7324C62.3918 96.0485 62.6415 97.1064 63.1409 97.9062C63.6444 98.7018 64.3025 99.0996 65.115 99.0996C65.9317 99.0996 66.5898 98.6997 67.0891 97.8999C67.5885 97.0958 67.8381 96.04 67.8381 94.7324C67.8381 93.4163 67.5863 92.3605 67.0828 91.5649C66.5834 90.7651 65.9275 90.3652 65.115 90.3652C64.3025 90.3652 63.6444 90.763 63.1409 91.5586ZM63.8835 98.084C63.5916 97.6058 63.4456 96.4886 63.4456 94.7324C63.4456 92.9677 63.5937 91.8506 63.8899 91.3808C64.1861 90.9069 64.5945 90.6699 65.115 90.6699C65.6355 90.6699 66.0417 90.9069 66.3337 91.3808C66.63 91.8548 66.7781 92.972 66.7781 94.7324C66.7781 96.3024 66.6554 97.373 66.4099 97.9443C66.1645 98.5114 65.7328 98.7949 65.115 98.7949C64.5902 98.7949 64.1798 98.5579 63.8835 98.084ZM289.601 95.7163H286.332L286.11 96.2622C285.78 97.0535 285.615 97.5698 285.615 97.811C285.615 98.0691 285.701 98.2659 285.875 98.4013C286.052 98.5325 286.279 98.5981 286.554 98.5981V98.8901H283.996V98.5981C284.377 98.5389 284.66 98.4056 284.846 98.1982C285.033 97.9866 285.257 97.5444 285.519 96.8716C285.54 96.8081 285.642 96.5626 285.824 96.1352L288.325 90.1621H288.573L291.448 96.9985L291.842 97.8999C291.93 98.103 292.049 98.2638 292.197 98.3823C292.349 98.4966 292.576 98.5685 292.876 98.5981V98.8901H289.493V98.5981C289.908 98.5981 290.187 98.5685 290.331 98.5092C290.479 98.4458 290.553 98.3231 290.553 98.1411C290.553 98.048 290.456 97.7708 290.261 97.3095L289.601 95.7163ZM289.493 95.4306L287.969 91.7617L286.452 95.4306H289.493ZM293.346 94.7324C293.346 93.4078 293.596 92.3499 294.095 91.5586C294.599 90.763 295.257 90.3652 296.069 90.3652C296.882 90.3652 297.538 90.7651 298.037 91.5649C298.54 92.3605 298.792 93.4163 298.792 94.7324C298.792 96.04 298.543 97.0958 298.043 97.8999C297.544 98.6997 296.886 99.0996 296.069 99.0996C295.257 99.0996 294.599 98.7018 294.095 97.9062C293.596 97.1064 293.346 96.0485 293.346 94.7324ZM294.4 94.7324C294.4 96.4886 294.546 97.6058 294.838 98.084C295.134 98.5579 295.544 98.7949 296.069 98.7949C296.687 98.7949 297.119 98.5114 297.364 97.9443C297.609 97.373 297.732 96.3024 297.732 94.7324C297.732 92.972 297.584 91.8548 297.288 91.3808C296.996 90.9069 296.59 90.6699 296.069 90.6699C295.549 90.6699 295.14 90.9069 294.844 91.3808C294.548 91.8506 294.4 92.9677 294.4 94.7324ZM448.693 94.9863C448.219 94.5716 447.493 94.3283 446.515 94.2563C447.328 94.1378 447.935 93.9093 448.337 93.5708C448.743 93.2322 448.947 92.7837 448.947 92.2251C448.947 90.8709 447.77 90.1938 445.417 90.1938L443.805 90.2446L442.389 90.2827V90.5747H442.554C442.99 90.5747 443.272 90.6128 443.399 90.6889C443.53 90.7651 443.615 90.9048 443.653 91.1079C443.695 91.311 443.716 91.7617 443.716 92.4599V96.6494C443.716 97.3688 443.697 97.8279 443.659 98.0268C443.621 98.2215 443.53 98.3654 443.386 98.4585C443.246 98.5516 442.992 98.5981 442.624 98.5981H442.294V98.8901H445.671C446.513 98.8901 447.184 98.8309 447.683 98.7124C448.187 98.5897 448.6 98.3336 448.921 97.9443C449.243 97.5508 449.404 97.0831 449.404 96.5415C449.404 95.9194 449.167 95.401 448.693 94.9863ZM445.227 94.1421C445.155 94.1421 445.066 94.1399 444.96 94.1357V90.5239C445.134 90.5112 445.303 90.5049 445.468 90.5049C446.103 90.5049 446.551 90.5726 446.814 90.708C447.076 90.8392 447.273 91.0275 447.404 91.2729C447.535 91.5184 447.601 91.8654 447.601 92.3139C447.601 92.9572 447.434 93.4227 447.099 93.7104C446.765 93.9982 446.141 94.1421 445.227 94.1421ZM444.96 96.3637V94.4467C445.129 94.4383 445.29 94.4341 445.443 94.4341C446.407 94.4341 447.08 94.6033 447.461 94.9419C447.846 95.2762 448.039 95.7988 448.039 96.5097C448.039 97.2037 447.87 97.7243 447.531 98.0713C447.192 98.4183 446.685 98.5918 446.008 98.5918C445.627 98.5918 445.371 98.5346 445.24 98.4204C445.113 98.3061 445.034 98.139 445.005 97.9189C444.975 97.6989 444.96 97.1805 444.96 96.3637ZM451.282 91.5586C450.783 92.3499 450.533 93.4078 450.533 94.7324C450.533 96.0485 450.783 97.1064 451.282 97.9062C451.786 98.7018 452.444 99.0996 453.257 99.0996C454.073 99.0996 454.731 98.6997 455.231 97.8999C455.73 97.0958 455.98 96.04 455.98 94.7324C455.98 93.4163 455.728 92.3605 455.224 91.5649C454.725 90.7651 454.069 90.3652 453.257 90.3652C452.444 90.3652 451.786 90.763 451.282 91.5586ZM452.025 98.084C451.733 97.6058 451.587 96.4886 451.587 94.7324C451.587 92.9677 451.735 91.8506 452.031 91.3808C452.328 90.9069 452.736 90.6699 453.257 90.6699C453.777 90.6699 454.183 90.9069 454.475 91.3808C454.772 91.8548 454.92 92.972 454.92 94.7324C454.92 96.3024 454.797 97.373 454.552 97.9443C454.306 98.5114 453.874 98.7949 453.257 98.7949C452.732 98.7949 452.321 98.5579 452.025 98.084ZM207.601 95.7163H204.332L204.11 96.2622C203.78 97.0535 203.615 97.5698 203.615 97.811C203.615 98.0691 203.701 98.2659 203.875 98.4013C204.052 98.5325 204.279 98.5981 204.554 98.5981V98.8901H201.996V98.5981C202.377 98.5389 202.66 98.4056 202.846 98.1982C203.033 97.9866 203.257 97.5444 203.519 96.8716C203.54 96.8081 203.642 96.5626 203.824 96.1352L206.325 90.1621H206.573L209.448 96.9985L209.842 97.8999C209.93 98.103 210.049 98.2638 210.197 98.3823C210.349 98.4966 210.576 98.5685 210.876 98.5981V98.8901H207.493V98.5981C207.908 98.5981 208.187 98.5685 208.331 98.5092C208.479 98.4458 208.553 98.3231 208.553 98.1411C208.553 98.048 208.456 97.7708 208.261 97.3095L207.601 95.7163ZM207.493 95.4306L205.969 91.7617L204.452 95.4306H207.493ZM212.051 99.0996H211.803V92.1425C211.803 91.6347 211.788 91.3068 211.759 91.1587C211.733 91.0106 211.663 90.9005 211.549 90.8286C211.439 90.7566 211.244 90.7207 210.965 90.7207V90.4287C211.215 90.4287 211.515 90.3991 211.866 90.3398C212.218 90.2806 212.457 90.2213 212.584 90.1621H212.717V94.2754C213.013 94.0088 213.314 93.8099 213.618 93.6787C213.923 93.5475 214.232 93.4819 214.545 93.4819C215.294 93.4819 215.908 93.7422 216.386 94.2627C216.864 94.7832 217.103 95.4476 217.103 96.2558C217.103 97.0683 216.858 97.7454 216.367 98.2871C215.876 98.8287 215.239 99.0996 214.456 99.0996C214.071 99.0996 213.733 99.0192 213.441 98.8584C213.153 98.6976 212.912 98.4585 212.717 98.1411C212.442 98.4161 212.22 98.7356 212.051 99.0996ZM212.717 94.6499V96.6875C212.717 97.2122 212.751 97.591 212.819 97.8237C212.891 98.0522 213.06 98.2723 213.326 98.4839C213.593 98.6954 213.904 98.8012 214.26 98.8012C214.805 98.8012 215.239 98.577 215.561 98.1284C215.887 97.6798 216.05 97.0345 216.05 96.1924C216.05 95.4179 215.897 94.8297 215.593 94.4277C215.292 94.0215 214.89 93.8183 214.386 93.8183C214.099 93.8183 213.815 93.8882 213.536 94.0278C213.261 94.1632 212.988 94.3706 212.717 94.6499ZM218.125 94.7324C218.125 93.4078 218.375 92.3499 218.874 91.5586C219.378 90.763 220.036 90.3652 220.848 90.3652C221.661 90.3652 222.317 90.7651 222.816 91.5649C223.32 92.3605 223.572 93.4163 223.572 94.7324C223.572 96.04 223.322 97.0958 222.823 97.8999C222.323 98.6997 221.665 99.0996 220.848 99.0996C220.036 99.0996 219.378 98.7018 218.874 97.9062C218.375 97.1064 218.125 96.0485 218.125 94.7324ZM219.179 94.7324C219.179 96.4886 219.325 97.6058 219.617 98.084C219.913 98.5579 220.324 98.7949 220.848 98.7949C221.466 98.7949 221.898 98.5114 222.143 97.9443C222.389 97.373 222.511 96.3024 222.511 94.7324C222.511 92.972 222.363 91.8548 222.067 91.3808C221.775 90.9069 221.369 90.6699 220.848 90.6699C220.328 90.6699 219.92 90.9069 219.623 91.3808C219.327 91.8506 219.179 92.9677 219.179 94.7324ZM367.693 94.9863C367.219 94.5716 366.493 94.3283 365.515 94.2563C366.328 94.1378 366.935 93.9093 367.337 93.5708C367.743 93.2322 367.947 92.7837 367.947 92.2251C367.947 90.8709 366.77 90.1938 364.417 90.1938L362.805 90.2446L361.389 90.2827V90.5747H361.554C361.99 90.5747 362.272 90.6128 362.399 90.6889C362.53 90.7651 362.615 90.9048 362.653 91.1079C362.695 91.311 362.716 91.7617 362.716 92.4599V96.6494C362.716 97.3688 362.697 97.8279 362.659 98.0268C362.621 98.2215 362.53 98.3654 362.386 98.4585C362.246 98.5516 361.992 98.5981 361.624 98.5981H361.294V98.8901H364.671C365.513 98.8901 366.184 98.8309 366.683 98.7124C367.187 98.5897 367.6 98.3336 367.921 97.9443C368.243 97.5508 368.404 97.0831 368.404 96.5415C368.404 95.9194 368.167 95.401 367.693 94.9863ZM364.227 94.1421C364.155 94.1421 364.066 94.1399 363.96 94.1357V90.5239C364.134 90.5112 364.303 90.5049 364.468 90.5049C365.103 90.5049 365.551 90.5726 365.814 90.708C366.076 90.8392 366.273 91.0275 366.404 91.2729C366.535 91.5184 366.601 91.8654 366.601 92.3139C366.601 92.9572 366.434 93.4227 366.099 93.7104C365.765 93.9982 365.141 94.1421 364.227 94.1421ZM363.96 96.3637V94.4467C364.129 94.4383 364.29 94.4341 364.443 94.4341C365.407 94.4341 366.08 94.6033 366.461 94.9419C366.846 95.2762 367.039 95.7988 367.039 96.5097C367.039 97.2037 366.87 97.7243 366.531 98.0713C366.192 98.4183 365.685 98.5918 365.008 98.5918C364.627 98.5918 364.371 98.5346 364.24 98.4204C364.113 98.3061 364.034 98.139 364.005 97.9189C363.975 97.6989 363.96 97.1805 363.96 96.3637ZM369.99 99.0996H370.238C370.407 98.7356 370.629 98.4161 370.905 98.1411C371.099 98.4585 371.34 98.6976 371.628 98.8584C371.92 99.0192 372.259 99.0996 372.644 99.0996C373.427 99.0996 374.064 98.8287 374.554 98.2871C375.045 97.7454 375.291 97.0683 375.291 96.2558C375.291 95.4476 375.052 94.7832 374.573 94.2627C374.095 93.7422 373.482 93.4819 372.733 93.4819C372.42 93.4819 372.111 93.5475 371.806 93.6787C371.501 93.8099 371.201 94.0088 370.905 94.2754V90.1621H370.771C370.644 90.2213 370.405 90.2806 370.054 90.3398C369.703 90.3991 369.402 90.4287 369.153 90.4287V90.7207C369.432 90.7207 369.627 90.7566 369.737 90.8286C369.851 90.9005 369.921 91.0106 369.946 91.1587C369.976 91.3068 369.99 91.6347 369.99 92.1425V99.0996ZM370.905 96.6875V94.6499C371.175 94.3706 371.448 94.1632 371.723 94.0278C372.003 93.8882 372.286 93.8183 372.574 93.8183C373.078 93.8183 373.48 94.0215 373.78 94.4277C374.085 94.8297 374.237 95.4179 374.237 96.1924C374.237 97.0345 374.074 97.6798 373.748 98.1284C373.427 98.577 372.993 98.8012 372.447 98.8012C372.092 98.8012 371.781 98.6954 371.514 98.4839C371.247 98.2723 371.078 98.0522 371.006 97.8237C370.938 97.591 370.905 97.2122 370.905 96.6875ZM377.062 91.5586C376.562 92.3499 376.313 93.4078 376.313 94.7324C376.313 96.0485 376.562 97.1064 377.062 97.9062C377.565 98.7018 378.223 99.0996 379.036 99.0996C379.853 99.0996 380.511 98.6997 381.01 97.8999C381.509 97.0958 381.759 96.04 381.759 94.7324C381.759 93.4163 381.507 92.3605 381.004 91.5649C380.504 90.7651 379.848 90.3652 379.036 90.3652C378.223 90.3652 377.565 90.763 377.062 91.5586ZM377.804 98.084C377.512 97.6058 377.366 96.4886 377.366 94.7324C377.366 92.9677 377.515 91.8506 377.811 91.3808C378.107 90.9069 378.515 90.6699 379.036 90.6699C379.556 90.6699 379.963 90.9069 380.255 91.3808C380.551 91.8548 380.699 92.972 380.699 94.7324C380.699 96.3024 380.576 97.373 380.331 97.9443C380.085 98.5114 379.654 98.7949 379.036 98.7949C378.511 98.7949 378.101 98.5579 377.804 98.084ZM14.488 133.563C14.7782 135.197 15.1096 137.189 15.1096 138.297C15.1096 142.022 12.593 142.475 11.1081 142.475C9.74914 142.475 9.09481 142.072 9.09481 141.745C9.09481 141.569 9.32131 141.493 9.90014 141.317C10.6803 141.091 11.5863 140.411 11.5863 138.952C11.5863 137.567 10.7055 136.385 9.17031 136.385C7.48416 136.385 6.4775 137.718 6.4775 139.279C6.4775 140.915 7.45899 143.381 11.2591 143.381C12.9453 143.381 16.2169 142.626 16.2169 138.348C16.2169 137.087 15.8672 135.088 15.5945 133.563H94.7441V134.71H95.0891V133.563H171.854V134.71H172.199V133.563H252.283V134.71H252.628V133.563H329.393V134.71H329.738V133.563H360.971C361.002 137.113 361.099 146.672 361.263 146.877C361.338 146.978 361.414 147.003 361.489 147.003C361.565 147.003 361.64 146.952 361.64 146.952C362.08 146.703 362.469 146.368 362.841 146.048C363.108 145.818 363.366 145.596 363.629 145.417C365.868 143.857 366.649 142.322 366.649 141.164C366.649 139.73 365.541 138.824 364.384 138.748C363.956 138.748 363.352 138.95 362.999 139.176C362.848 139.302 362.572 139.528 362.446 139.528C362.395 139.528 362.37 139.528 362.32 139.503C362.144 139.428 362.043 139.252 362.043 139.075C362.061 138.684 362.142 135.544 362.187 133.563H409.809V134.71H410.154V133.563H486.915V134.71H487.26V133.563H491.339V134.71H491.684V133.563H492.141V132.701H491.684V127.252H492.141V126.39H491.684V120.942H492.141V120.079H491.684V114.631H492.141V113.768H491.684V108.32H492.141V107.457H491.684V106.31H491.339V107.457H487.26V106.31H486.915V107.457H410.154V106.31H409.809V107.457H329.738V106.31H329.393V107.457H252.628V106.31H252.283V107.457H172.199V106.31H171.854V107.457H95.0891V106.31H94.7441V107.457H17.4891C17.5297 107.081 17.5508 106.699 17.5508 106.311C17.5508 104.121 16.9468 101.957 15.9149 100.447C15.5374 99.8931 14.8831 99.1884 14.6063 99.1884C14.2539 99.1884 13.4738 99.8428 12.9705 100.396C11.2868 102.262 10.6316 105.012 10.5214 107.457H0.00012207V108.32H10.5044C10.5119 109.754 10.6842 111.341 10.8565 112.351L10.8632 112.391C10.9084 112.658 10.9181 112.714 10.63 112.955C10.3079 113.221 9.98397 113.492 9.66115 113.768H0V114.631H8.68032C6.9197 116.227 5.2817 118.008 4.25372 120.079H0V120.942H3.86894C3.41744 122.081 3.15552 123.306 3.15552 124.632C3.15552 125.225 3.21052 125.814 3.32096 126.39H0V127.252H3.53159C4.26588 129.713 6.07974 131.807 9.01062 132.701H0V133.563H14.488ZM5.23956 127.252C5.70341 130.243 8.41644 132.257 12.4168 132.257C12.9201 132.257 13.4235 132.207 13.8261 132.131L13.8453 132.128C14.2045 132.056 14.2279 132.051 14.1784 131.779L13.4189 127.252H9.91002C10.0019 128.321 10.7254 129.293 11.7121 129.715L11.741 129.728C11.9096 129.799 12.0896 129.876 12.0896 130.043C12.0896 130.194 11.989 130.319 11.7876 130.319C11.6115 130.319 11.3095 130.244 11.1081 130.168C9.81521 129.731 8.82395 128.705 8.41653 127.252H5.23956ZM5.16924 126.39H8.25061C8.22643 126.172 8.21399 125.946 8.21399 125.714C8.21399 123.672 9.52165 121.767 11.5675 120.942H7.12024C5.38846 123.105 5.16884 124.931 5.16884 126.318C5.16884 126.342 5.16897 126.366 5.16924 126.39ZM7.87416 120.079H12.2162L11.7121 117.006C11.6618 116.729 11.6115 116.704 11.3598 116.906L11.3238 116.935C10.2505 117.803 9.19472 118.656 7.87416 120.079ZM9.96757 126.39C10.2135 125.272 11.1166 124.44 12.4168 124.078C12.8195 123.977 12.8698 124.003 12.9201 124.279L13.2742 126.39H9.96757ZM14.4969 127.252L15.2103 131.402C15.2606 131.704 15.3109 131.704 15.6129 131.553C17.0223 130.848 17.9786 129.564 17.9786 127.979C17.9786 127.73 17.9573 127.487 17.9165 127.252H14.4969ZM17.6676 126.39H14.3486L13.9771 124.229C13.9268 123.927 13.9519 123.852 14.2539 123.877C15.769 124.008 17.0894 124.987 17.6676 126.39ZM20.0064 127.252H94.7441V132.701H15.4921C15.5249 132.655 15.5936 132.627 15.7186 132.574C15.7474 132.562 15.7792 132.549 15.8143 132.534C18.1406 131.613 19.7501 129.743 20.0064 127.252ZM20.0404 126.39C19.9843 124.007 18.6326 121.854 16.408 120.942H94.7441V126.39H20.0404ZM13.2561 120.079L13.2473 120.026L12.6181 116.377C12.5711 116.095 12.612 116.054 12.7408 115.927L12.7691 115.899C13.2034 115.493 13.6209 115.07 14.0161 114.631H94.7441V120.079H13.2561ZM14.7441 113.768H94.7441V108.32H17.3597C16.9713 110.34 16.0175 112.156 14.7441 113.768ZM15.4824 108.32C14.6028 109.713 13.2886 110.923 12.1148 111.948C11.9386 112.099 11.838 112.074 11.7876 111.747C11.687 111.092 11.6366 110.237 11.6366 109.431C11.6366 109.046 11.6541 108.675 11.687 108.32H15.4824ZM15.9554 107.457H11.8017C12.2822 104.711 13.7259 103.089 14.9838 103.089C15.8143 103.089 16.4938 103.769 16.4938 105.153C16.4938 105.966 16.2914 106.734 15.9554 107.457ZM362.219 131.978C362.219 132.067 362.215 132.328 362.207 132.701H409.809V127.252H329.738V132.701H360.964L360.961 132.255C360.986 131.802 361.389 131.551 361.741 131.551C361.993 131.551 362.219 131.702 362.219 131.978ZM491.339 127.252V132.701H487.26V127.252H491.339ZM491.339 120.942V126.39H487.26V120.942H491.339ZM491.339 114.631V120.079H487.26V114.631H491.339ZM491.339 108.32V113.768H487.26V108.32H491.339ZM486.915 108.32H410.154V113.768H486.915V108.32ZM486.915 114.631H410.154V120.079H486.915V114.631ZM486.915 120.942H410.154V126.39H486.915V120.942ZM486.915 127.252H410.154V132.701H486.915V127.252ZM409.809 120.942V126.39H329.738V120.942H409.809ZM409.809 114.631V120.079H329.738V114.631H409.809ZM409.809 108.32V113.768H329.738V108.32H409.809ZM329.393 108.32H252.628V113.768H329.393V108.32ZM329.393 114.631H252.628V120.079H329.393V114.631ZM329.393 120.942H252.628V126.39H329.393V120.942ZM329.393 127.252H252.628V132.701H329.393V127.252ZM252.283 127.252V132.701H172.199V127.252H252.283ZM252.283 120.942V126.39H172.199V120.942H252.283ZM252.283 114.631V120.079H172.199V114.631H252.283ZM252.283 108.32V113.768H172.199V108.32H252.283ZM171.854 132.701V127.252H95.0891V132.701H171.854ZM171.854 126.39V120.942H95.0891V126.39H171.854ZM171.854 120.079V114.631H95.0891V120.079H171.854ZM171.854 113.768V108.32H95.0891V113.768H171.854ZM61.009 152.496H64.6024V151.634H61.3556C61.4197 151.386 61.4539 151.134 61.4539 150.882C61.4539 149.473 60.3214 148.542 58.7107 148.542C56.3436 148.542 54.3354 149.903 53.5398 151.634H50.8073V152.496H53.2529C53.2011 152.744 53.1741 152.995 53.1741 153.248C53.1741 154.708 54.3821 155.588 55.8921 155.588C57.8092 155.588 60.069 154.218 61.009 152.496ZM64.6024 146.185H52.2273V145.323H64.6024V146.185ZM50.0186 139.874H64.6026V139.012H50.0186V139.874ZM141.696 146.185H137.948C138.329 146.582 138.547 147.108 138.547 147.727C138.547 150.118 135.477 152.433 132.986 152.433C131.476 152.433 130.268 151.552 130.268 150.092C130.268 148.552 131.27 147.063 132.793 146.185H127.112V145.323H141.696V146.185ZM127.112 139.874H141.696V139.012H127.112V139.874ZM208.94 145.323C209.064 144.966 209.12 144.629 209.12 144.32C209.12 142.885 208.013 141.979 206.855 141.904C206.427 141.904 205.823 142.105 205.471 142.332C205.32 142.457 205.043 142.684 204.917 142.684C204.867 142.684 204.842 142.684 204.791 142.659C204.615 142.583 204.515 142.407 204.515 142.231C204.54 141.677 204.691 135.637 204.691 135.134C204.691 134.857 204.464 134.706 204.213 134.706C203.86 134.706 203.458 134.958 203.432 135.411C203.432 135.411 203.533 149.781 203.734 150.033C203.81 150.133 203.885 150.158 203.961 150.158C204.036 150.158 204.112 150.108 204.112 150.108C204.552 149.859 204.941 149.524 205.313 149.203L205.313 149.203C205.579 148.974 205.838 148.751 206.1 148.573C207.277 147.753 208.051 146.94 208.52 146.185H210.775C210.723 146.433 210.696 146.684 210.696 146.937C210.696 148.397 211.904 149.278 213.414 149.278C215.332 149.278 217.591 147.907 218.531 146.185H222.126V145.323H218.878C218.942 145.075 218.976 144.824 218.976 144.571C218.976 143.162 217.844 142.231 216.233 142.231C213.866 142.231 211.858 143.592 211.062 145.323H208.94ZM207.542 139.874H222.126V139.012H207.542V139.874ZM287.885 146.185H284.651V145.323H288.172C288.968 143.592 290.976 142.231 293.343 142.231C294.953 142.231 296.086 143.162 296.086 144.571C296.086 144.824 296.052 145.075 295.988 145.323H299.23V146.185H295.641C294.701 147.907 292.441 149.278 290.524 149.278C289.014 149.278 287.806 148.397 287.806 146.937C287.806 146.684 287.833 146.433 287.885 146.185ZM284.651 139.874H299.23V139.012H284.651V139.874ZM370.752 139.874H367.276V139.012H379.657V139.874H375.906C376.287 140.271 376.506 140.797 376.506 141.416C376.506 143.807 373.435 146.122 370.944 146.122C369.434 146.122 368.226 145.241 368.226 143.782C368.226 142.241 369.229 140.752 370.752 139.874ZM442.176 139.874H447.859C446.337 140.752 445.334 142.241 445.334 143.782C445.334 145.241 446.542 146.122 448.052 146.122C450.543 146.122 453.614 143.807 453.614 141.416C453.614 140.797 453.395 140.271 453.014 139.874H456.763V139.012H442.176V139.874ZM45.5371 151.411C45.6378 151.411 46.116 151.184 46.1915 151.134C46.1954 151.134 46.1994 151.133 46.2033 151.132C46.2057 151.132 46.208 151.131 46.2103 151.13C46.2122 151.129 46.214 151.129 46.2158 151.128L46.2238 151.124L46.2292 151.121C46.2355 151.118 46.2417 151.115 46.248 151.113C46.2543 151.11 46.2606 151.109 46.267 151.109C46.4431 151.109 46.5941 151.361 46.5941 151.562V154.053C46.5941 154.33 46.4683 154.557 46.3173 154.632C46.1663 154.683 45.6378 154.909 45.6378 154.909C45.4616 154.959 45.3358 155.161 45.3358 155.312V157.099C45.3358 157.25 45.4113 157.325 45.5371 157.325C45.5497 157.325 45.5686 157.319 45.5875 157.312C45.6064 157.306 45.6252 157.3 45.6378 157.3C45.6378 157.3 45.9901 157.149 46.2166 157.073C46.2418 157.048 46.267 157.048 46.2921 157.048C46.4683 157.048 46.5941 157.325 46.5941 157.451V160.546C46.5941 160.697 46.7451 160.823 46.9213 160.823C47.173 160.823 47.3491 160.697 47.3491 160.546V157.048C47.3491 156.721 47.475 156.545 47.6008 156.495L49.136 155.865C49.1461 155.865 49.1603 155.861 49.1753 155.856C49.1789 155.855 49.1826 155.854 49.1863 155.853C49.1944 155.85 49.2026 155.847 49.2102 155.845C49.2203 155.842 49.2295 155.84 49.2366 155.84C49.438 155.84 49.5638 156.142 49.5638 156.293V159.439C49.5638 159.59 49.7148 159.716 49.891 159.716C50.1678 159.716 50.3188 159.59 50.3188 159.439V155.865C50.3188 155.664 50.4194 155.362 50.5956 155.287C50.7718 155.211 51.3003 155.01 51.3003 155.01C51.4764 154.934 51.6023 154.733 51.6023 154.582V152.795C51.6023 152.669 51.5268 152.594 51.4261 152.594C51.3758 152.594 51.3506 152.594 51.3003 152.619L50.646 152.871C50.4949 152.871 50.3188 152.72 50.3188 152.418V150.077C50.3188 149.901 50.4446 149.423 50.646 149.347L51.3003 149.096C51.4764 149.02 51.6023 148.819 51.6023 148.668V146.881C51.6023 146.755 51.5268 146.68 51.4261 146.68C51.3758 146.68 51.3506 146.68 51.3003 146.705C51.3003 146.705 50.7969 146.906 50.6711 146.931C50.4949 146.931 50.3188 146.805 50.3188 146.604V143.534C50.3188 143.383 50.1678 143.257 49.9665 143.257C49.7148 143.257 49.5638 143.383 49.5638 143.534V146.805C49.5386 147.057 49.4631 147.384 49.2366 147.535C48.9346 147.711 48.079 148.064 47.6511 148.164C47.4246 148.164 47.3491 147.862 47.3491 147.661V144.641C47.3491 144.49 47.173 144.364 46.9968 144.364C46.7451 144.364 46.5941 144.49 46.5941 144.641V148.039C46.5941 148.391 46.4431 148.643 46.2921 148.718C46.1411 148.794 45.6378 148.995 45.6378 148.995C45.4616 149.045 45.3358 149.247 45.3358 149.398V151.184C45.3358 151.335 45.4113 151.411 45.5371 151.411ZM47.2736 152.82C47.2736 152.04 47.2988 151.159 47.3491 150.958C47.3995 150.53 48.5571 150.002 49.1863 150.002C49.3625 150.002 49.5135 150.052 49.5638 150.153C49.6141 150.278 49.6645 150.908 49.6645 151.587C49.6645 152.267 49.6141 152.971 49.5638 153.198C49.4128 153.701 48.23 154.204 47.6511 154.204C47.5001 154.204 47.3743 154.154 47.3491 154.079C47.2988 153.978 47.2736 153.424 47.2736 152.82ZM206.352 143.238C205.773 143.238 204.766 143.967 204.59 144.471C204.565 144.571 204.54 144.873 204.54 145.276C204.54 146.283 204.615 147.793 204.615 147.793C204.615 147.919 204.666 148.17 204.892 148.17C204.968 148.17 205.043 148.145 205.144 148.095C206.226 147.415 207.384 146.056 207.384 144.697C207.384 144.068 207.082 143.238 206.352 143.238ZM362.119 141.315C362.295 140.812 363.301 140.082 363.88 140.082C364.61 140.082 364.912 140.913 364.912 141.542C364.912 142.901 363.754 144.26 362.672 144.939C362.572 144.99 362.496 145.015 362.421 145.015C362.194 145.015 362.144 144.763 362.144 144.637C362.144 144.637 362.068 143.127 362.068 142.121C362.068 141.718 362.093 141.416 362.119 141.315Z" fill="black"/>
</svg>
