<svg width="493" height="126" viewBox="0 0 493 126" fill="none" xmlns="http://www.w3.org/2000/svg">
<path fill-rule="evenodd" clip-rule="evenodd" d="M48.4763 5.53516H48.2034C48.1526 6.03451 47.9854 6.5529 47.7019 7.09033C47.4226 7.62354 47.0417 8.00228 46.5593 8.22656C46.0769 8.45085 45.6051 8.56299 45.1438 8.56299C44.2805 8.56299 43.559 8.22021 42.9792 7.53467C42.3995 6.84489 42.1096 5.85465 42.1096 4.56396C42.1096 3.20133 42.3741 2.15397 42.9031 1.42188C43.4363 0.689779 44.1536 0.32373 45.0549 0.32373C45.7913 0.32373 46.4514 0.55013 47.0354 1.00293C47.6236 1.45573 48.0129 2.26188 48.2034 3.42139H48.4763L48.4001 0.158691H48.1208C48.0828 0.543783 47.9727 0.916178 47.7908 1.27588C47.5326 0.954264 47.1412 0.662272 46.6165 0.399902C46.0959 0.133301 45.5141 0 44.8708 0C44.0922 0 43.377 0.181966 42.7253 0.545898C42.0737 0.909831 41.5658 1.46842 41.2019 2.22168C40.838 2.9707 40.656 3.77051 40.656 4.62109C40.656 5.91602 41.0496 6.95703 41.8367 7.74414C42.628 8.53125 43.6458 8.9248 44.8899 8.9248C46.0663 8.9248 47.0333 8.4974 47.7908 7.64258C47.9897 7.90495 48.1272 8.20752 48.2034 8.55029H48.4763V5.53516ZM52.0183 2.67236H49.9172V3.33252H51.8787L51.3645 5.80811H49.9172V6.46826H51.2249L50.679 9.06445H51.3455L51.8723 6.46826H54.6843L54.1321 9.06445H54.7986L55.3381 6.46826H57.4202V5.80811H55.4714L55.9856 3.33252H57.4202V2.67236H56.1125L56.6648 0.0634766H56.0046L55.4587 2.67236H52.6721L53.2244 0.0634766H52.5706L52.0183 2.67236ZM54.8176 5.79541H52.012L52.5325 3.33252H55.3318L54.8176 5.79541ZM58.7468 8.37256V8.76611H62.4856C62.7268 8.76611 62.8749 8.77669 62.9299 8.79785C62.9849 8.82324 63.0125 8.89941 63.0125 9.02637C63.0125 9.09831 63.0061 9.15544 62.9934 9.19775C62.968 9.27393 62.9553 9.3501 62.9553 9.42627H63.2537L63.6155 8.00439H59.5784C60.1158 7.5516 60.8246 6.87663 61.7048 5.97949C62.5893 5.07812 63.1458 4.40951 63.3743 3.97363C63.6028 3.53353 63.717 3.07015 63.717 2.5835C63.717 1.80908 63.461 1.2251 62.949 0.831543C62.4412 0.437988 61.8699 0.241211 61.2351 0.241211C60.6342 0.241211 60.0819 0.431641 59.5784 0.8125C59.0748 1.18913 58.823 1.70117 58.823 2.34863C58.823 2.75065 58.9119 3.08073 59.0896 3.33887C59.2716 3.59277 59.426 3.71973 59.553 3.71973C59.6461 3.71973 59.7646 3.65413 59.9084 3.52295C60.0523 3.39176 60.1243 3.28809 60.1243 3.21191C60.1243 3.16536 60.0608 3.09766 59.9338 3.00879C59.5911 2.77181 59.4197 2.4502 59.4197 2.04395C59.4197 1.68848 59.5509 1.35417 59.8132 1.04102C60.0798 0.727865 60.4543 0.571289 60.9368 0.571289C61.4277 0.571289 61.8381 0.742676 62.1682 1.08545C62.4983 1.42399 62.6633 1.95508 62.6633 2.67871C62.6633 3.28385 62.5004 3.88265 62.1746 4.4751C61.8487 5.06755 61.3155 5.77214 60.575 6.58887C59.8386 7.40137 59.2292 7.99593 58.7468 8.37256ZM127.71 0.158691L126.294 0.228516V0.520508H126.548C126.984 0.520508 127.265 0.558594 127.392 0.634766C127.524 0.706706 127.608 0.844238 127.646 1.04736C127.689 1.24626 127.71 1.68848 127.71 2.37402V6.52539C127.71 7.24479 127.689 7.70394 127.646 7.90283C127.608 8.09749 127.517 8.24137 127.373 8.33447C127.234 8.42757 126.98 8.47412 126.612 8.47412H126.256V8.76611H130.071C130.786 8.76611 131.341 8.74495 131.734 8.70264C132.128 8.65609 132.542 8.54395 132.978 8.36621C133.418 8.18425 133.803 7.92188 134.134 7.5791C134.468 7.2321 134.73 6.79834 134.921 6.27783C135.111 5.75309 135.206 5.17546 135.206 4.54492C135.206 3.67318 135.031 2.90511 134.679 2.24072C134.332 1.5721 133.801 1.04313 133.086 0.653809C132.371 0.264486 131.374 0.0698242 130.096 0.0698242C129.686 0.0698242 128.89 0.0994466 127.71 0.158691ZM128.948 6.15723V0.40625C129.278 0.385091 129.603 0.374512 129.925 0.374512C130.594 0.374512 131.142 0.440104 131.569 0.571289C131.996 0.698242 132.386 0.941569 132.737 1.30127C133.088 1.65674 133.357 2.12012 133.543 2.69141C133.734 3.2627 133.829 3.91227 133.829 4.64014C133.829 5.57536 133.666 6.34554 133.34 6.95068C133.018 7.5516 132.616 7.95573 132.134 8.16309C131.652 8.36621 131.036 8.46777 130.287 8.46777C129.775 8.46777 129.438 8.41911 129.278 8.32178C129.121 8.22021 129.026 8.04671 128.992 7.80127C128.962 7.55583 128.948 7.00781 128.948 6.15723ZM136.622 8.37256V8.76611H140.361C140.602 8.76611 140.75 8.77669 140.805 8.79785C140.86 8.82324 140.887 8.89941 140.887 9.02637C140.887 9.09831 140.881 9.15544 140.868 9.19775C140.843 9.27393 140.83 9.3501 140.83 9.42627H141.129L141.49 8.00439H137.453C137.991 7.5516 138.7 6.87663 139.58 5.97949C140.464 5.07812 141.021 4.40951 141.249 3.97363C141.478 3.53353 141.592 3.07015 141.592 2.5835C141.592 1.80908 141.336 1.2251 140.824 0.831543C140.316 0.437988 139.745 0.241211 139.11 0.241211C138.509 0.241211 137.957 0.431641 137.453 0.8125C136.95 1.18913 136.698 1.70117 136.698 2.34863C136.698 2.75065 136.787 3.08073 136.965 3.33887C137.147 3.59277 137.301 3.71973 137.428 3.71973C137.521 3.71973 137.64 3.65413 137.783 3.52295C137.927 3.39176 137.999 3.28809 137.999 3.21191C137.999 3.16536 137.936 3.09766 137.809 3.00879C137.466 2.77181 137.295 2.4502 137.295 2.04395C137.295 1.68848 137.426 1.35417 137.688 1.04102C137.955 0.727865 138.329 0.571289 138.812 0.571289C139.303 0.571289 139.713 0.742676 140.043 1.08545C140.373 1.42399 140.538 1.95508 140.538 2.67871C140.538 3.28385 140.375 3.88265 140.05 4.4751C139.724 5.06755 139.191 5.77214 138.45 6.58887C137.714 7.40137 137.104 7.99593 136.622 8.37256ZM293.715 6.0874H293.41C293.258 6.72217 293.048 7.22152 292.781 7.58545C292.519 7.94515 292.242 8.18425 291.95 8.30273C291.658 8.41699 291.286 8.47412 290.833 8.47412H290.192C289.616 8.47412 289.263 8.38525 289.132 8.20752C289 8.02555 288.935 7.42464 288.935 6.40479V4.36719H289.881C290.249 4.36719 290.509 4.39258 290.661 4.44336C290.818 4.48991 290.936 4.5957 291.017 4.76074C291.097 4.92155 291.137 5.24105 291.137 5.71924H291.436V2.77393H291.137C291.137 3.1971 291.11 3.48275 291.055 3.63086C291.004 3.77474 290.894 3.88265 290.725 3.95459C290.56 4.02653 290.268 4.0625 289.849 4.0625H288.935V0.450684H290.128C290.729 0.450684 291.165 0.484538 291.436 0.552246C291.707 0.615723 291.939 0.774414 292.134 1.02832C292.333 1.27799 292.5 1.70329 292.635 2.3042H292.934L292.731 0.158691H286.58V0.450684C286.995 0.450684 287.265 0.493001 287.392 0.577637C287.523 0.65804 287.606 0.801921 287.64 1.00928C287.678 1.21663 287.697 1.64827 287.697 2.3042V6.52539C287.697 7.24479 287.68 7.69336 287.646 7.87109C287.612 8.0446 287.532 8.18848 287.405 8.30273C287.282 8.41699 287.007 8.47412 286.58 8.47412H286.402V8.76611H293.531L293.715 6.0874ZM294.857 8.37256V8.76611H298.596C298.837 8.76611 298.985 8.77669 299.04 8.79785C299.095 8.82324 299.123 8.89941 299.123 9.02637C299.123 9.09831 299.116 9.15544 299.104 9.19775C299.078 9.27393 299.066 9.3501 299.066 9.42627H299.364L299.726 8.00439H295.689C296.226 7.5516 296.935 6.87663 297.815 5.97949C298.7 5.07812 299.256 4.40951 299.485 3.97363C299.713 3.53353 299.827 3.07015 299.827 2.5835C299.827 1.80908 299.571 1.2251 299.059 0.831543C298.552 0.437988 297.98 0.241211 297.345 0.241211C296.745 0.241211 296.192 0.431641 295.689 0.8125C295.185 1.18913 294.933 1.70117 294.933 2.34863C294.933 2.75065 295.022 3.08073 295.2 3.33887C295.382 3.59277 295.536 3.71973 295.663 3.71973C295.756 3.71973 295.875 3.65413 296.019 3.52295C296.163 3.39176 296.235 3.28809 296.235 3.21191C296.235 3.16536 296.171 3.09766 296.044 3.00879C295.701 2.77181 295.53 2.4502 295.53 2.04395C295.53 1.68848 295.661 1.35417 295.924 1.04102C296.19 0.727865 296.565 0.571289 297.047 0.571289C297.538 0.571289 297.948 0.742676 298.279 1.08545C298.609 1.42399 298.774 1.95508 298.774 2.67871C298.774 3.28385 298.611 3.88265 298.285 4.4751C297.959 5.06755 297.426 5.77214 296.685 6.58887C295.949 7.40137 295.34 7.99593 294.857 8.37256ZM372.042 0.158691L372.112 2.3042H371.813C371.754 1.83447 371.621 1.44727 371.413 1.14258C371.21 0.833659 370.996 0.641113 370.772 0.564941C370.548 0.48877 370.169 0.450684 369.636 0.450684H367.954V4.10059H368.76C369.281 4.10059 369.625 4.01383 369.795 3.84033C369.968 3.6626 370.055 3.30924 370.055 2.78027H370.372V5.81445H370.055C370.055 5.44629 370.017 5.15641 369.941 4.94482C369.869 4.729 369.759 4.58301 369.611 4.50684C369.467 4.42643 369.183 4.38623 368.76 4.38623H367.954V6.52539C367.954 7.20247 367.971 7.64681 368.005 7.8584C368.038 8.06575 368.123 8.22021 368.259 8.32178C368.398 8.42334 368.665 8.47412 369.058 8.47412H369.35V8.76611H365.351V8.47412H365.618C365.986 8.47412 366.24 8.42757 366.38 8.33447C366.524 8.24137 366.615 8.09749 366.653 7.90283C366.695 7.70394 366.716 7.24479 366.716 6.52539V2.3042C366.716 1.61865 366.695 1.17643 366.653 0.977539C366.615 0.778646 366.53 0.641113 366.399 0.564941C366.272 0.48877 365.99 0.450684 365.554 0.450684H365.402V0.158691H372.042ZM372.918 8.76611V8.37256C373.4 7.99593 374.01 7.40137 374.746 6.58887C375.486 5.77214 376.02 5.06755 376.345 4.4751C376.671 3.88265 376.834 3.28385 376.834 2.67871C376.834 1.95508 376.669 1.42399 376.339 1.08545C376.009 0.742676 375.599 0.571289 375.108 0.571289C374.625 0.571289 374.251 0.727865 373.984 1.04102C373.722 1.35417 373.591 1.68848 373.591 2.04395C373.591 2.4502 373.762 2.77181 374.105 3.00879C374.232 3.09766 374.295 3.16536 374.295 3.21191C374.295 3.28809 374.223 3.39176 374.079 3.52295C373.935 3.65413 373.817 3.71973 373.724 3.71973C373.597 3.71973 373.442 3.59277 373.26 3.33887C373.083 3.08073 372.994 2.75065 372.994 2.34863C372.994 1.70117 373.246 1.18913 373.749 0.8125C374.253 0.431641 374.805 0.241211 375.406 0.241211C376.041 0.241211 376.612 0.437988 377.12 0.831543C377.632 1.2251 377.888 1.80908 377.888 2.5835C377.888 3.07015 377.774 3.53353 377.545 3.97363C377.317 4.40951 376.76 5.07812 375.876 5.97949C374.996 6.87663 374.287 7.5516 373.749 8.00439H377.786L377.425 9.42627H377.126C377.126 9.3501 377.139 9.27393 377.164 9.19775C377.177 9.15544 377.183 9.09831 377.183 9.02637C377.183 8.89941 377.156 8.82324 377.101 8.79785C377.046 8.77669 376.898 8.76611 376.656 8.76611H372.918ZM441.042 0.158691L441.112 2.3042H440.813C440.754 1.83447 440.621 1.44727 440.413 1.14258C440.21 0.833659 439.996 0.641113 439.772 0.564941C439.548 0.48877 439.169 0.450684 438.636 0.450684H436.954V4.10059H437.76C438.281 4.10059 438.625 4.01383 438.795 3.84033C438.968 3.6626 439.055 3.30924 439.055 2.78027H439.372V5.81445H439.055C439.055 5.44629 439.017 5.15641 438.941 4.94482C438.869 4.729 438.759 4.58301 438.611 4.50684C438.467 4.42643 438.183 4.38623 437.76 4.38623H436.954V6.52539C436.954 7.20247 436.971 7.64681 437.005 7.8584C437.038 8.06575 437.123 8.22021 437.259 8.32178C437.398 8.42334 437.665 8.47412 438.058 8.47412H438.35V8.76611H434.351V8.47412H434.618C434.986 8.47412 435.24 8.42757 435.38 8.33447C435.524 8.24137 435.615 8.09749 435.653 7.90283C435.695 7.70394 435.716 7.24479 435.716 6.52539V2.3042C435.716 1.61865 435.695 1.17643 435.653 0.977539C435.615 0.778646 435.53 0.641113 435.399 0.564941C435.272 0.48877 434.99 0.450684 434.554 0.450684H434.402V0.158691H441.042ZM441.759 2.67236H443.86L444.412 0.0634766H445.066L444.514 2.67236H447.301L447.846 0.0634766H448.507L447.954 2.67236H449.262V3.33252H447.827L447.313 5.80811H449.262V6.46826H447.18L446.64 9.06445H445.974L446.526 6.46826H443.714L443.187 9.06445H442.521L443.067 6.46826H441.759V5.80811H443.206L443.72 3.33252H441.759V2.67236ZM443.854 5.79541H446.659L447.174 3.33252H444.374L443.854 5.79541ZM450.589 8.76611V8.37256C451.071 7.99593 451.68 7.40137 452.417 6.58887C453.157 5.77214 453.691 5.06755 454.016 4.4751C454.342 3.88265 454.505 3.28385 454.505 2.67871C454.505 1.95508 454.34 1.42399 454.01 1.08545C453.68 0.742676 453.269 0.571289 452.779 0.571289C452.296 0.571289 451.922 0.727865 451.655 1.04102C451.393 1.35417 451.261 1.68848 451.261 2.04395C451.261 2.4502 451.433 2.77181 451.776 3.00879C451.903 3.09766 451.966 3.16536 451.966 3.21191C451.966 3.28809 451.894 3.39176 451.75 3.52295C451.606 3.65413 451.488 3.71973 451.395 3.71973C451.268 3.71973 451.113 3.59277 450.931 3.33887C450.754 3.08073 450.665 2.75065 450.665 2.34863C450.665 1.70117 450.917 1.18913 451.42 0.8125C451.924 0.431641 452.476 0.241211 453.077 0.241211C453.712 0.241211 454.283 0.437988 454.791 0.831543C455.303 1.2251 455.559 1.80908 455.559 2.5835C455.559 3.07015 455.445 3.53353 455.216 3.97363C454.988 4.40951 454.431 5.07812 453.547 5.97949C452.666 6.87663 451.958 7.5516 451.42 8.00439H455.457L455.095 9.42627H454.797C454.797 9.3501 454.81 9.27393 454.835 9.19775C454.848 9.15544 454.854 9.09831 454.854 9.02637C454.854 8.89941 454.827 8.82324 454.772 8.79785C454.717 8.77669 454.569 8.76611 454.327 8.76611H450.589ZM206.715 6.0874H206.41C206.258 6.72217 206.048 7.22152 205.781 7.58545C205.519 7.94515 205.242 8.18425 204.95 8.30273C204.658 8.41699 204.286 8.47412 203.833 8.47412H203.192C202.616 8.47412 202.263 8.38525 202.132 8.20752C202 8.02555 201.935 7.42464 201.935 6.40479V4.36719H202.881C203.249 4.36719 203.509 4.39258 203.661 4.44336C203.818 4.48991 203.936 4.5957 204.017 4.76074C204.097 4.92155 204.137 5.24105 204.137 5.71924H204.436V2.77393H204.137C204.137 3.1971 204.11 3.48275 204.055 3.63086C204.004 3.77474 203.894 3.88265 203.725 3.95459C203.56 4.02653 203.268 4.0625 202.849 4.0625H201.935V0.450684H203.128C203.729 0.450684 204.165 0.484538 204.436 0.552246C204.707 0.615723 204.939 0.774414 205.134 1.02832C205.333 1.27799 205.5 1.70329 205.635 2.3042H205.934L205.731 0.158691H199.58V0.450684C199.995 0.450684 200.265 0.493001 200.392 0.577637C200.524 0.65804 200.606 0.801921 200.64 1.00928C200.678 1.21663 200.697 1.64827 200.697 2.3042V6.52539C200.697 7.24479 200.68 7.69336 200.646 7.87109C200.612 8.0446 200.532 8.18848 200.405 8.30273C200.282 8.41699 200.007 8.47412 199.58 8.47412H199.402V8.76611H206.531L206.715 6.0874ZM208.117 8.97559H208.365C208.534 8.61165 208.756 8.29216 209.031 8.01709C209.226 8.33447 209.467 8.57357 209.755 8.73438C210.047 8.89518 210.386 8.97559 210.771 8.97559C211.554 8.97559 212.191 8.70475 212.681 8.16309C213.172 7.62142 213.418 6.94434 213.418 6.13184C213.418 5.32357 213.179 4.65918 212.7 4.13867C212.222 3.61816 211.609 3.35791 210.86 3.35791C210.546 3.35791 210.238 3.4235 209.933 3.55469C209.628 3.68587 209.328 3.88477 209.031 4.15137V0.0380859H208.898C208.771 0.0973307 208.532 0.156576 208.181 0.21582C207.83 0.275065 207.529 0.304688 207.28 0.304688V0.59668C207.559 0.59668 207.753 0.63265 207.864 0.70459C207.978 0.77653 208.048 0.886556 208.073 1.03467C208.103 1.18278 208.117 1.51074 208.117 2.01855V8.97559ZM209.031 6.56348V4.52588C209.302 4.24658 209.575 4.03923 209.85 3.90381C210.13 3.76416 210.413 3.69434 210.701 3.69434C211.205 3.69434 211.607 3.89746 211.907 4.30371C212.212 4.70573 212.364 5.29395 212.364 6.06836C212.364 6.91048 212.201 7.55583 211.875 8.00439C211.554 8.45296 211.12 8.67725 210.574 8.67725C210.219 8.67725 209.907 8.57145 209.641 8.35986C209.374 8.14827 209.205 7.92822 209.133 7.69971C209.065 7.46696 209.031 7.08822 209.031 6.56348ZM214.636 8.37256V8.76611H218.375C218.616 8.76611 218.765 8.77669 218.82 8.79785C218.875 8.82324 218.902 8.89941 218.902 9.02637C218.902 9.09831 218.896 9.15544 218.883 9.19775C218.858 9.27393 218.845 9.3501 218.845 9.42627H219.143L219.505 8.00439H215.468C216.005 7.5516 216.714 6.87663 217.594 5.97949C218.479 5.07812 219.035 4.40951 219.264 3.97363C219.492 3.53353 219.607 3.07015 219.607 2.5835C219.607 1.80908 219.351 1.2251 218.839 0.831543C218.331 0.437988 217.76 0.241211 217.125 0.241211C216.524 0.241211 215.972 0.431641 215.468 0.8125C214.964 1.18913 214.713 1.70117 214.713 2.34863C214.713 2.75065 214.802 3.08073 214.979 3.33887C215.161 3.59277 215.316 3.71973 215.443 3.71973C215.536 3.71973 215.654 3.65413 215.798 3.52295C215.942 3.39176 216.014 3.28809 216.014 3.21191C216.014 3.16536 215.95 3.09766 215.823 3.00879C215.481 2.77181 215.309 2.4502 215.309 2.04395C215.309 1.68848 215.441 1.35417 215.703 1.04102C215.969 0.727865 216.344 0.571289 216.826 0.571289C217.317 0.571289 217.728 0.742676 218.058 1.08545C218.388 1.42399 218.553 1.95508 218.553 2.67871C218.553 3.28385 218.39 3.88265 218.064 4.4751C217.738 5.06755 217.205 5.77214 216.465 6.58887C215.728 7.40137 215.119 7.99593 214.636 8.37256ZM442.128 19.3034C442.053 19.3537 441.575 19.5802 441.474 19.5802C441.348 19.5802 441.273 19.5047 441.273 19.3537V17.5669C441.273 17.4159 441.398 17.2146 441.575 17.1642C441.575 17.1642 442.078 16.9629 442.229 16.8874C442.38 16.8119 442.531 16.5602 442.531 16.2079V12.8104C442.531 12.6594 442.682 12.5336 442.934 12.5336C443.11 12.5336 443.286 12.6594 443.286 12.8104V15.8304C443.286 16.0317 443.361 16.3337 443.588 16.3337C444.016 16.2331 444.871 15.8807 445.173 15.7046C445.4 15.5536 445.475 15.2264 445.501 14.9747V11.7031C445.501 11.5521 445.652 11.4263 445.903 11.4263C446.105 11.4263 446.256 11.5521 446.256 11.7031V14.7734C446.256 14.9747 446.432 15.1006 446.608 15.1006C446.734 15.0754 447.237 14.8741 447.237 14.8741C447.287 14.8489 447.313 14.8489 447.363 14.8489C447.464 14.8489 447.539 14.9244 447.539 15.0502V16.8371C447.539 16.9881 447.413 17.1894 447.237 17.2649L446.583 17.5166C446.381 17.5921 446.256 18.0702 446.256 18.2464V19.8033H449.477C450.273 18.0726 452.281 16.7112 454.648 16.7112C456.259 16.7112 457.391 17.6424 457.391 19.0517C457.391 19.304 457.357 19.5554 457.293 19.8033H491.339V18.6568H491.684V19.8033H492.141V20.6658H491.684V26.1143H492.141V26.9769H491.684V32.4251H492.141V33.2877H491.684V38.7361H492.141V39.5987H491.684V45.0472H492.141V45.9097H491.684V47.0562H491.339V45.9097H410.048V47.0562H409.703V45.9097H332.302V47.0562H331.957V45.9097H254.549V47.0562H254.204V45.9097H173.48V47.0562H173.134V45.9097H95.7295V47.0562H95.3845V45.9097H15.5945C15.8672 47.4347 16.2169 49.4334 16.2169 50.6938C16.2169 54.9721 12.9453 55.7271 11.2591 55.7271C7.45899 55.7271 6.4775 53.2608 6.4775 51.625C6.4775 50.0647 7.48416 48.7308 9.17031 48.7308C10.7055 48.7308 11.5863 49.9137 11.5863 51.2978C11.5863 52.7575 10.6803 53.437 9.90014 53.6635C9.32131 53.8396 9.09481 53.9151 9.09481 54.0913C9.09481 54.4185 9.74914 54.8211 11.1081 54.8211C12.593 54.8211 15.1096 54.3681 15.1096 50.6435C15.1096 49.5353 14.7782 47.5434 14.4881 45.9097H0V45.0472H9.01067C6.07977 44.1537 4.2659 42.0593 3.5316 39.5987H0V38.7361H3.32096C3.21052 38.1608 3.15552 37.5715 3.15552 36.9781C3.15552 35.6521 3.41746 34.4272 3.86902 33.2877H0V32.4251H4.25381C5.28179 30.3539 6.91973 28.5729 8.68029 26.9769H0V26.1143H9.66112C9.98395 25.838 10.3079 25.567 10.63 25.3008C10.9181 25.0607 10.9084 25.0039 10.8632 24.737L10.8565 24.6968C10.6842 23.6876 10.5119 22.1007 10.5044 20.6658H0.00012207V19.8033H10.5214C10.6316 17.3587 11.2867 14.6085 12.9705 12.7427C13.4738 12.1891 14.2539 11.5347 14.6063 11.5347C14.8831 11.5347 15.5374 12.2394 15.9149 12.7931C16.9468 14.303 17.5508 16.4674 17.5508 18.6569C17.5508 19.0457 17.5297 19.4278 17.4891 19.8033H95.3845V18.6568H95.7295V19.8033H173.134V18.6568H173.48V19.8033H204.783C204.737 16.3414 204.714 13.0466 204.714 13.0466C204.739 12.5936 205.142 12.3419 205.494 12.3419C205.746 12.3419 205.972 12.4929 205.972 12.7697C205.972 13.2582 205.83 18.9598 205.799 19.8033H207.061C207.399 19.652 207.817 19.5395 208.137 19.5395C208.469 19.5612 208.798 19.6515 209.097 19.8033H254.204V18.6568H254.549V19.8033H331.957V18.6568H332.302V19.8033H367.842C368.638 18.0726 370.646 16.7112 373.013 16.7112C374.624 16.7112 375.756 17.6424 375.756 19.0517C375.756 19.304 375.722 19.5554 375.658 19.8033H409.703V18.6568H410.048V19.8033H442.531V19.7312C442.531 19.5299 442.38 19.2782 442.204 19.2782C442.191 19.2782 442.179 19.2845 442.166 19.2908L442.158 19.2949C442.155 19.2962 442.152 19.2975 442.149 19.2987C442.142 19.3015 442.135 19.3034 442.128 19.3034ZM15.9554 19.8033C16.2914 19.08 16.4938 18.312 16.4938 17.4992C16.4938 16.115 15.8143 15.4355 14.9838 15.4355C13.7259 15.4355 12.2822 17.0576 11.8017 19.8033H15.9554ZM11.687 20.6658H15.4824C14.6028 22.0595 13.2886 23.2689 12.1148 24.2941C11.9386 24.4451 11.838 24.42 11.7876 24.0928C11.687 23.4385 11.6366 22.5828 11.6366 21.7775C11.6366 21.3921 11.6541 21.0213 11.687 20.6658ZM17.3597 20.6658H95.3845V26.1143H51.6023V24.5168C51.6023 24.391 51.5268 24.3155 51.4261 24.3155C51.3758 24.3155 51.3506 24.3155 51.3003 24.3406C51.3003 24.3406 50.7969 24.542 50.6711 24.5671C50.4949 24.5671 50.3188 24.4413 50.3188 24.24V21.1697C50.3188 21.0187 50.1678 20.8928 49.9665 20.8928C49.7148 20.8928 49.5638 21.0187 49.5638 21.1697V24.4413C49.5386 24.693 49.4631 25.0201 49.2366 25.1711C48.9346 25.3473 48.079 25.6996 47.6511 25.8003C47.4246 25.8003 47.3491 25.4983 47.3491 25.297V22.277C47.3491 22.126 47.173 22.0001 46.9968 22.0001C46.7451 22.0001 46.5941 22.126 46.5941 22.277V25.6745C46.5941 25.8488 46.5572 25.9984 46.5016 26.1143H14.7441C16.0175 24.5025 16.9713 22.6863 17.3597 20.6658ZM14.016 26.9769C13.6209 27.4164 13.2034 27.8392 12.7691 28.2453L12.7408 28.2734C12.612 28.4008 12.5711 28.4412 12.6181 28.7235L13.2473 32.3726L13.2561 32.4251H45.9216C46.0724 32.3623 46.2419 32.2932 46.3173 32.2681C46.4683 32.1926 46.5941 31.9661 46.5941 31.6893V29.1978C46.5941 28.9964 46.4431 28.7448 46.267 28.7448C46.2544 28.7448 46.2418 28.7511 46.2292 28.7574C46.2166 28.7636 46.2041 28.7699 46.1915 28.7699C46.116 28.8203 45.6378 29.0468 45.5371 29.0468C45.4113 29.0468 45.3358 28.9713 45.3358 28.8203V27.0335C45.3358 27.0152 45.3377 26.9962 45.3412 26.9769H14.016ZM12.2162 32.4251L11.7121 29.3526C11.6618 29.0758 11.6115 29.0506 11.3598 29.252L11.3238 29.2811C10.2505 30.1488 9.19481 31.0023 7.87433 32.4251H12.2162ZM7.12039 33.2877H11.5679C9.52184 34.1128 8.21399 36.0177 8.21399 38.0602C8.21399 38.2926 8.22643 38.518 8.25061 38.7361H5.16924C5.16897 38.7122 5.16884 38.6882 5.16884 38.6642C5.16884 37.2771 5.38847 35.4507 7.12039 33.2877ZM5.23957 39.5987C5.70343 42.5895 8.41645 44.6035 12.4168 44.6035C12.9201 44.6035 13.4235 44.5532 13.8261 44.4777L13.8453 44.4739C14.2045 44.4021 14.2279 44.3974 14.1784 44.1254L13.4189 39.5987H9.91003C10.0019 40.6677 10.7254 41.6388 11.7121 42.0617L11.741 42.074C11.9096 42.1457 12.0896 42.2223 12.0896 42.3889C12.0896 42.5399 11.989 42.6657 11.7876 42.6657C11.6115 42.6657 11.3095 42.5902 11.1081 42.5147C9.81522 42.0774 8.82396 41.0511 8.41654 39.5987H5.23957ZM9.96757 38.7361H13.2742L12.9201 36.6257C12.8698 36.3489 12.8195 36.3237 12.4168 36.4244C11.1166 36.7868 10.2135 37.6185 9.96757 38.7361ZM14.4969 39.5987L15.2103 43.7479C15.2606 44.0499 15.3109 44.0499 15.6129 43.8989C17.0223 43.1942 17.9786 41.9107 17.9786 40.3252C17.9786 40.0762 17.9573 39.8335 17.9165 39.5987H14.4969ZM17.6676 38.7361H14.3486L13.9771 36.5754C13.9268 36.2734 13.9519 36.1979 14.2539 36.2231C15.769 36.354 17.0894 37.3329 17.6676 38.7361ZM20.0404 38.7361C19.9843 36.3532 18.6325 34.2002 16.4076 33.2877H45.3358V34.7344C45.3358 34.8854 45.4113 34.9609 45.5371 34.9609C45.5497 34.9609 45.5686 34.9546 45.5875 34.9483C45.6064 34.942 45.6252 34.9357 45.6378 34.9357C45.6378 34.9357 45.9901 34.7847 46.2166 34.7092C46.2418 34.6841 46.267 34.6841 46.2921 34.6841C46.4683 34.6841 46.5941 34.9609 46.5941 35.0867V38.1822C46.5941 38.3332 46.7451 38.459 46.9213 38.459C47.173 38.459 47.3491 38.3332 47.3491 38.1822V34.6841C47.3491 34.3569 47.475 34.1807 47.6008 34.1304L49.136 33.5012C49.1485 33.5012 49.1674 33.495 49.1863 33.4887C49.2052 33.4824 49.224 33.4761 49.2366 33.4761C49.438 33.4761 49.5638 33.7781 49.5638 33.9291V37.0749C49.5638 37.2259 49.7148 37.3517 49.891 37.3517C50.1678 37.3517 50.3188 37.2259 50.3188 37.0749V33.5012C50.3188 33.4368 50.3291 33.362 50.3489 33.2877H95.3845V38.7361H20.0404ZM20.0064 39.5987C19.7501 42.0892 18.1406 43.9591 15.8143 44.8804L15.765 44.9013L15.7186 44.9207C15.5936 44.9728 15.5249 45.0015 15.4921 45.0472H95.3845V39.5987H20.0064ZM446.26 20.6658H449.191C449.139 20.9133 449.112 21.1647 449.112 21.4174C449.112 22.877 450.32 23.7579 451.83 23.7579C453.747 23.7579 456.007 22.3871 456.947 20.6658H491.339V26.1143H446.256V24.0347C446.256 23.8334 446.356 23.5314 446.532 23.4559C446.709 23.3804 447.237 23.179 447.237 23.179C447.413 23.1035 447.539 22.9022 447.539 22.7512V20.9644C447.539 20.8385 447.464 20.763 447.363 20.763C447.313 20.763 447.287 20.763 447.237 20.7882L446.583 21.0399C446.445 21.0399 446.288 20.9152 446.26 20.6658ZM442.531 20.6658H410.048V26.1143H442.531V25.6202C442.531 25.4943 442.405 25.2175 442.229 25.2175C442.204 25.2175 442.179 25.2175 442.153 25.2427C441.927 25.3182 441.575 25.4692 441.575 25.4692C441.568 25.4692 441.56 25.4709 441.55 25.4735C441.546 25.4748 441.541 25.4764 441.535 25.478L441.524 25.4818L441.505 25.4879C441.493 25.4916 441.482 25.4943 441.474 25.4943C441.348 25.4943 441.273 25.4188 441.273 25.2678V23.481C441.273 23.33 441.398 23.1287 441.575 23.0784C441.575 23.0784 442.103 22.8519 442.254 22.8015C442.405 22.726 442.531 22.4995 442.531 22.2227V20.6658ZM442.531 26.9769V28.7157C442.531 28.8667 442.682 28.9925 442.858 28.9925C443.11 28.9925 443.286 28.8667 443.286 28.7157V26.9769H445.501V27.6083C445.501 27.7593 445.652 27.8852 445.828 27.8852C446.105 27.8852 446.256 27.7593 446.256 27.6083V26.9769H491.339V32.4251H410.048V26.9769H442.531ZM445.574 20.6658C445.555 20.9856 445.528 21.2453 445.501 21.367C445.35 21.8704 444.167 22.3737 443.588 22.3737C443.437 22.3737 443.311 22.3234 443.286 22.2479C443.236 22.1472 443.21 21.5935 443.21 20.9895C443.21 20.8829 443.211 20.7743 443.212 20.6658H445.574ZM445.601 19.8033H443.231C443.243 19.4785 443.262 19.2241 443.286 19.1272C443.336 18.6994 444.494 18.1709 445.123 18.1709C445.299 18.1709 445.45 18.2212 445.501 18.3219C445.551 18.4477 445.601 19.0769 445.601 19.7564L445.601 19.8033ZM445.501 26.1143H443.286V25.2175C443.286 24.8904 443.412 24.7142 443.538 24.6639L445.073 24.0347C445.078 24.0347 445.084 24.0337 445.09 24.0322C445.1 24.0298 445.112 24.0259 445.123 24.0221C445.142 24.0158 445.161 24.0095 445.173 24.0095C445.375 24.0095 445.501 24.3115 445.501 24.4625V26.1143ZM205.242 27.7942C205.167 27.7942 205.091 27.769 205.016 27.6683C204.991 27.6371 204.968 27.3885 204.946 26.9769H173.48V32.4251H254.204V26.9769H206.434C206.11 27.2535 205.771 27.5301 205.393 27.7438C205.393 27.7438 205.318 27.7942 205.242 27.7942ZM204.909 26.1143C204.863 24.7751 204.825 22.7369 204.795 20.6658H173.48V26.1143H204.909ZM367.477 21.4174C367.477 21.1647 367.504 20.9133 367.555 20.6658H332.302V26.1143H409.703V20.6658H375.311C374.371 22.3871 372.112 23.7579 370.195 23.7579C368.685 23.7579 367.477 22.877 367.477 21.4174ZM210.046 20.6658C210.268 21.0237 210.402 21.4578 210.402 21.9555C210.402 23.0898 209.653 24.5866 207.515 26.1143H212.579C212.203 25.7243 211.978 25.2025 211.978 24.5729C211.978 23.0323 212.981 21.5429 214.504 20.6658H210.046ZM254.204 26.1143H217.448C219.003 25.2328 220.258 23.7354 220.258 22.2072C220.258 21.5885 220.04 21.0619 219.658 20.6658H254.204V26.1143ZM207.633 20.8734C207.054 20.8734 206.048 21.6032 205.872 22.1065C205.846 22.2072 205.821 22.5092 205.821 22.9118C205.821 23.9185 205.897 25.4285 205.897 25.4285C205.897 25.5543 205.947 25.806 206.174 25.806C206.249 25.806 206.325 25.7808 206.425 25.7305C207.507 25.051 208.665 23.692 208.665 22.333C208.665 21.7039 208.363 20.8734 207.633 20.8734ZM53.7753 32.4251H51.5393C51.5793 32.356 51.6023 32.2823 51.6023 32.2178V30.4309C51.6023 30.3051 51.5268 30.2296 51.4261 30.2296C51.3758 30.2296 51.3506 30.2296 51.3003 30.2548L50.646 30.5064C50.4949 30.5064 50.3188 30.3554 50.3188 30.0534V27.7129C50.3188 27.5368 50.4446 27.0586 50.646 26.9831L50.6622 26.9769H55.6997C54.1769 27.8539 53.1741 29.3434 53.1741 30.8839C53.1741 31.5134 53.3987 32.0352 53.7753 32.4251ZM58.644 32.4251H95.3845V26.9769H60.8543C61.2356 27.3729 61.4539 27.8995 61.4539 28.5183C61.4539 30.0463 60.1997 31.5435 58.644 32.4251ZM491.339 45.0472V39.5987H410.048V45.0472H491.339ZM491.339 38.7361V33.2877H410.048V38.7361H491.339ZM332.302 26.9769H409.703V32.4251H332.302V26.9769ZM332.302 33.2877H409.703V38.7361H332.302V33.2877ZM332.302 39.5987H409.703V45.0472H332.302V39.5987ZM331.957 45.0472V39.5987H254.549V45.0472H331.957ZM331.957 38.7361V33.2877H254.549V38.7361H331.957ZM331.957 32.4251V26.9769H254.549V32.4251H331.957ZM331.957 26.1143V20.6658H297.407C297.789 21.0619 298.007 21.5885 298.007 22.2072C298.007 23.7354 296.753 25.2328 295.197 26.1143H331.957ZM290.329 26.1143H254.549V20.6658H292.253C290.73 21.5429 289.727 23.0323 289.727 24.5729C289.727 25.2025 289.952 25.7243 290.329 26.1143ZM173.48 33.2877H254.204V38.7361H173.48V33.2877ZM173.48 39.5987H254.204V45.0472H173.48V39.5987ZM173.134 45.0472V39.5987H95.7295V45.0472H173.134ZM173.134 38.7361V33.2877H95.7295V38.7361H173.134ZM173.134 32.4251V26.9769H138.743C137.803 28.6981 135.543 30.0689 133.626 30.0689C132.116 30.0689 130.908 29.1881 130.908 27.7284C130.908 27.4757 130.935 27.2244 130.987 26.9769H95.7295V32.4251H173.134ZM173.134 26.1143H139.09C139.154 25.8664 139.188 25.615 139.188 25.3628C139.188 23.9534 138.055 23.0223 136.445 23.0223C134.078 23.0223 132.07 24.3836 131.274 26.1143H95.7295V20.6658H173.134V26.1143ZM47.2736 30.4561C47.2736 29.6759 47.2988 28.7951 47.3491 28.5938C47.3995 28.1659 48.5571 27.6374 49.1863 27.6374C49.3625 27.6374 49.5135 27.6878 49.5638 27.7884C49.6141 27.9143 49.6645 28.5434 49.6645 29.2229C49.6645 29.9024 49.6141 30.6071 49.5638 30.8336C49.4128 31.3369 48.23 31.8403 47.6511 31.8403C47.5001 31.8403 47.3743 31.7899 47.3491 31.7144C47.2988 31.6138 47.2736 31.0601 47.2736 30.4561ZM58.7014 62.8179H54.988V63.1226H55.1912C55.5297 63.1226 55.7625 63.1501 55.8894 63.2051C56.0164 63.2559 56.1095 63.3596 56.1687 63.5162C56.2322 63.6685 56.2639 63.9753 56.2639 64.4366C56.2639 64.8301 56.1983 65.156 56.0671 65.4141C55.936 65.6723 55.6905 65.8923 55.3308 66.0743C54.9711 66.252 54.5712 66.3409 54.1311 66.3409C53.2721 66.3409 52.5527 66.0235 51.9729 65.3887C51.3931 64.7497 51.1033 63.6664 51.1033 62.1387C51.1033 60.6068 51.4037 59.5404 52.0046 58.9395C52.6055 58.3386 53.3101 58.0381 54.1184 58.0381C54.9013 58.0381 55.5657 58.2963 56.1116 58.8126C56.6617 59.3288 56.9981 60.0292 57.1208 60.9136H57.4255V58.0381H57.1208C57.0828 58.3809 56.9939 58.7004 56.8542 58.9966C56.101 58.1503 55.1488 57.7271 53.9978 57.7271C52.6606 57.7271 51.6026 58.1905 50.824 59.1172C50.0453 60.044 49.656 61.1231 49.656 62.3546C49.656 63.5987 50.0644 64.627 50.8811 65.4395C51.6978 66.2478 52.7219 66.6519 53.9534 66.6519C54.567 66.6519 55.2335 66.5165 55.9529 66.2457C56.4819 66.0468 56.9093 65.9473 57.2351 65.9473C57.3155 65.9473 57.4065 65.9558 57.5081 65.9727V65.0587C57.5081 64.3181 57.5313 63.8526 57.5779 63.6622C57.6244 63.4675 57.7196 63.33 57.8635 63.2496C58.0116 63.1649 58.2909 63.1226 58.7014 63.1226V62.8179ZM59.7615 66.0997V66.4932H63.5002C63.7415 66.4932 63.8896 66.5038 63.9446 66.525C63.9996 66.5504 64.0271 66.6265 64.0271 66.7535C64.0271 66.8254 64.0208 66.8825 64.0081 66.9249C63.9827 67.001 63.97 67.0772 63.97 67.1534H64.2683L64.6301 65.7315H60.593C61.1305 65.2787 61.8393 64.6037 62.7195 63.7066C63.6039 62.8052 64.1604 62.1366 64.3889 61.7007C64.6174 61.2606 64.7317 60.7973 64.7317 60.3106C64.7317 59.5362 64.4757 58.9522 63.9636 58.5587C63.4558 58.1651 62.8845 57.9683 62.2498 57.9683C61.6488 57.9683 61.0966 58.1588 60.593 58.5396C60.0894 58.9162 59.8376 59.4283 59.8376 60.0757C59.8376 60.4778 59.9265 60.8078 60.1042 61.066C60.2862 61.3199 60.4407 61.4468 60.5676 61.4468C60.6607 61.4468 60.7792 61.3812 60.9231 61.2501C61.067 61.1189 61.1389 61.0152 61.1389 60.939C61.1389 60.8925 61.0754 60.8248 60.9485 60.7359C60.6057 60.4989 60.4343 60.1773 60.4343 59.7711C60.4343 59.4156 60.5655 59.0813 60.8279 58.7681C61.0945 58.455 61.469 58.2984 61.9514 58.2984C62.4423 58.2984 62.8528 58.4698 63.1829 58.8126C63.5129 59.1511 63.678 59.6822 63.678 60.4058C63.678 61.011 63.5151 61.6098 63.1892 62.2022C62.8634 62.7947 62.3302 63.4992 61.5896 64.316C60.8533 65.1285 60.2439 65.723 59.7615 66.0997ZM209.332 63.3194H212.601L213.261 64.9127C213.456 65.3739 213.553 65.6511 213.553 65.7442C213.553 65.9262 213.479 66.0489 213.331 66.1124C213.187 66.1716 212.908 66.2012 212.493 66.2012V66.4932H215.876V66.2012C215.576 66.1716 215.349 66.0997 215.197 65.9854C215.049 65.8669 214.93 65.7061 214.842 65.503L214.448 64.6016L211.573 57.7652H211.325L208.824 63.7383C208.642 64.1657 208.54 64.4112 208.519 64.4747C208.257 65.1475 208.033 65.5897 207.846 65.8013C207.66 66.0087 207.377 66.142 206.996 66.2012V66.4932H209.554V66.2012C209.279 66.2012 209.052 66.1356 208.875 66.0045C208.701 65.869 208.615 65.6723 208.615 65.4141C208.615 65.1729 208.78 64.6566 209.11 63.8653L209.332 63.3194ZM210.969 59.3648L212.493 63.0338H209.452L210.969 59.3648ZM216.543 66.0997V66.4932H220.281C220.523 66.4932 220.671 66.5038 220.726 66.525C220.781 66.5504 220.808 66.6265 220.808 66.7535C220.808 66.8254 220.802 66.8825 220.789 66.9249C220.764 67.001 220.751 67.0772 220.751 67.1534H221.05L221.411 65.7315H217.374C217.912 65.2787 218.621 64.6037 219.501 63.7066C220.385 62.8052 220.942 62.1366 221.17 61.7007C221.399 61.2606 221.513 60.7973 221.513 60.3106C221.513 59.5362 221.257 58.9522 220.745 58.5587C220.237 58.1651 219.666 57.9683 219.031 57.9683C218.43 57.9683 217.878 58.1588 217.374 58.5396C216.871 58.9162 216.619 59.4283 216.619 60.0757C216.619 60.4778 216.708 60.8078 216.885 61.066C217.067 61.3199 217.222 61.4468 217.349 61.4468C217.442 61.4468 217.56 61.3812 217.704 61.2501C217.848 61.1189 217.92 61.0152 217.92 60.939C217.92 60.8925 217.857 60.8248 217.73 60.7359C217.387 60.4989 217.216 60.1773 217.216 59.7711C217.216 59.4156 217.347 59.0813 217.609 58.7681C217.876 58.455 218.25 58.2984 218.733 58.2984C219.224 58.2984 219.634 58.4698 219.964 58.8126C220.294 59.1511 220.459 59.6822 220.459 60.4058C220.459 61.011 220.296 61.6098 219.97 62.2022C219.645 62.7947 219.111 63.4992 218.371 64.316C217.635 65.1285 217.025 65.723 216.543 66.0997ZM369.515 61.8594C370.493 61.9314 371.219 62.1747 371.693 62.5894C372.167 63.0041 372.404 63.5225 372.404 64.1446C372.404 64.6863 372.243 65.1539 371.921 65.5474C371.6 65.9367 371.187 66.1928 370.683 66.3155C370.184 66.434 369.513 66.4932 368.671 66.4932H365.294V66.2012H365.624C365.992 66.2012 366.246 66.1547 366.386 66.0616C366.53 65.9685 366.621 65.8246 366.659 65.6299C366.697 65.4311 366.716 64.9719 366.716 64.2525V60.063C366.716 59.3648 366.695 58.9141 366.653 58.711C366.615 58.5079 366.53 58.3682 366.399 58.2921C366.272 58.2159 365.99 58.1778 365.554 58.1778H365.389V57.8858L366.805 57.8477L368.417 57.7969C370.77 57.7969 371.947 58.474 371.947 59.8282C371.947 60.3868 371.743 60.8353 371.337 61.1739C370.935 61.5124 370.328 61.7409 369.515 61.8594ZM367.96 61.7388C368.066 61.7431 368.155 61.7452 368.227 61.7452C369.141 61.7452 369.765 61.6013 370.099 61.3135C370.434 61.0258 370.601 60.5603 370.601 59.9171C370.601 59.4685 370.535 59.1215 370.404 58.876C370.273 58.6306 370.076 58.4423 369.814 58.3111C369.551 58.1757 369.103 58.108 368.468 58.108C368.303 58.108 368.134 58.1143 367.96 58.127V61.7388ZM367.96 62.0499V63.9669C367.96 64.7836 367.975 65.302 368.005 65.522C368.034 65.7421 368.113 65.9092 368.24 66.0235C368.371 66.1378 368.627 66.1949 369.008 66.1949C369.685 66.1949 370.192 66.0214 370.531 65.6744C370.87 65.3274 371.039 64.8069 371.039 64.1129C371.039 63.4019 370.846 62.8793 370.461 62.545C370.08 62.2064 369.407 62.0372 368.443 62.0372C368.29 62.0372 368.129 62.0414 367.96 62.0499ZM373.73 66.4932V66.0997C374.213 65.723 374.822 65.1285 375.558 64.316C376.299 63.4992 376.832 62.7947 377.158 62.2022C377.484 61.6098 377.647 61.011 377.647 60.4058C377.647 59.6822 377.482 59.1511 377.152 58.8126C376.822 58.4698 376.411 58.2984 375.92 58.2984C375.438 58.2984 375.063 58.455 374.797 58.7681C374.534 59.0813 374.403 59.4156 374.403 59.7711C374.403 60.1773 374.574 60.4989 374.917 60.7359C375.044 60.8248 375.108 60.8925 375.108 60.939C375.108 61.0152 375.036 61.1189 374.892 61.2501C374.748 61.3812 374.629 61.4468 374.536 61.4468C374.409 61.4468 374.255 61.3199 374.073 61.066C373.895 60.8078 373.806 60.4778 373.806 60.0757C373.806 59.4283 374.058 58.9162 374.562 58.5396C375.065 58.1588 375.618 57.9683 376.219 57.9683C376.853 57.9683 377.425 58.1651 377.932 58.5587C378.444 58.9522 378.7 59.5362 378.7 60.3106C378.7 60.7973 378.586 61.2606 378.358 61.7007C378.129 62.1366 377.573 62.8052 376.688 63.7066C375.808 64.6037 375.099 65.2787 374.562 65.7315H378.599L378.237 67.1534H377.939C377.939 67.0772 377.951 67.001 377.977 66.9249C377.99 66.8825 377.996 66.8254 377.996 66.7535C377.996 66.6265 377.968 66.5504 377.913 66.525C377.858 66.5038 377.71 66.4932 377.469 66.4932H373.73ZM449.476 63.2623H449.203C449.153 63.7616 448.985 64.28 448.702 64.8174C448.423 65.3506 448.042 65.7294 447.559 65.9537C447.077 66.178 446.605 66.2901 446.144 66.2901C445.281 66.2901 444.559 65.9473 443.979 65.2618C443.4 64.572 443.11 63.5818 443.11 62.2911C443.11 60.9284 443.374 59.8811 443.903 59.149C444.436 58.4169 445.154 58.0508 446.055 58.0508C446.791 58.0508 447.451 58.2772 448.035 58.73C448.624 59.1828 449.013 59.989 449.203 61.1485H449.476L449.4 57.8858H449.121C449.083 58.2709 448.973 58.6433 448.791 59.003C448.533 58.6814 448.141 58.3894 447.616 58.127C447.096 57.8604 446.514 57.7271 445.871 57.7271C445.092 57.7271 444.377 57.9091 443.725 58.273C443.074 58.6369 442.566 59.1955 442.202 59.9488C441.838 60.6978 441.656 61.4976 441.656 62.3482C441.656 63.6431 442.05 64.6841 442.837 65.4713C443.628 66.2584 444.646 66.6519 445.89 66.6519C447.066 66.6519 448.033 66.2245 448.791 65.3697C448.99 65.6321 449.127 65.9346 449.203 66.2774H449.476V63.2623ZM453.958 61.815C453.827 61.815 453.695 61.834 453.564 61.8721L454.078 61.5167C454.658 61.1273 455.069 60.7846 455.31 60.4883C455.555 60.1879 455.678 59.8642 455.678 59.5172C455.678 59.1236 455.498 58.7681 455.138 58.4507C454.783 58.1291 454.256 57.9683 453.558 57.9683C452.877 57.9683 452.333 58.1588 451.927 58.5396C451.52 58.9205 451.317 59.3458 451.317 59.8155C451.317 60.0482 451.374 60.2641 451.489 60.463C451.603 60.6618 451.725 60.7613 451.857 60.7613C451.92 60.7613 452.022 60.7296 452.161 60.6661C452.301 60.6026 452.371 60.5434 452.371 60.4883C452.371 60.4672 452.356 60.4418 452.326 60.4122C452.068 60.1498 451.939 59.8684 451.939 59.5679C451.939 59.1913 452.085 58.8824 452.377 58.6412C452.673 58.3957 453.012 58.273 453.393 58.273C453.765 58.273 454.064 58.3936 454.288 58.6348C454.512 58.8718 454.624 59.2082 454.624 59.6441C454.624 60.1011 454.516 60.4799 454.301 60.7803C454.085 61.0808 453.642 61.4574 452.974 61.9102C452.669 62.1176 452.483 62.2551 452.415 62.3228C452.352 62.3863 452.32 62.4477 452.32 62.5069C452.32 62.6423 452.384 62.71 452.51 62.71C452.574 62.71 452.635 62.6783 452.695 62.6148C453.046 62.2593 453.367 62.0816 453.659 62.0816C453.998 62.0816 454.29 62.2424 454.535 62.564C454.785 62.8856 454.91 63.3744 454.91 64.0303C454.91 64.8471 454.743 65.4501 454.408 65.8394C454.078 66.2287 453.647 66.4234 453.114 66.4234C452.902 66.4234 452.688 66.3663 452.472 66.252C452.252 66.142 452.083 65.8944 451.965 65.5093C451.871 65.2089 451.715 65.0587 451.495 65.0587C451.372 65.0587 451.273 65.1031 451.197 65.192C451.12 65.2766 451.082 65.3803 451.082 65.503C451.082 65.795 451.283 66.0679 451.685 66.3218C452.087 66.5757 452.568 66.7027 453.126 66.7027C453.96 66.7027 454.641 66.4551 455.17 65.96C455.699 65.4649 455.964 64.8301 455.964 64.0557C455.964 63.4125 455.784 62.8793 455.424 62.4561C455.069 62.0287 454.58 61.815 453.958 61.815ZM127.601 63.3194H124.332L124.11 63.8653C123.78 64.6566 123.615 65.1729 123.615 65.4141C123.615 65.6723 123.701 65.869 123.875 66.0045C124.052 66.1356 124.279 66.2012 124.554 66.2012V66.4932H121.996V66.2012C122.377 66.142 122.66 66.0087 122.846 65.8013C123.033 65.5897 123.257 65.1475 123.519 64.4747C123.54 64.4112 123.642 64.1657 123.824 63.7383L126.325 57.7652H126.573L129.448 64.6016L129.842 65.503C129.93 65.7061 130.049 65.8669 130.197 65.9854C130.349 66.0997 130.576 66.1716 130.876 66.2012V66.4932H127.493V66.2012C127.908 66.2012 128.187 66.1716 128.331 66.1124C128.479 66.0489 128.553 65.9262 128.553 65.7442C128.553 65.6511 128.456 65.3739 128.261 64.9127L127.601 63.3194ZM127.493 63.0338L125.969 59.3648L124.452 63.0338H127.493ZM132.051 66.7027H131.803V59.7457C131.803 59.2379 131.788 58.9099 131.759 58.7618C131.733 58.6137 131.663 58.5036 131.549 58.4317C131.439 58.3598 131.244 58.3238 130.965 58.3238V58.0318C131.215 58.0318 131.515 58.0022 131.866 57.9429C132.218 57.8837 132.457 57.8244 132.584 57.7652H132.717V61.8785C133.013 61.6119 133.314 61.413 133.618 61.2818C133.923 61.1506 134.232 61.085 134.545 61.085C135.294 61.085 135.908 61.3453 136.386 61.8658C136.864 62.3863 137.103 63.0507 137.103 63.8589C137.103 64.6714 136.858 65.3485 136.367 65.8902C135.876 66.4319 135.239 66.7027 134.456 66.7027C134.071 66.7027 133.733 66.6223 133.441 66.4615C133.153 66.3007 132.912 66.0616 132.717 65.7442C132.442 66.0193 132.22 66.3388 132.051 66.7027ZM132.717 62.253V64.2906C132.717 64.8153 132.751 65.1941 132.819 65.4268C132.891 65.6553 133.06 65.8754 133.326 66.087C133.593 66.2986 133.904 66.4044 134.26 66.4044C134.805 66.4044 135.239 66.1801 135.561 65.7315C135.887 65.2829 136.05 64.6376 136.05 63.7955C136.05 63.0211 135.897 62.4328 135.593 62.0308C135.292 61.6246 134.89 61.4214 134.386 61.4214C134.099 61.4214 133.815 61.4913 133.536 61.6309C133.261 61.7663 132.988 61.9737 132.717 62.253ZM138.322 66.4932V66.0997C138.804 65.723 139.414 65.1285 140.15 64.316C140.891 63.4992 141.424 62.7947 141.75 62.2022C142.076 61.6098 142.239 61.011 142.239 60.4058C142.239 59.6822 142.073 59.1511 141.743 58.8126C141.413 58.4698 141.003 58.2984 140.512 58.2984C140.03 58.2984 139.655 58.455 139.388 58.7681C139.126 59.0813 138.995 59.4156 138.995 59.7711C138.995 60.1773 139.166 60.4989 139.509 60.7359C139.636 60.8248 139.699 60.8925 139.699 60.939C139.699 61.0152 139.628 61.1189 139.484 61.2501C139.34 61.3812 139.221 61.4468 139.128 61.4468C139.001 61.4468 138.847 61.3199 138.665 61.066C138.487 60.8078 138.398 60.4778 138.398 60.0757C138.398 59.4283 138.65 58.9162 139.154 58.5396C139.657 58.1588 140.209 57.9683 140.81 57.9683C141.445 57.9683 142.016 58.1651 142.524 58.5587C143.036 58.9522 143.292 59.5362 143.292 60.3106C143.292 60.7973 143.178 61.2606 142.949 61.7007C142.721 62.1366 142.164 62.8052 141.28 63.7066C140.4 64.6037 139.691 65.2787 139.154 65.7315H143.191L142.829 67.1534H142.531C142.531 67.0772 142.543 67.001 142.569 66.9249C142.581 66.8825 142.588 66.8254 142.588 66.7535C142.588 66.6265 142.56 66.5504 142.505 66.525C142.45 66.5038 142.302 66.4932 142.061 66.4932H138.322ZM288.693 62.5894C288.219 62.1747 287.493 61.9314 286.515 61.8594C287.328 61.7409 287.935 61.5124 288.337 61.1739C288.743 60.8353 288.947 60.3868 288.947 59.8282C288.947 58.474 287.77 57.7969 285.417 57.7969L283.805 57.8477L282.389 57.8858V58.1778H282.554C282.99 58.1778 283.272 58.2159 283.399 58.2921C283.53 58.3682 283.615 58.5079 283.653 58.711C283.695 58.9141 283.716 59.3648 283.716 60.063V64.2525C283.716 64.9719 283.697 65.4311 283.659 65.6299C283.621 65.8246 283.53 65.9685 283.386 66.0616C283.246 66.1547 282.992 66.2012 282.624 66.2012H282.294V66.4932H285.671C286.513 66.4932 287.184 66.434 287.683 66.3155C288.187 66.1928 288.6 65.9367 288.921 65.5474C289.243 65.1539 289.404 64.6863 289.404 64.1446C289.404 63.5225 289.167 63.0041 288.693 62.5894ZM285.227 61.7452C285.155 61.7452 285.066 61.7431 284.96 61.7388V58.127C285.134 58.1143 285.303 58.108 285.468 58.108C286.103 58.108 286.551 58.1757 286.814 58.3111C287.076 58.4423 287.273 58.6306 287.404 58.876C287.535 59.1215 287.601 59.4685 287.601 59.9171C287.601 60.5603 287.434 61.0258 287.099 61.3135C286.765 61.6013 286.141 61.7452 285.227 61.7452ZM284.96 63.9669V62.0499C285.129 62.0414 285.29 62.0372 285.443 62.0372C286.407 62.0372 287.08 62.2064 287.461 62.545C287.846 62.8793 288.039 63.4019 288.039 64.1129C288.039 64.8069 287.87 65.3274 287.531 65.6744C287.192 66.0214 286.685 66.1949 286.008 66.1949C285.627 66.1949 285.371 66.1378 285.24 66.0235C285.113 65.9092 285.034 65.7421 285.005 65.522C284.975 65.302 284.96 64.7836 284.96 63.9669ZM290.99 66.7027H291.238C291.407 66.3388 291.629 66.0193 291.905 65.7442C292.099 66.0616 292.34 66.3007 292.628 66.4615C292.92 66.6223 293.259 66.7027 293.644 66.7027C294.427 66.7027 295.064 66.4319 295.554 65.8902C296.045 65.3485 296.291 64.6714 296.291 63.8589C296.291 63.0507 296.052 62.3863 295.573 61.8658C295.095 61.3453 294.482 61.085 293.733 61.085C293.419 61.085 293.111 61.1506 292.806 61.2818C292.501 61.413 292.201 61.6119 291.905 61.8785V57.7652H291.771C291.644 57.8244 291.405 57.8837 291.054 57.9429C290.703 58.0022 290.402 58.0318 290.153 58.0318V58.3238C290.432 58.3238 290.627 58.3598 290.737 58.4317C290.851 58.5036 290.921 58.6137 290.946 58.7618C290.976 58.9099 290.99 59.2379 290.99 59.7457V66.7027ZM291.905 64.2906V62.253C292.175 61.9737 292.448 61.7663 292.723 61.6309C293.003 61.4913 293.286 61.4214 293.574 61.4214C294.078 61.4214 294.48 61.6246 294.78 62.0308C295.085 62.4328 295.237 63.0211 295.237 63.7955C295.237 64.6376 295.074 65.2829 294.748 65.7315C294.427 66.1801 293.993 66.4044 293.447 66.4044C293.092 66.4044 292.781 66.2986 292.514 66.087C292.247 65.8754 292.078 65.6553 292.006 65.4268C291.938 65.1941 291.905 64.8153 291.905 64.2906ZM297.51 66.0997V66.4932H301.248C301.49 66.4932 301.638 66.5038 301.693 66.525C301.748 66.5504 301.775 66.6265 301.775 66.7535C301.775 66.8254 301.769 66.8825 301.756 66.9249C301.731 67.001 301.718 67.0772 301.718 67.1534H302.016L302.378 65.7315H298.341C298.878 65.2787 299.587 64.6037 300.468 63.7066C301.352 62.8052 301.908 62.1366 302.137 61.7007C302.365 61.2606 302.48 60.7973 302.48 60.3106C302.48 59.5362 302.224 58.9522 301.712 58.5587C301.204 58.1651 300.633 57.9683 299.998 57.9683C299.397 57.9683 298.845 58.1588 298.341 58.5396C297.837 58.9162 297.586 59.4283 297.586 60.0757C297.586 60.4778 297.675 60.8078 297.852 61.066C298.034 61.3199 298.189 61.4468 298.316 61.4468C298.409 61.4468 298.527 61.3812 298.671 61.2501C298.815 61.1189 298.887 61.0152 298.887 60.939C298.887 60.8925 298.823 60.8248 298.697 60.7359C298.354 60.4989 298.182 60.1773 298.182 59.7711C298.182 59.4156 298.314 59.0813 298.576 58.7681C298.843 58.455 299.217 58.2984 299.699 58.2984C300.19 58.2984 300.601 58.4698 300.931 58.8126C301.261 59.1511 301.426 59.6822 301.426 60.4058C301.426 61.011 301.263 61.6098 300.937 62.2022C300.611 62.7947 300.078 63.4992 299.338 64.316C298.601 65.1285 297.992 65.723 297.51 66.0997ZM284.381 84.6056C284.305 84.6056 284.23 84.5805 284.154 84.4798C283.953 84.2281 283.852 69.858 283.852 69.858C283.877 69.405 284.28 69.1534 284.632 69.1534C284.884 69.1534 285.111 69.3044 285.111 69.5812C285.111 70.0845 284.96 76.1245 284.934 76.6782C284.934 76.8543 285.035 77.0305 285.211 77.106C285.262 77.1312 285.287 77.1312 285.337 77.1312C285.463 77.1312 285.74 76.9047 285.891 76.7788C286.243 76.5523 286.847 76.351 287.275 76.351C288.432 76.4265 289.54 77.3325 289.54 78.767C289.54 79.9246 288.76 81.4598 286.52 83.0201C286.257 83.1987 285.999 83.421 285.733 83.6506C285.36 83.9712 284.972 84.306 284.532 84.5553C284.532 84.5553 284.456 84.6056 284.381 84.6056ZM286.771 77.6848C286.193 77.6848 285.186 78.4147 285.01 78.918C284.985 79.0187 284.96 79.3206 284.96 79.7233C284.96 80.73 285.035 82.24 285.035 82.24C285.035 82.3658 285.085 82.6175 285.312 82.6175C285.387 82.6175 285.463 82.5923 285.564 82.542C286.646 81.8625 287.803 80.5035 287.803 79.1445C287.803 78.5153 287.501 77.6848 286.771 77.6848ZM126.625 87.6352C126.701 87.7359 126.776 87.7611 126.852 87.7611C126.927 87.7611 127.003 87.7107 127.003 87.7107C127.443 87.4614 127.832 87.1267 128.204 86.806L128.204 86.806C128.471 86.5764 128.729 86.3541 128.991 86.1756C130.168 85.3558 130.942 84.543 131.411 83.7882H133.666C133.615 84.0357 133.588 84.2871 133.588 84.5398C133.588 85.9994 134.796 86.8803 136.306 86.8803C138.223 86.8803 140.482 85.5095 141.422 83.7882H145.016V82.9257H141.769C141.833 82.6778 141.867 82.4264 141.867 82.1741C141.867 80.7648 140.735 79.8336 139.124 79.8336C136.757 79.8336 134.749 81.195 133.953 82.9257H131.831C131.955 82.5688 132.011 82.2321 132.011 81.9224C132.011 80.488 130.904 79.582 129.746 79.5065C129.318 79.5065 128.714 79.7078 128.362 79.9343C128.211 80.0601 127.934 80.2866 127.808 80.2866C127.758 80.2866 127.733 80.2866 127.682 80.2615C127.506 80.186 127.406 80.0098 127.406 79.8336C127.431 79.28 127.582 73.24 127.582 72.7367C127.582 72.4598 127.355 72.3088 127.104 72.3088C126.751 72.3088 126.349 72.5605 126.323 73.0135C126.323 73.0135 126.424 87.3836 126.625 87.6352ZM127.481 82.0734C127.657 81.5701 128.664 80.8403 129.243 80.8403C129.973 80.8403 130.275 81.6708 130.275 82.2999C130.275 83.6589 129.117 85.0179 128.035 85.6974C127.934 85.7478 127.859 85.7729 127.783 85.7729C127.557 85.7729 127.506 85.5213 127.506 85.3954C127.506 85.3954 127.431 83.8854 127.431 82.8788C127.431 82.4761 127.456 82.1741 127.481 82.0734ZM442.176 77.4772H445.413C445.361 77.7247 445.334 77.9761 445.334 78.2288C445.334 79.6885 446.542 80.5693 448.052 80.5693C449.969 80.5693 452.229 79.1985 453.169 77.4772H456.762V76.6147H453.515C453.579 76.3668 453.614 76.1154 453.614 75.8632C453.614 74.4539 452.481 73.5227 450.87 73.5227C448.503 73.5227 446.495 74.884 445.699 76.6147H442.176V77.4772ZM94.7441 116.49V115.343H15.5945C15.8672 116.868 16.2169 118.867 16.2169 120.127C16.2169 124.406 12.9453 125.161 11.2591 125.161C7.45899 125.161 6.4775 122.694 6.4775 121.058C6.4775 119.498 7.48416 118.164 9.17031 118.164C10.7055 118.164 11.5863 119.347 11.5863 120.731C11.5863 122.191 10.6803 122.87 9.90014 123.097C9.32131 123.273 9.09481 123.349 9.09481 123.525C9.09481 123.852 9.74914 124.255 11.1081 124.255C12.593 124.255 15.1096 123.802 15.1096 120.077C15.1096 118.969 14.7782 116.977 14.4881 115.343H0V114.481H9.01067C6.07978 113.587 4.26591 111.493 3.53161 109.032H0V108.17H3.32097C3.21052 107.594 3.15552 107.005 3.15552 106.412C3.15552 105.086 3.41743 103.861 3.86892 102.721H0V101.859H4.25369C5.28167 99.7875 6.91969 98.0064 8.68032 96.4103H0V95.5478H9.66115C9.98397 95.2714 10.3079 95.0005 10.63 94.7343C10.9181 94.4942 10.9084 94.4373 10.8632 94.1705L10.8565 94.1303C10.6842 93.1211 10.5119 91.5341 10.5044 90.0993H0.00012207V89.2367H10.5214C10.6316 86.7922 11.2868 84.0419 12.9705 82.1762C13.4738 81.6225 14.2539 80.9682 14.6063 80.9682C14.8831 80.9682 15.5374 81.6729 15.9149 82.2265C16.9468 83.7365 17.5508 85.9008 17.5508 88.0903C17.5508 88.4791 17.5297 88.8613 17.4891 89.2367H53.7755C53.3988 88.8468 53.1741 88.3249 53.1741 87.6954C53.1741 85.2794 55.6404 82.9893 58.7107 82.9893C60.3214 82.9893 61.4539 83.9204 61.4539 85.3297C61.4539 86.8579 60.1995 88.3551 58.6438 89.2367H94.7441V88.0902H95.0891V89.2367H175.174V88.0902H175.519V89.2367H252.283V88.0902H252.628V89.2367H332.703V88.0902H333.048V89.2367H409.809V88.0902H410.154V89.2367H486.915V88.0902H487.26V89.2367H491.339V88.0902H491.684V89.2367H492.141V90.0993H491.684V95.5478H492.141V96.4103H491.684V101.859H492.141V102.721H491.684V108.17H492.141V109.032H491.684V114.481H492.141V115.343H491.684V116.49H491.339V115.343H487.26V116.49H486.915V115.343H410.154V116.49H409.809V115.343H333.048V116.49H332.703V115.343H252.628V116.49H252.283V115.343H175.519V116.49H175.174V115.343H95.0891V116.49H94.7441ZM15.9554 89.2367C16.2914 88.5134 16.4938 87.7454 16.4938 86.9327C16.4938 85.5485 15.8143 84.869 14.9838 84.869C13.7259 84.869 12.2822 86.4911 11.8017 89.2367H15.9554ZM11.687 90.0993H15.4824C14.6028 91.4929 13.2886 92.7024 12.1148 93.7276C11.9386 93.8786 11.838 93.8535 11.7876 93.5263C11.687 92.872 11.6366 92.0163 11.6366 91.211C11.6366 90.8256 11.6541 90.4547 11.687 90.0993ZM17.3597 90.0993H94.7441V95.5478H14.7441C16.0175 93.9359 16.9713 92.1198 17.3597 90.0993ZM14.0161 96.4103C13.6209 96.8498 13.2034 97.2726 12.7691 97.6788L12.7408 97.7069C12.612 97.8342 12.5711 97.8747 12.6181 98.1569L13.2473 101.806L13.2561 101.859H94.7441V96.4103H14.0161ZM12.2163 101.859L11.7121 98.7861C11.6618 98.5093 11.6115 98.4841 11.3598 98.6854L11.3238 98.7145C10.2504 99.5823 9.19469 100.436 7.8741 101.859H12.2163ZM7.12019 102.721H11.5673C9.52158 103.547 8.21399 105.451 8.21399 107.494C8.21399 107.726 8.22643 107.951 8.25062 108.17H5.16924C5.16897 108.146 5.16884 108.122 5.16884 108.098C5.16884 106.711 5.38846 104.884 7.12019 102.721ZM5.23957 109.032C5.70345 112.023 8.41646 114.037 12.4168 114.037C12.9201 114.037 13.4235 113.987 13.8261 113.911L13.8453 113.907C14.2045 113.836 14.2279 113.831 14.1784 113.559L13.4189 109.032H9.91003C10.0019 110.101 10.7254 111.072 11.7121 111.495L11.741 111.507C11.9096 111.579 12.0896 111.656 12.0896 111.822C12.0896 111.973 11.989 112.099 11.7876 112.099C11.6115 112.099 11.3095 112.024 11.1081 111.948C9.81523 111.511 8.82398 110.485 8.41655 109.032H5.23957ZM9.96756 108.17H13.2742L12.9201 106.059C12.8698 105.782 12.8195 105.757 12.4168 105.858C11.1166 106.22 10.2135 107.052 9.96756 108.17ZM14.4969 109.032L15.2103 113.181C15.2606 113.483 15.3109 113.483 15.6129 113.332C17.0223 112.628 17.9786 111.344 17.9786 109.759C17.9786 109.51 17.9573 109.267 17.9165 109.032H14.4969ZM17.6676 108.17H14.3486L13.9771 106.009C13.9268 105.707 13.9519 105.631 14.2539 105.657C15.769 105.787 17.0894 106.766 17.6676 108.17ZM20.0404 108.17C19.9843 105.787 18.6327 103.634 16.4082 102.721H94.7441V108.17H20.0404ZM20.0064 109.032C19.7501 111.523 18.1405 113.393 15.8143 114.314C15.7988 114.32 15.784 114.327 15.7697 114.333C15.7517 114.34 15.7347 114.347 15.7186 114.354C15.5936 114.406 15.5249 114.435 15.4921 114.481H94.7441V109.032H20.0064ZM487.26 90.0993H491.339V95.5478H487.26V90.0993ZM487.26 96.4103H491.339V101.859H487.26V96.4103ZM487.26 102.721H491.339V108.17H487.26V102.721ZM487.26 109.032H491.339V114.481H487.26V109.032ZM486.915 114.481V109.032H410.154V114.481H486.915ZM486.915 108.17V102.721H410.154V108.17H486.915ZM486.915 101.859V96.4103H410.154V101.859H486.915ZM486.915 95.5478V90.0993H410.154V95.5478H486.915ZM333.048 90.0993H409.809V95.5478H333.048V90.0993ZM333.048 96.4103H409.809V101.859H333.048V96.4103ZM333.048 102.721H409.809V108.17H333.048V102.721ZM333.048 109.032H409.809V114.481H333.048V109.032ZM332.703 114.481V109.032H252.628V114.481H332.703ZM332.703 108.17V102.721H252.628V108.17H332.703ZM332.703 101.859V96.4103H252.628V101.859H332.703ZM332.703 95.5478V90.0993H252.628V95.5478H332.703ZM175.519 90.0993H252.283V95.5478H175.519V90.0993ZM175.519 96.4103H252.283V101.859H175.519V96.4103ZM175.519 102.721H252.283V108.17H175.519V102.721ZM175.519 109.032H252.283V114.481H175.519V109.032ZM175.174 114.481V109.032H95.0891V114.481H175.174ZM175.174 108.17V102.721H95.0891V108.17H175.174ZM175.174 101.859V96.4103H95.0891V101.859H175.174ZM175.174 95.5478V90.0993H95.0891V95.5478H175.174ZM222.125 83.7882H218.531C217.591 85.5095 215.331 86.8803 213.414 86.8803C211.904 86.8803 210.696 85.9994 210.696 84.5398C210.696 84.2871 210.723 84.0357 210.775 83.7882H207.541V82.9257H211.062C211.858 81.195 213.866 79.8336 216.233 79.8336C217.844 79.8336 218.976 80.7648 218.976 82.1741C218.976 82.4264 218.942 82.6778 218.878 82.9257H222.125V83.7882ZM290.169 83.7882H302.54V82.9257H296.586C298.142 82.0441 299.396 80.5468 299.396 79.0186C299.396 77.6093 298.263 76.6782 296.653 76.6782C293.583 76.6782 291.116 78.9683 291.116 81.3843C291.116 82.0138 291.341 82.5357 291.718 82.9257H290.169V83.7882ZM379.656 83.7882H365.069V82.9257H368.827C368.451 82.5357 368.226 82.0138 368.226 81.3843C368.226 78.9683 370.692 76.6782 373.763 76.6782C375.373 76.6782 376.506 77.6093 376.506 79.0186C376.506 80.5468 375.251 82.0441 373.696 82.9257H379.656V83.7882ZM456.762 83.7882H442.176V82.9257H456.762V83.7882Z" fill="black"/>
</svg>
