<svg width="493" height="54" viewBox="0 0 493 54" fill="none" xmlns="http://www.w3.org/2000/svg">
<path fill-rule="evenodd" clip-rule="evenodd" d="M233.285 5.5542H236.554L237.215 7.14746C237.409 7.60872 237.507 7.8859 237.507 7.979C237.507 8.16097 237.433 8.28369 237.284 8.34717C237.141 8.40641 236.861 8.43604 236.447 8.43604V8.72803H239.83V8.43604C239.529 8.40641 239.303 8.33447 239.151 8.22021C239.003 8.10173 238.884 7.94092 238.795 7.73779L238.402 6.83643L235.526 0H235.279L232.778 5.97314C232.596 6.40055 232.494 6.646 232.473 6.70947C232.211 7.38232 231.986 7.82454 231.8 8.03613C231.614 8.24349 231.33 8.37679 230.949 8.43604V8.72803H233.508V8.43604C233.233 8.43604 233.006 8.37044 232.828 8.23926C232.655 8.10384 232.568 7.90706 232.568 7.64893C232.568 7.40771 232.733 6.89144 233.063 6.1001L233.285 5.5542ZM234.923 1.59961L236.447 5.26855H233.406L234.923 1.59961ZM240.179 5.86523H243.302V6.94434C243.302 7.54525 243.291 7.90918 243.27 8.03613C243.249 8.16309 243.184 8.26253 243.073 8.33447C242.968 8.40218 242.788 8.43604 242.534 8.43604H242.312V8.72803H245.086V8.43604C244.777 8.43604 244.565 8.40641 244.451 8.34717C244.337 8.28369 244.267 8.18848 244.241 8.06152C244.22 7.93034 244.21 7.55794 244.21 6.94434V5.86523H245.847L245.993 4.88135H245.714C245.596 5.19873 245.503 5.37858 245.435 5.4209C245.367 5.46322 245.153 5.48438 244.794 5.48438H244.21V0.203125H243.803L240.179 5.48438V5.86523ZM243.302 1.45361V5.48438H240.534L243.302 1.45361ZM250.462 2.31503V8.72803H250.924V2.31503C251.159 2.51303 251.511 2.72569 251.98 2.95303V2.56803C251.445 2.10603 251.049 1.62203 250.792 1.11603H250.594C250.345 1.62203 249.949 2.10603 249.406 2.56803V2.95303C249.875 2.72569 250.227 2.51303 250.462 2.31503Z" fill="black"/>
<path fill-rule="evenodd" clip-rule="evenodd" d="M42.5808 3.19922H42.5173C42.1238 3.3304 41.6265 3.42562 41.0256 3.48486V3.77686C41.3176 3.77686 41.5186 3.81071 41.6287 3.87842C41.7429 3.94613 41.8085 4.04769 41.8254 4.18311C41.8466 4.31429 41.8572 4.67611 41.8572 5.26855V6.82373C41.8572 7.45003 41.8445 7.82454 41.8191 7.94727C41.7937 8.06999 41.7239 8.16309 41.6096 8.22656C41.4996 8.28581 41.3049 8.31543 41.0256 8.31543V8.60742H43.571V8.31543C43.2875 8.31543 43.0907 8.27946 42.9807 8.20752C42.8707 8.13558 42.8072 8.02979 42.7903 7.89014C42.7734 7.75049 42.7649 7.39502 42.7649 6.82373V4.65918C43.0484 4.32064 43.3256 4.06673 43.5964 3.89746C43.8715 3.72819 44.1402 3.64355 44.4026 3.64355C44.6734 3.64355 44.8998 3.71761 45.0818 3.86572C45.2638 4.0096 45.3717 4.18522 45.4055 4.39258C45.4436 4.5957 45.4626 4.92578 45.4626 5.38281V6.82373C45.4626 7.45426 45.4478 7.83089 45.4182 7.95361C45.3928 8.07633 45.323 8.16732 45.2087 8.22656C45.0987 8.28581 44.9019 8.31543 44.6184 8.31543V8.60742H47.1321V8.31543C46.8655 8.31543 46.6793 8.27734 46.5735 8.20117C46.4719 8.12077 46.4127 8.01074 46.3958 7.87109C46.3831 7.72721 46.3767 7.37809 46.3767 6.82373V4.77344C46.656 4.39681 46.9332 4.1154 47.2083 3.9292C47.4875 3.743 47.7647 3.6499 48.0398 3.6499C48.3106 3.6499 48.5307 3.71338 48.7 3.84033C48.8692 3.96729 48.9729 4.11963 49.011 4.29736C49.0533 4.4751 49.0745 4.73958 49.0745 5.09082V6.82373C49.0745 7.4458 49.0618 7.82031 49.0364 7.94727C49.011 8.06999 48.9412 8.16309 48.8269 8.22656C48.7169 8.28581 48.5243 8.31543 48.2493 8.31543V8.60742H50.8455V8.31543C50.5408 8.31543 50.3313 8.28369 50.217 8.22021C50.107 8.15674 50.0393 8.05941 50.0139 7.92822C49.9928 7.79704 49.9822 7.42887 49.9822 6.82373V5.26221C49.9822 4.73324 49.9526 4.35026 49.8933 4.11328C49.8341 3.8763 49.6648 3.66471 49.3855 3.47852C49.1062 3.29232 48.7655 3.19922 48.3635 3.19922C48.0123 3.19922 47.6674 3.29655 47.3289 3.49121C46.9903 3.68587 46.6602 3.97786 46.3386 4.36719C46.2328 3.97786 46.0466 3.68587 45.78 3.49121C45.5134 3.29655 45.1664 3.19922 44.739 3.19922C44.3624 3.19922 44.009 3.2902 43.679 3.47217C43.3531 3.65413 43.0484 3.92708 42.7649 4.29102C42.7649 3.84668 42.7035 3.48275 42.5808 3.19922ZM51.8738 8.21387V8.60742H55.6125C55.8538 8.60742 56.0019 8.618 56.0569 8.63916C56.1119 8.66455 56.1394 8.74072 56.1394 8.86768C56.1394 8.93962 56.1331 8.99675 56.1204 9.03906C56.095 9.11523 56.0823 9.19141 56.0823 9.26758H56.3806L56.7424 7.8457H52.7053C53.2428 7.3929 53.9516 6.71794 54.8318 5.8208C55.7162 4.91943 56.2727 4.25081 56.5012 3.81494C56.7297 3.37484 56.844 2.91146 56.844 2.4248C56.844 1.65039 56.588 1.06641 56.0759 0.672852C55.5681 0.279297 54.9968 0.0825195 54.3621 0.0825195C53.7611 0.0825195 53.2089 0.272949 52.7053 0.653809C52.2017 1.03044 51.95 1.54248 51.95 2.18994C51.95 2.59196 52.0388 2.92204 52.2166 3.18018C52.3985 3.43408 52.553 3.56104 52.6799 3.56104C52.773 3.56104 52.8915 3.49544 53.0354 3.36426C53.1793 3.23307 53.2512 3.12939 53.2512 3.05322C53.2512 3.00667 53.1877 2.93896 53.0608 2.8501C52.718 2.61312 52.5466 2.2915 52.5466 1.88525C52.5466 1.52979 52.6778 1.19548 52.9402 0.882324C53.2068 0.569173 53.5813 0.412598 54.0637 0.412598C54.5546 0.412598 54.9651 0.583984 55.2952 0.926758C55.6252 1.2653 55.7903 1.79639 55.7903 2.52002C55.7903 3.12516 55.6274 3.72396 55.3015 4.31641C54.9757 4.90885 54.4425 5.61344 53.7019 6.43018C52.9656 7.24268 52.3562 7.83724 51.8738 8.21387ZM63.2146 2.19442V8.60742H63.6766V2.19442C63.9112 2.39242 64.2632 2.60509 64.7326 2.83242V2.44742C64.1972 1.98542 63.8012 1.50142 63.5446 0.995422H63.3466C63.0972 1.50142 62.7012 1.98542 62.1586 2.44742V2.83242C62.6279 2.60509 62.9799 2.39242 63.2146 2.19442Z" fill="black"/>
<path d="M63.2144 8.60736V2.19436C62.9798 2.39236 62.6278 2.60503 62.1584 2.83236V2.44736C62.7011 1.98536 63.0971 1.50136 63.3464 0.995361H63.5444C63.8011 1.50136 64.1971 1.98536 64.7324 2.44736V2.83236C64.2631 2.60503 63.9111 2.39236 63.6764 2.19436V8.60736H63.2144Z" fill="black"/>
<path fill-rule="evenodd" clip-rule="evenodd" d="M135.581 3.19922H135.517C135.124 3.3304 134.627 3.42562 134.026 3.48486V3.77686C134.318 3.77686 134.519 3.81071 134.629 3.87842C134.743 3.94613 134.809 4.04769 134.825 4.18311C134.847 4.31429 134.857 4.67611 134.857 5.26855V6.82373C134.857 7.45003 134.844 7.82454 134.819 7.94727C134.794 8.06999 134.724 8.16309 134.61 8.22656C134.5 8.28581 134.305 8.31543 134.026 8.31543V8.60742H136.571V8.31543C136.288 8.31543 136.091 8.27946 135.981 8.20752C135.871 8.13558 135.807 8.02979 135.79 7.89014C135.773 7.75049 135.765 7.39502 135.765 6.82373V4.65918C136.048 4.32064 136.326 4.06673 136.596 3.89746C136.872 3.72819 137.14 3.64355 137.403 3.64355C137.673 3.64355 137.9 3.71761 138.082 3.86572C138.264 4.0096 138.372 4.18522 138.406 4.39258C138.444 4.5957 138.463 4.92578 138.463 5.38281V6.82373C138.463 7.45426 138.448 7.83089 138.418 7.95361C138.393 8.07633 138.323 8.16732 138.209 8.22656C138.099 8.28581 137.902 8.31543 137.618 8.31543V8.60742H140.132V8.31543C139.865 8.31543 139.679 8.27734 139.573 8.20117C139.472 8.12077 139.413 8.01074 139.396 7.87109C139.383 7.72721 139.377 7.37809 139.377 6.82373V4.77344C139.656 4.39681 139.933 4.1154 140.208 3.9292C140.488 3.743 140.765 3.6499 141.04 3.6499C141.311 3.6499 141.531 3.71338 141.7 3.84033C141.869 3.96729 141.973 4.11963 142.011 4.29736C142.053 4.4751 142.074 4.73958 142.074 5.09082V6.82373C142.074 7.4458 142.062 7.82031 142.036 7.94727C142.011 8.06999 141.941 8.16309 141.827 8.22656C141.717 8.28581 141.524 8.31543 141.249 8.31543V8.60742H143.845V8.31543C143.541 8.31543 143.331 8.28369 143.217 8.22021C143.107 8.15674 143.039 8.05941 143.014 7.92822C142.993 7.79704 142.982 7.42887 142.982 6.82373V5.26221C142.982 4.73324 142.953 4.35026 142.893 4.11328C142.834 3.8763 142.665 3.66471 142.385 3.47852C142.106 3.29232 141.766 3.19922 141.364 3.19922C141.012 3.19922 140.667 3.29655 140.329 3.49121C139.99 3.68587 139.66 3.97786 139.339 4.36719C139.233 3.97786 139.047 3.68587 138.78 3.49121C138.513 3.29655 138.166 3.19922 137.739 3.19922C137.362 3.19922 137.009 3.2902 136.679 3.47217C136.353 3.65413 136.048 3.92708 135.765 4.29102C135.765 3.84668 135.704 3.48275 135.581 3.19922ZM147.756 3.9292C147.624 3.9292 147.493 3.94824 147.362 3.98633L147.876 3.63086C148.456 3.24154 148.866 2.89876 149.108 2.60254C149.353 2.30208 149.476 1.97835 149.476 1.63135C149.476 1.23779 149.296 0.882324 148.936 0.564941C148.581 0.243327 148.054 0.0825195 147.356 0.0825195C146.674 0.0825195 146.131 0.272949 145.724 0.653809C145.318 1.03467 145.115 1.45996 145.115 1.92969C145.115 2.16243 145.172 2.37826 145.286 2.57715C145.401 2.77604 145.523 2.87549 145.655 2.87549C145.718 2.87549 145.82 2.84375 145.959 2.78027C146.099 2.7168 146.169 2.65755 146.169 2.60254C146.169 2.58138 146.154 2.55599 146.124 2.52637C145.866 2.264 145.737 1.98258 145.737 1.68213C145.737 1.3055 145.883 0.996582 146.175 0.755371C146.471 0.509928 146.81 0.387207 147.191 0.387207C147.563 0.387207 147.861 0.507812 148.086 0.749023C148.31 0.986003 148.422 1.32243 148.422 1.7583C148.422 2.21533 148.314 2.59408 148.098 2.89453C147.883 3.19499 147.44 3.57161 146.772 4.02441C146.467 4.23177 146.281 4.3693 146.213 4.43701C146.15 4.50049 146.118 4.56185 146.118 4.62109C146.118 4.75651 146.181 4.82422 146.308 4.82422C146.372 4.82422 146.433 4.79248 146.492 4.729C146.844 4.37354 147.165 4.1958 147.457 4.1958C147.796 4.1958 148.088 4.35661 148.333 4.67822C148.583 4.99984 148.708 5.48861 148.708 6.14453C148.708 6.96126 148.541 7.56429 148.206 7.95361C147.876 8.34294 147.445 8.5376 146.911 8.5376C146.7 8.5376 146.486 8.48047 146.27 8.36621C146.05 8.25618 145.881 8.00863 145.762 7.62354C145.669 7.32308 145.513 7.17285 145.293 7.17285C145.17 7.17285 145.071 7.21729 144.994 7.30615C144.918 7.39079 144.88 7.49447 144.88 7.61719C144.88 7.90918 145.081 8.18213 145.483 8.43604C145.885 8.68994 146.365 8.81689 146.924 8.81689C147.758 8.81689 148.439 8.56934 148.968 8.07422C149.497 7.5791 149.761 6.94434 149.761 6.16992C149.761 5.52669 149.582 4.99349 149.222 4.57031C148.866 4.1429 148.378 3.9292 147.756 3.9292ZM156.215 2.19442V8.60742H156.677V2.19442C156.911 2.39242 157.263 2.60509 157.733 2.83242V2.44742C157.197 1.98542 156.801 1.50142 156.545 0.995422H156.347C156.097 1.50142 155.701 1.98542 155.159 2.44742V2.83242C155.628 2.60509 155.98 2.39242 156.215 2.19442Z" fill="black"/>
<path fill-rule="evenodd" clip-rule="evenodd" d="M329.581 3.19922H329.517C329.124 3.3304 328.627 3.42562 328.026 3.48486V3.77686C328.318 3.77686 328.519 3.81071 328.629 3.87842C328.743 3.94613 328.809 4.04769 328.825 4.18311C328.847 4.31429 328.857 4.67611 328.857 5.26855V6.82373C328.857 7.45003 328.844 7.82454 328.819 7.94727C328.794 8.06999 328.724 8.16309 328.61 8.22656C328.5 8.28581 328.305 8.31543 328.026 8.31543V8.60742H330.571V8.31543C330.288 8.31543 330.091 8.27946 329.981 8.20752C329.871 8.13558 329.807 8.02979 329.79 7.89014C329.773 7.75049 329.765 7.39502 329.765 6.82373V4.65918C330.048 4.32064 330.326 4.06673 330.596 3.89746C330.872 3.72819 331.14 3.64355 331.403 3.64355C331.673 3.64355 331.9 3.71761 332.082 3.86572C332.264 4.0096 332.372 4.18522 332.406 4.39258C332.444 4.5957 332.463 4.92578 332.463 5.38281V6.82373C332.463 7.45426 332.448 7.83089 332.418 7.95361C332.393 8.07633 332.323 8.16732 332.209 8.22656C332.099 8.28581 331.902 8.31543 331.618 8.31543V8.60742H334.132V8.31543C333.865 8.31543 333.679 8.27734 333.573 8.20117C333.472 8.12077 333.413 8.01074 333.396 7.87109C333.383 7.72721 333.377 7.37809 333.377 6.82373V4.77344C333.656 4.39681 333.933 4.1154 334.208 3.9292C334.488 3.743 334.765 3.6499 335.04 3.6499C335.311 3.6499 335.531 3.71338 335.7 3.84033C335.869 3.96729 335.973 4.11963 336.011 4.29736C336.053 4.4751 336.074 4.73958 336.074 5.09082V6.82373C336.074 7.4458 336.062 7.82031 336.036 7.94727C336.011 8.06999 335.941 8.16309 335.827 8.22656C335.717 8.28581 335.524 8.31543 335.249 8.31543V8.60742H337.845V8.31543C337.541 8.31543 337.331 8.28369 337.217 8.22021C337.107 8.15674 337.039 8.05941 337.014 7.92822C336.993 7.79704 336.982 7.42887 336.982 6.82373V5.26221C336.982 4.73324 336.953 4.35026 336.893 4.11328C336.834 3.8763 336.665 3.66471 336.385 3.47852C336.106 3.29232 335.766 3.19922 335.364 3.19922C335.012 3.19922 334.667 3.29655 334.329 3.49121C333.99 3.68587 333.66 3.97786 333.339 4.36719C333.233 3.97786 333.047 3.68587 332.78 3.49121C332.513 3.29655 332.166 3.19922 331.739 3.19922C331.362 3.19922 331.009 3.2902 330.679 3.47217C330.353 3.65413 330.048 3.92708 329.765 4.29102C329.765 3.84668 329.704 3.48275 329.581 3.19922ZM340.677 3.59912C340.389 3.7557 340.114 3.99056 339.851 4.30371C339.843 4.18099 339.839 4.06673 339.839 3.96094C339.839 2.77181 340.006 1.88102 340.34 1.28857C340.674 0.696126 341.176 0.399902 341.844 0.399902C342.141 0.399902 342.363 0.450684 342.511 0.552246C342.659 0.65804 342.797 0.831543 342.924 1.07275C343.046 1.3055 343.211 1.42188 343.419 1.42188C343.66 1.42188 343.781 1.30339 343.781 1.06641C343.781 0.8125 343.603 0.5861 343.247 0.387207C342.892 0.184082 342.481 0.0825195 342.016 0.0825195C341.026 0.0825195 340.234 0.537435 339.642 1.44727C339.054 2.35286 338.76 3.47852 338.76 4.82422C338.76 5.47591 338.846 6.10433 339.02 6.70947C339.198 7.31038 339.504 7.81185 339.94 8.21387C340.376 8.61589 340.911 8.81689 341.546 8.81689C342.295 8.81689 342.911 8.54395 343.393 7.99805C343.876 7.45215 344.117 6.81315 344.117 6.08105C344.117 5.30241 343.867 4.65495 343.368 4.13867C342.869 3.6224 342.276 3.36426 341.591 3.36426C341.273 3.36426 340.969 3.44255 340.677 3.59912ZM339.985 7.21729C339.87 6.81104 339.813 6.40267 339.813 5.99219C339.813 5.12467 339.98 4.52588 340.315 4.1958C340.649 3.86149 341.036 3.69434 341.476 3.69434C341.802 3.69434 342.096 3.79378 342.359 3.99268C342.625 4.19157 342.807 4.44124 342.905 4.7417C343.006 5.03792 343.057 5.45264 343.057 5.98584C343.057 6.82796 342.926 7.46061 342.663 7.88379C342.401 8.30697 342.005 8.51855 341.476 8.51855C341.142 8.51855 340.839 8.40218 340.569 8.16943C340.298 7.93669 340.103 7.6193 339.985 7.21729ZM350.215 2.19442V8.60742H350.677V2.19442C350.911 2.39242 351.263 2.60509 351.733 2.83242V2.44742C351.197 1.98542 350.801 1.50142 350.545 0.995422H350.347C350.097 1.50142 349.701 1.98542 349.159 2.44742V2.83242C349.628 2.60509 349.98 2.39242 350.215 2.19442Z" fill="black"/>
<path fill-rule="evenodd" clip-rule="evenodd" d="M426.581 3.19922H426.517C426.124 3.3304 425.627 3.42562 425.026 3.48486V3.77686C425.318 3.77686 425.519 3.81071 425.629 3.87842C425.743 3.94613 425.809 4.04769 425.825 4.18311C425.847 4.31429 425.857 4.67611 425.857 5.26855V6.82373C425.857 7.45003 425.844 7.82454 425.819 7.94727C425.794 8.06999 425.724 8.16309 425.61 8.22656C425.5 8.28581 425.305 8.31543 425.026 8.31543V8.60742H427.571V8.31543C427.288 8.31543 427.091 8.27946 426.981 8.20752C426.871 8.13558 426.807 8.02979 426.79 7.89014C426.773 7.75049 426.765 7.39502 426.765 6.82373V4.65918C427.048 4.32064 427.326 4.06673 427.596 3.89746C427.872 3.72819 428.14 3.64355 428.403 3.64355C428.673 3.64355 428.9 3.71761 429.082 3.86572C429.264 4.0096 429.372 4.18522 429.406 4.39258C429.444 4.5957 429.463 4.92578 429.463 5.38281V6.82373C429.463 7.45426 429.448 7.83089 429.418 7.95361C429.393 8.07633 429.323 8.16732 429.209 8.22656C429.099 8.28581 428.902 8.31543 428.618 8.31543V8.60742H431.132V8.31543C430.865 8.31543 430.679 8.27734 430.573 8.20117C430.472 8.12077 430.413 8.01074 430.396 7.87109C430.383 7.72721 430.377 7.37809 430.377 6.82373V4.77344C430.656 4.39681 430.933 4.1154 431.208 3.9292C431.488 3.743 431.765 3.6499 432.04 3.6499C432.311 3.6499 432.531 3.71338 432.7 3.84033C432.869 3.96729 432.973 4.11963 433.011 4.29736C433.053 4.4751 433.074 4.73958 433.074 5.09082V6.82373C433.074 7.4458 433.062 7.82031 433.036 7.94727C433.011 8.06999 432.941 8.16309 432.827 8.22656C432.717 8.28581 432.524 8.31543 432.249 8.31543V8.60742H434.845V8.31543C434.541 8.31543 434.331 8.28369 434.217 8.22021C434.107 8.15674 434.039 8.05941 434.014 7.92822C433.993 7.79704 433.982 7.42887 433.982 6.82373V5.26221C433.982 4.73324 433.953 4.35026 433.893 4.11328C433.834 3.8763 433.665 3.66471 433.385 3.47852C433.106 3.29232 432.766 3.19922 432.364 3.19922C432.012 3.19922 431.667 3.29655 431.329 3.49121C430.99 3.68587 430.66 3.97786 430.339 4.36719C430.233 3.97786 430.047 3.68587 429.78 3.49121C429.513 3.29655 429.166 3.19922 428.739 3.19922C428.362 3.19922 428.009 3.2902 427.679 3.47217C427.353 3.65413 427.048 3.92708 426.765 4.29102C426.765 3.84668 426.704 3.48275 426.581 3.19922ZM436.642 0.0825195L436.109 1.82812H436.394C436.492 1.54883 436.572 1.37109 436.635 1.29492C436.699 1.21452 436.767 1.16797 436.839 1.15527C436.911 1.13835 437.128 1.12988 437.492 1.12988H440.203L437.645 7.07129C437.602 7.17708 437.55 7.29557 437.486 7.42676C437.249 7.93457 437.131 8.26676 437.131 8.42334C437.131 8.68571 437.258 8.81689 437.511 8.81689C437.647 8.81689 437.778 8.74495 437.905 8.60107C438.036 8.45296 438.227 7.99805 438.476 7.23633L440.755 0.291992H437.467C437.196 0.291992 437.029 0.279297 436.966 0.253906C436.906 0.224284 436.872 0.167155 436.864 0.0825195H436.642ZM447.215 2.19442V8.60742H447.677V2.19442C447.911 2.39242 448.263 2.60509 448.733 2.83242V2.44742C448.197 1.98542 447.801 1.50142 447.545 0.995422H447.347C447.097 1.50142 446.701 1.98542 446.159 2.44742V2.83242C446.628 2.60509 446.98 2.39242 447.215 2.19442Z" fill="black"/>
<path fill-rule="evenodd" clip-rule="evenodd" d="M14.282 43.6428C14.5722 45.2764 14.9036 47.2682 14.9036 48.3763C14.9036 52.101 12.3869 52.554 10.9021 52.554C9.54309 52.554 8.88876 52.1513 8.88876 51.8241C8.88876 51.648 9.11526 51.5725 9.69409 51.3963C10.4742 51.1698 11.3802 50.4903 11.3802 49.0307C11.3802 47.6465 10.4994 46.4637 8.96426 46.4637C7.2781 46.4637 6.27144 47.7975 6.27144 49.3578C6.27144 50.9936 7.25294 53.46 11.0531 53.46C12.7392 53.46 16.0109 52.705 16.0109 48.4267C16.0109 47.1663 15.6612 45.1677 15.3885 43.6428H42.8346C42.8849 47.13 42.9585 50.5242 43.0554 50.6454C43.1309 50.746 43.2064 50.7712 43.2819 50.7712C43.3574 50.7712 43.4329 50.7209 43.4329 50.7209C43.8729 50.4716 44.2615 50.1368 44.6338 49.8162C44.9004 49.5866 45.1585 49.3642 45.4211 49.1857C47.6609 47.6254 48.441 46.0902 48.441 44.9326C48.441 44.4348 48.3077 44.0006 48.0852 43.6428H60.0598C58.8104 44.3625 57.911 45.4944 57.6285 46.7286C57.1407 46.2653 56.4162 45.9991 55.5549 45.9991C53.1878 45.9991 51.1797 47.3604 50.384 49.0911H47.6514V49.9536H50.0971C50.0453 50.2011 50.0183 50.4525 50.0183 50.7052C50.0183 52.1649 51.2263 53.0457 52.7363 53.0457C54.6534 53.0457 56.9132 51.6749 57.8533 49.9536H61.6701V49.6671C63.7739 49.0318 65.8142 47.133 65.8142 45.1841C65.8142 44.5654 65.596 44.0388 65.2148 43.6428H98.64V44.7893H98.985V43.6428H139.821C139.866 45.7815 139.921 47.4066 139.988 47.4898C140.064 47.5905 140.139 47.6156 140.215 47.6156C140.29 47.6156 140.366 47.5653 140.366 47.5653C140.805 47.316 141.194 46.9812 141.566 46.6606L141.567 46.6605C141.833 46.4309 142.091 46.2086 142.354 46.0301C143.53 45.2104 144.304 44.3975 144.774 43.6428H147.029C146.977 43.8902 146.95 44.1415 146.95 44.3942C146.95 45.8287 148.117 46.7041 149.59 46.7339C148.559 47.2973 147.754 48.1382 147.316 49.0911H143.794V49.9536H147.029C146.977 50.2011 146.95 50.4525 146.95 50.7052C146.95 52.1649 148.158 53.0457 149.668 53.0457C151.585 53.0457 153.845 51.6749 154.785 49.9536H158.378V49.0911H155.132C155.196 48.8432 155.23 48.5918 155.23 48.3396C155.23 46.9302 154.097 45.9991 152.487 45.9991L152.448 45.9992C152.399 45.9995 152.349 46.0004 152.3 46.0019C153.344 45.437 154.266 44.5933 154.785 43.6428H195.57V44.7893H195.915V43.6428H236.616V45.0893C236.616 45.2403 236.692 45.3158 236.818 45.3158C236.83 45.3158 236.849 45.3095 236.868 45.3032C236.887 45.2969 236.906 45.2907 236.918 45.2907C236.918 45.2907 237.271 45.1397 237.497 45.0642C237.522 45.039 237.548 45.039 237.573 45.039C237.749 45.039 237.875 45.3158 237.875 45.4417V48.5371C237.875 48.6881 238.026 48.814 238.202 48.814C238.454 48.814 238.63 48.6881 238.63 48.5371V45.039C238.63 44.7118 238.756 44.5357 238.881 44.4853L240.417 43.8562C240.425 43.8562 240.437 43.8532 240.449 43.8493L240.467 43.8436C240.486 43.8373 240.505 43.831 240.517 43.831C240.719 43.831 240.844 44.133 240.844 44.284V47.4298C240.844 47.5808 240.995 47.7066 241.172 47.7066C241.448 47.7066 241.599 47.5808 241.599 47.4298V43.8562C241.599 43.7918 241.61 43.7171 241.63 43.6428H293.077V44.7893H293.422V43.6428H389.995V44.7893H390.34V43.6428H486.916V44.7893H487.261V43.6428H491.339V44.7893H491.684V43.6428H492.141V42.7802H491.684V37.3317H492.141V36.4692H491.684V31.0209H492.141V30.1584H491.684V24.7099H492.141V23.8474H491.684V18.3989H492.141V17.5363H491.684V16.3899H491.339V17.5363H487.261V16.3899H486.916V17.5363H390.34V16.3899H389.995V17.5363H293.422V16.3899H293.077V17.5363H195.915V16.3899H195.57V17.5363H98.985V16.3899H98.64V17.5363H17.283C17.3237 17.1608 17.3447 16.7786 17.3447 16.3897C17.3447 14.2002 16.7407 12.0359 15.7089 10.5259C15.3314 9.97224 14.6771 9.26758 14.4002 9.26758C14.0479 9.26758 13.2677 9.92191 12.7644 10.4756C11.0806 12.3414 10.4255 15.0917 10.3153 17.5363H0V18.3989H10.2983C10.3058 19.8336 10.4781 21.4205 10.6504 22.4297C10.6527 22.4436 10.655 22.457 10.6572 22.4698C10.7024 22.7367 10.712 22.7936 10.4239 23.0337C10.1017 23.2999 9.77775 23.5709 9.45485 23.8474H0V24.7099H8.47403C6.71343 26.306 5.07547 28.0871 4.04754 30.1584H0V31.0209H3.66279C3.21134 32.1604 2.94946 33.3851 2.94946 34.7109C2.94946 35.3044 3.00448 35.8938 3.11495 36.4692H0V37.3317H3.3256C4.05998 39.7924 5.87404 41.8868 8.80521 42.7802H0V43.6428H14.282ZM5.03354 37.3317C5.49748 40.3224 8.21048 42.3364 12.2107 42.3364C12.7141 42.3364 13.2174 42.286 13.6201 42.2105L13.6393 42.2067C13.9984 42.135 14.0219 42.1303 13.9724 41.8582L13.2129 37.3317H9.70399C9.79593 38.4007 10.5194 39.3717 11.5061 39.7946C11.5156 39.7987 11.5253 39.8028 11.535 39.8069C11.7035 39.8785 11.8836 39.9551 11.8836 40.1217C11.8836 40.2727 11.7829 40.3985 11.5816 40.3985C11.4054 40.3985 11.1034 40.323 10.9021 40.2475C9.60922 39.8103 8.61799 38.7841 8.21054 37.3317H5.03354ZM4.96319 36.4692H8.04458C8.02038 36.251 8.00793 36.0255 8.00793 35.7931C8.00793 33.7509 9.31534 31.8463 11.3608 31.0209H6.91399C5.18239 33.1838 4.96278 35.01 4.96278 36.3971C4.96278 36.4212 4.96292 36.4452 4.96319 36.4692ZM7.66788 30.1584H12.0102L11.5061 27.0855C11.4557 26.8086 11.4054 26.7835 11.1537 26.9848L11.1177 27.0139C10.0443 27.8817 8.98855 28.7353 7.66788 30.1584ZM9.76147 36.4692C10.0074 35.3514 10.9104 34.5196 12.2107 34.1573C12.6134 34.0566 12.6637 34.0818 12.7141 34.3586L13.0682 36.4692H9.76147ZM14.2909 37.3317L15.0042 41.4807C15.0546 41.7827 15.1049 41.7827 15.4069 41.6317C16.8162 40.927 17.7725 39.6436 17.7725 38.0581C17.7725 37.8091 17.7512 37.5665 17.7105 37.3317H14.2909ZM17.4616 36.4692H14.1426L13.7711 34.3083C13.7207 34.0063 13.7459 33.9308 14.0479 33.9559C15.563 34.0869 16.8834 35.0658 17.4616 36.4692ZM19.8003 37.3317H42.7639C42.7748 38.6085 42.7944 40.6631 42.8227 42.7802H15.2859C15.3186 42.7345 15.3874 42.7058 15.5126 42.6535C15.5414 42.6415 15.5732 42.6282 15.6082 42.6132C17.9344 41.6919 19.544 39.8221 19.8003 37.3317ZM19.8344 36.4692C19.7783 34.0865 18.4269 31.9338 16.2026 31.0209H98.64V36.4692H43.9992C44.007 36.0965 44.0117 35.8356 44.0117 35.7468C44.0117 35.47 43.7852 35.319 43.5336 35.319C43.1812 35.319 42.7786 35.5706 42.7534 36.0236L42.7568 36.4692H19.8344ZM13.0501 30.1584C13.0472 30.1415 13.0443 30.1238 13.0412 30.1054L12.4121 26.4563C12.365 26.174 12.4059 26.1336 12.5348 26.0062C12.5438 25.9973 12.5532 25.988 12.5631 25.9781C12.9973 25.5721 13.4148 25.1493 13.8098 24.7099H98.64V30.1584H13.0501ZM14.5379 23.8474H98.64V18.3989H17.1536C16.7652 20.4194 15.8113 22.2355 14.5379 23.8474ZM15.2762 18.3989C14.3966 19.7924 13.0825 21.0018 11.9087 22.027C11.7326 22.178 11.6319 22.1528 11.5816 21.8257C11.4809 21.1713 11.4306 20.3157 11.4306 19.5103C11.4306 19.125 11.448 18.7542 11.481 18.3989H15.2762ZM15.7493 17.5363H11.5956C12.076 14.7905 13.5198 13.1684 14.7777 13.1684C15.6082 13.1684 16.2877 13.8479 16.2877 15.232C16.2877 16.0449 16.0853 16.813 15.7493 17.5363ZM245.057 42.7802H242.82C242.86 42.711 242.883 42.6372 242.883 42.5727V40.7858C242.883 40.66 242.807 40.5845 242.707 40.5845C242.656 40.5845 242.631 40.5845 242.581 40.6097L241.927 40.8613C241.776 40.8613 241.599 40.7104 241.599 40.4084V38.0679C241.599 37.8917 241.725 37.4135 241.927 37.338L241.943 37.3317H246.982C245.459 38.2088 244.456 39.6982 244.456 41.2389C244.456 41.8684 244.681 42.3902 245.057 42.7802ZM249.925 42.7802H293.077V37.3317H252.136C252.517 37.7278 252.736 38.2544 252.736 38.8732C252.736 40.4013 251.481 41.8986 249.925 42.7802ZM236.616 37.3884C236.616 37.3701 236.618 37.3511 236.622 37.3317H195.915V42.7802H237.202C237.353 42.7173 237.522 42.6482 237.598 42.623C237.749 42.5475 237.875 42.321 237.875 42.0442V39.5527C237.875 39.3514 237.724 39.0997 237.548 39.0997C237.535 39.0997 237.522 39.106 237.51 39.1123C237.497 39.1186 237.485 39.1249 237.472 39.1249C237.397 39.1752 236.918 39.4017 236.818 39.4017C236.692 39.4017 236.616 39.3262 236.616 39.1752V37.3884ZM242.883 34.8717V36.4692H293.077V31.0209H195.915V36.4692H237.782C237.838 36.3533 237.875 36.2037 237.875 36.0294V32.6319C237.875 32.4809 238.026 32.3551 238.277 32.3551C238.454 32.3551 238.63 32.4809 238.63 32.6319V35.6519C238.63 35.8532 238.705 36.1552 238.932 36.1552C239.36 36.0545 240.215 35.7022 240.517 35.526C240.744 35.375 240.819 35.0479 240.844 34.7962V31.5246C240.844 31.3736 240.995 31.2477 241.247 31.2477C241.448 31.2477 241.599 31.3736 241.599 31.5246V34.5949C241.599 34.7962 241.776 34.9221 241.952 34.9221C242.078 34.8969 242.581 34.6956 242.581 34.6956C242.631 34.6704 242.656 34.6704 242.707 34.6704C242.807 34.6704 242.883 34.7459 242.883 34.8717ZM155.23 42.0285C155.23 42.2808 155.196 42.5322 155.131 42.7802H195.57V37.3317H140.835C140.805 38.5012 140.778 39.4805 140.768 39.6882C140.768 39.8643 140.869 40.0405 141.045 40.116C141.095 40.1412 141.121 40.1412 141.171 40.1412C141.297 40.1412 141.574 39.9147 141.725 39.7888C142.077 39.5623 142.681 39.361 143.109 39.361C144.266 39.4365 145.374 40.3425 145.374 41.777C145.374 42.0866 145.318 42.4233 145.193 42.7802H147.316C148.111 41.0494 150.119 39.688 152.487 39.688C154.097 39.688 155.23 40.6192 155.23 42.0285ZM140.857 36.4692C140.901 34.7173 140.944 32.8607 140.944 32.5912C140.944 32.3144 140.718 32.1634 140.466 32.1634C140.114 32.1634 139.711 32.4151 139.686 32.8681C139.686 32.8681 139.697 34.3985 139.718 36.4692H98.985V31.0209H195.57V36.4692H140.857ZM139.727 37.3317C139.747 39.0567 139.772 41.0324 139.805 42.7802H98.985V37.3317H139.727ZM140.793 42.7802L140.793 42.7333C140.793 42.3307 140.819 42.0287 140.844 41.928C141.02 41.4247 142.027 40.6948 142.605 40.6948C143.335 40.6948 143.637 41.5253 143.637 42.1545C143.637 42.3639 143.61 42.5733 143.559 42.7802H140.793ZM140.808 43.6428H143.216C142.782 44.4344 142.075 45.1264 141.397 45.552C141.297 45.6023 141.221 45.6275 141.146 45.6275C140.919 45.6275 140.869 45.3758 140.869 45.25C140.869 45.25 140.829 44.4605 140.808 43.6428ZM43.8381 42.7802C43.8601 42.1905 43.9361 39.229 43.98 37.3317H98.64V42.7802H47.1364C46.8372 42.6285 46.5087 42.5383 46.1761 42.5166C45.8565 42.5166 45.4385 42.6289 45.1007 42.7802H43.8381ZM491.339 37.3317V42.7802H487.261V37.3317H491.339ZM491.339 31.0209V36.4692H487.261V31.0209H491.339ZM491.339 24.7099V30.1584H487.261V24.7099H491.339ZM491.339 18.3989V23.8474H487.261V18.3989H491.339ZM486.916 18.3989H390.34V23.8474H431.067C431.045 21.7765 431.034 20.246 431.034 20.246C431.06 19.793 431.462 19.5413 431.815 19.5413C432.066 19.5413 432.293 19.6923 432.293 19.9692C432.293 20.2386 432.249 22.0954 432.205 23.8474H486.916V18.3989ZM390.34 24.7099H431.076C431.095 26.4349 431.121 28.4106 431.153 30.1584H390.34V24.7099ZM432.117 27.0661C432.126 26.8585 432.153 25.8793 432.183 24.7099H486.916V30.1584H446.481C446.545 29.9104 446.579 29.6589 446.579 29.4066C446.579 27.9973 445.446 27.0662 443.836 27.0662C441.468 27.0662 439.46 28.4276 438.665 30.1584H436.542C436.666 29.8014 436.722 29.4646 436.722 29.1549C436.722 27.7204 435.615 26.8144 434.457 26.7389C434.029 26.7389 433.425 26.9403 433.073 27.1668C432.922 27.2926 432.645 27.5191 432.519 27.5191C432.469 27.5191 432.444 27.5191 432.393 27.4939C432.217 27.4184 432.117 27.2423 432.117 27.0661ZM438.378 31.0209H436.122C435.653 31.7756 434.879 32.5884 433.702 33.4081C433.44 33.5866 433.181 33.809 432.915 34.0386C432.543 34.3592 432.154 34.6939 431.714 34.9432C431.714 34.9432 431.638 34.9936 431.563 34.9936C431.487 34.9936 431.412 34.9684 431.336 34.8677C431.27 34.7846 431.214 33.1596 431.17 31.0209H390.34V36.4692H486.916V31.0209H446.134C445.194 32.7421 442.934 34.1128 441.017 34.1128C439.507 34.1128 438.299 33.232 438.299 31.7723C438.299 31.5196 438.326 31.2684 438.378 31.0209ZM434.986 29.5324C434.986 29.7419 434.958 29.9514 434.908 30.1584H432.142L432.142 30.1113C432.142 29.7086 432.167 29.4066 432.192 29.3059C432.368 28.8026 433.375 28.0728 433.954 28.0728C434.684 28.0728 434.986 28.9033 434.986 29.5324ZM434.565 31.0209H432.156C432.178 31.8386 432.217 32.6279 432.217 32.6279C432.217 32.7537 432.268 33.0054 432.494 33.0054C432.57 33.0054 432.645 32.9802 432.746 32.9299C433.423 32.5044 434.131 31.8125 434.565 31.0209ZM486.916 37.3317H390.34V42.7802H486.916V37.3317ZM389.995 37.3317V42.7802H293.422V37.3317H334.344C334.366 37.7434 334.39 37.992 334.415 38.0232C334.49 38.1239 334.566 38.1491 334.641 38.1491C334.717 38.1491 334.792 38.0987 334.792 38.0987C335.169 37.885 335.509 37.6084 335.833 37.3317H389.995ZM336.914 36.4692H341.978C341.601 36.0792 341.377 35.5574 341.377 34.9279C341.377 33.3874 342.379 31.898 343.902 31.0209H339.444C339.667 31.3788 339.8 31.8128 339.8 32.3104C339.8 33.4447 339.051 34.9415 336.914 36.4692ZM349.656 32.5622C349.656 34.0903 348.402 35.5876 346.846 36.4692H389.995V31.0209H349.057C349.438 31.417 349.656 31.9435 349.656 32.5622ZM334.308 36.4692C334.262 35.13 334.224 33.0919 334.194 31.0209H293.422V36.4692H334.308ZM334.182 30.1584H293.422V24.7099H334.123C334.134 25.9867 334.154 28.0413 334.182 30.1584ZM335.197 30.1584C335.219 29.5694 335.295 26.6075 335.339 24.7099H389.995V30.1584H338.496C338.197 30.0065 337.868 29.9162 337.535 29.8945C337.215 29.8945 336.797 30.007 336.459 30.1584H335.197ZM335.358 23.8474H389.995V18.3989H293.422V23.8474H334.116L334.113 23.4015C334.138 22.9485 334.54 22.6968 334.893 22.6968C335.144 22.6968 335.371 22.8478 335.371 23.1247C335.371 23.2135 335.366 23.4745 335.358 23.8474ZM293.077 18.3989H195.915V23.8474H293.077V18.3989ZM293.077 24.7099H195.915V30.1584H293.077V24.7099ZM195.57 24.7099V30.1584H98.985V24.7099H195.57ZM195.57 18.3989V23.8474H98.985V18.3989H195.57ZM241.3 49.9536H244.535C244.483 50.2011 244.456 50.4525 244.456 50.7052C244.456 52.1649 245.664 53.0457 247.174 53.0457C249.091 53.0457 251.351 51.6749 252.291 49.9536H255.884V49.0911H252.637C252.701 48.8432 252.736 48.5918 252.736 48.3396C252.736 46.9302 251.603 45.9991 249.992 45.9991C247.625 45.9991 245.617 47.3604 244.822 49.0911H241.3V49.9536ZM341.456 49.9536H338.218V49.0911H341.742C342.538 47.3604 344.546 45.9991 346.913 45.9991C348.524 45.9991 349.656 46.9302 349.656 48.3396C349.656 48.5918 349.622 48.8432 349.558 49.0911H352.805V49.9536H349.212C348.272 51.6749 346.012 53.0457 344.095 53.0457C342.585 53.0457 341.377 52.1649 341.377 50.7052C341.377 50.4525 341.404 50.2011 341.456 49.9536ZM435.138 49.9536H438.378C438.326 50.2011 438.299 50.4525 438.299 50.7052C438.299 52.1649 439.507 53.0457 441.017 53.0457C442.934 53.0457 445.194 51.6749 446.134 49.9536H449.725V49.0911H446.481C446.545 48.8432 446.579 48.5918 446.579 48.3396C446.579 46.9302 445.446 45.9991 443.836 45.9991C441.469 45.9991 439.46 47.3604 438.665 49.0911H435.138V49.9536ZM43.9111 45.0836C44.0872 44.5802 45.0939 43.8504 45.6727 43.8504C46.4026 43.8504 46.7046 44.6809 46.7046 45.3101C46.7046 46.6691 45.5469 48.0281 44.4647 48.7076C44.3641 48.7579 44.2886 48.7831 44.2131 48.7831C43.9866 48.7831 43.9362 48.5314 43.9362 48.4056C43.9362 48.4056 43.8607 46.8956 43.8607 45.8889C43.8607 45.4862 43.8859 45.1842 43.9111 45.0836ZM238.554 40.811C238.554 40.0309 238.579 39.15 238.63 38.9487C238.68 38.5209 239.838 37.9924 240.467 37.9924C240.643 37.9924 240.794 38.0427 240.844 38.1434C240.895 38.2692 240.945 38.8984 240.945 39.5779C240.945 40.2574 240.895 40.962 240.844 41.1885C240.693 41.6918 239.511 42.1952 238.932 42.1952C238.781 42.1952 238.655 42.1448 238.63 42.0693C238.579 41.9687 238.554 41.415 238.554 40.811ZM337.032 31.2283C336.453 31.2283 335.446 31.9581 335.27 32.4614C335.245 32.5621 335.22 32.8641 335.22 33.2668C335.22 34.2734 335.295 35.7834 335.295 35.7834C335.295 35.9093 335.346 36.1609 335.572 36.1609C335.648 36.1609 335.723 36.1358 335.824 36.0854C336.906 35.4059 338.064 34.0469 338.064 32.6879C338.064 32.0588 337.762 31.2283 337.032 31.2283Z" fill="black"/>
</svg>
