<svg width="493" height="54" viewBox="0 0 493 54" fill="none" xmlns="http://www.w3.org/2000/svg">
<path fill-rule="evenodd" clip-rule="evenodd" d="M60.4004 0L63.4004 5H57.4004L60.4004 0ZM60.4004 1.33053L58.5961 4.32773H62.1975L60.4004 1.33053ZM55.8872 5.76904H55.6143C55.5635 6.26839 55.3963 6.78678 55.1128 7.32422C54.8335 7.85742 54.4526 8.23617 53.9702 8.46045C53.4878 8.68473 53.0159 8.79688 52.5547 8.79688C51.6914 8.79688 50.9699 8.4541 50.3901 7.76855C49.8104 7.07878 49.5205 6.08854 49.5205 4.79785C49.5205 3.43522 49.785 2.38786 50.314 1.65576C50.8472 0.923665 51.5645 0.557617 52.4658 0.557617C53.2021 0.557617 53.8623 0.784017 54.4463 1.23682C55.0345 1.68962 55.4238 2.49577 55.6143 3.65527H55.8872L55.811 0.392578H55.5317C55.4937 0.777669 55.3836 1.15007 55.2017 1.50977C54.9435 1.18815 54.5521 0.896159 54.0273 0.633789C53.5068 0.367188 52.925 0.233887 52.2817 0.233887C51.5031 0.233887 50.7879 0.415853 50.1362 0.779785C49.4845 1.14372 48.9767 1.70231 48.6128 2.45557C48.2489 3.20459 48.0669 4.00439 48.0669 4.85498C48.0669 6.1499 48.4604 7.19092 49.2476 7.97803C50.0389 8.76514 51.0566 9.15869 52.3008 9.15869C53.4772 9.15869 54.4442 8.73128 55.2017 7.87646C55.4006 8.13883 55.5381 8.44141 55.6143 8.78418H55.8872V5.76904ZM111.067 0L114.067 5H108.067L111.067 0ZM111.067 1.33053L109.263 4.32773H112.864L111.067 1.33053ZM106.554 5.76904H106.281C106.23 6.26839 106.063 6.78678 105.779 7.32422C105.5 7.85742 105.119 8.23617 104.637 8.46045C104.154 8.68473 103.682 8.79688 103.221 8.79688C102.358 8.79688 101.636 8.4541 101.057 7.76855C100.477 7.07878 100.187 6.08854 100.187 4.79785C100.187 3.43522 100.451 2.38786 100.98 1.65576C101.514 0.923665 102.231 0.557617 103.132 0.557617C103.869 0.557617 104.529 0.784017 105.113 1.23682C105.701 1.68962 106.09 2.49577 106.281 3.65527H106.554L106.478 0.392578H106.198C106.16 0.777669 106.05 1.15007 105.868 1.50977C105.61 1.18815 105.219 0.896159 104.694 0.633789C104.173 0.367188 103.591 0.233887 102.948 0.233887C102.17 0.233887 101.454 0.415853 100.803 0.779785C100.151 1.14372 99.6432 1.70231 99.2793 2.45557C98.9154 3.20459 98.7334 4.00439 98.7334 4.85498C98.7334 6.1499 99.127 7.19092 99.9141 7.97803C100.705 8.76514 101.723 9.15869 102.967 9.15869C104.144 9.15869 105.111 8.73128 105.868 7.87646C106.067 8.13883 106.205 8.44141 106.281 8.78418H106.554V5.76904ZM116.85 2.73438C116.85 2.95312 116.813 3.14746 116.739 3.31738C116.665 3.4873 116.567 3.62988 116.446 3.74512C116.325 3.8584 116.189 3.94434 116.039 4.00293C115.89 4.06152 115.743 4.09082 115.596 4.09082C115.463 4.09082 115.322 4.0625 115.171 4.00586C115.023 3.94922 114.88 3.85449 114.744 3.72168C114.607 3.58691 114.496 3.40625 114.41 3.17969C114.326 2.95312 114.284 2.68066 114.284 2.3623C114.284 1.9502 114.351 1.56641 114.486 1.21094C114.621 0.855469 114.818 0.574219 115.078 0.367188C115.339 0.160156 115.649 0.0566406 116.006 0.0566406C116.186 0.0566406 116.333 0.0810547 116.446 0.129883C116.559 0.176758 116.641 0.235352 116.692 0.305664C116.743 0.374023 116.768 0.443359 116.768 0.513672C116.768 0.578125 116.743 0.639648 116.692 0.698242C116.643 0.754883 116.578 0.783203 116.496 0.783203C116.449 0.783203 116.407 0.774414 116.37 0.756836C116.334 0.737305 116.301 0.710938 116.27 0.677734C116.241 0.644531 116.207 0.601562 116.167 0.548828C116.064 0.410156 115.942 0.34082 115.801 0.34082C115.625 0.34082 115.488 0.420898 115.388 0.581055C115.291 0.741211 115.223 0.916992 115.186 1.1084C115.151 1.29785 115.124 1.5 115.104 1.71484C115.323 1.57031 115.533 1.49805 115.734 1.49805C115.916 1.49805 116.091 1.54102 116.261 1.62695C116.433 1.71094 116.574 1.84668 116.683 2.03418C116.794 2.22168 116.85 2.45508 116.85 2.73438ZM116.071 2.69336C116.071 2.54297 116.061 2.40332 116.042 2.27441C116.024 2.14355 115.977 2.02832 115.901 1.92871C115.827 1.8291 115.717 1.7793 115.573 1.7793C115.217 1.7793 115.04 2.12598 115.04 2.81934C115.04 2.94434 115.044 3.06055 115.054 3.16797C115.066 3.27539 115.091 3.37988 115.13 3.48145C115.169 3.58105 115.225 3.66016 115.297 3.71875C115.37 3.77734 115.463 3.80664 115.579 3.80664C115.696 3.80664 115.789 3.7793 115.857 3.72461C115.925 3.66797 115.975 3.58887 116.006 3.4873C116.038 3.38574 116.056 3.27832 116.062 3.16504C116.068 3.0498 116.071 2.89258 116.071 2.69336ZM116.733 8.22656C116.815 8.05664 116.856 7.87402 116.856 7.67871C116.856 7.50488 116.834 7.36719 116.792 7.26562C116.749 7.16406 116.692 7.07031 116.622 6.98438C116.483 6.80469 116.273 6.70898 115.992 6.69727C116.097 6.63086 116.185 6.57324 116.255 6.52441C116.326 6.47363 116.399 6.41113 116.475 6.33691C116.551 6.2627 116.616 6.1748 116.668 6.07324C116.721 5.97168 116.748 5.86328 116.748 5.74805C116.748 5.5957 116.702 5.46777 116.61 5.36426C116.52 5.25879 116.397 5.18164 116.241 5.13281C116.084 5.08203 115.906 5.05664 115.705 5.05664C115.38 5.05664 115.125 5.10938 114.937 5.21484C114.75 5.31836 114.62 5.4375 114.547 5.57227C114.475 5.70508 114.439 5.82324 114.439 5.92676C114.439 6.02441 114.463 6.11816 114.512 6.20801C114.561 6.29785 114.609 6.34277 114.656 6.34277C114.685 6.34277 114.723 6.33008 114.77 6.30469L115.016 6.19922L115.075 6.16406C115.094 6.15234 115.104 6.13965 115.104 6.12598C115.104 6.11816 115.088 6.09375 115.057 6.05273C114.989 5.96875 114.955 5.87695 114.955 5.77734C114.955 5.70312 114.979 5.63184 115.028 5.56348C115.079 5.49512 115.146 5.44141 115.23 5.40234C115.316 5.36133 115.404 5.34082 115.494 5.34082C115.646 5.34082 115.776 5.38574 115.883 5.47559C115.993 5.56543 116.047 5.69629 116.047 5.86816C116.047 6.0127 116.019 6.13672 115.962 6.24023C115.906 6.34375 115.824 6.43945 115.716 6.52734C115.611 6.61523 115.439 6.73926 115.201 6.89941C115.144 6.93652 115.101 6.97266 115.072 7.00781C115.042 7.04297 115.028 7.08301 115.028 7.12793C115.028 7.17285 115.042 7.20801 115.072 7.2334C115.101 7.25879 115.134 7.27148 115.171 7.27148C115.22 7.27148 115.3 7.22363 115.412 7.12793C115.519 7.04004 115.619 6.99609 115.71 6.99609C115.851 6.99609 115.947 7.06543 115.998 7.2041C116.05 7.34082 116.077 7.5498 116.077 7.83105C116.077 8.05371 116.031 8.27246 115.939 8.4873C115.849 8.7002 115.647 8.80664 115.333 8.80664C115.241 8.80664 115.168 8.78516 115.116 8.74219C115.063 8.69922 115.011 8.62695 114.96 8.52539C114.904 8.4043 114.849 8.31445 114.796 8.25586C114.746 8.19531 114.672 8.16504 114.577 8.16504C114.499 8.16504 114.429 8.19434 114.369 8.25293C114.308 8.30957 114.278 8.38867 114.278 8.49023C114.278 8.60352 114.32 8.70703 114.404 8.80078C114.49 8.89258 114.608 8.96387 114.758 9.01465C114.909 9.06543 115.081 9.09082 115.274 9.09082C115.489 9.09082 115.692 9.05469 115.883 8.98242C116.075 8.91016 116.244 8.80859 116.39 8.67773C116.539 8.54688 116.653 8.39648 116.733 8.22656ZM169.067 5L166.067 0L163.067 5H169.067ZM164.263 4.32773L166.067 1.33053L167.864 4.32773H164.263ZM161.281 5.76904H161.554V8.78418H161.281C161.205 8.44141 161.067 8.13883 160.868 7.87646C160.111 8.73128 159.144 9.15869 157.967 9.15869C156.723 9.15869 155.705 8.76514 154.914 7.97803C154.127 7.19092 153.733 6.1499 153.733 4.85498C153.733 4.00439 153.915 3.20459 154.279 2.45557C154.643 1.70231 155.151 1.14372 155.803 0.779785C156.454 0.415853 157.17 0.233887 157.948 0.233887C158.591 0.233887 159.173 0.367188 159.694 0.633789C160.219 0.896159 160.61 1.18815 160.868 1.50977C161.05 1.15007 161.16 0.777669 161.198 0.392578H161.478L161.554 3.65527H161.281C161.09 2.49577 160.701 1.68962 160.113 1.23682C159.529 0.784017 158.869 0.557617 158.132 0.557617C157.231 0.557617 156.514 0.923665 155.98 1.65576C155.452 2.38786 155.187 3.43522 155.187 4.79785C155.187 6.08854 155.477 7.07878 156.057 7.76855C156.636 8.4541 157.358 8.79688 158.221 8.79688C158.682 8.79688 159.154 8.68473 159.637 8.46045C160.119 8.23617 160.5 7.85742 160.779 7.32422C161.063 6.78678 161.23 6.26839 161.281 5.76904ZM171.739 3.31738C171.813 3.14746 171.85 2.95312 171.85 2.73438C171.85 2.45508 171.794 2.22168 171.683 2.03418C171.574 1.84668 171.433 1.71094 171.261 1.62695C171.091 1.54102 170.916 1.49805 170.734 1.49805C170.533 1.49805 170.323 1.57031 170.104 1.71484C170.124 1.5 170.151 1.29785 170.186 1.1084C170.223 0.916992 170.291 0.741211 170.388 0.581055C170.488 0.420898 170.625 0.34082 170.801 0.34082C170.942 0.34082 171.064 0.410156 171.167 0.548828C171.207 0.601562 171.241 0.644531 171.27 0.677734C171.301 0.710938 171.334 0.737305 171.37 0.756836C171.407 0.774414 171.449 0.783203 171.496 0.783203C171.578 0.783203 171.643 0.754883 171.692 0.698242C171.743 0.639648 171.768 0.578125 171.768 0.513672C171.768 0.443359 171.743 0.374023 171.692 0.305664C171.641 0.235352 171.559 0.176758 171.446 0.129883C171.333 0.0810547 171.186 0.0566406 171.006 0.0566406C170.649 0.0566406 170.339 0.160156 170.078 0.367188C169.818 0.574219 169.621 0.855469 169.486 1.21094C169.351 1.56641 169.284 1.9502 169.284 2.3623C169.284 2.68066 169.326 2.95312 169.41 3.17969C169.496 3.40625 169.607 3.58691 169.744 3.72168C169.88 3.85449 170.023 3.94922 170.171 4.00586C170.322 4.0625 170.463 4.09082 170.596 4.09082C170.743 4.09082 170.89 4.06152 171.039 4.00293C171.189 3.94434 171.325 3.8584 171.446 3.74512C171.567 3.62988 171.665 3.4873 171.739 3.31738ZM171.042 2.27441C171.061 2.40332 171.071 2.54297 171.071 2.69336C171.071 2.89258 171.068 3.0498 171.062 3.16504C171.056 3.27832 171.038 3.38574 171.006 3.4873C170.975 3.58887 170.925 3.66797 170.857 3.72461C170.789 3.7793 170.696 3.80664 170.579 3.80664C170.463 3.80664 170.37 3.77734 170.297 3.71875C170.225 3.66016 170.169 3.58105 170.13 3.48145C170.091 3.37988 170.066 3.27539 170.054 3.16797C170.044 3.06055 170.04 2.94434 170.04 2.81934C170.04 2.12598 170.217 1.7793 170.573 1.7793C170.717 1.7793 170.827 1.8291 170.901 1.92871C170.977 2.02832 171.024 2.14355 171.042 2.27441ZM171.906 9H170.098V8.71875H170.201C170.345 8.71875 170.45 8.70703 170.514 8.68359C170.579 8.66016 170.619 8.62305 170.634 8.57227C170.65 8.51953 170.658 8.43164 170.658 8.30859V7.72852H169.251V7.35059L170.974 5.05664H171.37V7.3916H171.906V7.72852H171.37V8.30859C171.37 8.43555 171.379 8.52734 171.399 8.58398C171.418 8.63867 171.458 8.6748 171.516 8.69238C171.577 8.70996 171.674 8.71875 171.809 8.71875H171.906V9ZM170.658 7.3916V5.92676L169.565 7.3916H170.658ZM216.554 5.53516H216.281C216.23 6.03451 216.063 6.5529 215.779 7.09033C215.5 7.62354 215.119 8.00228 214.637 8.22656C214.154 8.45085 213.682 8.56299 213.221 8.56299C212.358 8.56299 211.636 8.22021 211.057 7.53467C210.477 6.84489 210.187 5.85465 210.187 4.56396C210.187 3.20133 210.451 2.15397 210.98 1.42188C211.514 0.689779 212.231 0.32373 213.132 0.32373C213.869 0.32373 214.529 0.55013 215.113 1.00293C215.701 1.45573 216.09 2.26188 216.281 3.42139H216.554L216.478 0.158691H216.198C216.16 0.543783 216.05 0.916178 215.868 1.27588C215.61 0.954264 215.219 0.662272 214.694 0.399902C214.173 0.133301 213.591 0 212.948 0C212.17 0 211.454 0.181966 210.803 0.545898C210.151 0.909831 209.643 1.46842 209.279 2.22168C208.915 2.9707 208.733 3.77051 208.733 4.62109C208.733 5.91602 209.127 6.95703 209.914 7.74414C210.705 8.53125 211.723 8.9248 212.967 8.9248C214.144 8.9248 215.111 8.4974 215.868 7.64258C216.067 7.90495 216.205 8.20752 216.281 8.55029H216.554V5.53516ZM223.442 3.76611H225.61V3.40674H225.473C225.322 3.40674 225.211 3.38591 225.141 3.34424C225.073 3.29997 225.032 3.24137 225.016 3.16846C225.003 3.09294 224.997 2.98226 224.997 2.83643V1.62939C224.997 1.22575 224.885 0.92627 224.661 0.730957C224.437 0.535645 224.119 0.437988 223.708 0.437988C223.476 0.437988 223.25 0.483561 223.032 0.574707C222.813 0.665853 222.585 0.852051 222.348 1.1333C222.231 0.867676 222.056 0.685384 221.825 0.586426C221.593 0.487467 221.351 0.437988 221.098 0.437988C220.827 0.437988 220.588 0.491374 220.379 0.598145C220.174 0.702311 219.978 0.846842 219.793 1.03174C219.793 0.773926 219.783 0.576009 219.762 0.437988L218.114 0.773926V1.1333H218.313C218.628 1.1333 218.786 1.2557 218.786 1.50049V2.83643C218.786 2.99528 218.777 3.11117 218.758 3.18408C218.74 3.257 218.692 3.31299 218.614 3.35205C218.538 3.38851 218.412 3.40674 218.235 3.40674V3.76611H220.372V3.40674C220.192 3.40674 220.06 3.38851 219.977 3.35205C219.894 3.31299 219.842 3.2583 219.821 3.18799C219.803 3.11507 219.793 2.99788 219.793 2.83643V2.01221C219.793 1.87419 219.801 1.7596 219.817 1.66846C219.835 1.57731 219.873 1.48486 219.93 1.39111C220.011 1.26351 220.129 1.15934 220.286 1.07861C220.442 0.997884 220.603 0.95752 220.77 0.95752C220.895 0.95752 221.029 0.997884 221.172 1.07861C221.316 1.15674 221.387 1.33252 221.387 1.60596V2.83643C221.387 2.99268 221.378 3.10726 221.36 3.18018C221.344 3.25309 221.297 3.30908 221.219 3.34814C221.144 3.38721 221.019 3.40674 220.844 3.40674V3.76611H222.969V3.40674C222.787 3.40674 222.655 3.38851 222.575 3.35205C222.494 3.31299 222.443 3.2583 222.422 3.18799C222.404 3.11507 222.395 2.99788 222.395 2.83643V2.07861C222.395 1.86768 222.433 1.67757 222.508 1.5083C222.586 1.33643 222.697 1.20231 222.84 1.10596C222.984 1.007 223.153 0.95752 223.348 0.95752C223.622 0.95752 223.796 1.03044 223.872 1.17627C223.95 1.3221 223.989 1.48096 223.989 1.65283V2.83643C223.989 2.99268 223.98 3.10726 223.961 3.18018C223.946 3.25049 223.9 3.30648 223.825 3.34814C223.749 3.38721 223.622 3.40674 223.442 3.40674V3.76611ZM287.85 2.67773C287.85 2.89648 287.813 3.09082 287.739 3.26074C287.665 3.43066 287.567 3.57324 287.446 3.68848C287.325 3.80176 287.189 3.8877 287.039 3.94629C286.89 4.00488 286.743 4.03418 286.596 4.03418C286.463 4.03418 286.322 4.00586 286.171 3.94922C286.023 3.89258 285.88 3.79785 285.744 3.66504C285.607 3.53027 285.496 3.34961 285.41 3.12305C285.326 2.89648 285.284 2.62402 285.284 2.30566C285.284 1.89355 285.351 1.50977 285.486 1.1543C285.621 0.798828 285.818 0.517578 286.078 0.310547C286.339 0.103516 286.649 0 287.006 0C287.186 0 287.333 0.0244141 287.446 0.0732422C287.559 0.120117 287.641 0.178711 287.692 0.249023C287.743 0.317383 287.768 0.386719 287.768 0.457031C287.768 0.521484 287.743 0.583008 287.692 0.641602C287.643 0.698242 287.578 0.726562 287.496 0.726562C287.449 0.726562 287.407 0.717773 287.37 0.700195C287.334 0.680664 287.301 0.654297 287.27 0.621094C287.241 0.587891 287.207 0.544922 287.167 0.492188C287.064 0.353516 286.942 0.28418 286.801 0.28418C286.625 0.28418 286.488 0.364258 286.388 0.524414C286.291 0.68457 286.223 0.860352 286.186 1.05176C286.151 1.24121 286.124 1.44336 286.104 1.6582C286.323 1.51367 286.533 1.44141 286.734 1.44141C286.916 1.44141 287.091 1.48438 287.261 1.57031C287.433 1.6543 287.574 1.79004 287.683 1.97754C287.794 2.16504 287.85 2.39844 287.85 2.67773ZM287.071 2.63672C287.071 2.48633 287.061 2.34668 287.042 2.21777C287.024 2.08691 286.977 1.97168 286.901 1.87207C286.827 1.77246 286.717 1.72266 286.573 1.72266C286.217 1.72266 286.04 2.06934 286.04 2.7627C286.04 2.8877 286.044 3.00391 286.054 3.11133C286.066 3.21875 286.091 3.32324 286.13 3.4248C286.169 3.52441 286.225 3.60352 286.297 3.66211C286.37 3.7207 286.463 3.75 286.579 3.75C286.696 3.75 286.789 3.72266 286.857 3.66797C286.925 3.61133 286.975 3.53223 287.006 3.43066C287.038 3.3291 287.056 3.22168 287.062 3.1084C287.068 2.99316 287.071 2.83594 287.071 2.63672ZM287.856 7.62207C287.856 7.81738 287.815 8 287.733 8.16992C287.653 8.33984 287.539 8.49023 287.39 8.62109C287.244 8.75195 287.075 8.85352 286.883 8.92578C286.692 8.99805 286.489 9.03418 286.274 9.03418C286.081 9.03418 285.909 9.00879 285.758 8.95801C285.608 8.90723 285.49 8.83594 285.404 8.74414C285.32 8.65039 285.278 8.54688 285.278 8.43359C285.278 8.33203 285.308 8.25293 285.369 8.19629C285.429 8.1377 285.499 8.1084 285.577 8.1084C285.672 8.1084 285.746 8.13867 285.796 8.19922C285.849 8.25781 285.904 8.34766 285.96 8.46875C286.011 8.57031 286.063 8.64258 286.116 8.68555C286.168 8.72852 286.241 8.75 286.333 8.75C286.647 8.75 286.849 8.64355 286.939 8.43066C287.031 8.21582 287.077 7.99707 287.077 7.77441C287.077 7.49316 287.05 7.28418 286.998 7.14746C286.947 7.00879 286.851 6.93945 286.71 6.93945C286.619 6.93945 286.519 6.9834 286.412 7.07129C286.3 7.16699 286.22 7.21484 286.171 7.21484C286.134 7.21484 286.101 7.20215 286.072 7.17676C286.042 7.15137 286.028 7.11621 286.028 7.07129C286.028 7.02637 286.042 6.98633 286.072 6.95117C286.101 6.91602 286.144 6.87988 286.201 6.84277C286.439 6.68262 286.611 6.55859 286.716 6.4707C286.824 6.38281 286.906 6.28711 286.962 6.18359C287.019 6.08008 287.047 5.95605 287.047 5.81152C287.047 5.63965 286.993 5.50879 286.883 5.41895C286.776 5.3291 286.646 5.28418 286.494 5.28418C286.404 5.28418 286.316 5.30469 286.23 5.3457C286.146 5.38477 286.079 5.43848 286.028 5.50684C285.979 5.5752 285.955 5.64648 285.955 5.7207C285.955 5.82031 285.989 5.91211 286.057 5.99609C286.088 6.03711 286.104 6.06152 286.104 6.06934C286.104 6.08301 286.094 6.0957 286.075 6.10742L286.016 6.14258L285.77 6.24805C285.723 6.27344 285.685 6.28613 285.656 6.28613C285.609 6.28613 285.561 6.24121 285.512 6.15137C285.463 6.06152 285.439 5.96777 285.439 5.87012C285.439 5.7666 285.475 5.64844 285.547 5.51562C285.62 5.38086 285.75 5.26172 285.937 5.1582C286.125 5.05273 286.38 5 286.705 5C286.906 5 287.084 5.02539 287.241 5.07617C287.397 5.125 287.52 5.20215 287.61 5.30762C287.702 5.41113 287.748 5.53906 287.748 5.69141C287.748 5.80664 287.721 5.91504 287.668 6.0166C287.616 6.11816 287.551 6.20605 287.475 6.28027C287.399 6.35449 287.326 6.41699 287.255 6.46777C287.185 6.5166 287.097 6.57422 286.992 6.64062C287.273 6.65234 287.483 6.74805 287.622 6.92773C287.692 7.01367 287.749 7.10742 287.792 7.20898C287.834 7.31055 287.856 7.44824 287.856 7.62207ZM275.554 5.7124H275.281C275.23 6.21175 275.063 6.73014 274.779 7.26758C274.5 7.80078 274.119 8.17952 273.637 8.40381C273.154 8.62809 272.682 8.74023 272.221 8.74023C271.358 8.74023 270.636 8.39746 270.057 7.71191C269.477 7.02214 269.187 6.0319 269.187 4.74121C269.187 3.37858 269.451 2.33122 269.98 1.59912C270.514 0.867025 271.231 0.500977 272.132 0.500977C272.869 0.500977 273.529 0.727376 274.113 1.18018C274.701 1.63298 275.09 2.43913 275.281 3.59863H275.554L275.478 0.335938H275.198C275.16 0.721029 275.05 1.09342 274.868 1.45312C274.61 1.13151 274.219 0.839518 273.694 0.577148C273.173 0.310547 272.591 0.177246 271.948 0.177246C271.17 0.177246 270.454 0.359212 269.803 0.723145C269.151 1.08708 268.643 1.64567 268.279 2.39893C267.915 3.14795 267.733 3.94775 267.733 4.79834C267.733 6.09326 268.127 7.13428 268.914 7.92139C269.705 8.7085 270.723 9.10205 271.967 9.10205C273.144 9.10205 274.111 8.67464 274.868 7.81982C275.067 8.08219 275.205 8.38477 275.281 8.72754H275.554V5.7124ZM284.61 3.94336H282.442V3.58398C282.622 3.58398 282.749 3.56445 282.825 3.52539C282.9 3.48372 282.946 3.42773 282.961 3.35742C282.98 3.28451 282.989 3.16992 282.989 3.01367V1.83008C282.989 1.6582 282.95 1.49935 282.872 1.35352C282.796 1.20768 282.622 1.13477 282.348 1.13477C282.153 1.13477 281.984 1.18424 281.84 1.2832C281.697 1.37956 281.586 1.51367 281.508 1.68555C281.433 1.85482 281.395 2.04492 281.395 2.25586V3.01367C281.395 3.17513 281.404 3.29232 281.422 3.36523C281.443 3.43555 281.494 3.49023 281.575 3.5293C281.655 3.56576 281.787 3.58398 281.969 3.58398V3.94336H279.844V3.58398C280.019 3.58398 280.144 3.56445 280.219 3.52539C280.297 3.48633 280.344 3.43034 280.36 3.35742C280.378 3.28451 280.387 3.16992 280.387 3.01367V1.7832C280.387 1.50977 280.316 1.33398 280.172 1.25586C280.029 1.17513 279.895 1.13477 279.77 1.13477C279.603 1.13477 279.442 1.17513 279.286 1.25586C279.129 1.33659 279.011 1.44076 278.93 1.56836C278.873 1.66211 278.835 1.75456 278.817 1.8457C278.801 1.93685 278.793 2.05143 278.793 2.18945V3.01367C278.793 3.17513 278.803 3.29232 278.821 3.36523C278.842 3.43555 278.894 3.49023 278.977 3.5293C279.06 3.56576 279.192 3.58398 279.372 3.58398V3.94336H277.235V3.58398C277.412 3.58398 277.538 3.56576 277.614 3.5293C277.692 3.49023 277.74 3.43424 277.758 3.36133C277.777 3.28841 277.786 3.17253 277.786 3.01367V1.67773C277.786 1.43294 277.628 1.31055 277.313 1.31055H277.114V0.951172L278.762 0.615234C278.783 0.753255 278.793 0.951172 278.793 1.20898C278.978 1.02409 279.174 0.879557 279.379 0.775391C279.588 0.66862 279.827 0.615234 280.098 0.615234C280.351 0.615234 280.593 0.664714 280.825 0.763672C281.056 0.86263 281.231 1.04492 281.348 1.31055C281.585 1.0293 281.813 0.843099 282.032 0.751953C282.25 0.660807 282.476 0.615234 282.708 0.615234C283.119 0.615234 283.437 0.712891 283.661 0.908203C283.885 1.10352 283.997 1.40299 283.997 1.80664V3.01367C283.997 3.15951 284.003 3.27018 284.016 3.3457C284.032 3.41862 284.073 3.47721 284.141 3.52148C284.211 3.56315 284.322 3.58398 284.473 3.58398H284.61V3.94336ZM342.739 3.26074C342.813 3.09082 342.85 2.89648 342.85 2.67773C342.85 2.39844 342.794 2.16504 342.683 1.97754C342.574 1.79004 342.433 1.6543 342.261 1.57031C342.091 1.48438 341.916 1.44141 341.734 1.44141C341.533 1.44141 341.323 1.51367 341.104 1.6582C341.124 1.44336 341.151 1.24121 341.186 1.05176C341.223 0.860352 341.291 0.68457 341.388 0.524414C341.488 0.364258 341.625 0.28418 341.801 0.28418C341.942 0.28418 342.064 0.353516 342.167 0.492188C342.207 0.544922 342.241 0.587891 342.27 0.621094C342.301 0.654297 342.334 0.680664 342.37 0.700195C342.407 0.717773 342.449 0.726562 342.496 0.726562C342.578 0.726562 342.643 0.698242 342.692 0.641602C342.743 0.583008 342.768 0.521484 342.768 0.457031C342.768 0.386719 342.743 0.317383 342.692 0.249023C342.641 0.178711 342.559 0.120117 342.446 0.0732422C342.333 0.0244141 342.186 0 342.006 0C341.649 0 341.339 0.103516 341.078 0.310547C340.818 0.517578 340.621 0.798828 340.486 1.1543C340.351 1.50977 340.284 1.89355 340.284 2.30566C340.284 2.62402 340.326 2.89648 340.41 3.12305C340.496 3.34961 340.607 3.53027 340.744 3.66504C340.88 3.79785 341.023 3.89258 341.171 3.94922C341.322 4.00586 341.463 4.03418 341.596 4.03418C341.743 4.03418 341.89 4.00488 342.039 3.94629C342.189 3.8877 342.325 3.80176 342.446 3.68848C342.567 3.57324 342.665 3.43066 342.739 3.26074ZM342.042 2.21777C342.061 2.34668 342.071 2.48633 342.071 2.63672C342.071 2.83594 342.068 2.99316 342.062 3.1084C342.056 3.22168 342.038 3.3291 342.006 3.43066C341.975 3.53223 341.925 3.61133 341.857 3.66797C341.789 3.72266 341.696 3.75 341.579 3.75C341.463 3.75 341.37 3.7207 341.297 3.66211C341.225 3.60352 341.169 3.52441 341.13 3.4248C341.091 3.32324 341.066 3.21875 341.054 3.11133C341.044 3.00391 341.04 2.8877 341.04 2.7627C341.04 2.06934 341.217 1.72266 341.573 1.72266C341.717 1.72266 341.827 1.77246 341.901 1.87207C341.977 1.97168 342.024 2.08691 342.042 2.21777ZM341.098 8.94336H342.906V8.66211H342.809C342.674 8.66211 342.577 8.65332 342.516 8.63574C342.458 8.61816 342.418 8.58203 342.399 8.52734C342.379 8.4707 342.37 8.37891 342.37 8.25195V7.67188H342.906V7.33496H342.37V5H341.974L340.251 7.29395V7.67188H341.658V8.25195C341.658 8.375 341.65 8.46289 341.634 8.51562C341.619 8.56641 341.579 8.60352 341.514 8.62695C341.45 8.65039 341.345 8.66211 341.201 8.66211H341.098V8.94336ZM341.658 5.87012V7.33496H340.565L341.658 5.87012ZM330.281 5.7124H330.554V8.72754H330.281C330.205 8.38477 330.067 8.08219 329.868 7.81982C329.111 8.67464 328.144 9.10205 326.967 9.10205C325.723 9.10205 324.705 8.7085 323.914 7.92139C323.127 7.13428 322.733 6.09326 322.733 4.79834C322.733 3.94775 322.915 3.14795 323.279 2.39893C323.643 1.64567 324.151 1.08708 324.803 0.723145C325.454 0.359212 326.17 0.177246 326.948 0.177246C327.591 0.177246 328.173 0.310547 328.694 0.577148C329.219 0.839518 329.61 1.13151 329.868 1.45312C330.05 1.09342 330.16 0.721029 330.198 0.335938H330.478L330.554 3.59863H330.281C330.09 2.43913 329.701 1.63298 329.113 1.18018C328.529 0.727376 327.869 0.500977 327.132 0.500977C326.231 0.500977 325.514 0.867025 324.98 1.59912C324.452 2.33122 324.187 3.37858 324.187 4.74121C324.187 6.0319 324.477 7.02214 325.057 7.71191C325.636 8.39746 326.358 8.74023 327.221 8.74023C327.682 8.74023 328.154 8.62809 328.637 8.40381C329.119 8.17952 329.5 7.80078 329.779 7.26758C330.063 6.73014 330.23 6.21175 330.281 5.7124ZM337.442 3.94336H339.61V3.58398H339.473C339.322 3.58398 339.211 3.56315 339.141 3.52148C339.073 3.47721 339.032 3.41862 339.016 3.3457C339.003 3.27018 338.997 3.15951 338.997 3.01367V1.80664C338.997 1.40299 338.885 1.10352 338.661 0.908203C338.437 0.712891 338.119 0.615234 337.708 0.615234C337.476 0.615234 337.25 0.660807 337.032 0.751953C336.813 0.843099 336.585 1.0293 336.348 1.31055C336.231 1.04492 336.056 0.86263 335.825 0.763672C335.593 0.664714 335.351 0.615234 335.098 0.615234C334.827 0.615234 334.588 0.66862 334.379 0.775391C334.174 0.879557 333.978 1.02409 333.793 1.20898C333.793 0.951172 333.783 0.753255 333.762 0.615234L332.114 0.951172V1.31055H332.313C332.628 1.31055 332.786 1.43294 332.786 1.67773V3.01367C332.786 3.17253 332.777 3.28841 332.758 3.36133C332.74 3.43424 332.692 3.49023 332.614 3.5293C332.538 3.56576 332.412 3.58398 332.235 3.58398V3.94336H334.372V3.58398C334.192 3.58398 334.06 3.56576 333.977 3.5293C333.894 3.49023 333.842 3.43555 333.821 3.36523C333.803 3.29232 333.793 3.17513 333.793 3.01367V2.18945C333.793 2.05143 333.801 1.93685 333.817 1.8457C333.835 1.75456 333.873 1.66211 333.93 1.56836C334.011 1.44076 334.129 1.33659 334.286 1.25586C334.442 1.17513 334.603 1.13477 334.77 1.13477C334.895 1.13477 335.029 1.17513 335.172 1.25586C335.316 1.33398 335.387 1.50977 335.387 1.7832V3.01367C335.387 3.16992 335.378 3.28451 335.36 3.35742C335.344 3.43034 335.297 3.48633 335.219 3.52539C335.144 3.56445 335.019 3.58398 334.844 3.58398V3.94336H336.969V3.58398C336.787 3.58398 336.655 3.56576 336.575 3.5293C336.494 3.49023 336.443 3.43555 336.422 3.36523C336.404 3.29232 336.395 3.17513 336.395 3.01367V2.25586C336.395 2.04492 336.433 1.85482 336.508 1.68555C336.586 1.51367 336.697 1.37956 336.84 1.2832C336.984 1.18424 337.153 1.13477 337.348 1.13477C337.622 1.13477 337.796 1.20768 337.872 1.35352C337.95 1.49935 337.989 1.6582 337.989 1.83008V3.01367C337.989 3.16992 337.98 3.28451 337.961 3.35742C337.946 3.42773 337.9 3.48372 337.825 3.52539C337.749 3.56445 337.622 3.58398 337.442 3.58398V3.94336ZM450.614 5.53516H450.887V8.55029H450.614C450.538 8.20752 450.401 7.90495 450.202 7.64258C449.444 8.4974 448.477 8.9248 447.301 8.9248C446.057 8.9248 445.039 8.53125 444.248 7.74414C443.46 6.95703 443.067 5.91602 443.067 4.62109C443.067 3.77051 443.249 2.9707 443.613 2.22168C443.977 1.46842 444.485 0.909831 445.136 0.545898C445.788 0.181966 446.503 0 447.282 0C447.925 0 448.507 0.133301 449.027 0.399902C449.552 0.662272 449.944 0.954264 450.202 1.27588C450.384 0.916178 450.494 0.543783 450.532 0.158691H450.811L450.887 3.42139H450.614C450.424 2.26188 450.035 1.45573 449.446 1.00293C448.862 0.55013 448.202 0.32373 447.466 0.32373C446.564 0.32373 445.847 0.689779 445.314 1.42188C444.785 2.15397 444.521 3.20133 444.521 4.56396C444.521 5.85465 444.81 6.84489 445.39 7.53467C445.97 8.22021 446.691 8.56299 447.555 8.56299C448.016 8.56299 448.488 8.45085 448.97 8.22656C449.453 8.00228 449.833 7.62354 450.113 7.09033C450.396 6.5529 450.563 6.03451 450.614 5.53516ZM454.974 6.23096H454.637C454.443 5.98486 454.275 5.71338 454.133 5.4165C453.992 5.12158 453.886 4.81006 453.813 4.48193C453.741 4.15381 453.705 3.8208 453.705 3.48291C453.705 3.05908 453.755 2.66943 453.854 2.31396C453.956 1.95654 454.072 1.65771 454.203 1.41748C454.336 1.17725 454.48 0.945801 454.637 0.723145H454.968C454.772 0.986816 454.61 1.26221 454.481 1.54932C454.353 1.83447 454.254 2.13623 454.186 2.45459C454.117 2.771 454.083 3.09717 454.083 3.43311C454.083 3.75928 454.115 4.0835 454.18 4.40576C454.246 4.72803 454.345 5.04053 454.476 5.34326C454.606 5.646 454.772 5.94189 454.974 6.23096ZM458.791 3.7583H457.868L457.628 4.89795H457.142L457.382 3.7583H456.283L456.043 4.89795H455.557L455.797 3.7583H455.27V3.27197H455.899L456.099 2.31689H455.27V1.8335H456.198L456.438 0.685059H456.925L456.685 1.8335H457.783L458.023 0.685059H458.51L458.27 1.8335H458.791V2.31689H458.167L457.971 3.27197H458.791V3.7583ZM457.681 2.31689H456.582L456.386 3.27197H457.484L457.681 2.31689ZM461.814 3.46533C461.814 3.6958 461.753 3.91846 461.63 4.1333C461.507 4.34814 461.325 4.52295 461.085 4.65771C460.847 4.79053 460.562 4.85693 460.232 4.85693C460.025 4.85693 459.851 4.82861 459.708 4.77197C459.565 4.71729 459.458 4.64502 459.386 4.55518C459.313 4.46338 459.277 4.37158 459.277 4.27979C459.277 4.18213 459.308 4.10498 459.368 4.04834C459.431 3.9917 459.498 3.96338 459.57 3.96338C459.641 3.96338 459.693 3.98096 459.729 4.01611C459.764 4.04932 459.801 4.10303 459.84 4.17725C459.924 4.32568 460.01 4.4292 460.098 4.48779C460.188 4.54443 460.288 4.57275 460.399 4.57275C460.591 4.57275 460.733 4.51807 460.827 4.40869C460.921 4.29736 460.979 4.17432 461 4.03955C461.023 3.90283 461.035 3.75146 461.035 3.58545C461.035 3.23389 460.992 2.95947 460.906 2.76221C460.82 2.56299 460.665 2.46338 460.44 2.46338C460.353 2.46338 460.26 2.4917 460.162 2.54834C460.066 2.60498 459.987 2.7124 459.925 2.87061H459.614L459.667 0.913574H461.466L461.34 1.17139C461.287 1.28271 461.244 1.3501 461.211 1.37354C461.178 1.39502 461.121 1.40576 461.041 1.40576H459.925L459.901 2.45752C459.981 2.39111 460.048 2.34131 460.101 2.30811C460.155 2.27295 460.225 2.24268 460.309 2.21729C460.395 2.19189 460.497 2.1792 460.616 2.1792C460.796 2.1792 460.962 2.21631 461.114 2.29053C461.267 2.36475 461.394 2.4624 461.495 2.5835C461.599 2.70459 461.678 2.84131 461.732 2.99365C461.787 3.14404 461.814 3.30127 461.814 3.46533ZM463.353 3.47119C463.353 3.79736 463.321 4.10498 463.259 4.39404C463.198 4.68311 463.12 4.93994 463.024 5.16455C462.929 5.38916 462.836 5.57568 462.746 5.72412C462.658 5.87256 462.55 6.0415 462.421 6.23096H462.09C462.281 5.97119 462.442 5.69678 462.573 5.40771C462.704 5.12061 462.804 4.81787 462.872 4.49951C462.94 4.18115 462.975 3.854 462.975 3.51807C462.975 3.18994 462.941 2.86572 462.875 2.54541C462.811 2.22314 462.713 1.91064 462.582 1.60791C462.451 1.30518 462.285 1.01025 462.084 0.723145H462.421C462.614 0.967285 462.781 1.23779 462.922 1.53467C463.062 1.82959 463.169 2.14111 463.241 2.46924C463.315 2.79736 463.353 3.13135 463.353 3.47119ZM394.554 5.53516H394.281C394.23 6.03451 394.063 6.5529 393.779 7.09033C393.5 7.62354 393.119 8.00228 392.637 8.22656C392.154 8.45085 391.682 8.56299 391.221 8.56299C390.358 8.56299 389.636 8.22021 389.057 7.53467C388.477 6.84489 388.187 5.85465 388.187 4.56396C388.187 3.20133 388.452 2.15397 388.98 1.42188C389.514 0.689779 390.231 0.32373 391.132 0.32373C391.869 0.32373 392.529 0.55013 393.113 1.00293C393.701 1.45573 394.09 2.26188 394.281 3.42139H394.554L394.478 0.158691H394.198C394.16 0.543783 394.05 0.916178 393.868 1.27588C393.61 0.954264 393.219 0.662272 392.694 0.399902C392.173 0.133301 391.591 0 390.948 0C390.17 0 389.454 0.181966 388.803 0.545898C388.151 0.909831 387.643 1.46842 387.279 2.22168C386.915 2.9707 386.733 3.77051 386.733 4.62109C386.733 5.91602 387.127 6.95703 387.914 7.74414C388.705 8.53125 389.723 8.9248 390.967 8.9248C392.144 8.9248 393.111 8.4974 393.868 7.64258C394.067 7.90495 394.205 8.20752 394.281 8.55029H394.554V5.53516ZM399.985 3.08252C400.157 2.8195 400.243 2.51091 400.243 2.15674C400.243 1.84945 400.168 1.56429 400.02 1.30127C399.874 1.03825 399.658 0.828613 399.372 0.672363C399.085 0.516113 398.744 0.437988 398.348 0.437988C397.817 0.437988 397.359 0.585124 396.973 0.879395C396.588 1.17106 396.395 1.59945 396.395 2.16455C396.395 2.54216 396.487 2.86117 396.672 3.12158C396.86 3.382 397.099 3.57601 397.391 3.70361C397.685 3.83122 397.997 3.89502 398.325 3.89502C398.674 3.89502 398.994 3.82601 399.286 3.68799C399.58 3.54736 399.813 3.34554 399.985 3.08252ZM398.989 1.1333C399.106 1.35726 399.165 1.69059 399.165 2.1333C399.165 2.39111 399.146 2.62158 399.11 2.82471C399.076 3.02523 398.997 3.1945 398.872 3.33252C398.749 3.46794 398.569 3.53564 398.333 3.53564C397.973 3.53564 397.74 3.41195 397.633 3.16455C397.527 2.91716 397.473 2.59294 397.473 2.19189C397.473 1.86637 397.497 1.60205 397.543 1.39893C397.593 1.1932 397.678 1.04215 397.797 0.945801C397.92 0.846842 398.089 0.797363 398.305 0.797363C398.644 0.797363 398.872 0.909342 398.989 1.1333ZM15.1096 48.2674C15.1096 47.1592 14.7782 45.1673 14.488 43.5336H0V42.6711H9.01047C6.07966 41.7775 4.26585 39.6832 3.53158 37.2226H0V36.3601H3.32095C3.21052 35.7847 3.15552 35.1955 3.15552 34.602C3.15552 33.2762 3.41744 32.0513 3.86894 30.9118H0V30.0493H4.25372C5.28171 27.9779 6.91972 26.1969 8.68036 24.6008H0V23.7382H9.66119C9.984 23.4619 10.3079 23.1909 10.63 22.9248C10.9181 22.6847 10.9084 22.6278 10.8632 22.361L10.8565 22.3208C10.6842 21.3116 10.5119 19.7246 10.5044 18.2897H0V17.4272H10.5214C10.6316 14.9826 11.2868 12.2324 12.9705 10.3667C13.4738 9.81302 14.2539 9.15869 14.6063 9.15869C14.8831 9.15869 15.5374 9.86335 15.9149 10.417C16.9468 11.927 17.5508 14.0913 17.5508 16.2808C17.5508 16.6696 17.5297 17.0517 17.4891 17.4272H86.0948V16.2807H86.4398V17.4272H139.945V16.2807H140.29V17.4272H193.795V16.2807H194.14V17.4272H250.955V16.2807H251.3V17.4272H308.117V16.2807H308.462V17.4272H322.794C322.748 13.9653 322.725 10.6705 322.725 10.6705C322.75 10.2175 323.153 9.96588 323.505 9.96588C323.757 9.96588 323.983 10.1169 323.983 10.3937C323.983 10.8821 323.841 16.5835 323.81 17.4272H325.072C325.41 17.2759 325.828 17.1635 326.148 17.1635C326.48 17.1852 326.809 17.2755 327.108 17.4272H365.275V16.2807H365.62V17.4272H429.188V16.2807H429.533V17.4272H486.916V16.2807H487.261V17.4272H491.339V16.2807H491.684V17.4272H492.141V18.2897H491.684V23.7382H492.141V24.6008H491.684V30.0493H492.141V30.9118H491.684V36.3601H492.141V37.2226H491.684V42.6711H492.141V43.5336H491.684V44.6801H491.339V43.5336H487.261V44.6801H486.916V43.5336H459.467C458.948 44.4843 458.026 45.328 456.982 45.893C457.044 45.8911 457.106 45.8901 457.169 45.8901C458.78 45.8901 459.912 46.8213 459.912 48.2306C459.912 48.4829 459.878 48.7343 459.814 48.9822H463.064V49.8447H459.467C458.527 51.566 456.267 52.9368 454.35 52.9368C452.84 52.9368 451.632 52.0559 451.632 50.5963C451.632 50.3436 451.659 50.0922 451.711 49.8447H448.477V48.9822H451.998C452.436 48.0293 453.242 47.1883 454.272 46.6249C452.799 46.5952 451.632 45.7197 451.632 44.2852C451.632 44.0325 451.659 43.7811 451.711 43.5336H448.776V44.1653C448.776 44.3163 448.625 44.4422 448.348 44.4422C448.172 44.4422 448.021 44.3163 448.021 44.1653V43.5336H445.806V45.2727C445.806 45.4237 445.63 45.5495 445.378 45.5495C445.202 45.5495 445.051 45.4237 445.051 45.2727V43.5336H429.533V44.6801H429.188V43.5336H401.732C401.212 44.4843 400.291 45.328 399.247 45.893C399.309 45.8911 399.371 45.8901 399.433 45.8901C401.044 45.8901 402.177 46.8213 402.177 48.2306C402.177 48.4829 402.142 48.7343 402.078 48.9822H405.326V49.8447H401.732C400.792 51.566 398.532 52.9368 396.615 52.9368C395.105 52.9368 393.897 52.0559 393.897 50.5963C393.897 50.3436 393.924 50.0922 393.976 49.8447H390.739V48.9822H394.262C394.701 48.0293 395.506 47.1883 396.537 46.6249C395.063 46.5952 393.897 45.7197 393.897 44.2852C393.897 44.0325 393.924 43.7811 393.976 43.5336H384.982C384.512 44.2885 383.738 45.1014 382.561 45.9212C382.299 46.0998 382.041 46.3221 381.774 46.5518C381.402 46.8724 381.013 47.2071 380.573 47.4564C380.573 47.4564 380.498 47.5067 380.422 47.5067C380.347 47.5067 380.271 47.4816 380.196 47.3809C380.129 47.2977 380.074 45.6725 380.029 43.5336H365.62V44.6801H365.275V43.5336H308.462V44.6801H308.117V43.5336H280.663C279.723 45.2549 277.463 46.6257 275.546 46.6257C274.036 46.6257 272.828 45.7449 272.828 44.2852C272.828 44.0325 272.855 43.7811 272.907 43.5336H270.652C270.182 44.2885 269.409 45.1014 268.232 45.9212C267.969 46.0998 267.711 46.3221 267.444 46.5518C267.072 46.8724 266.683 47.2071 266.243 47.4564C266.243 47.4564 266.168 47.5067 266.092 47.5067C266.017 47.5067 265.941 47.4816 265.866 47.3809C265.799 47.2977 265.744 45.6725 265.699 43.5336H251.3V44.6801H250.955V43.5336H223.504C222.984 44.4843 222.063 45.328 221.018 45.893C221.081 45.8911 221.143 45.8901 221.205 45.8901C222.816 45.8901 223.948 46.8213 223.948 48.2306C223.948 48.4829 223.914 48.7343 223.85 48.9822H227.097V49.8447H223.504C222.564 51.566 220.304 52.9368 218.387 52.9368C216.877 52.9368 215.669 52.0559 215.669 50.5963C215.669 50.3436 215.696 50.0922 215.748 49.8447H212.513V48.9822H216.034C216.472 48.0293 217.278 47.1883 218.309 46.6249C216.835 46.5952 215.669 45.7197 215.669 44.2852C215.669 44.0325 215.696 43.7811 215.748 43.5336H213.491C213.022 44.2885 212.248 45.1014 211.071 45.9212C210.809 46.0998 210.551 46.3221 210.284 46.5516L210.284 46.5517C209.912 46.8723 209.523 47.2071 209.083 47.4564C209.083 47.4564 209.008 47.5067 208.932 47.5067C208.857 47.5067 208.781 47.4816 208.706 47.3809C208.639 47.2977 208.583 45.6725 208.539 43.5336H194.14V44.6801H193.795V43.5336H140.29V44.6801H139.945V43.5336H112.492C111.552 45.2549 109.293 46.6257 107.375 46.6257C105.865 46.6257 104.657 45.7449 104.657 44.2852C104.657 44.0325 104.684 43.7811 104.736 43.5336H86.4398V44.6801H86.0948V43.5336H58.6423C58.1231 44.4843 57.2014 45.328 56.1572 45.893C56.2192 45.8911 56.2815 45.8901 56.344 45.8901C57.9547 45.8901 59.0872 46.8213 59.0872 48.2306C59.0872 48.4829 59.053 48.7343 58.9889 48.9822H62.2356V49.8447H58.6423C57.7022 51.566 55.4424 52.9368 53.5254 52.9368C52.0154 52.9368 50.8074 52.0559 50.8074 50.5963C50.8074 50.3436 50.8344 50.0922 50.8862 49.8447H47.6516V48.9822H51.1731C51.6111 48.0293 52.4168 47.1883 53.4475 46.6249C51.9741 46.5952 50.8074 45.7197 50.8074 44.2852C50.8074 44.0325 50.8344 43.7811 50.8862 43.5336H15.5945C15.8672 45.0586 16.2169 47.0573 16.2169 48.3178C16.2169 52.5961 12.9453 53.3511 11.2591 53.3511C7.45899 53.3511 6.4775 50.8848 6.4775 49.2489C6.4775 47.6886 7.48416 46.3548 9.17031 46.3548C10.7055 46.3548 11.5863 47.5376 11.5863 48.9218C11.5863 50.3814 10.6803 51.0609 9.90014 51.2874C9.32131 51.4636 9.09481 51.5391 9.09481 51.7153C9.09481 52.0424 9.74914 52.4451 11.1081 52.4451C12.593 52.4451 15.1096 51.9921 15.1096 48.2674ZM12.4168 42.2275C8.41642 42.2275 5.70339 40.2134 5.23956 37.2226H8.41652C8.82394 38.6751 9.8152 39.7013 11.1081 40.1387C11.3095 40.2142 11.6115 40.2897 11.7876 40.2897C11.989 40.2897 12.0896 40.1638 12.0896 40.0128C12.0896 39.8462 11.9096 39.7697 11.741 39.698L11.7121 39.6857C10.7254 39.2628 10.0019 38.2916 9.91002 37.2226H13.4189L14.1784 41.7493C14.2279 42.0214 14.2045 42.0261 13.8453 42.0978L13.8261 42.1017C13.4235 42.1772 12.9201 42.2275 12.4168 42.2275ZM8.25061 36.3601H5.16924C5.16897 36.3361 5.16884 36.3122 5.16884 36.2882C5.16884 34.9011 5.38846 33.0748 7.12024 30.9118H11.5675C9.52165 31.737 8.21399 33.6418 8.21399 35.6842C8.21399 35.9165 8.22643 36.1419 8.25061 36.3601ZM12.2162 30.0493H7.87416C9.19472 28.6263 10.2505 27.7728 11.3238 26.905L11.3598 26.8759C11.6115 26.6746 11.6618 26.6997 11.7121 26.9766L12.2162 30.0493ZM12.4168 34.0484C11.1166 34.4107 10.2135 35.2424 9.96758 36.3601H13.2742L12.9201 34.2497C12.8698 33.9729 12.8195 33.9477 12.4168 34.0484ZM15.2103 41.3718L14.4969 37.2226H17.9165C17.9573 37.4574 17.9786 37.7001 17.9786 37.9492C17.9786 39.5347 17.0223 40.8182 15.6129 41.5228C15.3109 41.6738 15.2606 41.6738 15.2103 41.3718ZM14.3486 36.3601H17.6676C17.0893 34.9568 15.7689 33.978 14.2539 33.847C13.9519 33.8219 13.9268 33.8974 13.9771 34.1994L14.3486 36.3601ZM50.8863 37.2226H20.0064C19.7502 39.7131 18.1406 41.583 15.8143 42.5043C15.7792 42.5193 15.7474 42.5326 15.7186 42.5446L15.7186 42.5446C15.5937 42.5968 15.5249 42.6255 15.4922 42.6711H51.1731C51.6111 41.7183 52.4166 40.8775 53.4471 40.3141C51.9738 40.2842 50.8074 39.4088 50.8074 37.9744C50.8074 37.7216 50.8344 37.4702 50.8863 37.2226ZM16.408 30.9118C18.6326 31.8245 19.9843 33.9773 20.0404 36.3601H51.1732C51.9689 34.6295 53.977 33.2683 56.344 33.2683C57.9547 33.2683 59.0872 34.1995 59.0872 35.6088C59.0872 35.8609 59.053 36.1122 58.989 36.3601H86.0948V30.9118H16.408ZM13.2473 29.9966L13.2561 30.0493H86.0948V24.6008H14.0161C13.621 25.0403 13.2034 25.4631 12.7691 25.8693L12.7408 25.8974C12.612 26.0247 12.5711 26.0652 12.6181 26.3474L13.2473 29.9966ZM86.0948 23.7382H14.7441C16.0175 22.1264 16.9713 20.3102 17.3597 18.2897H86.0948V23.7382ZM12.1148 21.9181C13.2886 20.8929 14.6028 19.6834 15.4824 18.2897H11.687C11.6541 18.6452 11.6366 19.016 11.6366 19.4015C11.6366 20.2068 11.687 21.0625 11.7876 21.7168C11.838 22.0439 11.9386 22.0691 12.1148 21.9181ZM11.8017 17.4272H15.9554C16.2914 16.7039 16.4938 15.9359 16.4938 15.1232C16.4938 13.739 15.8143 13.0595 14.9838 13.0595C13.7259 13.0595 12.2822 14.6815 11.8017 17.4272ZM323.254 25.4181C323.178 25.4181 323.103 25.393 323.027 25.2923C323.002 25.2611 322.979 25.0124 322.957 24.6008H308.462V30.0493H330.59C330.214 29.6593 329.989 29.1374 329.989 28.5079C329.989 26.9673 330.992 25.4778 332.515 24.6008H324.445C324.121 24.8774 323.782 25.154 323.405 25.3678C323.405 25.3678 323.329 25.4181 323.254 25.4181ZM365.275 30.0493H335.459C337.014 29.1677 338.269 27.6704 338.269 26.1422C338.269 25.5235 338.05 24.9968 337.669 24.6008H365.275V30.0493ZM322.921 23.7382C322.874 22.3989 322.836 20.3608 322.806 18.2897H308.462V23.7382H322.921ZM459.814 42.6711H486.916V37.2226H459.467C458.948 38.1732 458.027 39.0169 456.983 39.5819C457.044 39.58 457.107 39.5791 457.169 39.5791C458.78 39.5791 459.912 40.5103 459.912 41.9196C459.912 42.1718 459.878 42.4232 459.814 42.6711ZM448.776 36.3601H451.998C452.794 34.6295 454.802 33.2683 457.169 33.2683C458.78 33.2683 459.912 34.1995 459.912 35.6088C459.912 35.8609 459.878 36.1122 459.814 36.3601H486.916V30.9118H448.776V31.3304C448.776 31.5318 448.952 31.6576 449.128 31.6576C449.254 31.6324 449.757 31.4311 449.757 31.4311C449.808 31.4059 449.833 31.4059 449.883 31.4059C449.984 31.4059 450.059 31.4814 450.059 31.6073V33.3941C450.059 33.5451 449.934 33.7464 449.757 33.8219L449.103 34.0736C448.902 34.1491 448.776 34.6272 448.776 34.8034V36.3601ZM451.632 37.9744C451.632 37.7216 451.659 37.4702 451.711 37.2226H448.78C448.808 37.4721 448.966 37.5969 449.103 37.5969L449.757 37.3452C449.808 37.3201 449.833 37.3201 449.883 37.3201C449.984 37.3201 450.059 37.3955 450.059 37.5214V39.3082C450.059 39.4592 449.934 39.6605 449.757 39.736C449.757 39.736 449.229 39.9374 449.053 40.0129C448.877 40.0884 448.776 40.3904 448.776 40.5917V42.6711H451.998C452.436 41.7183 453.242 40.8775 454.272 40.3141C452.799 40.2842 451.632 39.4088 451.632 37.9744ZM448.021 42.6711H445.806V41.7745C445.806 41.4474 445.932 41.2712 446.058 41.2209L447.593 40.5917C447.606 40.5917 447.625 40.5854 447.643 40.5791C447.662 40.5728 447.681 40.5665 447.694 40.5665C447.895 40.5665 448.021 40.8685 448.021 41.0195V42.6711ZM448.776 28.2601V30.0493H486.916V24.6008H429.533V30.0493H445.051V29.3674C445.051 29.2164 445.202 29.0906 445.454 29.0906C445.63 29.0906 445.806 29.2164 445.806 29.3674V30.0493H448.021V28.2601C448.021 28.1091 448.172 27.9833 448.424 27.9833C448.625 27.9833 448.776 28.1091 448.776 28.2601ZM429.533 30.9118H445.051V32.7649C445.051 33.1172 444.9 33.3689 444.749 33.4444C444.598 33.5199 444.095 33.7212 444.095 33.7212C443.919 33.7716 443.793 33.9729 443.793 34.1239V35.9107C443.793 36.0617 443.868 36.1372 443.994 36.1372C444.095 36.1372 444.573 35.9107 444.649 35.8604C444.661 35.8604 444.674 35.8541 444.686 35.8478C444.69 35.8458 444.694 35.8438 444.698 35.842C444.703 35.8401 444.707 35.8384 444.711 35.8372C444.716 35.836 444.72 35.8352 444.724 35.8352C444.9 35.8352 445.051 36.0869 445.051 36.2882V36.3601H429.533V30.9118ZM445.806 35.6842C445.782 35.7811 445.764 36.0354 445.751 36.3601H448.122L448.122 36.3134C448.122 35.6339 448.071 35.0047 448.021 34.8789C447.971 34.7782 447.82 34.7279 447.643 34.7279C447.014 34.7279 445.857 35.2564 445.806 35.6842ZM448.094 37.2226H445.732C445.731 37.3311 445.731 37.4398 445.731 37.5465C445.731 38.1505 445.756 38.7042 445.806 38.8049C445.831 38.8804 445.957 38.9307 446.108 38.9307C446.687 38.9307 447.87 38.4274 448.021 37.924C448.048 37.8023 448.075 37.5424 448.094 37.2226ZM445.051 38.7797V37.2226H429.533V42.6711H445.051V42.1772C445.051 42.0514 444.925 41.7745 444.749 41.7745C444.724 41.7745 444.699 41.7745 444.674 41.7997C444.447 41.8752 444.095 42.0262 444.095 42.0262C444.082 42.0262 444.064 42.0325 444.045 42.0388C444.034 42.0425 444.022 42.0462 444.013 42.0486C444.008 42.0496 444.005 42.0504 444.001 42.0509C443.999 42.0512 443.996 42.0514 443.994 42.0514C443.868 42.0514 443.793 41.9759 443.793 41.8249V40.038C443.793 39.887 443.919 39.6857 444.095 39.6354C444.095 39.6354 444.623 39.4089 444.774 39.3585C444.925 39.283 445.051 39.0565 445.051 38.7797ZM448.021 30.9118H445.806V32.3874C445.806 32.5887 445.882 32.8907 446.108 32.8907C446.536 32.7901 447.392 32.4377 447.694 32.2616C447.92 32.1106 447.996 31.7834 448.021 31.5318V30.9118ZM402.078 42.6711H429.188V37.2226H401.732C401.213 38.1732 400.291 39.0169 399.247 39.5819C399.281 39.5809 399.314 39.5802 399.348 39.5797C399.376 39.5793 399.405 39.5791 399.433 39.5791C401.044 39.5791 402.177 40.5103 402.177 41.9196C402.177 42.1718 402.142 42.4232 402.078 42.6711ZM392.14 36.3601H394.263C395.058 34.6295 397.066 33.2683 399.433 33.2683C401.044 33.2683 402.177 34.1995 402.177 35.6088C402.177 35.8609 402.142 36.1122 402.078 36.3601H429.188V30.9118H387.782C387.752 32.0813 387.724 33.0606 387.715 33.2683C387.715 33.4444 387.816 33.6206 387.992 33.6961C388.042 33.7213 388.067 33.7213 388.118 33.7213C388.243 33.7213 388.52 33.4948 388.671 33.3689C389.024 33.1424 389.628 32.9411 390.055 32.9411C391.213 33.0166 392.32 33.9226 392.32 35.3571C392.32 35.6666 392.265 36.0032 392.14 36.3601ZM393.897 37.9744C393.897 37.7216 393.924 37.4702 393.976 37.2226H391.721C391.251 37.9774 390.477 38.7904 389.3 39.6102C389.038 39.7887 388.78 40.0111 388.513 40.2407C388.141 40.5613 387.752 40.8961 387.312 41.1454C387.312 41.1454 387.237 41.1957 387.161 41.1957C387.086 41.1957 387.01 41.1705 386.935 41.0699C386.868 40.9867 386.813 39.3615 386.768 37.2226H381.043C381.013 38.3922 380.985 39.3716 380.976 39.5793C380.976 39.7555 381.077 39.9316 381.253 40.0071C381.303 40.0323 381.328 40.0323 381.379 40.0323C381.504 40.0323 381.781 39.8058 381.932 39.68C382.285 39.4535 382.889 39.2521 383.316 39.2521C384.474 39.3276 385.581 40.2336 385.581 41.6681C385.581 41.9777 385.526 42.3143 385.401 42.6711H394.262C394.7 41.7183 395.506 40.8775 396.536 40.3141C395.063 40.2842 393.897 39.4088 393.897 37.9744ZM381.077 45.1411C381.077 45.1411 381.037 44.3515 381.015 43.5336H383.424C382.99 44.3254 382.283 45.0175 381.605 45.4431C381.504 45.4934 381.429 45.5186 381.353 45.5186C381.127 45.5186 381.077 45.2669 381.077 45.1411ZM381.001 42.6711H383.767C383.817 42.4642 383.845 42.2549 383.845 42.0456C383.845 41.4164 383.543 40.5859 382.813 40.5859C382.234 40.5859 381.228 41.3158 381.051 41.8191C381.026 41.9198 381.001 42.2218 381.001 42.6244L381.001 42.6711ZM380.012 42.6711C379.98 40.9232 379.954 38.9475 379.935 37.2226H365.62V42.6711H380.012ZM381.152 32.4823C381.152 32.7518 381.109 34.6082 381.065 36.3601H386.751C386.719 34.6122 386.693 32.6367 386.674 30.9118H365.62V36.3601H379.926C379.905 34.2895 379.894 32.7592 379.894 32.7592C379.919 32.3062 380.322 32.0545 380.674 32.0545C380.926 32.0545 381.152 32.2055 381.152 32.4823ZM328.057 18.2897C328.279 18.6476 328.413 19.0817 328.413 19.5795C328.413 20.7138 327.664 22.2105 325.527 23.7382H330.59C330.214 23.3483 329.989 22.8264 329.989 22.1969C329.989 20.6562 330.992 19.1668 332.515 18.2897H328.057ZM365.275 23.7382H335.459C337.014 22.8566 338.269 21.3594 338.269 19.8312C338.269 19.2124 338.05 18.6858 337.669 18.2897H365.275V23.7382ZM325.644 18.4973C325.066 18.4973 324.059 19.2272 323.883 19.7305C323.858 19.8312 323.832 20.1331 323.832 20.5358C323.832 21.5425 323.908 23.0525 323.908 23.0525C323.908 23.1783 323.958 23.43 324.185 23.43C324.26 23.43 324.336 23.4048 324.436 23.3545C325.519 22.675 326.676 21.316 326.676 19.957C326.676 19.3278 326.374 18.4973 325.644 18.4973ZM281.009 42.6711H308.117V37.2226H280.663C280.144 38.1732 279.222 39.0169 278.178 39.5819L278.231 39.5805C278.252 39.5801 278.273 39.5797 278.294 39.5795C278.307 39.5793 278.321 39.5792 278.335 39.5792L278.365 39.5791C279.975 39.5791 281.108 40.5103 281.108 41.9196C281.108 42.1718 281.073 42.4232 281.009 42.6711ZM275.468 40.3141C273.994 40.2842 272.828 39.4088 272.828 37.9744C272.828 37.7216 272.855 37.4702 272.907 37.2226H266.713C266.683 38.3922 266.656 39.3716 266.646 39.5793C266.646 39.7555 266.747 39.9316 266.923 40.0071C266.973 40.0323 266.998 40.0323 267.049 40.0323C267.175 40.0323 267.451 39.8058 267.602 39.68C267.955 39.4535 268.559 39.2521 268.987 39.2521C270.144 39.3276 271.252 40.2336 271.252 41.6681C271.252 41.9777 271.196 42.3143 271.071 42.6711H273.194C273.632 41.7183 274.437 40.8775 275.468 40.3141ZM308.117 36.3601H281.009C281.074 36.1122 281.108 35.8609 281.108 35.6088C281.108 34.1995 279.975 33.2683 278.365 33.2683C275.997 33.2683 273.989 34.6295 273.194 36.3601H266.735C266.779 34.6082 266.822 32.7518 266.822 32.4823C266.822 32.2055 266.596 32.0545 266.344 32.0545C265.992 32.0545 265.589 32.3062 265.564 32.7592C265.564 32.7592 265.575 34.2895 265.596 36.3601H251.3V30.9118H308.117V36.3601ZM265.605 37.2226C265.624 38.9475 265.65 40.9232 265.682 42.6711H251.3V37.2226H265.605ZM266.671 42.6711L266.671 42.6244C266.671 42.2218 266.696 41.9198 266.722 41.8191C266.898 41.3158 267.904 40.5859 268.483 40.5859C269.213 40.5859 269.515 41.4164 269.515 42.0456C269.515 42.2549 269.488 42.4642 269.437 42.6711H266.671ZM266.685 43.5336H269.095C268.66 44.3254 267.953 45.0175 267.275 45.4431C267.175 45.4934 267.099 45.5186 267.024 45.5186C266.797 45.5186 266.747 45.2669 266.747 45.1411C266.747 45.1411 266.707 44.3515 266.685 43.5336ZM223.85 42.6711H250.955V37.2226H223.504C222.985 38.1732 222.063 39.0169 221.019 39.5819C221.081 39.58 221.143 39.5791 221.205 39.5791C222.816 39.5791 223.948 40.5103 223.948 41.9196C223.948 42.1718 223.914 42.4232 223.85 42.6711ZM209.575 36.3601H216.035C216.83 34.6295 218.838 33.2683 221.205 33.2683C222.816 33.2683 223.948 34.1995 223.948 35.6088C223.948 35.8609 223.914 36.1122 223.85 36.3601H250.955V30.9118H194.14V36.3601H208.436C208.414 34.2895 208.404 32.7592 208.404 32.7592C208.429 32.3062 208.831 32.0545 209.184 32.0545C209.435 32.0545 209.662 32.2055 209.662 32.4823C209.662 32.7518 209.619 34.6082 209.575 36.3601ZM215.669 37.9744C215.669 37.7216 215.696 37.4702 215.748 37.2226H209.553C209.522 38.3922 209.495 39.3716 209.486 39.5793C209.486 39.7555 209.586 39.9316 209.763 40.0071C209.813 40.0323 209.838 40.0323 209.888 40.0323C210.014 40.0323 210.291 39.8058 210.442 39.68C210.794 39.4535 211.398 39.2521 211.826 39.2521C212.984 39.3276 214.091 40.2336 214.091 41.6681C214.091 41.9777 214.035 42.3143 213.911 42.6711H216.034C216.472 41.7183 217.278 40.8775 218.308 40.3141C216.835 40.2842 215.669 39.4088 215.669 37.9744ZM208.445 37.2226C208.464 38.9475 208.49 40.9232 208.522 42.6711H194.14V37.2226H208.445ZM209.511 42.6711L209.511 42.6244C209.511 42.2218 209.536 41.9198 209.561 41.8191C209.737 41.3158 210.744 40.5859 211.323 40.5859C212.053 40.5859 212.355 41.4164 212.355 42.0456C212.355 42.2549 212.327 42.4642 212.277 42.6711H209.511ZM209.525 43.5336H211.934C211.5 44.3254 210.793 45.0175 210.115 45.4431C210.014 45.4934 209.939 45.5186 209.863 45.5186C209.637 45.5186 209.586 45.2669 209.586 45.1411C209.586 45.1411 209.547 44.3515 209.525 43.5336ZM112.839 42.6711H139.945V37.2226H112.493C111.973 38.1732 111.052 39.0169 110.008 39.5819C110.07 39.58 110.132 39.5791 110.194 39.5791C111.805 39.5791 112.937 40.5103 112.937 41.9196C112.937 42.1718 112.903 42.4232 112.839 42.6711ZM86.4398 36.3601H105.023C105.819 34.6295 107.827 33.2683 110.194 33.2683C111.805 33.2683 112.937 34.1995 112.937 35.6088C112.937 35.8609 112.903 36.1122 112.839 36.3601H139.945V30.9118H86.4398V36.3601ZM104.657 37.9744C104.657 37.7216 104.684 37.4702 104.736 37.2226H86.4398V42.6711H105.023C105.461 41.7183 106.267 40.8775 107.297 40.3141C105.824 40.2842 104.657 39.4088 104.657 37.9744ZM56.1576 39.5819C57.2018 39.0169 58.1234 38.1732 58.6425 37.2226H86.0948V42.6711H58.9889C59.053 42.4232 59.0872 42.1718 59.0872 41.9196C59.0872 40.5103 57.9547 39.5791 56.344 39.5791C56.2816 39.5791 56.2195 39.58 56.1576 39.5819ZM491.339 18.2897H487.261V23.7382H491.339V18.2897ZM491.339 24.6008H487.261V30.0493H491.339V24.6008ZM491.339 30.9118H487.261V36.3601H491.339V30.9118ZM491.339 37.2226H487.261V42.6711H491.339V37.2226ZM486.916 18.2897V23.7382H429.533V18.2897H486.916ZM429.188 18.2897H365.62V23.7382H429.188V18.2897ZM429.188 24.6008H365.62V30.0493H386.665C386.644 27.9786 386.633 26.4481 386.633 26.4481C386.658 25.9951 387.061 25.7435 387.413 25.7435C387.665 25.7435 387.891 25.8945 387.891 26.1713C387.891 26.4408 387.848 28.2973 387.804 30.0493H429.188V24.6008ZM390.163 37.2226C389.729 38.0143 389.022 38.7065 388.344 39.132C388.243 39.1824 388.168 39.2076 388.092 39.2076C387.866 39.2076 387.816 38.9559 387.816 38.8301C387.816 38.8301 387.776 38.0405 387.754 37.2226H390.163ZM390.506 36.3601H387.74L387.74 36.3134C387.74 35.9107 387.765 35.6087 387.79 35.5081C387.967 35.0047 388.973 34.2749 389.552 34.2749C390.282 34.2749 390.584 35.1054 390.584 35.7346C390.584 35.9439 390.556 36.1532 390.506 36.3601ZM365.275 37.2226V42.6711H308.462V37.2226H330.068C330.016 37.4702 329.989 37.7216 329.989 37.9744C329.989 39.4341 331.197 40.3149 332.707 40.3149C334.624 40.3149 336.884 38.944 337.824 37.2226H365.275ZM338.171 36.3601H365.275V30.9118H308.462V36.3601H330.355C331.151 34.6295 333.159 33.2683 335.526 33.2683C337.136 33.2683 338.269 34.1995 338.269 35.6088C338.269 35.8609 338.235 36.1122 338.171 36.3601ZM308.117 18.2897H251.3V23.7382H308.117V18.2897ZM308.117 24.6008H280.508C280.889 24.9968 281.108 25.5235 281.108 26.1422C281.108 27.6704 279.853 29.1677 278.298 30.0493H308.117V24.6008ZM272.828 28.5079C272.828 26.9673 273.831 25.4778 275.354 24.6008H251.3V30.0493H273.429C273.053 29.6593 272.828 29.1374 272.828 28.5079ZM250.955 24.6008V30.0493H194.14V24.6008H250.955ZM250.955 18.2897V23.7382H194.14V18.2897H250.955ZM193.795 18.2897H166.188C166.569 18.6858 166.787 19.2124 166.787 19.8312C166.787 21.3594 165.533 22.8566 163.977 23.7382H193.795V18.2897ZM158.508 22.1969C158.508 20.6562 159.51 19.1668 161.033 18.2897H140.29V23.7382H159.109C158.732 23.3483 158.508 22.8264 158.508 22.1969ZM193.795 24.6008H166.188C166.569 24.9968 166.787 25.5235 166.787 26.1422C166.787 27.6704 165.533 29.1677 163.977 30.0493H193.795V24.6008ZM158.508 28.5079C158.508 26.9673 159.51 25.4778 161.033 24.6008H140.29V30.0493H159.109C158.732 29.6593 158.508 29.1374 158.508 28.5079ZM193.795 30.9118H140.29V36.3601H158.873C159.669 34.6295 161.677 33.2683 164.044 33.2683C165.655 33.2683 166.787 34.1995 166.787 35.6088C166.787 35.8609 166.753 36.1122 166.689 36.3601H193.795V30.9118ZM166.343 37.2226H193.795V42.6711H140.29V37.2226H158.586C158.535 37.4702 158.508 37.7216 158.508 37.9744C158.508 39.4341 159.716 40.3149 161.226 40.3149C163.143 40.3149 165.403 38.944 166.343 37.2226ZM139.945 24.6008V30.0493H110.127C111.683 29.1677 112.937 27.6704 112.937 26.1422C112.937 25.5235 112.719 24.9968 112.338 24.6008H139.945ZM107.183 24.6008C105.66 25.4778 104.657 26.9673 104.657 28.5079C104.657 29.1374 104.882 29.6593 105.259 30.0493H86.4398V24.6008H107.183ZM139.945 18.2897V23.7382H86.4398V18.2897H139.945Z" fill="black"/>
</svg>
