<svg width="493" height="139" viewBox="0 0 493 139" fill="none" xmlns="http://www.w3.org/2000/svg">
<path fill-rule="evenodd" clip-rule="evenodd" d="M42.4412 3.1167H42.5046C42.6274 3.40023 42.6887 3.76416 42.6887 4.2085C42.9722 3.84456 43.2769 3.57161 43.6028 3.38965C43.9329 3.20768 44.2862 3.1167 44.6628 3.1167C45.0903 3.1167 45.4373 3.21403 45.7039 3.40869C45.9705 3.60335 46.1567 3.89534 46.2625 4.28467C46.5841 3.89534 46.9141 3.60335 47.2527 3.40869C47.5912 3.21403 47.9361 3.1167 48.2874 3.1167C48.6894 3.1167 49.03 3.2098 49.3093 3.396C49.5886 3.58219 49.7579 3.79378 49.8171 4.03076C49.8764 4.26774 49.906 4.65072 49.906 5.17969V6.74121C49.906 7.34635 49.9166 7.71452 49.9377 7.8457C49.9631 7.97689 50.0308 8.07422 50.1409 8.1377C50.2551 8.20117 50.4646 8.23291 50.7693 8.23291V8.5249H48.1731V8.23291C48.4482 8.23291 48.6407 8.20329 48.7507 8.14404C48.865 8.08057 48.9348 7.98747 48.9602 7.86475C48.9856 7.73779 48.9983 7.36328 48.9983 6.74121V5.0083C48.9983 4.65706 48.9771 4.39258 48.9348 4.21484C48.8967 4.03711 48.793 3.88477 48.6238 3.75781C48.4545 3.63086 48.2345 3.56738 47.9636 3.56738C47.6886 3.56738 47.4114 3.66048 47.1321 3.84668C46.857 4.03288 46.5798 4.31429 46.3005 4.69092V6.74121C46.3005 7.29557 46.3069 7.64469 46.3196 7.78857C46.3365 7.92822 46.3958 8.03825 46.4973 8.11865C46.6031 8.19482 46.7893 8.23291 47.0559 8.23291V8.5249H44.5422V8.23291C44.8258 8.23291 45.0225 8.20329 45.1326 8.14404C45.2468 8.0848 45.3167 7.99381 45.342 7.87109C45.3717 7.74837 45.3865 7.37174 45.3865 6.74121V5.30029C45.3865 4.84326 45.3674 4.51318 45.3293 4.31006C45.2955 4.1027 45.1876 3.92708 45.0056 3.7832C44.8237 3.63509 44.5972 3.56104 44.3264 3.56104C44.064 3.56104 43.7953 3.64567 43.5203 3.81494C43.2494 3.98421 42.9722 4.23812 42.6887 4.57666V6.74121C42.6887 7.3125 42.6972 7.66797 42.7141 7.80762C42.731 7.94727 42.7945 8.05306 42.9045 8.125C43.0146 8.19694 43.2113 8.23291 43.4949 8.23291V8.5249H40.9495V8.23291C41.2288 8.23291 41.4234 8.20329 41.5334 8.14404C41.6477 8.08057 41.7175 7.98747 41.7429 7.86475C41.7683 7.74202 41.781 7.36751 41.781 6.74121V5.18604C41.781 4.59359 41.7704 4.23177 41.7493 4.10059C41.7323 3.96517 41.6667 3.86361 41.5525 3.7959C41.4425 3.72819 41.2415 3.69434 40.9495 3.69434V3.40234C41.5504 3.3431 42.0476 3.24788 42.4412 3.1167ZM55.8728 4.51318C55.6147 4.82633 55.3396 5.0612 55.0476 5.21777C54.7556 5.37435 54.4488 5.45264 54.1272 5.45264C53.4417 5.45264 52.8492 5.1945 52.3499 4.67822C51.8547 4.15771 51.6072 3.51025 51.6072 2.73584C51.6072 1.99951 51.8484 1.36051 52.3308 0.818848C52.8132 0.272949 53.429 0 54.178 0C54.8127 0 55.3481 0.201009 55.7839 0.603027C56.2198 1.00505 56.5245 1.50863 56.698 2.11377C56.8757 2.71468 56.9646 3.34098 56.9646 3.99268C56.9646 5.33415 56.6684 6.4598 56.0759 7.36963C55.4877 8.27946 54.6985 8.73438 53.7083 8.73438C53.2428 8.73438 52.8323 8.63281 52.4768 8.42969C52.1213 8.22656 51.9436 8.00016 51.9436 7.75049C51.9436 7.51351 52.0663 7.39502 52.3118 7.39502C52.5191 7.39502 52.6969 7.53678 52.845 7.82031C53.0481 8.2181 53.393 8.41699 53.8796 8.41699C54.5483 8.41699 55.0497 8.12077 55.384 7.52832C55.7183 6.93164 55.8855 6.04085 55.8855 4.85596C55.8855 4.75863 55.8813 4.64437 55.8728 4.51318ZM55.9045 2.82471C55.9045 2.41423 55.8474 2.00798 55.7332 1.60596C55.6189 1.19971 55.4263 0.880208 55.1555 0.647461C54.8847 0.414714 54.5821 0.29834 54.2478 0.29834C53.7188 0.29834 53.321 0.509928 53.0544 0.933105C52.7921 1.35205 52.6609 1.9847 52.6609 2.83105C52.6609 3.36426 52.7117 3.78109 52.8132 4.08154C52.9148 4.37777 53.0968 4.62533 53.3591 4.82422C53.6257 5.02311 53.922 5.12256 54.2478 5.12256C54.6879 5.12256 55.073 4.95752 55.4031 4.62744C55.7374 4.29313 55.9045 3.69222 55.9045 2.82471ZM63.1384 8.5249V2.1119C62.9037 2.3099 62.5517 2.52257 62.0824 2.7499V2.3649C62.6251 1.9029 63.021 1.4189 63.2704 0.912902H63.4684C63.7251 1.4189 64.121 1.9029 64.6564 2.3649V2.7499C64.187 2.52257 63.8351 2.3099 63.6004 2.1119V8.5249H63.1384ZM135.502 0H132.862L129.726 7.12207L126.571 0H123.949V0.291992H124.184C124.62 0.291992 124.902 0.330078 125.029 0.40625C125.16 0.482422 125.244 0.619954 125.282 0.818848C125.325 1.01774 125.346 1.45996 125.346 2.14551V5.89062C125.346 6.60156 125.321 7.08822 125.27 7.35059C125.219 7.61296 125.077 7.83512 124.844 8.01709C124.616 8.19482 124.318 8.29427 123.949 8.31543V8.60742H127.028V8.31543C126.63 8.29004 126.321 8.18425 126.101 7.99805C125.881 7.80762 125.75 7.58756 125.708 7.33789C125.665 7.08822 125.644 6.61849 125.644 5.92871V0.888672L129.078 8.60742H129.377L132.785 0.888672V6.3667C132.785 7.0861 132.764 7.54525 132.722 7.74414C132.684 7.9388 132.593 8.08268 132.449 8.17578C132.309 8.26888 132.058 8.31543 131.694 8.31543H131.389V8.60742H135.502V8.31543H135.121C134.732 8.31543 134.468 8.26465 134.328 8.16309C134.192 8.06152 134.108 7.90706 134.074 7.69971C134.04 7.48812 134.023 7.04378 134.023 6.3667V2.14551C134.023 1.43034 134.044 0.977539 134.087 0.787109C134.133 0.59668 134.222 0.467611 134.353 0.399902C134.484 0.327962 134.762 0.291992 135.185 0.291992H135.502V0ZM139.749 5.30029C140.041 5.14372 140.316 4.90885 140.574 4.5957C140.582 4.72689 140.587 4.84115 140.587 4.93848C140.587 6.12337 140.42 7.01416 140.085 7.61084C139.751 8.20329 139.249 8.49951 138.581 8.49951C138.094 8.49951 137.749 8.30062 137.546 7.90283C137.398 7.6193 137.22 7.47754 137.013 7.47754C136.767 7.47754 136.645 7.59603 136.645 7.83301C136.645 8.08268 136.823 8.30908 137.178 8.51221C137.533 8.71533 137.944 8.81689 138.409 8.81689C139.4 8.81689 140.189 8.36198 140.777 7.45215C141.37 6.54232 141.666 5.41667 141.666 4.0752C141.666 3.4235 141.577 2.7972 141.399 2.19629C141.226 1.59115 140.921 1.08757 140.485 0.685547C140.049 0.283529 139.514 0.0825195 138.879 0.0825195C138.13 0.0825195 137.514 0.355469 137.032 0.901367C136.55 1.44303 136.308 2.08203 136.308 2.81836C136.308 3.59277 136.556 4.24023 137.051 4.76074C137.55 5.27702 138.143 5.53516 138.828 5.53516C139.15 5.53516 139.457 5.45687 139.749 5.30029ZM140.434 1.68848C140.549 2.09049 140.606 2.49674 140.606 2.90723C140.606 3.77474 140.439 4.37565 140.104 4.70996C139.774 5.04004 139.389 5.20508 138.949 5.20508C138.623 5.20508 138.327 5.10563 138.06 4.90674C137.798 4.70785 137.616 4.46029 137.514 4.16406C137.413 3.86361 137.362 3.44678 137.362 2.91357C137.362 2.06722 137.493 1.43457 137.756 1.01562C138.022 0.592448 138.42 0.380859 138.949 0.380859C139.283 0.380859 139.586 0.497233 139.857 0.72998C140.128 0.962728 140.32 1.28223 140.434 1.68848ZM146.215 2.19442V8.60742H146.677V2.19442C146.911 2.39242 147.263 2.60509 147.733 2.83242V2.44742C147.197 1.98542 146.801 1.50142 146.545 0.995422H146.347C146.097 1.50142 145.701 1.98542 145.159 2.44742V2.83242C145.628 2.60509 145.98 2.39242 146.215 2.19442ZM360.514 4.64014V6.44922C360.514 7.1263 360.529 7.57064 360.558 7.78223C360.592 7.98958 360.679 8.14404 360.819 8.24561C360.958 8.34717 361.221 8.39795 361.606 8.39795H361.891V8.68994H357.949V8.39795H358.178C358.546 8.39795 358.8 8.3514 358.94 8.2583C359.084 8.1652 359.175 8.02132 359.213 7.82666C359.251 7.62777 359.27 7.16862 359.27 6.44922V2.22803C359.27 1.54248 359.251 1.10026 359.213 0.901367C359.175 0.702474 359.09 0.564941 358.959 0.48877C358.828 0.412598 358.544 0.374512 358.108 0.374512H357.949V0.0825195L359.029 0.0444336C359.892 0.0148112 360.565 0 361.047 0C361.936 0 362.619 0.0698242 363.097 0.209473C363.58 0.349121 363.973 0.59668 364.278 0.952148C364.587 1.30762 364.741 1.75618 364.741 2.29785C364.741 2.76758 364.636 3.18229 364.424 3.54199C364.217 3.90169 363.916 4.17464 363.523 4.36084C363.133 4.54704 362.446 4.64014 361.46 4.64014H360.514ZM360.514 4.32275H361.13C361.625 4.32275 362.025 4.27409 362.329 4.17676C362.634 4.0752 362.888 3.86572 363.091 3.54834C363.294 3.23096 363.396 2.83952 363.396 2.37402C363.396 1.66309 363.22 1.14258 362.869 0.8125C362.522 0.47819 361.957 0.311035 361.174 0.311035C360.886 0.311035 360.666 0.319499 360.514 0.336426V4.32275ZM368.322 0.165039H368.601V6.90625C368.601 7.46061 368.607 7.80973 368.62 7.95361C368.637 8.09749 368.698 8.20752 368.804 8.28369C368.91 8.35986 369.098 8.39795 369.369 8.39795H369.616V8.68994H366.76V8.39795H366.969C367.274 8.39795 367.471 8.35563 367.56 8.271C367.653 8.18213 367.706 8.07845 367.719 7.95996C367.735 7.83724 367.744 7.486 367.744 6.90625V2.38672C367.744 1.81543 367.738 1.47054 367.725 1.35205C367.712 1.22933 367.657 1.12354 367.56 1.03467C367.467 0.941569 367.27 0.89502 366.969 0.89502H366.697V0.603027C367.429 0.590332 367.97 0.444336 368.322 0.165039ZM374.822 0.165039H375.101V6.90625C375.101 7.46061 375.107 7.80973 375.12 7.95361C375.137 8.09749 375.198 8.20752 375.304 8.28369C375.41 8.35986 375.598 8.39795 375.869 8.39795H376.116V8.68994H373.26V8.39795H373.469C373.774 8.39795 373.971 8.35563 374.06 8.271C374.153 8.18213 374.206 8.07845 374.219 7.95996C374.235 7.83724 374.244 7.486 374.244 6.90625V2.38672C374.244 1.81543 374.238 1.47054 374.225 1.35205C374.212 1.22933 374.157 1.12354 374.06 1.03467C373.967 0.941569 373.77 0.89502 373.469 0.89502H373.197V0.603027C373.929 0.590332 374.47 0.444336 374.822 0.165039ZM383.043 8.41797V2.00497C382.809 2.20297 382.457 2.41563 381.987 2.64297V2.25797C382.53 1.79597 382.926 1.31197 383.175 0.805968H383.373C383.63 1.31197 384.026 1.79597 384.561 2.25797V2.64297C384.092 2.41563 383.74 2.20297 383.505 2.00497V8.41797H383.043ZM437.554 5.5542H434.285L434.063 6.1001C433.733 6.89144 433.568 7.40771 433.568 7.64893C433.568 7.90706 433.655 8.10384 433.828 8.23926C434.006 8.37044 434.233 8.43604 434.508 8.43604V8.72803H431.949V8.43604C432.33 8.37679 432.614 8.24349 432.8 8.03613C432.986 7.82454 433.211 7.38232 433.473 6.70947C433.494 6.646 433.596 6.40055 433.778 5.97314L436.279 0H436.526L439.402 6.83643L439.795 7.73779C439.884 7.94092 440.003 8.10173 440.151 8.22021C440.303 8.33447 440.529 8.40641 440.83 8.43604V8.72803H437.447V8.43604C437.861 8.43604 438.141 8.40641 438.284 8.34717C438.433 8.28369 438.507 8.16097 438.507 7.979C438.507 7.8859 438.409 7.60872 438.215 7.14746L437.554 5.5542ZM437.447 5.26855L435.923 1.59961L434.406 5.26855H437.447ZM444.239 0.203125H444.518V6.94434C444.518 7.4987 444.524 7.84782 444.537 7.9917C444.554 8.13558 444.615 8.24561 444.721 8.32178C444.827 8.39795 445.015 8.43604 445.286 8.43604H445.533V8.72803H442.677V8.43604H442.886C443.191 8.43604 443.388 8.39372 443.477 8.30908C443.57 8.22021 443.623 8.11654 443.635 7.99805C443.652 7.87533 443.661 7.52409 443.661 6.94434V2.4248C443.661 1.85352 443.655 1.50863 443.642 1.39014C443.629 1.26742 443.574 1.16162 443.477 1.07275C443.384 0.979655 443.187 0.933105 442.886 0.933105H442.614V0.641113C443.346 0.628418 443.887 0.482422 444.239 0.203125ZM450.739 0.203125H451.018V6.94434C451.018 7.4987 451.024 7.84782 451.037 7.9917C451.054 8.13558 451.115 8.24561 451.221 8.32178C451.327 8.39795 451.515 8.43604 451.786 8.43604H452.033V8.72803H449.177V8.43604H449.386C449.691 8.43604 449.888 8.39372 449.977 8.30908C450.07 8.22021 450.123 8.11654 450.135 7.99805C450.152 7.87533 450.161 7.52409 450.161 6.94434V2.4248C450.161 1.85352 450.155 1.50863 450.142 1.39014C450.129 1.26742 450.074 1.16162 449.977 1.07275C449.884 0.979655 449.687 0.933105 449.386 0.933105H449.114V0.641113C449.846 0.628418 450.387 0.482422 450.739 0.203125ZM457.462 8.45605V2.04305C457.227 2.24105 456.875 2.45372 456.406 2.68105V2.29605C456.949 1.83405 457.345 1.35005 457.594 0.844054H457.792C458.049 1.35005 458.445 1.83405 458.98 2.29605V2.68105C458.511 2.45372 458.159 2.24105 457.924 2.04305V8.45605H457.462ZM288.862 0L285.726 7.12207L282.571 0H279.949V0.291992H280.184C280.62 0.291992 280.902 0.330078 281.029 0.40625C281.16 0.482422 281.244 0.619954 281.282 0.818848C281.325 1.01774 281.346 1.45996 281.346 2.14551V5.89062C281.346 6.60156 281.321 7.08822 281.27 7.35059C281.219 7.61296 281.077 7.83512 280.844 8.01709C280.616 8.19482 280.318 8.29427 279.949 8.31543V8.60742H283.028V8.31543C282.63 8.29004 282.321 8.18425 282.101 7.99805C281.881 7.80762 281.75 7.58756 281.708 7.33789C281.665 7.08822 281.644 6.61849 281.644 5.92871V0.888672L285.078 8.60742H285.377L288.785 0.888672V6.3667C288.785 7.0861 288.764 7.54525 288.722 7.74414C288.684 7.9388 288.593 8.08268 288.449 8.17578C288.309 8.26888 288.058 8.31543 287.694 8.31543H287.389V8.60742H291.502V8.31543H291.121C290.732 8.31543 290.468 8.26465 290.328 8.16309C290.192 8.06152 290.108 7.90706 290.074 7.69971C290.04 7.48812 290.023 7.04378 290.023 6.3667V2.14551C290.023 1.43034 290.044 0.977539 290.087 0.787109C290.133 0.59668 290.222 0.467611 290.353 0.399902C290.484 0.327962 290.762 0.291992 291.185 0.291992H291.502V0H288.862ZM295.52 0.0825195H295.241C294.89 0.361816 294.348 0.507812 293.616 0.520508V0.8125H293.889C294.189 0.8125 294.386 0.859049 294.479 0.952148C294.577 1.04102 294.632 1.14681 294.644 1.26953C294.657 1.38802 294.663 1.73291 294.663 2.3042V6.82373C294.663 7.40348 294.655 7.75472 294.638 7.87744C294.625 7.99593 294.572 8.09961 294.479 8.18848C294.39 8.27311 294.194 8.31543 293.889 8.31543H293.679V8.60742H296.536V8.31543H296.288C296.018 8.31543 295.829 8.27734 295.723 8.20117C295.618 8.125 295.556 8.01497 295.539 7.87109C295.527 7.72721 295.52 7.37809 295.52 6.82373V0.0825195ZM299.551 1.27588C299.052 2.06722 298.802 3.12516 298.802 4.44971C298.802 5.76579 299.052 6.82373 299.551 7.62354C300.055 8.41911 300.713 8.81689 301.525 8.81689C302.342 8.81689 303 8.41699 303.499 7.61719C303.999 6.81315 304.248 5.75732 304.248 4.44971C304.248 3.13363 303.996 2.0778 303.493 1.28223C302.994 0.482422 302.338 0.0825195 301.525 0.0825195C300.713 0.0825195 300.055 0.480306 299.551 1.27588ZM300.294 7.80127C300.002 7.32308 299.856 6.20589 299.856 4.44971C299.856 2.68506 300.004 1.56787 300.3 1.09814C300.596 0.624186 301.005 0.387207 301.525 0.387207C302.046 0.387207 302.452 0.624186 302.744 1.09814C303.04 1.5721 303.188 2.68929 303.188 4.44971C303.188 6.01969 303.066 7.09033 302.82 7.66162C302.575 8.22868 302.143 8.51221 301.525 8.51221C301 8.51221 300.59 8.27523 300.294 7.80127ZM309.215 1.80184V8.21484H309.677V1.80184C309.911 1.99984 310.263 2.21251 310.733 2.43984V2.05484C310.197 1.59284 309.801 1.10884 309.545 0.602843H309.347C309.097 1.10884 308.701 1.59284 308.159 2.05484V2.43984C308.628 2.21251 308.98 1.99984 309.215 1.80184ZM193.441 3.1167H193.505C193.627 3.40023 193.689 3.76416 193.689 4.2085C193.972 3.84456 194.277 3.57161 194.603 3.38965C194.933 3.20768 195.286 3.1167 195.663 3.1167C196.09 3.1167 196.437 3.21403 196.704 3.40869C196.97 3.60335 197.157 3.89534 197.262 4.28467C197.584 3.89534 197.914 3.60335 198.253 3.40869C198.591 3.21403 198.936 3.1167 199.287 3.1167C199.689 3.1167 200.03 3.2098 200.309 3.396C200.589 3.58219 200.758 3.79378 200.817 4.03076C200.876 4.26774 200.906 4.65072 200.906 5.17969V6.74121C200.906 7.34635 200.917 7.71452 200.938 7.8457C200.963 7.97689 201.031 8.07422 201.141 8.1377C201.255 8.20117 201.465 8.23291 201.769 8.23291V8.5249H199.173V8.23291C199.448 8.23291 199.641 8.20329 199.751 8.14404C199.865 8.08057 199.935 7.98747 199.96 7.86475C199.986 7.73779 199.998 7.36328 199.998 6.74121V5.0083C199.998 4.65706 199.977 4.39258 199.935 4.21484C199.897 4.03711 199.793 3.88477 199.624 3.75781C199.455 3.63086 199.234 3.56738 198.964 3.56738C198.689 3.56738 198.411 3.66048 198.132 3.84668C197.857 4.03288 197.58 4.31429 197.301 4.69092V6.74121C197.301 7.29557 197.307 7.64469 197.32 7.78857C197.337 7.92822 197.396 8.03825 197.497 8.11865C197.603 8.19482 197.789 8.23291 198.056 8.23291V8.5249H195.542V8.23291C195.826 8.23291 196.023 8.20329 196.133 8.14404C196.247 8.0848 196.317 7.99381 196.342 7.87109C196.372 7.74837 196.386 7.37174 196.386 6.74121V5.30029C196.386 4.84326 196.367 4.51318 196.329 4.31006C196.295 4.1027 196.188 3.92708 196.006 3.7832C195.824 3.63509 195.597 3.56104 195.326 3.56104C195.064 3.56104 194.795 3.64567 194.52 3.81494C194.249 3.98421 193.972 4.23812 193.689 4.57666V6.74121C193.689 7.3125 193.697 7.66797 193.714 7.80762C193.731 7.94727 193.795 8.05306 193.905 8.125C194.015 8.19694 194.211 8.23291 194.495 8.23291V8.5249H191.949V8.23291C192.229 8.23291 192.423 8.20329 192.533 8.14404C192.648 8.08057 192.718 7.98747 192.743 7.86475C192.768 7.74202 192.781 7.36751 192.781 6.74121V5.18604C192.781 4.59359 192.77 4.23177 192.749 4.10059C192.732 3.96517 192.667 3.86361 192.552 3.7959C192.442 3.72819 192.241 3.69434 191.949 3.69434V3.40234C192.55 3.3431 193.048 3.24788 193.441 3.1167ZM205.54 0H205.819V6.74121C205.819 7.29557 205.825 7.64469 205.838 7.78857C205.855 7.93245 205.916 8.04248 206.022 8.11865C206.128 8.19482 206.316 8.23291 206.587 8.23291H206.835V8.5249H203.978V8.23291H204.188C204.492 8.23291 204.689 8.19059 204.778 8.10596C204.871 8.01709 204.924 7.91341 204.937 7.79492C204.954 7.6722 204.962 7.32096 204.962 6.74121V2.22168C204.962 1.65039 204.956 1.3055 204.943 1.18701C204.93 1.06429 204.875 0.958496 204.778 0.869629C204.685 0.77653 204.488 0.72998 204.188 0.72998H203.915V0.437988C204.647 0.425293 205.189 0.279297 205.54 0ZM209.101 4.36719C209.101 3.04264 209.351 1.9847 209.85 1.19336C210.353 0.397786 211.011 0 211.824 0C212.636 0 213.292 0.399902 213.792 1.19971C214.295 1.99528 214.547 3.05111 214.547 4.36719C214.547 5.6748 214.297 6.73063 213.798 7.53467C213.299 8.33447 212.641 8.73438 211.824 8.73438C211.011 8.73438 210.353 8.33659 209.85 7.54102C209.351 6.74121 209.101 5.68327 209.101 4.36719ZM210.155 4.36719C210.155 6.12337 210.301 7.24056 210.593 7.71875C210.889 8.19271 211.299 8.42969 211.824 8.42969C212.442 8.42969 212.873 8.14616 213.119 7.5791C213.364 7.00781 213.487 5.93717 213.487 4.36719C213.487 2.60677 213.339 1.48958 213.043 1.01562C212.751 0.541667 212.344 0.304688 211.824 0.304688C211.303 0.304688 210.895 0.541667 210.599 1.01562C210.303 1.48535 210.155 2.60254 210.155 4.36719ZM221.138 8.13232V1.71932C220.904 1.91732 220.552 2.12999 220.082 2.35732V1.97232C220.625 1.51032 221.021 1.02632 221.27 0.520324H221.468C221.725 1.02632 222.121 1.51032 222.656 1.97232V2.35732C222.187 2.12999 221.835 1.91732 221.6 1.71932V8.13232H221.138ZM441.474 18.9708C441.575 18.9708 442.053 18.7443 442.128 18.694C442.132 18.694 442.135 18.6936 442.138 18.6929C442.147 18.6908 442.157 18.6861 442.166 18.6814C442.171 18.6788 442.176 18.6762 442.182 18.6741C442.189 18.671 442.196 18.6688 442.204 18.6688C442.38 18.6688 442.531 18.9205 442.531 19.1218V19.1939H410.048V18.0474H409.703V19.1939H375.658C375.722 18.946 375.756 18.6946 375.756 18.4424C375.756 17.0331 374.624 16.1019 373.013 16.1019C370.646 16.1019 368.638 17.4632 367.842 19.1939H332.302V18.0474H331.957V19.1939H254.548V18.0474H254.203V19.1939H209.097C208.798 19.0422 208.469 18.9519 208.137 18.9302C207.817 18.9302 207.399 19.0426 207.061 19.1939H205.799C205.83 18.3502 205.972 12.6488 205.972 12.1604C205.972 11.8836 205.746 11.7326 205.494 11.7326C205.142 11.7326 204.739 11.9843 204.714 12.4373C204.714 12.4373 204.737 15.732 204.783 19.1939H173.479V18.0474H173.134V19.1939H95.7294V18.0474H95.3844V19.1939H47.0799C47.124 17.442 47.1673 15.5854 47.1673 15.316C47.1673 15.0391 46.9408 14.8881 46.6891 14.8881C46.3368 14.8881 45.9341 15.1398 45.9089 15.5928C45.9089 15.5928 45.9197 17.1232 45.9411 19.1939H17.4891C17.5297 18.8185 17.5508 18.4363 17.5508 18.0475C17.5508 15.8581 16.9468 13.6937 15.9149 12.1837C15.5374 11.6301 14.8831 10.9254 14.6063 10.9254C14.2539 10.9254 13.4738 11.5797 12.9705 12.1334C11.2868 13.9991 10.6316 16.7494 10.5214 19.1939H0V20.0565H10.5044C10.5119 21.4913 10.6842 23.0783 10.8565 24.0875L10.8632 24.1277C10.9084 24.3946 10.9181 24.4514 10.63 24.6915C10.3079 24.9577 9.984 25.2286 9.66119 25.5049H0V26.3675H8.68036C6.91972 27.9636 5.28171 29.7447 4.25372 31.816H0V32.6785H3.86894C3.41744 33.818 3.15552 35.0429 3.15552 36.3688C3.15552 36.9622 3.21052 37.5515 3.32096 38.1268H0V38.9893H3.53159C4.26587 41.4499 6.07972 43.5443 9.01057 44.4378H0V45.3004H14.488C14.7782 46.934 15.1096 48.9259 15.1096 50.0342C15.1096 53.7588 12.593 54.2118 11.1081 54.2118C9.74914 54.2118 9.09481 53.8091 9.09481 53.482C9.09481 53.3058 9.32131 53.2303 9.90014 53.0541C10.6803 52.8277 11.5863 52.1482 11.5863 50.6885C11.5863 49.3043 10.7055 48.1215 9.17031 48.1215C7.48416 48.1215 6.4775 49.4553 6.4775 51.0157C6.4775 52.6515 7.45899 55.1178 11.2591 55.1178C12.9453 55.1178 16.2169 54.3628 16.2169 50.0845C16.2169 48.8241 15.8672 46.8253 15.5945 45.3004H95.3844V46.4469H95.7294V45.3004H173.134V46.4469H173.479V45.3004H254.203V46.4469H254.548V45.3004H331.957V46.4469H332.302V45.3004H409.703V46.4469H410.048V45.3004H491.339V46.4469H491.684V45.3004H492.141V44.4378H491.684V38.9893H492.141V38.1268H491.684V32.6785H492.141V31.816H491.684V26.3675H492.141V25.5049H491.684V20.0565H492.141V19.1939H491.684V18.0474H491.339V19.1939H457.293C457.357 18.946 457.392 18.6946 457.392 18.4424C457.392 17.0331 456.259 16.1019 454.648 16.1019C452.281 16.1019 450.273 17.4632 449.478 19.1939H446.256V17.637C446.256 17.4609 446.381 16.9827 446.583 16.9072L447.237 16.6555C447.413 16.58 447.539 16.3787 447.539 16.2277V14.4409C447.539 14.315 447.464 14.2395 447.363 14.2395C447.313 14.2395 447.287 14.2395 447.237 14.2647C447.237 14.2647 446.734 14.466 446.608 14.4912C446.432 14.4912 446.256 14.3654 446.256 14.164V11.0937C446.256 10.9427 446.105 10.8169 445.903 10.8169C445.652 10.8169 445.501 10.9427 445.501 11.0937V14.3654C445.475 14.617 445.4 14.9442 445.173 15.0952C444.871 15.2714 444.016 15.6237 443.588 15.7244C443.361 15.7244 443.286 15.4224 443.286 15.221V12.2011C443.286 12.0501 443.11 11.9242 442.934 11.9242C442.682 11.9242 442.531 12.0501 442.531 12.2011V15.5985C442.531 15.9509 442.38 16.2025 442.229 16.278C442.078 16.3535 441.575 16.5549 441.575 16.5549C441.398 16.6052 441.273 16.8065 441.273 16.9575V18.7443C441.273 18.8953 441.348 18.9708 441.474 18.9708ZM15.4921 44.4378H95.3844V38.9893H20.0064C19.7501 41.4798 18.1406 43.3497 15.8143 44.271C15.7792 44.2861 15.7474 44.2993 15.7186 44.3114C15.5936 44.3635 15.5249 44.3922 15.4921 44.4378ZM20.0404 38.1268H95.3844V32.6785H16.408C18.6326 33.5912 19.9843 35.744 20.0404 38.1268ZM13.2561 31.816H95.3844V26.3675H61.009C60.0689 28.0887 57.8091 29.4596 55.8921 29.4596C54.3821 29.4596 53.1741 28.5787 53.1741 27.1191C53.1741 26.8663 53.2011 26.615 53.2529 26.3675H50.9967C50.5272 27.1223 49.7534 27.9351 48.5766 28.7549C48.3141 28.9334 48.0559 29.1557 47.7894 29.3853L47.7893 29.3853L47.7893 29.3854C47.417 29.706 47.0284 30.0407 46.5884 30.29C46.5884 30.29 46.5129 30.3404 46.4374 30.3404C46.3619 30.3404 46.2864 30.3152 46.2109 30.2145C46.1444 30.1314 46.0889 28.5063 46.0443 26.3675H14.0161C13.621 26.807 13.2034 27.2299 12.7691 27.636L12.7408 27.6641C12.612 27.7914 12.5711 27.8319 12.6181 28.1141L13.2473 31.7633L13.2561 31.816ZM14.7441 25.5049H46.0274C45.9951 23.7571 45.9694 21.7814 45.9503 20.0565H17.3597C16.9713 22.0769 16.0175 23.8931 14.7441 25.5049ZM15.9554 19.1939C16.2914 18.4706 16.4938 17.7026 16.4938 16.8899C16.4938 15.5057 15.8143 14.8262 14.9838 14.8262C13.7259 14.8262 12.2822 16.4483 11.8017 19.1939H15.9554ZM11.687 20.0565H15.4824C14.6028 21.4501 13.2886 22.6596 12.1148 23.6848C11.9386 23.8358 11.838 23.8107 11.7876 23.4835C11.687 22.8292 11.6366 21.9735 11.6366 21.1682C11.6366 20.7828 11.6541 20.4119 11.687 20.0565ZM12.2162 31.816H7.87416C9.19472 30.393 10.2505 29.5395 11.3238 28.6718L11.3598 28.6426C11.6115 28.4413 11.6618 28.4665 11.7121 28.7433L12.2162 31.816ZM7.12024 32.6785H11.5675C9.52165 33.5038 8.21399 35.4085 8.21399 37.4509C8.21399 37.6832 8.22643 37.9087 8.25061 38.1268H5.16924C5.16897 38.1029 5.16884 38.0789 5.16884 38.0549C5.16884 36.6678 5.38846 34.8415 7.12024 32.6785ZM5.23956 38.9893C5.70341 41.9802 8.41644 43.9942 12.4168 43.9942C12.9201 43.9942 13.4235 43.9439 13.8261 43.8684L13.8453 43.8645C14.2045 43.7928 14.2279 43.7881 14.1784 43.516L13.4189 38.9893H9.91002C10.0019 40.0584 10.7254 41.0295 11.7121 41.4524L11.741 41.4647C11.9096 41.5364 12.0896 41.613 12.0896 41.7796C12.0896 41.9305 11.989 42.0564 11.7876 42.0564C11.6115 42.0564 11.3095 41.9809 11.1081 41.9054C9.81521 41.4681 8.82395 40.4418 8.41653 38.9893H5.23956ZM9.96757 38.1268H13.2742L12.9201 36.0164C12.8698 35.7396 12.8195 35.7144 12.4168 35.8151C11.1166 36.1774 10.2135 37.0092 9.96757 38.1268ZM14.3486 38.1268L13.9771 35.9661C13.9268 35.6641 13.9519 35.5886 14.2539 35.6138C15.769 35.7447 17.0894 36.7236 17.6676 38.1268H14.3486ZM14.4969 38.9893H17.9165C17.9573 39.2242 17.9786 39.4669 17.9786 39.7159C17.9786 41.3014 17.0223 42.5849 15.6129 43.2895C15.3109 43.4405 15.2606 43.4405 15.2103 43.1385L14.4969 38.9893ZM449.191 20.0565H446.26C446.288 20.3058 446.446 20.4305 446.583 20.4305L447.237 20.1788C447.287 20.1537 447.313 20.1537 447.363 20.1537C447.464 20.1537 447.539 20.2292 447.539 20.355V22.1418C447.539 22.2928 447.413 22.4942 447.237 22.5697C447.237 22.5697 446.709 22.771 446.532 22.8465C446.356 22.922 446.256 23.224 446.256 23.4253V25.5049H491.339V20.0565H456.947C456.007 21.7777 453.747 23.1486 451.83 23.1486C450.32 23.1486 449.112 22.2677 449.112 20.8081C449.112 20.5553 449.139 20.304 449.191 20.0565ZM410.048 20.0565H442.531V21.6133C442.531 21.8902 442.405 22.1167 442.254 22.1922C442.103 22.2425 441.575 22.469 441.575 22.469C441.398 22.5193 441.273 22.7207 441.273 22.8717V24.6585C441.273 24.8095 441.348 24.885 441.474 24.885C441.478 24.885 441.483 24.8842 441.489 24.883C441.494 24.8819 441.5 24.8803 441.505 24.8785L441.524 24.8724L441.535 24.8687L441.546 24.8654L441.55 24.8641C441.556 24.8626 441.561 24.8614 441.565 24.8607C441.569 24.8601 441.572 24.8598 441.575 24.8598C441.575 24.8598 441.927 24.7088 442.153 24.6333C442.179 24.6081 442.204 24.6081 442.229 24.6081C442.405 24.6081 442.531 24.885 442.531 25.0108V25.5049H410.048V20.0565ZM442.531 28.1063V26.3675H410.048V31.816H491.339V26.3675H446.256V26.999C446.256 27.15 446.105 27.2758 445.828 27.2758C445.652 27.2758 445.501 27.15 445.501 26.999V26.3675H443.286V28.1063C443.286 28.2573 443.11 28.3831 442.858 28.3831C442.682 28.3831 442.531 28.2573 442.531 28.1063ZM445.501 20.7577C445.528 20.636 445.555 20.3762 445.574 20.0565H443.212C443.211 20.1649 443.21 20.2735 443.21 20.3802C443.21 20.9842 443.236 21.5378 443.286 21.6385C443.311 21.714 443.437 21.7643 443.588 21.7643C444.167 21.7643 445.35 21.261 445.501 20.7577ZM443.231 19.1939H445.601L445.601 19.147C445.601 18.4675 445.551 17.8384 445.501 17.7125C445.45 17.6119 445.299 17.5615 445.123 17.5615C444.494 17.5615 443.336 18.09 443.286 18.5178C443.262 18.6148 443.243 18.8691 443.231 19.1939ZM443.286 25.5049H445.501V23.8531C445.501 23.7021 445.375 23.4001 445.173 23.4001C445.168 23.4001 445.162 23.4013 445.154 23.4031C445.145 23.4055 445.134 23.4091 445.123 23.4127C445.114 23.4159 445.104 23.419 445.095 23.4214C445.087 23.4238 445.079 23.4253 445.073 23.4253L443.538 24.0545C443.412 24.1048 443.286 24.281 443.286 24.6081V25.5049ZM205.243 27.1848C205.167 27.1848 205.092 27.1597 205.016 27.059C204.991 27.0278 204.968 26.7791 204.946 26.3675H173.479V31.816H254.203V26.3675H206.434C206.11 26.6441 205.771 26.9207 205.394 27.1345C205.394 27.1345 205.318 27.1848 205.243 27.1848ZM204.91 25.5049C204.863 24.1657 204.825 22.1275 204.795 20.0565H173.479V25.5049H204.91ZM367.476 20.8081C367.476 20.5553 367.503 20.304 367.555 20.0565H332.302V25.5049H409.703V20.0565H375.311C374.371 21.7777 372.112 23.1486 370.194 23.1486C368.684 23.1486 367.476 22.2677 367.476 20.8081ZM210.046 20.0565C210.268 20.4143 210.402 20.8485 210.402 21.3462C210.402 22.4805 209.653 23.9772 207.516 25.5049H212.579C212.203 25.115 211.978 24.5931 211.978 23.9636C211.978 22.423 212.981 20.9335 214.504 20.0565H210.046ZM254.203 25.5049H217.448C219.003 24.6234 220.258 23.1261 220.258 21.5979C220.258 20.9791 220.039 20.4525 219.658 20.0565H254.203V25.5049ZM207.633 20.264C207.055 20.264 206.048 20.9939 205.872 21.4972C205.847 21.5979 205.821 21.8999 205.821 22.3025C205.821 23.3092 205.897 24.8192 205.897 24.8192C205.897 24.945 205.947 25.1967 206.174 25.1967C206.249 25.1967 206.325 25.1715 206.425 25.1212C207.508 24.4417 208.665 23.0827 208.665 21.7237C208.665 21.0945 208.363 20.264 207.633 20.264ZM61.3556 25.5049H95.3844V20.0565H47.0579C47.0277 21.226 47.0005 22.2053 46.9911 22.4129C46.9911 22.5891 47.0918 22.7652 47.2679 22.8407C47.3183 22.8659 47.3434 22.8659 47.3938 22.8659C47.5196 22.8659 47.7964 22.6394 47.9474 22.5136C48.2998 22.2871 48.9038 22.0857 49.3316 22.0857C50.4892 22.1612 51.5966 23.0672 51.5966 24.5017C51.5966 24.8114 51.5407 25.148 51.4161 25.5049H53.5398C54.3354 23.7742 56.3435 22.4129 58.7107 22.4129C60.3214 22.4129 61.4539 23.3441 61.4539 24.7534C61.4539 25.0056 61.4197 25.257 61.3556 25.5049ZM47.0163 25.5049H49.7821C49.8326 25.298 49.8601 25.0886 49.8601 24.8792C49.8601 24.2501 49.5581 23.4196 48.8283 23.4196C48.2494 23.4196 47.2428 24.1494 47.0666 24.6527C47.0414 24.7534 47.0163 25.0554 47.0163 25.4581L47.0163 25.5049ZM49.4393 26.3675H47.0304C47.0523 27.1853 47.0918 27.9747 47.0918 27.9747C47.0918 28.1005 47.1421 28.3522 47.3686 28.3522C47.4441 28.3522 47.5196 28.327 47.6203 28.2767C48.298 27.8512 49.0053 27.1591 49.4393 26.3675ZM491.339 44.4378V38.9893H410.048V44.4378H491.339ZM491.339 38.1268V32.6785H410.048V38.1268H491.339ZM332.302 26.3675H409.703V31.816H332.302V26.3675ZM332.302 32.6785H409.703V38.1268H332.302V32.6785ZM332.302 38.9893H409.703V44.4378H332.302V38.9893ZM331.957 44.4378V38.9893H254.548V44.4378H331.957ZM331.957 38.1268V32.6785H254.548V38.1268H331.957ZM331.957 31.816V26.3675H254.548V31.816H331.957ZM331.957 25.5049V20.0565H297.408C297.789 20.4525 298.007 20.9791 298.007 21.5979C298.007 23.1261 296.753 24.6234 295.197 25.5049H331.957ZM289.727 23.9636C289.727 22.423 290.73 20.9335 292.253 20.0565H254.548V25.5049H290.329C289.952 25.115 289.727 24.5931 289.727 23.9636ZM173.479 32.6785H254.203V38.1268H173.479V32.6785ZM173.479 38.9893H254.203V44.4378H173.479V38.9893ZM173.134 44.4378V38.9893H95.7294V44.4378H173.134ZM173.134 38.1268V32.6785H95.7294V38.1268H173.134ZM173.134 31.816V26.3675H138.743C137.803 28.0887 135.543 29.4596 133.626 29.4596C132.116 29.4596 130.908 28.5787 130.908 27.1191C130.908 26.8663 130.935 26.615 130.987 26.3675H95.7294V31.816H173.134ZM131.274 25.5049H95.7294V20.0565H173.134V25.5049H139.09C139.154 25.257 139.188 25.0056 139.188 24.7534C139.188 23.3441 138.055 22.4129 136.445 22.4129C134.078 22.4129 132.07 23.7742 131.274 25.5049ZM64.6023 51.6114H61.009C60.0689 53.3327 57.8091 54.7035 55.8921 54.7035C54.3821 54.7035 53.1741 53.8227 53.1741 52.363C53.1741 52.1103 53.2011 51.8589 53.2529 51.6114H50.0183V50.7489H53.5398C54.3354 49.0182 56.3435 47.6569 58.7107 47.6569C60.3214 47.6569 61.4539 48.588 61.4539 49.9973C61.4539 50.2496 61.4197 50.501 61.3556 50.7489H64.6023V51.6114ZM127.753 51.6114H130.987C130.935 51.8589 130.908 52.1103 130.908 52.363C130.908 53.8227 132.116 54.7035 133.626 54.7035C135.543 54.7035 137.803 53.3327 138.743 51.6114H142.337V50.7489H139.09C139.154 50.501 139.188 50.2496 139.188 49.9973C139.188 48.588 138.055 47.6569 136.445 47.6569C134.078 47.6569 132.07 49.0182 131.274 50.7489H127.753V51.6114ZM212.057 51.6114H208.823V50.7489H212.344C213.139 49.0182 215.147 47.6569 217.515 47.6569C219.125 47.6569 220.258 48.588 220.258 49.9973C220.258 50.2496 220.224 50.501 220.16 50.7489H223.406V51.6114H219.813C218.873 53.3327 216.613 54.7035 214.696 54.7035C213.186 54.7035 211.978 53.8227 211.978 52.363C211.978 52.1103 212.005 51.8589 212.057 51.6114ZM297.562 51.6114H301.156V50.7489H297.909C297.973 50.501 298.007 50.2496 298.007 49.9973C298.007 48.588 296.875 47.6569 295.264 47.6569C292.897 47.6569 290.889 49.0182 290.093 50.7489H286.572V51.6114H289.806C289.754 51.8589 289.727 52.1103 289.727 52.363C289.727 53.8227 290.935 54.7035 292.445 54.7035C294.362 54.7035 296.622 53.3327 297.562 51.6114ZM367.555 51.6114H364.323V50.7489H367.842C368.638 49.0182 370.646 47.6569 373.013 47.6569C374.624 47.6569 375.756 48.588 375.756 49.9973C375.756 50.2496 375.722 50.501 375.658 50.7489H378.901V51.6114H375.311C374.371 53.3327 372.112 54.7035 370.194 54.7035C368.684 54.7035 367.476 53.8227 367.476 52.363C367.476 52.1103 367.503 51.8589 367.555 51.6114ZM445.96 51.6114H449.191C449.139 51.8589 449.112 52.1103 449.112 52.363C449.112 53.8227 450.32 54.7035 451.83 54.7035C453.747 54.7035 456.007 53.3327 456.947 51.6114H460.538V50.7489H457.293C457.357 50.501 457.392 50.2496 457.392 49.9973C457.392 48.588 456.259 47.6569 454.648 47.6569C452.281 47.6569 450.273 49.0182 449.478 50.7489H445.96V51.6114ZM46.5139 75.7579V77.567C46.5139 78.2441 46.5287 78.6884 46.5583 78.9C46.5922 79.1074 46.679 79.2618 46.8186 79.3634C46.9583 79.465 47.2206 79.5157 47.6057 79.5157H47.8914V79.8077H43.9495V79.5157H44.178C44.5461 79.5157 44.8 79.4692 44.9397 79.3761C45.0836 79.283 45.1746 79.1391 45.2126 78.9445C45.2507 78.7456 45.2698 78.2864 45.2698 77.567V73.3458C45.2698 72.6603 45.2507 72.2181 45.2126 72.0192C45.1746 71.8203 45.0899 71.6827 44.9587 71.6066C44.8276 71.5304 44.544 71.4923 44.1082 71.4923H43.9495V71.2003L45.0286 71.1622C45.8918 71.1326 46.5647 71.1178 47.0471 71.1178C47.9358 71.1178 48.6192 71.1876 49.0974 71.3273C49.5798 71.4669 49.9734 71.7145 50.2781 72.0699C50.587 72.4254 50.7415 72.874 50.7415 73.4156C50.7415 73.8854 50.6357 74.3001 50.4241 74.6598C50.2167 75.0195 49.9163 75.2924 49.5227 75.4786C49.1334 75.6648 48.4457 75.7579 47.4597 75.7579H46.5139ZM46.5139 75.4406H47.1296C47.6248 75.4406 48.0247 75.3919 48.3293 75.2946C48.634 75.193 48.8879 74.9835 49.0911 74.6661C49.2942 74.3488 49.3958 73.9573 49.3958 73.4918C49.3958 72.7809 49.2201 72.2604 48.8689 71.9303C48.5219 71.596 47.957 71.4288 47.1741 71.4288C46.8863 71.4288 46.6663 71.4373 46.5139 71.4542V75.4406ZM54.3215 71.2828H54.6008V78.024C54.6008 78.5784 54.6072 78.9275 54.6199 79.0714C54.6368 79.2153 54.6982 79.3253 54.804 79.4015C54.9097 79.4777 55.0981 79.5157 55.3689 79.5157H55.6165V79.8077H52.76V79.5157H52.9695C53.2742 79.5157 53.4709 79.4734 53.5598 79.3888C53.6529 79.2999 53.7058 79.1963 53.7185 79.0778C53.7354 78.955 53.7439 78.6038 53.7439 78.024V73.5045C53.7439 72.9332 53.7375 72.5883 53.7249 72.4698C53.7122 72.3471 53.6571 72.2413 53.5598 72.1525C53.4667 72.0594 53.2699 72.0128 52.9695 72.0128H52.6965V71.7208C53.4286 71.7081 53.9703 71.5621 54.3215 71.2828ZM58.0793 79.8077V79.4142C58.5618 79.0376 59.1711 78.443 59.9075 77.6305C60.648 76.8138 61.1812 76.1092 61.5071 75.5167C61.8329 74.9243 61.9958 74.3255 61.9958 73.7203C61.9958 72.9967 61.8308 72.4656 61.5007 72.1271C61.1707 71.7843 60.7602 71.6129 60.2693 71.6129C59.7869 71.6129 59.4124 71.7695 59.1458 72.0826C58.8834 72.3958 58.7522 72.7301 58.7522 73.0856C58.7522 73.4918 58.9236 73.8134 59.2664 74.0504C59.3933 74.1393 59.4568 74.207 59.4568 74.2535C59.4568 74.3297 59.3848 74.4334 59.241 74.5646C59.0971 74.6958 58.9786 74.7614 58.8855 74.7614C58.7585 74.7614 58.6041 74.6344 58.4221 74.3805C58.2444 74.1224 58.1555 73.7923 58.1555 73.3903C58.1555 72.7428 58.4073 72.2308 58.9109 71.8541C59.4145 71.4733 59.9667 71.2828 60.5676 71.2828C61.2024 71.2828 61.7737 71.4796 62.2815 71.8732C62.7935 72.2667 63.0496 72.8507 63.0496 73.6251C63.0496 74.1118 62.9353 74.5752 62.7068 75.0153C62.4783 75.4511 61.9218 76.1198 61.0374 77.0211C60.1571 77.9183 59.4483 78.5932 58.9109 79.046H62.948L62.5862 80.4679H62.2878C62.2878 80.3917 62.3005 80.3156 62.3259 80.2394C62.3386 80.1971 62.345 80.1399 62.345 80.068C62.345 79.941 62.3175 79.8649 62.2625 79.8395C62.2074 79.8183 62.0593 79.8077 61.8181 79.8077H58.0793ZM69.0432 79.5358V73.1228C68.8085 73.3208 68.4565 73.5334 67.9872 73.7608V73.3758C68.5298 72.9138 68.9258 72.4298 69.1752 71.9238H69.3732C69.6298 72.4298 70.0258 72.9138 70.5612 73.3758V73.7608C70.0918 73.5334 69.7398 73.3208 69.5052 73.1228V79.5358H69.0432ZM436.514 75.7579V77.567C436.514 78.2441 436.529 78.6884 436.558 78.9C436.592 79.1074 436.679 79.2618 436.819 79.3634C436.958 79.465 437.221 79.5157 437.606 79.5157H437.891V79.8077H433.949V79.5157H434.178C434.546 79.5157 434.8 79.4692 434.94 79.3761C435.084 79.283 435.175 79.1391 435.213 78.9445C435.251 78.7456 435.27 78.2864 435.27 77.567V73.3458C435.27 72.6603 435.251 72.2181 435.213 72.0192C435.175 71.8203 435.09 71.6827 434.959 71.6066C434.828 71.5304 434.544 71.4923 434.108 71.4923H433.949V71.2003L435.029 71.1622C435.892 71.1326 436.565 71.1178 437.047 71.1178C437.936 71.1178 438.619 71.1876 439.097 71.3273C439.58 71.4669 439.973 71.7145 440.278 72.0699C440.587 72.4254 440.741 72.874 440.741 73.4156C440.741 73.8854 440.636 74.3001 440.424 74.6598C440.217 75.0195 439.916 75.2924 439.523 75.4786C439.133 75.6648 438.446 75.7579 437.46 75.7579H436.514ZM436.514 75.4406H437.13C437.625 75.4406 438.025 75.3919 438.329 75.2946C438.634 75.193 438.888 74.9835 439.091 74.6661C439.294 74.3488 439.396 73.9573 439.396 73.4918C439.396 72.7809 439.22 72.2604 438.869 71.9303C438.522 71.596 437.957 71.4288 437.174 71.4288C436.886 71.4288 436.666 71.4373 436.514 71.4542V75.4406ZM444.322 71.2828H444.601V78.024C444.601 78.5784 444.607 78.9275 444.62 79.0714C444.637 79.2153 444.698 79.3253 444.804 79.4015C444.91 79.4777 445.098 79.5157 445.369 79.5157H445.616V79.8077H442.76V79.5157H442.969C443.274 79.5157 443.471 79.4734 443.56 79.3888C443.653 79.2999 443.706 79.1963 443.719 79.0778C443.735 78.955 443.744 78.6038 443.744 78.024V73.5045C443.744 72.9332 443.738 72.5883 443.725 72.4698C443.712 72.3471 443.657 72.2413 443.56 72.1525C443.467 72.0594 443.27 72.0128 442.969 72.0128H442.697V71.7208C443.429 71.7081 443.97 71.5621 444.322 71.2828ZM449.044 75.4406H448.714L448.905 71.4923H452.199C452.017 71.9197 451.884 72.1673 451.799 72.235C451.719 72.3027 451.577 72.3365 451.374 72.3365H449.146L449.044 74.9645C449.472 74.4186 449.996 74.1456 450.618 74.1456C451.279 74.1456 451.841 74.4101 452.307 74.9391C452.777 75.4681 453.011 76.124 453.011 76.9069C453.011 77.8082 452.747 78.553 452.218 79.1412C451.693 79.7252 450.957 80.0172 450.009 80.0172C449.349 80.0172 448.835 79.8649 448.467 79.5602C448.098 79.2513 447.914 78.972 447.914 78.7223C447.914 78.6123 447.95 78.5171 448.022 78.4366C448.098 78.3562 448.2 78.316 448.327 78.316C448.467 78.316 448.572 78.3584 448.644 78.443C448.716 78.5234 448.801 78.6927 448.898 78.9508C449.089 79.4755 449.467 79.7379 450.034 79.7379C450.576 79.7379 451.031 79.52 451.399 79.0841C451.772 78.6482 451.958 77.9394 451.958 76.9576C451.958 76.0732 451.805 75.4448 451.501 75.0724C451.196 74.7 450.836 74.5138 450.422 74.5138C449.838 74.5138 449.379 74.8227 449.044 75.4406ZM459.043 79.5358V73.1228C458.809 73.3208 458.457 73.5334 457.987 73.7608V73.3758C458.53 72.9138 458.926 72.4298 459.175 71.9238H459.373C459.63 72.4298 460.026 72.9138 460.561 73.3758V73.7608C460.092 73.5334 459.74 73.3208 459.505 73.1228V79.5358H459.043ZM209.862 71.1178L206.726 78.2399L203.571 71.1178H200.949V71.4098H201.184C201.62 71.4098 201.902 71.4479 202.029 71.524C202.16 71.6002 202.244 71.7378 202.282 71.9366C202.325 72.1355 202.346 72.5778 202.346 73.2633V77.0084C202.346 77.7194 202.321 78.206 202.27 78.4684C202.219 78.7308 202.077 78.9529 201.844 79.1349C201.616 79.3126 201.318 79.4121 200.949 79.4332V79.7252H204.028V79.4332C203.63 79.4078 203.321 79.302 203.101 79.1158C202.881 78.9254 202.75 78.7054 202.708 78.4557C202.665 78.206 202.644 77.7363 202.644 77.0465V72.0065L206.078 79.7252H206.377L209.785 72.0065V77.4845C209.785 78.2039 209.764 78.663 209.722 78.8619C209.684 79.0566 209.593 79.2005 209.449 79.2936C209.309 79.3867 209.058 79.4332 208.694 79.4332H208.389V79.7252H212.502V79.4332H212.121C211.732 79.4332 211.468 79.3824 211.328 79.2809C211.192 79.1793 211.108 79.0249 211.074 78.8175C211.04 78.6059 211.023 78.1616 211.023 77.4845V73.2633C211.023 72.5481 211.044 72.0953 211.087 71.9049C211.133 71.7145 211.222 71.5854 211.353 71.5177C211.484 71.4458 211.762 71.4098 212.185 71.4098H212.502V71.1178H209.862ZM216.52 71.2003H216.241C215.89 71.4796 215.348 71.6256 214.616 71.6383V71.9303H214.889C215.189 71.9303 215.386 71.9768 215.479 72.0699C215.577 72.1588 215.632 72.2646 215.644 72.3873C215.657 72.5058 215.663 72.8507 215.663 73.422V77.9415C215.663 78.5213 215.655 78.8725 215.638 78.9952C215.625 79.1137 215.572 79.2174 215.479 79.3063C215.39 79.3909 215.194 79.4332 214.889 79.4332H214.679V79.7252H217.536V79.4332H217.288C217.018 79.4332 216.829 79.3951 216.723 79.319C216.618 79.2428 216.556 79.1328 216.539 78.9889C216.527 78.845 216.52 78.4959 216.52 77.9415V71.2003ZM222.881 75.047C222.749 75.047 222.618 75.066 222.487 75.1041L223.001 74.7487C223.581 74.3593 223.991 74.0166 224.233 73.7203C224.478 73.4199 224.601 73.0962 224.601 72.7491C224.601 72.3556 224.421 72.0001 224.061 71.6827C223.706 71.3611 223.179 71.2003 222.481 71.2003C221.799 71.2003 221.256 71.3907 220.849 71.7716C220.443 72.1525 220.24 72.5778 220.24 73.0475C220.24 73.2802 220.297 73.4961 220.411 73.6949C220.526 73.8938 220.648 73.9933 220.78 73.9933C220.843 73.9933 220.945 73.9615 221.084 73.8981C221.224 73.8346 221.294 73.7754 221.294 73.7203C221.294 73.6992 221.279 73.6738 221.249 73.6442C220.991 73.3818 220.862 73.1004 220.862 72.7999C220.862 72.4233 221.008 72.1144 221.3 71.8732C221.596 71.6277 221.935 71.505 222.316 71.505C222.688 71.505 222.986 71.6256 223.211 71.8668C223.435 72.1038 223.547 72.4402 223.547 72.8761C223.547 73.3331 223.439 73.7119 223.223 74.0123C223.008 74.3128 222.565 74.6894 221.897 75.1422C221.592 75.3496 221.406 75.4871 221.338 75.5548C221.275 75.6183 221.243 75.6796 221.243 75.7389C221.243 75.8743 221.306 75.942 221.433 75.942C221.497 75.942 221.558 75.9103 221.617 75.8468C221.969 75.4913 222.29 75.3136 222.582 75.3136C222.921 75.3136 223.213 75.4744 223.458 75.796C223.708 76.1176 223.833 76.6064 223.833 77.2623C223.833 78.0791 223.666 78.6821 223.331 79.0714C223.001 79.4607 222.57 79.6554 222.036 79.6554C221.825 79.6554 221.611 79.5983 221.395 79.484C221.175 79.374 221.006 79.1264 220.887 78.7413C220.794 78.4409 220.638 78.2906 220.418 78.2906C220.295 78.2906 220.196 78.3351 220.119 78.424C220.043 78.5086 220.005 78.6123 220.005 78.735C220.005 79.027 220.206 79.2999 220.608 79.5538C221.01 79.8077 221.49 79.9347 222.049 79.9347C222.883 79.9347 223.564 79.6871 224.093 79.192C224.622 78.6969 224.886 78.0621 224.886 77.2877C224.886 76.6445 224.707 76.1113 224.347 75.6881C223.991 75.2607 223.503 75.047 222.881 75.047ZM230.215 72.9196V79.3326H230.677V72.9196C230.911 73.1176 231.263 73.3303 231.733 73.5576V73.1726C231.197 72.7106 230.801 72.2266 230.545 71.7206H230.347C230.097 72.2266 229.701 72.7106 229.159 73.1726V73.5576C229.628 73.3303 229.98 73.1176 230.215 72.9196ZM362.726 78.2399L365.862 71.1178H368.502V71.4098H368.185C367.762 71.4098 367.484 71.4458 367.353 71.5177C367.222 71.5854 367.133 71.7145 367.087 71.9049C367.044 72.0953 367.023 72.5481 367.023 73.2633V77.4845C367.023 78.1616 367.04 78.6059 367.074 78.8175C367.108 79.0249 367.192 79.1793 367.328 79.2809C367.468 79.3824 367.732 79.4332 368.121 79.4332H368.502V79.7252H364.389V79.4332H364.694C365.058 79.4332 365.309 79.3867 365.449 79.2936C365.593 79.2005 365.684 79.0566 365.722 78.8619C365.764 78.663 365.785 78.2039 365.785 77.4845V72.0065L362.377 79.7252H362.078L358.644 72.0065V77.0465C358.644 77.7363 358.665 78.206 358.708 78.4557C358.75 78.7054 358.881 78.9254 359.101 79.1158C359.321 79.302 359.63 79.4078 360.028 79.4332V79.7252H356.949V79.4332C357.318 79.4121 357.616 79.3126 357.844 79.1349C358.077 78.9529 358.219 78.7308 358.27 78.4684C358.321 78.206 358.346 77.7194 358.346 77.0084V73.2633C358.346 72.5778 358.325 72.1355 358.282 71.9366C358.244 71.7378 358.16 71.6002 358.029 71.524C357.902 71.4479 357.62 71.4098 357.184 71.4098H356.949V71.1178H359.571L362.726 78.2399ZM372.241 71.2003H372.52V77.9415C372.52 78.4959 372.527 78.845 372.539 78.9889C372.556 79.1328 372.618 79.2428 372.723 79.319C372.829 79.3951 373.017 79.4332 373.288 79.4332H373.536V79.7252H370.679V79.4332H370.889C371.194 79.4332 371.39 79.3909 371.479 79.3063C371.572 79.2174 371.625 79.1137 371.638 78.9952C371.655 78.8725 371.663 78.5213 371.663 77.9415V73.422C371.663 72.8507 371.657 72.5058 371.644 72.3873C371.632 72.2646 371.577 72.1588 371.479 72.0699C371.386 71.9768 371.189 71.9303 370.889 71.9303H370.616V71.6383C371.348 71.6256 371.89 71.4796 372.241 71.2003ZM378.804 76.8624H375.681V76.4816L379.306 71.2003H379.712V76.4816H380.296C380.656 76.4816 380.87 76.4604 380.937 76.4181C381.005 76.3758 381.098 76.1959 381.217 75.8785H381.496L381.35 76.8624H379.712V77.9415C379.712 78.5551 379.723 78.9275 379.744 79.0587C379.769 79.1857 379.839 79.2809 379.953 79.3444C380.068 79.4036 380.279 79.4332 380.588 79.4332V79.7252H377.814V79.4332H378.036C378.29 79.4332 378.47 79.3994 378.576 79.3317C378.686 79.2597 378.752 79.1603 378.773 79.0333C378.794 78.9064 378.804 78.5424 378.804 77.9415V76.8624ZM378.804 76.4816V72.4508L376.037 76.4816H378.804ZM386.215 79.3326V72.9196C385.98 73.1176 385.628 73.3303 385.159 73.5576V73.1726C385.701 72.7106 386.097 72.2266 386.347 71.7206H386.545C386.801 72.2266 387.197 72.7106 387.733 73.1726V73.5576C387.263 73.3303 386.911 73.1176 386.677 72.9196V79.3326H386.215ZM120.505 74.2345H120.441C120.048 74.3657 119.55 74.4609 118.949 74.5201V74.8121C119.241 74.8121 119.442 74.846 119.552 74.9137C119.667 74.9814 119.732 75.083 119.749 75.2184C119.77 75.3496 119.781 75.7114 119.781 76.3038V77.859C119.781 78.4853 119.768 78.8598 119.743 78.9825C119.718 79.1053 119.648 79.1984 119.533 79.2618C119.423 79.3211 119.229 79.3507 118.949 79.3507V79.6427H121.495V79.3507C121.211 79.3507 121.015 79.3147 120.905 79.2428C120.795 79.1709 120.731 79.0651 120.714 78.9254C120.697 78.7858 120.689 78.4303 120.689 77.859V75.6945C120.972 75.3559 121.249 75.102 121.52 74.9327C121.795 74.7635 122.064 74.6788 122.326 74.6788C122.597 74.6788 122.824 74.7529 123.006 74.901C123.188 75.0449 123.295 75.2205 123.329 75.4279C123.367 75.631 123.386 75.9611 123.386 76.4181V77.859C123.386 78.4895 123.372 78.8662 123.342 78.9889C123.317 79.1116 123.247 79.2026 123.133 79.2618C123.023 79.3211 122.826 79.3507 122.542 79.3507V79.6427H125.056V79.3507C124.789 79.3507 124.603 79.3126 124.497 79.2365C124.396 79.156 124.337 79.046 124.32 78.9064C124.307 78.7625 124.301 78.4134 124.301 77.859V75.8087C124.58 75.4321 124.857 75.1507 125.132 74.9645C125.411 74.7783 125.689 74.6852 125.964 74.6852C126.234 74.6852 126.455 74.7487 126.624 74.8756C126.793 75.0026 126.897 75.1549 126.935 75.3326C126.977 75.5104 126.998 75.7749 126.998 76.1261V77.859C126.998 78.4811 126.986 78.8556 126.96 78.9825C126.935 79.1053 126.865 79.1984 126.751 79.2618C126.641 79.3211 126.448 79.3507 126.173 79.3507V79.6427H128.769V79.3507C128.465 79.3507 128.255 79.319 128.141 79.2555C128.031 79.192 127.963 79.0947 127.938 78.9635C127.917 78.8323 127.906 78.4641 127.906 77.859V76.2975C127.906 75.7685 127.876 75.3855 127.817 75.1486C127.758 74.9116 127.589 74.7 127.309 74.5138C127.03 74.3276 126.689 74.2345 126.287 74.2345C125.936 74.2345 125.591 74.3318 125.253 74.5265C124.914 74.7212 124.584 75.0131 124.262 75.4025C124.157 75.0131 123.97 74.7212 123.704 74.5265C123.437 74.3318 123.09 74.2345 122.663 74.2345C122.286 74.2345 121.933 74.3255 121.603 74.5074C121.277 74.6894 120.972 74.9624 120.689 75.3263C120.689 74.882 120.627 74.518 120.505 74.2345ZM132.819 71.1178H132.54C132.189 71.3971 131.647 71.5431 130.915 71.5558V71.8478H131.188C131.488 71.8478 131.685 71.8943 131.778 71.9874C131.875 72.0763 131.93 72.1821 131.943 72.3048C131.956 72.4233 131.962 72.7682 131.962 73.3395V77.859C131.962 78.4388 131.954 78.79 131.937 78.9127C131.924 79.0312 131.871 79.1349 131.778 79.2238C131.689 79.3084 131.492 79.3507 131.188 79.3507H130.978V79.6427H133.835V79.3507H133.587C133.316 79.3507 133.128 79.3126 133.022 79.2365C132.916 79.1603 132.855 79.0503 132.838 78.9064C132.825 78.7625 132.819 78.4134 132.819 77.859V71.1178ZM139.179 74.9645C139.048 74.9645 138.917 74.9835 138.786 75.0216L139.3 74.6661C139.88 74.2768 140.29 73.934 140.531 73.6378C140.777 73.3374 140.9 73.0136 140.9 72.6666C140.9 72.2731 140.72 71.9176 140.36 71.6002C140.005 71.2786 139.478 71.1178 138.78 71.1178C138.098 71.1178 137.554 71.3082 137.148 71.6891C136.742 72.0699 136.539 72.4952 136.539 72.965C136.539 73.1977 136.596 73.4135 136.71 73.6124C136.824 73.8113 136.947 73.9108 137.078 73.9108C137.142 73.9108 137.243 73.879 137.383 73.8156C137.523 73.7521 137.593 73.6928 137.593 73.6378C137.593 73.6167 137.578 73.5913 137.548 73.5616C137.29 73.2993 137.161 73.0179 137.161 72.7174C137.161 72.3408 137.307 72.0319 137.599 71.7906C137.895 71.5452 138.234 71.4225 138.615 71.4225C138.987 71.4225 139.285 71.5431 139.51 71.7843C139.734 72.0213 139.846 72.3577 139.846 72.7936C139.846 73.2506 139.738 73.6294 139.522 73.9298C139.306 74.2303 138.864 74.6069 138.196 75.0597C137.891 75.2671 137.705 75.4046 137.637 75.4723C137.573 75.5358 137.542 75.5971 137.542 75.6564C137.542 75.7918 137.605 75.8595 137.732 75.8595C137.796 75.8595 137.857 75.8278 137.916 75.7643C138.267 75.4088 138.589 75.2311 138.881 75.2311C139.22 75.2311 139.512 75.3919 139.757 75.7135C140.007 76.0351 140.132 76.5239 140.132 77.1798C140.132 77.9965 139.964 78.5996 139.63 78.9889C139.3 79.3782 138.868 79.5729 138.335 79.5729C138.124 79.5729 137.91 79.5157 137.694 79.4015C137.474 79.2915 137.305 79.0439 137.186 78.6588C137.093 78.3584 136.937 78.2081 136.717 78.2081C136.594 78.2081 136.494 78.2526 136.418 78.3414C136.342 78.4261 136.304 78.5297 136.304 78.6525C136.304 78.9445 136.505 79.2174 136.907 79.4713C137.309 79.7252 137.789 79.8522 138.348 79.8522C139.182 79.8522 139.863 79.6046 140.392 79.1095C140.921 78.6144 141.185 77.9796 141.185 77.2052C141.185 76.562 141.005 76.0288 140.646 75.6056C140.29 75.1782 139.802 74.9645 139.179 74.9645ZM148.138 72.8371V79.2501H148.6V72.8371C148.835 73.0351 149.187 73.2478 149.656 73.4751V73.0901C149.121 72.6281 148.725 72.1441 148.468 71.6381H148.27C148.021 72.1441 147.625 72.6281 147.082 73.0901V73.4751C147.552 73.2478 147.904 73.0351 148.138 72.8371ZM285.441 74.2345H285.505C285.627 74.518 285.689 74.882 285.689 75.3263C285.972 74.9624 286.277 74.6894 286.603 74.5074C286.933 74.3255 287.286 74.2345 287.663 74.2345C288.09 74.2345 288.437 74.3318 288.704 74.5265C288.97 74.7212 289.157 75.0131 289.262 75.4025C289.584 75.0131 289.914 74.7212 290.253 74.5265C290.591 74.3318 290.936 74.2345 291.287 74.2345C291.689 74.2345 292.03 74.3276 292.309 74.5138C292.589 74.7 292.758 74.9116 292.817 75.1486C292.876 75.3855 292.906 75.7685 292.906 76.2975V77.859C292.906 78.4641 292.917 78.8323 292.938 78.9635C292.963 79.0947 293.031 79.192 293.141 79.2555C293.255 79.319 293.465 79.3507 293.769 79.3507V79.6427H291.173V79.3507C291.448 79.3507 291.641 79.3211 291.751 79.2618C291.865 79.1984 291.935 79.1053 291.96 78.9825C291.986 78.8556 291.998 78.4811 291.998 77.859V76.1261C291.998 75.7749 291.977 75.5104 291.935 75.3326C291.897 75.1549 291.793 75.0026 291.624 74.8756C291.455 74.7487 291.234 74.6852 290.964 74.6852C290.689 74.6852 290.411 74.7783 290.132 74.9645C289.857 75.1507 289.58 75.4321 289.301 75.8087V77.859C289.301 78.4134 289.307 78.7625 289.32 78.9064C289.336 79.046 289.396 79.156 289.497 79.2365C289.603 79.3126 289.789 79.3507 290.056 79.3507V79.6427H287.542V79.3507C287.826 79.3507 288.023 79.3211 288.133 79.2618C288.247 79.2026 288.317 79.1116 288.342 78.9889C288.372 78.8662 288.386 78.4895 288.386 77.859V76.4181C288.386 75.9611 288.367 75.631 288.329 75.4279C288.295 75.2205 288.188 75.0449 288.006 74.901C287.824 74.7529 287.597 74.6788 287.326 74.6788C287.064 74.6788 286.795 74.7635 286.52 74.9327C286.249 75.102 285.972 75.3559 285.689 75.6945V77.859C285.689 78.4303 285.697 78.7858 285.714 78.9254C285.731 79.0651 285.794 79.1709 285.905 79.2428C286.015 79.3147 286.211 79.3507 286.495 79.3507V79.6427H283.949V79.3507C284.229 79.3507 284.423 79.3211 284.533 79.2618C284.648 79.1984 284.718 79.1053 284.743 78.9825C284.768 78.8598 284.781 78.4853 284.781 77.859V76.3038C284.781 75.7114 284.77 75.3496 284.749 75.2184C284.732 75.083 284.667 74.9814 284.552 74.9137C284.442 74.846 284.241 74.8121 283.949 74.8121V74.5201C284.55 74.4609 285.048 74.3657 285.441 74.2345ZM297.54 71.1178H297.819V77.859C297.819 78.4134 297.825 78.7625 297.838 78.9064C297.855 79.0503 297.916 79.1603 298.022 79.2365C298.128 79.3126 298.316 79.3507 298.587 79.3507H298.835V79.6427H295.978V79.3507H296.188C296.492 79.3507 296.689 79.3084 296.778 79.2238C296.871 79.1349 296.924 79.0312 296.937 78.9127C296.954 78.79 296.962 78.4388 296.962 77.859V73.3395C296.962 72.7682 296.956 72.4233 296.943 72.3048C296.93 72.1821 296.875 72.0763 296.778 71.9874C296.685 71.8943 296.488 71.8478 296.188 71.8478H295.915V71.5558C296.647 71.5431 297.189 71.3971 297.54 71.1178ZM304.103 76.7799H300.98V76.399L304.605 71.1178H305.011V76.399H305.595C305.955 76.399 306.168 76.3779 306.236 76.3356C306.304 76.2933 306.397 76.1134 306.515 75.796H306.795L306.649 76.7799H305.011V77.859C305.011 78.4726 305.022 78.845 305.043 78.9762C305.068 79.1031 305.138 79.1984 305.252 79.2618C305.366 79.3211 305.578 79.3507 305.887 79.3507V79.6427H303.113V79.3507H303.335C303.589 79.3507 303.769 79.3169 303.875 79.2491C303.985 79.1772 304.05 79.0778 304.072 78.9508C304.093 78.8239 304.103 78.4599 304.103 77.859V76.7799ZM304.103 76.399V72.3683L301.336 76.399H304.103ZM313.138 79.2501V72.8371C312.904 73.0351 312.552 73.2478 312.082 73.4751V73.0901C312.625 72.6281 313.021 72.1441 313.27 71.6381H313.468C313.725 72.1441 314.121 72.6281 314.656 73.0901V73.4751C314.187 73.2478 313.835 73.0351 313.6 72.8371V79.2501H313.138ZM284.154 97.7943C284.23 97.895 284.305 97.9201 284.381 97.9201C284.456 97.9201 284.532 97.8698 284.532 97.8698C284.971 97.6205 285.36 97.2858 285.732 96.9651C285.999 96.7355 286.257 96.5132 286.52 96.3346C288.76 94.7743 289.54 93.2392 289.54 92.0815C289.54 90.647 288.432 89.741 287.275 89.6655C286.847 89.6655 286.243 89.8669 285.891 90.0933C285.74 90.2192 285.463 90.4457 285.337 90.4457C285.287 90.4457 285.261 90.4457 285.211 90.4205C285.035 90.345 284.934 90.1688 284.934 89.9927C284.959 89.439 285.11 83.3991 285.11 82.8957C285.11 82.6189 284.884 82.4679 284.632 82.4679C284.28 82.4679 283.877 82.7196 283.852 83.1726C283.852 83.1726 283.953 97.5426 284.154 97.7943ZM285.01 92.2325C285.186 91.7292 286.193 90.9993 286.771 90.9993C287.501 90.9993 287.803 91.8298 287.803 92.459C287.803 93.818 286.646 95.177 285.563 95.8565C285.463 95.9068 285.387 95.932 285.312 95.932C285.085 95.932 285.035 95.6803 285.035 95.5545C285.035 95.5545 284.959 94.0445 284.959 93.0378C284.959 92.6352 284.985 92.3332 285.01 92.2325ZM126.852 101.076C126.776 101.076 126.701 101.051 126.625 100.95C126.424 100.698 126.323 86.3281 126.323 86.3281C126.348 85.8751 126.751 85.6234 127.103 85.6234C127.355 85.6234 127.582 85.7744 127.582 86.0513C127.582 86.5546 127.431 92.5946 127.405 93.1482C127.405 93.3244 127.506 93.5006 127.682 93.5761C127.733 93.6012 127.758 93.6012 127.808 93.6012C127.934 93.6012 128.211 93.3747 128.362 93.2489C128.714 93.0224 129.318 92.8211 129.746 92.8211C130.904 92.8966 132.011 93.8026 132.011 95.237C132.011 95.5468 131.955 95.8835 131.83 96.2405H133.953C134.749 94.5097 136.757 93.1483 139.124 93.1483C140.735 93.1483 141.867 94.0794 141.867 95.4888C141.867 95.7411 141.833 95.9925 141.769 96.2405H145.016V97.1031H141.422C140.482 98.8242 138.223 100.195 136.306 100.195C134.796 100.195 133.588 99.3141 133.588 97.8544C133.588 97.6018 133.615 97.3505 133.666 97.1031H131.411C130.941 97.8578 130.168 98.6705 128.991 99.4902C128.728 99.6687 128.47 99.891 128.204 100.121L128.204 100.121C127.831 100.441 127.443 100.776 127.003 101.025C127.003 101.025 126.927 101.076 126.852 101.076ZM129.243 94.1549C128.664 94.1549 127.657 94.8847 127.481 95.388C127.456 95.4887 127.431 95.7907 127.431 96.1934C127.431 97.2 127.506 98.71 127.506 98.71C127.506 98.8359 127.556 99.0875 127.783 99.0875C127.858 99.0875 127.934 99.0624 128.035 99.012C129.117 98.3325 130.274 96.9735 130.274 95.6145C130.274 94.9854 129.972 94.1549 129.243 94.1549ZM442.175 90.792H445.413C445.361 91.0394 445.334 91.2907 445.334 91.5434C445.334 93.003 446.542 93.8838 448.052 93.8838C449.969 93.8838 452.228 92.5132 453.169 90.792H456.762V89.9295H453.515C453.579 89.6815 453.614 89.43 453.614 89.1777C453.614 87.7684 452.481 86.8372 450.87 86.8372C448.503 86.8372 446.495 88.1986 445.699 89.9295H442.175V90.792ZM175.174 128.658V129.804H175.519V128.658H252.283V129.804H252.628V128.658H332.703V129.804H333.048V128.658H409.809V129.804H410.154V128.658H486.915V129.804H487.261V128.658H491.339V129.804H491.684V128.658H492.141V127.795H491.684V122.347H492.141V121.484H491.684V116.036H492.141V115.173H491.684V109.725H492.141V108.862H491.684V103.414H492.141V102.551H491.684V101.405H491.339V102.551H487.261V101.405H486.915V102.551H410.154V101.405H409.809V102.551H333.048V101.405H332.703V102.551H252.628V101.405H252.283V102.551H175.519V101.405H175.174V102.551H95.089V101.405H94.744V102.551H58.6437C60.1995 101.67 61.4539 100.172 61.4539 98.6443C61.4539 97.235 60.3214 96.3038 58.7107 96.3038C55.6404 96.3038 53.1741 98.594 53.1741 101.01C53.1741 101.639 53.3988 102.161 53.7755 102.551H17.4891C17.5297 102.176 17.5508 101.794 17.5508 101.405C17.5508 99.2154 16.9468 97.0511 15.9149 95.5411C15.5374 94.9875 14.8831 94.2828 14.6063 94.2828C14.2539 94.2828 13.4738 94.9371 12.9705 95.4908C11.2868 97.3565 10.6316 100.107 10.5214 102.551H0V103.414H10.5044C10.5119 104.849 10.6842 106.436 10.8565 107.445L10.8632 107.485C10.9084 107.752 10.9181 107.809 10.63 108.049C10.3079 108.315 9.98397 108.586 9.66115 108.862H0V109.725H8.68032C6.91969 111.321 5.28168 113.102 4.25369 115.173H0V116.036H3.86893C3.41743 117.175 3.15552 118.4 3.15552 119.726C3.15552 120.32 3.21052 120.909 3.32096 121.484H0V122.347H3.53159C4.26589 124.807 6.07974 126.902 9.01062 127.795H0V128.658H14.488C14.7782 130.291 15.1096 132.283 15.1096 133.392C15.1096 137.116 12.593 137.569 11.1081 137.569C9.74914 137.569 9.09481 137.167 9.09481 136.839C9.09481 136.663 9.32131 136.588 9.90014 136.412C10.6803 136.185 11.5863 135.506 11.5863 134.046C11.5863 132.662 10.7055 131.479 9.17031 131.479C7.48416 131.479 6.4775 132.813 6.4775 134.373C6.4775 136.009 7.45899 138.475 11.2591 138.475C12.9453 138.475 16.2169 137.72 16.2169 133.442C16.2169 132.181 15.8672 130.183 15.5945 128.658H94.744V129.804H95.089V128.658H175.174ZM15.4921 127.795H94.744V122.347H20.0064C19.7501 124.837 18.1406 126.707 15.8143 127.628C15.7792 127.643 15.7474 127.657 15.7186 127.669C15.5936 127.721 15.5249 127.75 15.4921 127.795ZM20.0404 121.484H94.744V116.036H16.4081C18.6327 116.949 19.9843 119.101 20.0404 121.484ZM13.2561 115.173H94.744V109.725H14.0161C13.6209 110.164 13.2034 110.587 12.7691 110.993L12.7408 111.021C12.612 111.149 12.5711 111.189 12.6181 111.472L13.2473 115.121L13.2561 115.173ZM14.7441 108.862H94.744V103.414H17.3597C16.9713 105.434 16.0175 107.251 14.7441 108.862ZM15.9554 102.551C16.2914 101.828 16.4938 101.06 16.4938 100.247C16.4938 98.8631 15.8143 98.1836 14.9838 98.1836C13.7259 98.1836 12.2822 99.8056 11.8017 102.551H15.9554ZM11.687 103.414H15.4824C14.6028 104.808 13.2886 106.017 12.1148 107.042C11.9386 107.193 11.838 107.168 11.7876 106.841C11.687 106.187 11.6366 105.331 11.6366 104.526C11.6366 104.14 11.6541 103.769 11.687 103.414ZM12.2162 115.173H7.87412C9.1947 113.75 10.2505 112.897 11.3238 112.029L11.3598 112C11.6115 111.799 11.6618 111.824 11.7121 112.101L12.2162 115.173ZM7.1202 116.036H11.5674C9.5216 116.861 8.21399 118.766 8.21399 120.808C8.21399 121.041 8.22643 121.266 8.25061 121.484H5.16924C5.16897 121.46 5.16884 121.436 5.16884 121.412C5.16884 120.025 5.38846 118.199 7.1202 116.036ZM5.23956 122.347C5.70342 125.338 8.41644 127.352 12.4168 127.352C12.9201 127.352 13.4235 127.301 13.8261 127.226L13.8453 127.222C14.2045 127.15 14.2279 127.145 14.1784 126.873L13.4189 122.347H9.91002C10.0019 123.416 10.7254 124.387 11.7121 124.81L11.741 124.822C11.9096 124.894 12.0896 124.97 12.0896 125.137C12.0896 125.288 11.989 125.414 11.7876 125.414C11.6115 125.414 11.3095 125.338 11.1081 125.263C9.81521 124.825 8.82396 123.799 8.41654 122.347H5.23956ZM9.96757 121.484H13.2742L12.9201 119.374C12.8698 119.097 12.8195 119.072 12.4168 119.172C11.1166 119.535 10.2135 120.367 9.96757 121.484ZM14.3486 121.484L13.9771 119.323C13.9268 119.021 13.9519 118.946 14.2539 118.971C15.769 119.102 17.0894 120.081 17.6676 121.484H14.3486ZM14.4969 122.347H17.9165C17.9573 122.582 17.9786 122.824 17.9786 123.073C17.9786 124.659 17.0223 125.942 15.6129 126.647C15.3109 126.798 15.2606 126.798 15.2103 126.496L14.4969 122.347ZM491.339 122.347V127.795H487.261V122.347H491.339ZM491.339 116.036V121.484H487.261V116.036H491.339ZM491.339 109.725V115.173H487.261V109.725H491.339ZM491.339 103.414V108.862H487.261V103.414H491.339ZM486.915 103.414H410.154V108.862H486.915V103.414ZM486.915 109.725H410.154V115.173H486.915V109.725ZM486.915 116.036H410.154V121.484H486.915V116.036ZM486.915 122.347H410.154V127.795H486.915V122.347ZM409.809 122.347V127.795H333.048V122.347H409.809ZM409.809 116.036V121.484H333.048V116.036H409.809ZM409.809 109.725V115.173H333.048V109.725H409.809ZM409.809 103.414V108.862H333.048V103.414H409.809ZM332.703 103.414H252.628V108.862H332.703V103.414ZM332.703 109.725H252.628V115.173H332.703V109.725ZM332.703 116.036H252.628V121.484H332.703V116.036ZM332.703 122.347H252.628V127.795H332.703V122.347ZM252.283 122.347V127.795H175.519V122.347H252.283ZM252.283 116.036V121.484H175.519V116.036H252.283ZM252.283 109.725V115.173H175.519V109.725H252.283ZM252.283 103.414V108.862H175.519V103.414H252.283ZM175.174 127.795V122.347H95.089V127.795H175.174ZM175.174 121.484V116.036H95.089V121.484H175.174ZM175.174 115.173V109.725H95.089V115.173H175.174ZM175.174 108.862V103.414H95.089V108.862H175.174ZM50.0183 134.969H53.2529C53.2011 135.216 53.1741 135.468 53.1741 135.72C53.1741 137.18 54.3821 138.061 55.8921 138.061C57.8091 138.061 60.0689 136.69 61.009 134.969H64.6023V134.106H61.3556C61.4197 133.858 61.4539 133.607 61.4539 133.355C61.4539 131.945 60.3214 131.014 58.7107 131.014C56.3435 131.014 54.3354 132.376 53.5398 134.106H50.0183V134.969ZM133.666 134.969H130.432V134.106H133.953C134.749 132.376 136.757 131.014 139.124 131.014C140.735 131.014 141.867 131.945 141.867 133.355C141.867 133.607 141.833 133.858 141.769 134.106H145.016V134.969H141.423C140.483 136.69 138.223 138.061 136.306 138.061C134.796 138.061 133.588 137.18 133.588 135.72C133.588 135.468 133.615 135.216 133.666 134.969ZM210.775 134.969H207.542V134.106H211.062C211.858 132.376 213.866 131.014 216.233 131.014C217.844 131.014 218.976 131.945 218.976 133.355C218.976 133.607 218.942 133.858 218.878 134.106H222.126V134.969H218.531C217.591 136.69 215.331 138.061 213.414 138.061C211.904 138.061 210.696 137.18 210.696 135.72C210.696 135.468 210.723 135.216 210.775 134.969ZM207.542 97.1031H210.775C210.723 97.3505 210.696 97.6018 210.696 97.8544C210.696 99.3141 211.904 100.195 213.414 100.195C215.331 100.195 217.591 98.8242 218.531 97.1031H222.126V96.2405H218.878C218.942 95.9925 218.976 95.7411 218.976 95.4888C218.976 94.0794 217.844 93.1483 216.233 93.1483C213.866 93.1483 211.857 94.5097 211.062 96.2405H207.542V97.1031ZM302.54 134.969H298.951C298.011 136.69 295.751 138.061 293.834 138.061C292.324 138.061 291.116 137.18 291.116 135.72C291.116 135.468 291.143 135.216 291.195 134.969H287.961V134.106H291.482C292.277 132.376 294.285 131.014 296.653 131.014C298.263 131.014 299.396 131.945 299.396 133.355C299.396 133.607 299.362 133.858 299.298 134.106H302.54V134.969ZM290.17 97.1031H302.54V96.2405H296.585C298.141 95.359 299.396 93.8615 299.396 92.3333C299.396 90.9239 298.263 89.9928 296.653 89.9928C293.582 89.9928 291.116 92.2829 291.116 94.6989C291.116 95.3286 291.341 95.8505 291.718 96.2405H290.17V97.1031ZM379.656 134.969H376.061C375.121 136.69 372.861 138.061 370.944 138.061C369.434 138.061 368.226 137.18 368.226 135.72C368.226 135.468 368.253 135.216 368.305 134.969H365.069V134.106H368.591C369.387 132.376 371.395 131.014 373.762 131.014C375.373 131.014 376.505 131.945 376.505 133.355C376.505 133.607 376.471 133.858 376.407 134.106H379.656V134.969ZM365.069 97.1031H379.656V96.2405H373.695C375.251 95.359 376.505 93.8615 376.505 92.3333C376.505 90.9239 375.373 89.9928 373.762 89.9928C370.692 89.9928 368.226 92.2829 368.226 94.6989C368.226 95.3286 368.451 95.8505 368.827 96.2405H365.069V97.1031ZM445.413 134.969H442.175V134.106H445.699C446.495 132.376 448.503 131.014 450.87 131.014C452.481 131.014 453.614 131.945 453.614 133.355C453.614 133.607 453.579 133.858 453.515 134.106H456.762V134.969H453.169C452.229 136.69 449.969 138.061 448.052 138.061C446.542 138.061 445.334 137.18 445.334 135.72C445.334 135.468 445.361 135.216 445.413 134.969ZM456.762 97.1031H442.175V96.2405H456.762V97.1031Z" fill="black"/>
</svg>
