<svg width="784" height="83" viewBox="0 0 784 83" fill="none" xmlns="http://www.w3.org/2000/svg">
<path d="M0 26.8223H781.097" stroke="#F0F0F3" stroke-width="0.862542" stroke-miterlimit="2"/>
<path d="M0 16.8076H781.097" stroke="#F0F0F3" stroke-width="0.862542" stroke-miterlimit="2"/>
<path d="M0 36.8418H781.097" stroke="#F0F0F3" stroke-width="0.862542" stroke-miterlimit="2"/>
<path d="M0 46.8535H781.097" stroke="#F0F0F3" stroke-width="0.862542" stroke-miterlimit="2"/>
<path d="M0 56.874H781.097" stroke="#F0F0F3" stroke-width="0.862542" stroke-miterlimit="2"/>
<path d="M40.3418 14.3057V59.3796" stroke="#F0F0F3" stroke-width="0.86" stroke-miterlimit="2"/>
<path d="M94.8535 14.3057V59.3796" stroke="#F0F0F3" stroke-width="0.86" stroke-miterlimit="2"/>
<path d="M155.524 14.3057V59.3796" stroke="#F0F0F3" stroke-width="0.86" stroke-miterlimit="2"/>
<path d="M210.036 14.3057V59.3796" stroke="#F0F0F3" stroke-width="0.86" stroke-miterlimit="2"/>
<path d="M269.803 14.3057V59.3796" stroke="#F0F0F3" stroke-width="0.86" stroke-miterlimit="2"/>
<path d="M324.316 14.3057V59.3796" stroke="#F0F0F3" stroke-width="0.86" stroke-miterlimit="2"/>
<path d="M378.828 14.3057V59.3796" stroke="#F0F0F3" stroke-width="0.86" stroke-miterlimit="2"/>
<path d="M439.508 14.3057V59.3796" stroke="#F0F0F3" stroke-width="0.86" stroke-miterlimit="2"/>
<path d="M494.02 14.3057V59.3796" stroke="#F0F0F3" stroke-width="0.86" stroke-miterlimit="2"/>
<path d="M553.785 14.3057V59.3796" stroke="#F0F0F3" stroke-width="0.86" stroke-miterlimit="2"/>
<path d="M608.298 14.3057V59.3796" stroke="#F0F0F3" stroke-width="0.86" stroke-miterlimit="2"/>
<path d="M668.065 14.3057V59.3796" stroke="#F0F0F3" stroke-width="0.86" stroke-miterlimit="2"/>
<path d="M722.578 14.3057V59.3796" stroke="#F0F0F3" stroke-width="0.86" stroke-miterlimit="2"/>
<path d="M780.228 13.5234V60.1267" stroke="#F0F0F3" stroke-width="3" stroke-miterlimit="2"/>
<path d="M39.3424 26.8428V36.8408" stroke="#F0F0F3" stroke-width="0.0020701" stroke-miterlimit="2"/>
<path d="M57.6353 66.8916H80.7813" stroke="#F0F0F3" stroke-width="0.862542" stroke-miterlimit="2"/>
<path d="M119.581 66.8906H141.476" stroke="#F0F0F3" stroke-width="0.862542" stroke-miterlimit="2"/>
<path d="M39.3367 26.8624C39.3367 26.9069 39.3735 26.9338 39.4196 26.9338C39.4957 26.9338 39.5894 26.8632 39.5894 26.7902C39.5894 26.7472 39.5548 26.7188 39.5057 26.7188C39.4119 26.7188 39.3367 26.7886 39.3367 26.8624Z" fill="#F0F0F3"/>
<path d="M62.6429 68.7711C62.6429 71.0877 64.5602 72.4857 66.9568 72.4857C70.9111 72.4857 75.7841 68.811 75.7841 65.0164C75.7841 62.7796 73.9867 61.3018 71.4304 61.3018C66.5573 61.3018 62.6429 64.9366 62.6429 68.7711Z" fill="#F0F0F3"/>
<path d="M111.215 65.8506C111.375 65.8506 112.134 65.4912 112.253 65.4113C112.293 65.4113 112.333 65.3713 112.373 65.3713C112.653 65.3713 112.893 65.7708 112.893 66.0903V70.0446C112.893 70.484 112.693 70.8435 112.453 70.9633C112.213 71.0432 111.375 71.4027 111.375 71.4027C111.095 71.4826 110.895 71.8021 110.895 72.0418V74.8777C110.895 75.1174 111.015 75.2372 111.215 75.2372C111.255 75.2372 111.335 75.1973 111.375 75.1973C111.375 75.1973 111.934 74.9576 112.293 74.8378C112.333 74.7978 112.373 74.7978 112.413 74.7978C112.693 74.7978 112.893 75.2372 112.893 75.4369V80.3499C112.893 80.5895 113.132 80.7892 113.412 80.7892C113.811 80.7892 114.091 80.5895 114.091 80.3499V74.7978C114.091 74.2786 114.291 73.999 114.49 73.9191L116.927 72.9205C116.967 72.9205 117.047 72.8806 117.087 72.8806C117.406 72.8806 117.606 73.3599 117.606 73.5995V78.5924C117.606 78.832 117.845 79.0318 118.125 79.0318C118.564 79.0318 118.804 78.832 118.804 78.5924V72.9205C118.804 72.601 118.964 72.1217 119.243 72.0018C119.523 71.882 120.362 71.5625 120.362 71.5625C120.641 71.4426 120.841 71.1231 120.841 70.8834V68.0475C120.841 67.8478 120.721 67.728 120.562 67.728C120.482 67.728 120.442 67.728 120.362 67.7679L119.323 68.1673C119.084 68.1673 118.804 67.9277 118.804 67.4484V63.7337C118.804 63.4541 119.004 62.6952 119.323 62.5753L120.362 62.1759C120.641 62.0561 120.841 61.7365 120.841 61.4969V58.6609C120.841 58.4612 120.721 58.3414 120.562 58.3414C120.482 58.3414 120.442 58.3414 120.362 58.3813C120.362 58.3813 119.563 58.7009 119.363 58.7408C119.084 58.7408 118.804 58.5411 118.804 58.2216V53.3486C118.804 53.1089 118.564 52.9092 118.245 52.9092C117.845 52.9092 117.606 53.1089 117.606 53.3486V58.5411C117.566 58.9405 117.446 59.4598 117.087 59.6995C116.607 59.9791 115.249 60.5383 114.57 60.698C114.211 60.698 114.091 60.2187 114.091 59.8992V55.106C114.091 54.8664 113.811 54.6667 113.532 54.6667C113.132 54.6667 112.893 54.8664 112.893 55.106V60.4983C112.893 61.0575 112.653 61.4569 112.413 61.5768C112.174 61.6966 111.375 62.0161 111.375 62.0161C111.095 62.096 110.895 62.4156 110.895 62.6552V65.4912C110.895 65.7308 111.015 65.8506 111.215 65.8506ZM113.971 68.0874C113.971 66.8492 114.011 65.4512 114.091 65.1317C114.171 64.4526 116.008 63.6138 117.007 63.6138C117.286 63.6138 117.526 63.6937 117.606 63.8535C117.686 64.0532 117.766 65.0518 117.766 66.1302C117.766 67.2087 117.686 68.3271 117.606 68.6866C117.366 69.4854 115.489 70.2843 114.57 70.2843C114.33 70.2843 114.131 70.2044 114.091 70.0846C114.011 69.9248 113.971 69.0461 113.971 68.0874Z" fill="#F0F0F3"/>
<path d="M123.337 68.7711C123.337 71.0877 125.255 72.4857 127.651 72.4857C131.605 72.4857 136.478 68.811 136.478 65.0164C136.478 62.7796 134.681 61.3018 132.125 61.3018C127.252 61.3018 123.337 64.9366 123.337 68.7711Z" fill="#F0F0F3"/>
<path d="M177.826 63.7574C177.826 66.0741 179.743 67.4721 182.139 67.4721C186.094 67.4721 190.967 63.7973 190.967 60.0028C190.967 57.766 189.169 56.2881 186.613 56.2881C181.74 56.2881 177.826 59.9229 177.826 63.7574Z" fill="#F0F0F3"/>
<path d="M226.542 63.666C226.662 63.8257 226.781 63.8657 226.901 63.8657C227.021 63.8657 227.141 63.7858 227.141 63.7858C228.339 63.1068 229.298 62.0283 230.296 61.3493C233.851 58.8728 235.09 56.4363 235.09 54.599C235.09 52.3222 233.332 50.8843 231.495 50.7645C230.816 50.7645 229.857 51.084 229.298 51.4435C229.058 51.6432 228.619 52.0027 228.419 52.0027C228.339 52.0027 228.299 52.0027 228.219 51.9627C227.94 51.8429 227.78 51.5633 227.78 51.2837C227.82 50.405 228.06 40.8187 228.06 40.0198C228.06 39.5805 227.7 39.3408 227.301 39.3408C226.742 39.3408 226.102 39.7402 226.062 40.4592C226.062 40.4592 226.222 63.2665 226.542 63.666ZM227.9 54.8386C228.179 54.0398 229.777 52.8814 230.696 52.8814C231.854 52.8814 232.334 54.1995 232.334 55.1981C232.334 57.355 230.496 59.5119 228.779 60.5904C228.619 60.6703 228.499 60.7102 228.379 60.7102C228.02 60.7102 227.94 60.3108 227.94 60.1111C227.94 60.1111 227.82 57.7145 227.82 56.1168C227.82 55.4777 227.86 54.9984 227.9 54.8386Z" fill="#F0F0F3"/>
<path d="M237.592 58.7525C237.592 61.0692 239.509 62.4672 241.906 62.4672C245.86 62.4672 250.733 58.7924 250.733 54.9979C250.733 52.7611 248.936 51.2832 246.38 51.2832C241.507 51.2832 237.592 54.918 237.592 58.7525Z" fill="#F0F0F3"/>
<path d="M292.105 58.7525C292.105 61.0692 294.022 62.4672 296.418 62.4672C300.373 62.4672 305.246 58.7924 305.246 54.9979C305.246 52.7611 303.448 51.2832 300.892 51.2832C296.019 51.2832 292.105 54.918 292.105 58.7525Z" fill="#F0F0F3"/>
<path d="M346.617 53.7437C346.617 56.0604 348.534 57.4584 350.931 57.4584C354.885 57.4584 359.758 53.7837 359.758 49.9891C359.758 47.7523 357.961 46.2744 355.404 46.2744C350.531 46.2744 346.617 49.9092 346.617 53.7437Z" fill="#F0F0F3"/>
<path d="M395.174 50.8301C395.334 50.8301 396.093 50.4706 396.213 50.3908C396.252 50.3908 396.292 50.3508 396.332 50.3508C396.612 50.3508 396.852 50.7502 396.852 51.0698V55.0241C396.852 55.4635 396.652 55.823 396.412 55.9428C396.173 56.0227 395.334 56.3822 395.334 56.3822C395.054 56.4621 394.854 56.7816 394.854 57.0213V59.8572C394.854 60.0969 394.974 60.2167 395.174 60.2167C395.214 60.2167 395.294 60.1767 395.334 60.1767C395.334 60.1767 395.893 59.9371 396.252 59.8173C396.292 59.7773 396.332 59.7773 396.372 59.7773C396.652 59.7773 396.852 60.2167 396.852 60.4164V65.3294C396.852 65.569 397.091 65.7687 397.371 65.7687C397.77 65.7687 398.05 65.569 398.05 65.3294V59.7773C398.05 59.2581 398.25 58.9785 398.449 58.8986L400.886 57.9C400.926 57.9 401.006 57.8601 401.046 57.8601C401.365 57.8601 401.565 58.3394 401.565 58.579V63.5719C401.565 63.8115 401.805 64.0113 402.084 64.0113C402.524 64.0113 402.763 63.8115 402.763 63.5719V57.9C402.763 57.5805 402.923 57.1012 403.203 56.9813C403.482 56.8615 404.321 56.542 404.321 56.542C404.601 56.4221 404.8 56.1026 404.8 55.8629V53.027C404.8 52.8273 404.68 52.7074 404.521 52.7074C404.441 52.7074 404.401 52.7074 404.321 52.7474L403.282 53.1468C403.043 53.1468 402.763 52.9072 402.763 52.4278V48.7132C402.763 48.4336 402.963 47.6747 403.282 47.5548L404.321 47.1554C404.601 47.0356 404.8 46.716 404.8 46.4764V43.6404C404.8 43.4407 404.68 43.3209 404.521 43.3209C404.441 43.3209 404.401 43.3209 404.321 43.3608C404.321 43.3608 403.522 43.6804 403.322 43.7203C403.043 43.7203 402.763 43.5206 402.763 43.2011V38.328C402.763 38.0884 402.524 37.8887 402.204 37.8887C401.805 37.8887 401.565 38.0884 401.565 38.328V43.5206C401.525 43.92 401.405 44.4393 401.046 44.6789C400.566 44.9585 399.208 45.5177 398.529 45.6775C398.17 45.6775 398.05 45.1982 398.05 44.8787V40.0855C398.05 39.8459 397.77 39.6462 397.491 39.6462C397.091 39.6462 396.852 39.8459 396.852 40.0855V45.4778C396.852 46.037 396.612 46.4364 396.372 46.5563C396.133 46.6761 395.334 46.9956 395.334 46.9956C395.054 47.0755 394.854 47.3951 394.854 47.6347V50.4706C394.854 50.7103 394.974 50.8301 395.174 50.8301ZM397.93 53.0669C397.93 51.8287 397.97 50.4307 398.05 50.1112C398.13 49.4321 399.967 48.5933 400.966 48.5933C401.245 48.5933 401.485 48.6732 401.565 48.833C401.645 49.0327 401.725 50.0313 401.725 51.1097C401.725 52.1882 401.645 53.3066 401.565 53.6661C401.325 54.4649 399.448 55.2638 398.529 55.2638C398.29 55.2638 398.09 55.1839 398.05 55.0641C397.97 54.9043 397.93 54.0256 397.93 53.0669Z" fill="#F0F0F3"/>
<path d="M407.297 53.7437C407.297 56.0604 409.214 57.4584 411.61 57.4584C415.565 57.4584 420.438 53.7837 420.438 49.9891C420.438 47.7523 418.64 46.2744 416.084 46.2744C411.211 46.2744 407.297 49.9092 407.297 53.7437Z" fill="#F0F0F3"/>
<path d="M461.809 48.7379C461.809 51.0545 463.726 52.4525 466.123 52.4525C470.077 52.4525 474.95 48.7778 474.95 44.9832C474.95 42.7464 473.153 41.2686 470.596 41.2686C465.723 41.2686 461.809 44.9033 461.809 48.7379Z" fill="#F0F0F3"/>
<path d="M510.526 48.6386C510.646 48.7984 510.765 48.8383 510.885 48.8383C511.005 48.8383 511.125 48.7585 511.125 48.7585C512.323 48.0794 513.282 47.001 514.28 46.3219C517.835 43.8455 519.073 41.409 519.073 39.5716C519.073 37.2949 517.316 35.8569 515.479 35.7371C514.8 35.7371 513.841 36.0567 513.282 36.4161C513.042 36.6159 512.603 36.9753 512.403 36.9753C512.323 36.9753 512.283 36.9753 512.203 36.9354C511.924 36.8156 511.764 36.536 511.764 36.2564C511.804 35.3776 512.044 25.7914 512.044 24.9925C512.044 24.5531 511.684 24.3135 511.285 24.3135C510.725 24.3135 510.086 24.7129 510.046 25.4319C510.046 25.4319 510.206 48.2392 510.526 48.6386ZM511.884 39.8113C512.163 39.0124 513.761 37.8541 514.68 37.8541C515.838 37.8541 516.317 39.1722 516.317 40.1708C516.317 42.3277 514.48 44.4846 512.762 45.563C512.603 45.6429 512.483 45.6829 512.363 45.6829C512.004 45.6829 511.924 45.2834 511.924 45.0837C511.924 45.0837 511.804 42.6872 511.804 41.0894C511.804 40.4504 511.844 39.971 511.884 39.8113Z" fill="#F0F0F3"/>
<path d="M521.576 43.7252C521.576 46.0418 523.494 47.4398 525.89 47.4398C529.845 47.4398 534.718 43.7651 534.718 39.9705C534.718 37.7337 532.92 36.2559 530.364 36.2559C525.491 36.2559 521.576 39.8907 521.576 43.7252Z" fill="#F0F0F3"/>
<path d="M576.087 43.7252C576.087 46.0418 578.004 47.4398 580.401 47.4398C584.355 47.4398 589.228 43.7651 589.228 39.9705C589.228 37.7337 587.431 36.2559 584.875 36.2559C580.002 36.2559 576.087 39.8907 576.087 43.7252Z" fill="#F0F0F3"/>
<path d="M624.803 43.6328C624.923 43.7925 625.043 43.8325 625.163 43.8325C625.283 43.8325 625.403 43.7526 625.403 43.7526C626.601 43.0736 627.559 41.9951 628.558 41.3161C632.113 38.8396 633.351 36.4031 633.351 34.5658C633.351 32.289 631.594 30.8511 629.756 30.7313C629.077 30.7313 628.119 31.0508 627.559 31.4103C627.32 31.61 626.88 31.9695 626.681 31.9695C626.601 31.9695 626.561 31.9695 626.481 31.9295C626.201 31.8097 626.042 31.5301 626.042 31.2505C626.082 30.3718 626.321 20.7855 626.321 19.9866C626.321 19.5473 625.962 19.3076 625.562 19.3076C625.003 19.3076 624.364 19.707 624.324 20.426C624.324 20.426 624.484 43.2333 624.803 43.6328ZM626.161 34.8054C626.441 34.0066 628.039 32.8482 628.957 32.8482C630.116 32.8482 630.595 34.1663 630.595 35.1649C630.595 37.3218 628.758 39.4787 627.04 40.5572C626.88 40.6371 626.761 40.677 626.641 40.677C626.281 40.677 626.201 40.2776 626.201 40.0779C626.201 40.0779 626.082 37.6813 626.082 36.0836C626.082 35.4445 626.122 34.9652 626.161 34.8054Z" fill="#F0F0F3"/>
<path d="M635.854 38.7183C635.854 41.035 637.771 42.433 640.168 42.433C644.122 42.433 648.995 38.7583 648.995 34.9637C648.995 32.7269 647.198 31.249 644.641 31.249C639.768 31.249 635.854 34.8838 635.854 38.7183Z" fill="#F0F0F3"/>
<path d="M690.366 38.7183C690.366 41.035 692.284 42.433 694.68 42.433C698.634 42.433 703.508 38.7583 703.508 34.9637C703.508 32.7269 701.71 31.249 699.154 31.249C694.281 31.249 690.366 34.8838 690.366 38.7183Z" fill="#F0F0F3"/>
<path d="M744.879 33.7115C744.879 36.0282 746.797 37.4262 749.193 37.4262C753.148 37.4262 758.021 33.7514 758.021 29.9569C758.021 27.7201 756.223 26.2422 753.667 26.2422C748.794 26.2422 744.879 29.877 744.879 33.7115Z" fill="#F0F0F3"/>
<path d="M19.5474 56.9228C20.4661 56.9228 21.5046 56.8429 22.3034 56.6831C22.7428 56.6032 22.8227 56.5633 22.9026 57.0426C23.3819 59.7188 23.981 63.1938 23.981 65.0711C23.981 70.9826 19.9868 71.7016 17.6301 71.7016C15.4732 71.7016 14.4347 71.0625 14.4347 70.5433C14.4347 70.2637 14.7942 70.1438 15.7129 69.8642C16.9511 69.5047 18.389 68.4263 18.389 66.1096C18.389 63.9128 16.991 62.0354 14.5545 62.0354C11.8784 62.0354 10.2807 64.1524 10.2807 66.6289C10.2807 69.2251 11.8384 73.1395 17.8698 73.1395C20.546 73.1395 25.7385 71.9413 25.7385 65.151C25.7385 62.8742 25.0195 59.0797 24.5802 56.6032C24.5003 56.1239 24.5402 56.1639 25.0994 55.9242C29.1337 54.3265 31.8098 50.9313 31.8098 46.4178C31.8098 41.3051 28.0552 36.7916 22.1836 36.7916C21.1451 36.7916 21.1451 36.7916 21.0253 36.0726L20.0267 30.2809C19.9468 29.8016 20.0267 29.7617 20.2664 29.522C24.5802 25.4878 27.8555 20.4151 27.8555 14.3038C27.8555 10.8288 26.8969 7.39371 25.2592 4.99714C24.6601 4.1184 23.6215 3 23.1822 3C22.623 3 21.3848 4.03851 20.5859 4.91726C17.6301 8.19256 16.6715 13.1854 16.6715 17.3395C16.6715 19.6561 16.9511 22.2524 17.2307 23.8901C17.3106 24.3694 17.3505 24.4493 16.8712 24.8487C11.1195 29.6019 5.00821 35.3137 5.00821 43.3822C5.00821 50.3322 9.7614 56.9228 19.5474 56.9228ZM8.20363 46.0583C8.20363 43.7017 8.60306 40.5462 11.9183 36.7916C14.3149 34.1154 16.1522 32.6376 18.0296 31.1197C18.429 30.8002 18.5089 30.8401 18.5888 31.2795L19.4276 36.3922C19.5474 37.1511 19.5474 37.1111 18.8284 37.3508C15.3134 38.5491 13.0367 41.7046 13.0367 45.0997C13.0367 48.6945 14.914 51.2509 17.6301 52.1696C17.9497 52.2894 18.429 52.4092 18.7086 52.4092C19.0281 52.4092 19.1879 52.2095 19.1879 51.9699C19.1879 51.6903 18.8684 51.5704 18.5888 51.4506C16.9112 50.7316 15.7129 49.0141 15.7129 47.1767C15.7129 44.9 17.2706 43.1824 19.7072 42.5034C20.3462 42.3436 20.4261 42.3836 20.506 42.823L22.5031 54.7259C22.583 55.1653 22.5431 55.1653 21.944 55.2851C21.3049 55.4049 20.506 55.4848 19.7072 55.4848C12.7172 55.4848 8.20363 51.6104 8.20363 46.0583ZM23.7813 9.19113C25.0994 9.19113 26.1779 10.2696 26.1779 12.4664C26.1779 16.9001 22.3833 20.4949 19.2278 23.251C18.9482 23.4907 18.7885 23.4507 18.7086 22.9315C18.5488 21.8929 18.4689 20.5349 18.4689 19.2567C18.4689 13.0256 21.3448 9.19113 23.7813 9.19113ZM22.623 42.1839C25.8583 42.4635 28.5345 45.1796 28.5345 48.6945C28.5345 51.2109 27.0167 53.248 24.7799 54.3664C24.3006 54.6061 24.2207 54.6061 24.1408 54.1268L22.1836 42.7431C22.1037 42.2638 22.1437 42.1439 22.623 42.1839Z" fill="#F0F0F3"/>
</svg>
