<svg width="493" height="60" viewBox="0 0 493 60" fill="none" xmlns="http://www.w3.org/2000/svg">
<path fill-rule="evenodd" clip-rule="evenodd" d="M52.2034 5.53516H52.4763V8.55029H52.2034C52.1272 8.20752 51.9897 7.90495 51.7908 7.64258C51.0333 8.4974 50.0663 8.9248 48.8899 8.9248C47.6458 8.9248 46.628 8.53125 45.8367 7.74414C45.0496 6.95703 44.656 5.91602 44.656 4.62109C44.656 3.77051 44.838 2.9707 45.2019 2.22168C45.5658 1.46842 46.0737 0.909831 46.7253 0.545898C47.377 0.181966 48.0922 0 48.8708 0C49.5141 0 50.0959 0.133301 50.6165 0.399902C51.1412 0.662272 51.5326 0.954264 51.7908 1.27588C51.9727 0.916178 52.0828 0.543783 52.1208 0.158691H52.4001L52.4763 3.42139H52.2034C52.0129 2.26188 51.6236 1.45573 51.0354 1.00293C50.4514 0.55013 49.7913 0.32373 49.0549 0.32373C48.1536 0.32373 47.4363 0.689779 46.9031 1.42188C46.3741 2.15397 46.1096 3.20133 46.1096 4.56396C46.1096 5.85465 46.3995 6.84489 46.9792 7.53467C47.559 8.22021 48.2805 8.56299 49.1438 8.56299C49.6051 8.56299 50.0769 8.45085 50.5593 8.22656C51.0417 8.00228 51.4226 7.62354 51.7019 7.09033C51.9854 6.5529 52.1526 6.03451 52.2034 5.53516ZM53.9172 2.67236H56.0183L56.5706 0.0634766H57.2244L56.6721 2.67236H59.4587L60.0046 0.0634766H60.6648L60.1125 2.67236H61.4202V3.33252H59.9856L59.4714 5.80811H61.4202V6.46826H59.3381L58.7986 9.06445H58.1321L58.6843 6.46826H55.8723L55.3455 9.06445H54.679L55.2249 6.46826H53.9172V5.80811H55.3645L55.8787 3.33252H53.9172V2.67236ZM56.012 5.79541H58.8176L59.3318 3.33252H56.5325L56.012 5.79541ZM65.489 0.241211H65.7683V6.98242C65.7683 7.53678 65.7747 7.8859 65.7874 8.02979C65.8043 8.17367 65.8656 8.28369 65.9714 8.35986C66.0772 8.43604 66.2655 8.47412 66.5364 8.47412H66.7839V8.76611H63.9275V8.47412H64.137C64.4417 8.47412 64.6384 8.4318 64.7273 8.34717C64.8204 8.2583 64.8733 8.15462 64.886 8.03613C64.9029 7.91341 64.9114 7.56217 64.9114 6.98242V2.46289C64.9114 1.8916 64.905 1.54671 64.8923 1.42822C64.8796 1.3055 64.8246 1.19971 64.7273 1.11084C64.6342 1.01774 64.4374 0.971191 64.137 0.971191H63.864V0.679199C64.5961 0.666504 65.1378 0.520508 65.489 0.241211ZM239.042 0.158691L239.112 2.3042H238.813C238.754 1.83447 238.621 1.44727 238.413 1.14258C238.21 0.833659 237.997 0.641113 237.772 0.564941C237.548 0.48877 237.169 0.450684 236.636 0.450684H234.954V4.10059H235.76C236.281 4.10059 236.625 4.01383 236.795 3.84033C236.968 3.6626 237.055 3.30924 237.055 2.78027H237.372V5.81445H237.055C237.055 5.44629 237.017 5.15641 236.941 4.94482C236.869 4.729 236.759 4.58301 236.611 4.50684C236.467 4.42643 236.183 4.38623 235.76 4.38623H234.954V6.52539C234.954 7.20247 234.971 7.64681 235.005 7.8584C235.038 8.06575 235.123 8.22021 235.259 8.32178C235.398 8.42334 235.665 8.47412 236.058 8.47412H236.35V8.76611H232.351V8.47412H232.618C232.986 8.47412 233.24 8.42757 233.38 8.33447C233.524 8.24137 233.615 8.09749 233.653 7.90283C233.695 7.70394 233.716 7.24479 233.716 6.52539V2.3042C233.716 1.61865 233.695 1.17643 233.653 0.977539C233.615 0.778646 233.53 0.641113 233.399 0.564941C233.272 0.48877 232.99 0.450684 232.554 0.450684H232.402V0.158691H239.042ZM239.759 2.67236H241.86L242.412 0.0634766H243.066L242.514 2.67236H245.301L245.846 0.0634766H246.507L245.954 2.67236H247.262V3.33252H245.827L245.313 5.80811H247.262V6.46826H245.18L244.64 9.06445H243.974L244.526 6.46826H241.714L241.187 9.06445H240.521L241.067 6.46826H239.759V5.80811H241.206L241.72 3.33252H239.759V2.67236ZM241.854 5.79541H244.659L245.174 3.33252H242.374L241.854 5.79541ZM251.331 0.241211H251.61V6.98242C251.61 7.53678 251.616 7.8859 251.629 8.02979C251.646 8.17367 251.707 8.28369 251.813 8.35986C251.919 8.43604 252.107 8.47412 252.378 8.47412H252.626V8.76611H249.769V8.47412H249.979C250.283 8.47412 250.48 8.4318 250.569 8.34717C250.662 8.2583 250.715 8.15462 250.728 8.03613C250.745 7.91341 250.753 7.56217 250.753 6.98242V2.46289C250.753 1.8916 250.747 1.54671 250.734 1.42822C250.721 1.3055 250.666 1.19971 250.569 1.11084C250.476 1.01774 250.279 0.971191 249.979 0.971191H249.706V0.679199C250.438 0.666504 250.98 0.520508 251.331 0.241211ZM143.715 6.0874H143.41C143.258 6.72217 143.048 7.22152 142.781 7.58545C142.519 7.94515 142.242 8.18425 141.95 8.30273C141.658 8.41699 141.286 8.47412 140.833 8.47412H140.192C139.616 8.47412 139.263 8.38525 139.132 8.20752C139 8.02555 138.935 7.42464 138.935 6.40479V4.36719H139.881C140.249 4.36719 140.509 4.39258 140.661 4.44336C140.818 4.48991 140.936 4.5957 141.017 4.76074C141.097 4.92155 141.137 5.24105 141.137 5.71924H141.436V2.77393H141.137C141.137 3.1971 141.11 3.48275 141.055 3.63086C141.004 3.77474 140.894 3.88265 140.725 3.95459C140.56 4.02653 140.268 4.0625 139.849 4.0625H138.935V0.450684H140.128C140.729 0.450684 141.165 0.484538 141.436 0.552246C141.707 0.615723 141.939 0.774414 142.134 1.02832C142.333 1.27799 142.5 1.70329 142.635 2.3042H142.934L142.731 0.158691H136.58V0.450684C136.995 0.450684 137.265 0.493001 137.392 0.577637C137.524 0.65804 137.606 0.801921 137.64 1.00928C137.678 1.21663 137.697 1.64827 137.697 2.3042V6.52539C137.697 7.24479 137.68 7.69336 137.646 7.87109C137.612 8.0446 137.532 8.18848 137.405 8.30273C137.282 8.41699 137.007 8.47412 136.58 8.47412H136.402V8.76611H143.531L143.715 6.0874ZM145.117 8.97559H145.365C145.534 8.61165 145.756 8.29216 146.031 8.01709C146.226 8.33447 146.467 8.57357 146.755 8.73438C147.047 8.89518 147.386 8.97559 147.771 8.97559C148.554 8.97559 149.191 8.70475 149.681 8.16309C150.172 7.62142 150.418 6.94434 150.418 6.13184C150.418 5.32357 150.179 4.65918 149.7 4.13867C149.222 3.61816 148.609 3.35791 147.86 3.35791C147.546 3.35791 147.238 3.4235 146.933 3.55469C146.628 3.68587 146.328 3.88477 146.031 4.15137V0.0380859H145.898C145.771 0.0973307 145.532 0.156576 145.181 0.21582C144.83 0.275065 144.529 0.304688 144.28 0.304688V0.59668C144.559 0.59668 144.754 0.63265 144.864 0.70459C144.978 0.77653 145.048 0.886556 145.073 1.03467C145.103 1.18278 145.117 1.51074 145.117 2.01855V8.97559ZM146.031 6.56348V4.52588C146.302 4.24658 146.575 4.03923 146.85 3.90381C147.13 3.76416 147.413 3.69434 147.701 3.69434C148.204 3.69434 148.607 3.89746 148.907 4.30371C149.212 4.70573 149.364 5.29395 149.364 6.06836C149.364 6.91048 149.201 7.55583 148.875 8.00439C148.554 8.45296 148.12 8.67725 147.574 8.67725C147.219 8.67725 146.907 8.57145 146.641 8.35986C146.374 8.14827 146.205 7.92822 146.133 7.69971C146.065 7.46696 146.031 7.08822 146.031 6.56348ZM154.658 0.241211H154.379C154.027 0.520508 153.486 0.666504 152.754 0.679199V0.971191H153.027C153.327 0.971191 153.524 1.01774 153.617 1.11084C153.714 1.19971 153.769 1.3055 153.782 1.42822C153.795 1.54671 153.801 1.8916 153.801 2.46289V6.98242C153.801 7.56217 153.793 7.91341 153.776 8.03613C153.763 8.15462 153.71 8.2583 153.617 8.34717C153.528 8.4318 153.331 8.47412 153.027 8.47412H152.817V8.76611H155.674V8.47412H155.426C155.155 8.47412 154.967 8.43604 154.861 8.35986C154.755 8.28369 154.694 8.17367 154.677 8.02979C154.664 7.8859 154.658 7.53678 154.658 6.98242V0.241211ZM335.601 5.59229H332.332L332.11 6.13818C331.78 6.92952 331.615 7.4458 331.615 7.68701C331.615 7.94515 331.701 8.14193 331.875 8.27734C332.052 8.40853 332.279 8.47412 332.554 8.47412V8.76611H329.996V8.47412C330.377 8.41488 330.66 8.28158 330.846 8.07422C331.033 7.86263 331.257 7.42041 331.519 6.74756C331.54 6.68408 331.642 6.43864 331.824 6.01123L334.325 0.0380859H334.573L337.448 6.87451L337.842 7.77588C337.93 7.979 338.049 8.13981 338.197 8.2583C338.349 8.37256 338.576 8.4445 338.876 8.47412V8.76611H335.493V8.47412C335.908 8.47412 336.187 8.4445 336.331 8.38525C336.479 8.32178 336.553 8.19906 336.553 8.01709C336.553 7.92399 336.456 7.64681 336.261 7.18555L335.601 5.59229ZM335.493 5.30664L333.969 1.6377L332.452 5.30664H335.493ZM340.051 8.97559H339.803V2.01855C339.803 1.51074 339.788 1.18278 339.759 1.03467C339.733 0.886556 339.663 0.77653 339.549 0.70459C339.439 0.63265 339.244 0.59668 338.965 0.59668V0.304688C339.215 0.304688 339.515 0.275065 339.866 0.21582C340.218 0.156576 340.457 0.0973307 340.584 0.0380859H340.717V4.15137C341.013 3.88477 341.314 3.68587 341.618 3.55469C341.923 3.4235 342.232 3.35791 342.545 3.35791C343.294 3.35791 343.908 3.61816 344.386 4.13867C344.864 4.65918 345.103 5.32357 345.103 6.13184C345.103 6.94434 344.858 7.62142 344.367 8.16309C343.876 8.70475 343.239 8.97559 342.456 8.97559C342.071 8.97559 341.733 8.89518 341.441 8.73438C341.153 8.57357 340.912 8.33447 340.717 8.01709C340.442 8.29216 340.22 8.61165 340.051 8.97559ZM340.717 4.52588V6.56348C340.717 7.08822 340.751 7.46696 340.819 7.69971C340.891 7.92822 341.06 8.14827 341.326 8.35986C341.593 8.57145 341.904 8.67725 342.26 8.67725C342.805 8.67725 343.239 8.45296 343.561 8.00439C343.887 7.55583 344.05 6.91048 344.05 6.06836C344.05 5.29395 343.897 4.70573 343.593 4.30371C343.292 3.89746 342.89 3.69434 342.386 3.69434C342.099 3.69434 341.815 3.76416 341.536 3.90381C341.261 4.03923 340.988 4.24658 340.717 4.52588ZM349.064 0.241211H349.344V6.98242C349.344 7.53678 349.35 7.8859 349.363 8.02979C349.379 8.17367 349.441 8.28369 349.547 8.35986C349.652 8.43604 349.841 8.47412 350.112 8.47412H350.359V8.76611H347.503V8.47412H347.712C348.017 8.47412 348.214 8.4318 348.302 8.34717C348.396 8.2583 348.448 8.15462 348.461 8.03613C348.478 7.91341 348.487 7.56217 348.487 6.98242V2.46289C348.487 1.8916 348.48 1.54671 348.468 1.42822C348.455 1.3055 348.4 1.19971 348.302 1.11084C348.209 1.01774 348.013 0.971191 347.712 0.971191H347.439V0.679199C348.171 0.666504 348.713 0.520508 349.064 0.241211ZM433.693 4.8623C433.219 4.44759 432.493 4.20426 431.515 4.13232C432.328 4.01383 432.935 3.78532 433.337 3.44678C433.743 3.10824 433.947 2.65967 433.947 2.10107C433.947 0.746908 432.77 0.0698242 430.417 0.0698242L428.805 0.120605L427.389 0.158691V0.450684H427.554C427.99 0.450684 428.272 0.48877 428.399 0.564941C428.53 0.641113 428.615 0.780762 428.653 0.983887C428.695 1.18701 428.716 1.6377 428.716 2.33594V6.52539C428.716 7.24479 428.697 7.70394 428.659 7.90283C428.621 8.09749 428.53 8.24137 428.386 8.33447C428.246 8.42757 427.992 8.47412 427.624 8.47412H427.294V8.76611H430.671C431.513 8.76611 432.184 8.70687 432.683 8.58838C433.187 8.46566 433.6 8.20964 433.921 7.82031C434.243 7.42676 434.404 6.95915 434.404 6.41748C434.404 5.79541 434.167 5.27702 433.693 4.8623ZM430.227 4.01807C430.155 4.01807 430.066 4.01595 429.96 4.01172V0.399902C430.134 0.387207 430.303 0.380859 430.468 0.380859C431.103 0.380859 431.551 0.448568 431.814 0.583984C432.076 0.715169 432.273 0.903483 432.404 1.14893C432.535 1.39437 432.601 1.74137 432.601 2.18994C432.601 2.83317 432.434 3.29867 432.099 3.58643C431.765 3.87419 431.141 4.01807 430.227 4.01807ZM429.96 6.23975V4.32275C430.129 4.31429 430.29 4.31006 430.443 4.31006C431.407 4.31006 432.08 4.47933 432.461 4.81787C432.846 5.15218 433.039 5.6748 433.039 6.38574C433.039 7.07975 432.87 7.60026 432.531 7.94727C432.192 8.29427 431.685 8.46777 431.008 8.46777C430.627 8.46777 430.371 8.41064 430.24 8.29639C430.113 8.18213 430.034 8.01497 430.005 7.79492C429.975 7.57487 429.96 7.05648 429.96 6.23975ZM435.99 8.97559H436.238C436.407 8.61165 436.629 8.29216 436.905 8.01709C437.099 8.33447 437.34 8.57357 437.628 8.73438C437.92 8.89518 438.259 8.97559 438.644 8.97559C439.427 8.97559 440.064 8.70475 440.554 8.16309C441.045 7.62142 441.291 6.94434 441.291 6.13184C441.291 5.32357 441.052 4.65918 440.573 4.13867C440.095 3.61816 439.482 3.35791 438.733 3.35791C438.42 3.35791 438.111 3.4235 437.806 3.55469C437.501 3.68587 437.201 3.88477 436.905 4.15137V0.0380859H436.771C436.644 0.0973307 436.405 0.156576 436.054 0.21582C435.703 0.275065 435.402 0.304688 435.153 0.304688V0.59668C435.432 0.59668 435.627 0.63265 435.737 0.70459C435.851 0.77653 435.921 0.886556 435.946 1.03467C435.976 1.18278 435.99 1.51074 435.99 2.01855V8.97559ZM436.905 6.56348V4.52588C437.175 4.24658 437.448 4.03923 437.723 3.90381C438.003 3.76416 438.286 3.69434 438.574 3.69434C439.078 3.69434 439.48 3.89746 439.78 4.30371C440.085 4.70573 440.237 5.29395 440.237 6.06836C440.237 6.91048 440.074 7.55583 439.748 8.00439C439.427 8.45296 438.993 8.67725 438.447 8.67725C438.092 8.67725 437.781 8.57145 437.514 8.35986C437.247 8.14827 437.078 7.92822 437.006 7.69971C436.938 7.46696 436.905 7.08822 436.905 6.56348ZM445.531 0.241211H445.252C444.9 0.520508 444.359 0.666504 443.627 0.679199V0.971191H443.9C444.2 0.971191 444.397 1.01774 444.49 1.11084C444.587 1.19971 444.642 1.3055 444.655 1.42822C444.668 1.54671 444.674 1.8916 444.674 2.46289V6.98242C444.674 7.56217 444.666 7.91341 444.649 8.03613C444.636 8.15462 444.583 8.2583 444.49 8.34717C444.401 8.4318 444.204 8.47412 443.9 8.47412H443.69V8.76611H446.547V8.47412H446.299C446.028 8.47412 445.84 8.43604 445.734 8.35986C445.628 8.28369 445.567 8.17367 445.55 8.02979C445.537 7.8859 445.531 7.53678 445.531 6.98242V0.241211ZM14.4881 43.4397C14.7783 45.0733 15.1096 47.065 15.1096 48.1732C15.1096 51.8979 12.593 52.3508 11.1081 52.3508C9.74914 52.3508 9.09481 51.9482 9.09481 51.621C9.09481 51.4449 9.32131 51.3694 9.90014 51.1932C10.6803 50.9667 11.5863 50.2872 11.5863 48.8275C11.5863 47.4434 10.7055 46.2606 9.17031 46.2606C7.48416 46.2606 6.4775 47.5944 6.4775 49.1547C6.4775 50.7905 7.45899 53.2568 11.2591 53.2568C12.9453 53.2568 16.2169 52.5018 16.2169 48.2235C16.2169 46.9632 15.8672 44.9646 15.5946 43.4397H41.2583V46.7816C41.2583 47.134 41.1073 47.3856 40.9563 47.4611C40.8053 47.5366 40.302 47.738 40.302 47.738C40.1258 47.7883 40 47.9896 40 48.1406V49.9275C40 50.0784 40.0755 50.1539 40.2013 50.1539C40.302 50.1539 40.7802 49.9275 40.8557 49.8771C40.8682 49.8771 40.8808 49.8708 40.8934 49.8645C40.906 49.8582 40.9186 49.852 40.9312 49.852C41.1073 49.852 41.2583 50.1036 41.2583 50.3049V52.7964C41.2583 53.0733 41.1325 53.2998 40.9815 53.3753C40.8305 53.4256 40.302 53.6521 40.302 53.6521C40.1258 53.7024 40 53.9038 40 54.0548V55.8416C40 55.9926 40.0755 56.0681 40.2013 56.0681C40.2139 56.0681 40.2328 56.0618 40.2517 56.0555C40.2705 56.0492 40.2894 56.0429 40.302 56.0429C40.302 56.0429 40.6543 55.8919 40.8808 55.8164C40.906 55.7912 40.9312 55.7912 40.9563 55.7912C41.1325 55.7912 41.2583 56.0681 41.2583 56.1939V59.2894C41.2583 59.4404 41.4093 59.5662 41.5855 59.5662C41.8372 59.5662 42.0133 59.4404 42.0133 59.2894V55.7912C42.0133 55.4641 42.1392 55.2879 42.265 55.2376L43.8001 54.6084C43.8127 54.6084 43.8316 54.6021 43.8505 54.5958C43.8694 54.5895 43.8882 54.5833 43.9008 54.5833C44.1021 54.5833 44.228 54.8853 44.228 55.0363V58.1821C44.228 58.3331 44.379 58.4589 44.5551 58.4589C44.832 58.4589 44.983 58.3331 44.983 58.1821V54.6084C44.983 54.4071 45.0836 54.1051 45.2598 54.0296C45.436 53.9541 45.9645 53.7528 45.9645 53.7528C46.1406 53.6773 46.2665 53.4759 46.2665 53.3249V51.5381C46.2665 51.4123 46.191 51.3368 46.0903 51.3368C46.04 51.3368 46.0148 51.3368 45.9645 51.3619L45.3101 51.6136C45.1591 51.6136 44.983 51.4626 44.983 51.1606V48.8201C44.983 48.644 45.1088 48.1658 45.3101 48.0903L45.9645 47.8386C46.1406 47.7631 46.2665 47.5618 46.2665 47.4108V45.624C46.2665 45.4981 46.191 45.4226 46.0903 45.4226C46.04 45.4226 46.0148 45.4226 45.9645 45.4478C45.9645 45.4478 45.4611 45.6491 45.3353 45.6743C45.1591 45.6743 44.983 45.5485 44.983 45.3471V43.4397H98.6401V44.5862H98.9851V43.4397H139.821C139.866 45.5785 139.921 47.2036 139.988 47.2867C140.064 47.3874 140.139 47.4126 140.215 47.4126C140.29 47.4126 140.366 47.3622 140.366 47.3622C140.805 47.1129 141.194 46.7782 141.566 46.4575L141.567 46.4574C141.833 46.2279 142.091 46.0056 142.354 45.8271C143.53 45.0073 144.304 44.1945 144.774 43.4397H147.029C146.977 43.6871 146.95 43.9384 146.95 44.1911C146.95 45.6507 148.158 46.5315 149.668 46.5315C151.585 46.5315 153.845 45.1608 154.785 43.4397H195.571V44.5861H195.916V43.4397H236.617V44.8862C236.617 45.0372 236.692 45.1127 236.818 45.1127C236.831 45.1127 236.849 45.1064 236.868 45.1001C236.887 45.0938 236.906 45.0875 236.919 45.0875C236.919 45.0875 237.271 44.9365 237.498 44.861C237.523 44.8359 237.548 44.8359 237.573 44.8359C237.749 44.8359 237.875 45.1127 237.875 45.2385V48.334C237.875 48.485 238.026 48.6108 238.202 48.6108C238.454 48.6108 238.63 48.485 238.63 48.334V44.8359C238.63 44.5087 238.756 44.3325 238.882 44.2822L240.417 43.653C240.429 43.653 240.448 43.6467 240.467 43.6405L240.467 43.6404C240.476 43.6375 240.485 43.6345 240.493 43.6323C240.502 43.6297 240.511 43.6279 240.518 43.6279C240.719 43.6279 240.845 43.9299 240.845 44.0809V47.2267C240.845 47.3777 240.996 47.5035 241.172 47.5035C241.449 47.5035 241.6 47.3777 241.6 47.2267V43.653C241.6 43.5887 241.61 43.514 241.63 43.4397H293.077V44.5861H293.422V43.4397H389.996V44.5861H390.341V43.4397H486.915V44.5861H487.261V43.4397H491.339V44.5861H491.684V43.4397H492.141V42.5772H491.684V37.1287H492.141V36.2661H491.684V30.8179H492.141V29.9553H491.684V24.5068H492.141V23.6443H491.684V18.1958H492.141V17.3333H491.684V16.1867H491.339V17.3333H487.261V16.1867H486.915V17.3333H390.341V16.1867H389.996V17.3333H293.422V16.1867H293.077V17.3333H195.916V16.1867H195.571V17.3333H98.9851V16.1868H98.6401V17.3333H17.4891C17.5297 16.9577 17.5508 16.5755 17.5508 16.1866C17.5508 13.9971 16.9468 11.8328 15.9149 10.3228C15.5374 9.76912 14.8831 9.06445 14.6063 9.06445C14.2539 9.06445 13.4738 9.71878 12.9705 10.2724C11.2867 12.1382 10.6315 14.8886 10.5214 17.3333H0.00012207V18.1958H10.5044C10.5119 19.6306 10.6842 21.2174 10.8565 22.2265L10.8632 22.2667C10.9084 22.5336 10.9181 22.5905 10.63 22.8305C10.3078 23.0968 9.98376 23.3679 9.66083 23.6443H0V24.5068H8.68002C6.91943 26.1029 5.28148 27.884 4.25356 29.9553H0V30.8179H3.86882C3.41739 31.9573 3.15552 33.182 3.15552 34.5078C3.15552 35.1013 3.21054 35.6907 3.32101 36.2661H0V37.1287H3.53167C4.26608 39.5894 6.0802 41.6838 9.01147 42.5772H0V43.4397H14.4881ZM44.983 42.5772V42.2768C44.983 42.1258 44.832 42 44.6306 42C44.379 42 44.228 42.1258 44.228 42.2768V42.5772H15.4919C15.5246 42.5314 15.5934 42.5027 15.7186 42.4504C15.7474 42.4384 15.7792 42.4251 15.8143 42.4101C18.1405 41.4888 19.75 39.619 20.0064 37.1287H98.6401V42.5772H44.983ZM44.228 43.4397V45.5485C44.2028 45.8001 44.1273 46.1273 43.9008 46.2783C43.5988 46.4545 42.7431 46.8068 42.3153 46.9075C42.0888 46.9075 42.0133 46.6055 42.0133 46.4041V43.4397H44.228ZM5.2396 37.1287C5.70358 40.1193 8.41656 42.1332 12.4168 42.1332C12.9201 42.1332 13.4235 42.0829 13.8261 42.0074L13.8453 42.0036C14.2045 41.9318 14.2279 41.9271 14.1784 41.6551L13.419 37.1287H9.91005C10.002 38.1976 10.7255 39.1686 11.7121 39.5914L11.741 39.6037C11.9096 39.6754 12.0896 39.752 12.0896 39.9186C12.0896 40.0696 11.989 40.1954 11.7876 40.1954C11.6115 40.1954 11.3095 40.1199 11.1081 40.0444C9.81529 39.6071 8.82407 38.581 8.41661 37.1287H5.2396ZM5.16924 36.2661H8.25064C8.22644 36.0479 8.21399 35.8224 8.21399 35.59C8.21399 33.5478 9.52133 31.6433 11.5667 30.8179H7.11999C5.38844 32.9807 5.16884 34.8069 5.16884 36.1939C5.16884 36.2181 5.16897 36.2421 5.16924 36.2661ZM7.87388 29.9553H12.2163L11.7121 26.8823C11.6618 26.6055 11.6115 26.5803 11.3598 26.7817L11.3238 26.8108C10.2504 27.6786 9.19457 28.5322 7.87388 29.9553ZM9.96751 36.2661C10.2134 35.1484 11.1165 34.3165 12.4168 33.9541C12.8195 33.8535 12.8698 33.8786 12.9201 34.1555L13.2743 36.2661H9.96751ZM14.497 37.1287L15.2103 41.2776C15.2606 41.5796 15.3109 41.5796 15.6129 41.4286C17.0223 40.7239 17.9786 39.4404 17.9786 37.8549C17.9786 37.606 17.9573 37.3634 17.9166 37.1287H14.497ZM17.6677 36.2661H14.3487L13.9771 34.1051C13.9268 33.8031 13.9519 33.7276 14.2539 33.7528C15.7691 33.8837 17.0895 34.8627 17.6677 36.2661ZM20.0404 36.2661C19.9844 33.8835 18.633 31.7308 16.4088 30.8179H98.6401V36.2661H20.0404ZM13.2562 29.9553L13.2473 29.9023L12.6181 26.2532C12.5711 25.9709 12.612 25.9305 12.7408 25.8031L12.7691 25.775C13.2033 25.369 13.6208 24.9463 14.0158 24.5068H98.6401V29.9553H13.2562ZM14.7439 23.6443H98.6401V18.1958H17.3596C16.9712 20.2163 16.0173 22.0325 14.7439 23.6443ZM15.4822 18.1958C14.6026 19.5894 13.2885 20.7987 12.1148 21.8239C11.9386 21.9749 11.838 21.9497 11.7876 21.6225C11.687 20.9682 11.6366 20.1126 11.6366 19.3072C11.6366 18.9219 11.6541 18.5512 11.687 18.1958H15.4822ZM15.9553 17.3333H11.8016C12.2821 14.5874 13.7259 12.9653 14.9838 12.9653C15.8143 12.9653 16.4938 13.6448 16.4938 15.0289C16.4938 15.8418 16.2913 16.6099 15.9553 17.3333ZM242.82 42.5772H245.057C244.681 42.1872 244.456 41.6653 244.456 41.0358C244.456 39.4952 245.459 38.0057 246.982 37.1287H241.943L241.927 37.1349C241.725 37.2104 241.6 37.6886 241.6 37.8647V40.2052C241.6 40.5072 241.776 40.6582 241.927 40.6582L242.581 40.4066C242.632 40.3814 242.657 40.3814 242.707 40.3814C242.808 40.3814 242.883 40.4569 242.883 40.5827V42.3695C242.883 42.4341 242.86 42.5079 242.82 42.5772ZM293.077 42.5772H249.926C251.481 41.6956 252.736 40.1983 252.736 38.6701C252.736 38.0513 252.517 37.5247 252.136 37.1287H293.077V42.5772ZM236.622 37.1287C236.619 37.148 236.617 37.167 236.617 37.1852V38.9721C236.617 39.1231 236.692 39.1986 236.818 39.1986C236.919 39.1986 237.397 38.9721 237.472 38.9217C237.48 38.9217 237.487 38.9197 237.494 38.9167C237.499 38.9145 237.505 38.9118 237.51 38.9092C237.523 38.9029 237.535 38.8966 237.548 38.8966C237.724 38.8966 237.875 39.1482 237.875 39.3496V41.841C237.875 42.1179 237.749 42.3444 237.598 42.4199C237.523 42.445 237.353 42.5142 237.202 42.5772H195.916V37.1287H236.622ZM242.883 36.2661V34.6686C242.883 34.5428 242.808 34.4673 242.707 34.4673C242.657 34.4673 242.632 34.4673 242.581 34.4924C242.581 34.4924 242.078 34.6938 241.952 34.7189C241.776 34.7189 241.6 34.5931 241.6 34.3918V31.3214C241.6 31.1705 241.449 31.0446 241.247 31.0446C240.996 31.0446 240.845 31.1705 240.845 31.3214V34.5931C240.82 34.8448 240.744 35.1719 240.518 35.3229C240.216 35.4991 239.36 35.8514 238.932 35.9521C238.706 35.9521 238.63 35.6501 238.63 35.4488V32.4288C238.63 32.2778 238.454 32.1519 238.278 32.1519C238.026 32.1519 237.875 32.2778 237.875 32.4288V35.8263C237.875 36.0006 237.838 36.1502 237.782 36.2661H195.916V30.8179H293.077V36.2661H242.883ZM195.571 42.5772H155.132C155.196 42.3292 155.23 42.0777 155.23 41.8254C155.23 40.4161 154.097 39.4849 152.487 39.4849C150.119 39.4849 148.111 40.8463 147.316 42.5772H145.193C145.318 42.2202 145.374 41.8836 145.374 41.5739C145.374 40.1394 144.266 39.2334 143.109 39.1579C142.681 39.1579 142.077 39.3593 141.725 39.5858C141.574 39.7116 141.297 39.9381 141.171 39.9381C141.121 39.9381 141.095 39.9381 141.045 39.9129C140.869 39.8374 140.768 39.6613 140.768 39.4851C140.778 39.2775 140.805 38.2982 140.835 37.1287H195.571V42.5772ZM140.808 43.4397C140.829 44.2575 140.869 45.0469 140.869 45.0469C140.869 45.1727 140.919 45.4244 141.146 45.4244C141.221 45.4244 141.297 45.3992 141.397 45.3489C142.075 44.9234 142.782 44.2313 143.216 43.4397H140.808ZM143.559 42.5772H140.793L140.793 42.5303C140.793 42.1276 140.819 41.8256 140.844 41.7249C141.02 41.2216 142.027 40.4918 142.605 40.4918C143.335 40.4918 143.637 41.3223 143.637 41.9514C143.637 42.1608 143.61 42.3702 143.559 42.5772ZM139.727 37.1287C139.747 38.8536 139.772 40.8293 139.805 42.5772H98.9851V37.1287H139.727ZM140.857 36.2661C140.901 34.5142 140.944 32.6576 140.944 32.3882C140.944 32.1113 140.718 31.9603 140.466 31.9603C140.114 31.9603 139.711 32.212 139.686 32.665C139.686 32.665 139.697 34.1954 139.718 36.2661H98.9851V30.8179H195.571V36.2661H140.857ZM487.261 18.1958H491.339V23.6443H487.261V18.1958ZM487.261 24.5068H491.339V29.9553H487.261V24.5068ZM487.261 30.8179H491.339V36.2661H487.261V30.8179ZM487.261 37.1287H491.339V42.5772H487.261V37.1287ZM486.915 42.5772V37.1287H390.341V42.5772H486.915ZM486.915 36.2661V30.8179H446.134C445.194 32.539 442.934 33.9097 441.017 33.9097C439.507 33.9097 438.299 33.0289 438.299 31.5692C438.299 31.3166 438.326 31.0653 438.378 30.8179H436.122C435.652 31.5726 434.879 32.3853 433.702 33.2049C433.439 33.3835 433.181 33.6058 432.915 33.8354C432.542 34.1561 432.154 34.4908 431.714 34.7401C431.714 34.7401 431.638 34.7904 431.563 34.7904C431.487 34.7904 431.412 34.7653 431.336 34.6646C431.27 34.5814 431.214 32.9565 431.17 30.8179H390.341V36.2661H486.915ZM486.915 29.9553H446.481C446.545 29.7073 446.579 29.4559 446.579 29.2036C446.579 27.7943 445.447 26.8631 443.836 26.8631C441.469 26.8631 439.46 28.2245 438.665 29.9553H436.541C436.666 29.5983 436.722 29.2615 436.722 28.9518C436.722 27.5173 435.615 26.6113 434.457 26.5358C434.029 26.5358 433.425 26.7371 433.073 26.9636C432.922 27.0895 432.645 27.316 432.519 27.316C432.469 27.316 432.444 27.316 432.393 27.2908C432.217 27.2153 432.116 27.0391 432.116 26.863C432.126 26.6554 432.153 25.6762 432.183 24.5068H486.915V29.9553ZM432.156 30.8179C432.178 31.6356 432.217 32.4248 432.217 32.4248C432.217 32.5506 432.267 32.8023 432.494 32.8023C432.569 32.8023 432.645 32.7771 432.746 32.7268C433.423 32.3013 434.13 31.6094 434.565 30.8179H432.156ZM434.907 29.9553H432.142L432.142 29.9081C432.142 29.5055 432.167 29.2035 432.192 29.1028C432.368 28.5995 433.375 27.8696 433.954 27.8696C434.683 27.8696 434.985 28.7001 434.985 29.3293C434.985 29.5388 434.958 29.7483 434.907 29.9553ZM431.076 24.5068C431.095 26.2318 431.121 28.2075 431.153 29.9553H390.341V24.5068H431.076ZM432.205 23.6443C432.249 21.8923 432.293 20.0355 432.293 19.766C432.293 19.4892 432.066 19.3382 431.814 19.3382C431.462 19.3382 431.059 19.5899 431.034 20.0429C431.034 20.0429 431.045 21.5734 431.066 23.6443H390.341V18.1958H486.915V23.6443H432.205ZM293.422 18.1958H389.996V23.6443H335.358C335.366 23.2715 335.371 23.0104 335.371 22.9216C335.371 22.6448 335.145 22.4938 334.893 22.4938C334.54 22.4938 334.138 22.7454 334.113 23.1984L334.116 23.6443H293.422V18.1958ZM334.123 24.5068H293.422V29.9553H334.182C334.154 27.8383 334.134 25.7837 334.123 24.5068ZM335.339 24.5068C335.295 26.4044 335.219 29.3664 335.197 29.9553H336.459C336.797 29.8039 337.215 29.6914 337.535 29.6914C337.868 29.7131 338.197 29.8035 338.496 29.9553H389.996V24.5068H335.339ZM339.445 30.8179H343.902C342.379 31.695 341.377 33.1843 341.377 34.7248C341.377 35.3543 341.601 35.8761 341.978 36.2661H336.914C339.051 34.7384 339.8 33.2417 339.8 32.1074C339.8 31.6097 339.667 31.1757 339.445 30.8179ZM389.996 30.8179H349.057C349.438 31.2139 349.656 31.7404 349.656 32.3591C349.656 33.8872 348.402 35.3845 346.846 36.2661H389.996V30.8179ZM334.194 30.8179C334.224 32.8888 334.262 34.9269 334.308 36.2661H293.422V30.8179H334.194ZM334.344 37.1287H293.422V42.5772H389.996V37.1287H335.833C335.509 37.4053 335.169 37.6819 334.792 37.8957C334.792 37.8957 334.717 37.946 334.641 37.946C334.566 37.946 334.49 37.9208 334.415 37.8202C334.39 37.7889 334.366 37.5403 334.344 37.1287ZM293.077 29.9553V24.5068H195.916V29.9553H293.077ZM293.077 23.6443V18.1958H195.916V23.6443H293.077ZM195.571 24.5068V29.9553H98.9851V24.5068H195.571ZM195.571 18.1958V23.6443H98.9851V18.1958H195.571ZM47.6517 49.7505H50.0974C50.0455 49.998 50.0186 50.2494 50.0186 50.5021C50.0186 51.9618 51.2265 52.8426 52.7365 52.8426C54.6536 52.8426 56.9134 51.4718 57.8535 49.7505H61.4469V48.888H58.2001C58.2642 48.6401 58.2983 48.3887 58.2983 48.1364C58.2983 46.7271 57.1658 45.796 55.5552 45.796C53.188 45.796 51.1799 47.1573 50.3842 48.888H47.6517V49.7505ZM238.63 38.7456C238.58 38.9469 238.555 39.8277 238.555 40.6079C238.555 41.2119 238.58 41.7655 238.63 41.8662C238.655 41.9417 238.781 41.992 238.932 41.992C239.511 41.992 240.694 41.4887 240.845 40.9854C240.895 40.7589 240.945 40.0542 240.945 39.3747C240.945 38.6952 240.895 38.0661 240.845 37.9402C240.794 37.8396 240.643 37.7892 240.467 37.7892C239.838 37.7892 238.68 38.3177 238.63 38.7456ZM337.032 31.0252C336.453 31.0252 335.447 31.755 335.27 32.2584C335.245 32.359 335.22 32.661 335.22 33.0637C335.22 34.0704 335.296 35.5804 335.296 35.5804C335.296 35.7062 335.346 35.9579 335.572 35.9579C335.648 35.9579 335.723 35.9327 335.824 35.8824C336.906 35.2029 338.064 33.8439 338.064 32.4849C338.064 31.8557 337.762 31.0252 337.032 31.0252ZM42.0133 49.701C41.963 49.9023 41.9378 50.7831 41.9378 51.5633C41.9378 52.1673 41.963 52.7209 42.0133 52.8216C42.0385 52.8971 42.1643 52.9474 42.3153 52.9474C42.8941 52.9474 44.077 52.4441 44.228 51.9408C44.2783 51.7143 44.3286 51.0096 44.3286 50.3301C44.3286 49.6506 44.2783 49.0215 44.228 48.8956C44.1776 48.795 44.0266 48.7446 43.8505 48.7446C43.2213 48.7446 42.0637 49.2731 42.0133 49.701Z" fill="black"/>
</svg>
