<svg width="493" height="54" viewBox="0 0 493 54" fill="none" xmlns="http://www.w3.org/2000/svg">
<path fill-rule="evenodd" clip-rule="evenodd" d="M52.2034 5.53516H52.4763V8.55029H52.2034C52.1272 8.20752 51.9897 7.90495 51.7908 7.64258C51.0333 8.4974 50.0663 8.9248 48.8899 8.9248C47.6458 8.9248 46.628 8.53125 45.8367 7.74414C45.0496 6.95703 44.656 5.91602 44.656 4.62109C44.656 3.77051 44.838 2.9707 45.2019 2.22168C45.5658 1.46842 46.0737 0.909831 46.7253 0.545898C47.377 0.181966 48.0922 0 48.8708 0C49.5141 0 50.0959 0.133301 50.6165 0.399902C51.1412 0.662272 51.5326 0.954264 51.7908 1.27588C51.9727 0.916178 52.0828 0.543783 52.1208 0.158691H52.4001L52.4763 3.42139H52.2034C52.0129 2.26188 51.6236 1.45573 51.0354 1.00293C50.4514 0.55013 49.7913 0.32373 49.0549 0.32373C48.1536 0.32373 47.4363 0.689779 46.9031 1.42188C46.3741 2.15397 46.1096 3.20133 46.1096 4.56396C46.1096 5.85465 46.3995 6.84489 46.9792 7.53467C47.559 8.22021 48.2805 8.56299 49.1438 8.56299C49.6051 8.56299 50.0769 8.45085 50.5593 8.22656C51.0417 8.00228 51.4226 7.62354 51.7019 7.09033C51.9854 6.5529 52.1526 6.03451 52.2034 5.53516ZM56.8181 0.241211H57.0974V6.98242C57.0974 7.53678 57.1038 7.8859 57.1165 8.02979C57.1334 8.17367 57.1947 8.28369 57.3005 8.35986C57.4063 8.43604 57.5946 8.47412 57.8655 8.47412H58.113V8.76611H55.2566V8.47412H55.4661C55.7708 8.47412 55.9675 8.4318 56.0564 8.34717C56.1495 8.2583 56.2024 8.15462 56.2151 8.03613C56.232 7.91341 56.2405 7.56217 56.2405 6.98242V2.46289C56.2405 1.8916 56.2341 1.54671 56.2214 1.42822C56.2087 1.3055 56.1537 1.19971 56.0564 1.11084C55.9633 1.01774 55.7665 0.971191 55.4661 0.971191H55.1931V0.679199C55.9252 0.666504 56.4669 0.520508 56.8181 0.241211ZM100.294 0.228516L101.71 0.158691C102.89 0.0994466 103.686 0.0698242 104.096 0.0698242C105.374 0.0698242 106.371 0.264486 107.086 0.653809C107.801 1.04313 108.332 1.5721 108.679 2.24072C109.031 2.90511 109.206 3.67318 109.206 4.54492C109.206 5.17546 109.111 5.75309 108.921 6.27783C108.73 6.79834 108.468 7.2321 108.134 7.5791C107.803 7.92188 107.418 8.18425 106.978 8.36621C106.542 8.54395 106.128 8.65609 105.734 8.70264C105.341 8.74495 104.786 8.76611 104.071 8.76611H100.256V8.47412H100.612C100.98 8.47412 101.234 8.42757 101.373 8.33447C101.517 8.24137 101.608 8.09749 101.646 7.90283C101.689 7.70394 101.71 7.24479 101.71 6.52539V2.37402C101.71 1.68848 101.689 1.24626 101.646 1.04736C101.608 0.844238 101.524 0.706706 101.392 0.634766C101.265 0.558594 100.984 0.520508 100.548 0.520508H100.294V0.228516ZM102.948 0.40625V6.15723C102.948 7.00781 102.962 7.55583 102.992 7.80127C103.026 8.04671 103.121 8.22021 103.278 8.32178C103.438 8.41911 103.775 8.46777 104.287 8.46777C105.036 8.46777 105.652 8.36621 106.134 8.16309C106.616 7.95573 107.018 7.5516 107.34 6.95068C107.666 6.34554 107.829 5.57536 107.829 4.64014C107.829 3.91227 107.734 3.2627 107.543 2.69141C107.357 2.12012 107.088 1.65674 106.737 1.30127C106.386 0.941569 105.997 0.698242 105.569 0.571289C105.142 0.440104 104.594 0.374512 103.925 0.374512C103.603 0.374512 103.278 0.385091 102.948 0.40625ZM113.364 0.241211H113.643V6.98242C113.643 7.53678 113.65 7.8859 113.662 8.02979C113.679 8.17367 113.741 8.28369 113.846 8.35986C113.952 8.43604 114.141 8.47412 114.411 8.47412H114.659V8.76611H111.802V8.47412H112.012C112.317 8.47412 112.513 8.4318 112.602 8.34717C112.695 8.2583 112.748 8.15462 112.761 8.03613C112.778 7.91341 112.786 7.56217 112.786 6.98242V2.46289C112.786 1.8916 112.78 1.54671 112.767 1.42822C112.755 1.3055 112.7 1.19971 112.602 1.11084C112.509 1.01774 112.312 0.971191 112.012 0.971191H111.739V0.679199C112.471 0.666504 113.013 0.520508 113.364 0.241211ZM166.715 6.0874H166.41C166.258 6.72217 166.048 7.22152 165.781 7.58545C165.519 7.94515 165.242 8.18425 164.95 8.30273C164.658 8.41699 164.286 8.47412 163.833 8.47412H163.192C162.616 8.47412 162.263 8.38525 162.132 8.20752C162 8.02555 161.935 7.42464 161.935 6.40479V4.36719H162.881C163.249 4.36719 163.509 4.39258 163.661 4.44336C163.818 4.48991 163.936 4.5957 164.017 4.76074C164.097 4.92155 164.137 5.24105 164.137 5.71924H164.436V2.77393H164.137C164.137 3.1971 164.11 3.48275 164.055 3.63086C164.004 3.77474 163.894 3.88265 163.725 3.95459C163.56 4.02653 163.268 4.0625 162.849 4.0625H161.935V0.450684H163.128C163.729 0.450684 164.165 0.484538 164.436 0.552246C164.707 0.615723 164.939 0.774414 165.134 1.02832C165.333 1.27799 165.5 1.70329 165.635 2.3042H165.934L165.731 0.158691H159.58V0.450684C159.995 0.450684 160.265 0.493001 160.392 0.577637C160.524 0.65804 160.606 0.801921 160.64 1.00928C160.678 1.21663 160.697 1.64827 160.697 2.3042V6.52539C160.697 7.24479 160.68 7.69336 160.646 7.87109C160.612 8.0446 160.532 8.18848 160.405 8.30273C160.282 8.41699 160.007 8.47412 159.58 8.47412H159.402V8.76611H166.531L166.715 6.0874ZM170.879 0.241211H170.599C170.248 0.520508 169.706 0.666504 168.974 0.679199V0.971191H169.247C169.548 0.971191 169.745 1.01774 169.838 1.11084C169.935 1.19971 169.99 1.3055 170.003 1.42822C170.015 1.54671 170.022 1.8916 170.022 2.46289V6.98242C170.022 7.56217 170.013 7.91341 169.996 8.03613C169.984 8.15462 169.931 8.2583 169.838 8.34717C169.749 8.4318 169.552 8.47412 169.247 8.47412H169.038V8.76611H171.894V8.47412H171.647C171.376 8.47412 171.188 8.43604 171.082 8.35986C170.976 8.28369 170.915 8.17367 170.898 8.02979C170.885 7.8859 170.879 7.53678 170.879 6.98242V0.241211ZM224.042 0.158691L224.112 2.3042H223.813C223.754 1.83447 223.621 1.44727 223.413 1.14258C223.21 0.833659 222.997 0.641113 222.772 0.564941C222.548 0.48877 222.169 0.450684 221.636 0.450684H219.954V4.10059H220.76C221.281 4.10059 221.625 4.01383 221.795 3.84033C221.968 3.6626 222.055 3.30924 222.055 2.78027H222.372V5.81445H222.055C222.055 5.44629 222.017 5.15641 221.941 4.94482C221.869 4.729 221.759 4.58301 221.611 4.50684C221.467 4.42643 221.183 4.38623 220.76 4.38623H219.954V6.52539C219.954 7.20247 219.971 7.64681 220.005 7.8584C220.038 8.06575 220.123 8.22021 220.259 8.32178C220.398 8.42334 220.665 8.47412 221.058 8.47412H221.35V8.76611H217.351V8.47412H217.618C217.986 8.47412 218.24 8.42757 218.38 8.33447C218.524 8.24137 218.615 8.09749 218.653 7.90283C218.695 7.70394 218.716 7.24479 218.716 6.52539V2.3042C218.716 1.61865 218.695 1.17643 218.653 0.977539C218.615 0.778646 218.53 0.641113 218.399 0.564941C218.272 0.48877 217.99 0.450684 217.554 0.450684H217.402V0.158691H224.042ZM227.66 0.241211H227.939V6.98242C227.939 7.53678 227.946 7.8859 227.958 8.02979C227.975 8.17367 228.037 8.28369 228.142 8.35986C228.248 8.43604 228.436 8.47412 228.707 8.47412H228.955V8.76611H226.098V8.47412H226.308C226.613 8.47412 226.809 8.4318 226.898 8.34717C226.991 8.2583 227.044 8.15462 227.057 8.03613C227.074 7.91341 227.082 7.56217 227.082 6.98242V2.46289C227.082 1.8916 227.076 1.54671 227.063 1.42822C227.051 1.3055 226.996 1.19971 226.898 1.11084C226.805 1.01774 226.608 0.971191 226.308 0.971191H226.035V0.679199C226.767 0.666504 227.309 0.520508 227.66 0.241211ZM283.701 5.09082H279.988V5.39551H280.191C280.53 5.39551 280.762 5.42301 280.889 5.47803C281.016 5.52881 281.109 5.63249 281.169 5.78906C281.232 5.94141 281.264 6.24821 281.264 6.70947C281.264 7.10303 281.198 7.42887 281.067 7.68701C280.936 7.94515 280.69 8.1652 280.331 8.34717C279.971 8.5249 279.571 8.61377 279.131 8.61377C278.272 8.61377 277.553 8.29639 276.973 7.66162C276.393 7.02262 276.103 5.93929 276.103 4.41162C276.103 2.87972 276.404 1.81331 277.005 1.2124C277.606 0.611491 278.31 0.311035 279.118 0.311035C279.901 0.311035 280.566 0.569173 281.112 1.08545C281.662 1.60173 281.998 2.30208 282.121 3.18652H282.426V0.311035H282.121C282.083 0.653809 281.994 0.973307 281.854 1.26953C281.101 0.423177 280.149 0 278.998 0C277.661 0 276.603 0.463379 275.824 1.39014C275.045 2.31689 274.656 3.396 274.656 4.62744C274.656 5.87158 275.064 6.8999 275.881 7.7124C276.698 8.52067 277.722 8.9248 278.953 8.9248C279.567 8.9248 280.233 8.78939 280.953 8.51855C281.482 8.31966 281.909 8.22021 282.235 8.22021C282.315 8.22021 282.406 8.22868 282.508 8.24561V7.33154C282.508 6.59098 282.531 6.12549 282.578 5.93506C282.624 5.7404 282.72 5.60286 282.864 5.52246C283.012 5.43783 283.291 5.39551 283.701 5.39551V5.09082ZM287.783 0.241211H287.504C287.152 0.520508 286.611 0.666504 285.879 0.679199V0.971191H286.152C286.452 0.971191 286.649 1.01774 286.742 1.11084C286.839 1.19971 286.894 1.3055 286.907 1.42822C286.92 1.54671 286.926 1.8916 286.926 2.46289V6.98242C286.926 7.56217 286.918 7.91341 286.901 8.03613C286.888 8.15462 286.835 8.2583 286.742 8.34717C286.653 8.4318 286.456 8.47412 286.152 8.47412H285.942V8.76611H288.799V8.47412H288.551C288.28 8.47412 288.092 8.43604 287.986 8.35986C287.88 8.28369 287.819 8.17367 287.802 8.02979C287.789 7.8859 287.783 7.53678 287.783 6.98242V0.241211ZM336.601 5.59229H333.332L333.11 6.13818C332.78 6.92952 332.615 7.4458 332.615 7.68701C332.615 7.94515 332.701 8.14193 332.875 8.27734C333.052 8.40853 333.279 8.47412 333.554 8.47412V8.76611H330.996V8.47412C331.377 8.41488 331.66 8.28158 331.846 8.07422C332.033 7.86263 332.257 7.42041 332.519 6.74756C332.54 6.68408 332.642 6.43864 332.824 6.01123L335.325 0.0380859H335.573L338.448 6.87451L338.842 7.77588C338.93 7.979 339.049 8.13981 339.197 8.2583C339.349 8.37256 339.576 8.4445 339.876 8.47412V8.76611H336.493V8.47412C336.908 8.47412 337.187 8.4445 337.331 8.38525C337.479 8.32178 337.553 8.19906 337.553 8.01709C337.553 7.92399 337.456 7.64681 337.261 7.18555L336.601 5.59229ZM336.493 5.30664L334.969 1.6377L333.452 5.30664H336.493ZM343.285 0.241211H343.564V6.98242C343.564 7.53678 343.571 7.8859 343.583 8.02979C343.6 8.17367 343.662 8.28369 343.767 8.35986C343.873 8.43604 344.061 8.47412 344.332 8.47412H344.58V8.76611H341.723V8.47412H341.933C342.238 8.47412 342.434 8.4318 342.523 8.34717C342.616 8.2583 342.669 8.15462 342.682 8.03613C342.699 7.91341 342.707 7.56217 342.707 6.98242V2.46289C342.707 1.8916 342.701 1.54671 342.688 1.42822C342.676 1.3055 342.621 1.19971 342.523 1.11084C342.43 1.01774 342.233 0.971191 341.933 0.971191H341.66V0.679199C342.392 0.666504 342.934 0.520508 343.285 0.241211ZM396.693 4.8623C396.219 4.44759 395.493 4.20426 394.515 4.13232C395.328 4.01383 395.935 3.78532 396.337 3.44678C396.743 3.10824 396.947 2.65967 396.947 2.10107C396.947 0.746908 395.77 0.0698242 393.417 0.0698242L391.805 0.120605L390.389 0.158691V0.450684H390.554C390.99 0.450684 391.272 0.48877 391.399 0.564941C391.53 0.641113 391.615 0.780762 391.653 0.983887C391.695 1.18701 391.716 1.6377 391.716 2.33594V6.52539C391.716 7.24479 391.697 7.70394 391.659 7.90283C391.621 8.09749 391.53 8.24137 391.386 8.33447C391.246 8.42757 390.992 8.47412 390.624 8.47412H390.294V8.76611H393.671C394.513 8.76611 395.184 8.70687 395.683 8.58838C396.187 8.46566 396.6 8.20964 396.921 7.82031C397.243 7.42676 397.404 6.95915 397.404 6.41748C397.404 5.79541 397.167 5.27702 396.693 4.8623ZM393.227 4.01807C393.155 4.01807 393.066 4.01595 392.96 4.01172V0.399902C393.134 0.387207 393.303 0.380859 393.468 0.380859C394.103 0.380859 394.551 0.448568 394.814 0.583984C395.076 0.715169 395.273 0.903483 395.404 1.14893C395.535 1.39437 395.601 1.74137 395.601 2.18994C395.601 2.83317 395.434 3.29867 395.099 3.58643C394.765 3.87419 394.141 4.01807 393.227 4.01807ZM392.96 6.23975V4.32275C393.129 4.31429 393.29 4.31006 393.443 4.31006C394.407 4.31006 395.08 4.47933 395.461 4.81787C395.846 5.15218 396.039 5.6748 396.039 6.38574C396.039 7.07975 395.87 7.60026 395.531 7.94727C395.192 8.29427 394.685 8.46777 394.008 8.46777C393.627 8.46777 393.371 8.41064 393.24 8.29639C393.113 8.18213 393.034 8.01497 393.005 7.79492C392.975 7.57487 392.96 7.05648 392.96 6.23975ZM401.752 0.241211H401.472C401.121 0.520508 400.579 0.666504 399.847 0.679199V0.971191H400.12C400.421 0.971191 400.618 1.01774 400.711 1.11084C400.808 1.19971 400.863 1.3055 400.876 1.42822C400.888 1.54671 400.895 1.8916 400.895 2.46289V6.98242C400.895 7.56217 400.886 7.91341 400.869 8.03613C400.857 8.15462 400.804 8.2583 400.711 8.34717C400.622 8.4318 400.425 8.47412 400.12 8.47412H399.911V8.76611H402.767V8.47412H402.52C402.249 8.47412 402.061 8.43604 401.955 8.35986C401.849 8.28369 401.788 8.17367 401.771 8.02979C401.758 7.8859 401.752 7.53678 401.752 6.98242V0.241211ZM455.203 5.53516H455.476V8.55029H455.203C455.127 8.20752 454.99 7.90495 454.791 7.64258C454.033 8.4974 453.066 8.9248 451.89 8.9248C450.646 8.9248 449.628 8.53125 448.837 7.74414C448.05 6.95703 447.656 5.91602 447.656 4.62109C447.656 3.77051 447.838 2.9707 448.202 2.22168C448.566 1.46842 449.074 0.909831 449.725 0.545898C450.377 0.181966 451.092 0 451.871 0C452.514 0 453.096 0.133301 453.616 0.399902C454.141 0.662272 454.533 0.954264 454.791 1.27588C454.973 0.916178 455.083 0.543783 455.121 0.158691H455.4L455.476 3.42139H455.203C455.013 2.26188 454.624 1.45573 454.035 1.00293C453.451 0.55013 452.791 0.32373 452.055 0.32373C451.154 0.32373 450.436 0.689779 449.903 1.42188C449.374 2.15397 449.11 3.20133 449.11 4.56396C449.11 5.85465 449.4 6.84489 449.979 7.53467C450.559 8.22021 451.281 8.56299 452.144 8.56299C452.605 8.56299 453.077 8.45085 453.559 8.22656C454.042 8.00228 454.423 7.62354 454.702 7.09033C454.985 6.5529 455.153 6.03451 455.203 5.53516ZM457.076 8.76611V8.37256C457.558 7.99593 458.168 7.40137 458.904 6.58887C459.645 5.77214 460.178 5.06755 460.504 4.4751C460.829 3.88265 460.992 3.28385 460.992 2.67871C460.992 1.95508 460.827 1.42399 460.497 1.08545C460.167 0.742676 459.757 0.571289 459.266 0.571289C458.783 0.571289 458.409 0.727865 458.142 1.04102C457.88 1.35417 457.749 1.68848 457.749 2.04395C457.749 2.4502 457.92 2.77181 458.263 3.00879C458.39 3.09766 458.453 3.16536 458.453 3.21191C458.453 3.28809 458.381 3.39176 458.238 3.52295C458.094 3.65413 457.975 3.71973 457.882 3.71973C457.755 3.71973 457.601 3.59277 457.419 3.33887C457.241 3.08073 457.152 2.75065 457.152 2.34863C457.152 1.70117 457.404 1.18913 457.907 0.8125C458.411 0.431641 458.963 0.241211 459.564 0.241211C460.199 0.241211 460.77 0.437988 461.278 0.831543C461.79 1.2251 462.046 1.80908 462.046 2.5835C462.046 3.07015 461.932 3.53353 461.703 3.97363C461.475 4.40951 460.918 5.07812 460.034 5.97949C459.154 6.87663 458.445 7.5516 457.907 8.00439H461.945L461.583 9.42627H461.284C461.284 9.3501 461.297 9.27393 461.323 9.19775C461.335 9.15544 461.342 9.09831 461.342 9.02637C461.342 8.89941 461.314 8.82324 461.259 8.79785C461.204 8.77669 461.056 8.76611 460.815 8.76611H457.076ZM15.1096 48.535C15.1096 47.4268 14.7782 45.4349 14.4881 43.8013H0V42.9387H9.01067C6.07977 42.0452 4.2659 39.9508 3.5316 37.4902H0V36.6277H3.32096C3.21052 36.0523 3.15552 35.4631 3.15552 34.8696C3.15552 33.5438 3.41743 32.3189 3.86892 31.1794H0V30.3169H4.25369C5.28166 28.2456 6.91967 26.4645 8.68029 24.8684H0V24.0059H9.66112C9.98395 23.7295 10.3079 23.4585 10.63 23.1923C10.9181 22.9523 10.9084 22.8954 10.8632 22.6285L10.8565 22.5884C10.6842 21.5792 10.5119 19.9922 10.5044 18.5574H0.00012207V17.6948H10.5214C10.6316 15.2503 11.2867 12.5 12.9705 10.6343C13.4738 10.0806 14.2539 9.42627 14.6063 9.42627C14.8831 9.42627 15.5374 10.1309 15.9149 10.6846C16.9468 12.1946 17.5508 14.3589 17.5508 16.5484C17.5508 16.9372 17.5297 17.3194 17.4891 17.6948H81.8318V16.5483H82.1768V17.6948H139.701V16.5483H140.046V17.6948H197.57V16.5483H197.915V17.6948H255.441V16.5483H255.786V17.6948H313.306V16.5483H313.651V17.6948H371.179V16.5483H371.524V17.6948H429.052V16.5483H429.397V17.6948H486.915V16.5483H487.26V17.6948H491.339V16.5483H491.684V17.6948H492.141V18.5574H491.684V24.0059H492.141V24.8684H491.684V30.3169H492.141V31.1794H491.684V36.6277H492.141V37.4902H491.684V42.9387H492.141V43.8013H491.684V44.9478H491.339V43.8013H487.26V44.9478H486.915V43.8013H429.397V44.9478H429.052V43.8013H371.524V44.9478H371.179V43.8013H313.651V44.9478H313.306V43.8013H255.786V44.9478H255.441V43.8013H197.915V44.9478H197.57V43.8013H170.438C169.498 45.5225 167.238 46.8934 165.321 46.8934C163.811 46.8934 162.603 46.0125 162.603 44.5529C162.603 44.3001 162.63 44.0488 162.682 43.8013H140.046V44.9478H139.701V43.8013H112.413C112.795 44.1974 113.013 44.724 113.013 45.3428C113.013 47.7336 109.943 50.0489 107.451 50.0489C105.941 50.0489 104.733 49.1681 104.733 47.7085C104.733 46.1678 105.736 44.6783 107.259 43.8013H82.1768V44.9478H81.8318V43.8013H15.5945C15.8672 45.3262 16.2169 47.3249 16.2169 48.5854C16.2169 52.8637 12.9453 53.6187 11.2591 53.6187C7.45899 53.6187 6.4775 51.1523 6.4775 49.5165C6.4775 47.9562 7.48416 46.6224 9.17031 46.6224C10.7055 46.6224 11.5863 47.8052 11.5863 49.1894C11.5863 50.649 10.6803 51.3285 9.90014 51.555C9.32131 51.7312 9.09481 51.8067 9.09481 51.9828C9.09481 52.31 9.74914 52.7127 11.1081 52.7127C12.593 52.7127 15.1096 52.2597 15.1096 48.535ZM12.4168 42.4951C8.41645 42.4951 5.70343 40.481 5.23957 37.4902H8.41654C8.82396 38.9427 9.81522 39.9689 11.1081 40.4062C11.3095 40.4817 11.6115 40.5572 11.7876 40.5572C11.989 40.5572 12.0896 40.4314 12.0896 40.2804C12.0896 40.1138 11.9096 40.0372 11.741 39.9656L11.7121 39.9532C10.7254 39.5304 10.0019 38.5592 9.91003 37.4902H13.4189L14.1784 42.0169C14.2279 42.289 14.2045 42.2936 13.8453 42.3654L13.8261 42.3692C13.4235 42.4447 12.9201 42.4951 12.4168 42.4951ZM8.25061 36.6277H5.16924C5.16897 36.6038 5.16884 36.5798 5.16884 36.5558C5.16884 35.1687 5.38846 33.3424 7.12019 31.1794H11.5673C9.52158 32.0047 8.21399 33.9094 8.21399 35.9518C8.21399 36.1841 8.22643 36.4095 8.25061 36.6277ZM12.2163 30.3169H7.87411C9.19469 28.8939 10.2504 28.0404 11.3238 27.1726L11.3598 27.1435C11.6115 26.9422 11.6618 26.9673 11.7121 27.2442L12.2163 30.3169ZM12.4168 34.3159C11.1166 34.6783 10.2135 35.51 9.96757 36.6277H13.2742L12.9201 34.5173C12.8698 34.2404 12.8195 34.2153 12.4168 34.3159ZM15.2103 41.6394L14.4969 37.4902H17.9165C17.9573 37.7251 17.9786 37.9677 17.9786 38.2168C17.9786 39.8022 17.0223 41.0857 15.6129 41.7904C15.3109 41.9414 15.2606 41.9414 15.2103 41.6394ZM14.3486 36.6277H17.6676C17.0894 35.2244 15.769 34.2455 14.2539 34.1146C13.9519 34.0894 13.9268 34.1649 13.9771 34.4669L14.3486 36.6277ZM81.8318 37.4902H20.0064C19.7501 39.9807 18.1406 41.8506 15.8143 42.7719C15.7792 42.7869 15.7474 42.8002 15.7186 42.8122C15.5936 42.8644 15.5249 42.8931 15.4921 42.9387H81.8318V37.4902ZM16.4082 31.1794C18.6327 32.0922 19.9843 34.2449 20.0404 36.6277H81.8318V31.1794H16.4082ZM13.2473 30.2641L13.2561 30.3169H81.8318V24.8684H14.016C13.6209 25.3079 13.2034 25.7307 12.7691 26.1368L12.7408 26.1649C12.612 26.2923 12.5711 26.3327 12.6181 26.615L13.2473 30.2641ZM81.8318 24.0059H14.7441C16.0175 22.394 16.9713 20.5779 17.3597 18.5574H81.8318V24.0059ZM12.1148 22.1857C13.2886 21.1605 14.6028 19.951 15.4824 18.5574H11.687C11.6541 18.9128 11.6366 19.2836 11.6366 19.669C11.6366 20.4744 11.687 21.33 11.7876 21.9844C11.838 22.3115 11.9386 22.3367 12.1148 22.1857ZM11.8017 17.6948H15.9554C16.2914 16.9715 16.4938 16.2035 16.4938 15.3907C16.4938 14.0066 15.8143 13.3271 14.9838 13.3271C13.7259 13.3271 12.2822 14.9491 11.8017 17.6948ZM197.57 42.9387H170.784C170.848 42.6908 170.882 42.4394 170.882 42.1872C170.882 40.7779 169.75 39.8467 168.139 39.8467C165.772 39.8467 163.764 41.208 162.968 42.9387H140.046V37.4902H197.57V42.9387ZM487.26 18.5574H491.339V24.0059H487.26V18.5574ZM487.26 24.8684H491.339V30.3169H487.26V24.8684ZM487.26 31.1794H491.339V36.6277H487.26V31.1794ZM487.26 37.4902H491.339V42.9387H487.26V37.4902ZM486.915 42.9387V37.4902H429.397V42.9387H486.915ZM486.915 36.6277V31.1794H429.397V36.6277H486.915ZM486.915 30.3169V24.8684H459.632C460.014 25.2645 460.232 25.7911 460.232 26.4098C460.232 27.938 458.977 29.4353 457.422 30.3169H486.915ZM452.553 30.3169H429.397V24.8684H454.478C452.955 25.7455 451.952 27.2349 451.952 28.7755C451.952 29.405 452.177 29.9269 452.553 30.3169ZM486.915 24.0059V18.5574H429.397V24.0059H486.915ZM371.524 18.5574H429.052V24.0059H371.524V18.5574ZM371.524 24.8684H429.052V30.3169H402.262C402.327 30.069 402.361 29.8176 402.361 29.5654C402.361 28.1561 401.228 27.2249 399.618 27.2249C397.25 27.2249 395.242 28.5862 394.447 30.3169H371.524V24.8684ZM429.052 31.1794H401.916C400.976 32.9007 398.716 34.2715 396.799 34.2715C395.289 34.2715 394.081 33.3907 394.081 31.9311C394.081 31.6783 394.108 31.4269 394.16 31.1794H371.524V36.6277H429.052V31.1794ZM371.524 37.4902H429.052V42.9387H371.524V37.4902ZM371.179 42.9387V37.4902H313.651V42.9387H371.179ZM371.179 36.6277V31.1794H343.892C344.273 31.5755 344.491 32.1021 344.491 32.7209C344.491 34.2489 343.237 35.7461 341.682 36.6277H371.179ZM336.813 36.6277H313.651V31.1794H338.737C337.215 32.0565 336.212 33.546 336.212 35.0866C336.212 35.716 336.436 36.2377 336.813 36.6277ZM371.179 30.3169V24.8684H313.651V30.3169H371.179ZM371.179 24.0059V18.5574H313.651V24.0059H371.179ZM255.786 18.5574H313.306V24.0059H255.786V18.5574ZM255.786 24.8684H313.306V30.3169H255.786V24.8684ZM255.786 31.1794H313.306V36.6277H286.524C286.588 36.3798 286.622 36.1285 286.622 35.8764C286.622 34.467 285.49 33.5359 283.879 33.5359C281.512 33.5359 279.504 34.8971 278.708 36.6277H255.786V31.1794ZM313.306 37.4902H286.177C285.237 39.2116 282.977 40.5825 281.06 40.5825C279.55 40.5825 278.342 39.7017 278.342 38.242C278.342 37.9892 278.369 37.7378 278.421 37.4902H255.786V42.9387H313.306V37.4902ZM255.441 42.9387V37.4902H228.152C228.534 37.8863 228.752 38.4129 228.752 39.0317C228.752 40.5599 227.497 42.0571 225.942 42.9387H255.441ZM221.073 42.9387H197.915V37.4902H222.998C221.475 38.3673 220.472 39.8568 220.472 41.3974C220.472 42.0269 220.697 42.5488 221.073 42.9387ZM255.441 36.6277V31.1794H197.915V36.6277H255.441ZM255.441 30.3169V24.8684H197.915V30.3169H255.441ZM255.441 24.0059V18.5574H197.915V24.0059H255.441ZM140.046 18.5574H197.57V24.0059H140.046V18.5574ZM140.046 24.8684H197.57V30.3169H140.046V24.8684ZM140.046 31.1794H197.57V36.6277H140.046V31.1794ZM139.701 42.9387V37.4902H82.1768V42.9387H139.701ZM139.701 36.6277V31.1794H82.1768V36.6277H139.701ZM139.701 30.3169V24.8684H82.1768V30.3169H139.701ZM139.701 24.0059V18.5574H82.1768V24.0059H139.701ZM43.7075 50.1124H46.9419C46.89 50.3599 46.863 50.6112 46.863 50.8639C46.863 52.3236 48.071 53.2044 49.581 53.2044C51.4981 53.2044 53.7579 51.8336 54.698 50.1124H58.2915V49.2498H55.0446C55.1086 49.0019 55.1428 48.7505 55.1428 48.4983C55.1428 47.0889 54.0103 46.1578 52.3997 46.1578C50.0325 46.1578 48.0244 47.5191 47.2287 49.2498H43.7075V50.1124Z" fill="black"/>
</svg>
