<svg width="784" height="176" viewBox="0 0 784 176" fill="none" xmlns="http://www.w3.org/2000/svg">
<path d="M0 28.8213H781.097" stroke="black" stroke-width="0.862542" stroke-miterlimit="2"/>
<path d="M0 18.8076H781.097" stroke="black" stroke-width="0.862542" stroke-miterlimit="2"/>
<path d="M0 38.8418H781.097" stroke="black" stroke-width="0.862542" stroke-miterlimit="2"/>
<path d="M0 48.8535H781.097" stroke="black" stroke-width="0.862542" stroke-miterlimit="2"/>
<path d="M0 58.874H781.097" stroke="black" stroke-width="0.862542" stroke-miterlimit="2"/>
<path d="M40.3418 16.3057V61.3796" stroke="black" stroke-width="0.86" stroke-miterlimit="2"/>
<path d="M94.8535 16.3047V61.3786" stroke="black" stroke-width="0.86" stroke-miterlimit="2"/>
<path d="M155.524 16.3047V61.3786" stroke="black" stroke-width="0.86" stroke-miterlimit="2"/>
<path d="M210.036 16.3047V61.3786" stroke="black" stroke-width="0.86" stroke-miterlimit="2"/>
<path d="M269.803 16.3047V61.3786" stroke="black" stroke-width="0.86" stroke-miterlimit="2"/>
<path d="M324.316 16.3047V61.3786" stroke="black" stroke-width="0.86" stroke-miterlimit="2"/>
<path d="M378.828 16.3047V61.3786" stroke="black" stroke-width="0.86" stroke-miterlimit="2"/>
<path d="M439.508 16.3047V61.3786" stroke="black" stroke-width="0.86" stroke-miterlimit="2"/>
<path d="M494.02 16.3047V61.3786" stroke="black" stroke-width="0.86" stroke-miterlimit="2"/>
<path d="M553.785 16.3047V61.3786" stroke="black" stroke-width="0.86" stroke-miterlimit="2"/>
<path d="M608.298 16.3047V61.3786" stroke="black" stroke-width="0.86" stroke-miterlimit="2"/>
<path d="M668.065 16.3047V61.3786" stroke="black" stroke-width="0.86" stroke-miterlimit="2"/>
<path d="M722.578 16.3047V61.3786" stroke="black" stroke-width="0.86" stroke-miterlimit="2"/>
<path d="M778.593 16.3057V61.3796" stroke="black" stroke-width="0.862542" stroke-miterlimit="2"/>
<path d="M39.3424 28.8428V38.8408" stroke="black" stroke-width="0.0020701" stroke-miterlimit="2"/>
<path d="M57.6352 68.8926H80.7813" stroke="black" stroke-width="0.862542" stroke-miterlimit="2"/>
<path d="M119.581 68.8906H141.476" stroke="black" stroke-width="0.862542" stroke-miterlimit="2"/>
<path d="M39.3367 28.8624C39.3367 28.9069 39.3736 28.9338 39.4197 28.9338C39.4957 28.9338 39.5894 28.8632 39.5894 28.7902C39.5894 28.7472 39.5548 28.7188 39.5057 28.7188C39.412 28.7188 39.3367 28.7886 39.3367 28.8624Z" fill="black"/>
<path d="M62.6429 70.7711C62.6429 73.0877 64.5602 74.4857 66.9567 74.4857C70.9111 74.4857 75.7841 70.811 75.7841 67.0164C75.7841 64.7796 73.9867 63.3018 71.4303 63.3018C66.5573 63.3018 62.6429 66.9366 62.6429 70.7711Z" fill="black"/>
<path d="M111.215 67.8506C111.375 67.8506 112.134 67.4912 112.253 67.4113C112.293 67.4113 112.333 67.3713 112.373 67.3713C112.653 67.3713 112.892 67.7708 112.892 68.0903V72.0446C112.892 72.484 112.693 72.8435 112.453 72.9633C112.213 73.0432 111.375 73.4027 111.375 73.4027C111.095 73.4826 110.895 73.8021 110.895 74.0418V76.8777C110.895 77.1174 111.015 77.2372 111.215 77.2372C111.255 77.2372 111.335 77.1973 111.375 77.1973C111.375 77.1973 111.934 76.9576 112.293 76.8378C112.333 76.7978 112.373 76.7978 112.413 76.7978C112.693 76.7978 112.892 77.2372 112.892 77.4369V82.3499C112.892 82.5895 113.132 82.7892 113.412 82.7892C113.811 82.7892 114.091 82.5895 114.091 82.3499V76.7978C114.091 76.2786 114.29 75.999 114.49 75.9191L116.927 74.9205C116.967 74.9205 117.047 74.8806 117.086 74.8806C117.406 74.8806 117.606 75.3599 117.606 75.5995V80.5924C117.606 80.832 117.845 81.0318 118.125 81.0318C118.564 81.0318 118.804 80.832 118.804 80.5924V74.9205C118.804 74.601 118.964 74.1217 119.243 74.0018C119.523 73.882 120.362 73.5625 120.362 73.5625C120.641 73.4426 120.841 73.1231 120.841 72.8834V70.0475C120.841 69.8478 120.721 69.728 120.562 69.728C120.482 69.728 120.442 69.728 120.362 69.7679L119.323 70.1673C119.084 70.1673 118.804 69.9277 118.804 69.4484V65.7337C118.804 65.4541 119.004 64.6952 119.323 64.5753L120.362 64.1759C120.641 64.0561 120.841 63.7365 120.841 63.4969V60.6609C120.841 60.4612 120.721 60.3414 120.562 60.3414C120.482 60.3414 120.442 60.3414 120.362 60.3813C120.362 60.3813 119.563 60.7009 119.363 60.7408C119.084 60.7408 118.804 60.5411 118.804 60.2216V55.3486C118.804 55.1089 118.564 54.9092 118.245 54.9092C117.845 54.9092 117.606 55.1089 117.606 55.3486V60.5411C117.566 60.9405 117.446 61.4598 117.086 61.6995C116.607 61.9791 115.249 62.5383 114.57 62.698C114.211 62.698 114.091 62.2187 114.091 61.8992V57.106C114.091 56.8664 113.811 56.6667 113.532 56.6667C113.132 56.6667 112.892 56.8664 112.892 57.106V62.4983C112.892 63.0575 112.653 63.4569 112.413 63.5768C112.174 63.6966 111.375 64.0161 111.375 64.0161C111.095 64.096 110.895 64.4156 110.895 64.6552V67.4912C110.895 67.7308 111.015 67.8506 111.215 67.8506ZM113.971 70.0874C113.971 68.8492 114.011 67.4512 114.091 67.1317C114.171 66.4526 116.008 65.6138 117.007 65.6138C117.286 65.6138 117.526 65.6937 117.606 65.8535C117.686 66.0532 117.766 67.0518 117.766 68.1302C117.766 69.2087 117.686 70.3271 117.606 70.6866C117.366 71.4854 115.489 72.2843 114.57 72.2843C114.33 72.2843 114.131 72.2044 114.091 72.0846C114.011 71.9248 113.971 71.0461 113.971 70.0874Z" fill="black"/>
<path d="M123.337 70.7711C123.337 73.0877 125.255 74.4857 127.651 74.4857C131.605 74.4857 136.478 70.811 136.478 67.0164C136.478 64.7796 134.681 63.3018 132.125 63.3018C127.252 63.3018 123.337 66.9366 123.337 70.7711Z" fill="black"/>
<path d="M177.826 65.7574C177.826 68.0741 179.743 69.4721 182.139 69.4721C186.094 69.4721 190.967 65.7973 190.967 62.0028C190.967 59.766 189.169 58.2881 186.613 58.2881C181.74 58.2881 177.826 61.9229 177.826 65.7574Z" fill="black"/>
<path d="M226.542 65.666C226.662 65.8257 226.781 65.8657 226.901 65.8657C227.021 65.8657 227.141 65.7858 227.141 65.7858C228.339 65.1068 229.298 64.0283 230.296 63.3493C233.851 60.8728 235.09 58.4363 235.09 56.599C235.09 54.3222 233.332 52.8843 231.495 52.7645C230.816 52.7645 229.857 53.084 229.298 53.4435C229.058 53.6432 228.619 54.0027 228.419 54.0027C228.339 54.0027 228.299 54.0027 228.219 53.9627C227.94 53.8429 227.78 53.5633 227.78 53.2837C227.82 52.405 228.06 42.8187 228.06 42.0198C228.06 41.5805 227.7 41.3408 227.301 41.3408C226.741 41.3408 226.102 41.7402 226.062 42.4592C226.062 42.4592 226.222 65.2665 226.542 65.666ZM227.9 56.8386C228.179 56.0398 229.777 54.8814 230.696 54.8814C231.854 54.8814 232.333 56.1995 232.333 57.1981C232.333 59.355 230.496 61.5119 228.779 62.5904C228.619 62.6703 228.499 62.7102 228.379 62.7102C228.02 62.7102 227.94 62.3108 227.94 62.1111C227.94 62.1111 227.82 59.7145 227.82 58.1168C227.82 57.4777 227.86 56.9984 227.9 56.8386Z" fill="black"/>
<path d="M237.592 60.7525C237.592 63.0692 239.509 64.4672 241.906 64.4672C245.86 64.4672 250.733 60.7924 250.733 56.9979C250.733 54.7611 248.936 53.2832 246.38 53.2832C241.507 53.2832 237.592 56.918 237.592 60.7525Z" fill="black"/>
<path d="M292.105 60.7525C292.105 63.0692 294.022 64.4672 296.418 64.4672C300.373 64.4672 305.246 60.7924 305.246 56.9979C305.246 54.7611 303.448 53.2832 300.892 53.2832C296.019 53.2832 292.105 56.918 292.105 60.7525Z" fill="black"/>
<path d="M346.617 55.7437C346.617 58.0604 348.534 59.4584 350.931 59.4584C354.885 59.4584 359.758 55.7837 359.758 51.9891C359.758 49.7523 357.961 48.2744 355.404 48.2744C350.531 48.2744 346.617 51.9092 346.617 55.7437Z" fill="black"/>
<path d="M395.174 52.8301C395.334 52.8301 396.093 52.4706 396.213 52.3908C396.253 52.3908 396.292 52.3508 396.332 52.3508C396.612 52.3508 396.852 52.7502 396.852 53.0698V57.0241C396.852 57.4635 396.652 57.823 396.412 57.9428C396.173 58.0227 395.334 58.3822 395.334 58.3822C395.054 58.4621 394.855 58.7816 394.855 59.0213V61.8572C394.855 62.0969 394.974 62.2167 395.174 62.2167C395.214 62.2167 395.294 62.1767 395.334 62.1767C395.334 62.1767 395.893 61.9371 396.253 61.8173C396.292 61.7773 396.332 61.7773 396.372 61.7773C396.652 61.7773 396.852 62.2167 396.852 62.4164V67.3294C396.852 67.569 397.091 67.7687 397.371 67.7687C397.77 67.7687 398.05 67.569 398.05 67.3294V61.7773C398.05 61.2581 398.25 60.9785 398.449 60.8986L400.886 59.9C400.926 59.9 401.006 59.8601 401.046 59.8601C401.365 59.8601 401.565 60.3394 401.565 60.579V65.5719C401.565 65.8115 401.805 66.0113 402.084 66.0113C402.524 66.0113 402.763 65.8115 402.763 65.5719V59.9C402.763 59.5805 402.923 59.1012 403.203 58.9813C403.482 58.8615 404.321 58.542 404.321 58.542C404.601 58.4221 404.8 58.1026 404.8 57.8629V55.027C404.8 54.8273 404.68 54.7074 404.521 54.7074C404.441 54.7074 404.401 54.7074 404.321 54.7474L403.282 55.1468C403.043 55.1468 402.763 54.9072 402.763 54.4278V50.7132C402.763 50.4336 402.963 49.6747 403.282 49.5548L404.321 49.1554C404.601 49.0356 404.8 48.716 404.8 48.4764V45.6404C404.8 45.4407 404.68 45.3209 404.521 45.3209C404.441 45.3209 404.401 45.3209 404.321 45.3608C404.321 45.3608 403.522 45.6804 403.322 45.7203C403.043 45.7203 402.763 45.5206 402.763 45.2011V40.328C402.763 40.0884 402.524 39.8887 402.204 39.8887C401.805 39.8887 401.565 40.0884 401.565 40.328V45.5206C401.525 45.92 401.405 46.4393 401.046 46.6789C400.566 46.9585 399.208 47.5177 398.529 47.6775C398.17 47.6775 398.05 47.1982 398.05 46.8787V42.0855C398.05 41.8459 397.77 41.6462 397.491 41.6462C397.091 41.6462 396.852 41.8459 396.852 42.0855V47.4778C396.852 48.037 396.612 48.4364 396.372 48.5563C396.133 48.6761 395.334 48.9956 395.334 48.9956C395.054 49.0755 394.855 49.3951 394.855 49.6347V52.4706C394.855 52.7103 394.974 52.8301 395.174 52.8301ZM397.93 55.0669C397.93 53.8287 397.97 52.4307 398.05 52.1112C398.13 51.4321 399.967 50.5933 400.966 50.5933C401.245 50.5933 401.485 50.6732 401.565 50.833C401.645 51.0327 401.725 52.0313 401.725 53.1097C401.725 54.1882 401.645 55.3066 401.565 55.6661C401.325 56.4649 399.448 57.2638 398.529 57.2638C398.29 57.2638 398.09 57.1839 398.05 57.0641C397.97 56.9043 397.93 56.0256 397.93 55.0669Z" fill="black"/>
<path d="M407.296 55.7437C407.296 58.0604 409.214 59.4584 411.61 59.4584C415.565 59.4584 420.438 55.7837 420.438 51.9891C420.438 49.7523 418.64 48.2744 416.084 48.2744C411.211 48.2744 407.296 51.9092 407.296 55.7437Z" fill="black"/>
<path d="M461.809 50.7379C461.809 53.0545 463.726 54.4525 466.123 54.4525C470.077 54.4525 474.95 50.7778 474.95 46.9832C474.95 44.7464 473.153 43.2686 470.596 43.2686C465.723 43.2686 461.809 46.9033 461.809 50.7379Z" fill="black"/>
<path d="M510.526 50.6386C510.646 50.7984 510.765 50.8383 510.885 50.8383C511.005 50.8383 511.125 50.7585 511.125 50.7585C512.323 50.0794 513.282 49.001 514.28 48.3219C517.835 45.8455 519.073 43.409 519.073 41.5716C519.073 39.2949 517.316 37.8569 515.479 37.7371C514.8 37.7371 513.841 38.0567 513.282 38.4161C513.042 38.6159 512.603 38.9753 512.403 38.9753C512.323 38.9753 512.283 38.9753 512.203 38.9354C511.924 38.8156 511.764 38.536 511.764 38.2564C511.804 37.3776 512.044 27.7914 512.044 26.9925C512.044 26.5531 511.684 26.3135 511.285 26.3135C510.725 26.3135 510.086 26.7129 510.046 27.4319C510.046 27.4319 510.206 50.2392 510.526 50.6386ZM511.884 41.8113C512.163 41.0124 513.761 39.8541 514.68 39.8541C515.838 39.8541 516.317 41.1722 516.317 42.1708C516.317 44.3277 514.48 46.4846 512.763 47.563C512.603 47.6429 512.483 47.6829 512.363 47.6829C512.004 47.6829 511.924 47.2834 511.924 47.0837C511.924 47.0837 511.804 44.6872 511.804 43.0894C511.804 42.4504 511.844 41.971 511.884 41.8113Z" fill="black"/>
<path d="M521.576 45.7252C521.576 48.0418 523.494 49.4398 525.89 49.4398C529.845 49.4398 534.718 45.7651 534.718 41.9705C534.718 39.7337 532.92 38.2559 530.364 38.2559C525.491 38.2559 521.576 41.8907 521.576 45.7252Z" fill="black"/>
<path d="M576.087 45.7252C576.087 48.0418 578.004 49.4398 580.401 49.4398C584.355 49.4398 589.228 45.7651 589.228 41.9705C589.228 39.7337 587.431 38.2559 584.875 38.2559C580.002 38.2559 576.087 41.8907 576.087 45.7252Z" fill="black"/>
<path d="M624.803 45.6328C624.923 45.7925 625.043 45.8325 625.163 45.8325C625.283 45.8325 625.403 45.7526 625.403 45.7526C626.601 45.0736 627.559 43.9951 628.558 43.3161C632.113 40.8396 633.351 38.4031 633.351 36.5658C633.351 34.289 631.594 32.8511 629.756 32.7313C629.077 32.7313 628.119 33.0508 627.559 33.4103C627.32 33.61 626.88 33.9695 626.681 33.9695C626.601 33.9695 626.561 33.9695 626.481 33.9295C626.201 33.8097 626.042 33.5301 626.042 33.2505C626.082 32.3718 626.321 22.7855 626.321 21.9866C626.321 21.5473 625.962 21.3076 625.562 21.3076C625.003 21.3076 624.364 21.707 624.324 22.426C624.324 22.426 624.484 45.2333 624.803 45.6328ZM626.161 36.8054C626.441 36.0066 628.039 34.8482 628.957 34.8482C630.116 34.8482 630.595 36.1663 630.595 37.1649C630.595 39.3218 628.758 41.4787 627.04 42.5572C626.88 42.6371 626.761 42.677 626.641 42.677C626.281 42.677 626.201 42.2776 626.201 42.0779C626.201 42.0779 626.082 39.6813 626.082 38.0836C626.082 37.4445 626.122 36.9652 626.161 36.8054Z" fill="black"/>
<path d="M635.854 40.7183C635.854 43.035 637.771 44.433 640.168 44.433C644.122 44.433 648.995 40.7583 648.995 36.9637C648.995 34.7269 647.198 33.249 644.641 33.249C639.768 33.249 635.854 36.8838 635.854 40.7183Z" fill="black"/>
<path d="M690.366 40.7183C690.366 43.035 692.284 44.433 694.68 44.433C698.634 44.433 703.508 40.7583 703.508 36.9637C703.508 34.7269 701.71 33.249 699.154 33.249C694.281 33.249 690.366 36.8838 690.366 40.7183Z" fill="black"/>
<path d="M744.879 35.7115C744.879 38.0282 746.797 39.4262 749.193 39.4262C753.148 39.4262 758.021 35.7514 758.021 31.9569C758.021 29.7201 756.223 28.2422 753.667 28.2422C748.794 28.2422 744.879 31.877 744.879 35.7115Z" fill="black"/>
<path d="M19.5474 58.9228C20.4661 58.9228 21.5046 58.8429 22.3034 58.6831C22.7428 58.6032 22.8227 58.5633 22.9026 59.0426C23.3819 61.7188 23.981 65.1938 23.981 67.0711C23.981 72.9826 19.9868 73.7016 17.6301 73.7016C15.4732 73.7016 14.4347 73.0625 14.4347 72.5433C14.4347 72.2637 14.7942 72.1438 15.7129 71.8642C16.9511 71.5047 18.389 70.4263 18.389 68.1096C18.389 65.9128 16.991 64.0354 14.5545 64.0354C11.8784 64.0354 10.2807 66.1524 10.2807 68.6289C10.2807 71.2251 11.8384 75.1395 17.8698 75.1395C20.546 75.1395 25.7385 73.9413 25.7385 67.151C25.7385 64.8742 25.0195 61.0797 24.5802 58.6032C24.5003 58.1239 24.5402 58.1639 25.0994 57.9242C29.1337 56.3265 31.8098 52.9313 31.8098 48.4178C31.8098 43.3051 28.0552 38.7916 22.1836 38.7916C21.1451 38.7916 21.1451 38.7916 21.0253 38.0726L20.0267 32.2809C19.9468 31.8016 20.0267 31.7617 20.2664 31.522C24.5802 27.4878 27.8555 22.4151 27.8555 16.3038C27.8555 12.8288 26.8969 9.39371 25.2592 6.99714C24.6601 6.1184 23.6215 5 23.1822 5C22.623 5 21.3848 6.03851 20.5859 6.91726C17.6301 10.1926 16.6715 15.1854 16.6715 19.3395C16.6715 21.6561 16.9511 24.2524 17.2307 25.8901C17.3106 26.3694 17.3505 26.4493 16.8712 26.8487C11.1195 31.6019 5.00821 37.3137 5.00821 45.3822C5.00821 52.3322 9.7614 58.9228 19.5474 58.9228ZM8.20363 48.0583C8.20363 45.7017 8.60306 42.5462 11.9183 38.7916C14.3149 36.1154 16.1522 34.6376 18.0296 33.1197C18.429 32.8002 18.5089 32.8401 18.5888 33.2795L19.4276 38.3922C19.5474 39.1511 19.5474 39.1111 18.8284 39.3508C15.3134 40.5491 13.0367 43.7046 13.0367 47.0997C13.0367 50.6945 14.914 53.2509 17.6301 54.1696C17.9497 54.2894 18.429 54.4092 18.7086 54.4092C19.0281 54.4092 19.1879 54.2095 19.1879 53.9699C19.1879 53.6903 18.8684 53.5704 18.5888 53.4506C16.9112 52.7316 15.7129 51.0141 15.7129 49.1767C15.7129 46.9 17.2706 45.1824 19.7072 44.5034C20.3462 44.3436 20.4261 44.3836 20.506 44.823L22.5031 56.7259C22.583 57.1653 22.5431 57.1653 21.944 57.2851C21.3049 57.4049 20.506 57.4848 19.7072 57.4848C12.7172 57.4848 8.20363 53.6104 8.20363 48.0583ZM23.7813 11.1911C25.0994 11.1911 26.1779 12.2696 26.1779 14.4664C26.1779 18.9001 22.3833 22.4949 19.2278 25.251C18.9482 25.4907 18.7885 25.4507 18.7086 24.9315C18.5488 23.8929 18.4689 22.5349 18.4689 21.2567C18.4689 15.0256 21.3448 11.1911 23.7813 11.1911ZM22.623 44.1839C25.8583 44.4635 28.5345 47.1796 28.5345 50.6945C28.5345 53.2109 27.0167 55.248 24.7799 56.3664C24.3006 56.6061 24.2207 56.6061 24.1408 56.1268L22.1836 44.7431C22.1037 44.2638 22.1437 44.1439 22.623 44.1839Z" fill="black"/>
<path d="M0 125.529H781.097" stroke="black" stroke-width="0.862542" stroke-miterlimit="2"/>
<path d="M0 115.516H781.097" stroke="black" stroke-width="0.862542" stroke-miterlimit="2"/>
<path d="M0 135.55H781.097" stroke="black" stroke-width="0.862542" stroke-miterlimit="2"/>
<path d="M0 145.562H781.097" stroke="black" stroke-width="0.862542" stroke-miterlimit="2"/>
<path d="M0 155.582H781.097" stroke="black" stroke-width="0.862542" stroke-miterlimit="2"/>
<path d="M40.3431 113.012V158.086" stroke="black" stroke-width="0.86" stroke-miterlimit="2"/>
<path d="M105.566 113.012V158.086" stroke="black" stroke-width="0.86" stroke-miterlimit="2"/>
<path d="M164.598 113.012V158.086" stroke="black" stroke-width="0.86" stroke-miterlimit="2"/>
<path d="M228.909 113.012V158.086" stroke="black" stroke-width="0.86" stroke-miterlimit="2"/>
<path d="M287.965 113.012V158.086" stroke="black" stroke-width="0.86" stroke-miterlimit="2"/>
<path d="M347.022 113.012V158.086" stroke="black" stroke-width="0.86" stroke-miterlimit="2"/>
<path d="M412.243 113.012V158.086" stroke="black" stroke-width="0.86" stroke-miterlimit="2"/>
<path d="M471.3 113.012V158.086" stroke="black" stroke-width="0.86" stroke-miterlimit="2"/>
<path d="M535.609 113.012V158.086" stroke="black" stroke-width="0.86" stroke-miterlimit="2"/>
<path d="M594.667 113.012V158.086" stroke="black" stroke-width="0.86" stroke-miterlimit="2"/>
<path d="M658.978 113.012V158.086" stroke="black" stroke-width="0.86" stroke-miterlimit="2"/>
<path d="M718.033 113.012V158.086" stroke="black" stroke-width="0.86" stroke-miterlimit="2"/>
<path d="M779.796 112.276V158.88" stroke="black" stroke-width="3" stroke-miterlimit="2"/>
<path d="M39.3424 130.559V135.548" stroke="black" stroke-width="0.0020701" stroke-miterlimit="2"/>
<path d="M495.101 105.498H516.995" stroke="black" stroke-width="0.862542" stroke-miterlimit="2"/>
<path d="M552.904 105.498H576.051" stroke="black" stroke-width="0.862542" stroke-miterlimit="2"/>
<path d="M620.721 105.498H640.362" stroke="black" stroke-width="0.862542" stroke-miterlimit="2"/>
<path d="M676.271 105.498H699.418" stroke="black" stroke-width="0.862542" stroke-miterlimit="2"/>
<path d="M735.327 95.4834H758.474" stroke="black" stroke-width="0.862542" stroke-miterlimit="2"/>
<path d="M735.327 105.498H758.474" stroke="black" stroke-width="0.862542" stroke-miterlimit="2"/>
<path d="M39.3367 130.578C39.3367 130.623 39.3736 130.65 39.4197 130.65C39.4957 130.65 39.5894 130.579 39.5894 130.506C39.5894 130.463 39.5548 130.435 39.5057 130.435C39.412 130.435 39.3367 130.504 39.3367 130.578Z" fill="black"/>
<path d="M56.6889 129.5C56.8487 129.5 57.6076 129.141 57.7274 129.061C57.7674 129.061 57.8073 129.021 57.8472 129.021C58.1268 129.021 58.3665 129.42 58.3665 129.74V133.694C58.3665 134.133 58.1668 134.493 57.9271 134.613C57.6875 134.693 56.8487 135.052 56.8487 135.052C56.5691 135.132 56.3694 135.452 56.3694 135.691V138.527C56.3694 138.767 56.4892 138.887 56.6889 138.887C56.7288 138.887 56.8087 138.847 56.8487 138.847C56.8487 138.847 57.4079 138.607 57.7674 138.487C57.8073 138.447 57.8472 138.447 57.8872 138.447C58.1668 138.447 58.3665 138.887 58.3665 139.086V143.999C58.3665 144.239 58.6062 144.439 58.8857 144.439C59.2852 144.439 59.5648 144.239 59.5648 143.999V138.447C59.5648 137.928 59.7645 137.648 59.9642 137.569L62.4007 136.57C62.4407 136.57 62.5205 136.53 62.5605 136.53C62.88 136.53 63.0797 137.009 63.0797 137.249V142.242C63.0797 142.481 63.3194 142.681 63.599 142.681C64.0384 142.681 64.278 142.481 64.278 142.242V136.57C64.278 136.25 64.4378 135.771 64.7174 135.651C64.997 135.531 65.8358 135.212 65.8358 135.212C66.1154 135.092 66.3151 134.773 66.3151 134.533V131.697C66.3151 131.497 66.1953 131.377 66.0355 131.377C65.9556 131.377 65.9157 131.377 65.8358 131.417L64.7973 131.817C64.5576 131.817 64.278 131.577 64.278 131.098V127.383C64.278 127.103 64.4777 126.345 64.7973 126.225L65.8358 125.825C66.1154 125.705 66.3151 125.386 66.3151 125.146V122.31C66.3151 122.111 66.1953 121.991 66.0355 121.991C65.9556 121.991 65.9157 121.991 65.8358 122.031C65.8358 122.031 65.0369 122.35 64.8372 122.39C64.5576 122.39 64.278 122.191 64.278 121.871V116.998C64.278 116.758 64.0384 116.559 63.7188 116.559C63.3194 116.559 63.0797 116.758 63.0797 116.998V122.191C63.0398 122.59 62.92 123.109 62.5605 123.349C62.0812 123.628 60.7231 124.188 60.0441 124.347C59.6846 124.347 59.5648 123.868 59.5648 123.549V118.755C59.5648 118.516 59.2852 118.316 59.0056 118.316C58.6062 118.316 58.3665 118.516 58.3665 118.755V124.148C58.3665 124.707 58.1268 125.106 57.8872 125.226C57.6475 125.346 56.8487 125.666 56.8487 125.666C56.5691 125.745 56.3694 126.065 56.3694 126.305V129.141C56.3694 129.38 56.4892 129.5 56.6889 129.5ZM59.4449 131.737C59.4449 130.499 59.4849 129.101 59.5648 128.781C59.6447 128.102 61.482 127.263 62.4806 127.263C62.7602 127.263 62.9999 127.343 63.0797 127.503C63.1596 127.703 63.2395 128.701 63.2395 129.78C63.2395 130.858 63.1596 131.977 63.0797 132.336C62.8401 133.135 60.9628 133.934 60.0441 133.934C59.8044 133.934 59.6047 133.854 59.5648 133.734C59.4849 133.574 59.4449 132.695 59.4449 131.737Z" fill="black"/>
<path d="M68.8108 132.416C68.8108 134.732 70.728 136.13 73.1246 136.13C77.0789 136.13 81.9519 132.456 81.9519 128.661C81.9519 126.424 80.1545 124.946 77.5982 124.946C72.7252 124.946 68.8108 128.581 68.8108 132.416Z" fill="black"/>
<path d="M127.868 127.408C127.868 129.724 129.785 131.122 132.182 131.122C136.136 131.122 141.009 127.448 141.009 123.653C141.009 121.416 139.212 119.938 136.655 119.938C131.782 119.938 127.868 123.573 127.868 127.408Z" fill="black"/>
<path d="M181.104 127.316C181.224 127.476 181.344 127.516 181.463 127.516C181.583 127.516 181.703 127.436 181.703 127.436C182.901 126.757 183.86 125.679 184.858 125C188.413 122.523 189.652 120.087 189.652 118.249C189.652 115.973 187.894 114.535 186.057 114.415C185.378 114.415 184.419 114.734 183.86 115.094C183.62 115.294 183.181 115.653 182.981 115.653C182.901 115.653 182.861 115.653 182.781 115.613C182.502 115.493 182.342 115.214 182.342 114.934C182.382 114.055 182.622 104.469 182.622 103.67C182.622 103.231 182.262 102.991 181.863 102.991C181.304 102.991 180.665 103.391 180.625 104.11C180.625 104.11 180.784 126.917 181.104 127.316ZM182.462 118.489C182.742 117.69 184.339 116.532 185.258 116.532C186.416 116.532 186.896 117.85 186.896 118.848C186.896 121.005 185.058 123.162 183.341 124.241C183.181 124.321 183.061 124.361 182.941 124.361C182.582 124.361 182.502 123.961 182.502 123.761C182.502 123.761 182.382 121.365 182.382 119.767C182.382 119.128 182.422 118.649 182.462 118.489Z" fill="black"/>
<path d="M192.154 122.402C192.154 124.719 194.071 126.117 196.468 126.117C200.422 126.117 205.295 122.442 205.295 118.647C205.295 116.411 203.498 114.933 200.942 114.933C196.069 114.933 192.154 118.567 192.154 122.402Z" fill="black"/>
<path d="M251.211 122.402C251.211 124.719 253.128 126.117 255.525 126.117C259.479 126.117 264.352 122.442 264.352 118.647C264.352 116.411 262.555 114.933 259.998 114.933C255.125 114.933 251.211 118.567 251.211 122.402Z" fill="black"/>
<path d="M310.266 117.393C310.266 119.71 312.184 121.108 314.58 121.108C318.535 121.108 323.408 117.433 323.408 113.639C323.408 111.402 321.61 109.924 319.054 109.924C314.181 109.924 310.266 113.559 310.266 117.393Z" fill="black"/>
<path d="M363.368 114.475C363.527 114.475 364.286 114.115 364.406 114.035C364.446 114.035 364.486 113.995 364.526 113.995C364.806 113.995 365.045 114.395 365.045 114.714V118.669C365.045 119.108 364.845 119.468 364.606 119.587C364.366 119.667 363.527 120.027 363.527 120.027C363.248 120.107 363.048 120.426 363.048 120.666V123.502C363.048 123.741 363.168 123.861 363.368 123.861C363.408 123.861 363.487 123.821 363.527 123.821C363.527 123.821 364.087 123.582 364.446 123.462C364.486 123.422 364.526 123.422 364.566 123.422C364.845 123.422 365.045 123.861 365.045 124.061V128.974C365.045 129.214 365.285 129.413 365.564 129.413C365.964 129.413 366.243 129.214 366.243 128.974V123.422C366.243 122.903 366.443 122.623 366.643 122.543L369.079 121.545C369.119 121.545 369.199 121.505 369.239 121.505C369.559 121.505 369.758 121.984 369.758 122.224V127.216C369.758 127.456 369.998 127.656 370.278 127.656C370.717 127.656 370.957 127.456 370.957 127.216V121.545C370.957 121.225 371.117 120.746 371.396 120.626C371.676 120.506 372.515 120.186 372.515 120.186C372.794 120.067 372.994 119.747 372.994 119.507V116.672C372.994 116.472 372.874 116.352 372.714 116.352C372.634 116.352 372.594 116.352 372.515 116.392L371.476 116.791C371.236 116.791 370.957 116.552 370.957 116.072V112.358C370.957 112.078 371.156 111.319 371.476 111.199L372.515 110.8C372.794 110.68 372.994 110.361 372.994 110.121V107.285C372.994 107.085 372.874 106.965 372.714 106.965C372.634 106.965 372.594 106.965 372.515 107.005C372.515 107.005 371.716 107.325 371.516 107.365C371.236 107.365 370.957 107.165 370.957 106.846V101.973C370.957 101.733 370.717 101.533 370.398 101.533C369.998 101.533 369.758 101.733 369.758 101.973V107.165C369.719 107.565 369.599 108.084 369.239 108.323C368.76 108.603 367.402 109.162 366.723 109.322C366.363 109.322 366.243 108.843 366.243 108.523V103.73C366.243 103.49 365.964 103.291 365.684 103.291C365.285 103.291 365.045 103.49 365.045 103.73V109.122C365.045 109.682 364.806 110.081 364.566 110.201C364.326 110.321 363.527 110.64 363.527 110.64C363.248 110.72 363.048 111.04 363.048 111.279V114.115C363.048 114.355 363.168 114.475 363.368 114.475ZM366.124 116.711C366.124 115.473 366.164 114.075 366.243 113.756C366.323 113.077 368.161 112.238 369.159 112.238C369.439 112.238 369.679 112.318 369.758 112.478C369.838 112.677 369.918 113.676 369.918 114.754C369.918 115.833 369.838 116.951 369.758 117.311C369.519 118.109 367.641 118.908 366.723 118.908C366.483 118.908 366.283 118.828 366.243 118.709C366.164 118.549 366.124 117.67 366.124 116.711Z" fill="black"/>
<path d="M375.49 117.393C375.49 119.71 377.407 121.108 379.804 121.108C383.758 121.108 388.631 117.433 388.631 113.639C388.631 111.402 386.834 109.924 384.277 109.924C379.404 109.924 375.49 113.559 375.49 117.393Z" fill="black"/>
<path d="M434.545 112.382C434.545 114.699 436.462 116.097 438.859 116.097C442.813 116.097 447.686 112.422 447.686 108.628C447.686 106.391 445.889 104.913 443.332 104.913C438.459 104.913 434.545 108.548 434.545 112.382Z" fill="black"/>
<path d="M487.806 112.289C487.926 112.449 488.046 112.489 488.165 112.489C488.285 112.489 488.405 112.409 488.405 112.409C489.603 111.73 490.562 110.651 491.561 109.972C495.115 107.496 496.354 105.059 496.354 103.222C496.354 100.945 494.596 99.5073 492.759 99.3875C492.08 99.3875 491.121 99.707 490.562 100.067C490.322 100.266 489.883 100.626 489.683 100.626C489.603 100.626 489.563 100.626 489.484 100.586C489.204 100.466 489.044 100.186 489.044 99.9068C489.084 99.028 489.324 89.4417 489.324 88.6429C489.324 88.2035 488.964 87.9639 488.565 87.9639C488.006 87.9639 487.367 88.3633 487.327 89.0823C487.327 89.0823 487.486 111.89 487.806 112.289ZM489.164 103.462C489.444 102.663 491.041 101.504 491.96 101.504C493.118 101.504 493.598 102.823 493.598 103.821C493.598 105.978 491.76 108.135 490.043 109.213C489.883 109.293 489.763 109.333 489.643 109.333C489.284 109.333 489.204 108.934 489.204 108.734C489.204 108.734 489.084 106.338 489.084 104.74C489.084 104.101 489.124 103.621 489.164 103.462Z" fill="black"/>
<path d="M498.856 107.376C498.856 109.692 500.774 111.09 503.17 111.09C507.124 111.09 511.997 107.415 511.997 103.621C511.997 101.384 510.2 99.9062 507.644 99.9062C502.771 99.9062 498.856 103.541 498.856 107.376Z" fill="black"/>
<path d="M557.911 107.376C557.911 109.692 559.829 111.09 562.225 111.09C566.179 111.09 571.052 107.415 571.052 103.621C571.052 101.384 569.255 99.9062 566.699 99.9062C561.826 99.9062 557.911 103.541 557.911 107.376Z" fill="black"/>
<path d="M611.172 107.282C611.292 107.442 611.412 107.482 611.532 107.482C611.651 107.482 611.771 107.402 611.771 107.402C612.97 106.723 613.928 105.645 614.927 104.966C618.482 102.489 619.72 100.053 619.72 98.2152C619.72 95.9384 617.962 94.5005 616.125 94.3807C615.446 94.3807 614.487 94.7002 613.928 95.0597C613.689 95.2594 613.249 95.6189 613.049 95.6189C612.97 95.6189 612.93 95.6189 612.85 95.5789C612.57 95.4591 612.41 95.1795 612.41 94.8999C612.45 94.0212 612.69 84.4349 612.69 83.6361C612.69 83.1967 612.33 82.957 611.931 82.957C611.372 82.957 610.733 83.3565 610.693 84.0754C610.693 84.0754 610.853 106.883 611.172 107.282ZM612.53 98.4548C612.81 97.656 614.407 96.4976 615.326 96.4976C616.485 96.4976 616.964 97.8157 616.964 98.8143C616.964 100.971 615.126 103.128 613.409 104.207C613.249 104.286 613.129 104.326 613.009 104.326C612.65 104.326 612.57 103.927 612.57 103.727C612.57 103.727 612.45 101.331 612.45 99.733C612.45 99.0939 612.49 98.6146 612.53 98.4548Z" fill="black"/>
<path d="M622.223 102.368C622.223 104.684 624.14 106.082 626.536 106.082C630.491 106.082 635.364 102.408 635.364 98.6131C635.364 96.3763 633.566 94.8984 631.01 94.8984C626.137 94.8984 622.223 98.5332 622.223 102.368Z" fill="black"/>
<path d="M681.28 102.368C681.28 104.684 683.197 106.082 685.593 106.082C689.548 106.082 694.421 102.408 694.421 98.6131C694.421 96.3763 692.623 94.8984 690.067 94.8984C685.194 94.8984 681.28 98.5332 681.28 102.368Z" fill="black"/>
<path d="M740.335 97.3609C740.335 99.6776 742.252 101.076 744.649 101.076C748.603 101.076 753.476 97.4008 753.476 93.6063C753.476 91.3695 751.678 89.8916 749.122 89.8916C744.249 89.8916 740.335 93.5264 740.335 97.3609Z" fill="black"/>
<path d="M19.5474 155.632C20.4661 155.632 21.5046 155.552 22.3034 155.392C22.7428 155.312 22.8227 155.272 22.9026 155.752C23.3819 158.428 23.981 161.903 23.981 163.78C23.981 169.692 19.9868 170.411 17.6301 170.411C15.4732 170.411 14.4347 169.771 14.4347 169.252C14.4347 168.973 14.7942 168.853 15.7129 168.573C16.9511 168.214 18.389 167.135 18.389 164.819C18.389 162.622 16.991 160.744 14.5545 160.744C11.8784 160.744 10.2807 162.861 10.2807 165.338C10.2807 167.934 11.8384 171.849 17.8698 171.849C20.546 171.849 25.7385 170.65 25.7385 163.86C25.7385 161.583 25.0195 157.789 24.5802 155.312C24.5003 154.833 24.5402 154.873 25.0994 154.633C29.1337 153.035 31.8098 149.64 31.8098 145.127C31.8098 140.014 28.0552 135.501 22.1836 135.501C21.1451 135.501 21.1451 135.501 21.0253 134.782L20.0267 128.99C19.9468 128.511 20.0267 128.471 20.2664 128.231C24.5802 124.197 27.8555 119.124 27.8555 113.013C27.8555 109.538 26.8969 106.103 25.2592 103.706C24.6601 102.827 23.6215 101.709 23.1822 101.709C22.623 101.709 21.3848 102.747 20.5859 103.626C17.6301 106.902 16.6715 111.894 16.6715 116.048C16.6715 118.365 16.9511 120.961 17.2307 122.599C17.3106 123.078 17.3505 123.158 16.8712 123.558C11.1195 128.311 5.00821 134.023 5.00821 142.091C5.00821 149.041 9.7614 155.632 19.5474 155.632ZM8.20363 144.767C8.20363 142.411 8.60306 139.255 11.9183 135.501C14.3149 132.824 16.1522 131.347 18.0296 129.829C18.429 129.509 18.5089 129.549 18.5888 129.988L19.4276 135.101C19.5474 135.86 19.5474 135.82 18.8284 136.06C15.3134 137.258 13.0367 140.414 13.0367 143.809C13.0367 147.404 14.914 149.96 17.6301 150.879C17.9497 150.998 18.429 151.118 18.7086 151.118C19.0281 151.118 19.1879 150.918 19.1879 150.679C19.1879 150.399 18.8684 150.279 18.5888 150.16C16.9112 149.441 15.7129 147.723 15.7129 145.886C15.7129 143.609 17.2706 141.891 19.7072 141.212C20.3462 141.053 20.4261 141.093 20.506 141.532L22.5031 153.435C22.583 153.874 22.5431 153.874 21.944 153.994C21.3049 154.114 20.506 154.194 19.7072 154.194C12.7172 154.194 8.20363 150.319 8.20363 144.767ZM23.7813 107.9C25.0994 107.9 26.1779 108.979 26.1779 111.175C26.1779 115.609 22.3833 119.204 19.2278 121.96C18.9482 122.2 18.7885 122.16 18.7086 121.64C18.5488 120.602 18.4689 119.244 18.4689 117.966C18.4689 111.735 21.3448 107.9 23.7813 107.9ZM22.623 140.893C25.8583 141.172 28.5345 143.889 28.5345 147.404C28.5345 149.92 27.0167 151.957 24.7799 153.075C24.3006 153.315 24.2207 153.315 24.1408 152.836L22.1836 141.452C22.1037 140.973 22.1437 140.853 22.623 140.893Z" fill="black"/>
</svg>
