<svg width="784" height="71" viewBox="0 0 784 71" fill="none" xmlns="http://www.w3.org/2000/svg">
<path d="M0 23.8203H491.872" stroke="#F0F0F3" stroke-width="0.862542" stroke-miterlimit="2"/>
<path d="M0 13.8076H491.872" stroke="#F0F0F3" stroke-width="0.862542" stroke-miterlimit="2"/>
<path d="M0 33.8408H491.872" stroke="#F0F0F3" stroke-width="0.862542" stroke-miterlimit="2"/>
<path d="M0 43.8535H491.872" stroke="#F0F0F3" stroke-width="0.862542" stroke-miterlimit="2"/>
<path d="M0 53.874H491.872" stroke="#F0F0F3" stroke-width="0.862542" stroke-miterlimit="2"/>
<path d="M40.3411 11.3018V56.3757" stroke="#F0F0F3" stroke-width="0.86" stroke-miterlimit="2"/>
<path d="M96.2852 11.3018V56.3757" stroke="#F0F0F3" stroke-width="0.86" stroke-miterlimit="2"/>
<path d="M152.205 11.3018V56.3757" stroke="#F0F0F3" stroke-width="0.86" stroke-miterlimit="2"/>
<path d="M208.148 11.3018V56.3757" stroke="#F0F0F3" stroke-width="0.86" stroke-miterlimit="2"/>
<path d="M264.091 11.3018V56.3757" stroke="#F0F0F3" stroke-width="0.86" stroke-miterlimit="2"/>
<path d="M320.036 11.3018V56.3757" stroke="#F0F0F3" stroke-width="0.86" stroke-miterlimit="2"/>
<path d="M375.978 11.3018V56.3757" stroke="#F0F0F3" stroke-width="0.86" stroke-miterlimit="2"/>
<path d="M431.923 11.3018V56.3757" stroke="#F0F0F3" stroke-width="0.86" stroke-miterlimit="2"/>
<path d="M489.369 11.3018V56.3757" stroke="#F0F0F3" stroke-width="0.862542" stroke-miterlimit="2"/>
<path d="M39.2864 63.8867H39.6386" stroke="#F0F0F3" stroke-width="0.00862542" stroke-miterlimit="2"/>
<path d="M59.5129 63.8867H82.6598" stroke="#F0F0F3" stroke-width="0.862542" stroke-miterlimit="2"/>
<path d="M39.3367 63.9229C39.3367 63.9675 39.3735 63.9944 39.4196 63.9944C39.4957 63.9944 39.5894 63.9237 39.5894 63.8507C39.5894 63.8077 39.5548 63.7793 39.5057 63.7793C39.4119 63.7793 39.3367 63.8492 39.3367 63.9229Z" fill="#F0F0F3"/>
<path d="M64.5211 65.7642C64.5211 68.0809 66.4384 69.4789 68.8349 69.4789C72.7893 69.4789 77.6623 65.8042 77.6623 62.0096C77.6623 59.7728 75.8649 58.2949 73.3085 58.2949C68.4355 58.2949 64.5211 61.9297 64.5211 65.7642Z" fill="#F0F0F3"/>
<path d="M120.465 60.7574C120.465 63.0741 122.382 64.4721 124.778 64.4721C128.733 64.4721 133.606 60.7973 133.606 57.0028C133.606 54.766 131.808 53.2881 129.252 53.2881C124.379 53.2881 120.465 56.9229 120.465 60.7574Z" fill="#F0F0F3"/>
<path d="M176.384 55.7525C176.384 58.0692 178.301 59.4672 180.698 59.4672C184.652 59.4672 189.525 55.7924 189.525 51.9979C189.525 49.7611 187.728 48.2832 185.171 48.2832C180.298 48.2832 176.384 51.918 176.384 55.7525Z" fill="#F0F0F3"/>
<path d="M232.327 50.7437C232.327 53.0604 234.245 54.4584 236.641 54.4584C240.596 54.4584 245.469 50.7837 245.469 46.9891C245.469 44.7523 243.671 43.2744 241.115 43.2744C236.242 43.2744 232.327 46.9092 232.327 50.7437Z" fill="#F0F0F3"/>
<path d="M288.272 45.732C288.272 48.0487 290.189 49.4467 292.585 49.4467C296.54 49.4467 301.413 45.7719 301.413 41.9774C301.413 39.7406 299.615 38.2627 297.059 38.2627C292.186 38.2627 288.272 41.8975 288.272 45.732Z" fill="#F0F0F3"/>
<path d="M344.215 40.7252C344.215 43.0418 346.132 44.4398 348.529 44.4398C352.483 44.4398 357.356 40.7651 357.356 36.9705C357.356 34.7337 355.559 33.2559 353.002 33.2559C348.129 33.2559 344.215 36.8907 344.215 40.7252Z" fill="#F0F0F3"/>
<path d="M400.159 35.7183C400.159 38.035 402.076 39.433 404.473 39.433C408.427 39.433 413.3 35.7583 413.3 31.9637C413.3 29.7269 411.503 28.249 408.947 28.249C404.074 28.249 400.159 31.8838 400.159 35.7183Z" fill="#F0F0F3"/>
<path d="M456.102 30.7125C456.102 33.0291 458.019 34.4271 460.416 34.4271C464.37 34.4271 469.243 30.7524 469.243 26.9578C469.243 24.721 467.446 23.2432 464.889 23.2432C460.016 23.2432 456.102 26.878 456.102 30.7125Z" fill="#F0F0F3"/>
<path d="M19.5474 53.9228C20.4661 53.9228 21.5046 53.8429 22.3034 53.6831C22.7428 53.6032 22.8227 53.5633 22.9026 54.0426C23.3819 56.7188 23.981 60.1938 23.981 62.0711C23.981 67.9826 19.9868 68.7016 17.6301 68.7016C15.4732 68.7016 14.4347 68.0625 14.4347 67.5433C14.4347 67.2637 14.7942 67.1438 15.7129 66.8642C16.9511 66.5047 18.389 65.4263 18.389 63.1096C18.389 60.9128 16.991 59.0354 14.5545 59.0354C11.8784 59.0354 10.2807 61.1524 10.2807 63.6289C10.2807 66.2251 11.8384 70.1395 17.8698 70.1395C20.546 70.1395 25.7385 68.9413 25.7385 62.151C25.7385 59.8742 25.0195 56.0797 24.5802 53.6032C24.5003 53.1239 24.5402 53.1639 25.0994 52.9242C29.1337 51.3265 31.8098 47.9313 31.8098 43.4178C31.8098 38.3051 28.0552 33.7916 22.1836 33.7916C21.1451 33.7916 21.1451 33.7916 21.0253 33.0726L20.0267 27.2809C19.9468 26.8016 20.0267 26.7617 20.2664 26.522C24.5802 22.4878 27.8555 17.4151 27.8555 11.3038C27.8555 7.82879 26.8969 4.39371 25.2592 1.99714C24.6601 1.1184 23.6215 0 23.1822 0C22.623 0 21.3848 1.03851 20.5859 1.91726C17.6301 5.19256 16.6715 10.1854 16.6715 14.3395C16.6715 16.6561 16.9511 19.2524 17.2307 20.8901C17.3106 21.3694 17.3505 21.4493 16.8712 21.8487C11.1195 26.6019 5.00821 32.3137 5.00821 40.3822C5.00821 47.3322 9.7614 53.9228 19.5474 53.9228ZM8.20363 43.0583C8.20363 40.7017 8.60306 37.5462 11.9183 33.7916C14.3149 31.1154 16.1522 29.6376 18.0296 28.1197C18.429 27.8002 18.5089 27.8401 18.5888 28.2795L19.4276 33.3922C19.5474 34.1511 19.5474 34.1111 18.8284 34.3508C15.3134 35.5491 13.0367 38.7046 13.0367 42.0997C13.0367 45.6945 14.914 48.2509 17.6301 49.1696C17.9497 49.2894 18.429 49.4092 18.7086 49.4092C19.0281 49.4092 19.1879 49.2095 19.1879 48.9699C19.1879 48.6903 18.8684 48.5704 18.5888 48.4506C16.9112 47.7316 15.7129 46.0141 15.7129 44.1767C15.7129 41.9 17.2706 40.1824 19.7072 39.5034C20.3462 39.3436 20.4261 39.3836 20.506 39.823L22.5031 51.7259C22.583 52.1653 22.5431 52.1653 21.944 52.2851C21.3049 52.4049 20.506 52.4848 19.7072 52.4848C12.7172 52.4848 8.20363 48.6104 8.20363 43.0583ZM23.7813 6.19113C25.0994 6.19113 26.1779 7.26959 26.1779 9.46644C26.1779 13.9001 22.3833 17.4949 19.2278 20.251C18.9482 20.4907 18.7885 20.4507 18.7086 19.9315C18.5488 18.8929 18.4689 17.5349 18.4689 16.2567C18.4689 10.0256 21.3448 6.19113 23.7813 6.19113ZM22.623 39.1839C25.8583 39.4635 28.5345 42.1796 28.5345 45.6945C28.5345 48.2109 27.0167 50.248 24.7799 51.3664C24.3006 51.6061 24.2207 51.6061 24.1408 51.1268L22.1836 39.7431C22.1037 39.2638 22.1437 39.1439 22.623 39.1839Z" fill="#F0F0F3"/>
<path d="M489.653 10.0752V56.6524" stroke="#F0F0F3" stroke-width="3" stroke-miterlimit="2"/>
</svg>
