<svg width="784" height="288" viewBox="0 0 784 288" fill="none" xmlns="http://www.w3.org/2000/svg">
<path d="M40.3418 121.4V166.474" stroke="#F0F0F3" stroke-width="0.86" stroke-miterlimit="2"/>
<path d="M94.8535 121.399V166.473" stroke="#F0F0F3" stroke-width="0.86" stroke-miterlimit="2"/>
<path d="M155.524 121.399V166.473" stroke="#F0F0F3" stroke-width="0.86" stroke-miterlimit="2"/>
<path d="M210.036 121.399V166.473" stroke="#F0F0F3" stroke-width="0.86" stroke-miterlimit="2"/>
<path d="M269.803 121.399V166.473" stroke="#F0F0F3" stroke-width="0.86" stroke-miterlimit="2"/>
<path d="M324.316 121.399V166.473" stroke="#F0F0F3" stroke-width="0.86" stroke-miterlimit="2"/>
<path d="M378.828 121.399V166.473" stroke="#F0F0F3" stroke-width="0.86" stroke-miterlimit="2"/>
<path d="M439.508 121.399V166.473" stroke="#F0F0F3" stroke-width="0.86" stroke-miterlimit="2"/>
<path d="M494.02 121.399V166.473" stroke="#F0F0F3" stroke-width="0.86" stroke-miterlimit="2"/>
<path d="M553.786 121.399V166.473" stroke="#F0F0F3" stroke-width="0.86" stroke-miterlimit="2"/>
<path d="M608.298 121.399V166.473" stroke="#F0F0F3" stroke-width="0.86" stroke-miterlimit="2"/>
<path d="M668.065 121.399V166.473" stroke="#F0F0F3" stroke-width="0.86" stroke-miterlimit="2"/>
<path d="M722.578 121.399V166.473" stroke="#F0F0F3" stroke-width="0.86" stroke-miterlimit="2"/>
<path d="M778.593 121.4V166.474" stroke="#F0F0F3" stroke-width="0.862542" stroke-miterlimit="2"/>
<path d="M39.3424 133.938V143.936" stroke="#F0F0F3" stroke-width="0.0020701" stroke-miterlimit="2"/>
<path d="M57.6353 173.986H80.7813" stroke="#F0F0F3" stroke-width="0.862542" stroke-miterlimit="2"/>
<path d="M119.581 173.986H141.476" stroke="#F0F0F3" stroke-width="0.862542" stroke-miterlimit="2"/>
<path d="M39.3367 133.957C39.3367 134.002 39.3735 134.029 39.4196 134.029C39.4957 134.029 39.5894 133.958 39.5894 133.885C39.5894 133.842 39.5548 133.813 39.5057 133.813C39.4119 133.813 39.3367 133.883 39.3367 133.957Z" fill="#F0F0F3"/>
<path d="M62.6429 175.866C62.6429 178.182 64.5602 179.58 66.9568 179.58C70.9111 179.58 75.7841 175.906 75.7841 172.111C75.7841 169.874 73.9867 168.396 71.4304 168.396C66.5573 168.396 62.6429 172.031 62.6429 175.866Z" fill="#F0F0F3"/>
<path d="M111.215 172.945C111.375 172.945 112.134 172.586 112.253 172.506C112.293 172.506 112.333 172.466 112.373 172.466C112.653 172.466 112.893 172.865 112.893 173.185V177.139C112.893 177.579 112.693 177.938 112.453 178.058C112.213 178.138 111.375 178.497 111.375 178.497C111.095 178.577 110.895 178.897 110.895 179.137V181.972C110.895 182.212 111.015 182.332 111.215 182.332C111.255 182.332 111.335 182.292 111.375 182.292C111.375 182.292 111.934 182.052 112.293 181.932C112.333 181.893 112.373 181.893 112.413 181.893C112.693 181.893 112.893 182.332 112.893 182.532V187.445C112.893 187.684 113.132 187.884 113.412 187.884C113.811 187.884 114.091 187.684 114.091 187.445V181.893C114.091 181.373 114.291 181.094 114.49 181.014L116.927 180.015C116.967 180.015 117.047 179.975 117.087 179.975C117.406 179.975 117.606 180.455 117.606 180.694V185.687C117.606 185.927 117.845 186.126 118.125 186.126C118.564 186.126 118.804 185.927 118.804 185.687V180.015C118.804 179.696 118.964 179.216 119.243 179.097C119.523 178.977 120.362 178.657 120.362 178.657C120.641 178.537 120.841 178.218 120.841 177.978V175.142C120.841 174.943 120.721 174.823 120.562 174.823C120.482 174.823 120.442 174.823 120.362 174.863L119.323 175.262C119.084 175.262 118.804 175.022 118.804 174.543V170.828C118.804 170.549 119.004 169.79 119.323 169.67L120.362 169.271C120.641 169.151 120.841 168.831 120.841 168.592V165.756C120.841 165.556 120.721 165.436 120.562 165.436C120.482 165.436 120.442 165.436 120.362 165.476C120.362 165.476 119.563 165.796 119.363 165.836C119.084 165.836 118.804 165.636 118.804 165.316V160.443C118.804 160.204 118.564 160.004 118.245 160.004C117.845 160.004 117.606 160.204 117.606 160.443V165.636C117.566 166.035 117.446 166.555 117.087 166.794C116.607 167.074 115.249 167.633 114.57 167.793C114.211 167.793 114.091 167.313 114.091 166.994V162.201C114.091 161.961 113.811 161.761 113.532 161.761C113.132 161.761 112.893 161.961 112.893 162.201V167.593C112.893 168.152 112.653 168.552 112.413 168.671C112.174 168.791 111.375 169.111 111.375 169.111C111.095 169.191 110.895 169.51 110.895 169.75V172.586C110.895 172.826 111.015 172.945 111.215 172.945ZM113.971 175.182C113.971 173.944 114.011 172.546 114.091 172.226C114.171 171.547 116.008 170.709 117.007 170.709C117.286 170.709 117.526 170.788 117.606 170.948C117.686 171.148 117.766 172.147 117.766 173.225C117.766 174.303 117.686 175.422 117.606 175.781C117.366 176.58 115.489 177.379 114.57 177.379C114.33 177.379 114.131 177.299 114.091 177.179C114.011 177.02 113.971 176.141 113.971 175.182Z" fill="#F0F0F3"/>
<path d="M123.337 175.866C123.337 178.182 125.255 179.58 127.651 179.58C131.605 179.58 136.478 175.906 136.478 172.111C136.478 169.874 134.681 168.396 132.125 168.396C127.252 168.396 123.337 172.031 123.337 175.866Z" fill="#F0F0F3"/>
<path d="M177.826 170.852C177.826 173.169 179.743 174.567 182.14 174.567C186.094 174.567 190.967 170.892 190.967 167.097C190.967 164.861 189.169 163.383 186.613 163.383C181.74 163.383 177.826 167.018 177.826 170.852Z" fill="#F0F0F3"/>
<path d="M226.542 170.76C226.662 170.919 226.781 170.959 226.901 170.959C227.021 170.959 227.141 170.88 227.141 170.88C228.339 170.201 229.298 169.122 230.296 168.443C233.851 165.967 235.09 163.53 235.09 161.693C235.09 159.416 233.332 157.978 231.495 157.858C230.816 157.858 229.857 158.178 229.298 158.537C229.058 158.737 228.619 159.096 228.419 159.096C228.339 159.096 228.299 159.096 228.219 159.056C227.94 158.937 227.78 158.657 227.78 158.377C227.82 157.499 228.06 147.912 228.06 147.114C228.06 146.674 227.7 146.435 227.301 146.435C226.742 146.435 226.102 146.834 226.062 147.553C226.062 147.553 226.222 170.36 226.542 170.76ZM227.9 161.932C228.179 161.134 229.777 159.975 230.696 159.975C231.854 159.975 232.334 161.293 232.334 162.292C232.334 164.449 230.496 166.606 228.779 167.684C228.619 167.764 228.499 167.804 228.379 167.804C228.02 167.804 227.94 167.405 227.94 167.205C227.94 167.205 227.82 164.808 227.82 163.211C227.82 162.571 227.86 162.092 227.9 161.932Z" fill="#F0F0F3"/>
<path d="M237.592 165.847C237.592 168.164 239.509 169.562 241.906 169.562C245.86 169.562 250.733 165.887 250.733 162.093C250.733 159.856 248.936 158.378 246.38 158.378C241.507 158.378 237.592 162.013 237.592 165.847Z" fill="#F0F0F3"/>
<path d="M292.105 165.847C292.105 168.164 294.022 169.562 296.418 169.562C300.373 169.562 305.246 165.887 305.246 162.093C305.246 159.856 303.448 158.378 300.892 158.378C296.019 158.378 292.105 162.013 292.105 165.847Z" fill="#F0F0F3"/>
<path d="M346.617 160.839C346.617 163.156 348.534 164.554 350.931 164.554C354.885 164.554 359.758 160.879 359.758 157.085C359.758 154.848 357.961 153.37 355.404 153.37C350.531 153.37 346.617 157.005 346.617 160.839Z" fill="#F0F0F3"/>
<path d="M461.809 155.833C461.809 158.149 463.726 159.547 466.123 159.547C470.077 159.547 474.95 155.873 474.95 152.078C474.95 149.841 473.153 148.363 470.596 148.363C465.723 148.363 461.809 151.998 461.809 155.833Z" fill="#F0F0F3"/>
<path d="M510.526 155.734C510.646 155.894 510.765 155.934 510.885 155.934C511.005 155.934 511.125 155.854 511.125 155.854C512.323 155.175 513.282 154.097 514.28 153.418C517.835 150.941 519.074 148.505 519.074 146.667C519.074 144.391 517.316 142.953 515.479 142.833C514.8 142.833 513.841 143.152 513.282 143.512C513.042 143.712 512.603 144.071 512.403 144.071C512.323 144.071 512.283 144.071 512.203 144.031C511.924 143.911 511.764 143.632 511.764 143.352C511.804 142.473 512.044 132.887 512.044 132.088C512.044 131.649 511.684 131.409 511.285 131.409C510.726 131.409 510.086 131.809 510.047 132.528C510.047 132.528 510.206 155.335 510.526 155.734ZM511.884 146.907C512.163 146.108 513.761 144.95 514.68 144.95C515.838 144.95 516.318 146.268 516.318 147.266C516.318 149.423 514.48 151.58 512.763 152.659C512.603 152.739 512.483 152.779 512.363 152.779C512.004 152.779 511.924 152.379 511.924 152.179C511.924 152.179 511.804 149.783 511.804 148.185C511.804 147.546 511.844 147.067 511.884 146.907Z" fill="#F0F0F3"/>
<path d="M521.576 150.82C521.576 153.137 523.494 154.535 525.89 154.535C529.844 154.535 534.717 150.86 534.717 147.065C534.717 144.828 532.92 143.351 530.364 143.351C525.491 143.351 521.576 146.985 521.576 150.82Z" fill="#F0F0F3"/>
<path d="M576.087 150.82C576.087 153.137 578.005 154.535 580.401 154.535C584.355 154.535 589.228 150.86 589.228 147.065C589.228 144.828 587.431 143.351 584.875 143.351C580.002 143.351 576.087 146.985 576.087 150.82Z" fill="#F0F0F3"/>
<path d="M624.803 150.727C624.923 150.886 625.043 150.926 625.163 150.926C625.283 150.926 625.403 150.846 625.403 150.846C626.601 150.167 627.559 149.089 628.558 148.41C632.113 145.933 633.351 143.497 633.351 141.66C633.351 139.383 631.594 137.945 629.756 137.825C629.077 137.825 628.119 138.145 627.559 138.504C627.32 138.704 626.88 139.063 626.681 139.063C626.601 139.063 626.561 139.063 626.481 139.023C626.201 138.903 626.042 138.624 626.042 138.344C626.082 137.466 626.321 127.879 626.321 127.08C626.321 126.641 625.962 126.401 625.562 126.401C625.003 126.401 624.364 126.801 624.324 127.52C624.324 127.52 624.484 150.327 624.803 150.727ZM626.161 141.899C626.441 141.1 628.039 139.942 628.957 139.942C630.116 139.942 630.595 141.26 630.595 142.259C630.595 144.416 628.758 146.572 627.04 147.651C626.88 147.731 626.761 147.771 626.641 147.771C626.281 147.771 626.201 147.371 626.201 147.172C626.201 147.172 626.082 144.775 626.082 143.177C626.082 142.538 626.122 142.059 626.161 141.899Z" fill="#F0F0F3"/>
<path d="M635.854 145.812C635.854 148.129 637.771 149.527 640.168 149.527C644.122 149.527 648.995 145.852 648.995 142.057C648.995 139.821 647.198 138.343 644.641 138.343C639.768 138.343 635.854 141.978 635.854 145.812Z" fill="#F0F0F3"/>
<path d="M690.366 145.812C690.366 148.129 692.284 149.527 694.68 149.527C698.634 149.527 703.508 145.852 703.508 142.057C703.508 139.821 701.71 138.343 699.154 138.343C694.281 138.343 690.366 141.978 690.366 145.812Z" fill="#F0F0F3"/>
<path d="M744.879 140.806C744.879 143.123 746.797 144.521 749.193 144.521C753.148 144.521 758.021 140.846 758.021 137.052C758.021 134.815 756.223 133.337 753.667 133.337C748.794 133.337 744.879 136.972 744.879 140.806Z" fill="#F0F0F3"/>
<path d="M19.5474 164.017C20.4661 164.017 21.5046 163.938 22.3035 163.778C22.7428 163.698 22.8227 163.658 22.9026 164.137C23.3819 166.813 23.9811 170.289 23.9811 172.166C23.9811 178.077 19.9868 178.796 17.6302 178.796C15.4732 178.796 14.4347 178.157 14.4347 177.638C14.4347 177.358 14.7942 177.239 15.7129 176.959C16.9511 176.599 18.3891 175.521 18.3891 173.204C18.3891 171.007 16.9911 169.13 14.5546 169.13C11.8784 169.13 10.2807 171.247 10.2807 173.724C10.2807 176.32 11.8385 180.234 17.8698 180.234C20.546 180.234 25.7385 179.036 25.7385 172.246C25.7385 169.969 25.0196 166.174 24.5802 163.698C24.5003 163.219 24.5403 163.259 25.0995 163.019C29.1337 161.421 31.8098 158.026 31.8098 153.513C31.8098 148.4 28.0552 143.886 22.1836 143.886C21.1451 143.886 21.1451 143.886 21.0253 143.167L20.0267 137.376C19.9468 136.896 20.0267 136.856 20.2664 136.617C24.5802 132.583 27.8555 127.51 27.8555 121.399C27.8555 117.924 26.8969 114.488 25.2592 112.092C24.6601 111.213 23.6216 110.095 23.1822 110.095C22.623 110.095 21.3848 111.133 20.5859 112.012C17.6302 115.287 16.6715 120.28 16.6715 124.434C16.6715 126.751 16.9511 129.347 17.2307 130.985C17.3106 131.464 17.3506 131.544 16.8712 131.943C11.1195 136.697 5.00824 142.408 5.00824 150.477C5.00824 157.427 9.76143 164.017 19.5474 164.017ZM8.20366 153.153C8.20366 150.796 8.60309 147.641 11.9183 143.886C14.3149 141.21 16.1523 139.732 18.0296 138.214C18.429 137.895 18.5089 137.935 18.5888 138.374L19.4276 143.487C19.5474 144.246 19.5474 144.206 18.8284 144.446C15.3135 145.644 13.0367 148.799 13.0367 152.194C13.0367 155.789 14.9141 158.346 17.6302 159.264C17.9497 159.384 18.429 159.504 18.7086 159.504C19.0282 159.504 19.1879 159.304 19.1879 159.065C19.1879 158.785 18.8684 158.665 18.5888 158.545C16.9112 157.826 15.7129 156.109 15.7129 154.271C15.7129 151.995 17.2707 150.277 19.7072 149.598C20.3463 149.438 20.4262 149.478 20.506 149.918L22.5032 161.821C22.5831 162.26 22.5431 162.26 21.944 162.38C21.3049 162.5 20.506 162.58 19.7072 162.58C12.7172 162.58 8.20366 158.705 8.20366 153.153ZM23.7814 116.286C25.0995 116.286 26.1779 117.364 26.1779 119.561C26.1779 123.995 22.3834 127.59 19.2279 130.346C18.9483 130.585 18.7885 130.545 18.7086 130.026C18.5488 128.988 18.469 127.63 18.469 126.351C18.469 120.12 21.3448 116.286 23.7814 116.286ZM22.623 149.279C25.8584 149.558 28.5345 152.274 28.5345 155.789C28.5345 158.306 27.0167 160.343 24.7799 161.461C24.3006 161.701 24.2207 161.701 24.1408 161.221L22.1836 149.838C22.1038 149.358 22.1437 149.239 22.623 149.279Z" fill="#F0F0F3"/>
<path d="M779.796 225.104V271.707" stroke="#F0F0F3" stroke-width="3" stroke-miterlimit="2"/>
<path d="M39.3424 243.386V248.375" stroke="#F0F0F3" stroke-width="0.0020701" stroke-miterlimit="2"/>
<path d="M495.1 218.325H516.995" stroke="#F0F0F3" stroke-width="0.862542" stroke-miterlimit="2"/>
<path d="M552.904 218.325H576.051" stroke="#F0F0F3" stroke-width="0.862542" stroke-miterlimit="2"/>
<path d="M620.721 218.325H640.362" stroke="#F0F0F3" stroke-width="0.862542" stroke-miterlimit="2"/>
<path d="M676.271 218.325H699.418" stroke="#F0F0F3" stroke-width="0.862542" stroke-miterlimit="2"/>
<path d="M735.327 208.311H758.474" stroke="#F0F0F3" stroke-width="0.862542" stroke-miterlimit="2"/>
<path d="M735.327 218.325H758.474" stroke="#F0F0F3" stroke-width="0.862542" stroke-miterlimit="2"/>
<path d="M39.3367 243.405C39.3367 243.45 39.3735 243.477 39.4196 243.477C39.4957 243.477 39.5894 243.406 39.5894 243.333C39.5894 243.29 39.5548 243.262 39.5057 243.262C39.4119 243.262 39.3367 243.332 39.3367 243.405Z" fill="#F0F0F3"/>
<path d="M56.6889 242.327C56.8487 242.327 57.6076 241.968 57.7274 241.888C57.7674 241.888 57.8073 241.848 57.8473 241.848C58.1269 241.848 58.3665 242.247 58.3665 242.567V246.521C58.3665 246.961 58.1668 247.32 57.9272 247.44C57.6875 247.52 56.8487 247.879 56.8487 247.879C56.5691 247.959 56.3694 248.279 56.3694 248.518V251.354C56.3694 251.594 56.4892 251.714 56.6889 251.714C56.7289 251.714 56.8088 251.674 56.8487 251.674C56.8487 251.674 57.4079 251.434 57.7674 251.314C57.8073 251.274 57.8473 251.274 57.8872 251.274C58.1668 251.274 58.3665 251.714 58.3665 251.913V256.826C58.3665 257.066 58.6062 257.266 58.8858 257.266C59.2852 257.266 59.5648 257.066 59.5648 256.826V251.274C59.5648 250.755 59.7645 250.476 59.9642 250.396L62.4007 249.397C62.4407 249.397 62.5206 249.357 62.5605 249.357C62.8801 249.357 63.0798 249.836 63.0798 250.076V255.069C63.0798 255.309 63.3194 255.508 63.599 255.508C64.0384 255.508 64.2781 255.309 64.2781 255.069V249.397C64.2781 249.078 64.4378 248.598 64.7174 248.478C64.997 248.359 65.8358 248.039 65.8358 248.039C66.1154 247.919 66.3151 247.6 66.3151 247.36V244.524C66.3151 244.324 66.1953 244.205 66.0355 244.205C65.9557 244.205 65.9157 244.205 65.8358 244.244L64.7973 244.644C64.5577 244.644 64.2781 244.404 64.2781 243.925V240.21C64.2781 239.931 64.4778 239.172 64.7973 239.052L65.8358 238.652C66.1154 238.533 66.3151 238.213 66.3151 237.973V235.138C66.3151 234.938 66.1953 234.818 66.0355 234.818C65.9557 234.818 65.9157 234.818 65.8358 234.858C65.8358 234.858 65.037 235.177 64.8373 235.217C64.5577 235.217 64.2781 235.018 64.2781 234.698V229.825C64.2781 229.585 64.0384 229.386 63.7189 229.386C63.3194 229.386 63.0798 229.585 63.0798 229.825V235.018C63.0398 235.417 62.92 235.936 62.5605 236.176C62.0812 236.456 60.7231 237.015 60.0441 237.175C59.6846 237.175 59.5648 236.695 59.5648 236.376V231.583C59.5648 231.343 59.2852 231.143 59.0056 231.143C58.6062 231.143 58.3665 231.343 58.3665 231.583V236.975C58.3665 237.534 58.1269 237.933 57.8872 238.053C57.6476 238.173 56.8487 238.493 56.8487 238.493C56.5691 238.573 56.3694 238.892 56.3694 239.132V241.968C56.3694 242.207 56.4892 242.327 56.6889 242.327ZM59.445 244.564C59.445 243.326 59.4849 241.928 59.5648 241.608C59.6447 240.929 61.4821 240.09 62.4806 240.09C62.7602 240.09 62.9999 240.17 63.0798 240.33C63.1597 240.53 63.2395 241.528 63.2395 242.607C63.2395 243.685 63.1597 244.804 63.0798 245.163C62.8401 245.962 60.9628 246.761 60.0441 246.761C59.8045 246.761 59.6048 246.681 59.5648 246.561C59.4849 246.401 59.445 245.523 59.445 244.564Z" fill="#F0F0F3"/>
<path d="M68.8107 245.243C68.8107 247.559 70.728 248.957 73.1246 248.957C77.0789 248.957 81.9519 245.283 81.9519 241.488C81.9519 239.251 80.1545 237.773 77.5981 237.773C72.7251 237.773 68.8107 241.408 68.8107 245.243Z" fill="#F0F0F3"/>
<path d="M127.868 240.235C127.868 242.552 129.785 243.95 132.182 243.95C136.136 243.95 141.009 240.275 141.009 236.48C141.009 234.244 139.212 232.766 136.655 232.766C131.782 232.766 127.868 236.4 127.868 240.235Z" fill="#F0F0F3"/>
<path d="M181.104 240.144C181.224 240.303 181.343 240.343 181.463 240.343C181.583 240.343 181.703 240.263 181.703 240.263C182.901 239.584 183.86 238.506 184.858 237.827C188.413 235.35 189.652 232.914 189.652 231.077C189.652 228.8 187.894 227.362 186.057 227.242C185.378 227.242 184.419 227.562 183.86 227.921C183.62 228.121 183.181 228.48 182.981 228.48C182.901 228.48 182.861 228.48 182.781 228.44C182.502 228.32 182.342 228.041 182.342 227.761C182.382 226.883 182.622 217.296 182.622 216.497C182.622 216.058 182.262 215.818 181.863 215.818C181.304 215.818 180.664 216.218 180.625 216.937C180.625 216.937 180.784 239.744 181.104 240.144ZM182.462 231.316C182.741 230.517 184.339 229.359 185.258 229.359C186.416 229.359 186.896 230.677 186.896 231.676C186.896 233.833 185.058 235.989 183.341 237.068C183.181 237.148 183.061 237.188 182.941 237.188C182.582 237.188 182.502 236.788 182.502 236.589C182.502 236.589 182.382 234.192 182.382 232.594C182.382 231.955 182.422 231.476 182.462 231.316Z" fill="#F0F0F3"/>
<path d="M192.154 235.229C192.154 237.546 194.071 238.944 196.468 238.944C200.422 238.944 205.295 235.269 205.295 231.474C205.295 229.238 203.498 227.76 200.942 227.76C196.069 227.76 192.154 231.395 192.154 235.229Z" fill="#F0F0F3"/>
<path d="M251.211 235.229C251.211 237.546 253.128 238.944 255.525 238.944C259.479 238.944 264.352 235.269 264.352 231.474C264.352 229.238 262.555 227.76 259.998 227.76C255.125 227.76 251.211 231.395 251.211 235.229Z" fill="#F0F0F3"/>
<path d="M310.266 230.22C310.266 232.537 312.184 233.935 314.58 233.935C318.535 233.935 323.408 230.26 323.408 226.466C323.408 224.229 321.61 222.751 319.054 222.751C314.181 222.751 310.266 226.386 310.266 230.22Z" fill="#F0F0F3"/>
<path d="M363.368 227.302C363.527 227.302 364.286 226.942 364.406 226.862C364.446 226.862 364.486 226.823 364.526 226.823C364.806 226.823 365.045 227.222 365.045 227.541V231.496C365.045 231.935 364.846 232.295 364.606 232.414C364.366 232.494 363.527 232.854 363.527 232.854C363.248 232.934 363.048 233.253 363.048 233.493V236.329C363.048 236.569 363.168 236.688 363.368 236.688C363.408 236.688 363.487 236.648 363.527 236.648C363.527 236.648 364.087 236.409 364.446 236.289C364.486 236.249 364.526 236.249 364.566 236.249C364.846 236.249 365.045 236.688 365.045 236.888V241.801C365.045 242.041 365.285 242.24 365.564 242.24C365.964 242.24 366.244 242.041 366.244 241.801V236.249C366.244 235.73 366.443 235.45 366.643 235.37L369.079 234.372C369.119 234.372 369.199 234.332 369.239 234.332C369.559 234.332 369.758 234.811 369.758 235.051V240.044C369.758 240.283 369.998 240.483 370.278 240.483C370.717 240.483 370.957 240.283 370.957 240.044V234.372C370.957 234.052 371.117 233.573 371.396 233.453C371.676 233.333 372.515 233.014 372.515 233.014C372.794 232.894 372.994 232.574 372.994 232.335V229.499C372.994 229.299 372.874 229.179 372.714 229.179C372.634 229.179 372.594 229.179 372.515 229.219L371.476 229.618C371.236 229.618 370.957 229.379 370.957 228.9V225.185C370.957 224.905 371.156 224.146 371.476 224.027L372.515 223.627C372.794 223.507 372.994 223.188 372.994 222.948V220.112C372.994 219.912 372.874 219.793 372.714 219.793C372.634 219.793 372.594 219.793 372.515 219.833C372.515 219.833 371.716 220.152 371.516 220.192C371.236 220.192 370.957 219.992 370.957 219.673V214.8C370.957 214.56 370.717 214.36 370.398 214.36C369.998 214.36 369.758 214.56 369.758 214.8V219.992C369.719 220.392 369.599 220.911 369.239 221.151C368.76 221.43 367.402 221.989 366.723 222.149C366.363 222.149 366.244 221.67 366.244 221.35V216.557C366.244 216.318 365.964 216.118 365.684 216.118C365.285 216.118 365.045 216.318 365.045 216.557V221.949C365.045 222.509 364.806 222.908 364.566 223.028C364.326 223.148 363.527 223.467 363.527 223.467C363.248 223.547 363.048 223.867 363.048 224.106V226.942C363.048 227.182 363.168 227.302 363.368 227.302ZM366.124 229.539C366.124 228.3 366.164 226.902 366.244 226.583C366.323 225.904 368.161 225.065 369.159 225.065C369.439 225.065 369.679 225.145 369.758 225.305C369.838 225.504 369.918 226.503 369.918 227.581C369.918 228.66 369.838 229.778 369.758 230.138C369.519 230.937 367.642 231.735 366.723 231.735C366.483 231.735 366.283 231.656 366.244 231.536C366.164 231.376 366.124 230.497 366.124 229.539Z" fill="#F0F0F3"/>
<path d="M434.545 225.21C434.545 227.526 436.462 228.924 438.859 228.924C442.813 228.924 447.686 225.249 447.686 221.455C447.686 219.218 445.889 217.74 443.332 217.74C438.459 217.74 434.545 221.375 434.545 225.21Z" fill="#F0F0F3"/>
<path d="M487.806 225.116C487.926 225.276 488.046 225.316 488.165 225.316C488.285 225.316 488.405 225.236 488.405 225.236C489.603 224.557 490.562 223.479 491.56 222.799C495.115 220.323 496.354 217.887 496.354 216.049C496.354 213.772 494.596 212.334 492.759 212.215C492.08 212.215 491.121 212.534 490.562 212.894C490.322 213.093 489.883 213.453 489.683 213.453C489.603 213.453 489.563 213.453 489.483 213.413C489.204 213.293 489.044 213.014 489.044 212.734C489.084 211.855 489.324 202.269 489.324 201.47C489.324 201.031 488.964 200.791 488.565 200.791C488.006 200.791 487.366 201.19 487.327 201.909C487.327 201.909 487.486 224.717 487.806 225.116ZM489.164 216.289C489.444 215.49 491.041 214.332 491.96 214.332C493.118 214.332 493.598 215.65 493.598 216.648C493.598 218.805 491.76 220.962 490.043 222.041C489.883 222.12 489.763 222.16 489.643 222.16C489.284 222.16 489.204 221.761 489.204 221.561C489.204 221.561 489.084 219.165 489.084 217.567C489.084 216.928 489.124 216.449 489.164 216.289Z" fill="#F0F0F3"/>
<path d="M498.856 220.203C498.856 222.519 500.773 223.917 503.17 223.917C507.124 223.917 511.997 220.243 511.997 216.448C511.997 214.211 510.2 212.733 507.644 212.733C502.771 212.733 498.856 216.368 498.856 220.203Z" fill="#F0F0F3"/>
<path d="M557.911 220.203C557.911 222.519 559.829 223.917 562.225 223.917C566.18 223.917 571.053 220.243 571.053 216.448C571.053 214.211 569.255 212.733 566.699 212.733C561.826 212.733 557.911 216.368 557.911 220.203Z" fill="#F0F0F3"/>
<path d="M611.172 220.109C611.292 220.269 611.412 220.309 611.532 220.309C611.651 220.309 611.771 220.229 611.771 220.229C612.97 219.55 613.928 218.472 614.927 217.793C618.482 215.316 619.72 212.88 619.72 211.042C619.72 208.766 617.962 207.328 616.125 207.208C615.446 207.208 614.487 207.527 613.928 207.887C613.689 208.087 613.249 208.446 613.049 208.446C612.97 208.446 612.93 208.446 612.85 208.406C612.57 208.286 612.41 208.007 612.41 207.727C612.45 206.848 612.69 197.262 612.69 196.463C612.69 196.024 612.331 195.784 611.931 195.784C611.372 195.784 610.733 196.184 610.693 196.903C610.693 196.903 610.853 219.71 611.172 220.109ZM612.53 211.282C612.81 210.483 614.408 209.325 615.326 209.325C616.485 209.325 616.964 210.643 616.964 211.641C616.964 213.798 615.127 215.955 613.409 217.034C613.249 217.114 613.129 217.154 613.01 217.154C612.65 217.154 612.57 216.754 612.57 216.554C612.57 216.554 612.45 214.158 612.45 212.56C612.45 211.921 612.49 211.442 612.53 211.282Z" fill="#F0F0F3"/>
<path d="M622.223 215.195C622.223 217.512 624.14 218.91 626.536 218.91C630.491 218.91 635.364 215.235 635.364 211.44C635.364 209.203 633.566 207.726 631.01 207.726C626.137 207.726 622.223 211.36 622.223 215.195Z" fill="#F0F0F3"/>
<path d="M681.28 215.195C681.28 217.512 683.197 218.91 685.594 218.91C689.548 218.91 694.421 215.235 694.421 211.44C694.421 209.203 692.624 207.726 690.067 207.726C685.194 207.726 681.28 211.36 681.28 215.195Z" fill="#F0F0F3"/>
<path d="M740.335 210.189C740.335 212.506 742.252 213.904 744.649 213.904C748.603 213.904 753.476 210.229 753.476 206.434C753.476 204.198 751.678 202.72 749.122 202.72C744.249 202.72 740.335 206.355 740.335 210.189Z" fill="#F0F0F3"/>
<path d="M19.5474 268.459C20.4661 268.459 21.5046 268.379 22.3034 268.219C22.7428 268.139 22.8227 268.099 22.9026 268.579C23.3819 271.255 23.981 274.73 23.981 276.607C23.981 282.519 19.9868 283.238 17.6301 283.238C15.4732 283.238 14.4347 282.599 14.4347 282.079C14.4347 281.8 14.7942 281.68 15.7129 281.4C16.9511 281.041 18.389 279.962 18.389 277.646C18.389 275.449 16.991 273.572 14.5545 273.572C11.8784 273.572 10.2807 275.689 10.2807 278.165C10.2807 280.761 11.8384 284.676 17.8698 284.676C20.546 284.676 25.7385 283.477 25.7385 276.687C25.7385 274.41 25.0195 270.616 24.5802 268.139C24.5003 267.66 24.5402 267.7 25.0994 267.46C29.1337 265.863 31.8098 262.467 31.8098 257.954C31.8098 252.841 28.0552 248.328 22.1836 248.328C21.1451 248.328 21.1451 248.328 21.0253 247.609L20.0267 241.817C19.9468 241.338 20.0267 241.298 20.2664 241.058C24.5802 237.024 27.8555 231.951 27.8555 225.84C27.8555 222.365 26.8969 218.93 25.2592 216.533C24.6601 215.655 23.6215 214.536 23.1822 214.536C22.623 214.536 21.3848 215.575 20.5859 216.453C17.6301 219.729 16.6715 224.722 16.6715 228.876C16.6715 231.192 16.9511 233.789 17.2307 235.426C17.3106 235.906 17.3505 235.985 16.8712 236.385C11.1195 241.138 5.00821 246.85 5.00821 254.918C5.00821 261.868 9.7614 268.459 19.5474 268.459ZM8.20363 257.594C8.20363 255.238 8.60306 252.082 11.9183 248.328C14.3149 245.652 16.1522 244.174 18.0296 242.656C18.429 242.336 18.5089 242.376 18.5888 242.816L19.4276 247.928C19.5474 248.687 19.5474 248.647 18.8284 248.887C15.3134 250.085 13.0367 253.241 13.0367 256.636C13.0367 260.231 14.914 262.787 17.6301 263.706C17.9497 263.826 18.429 263.945 18.7086 263.945C19.0281 263.945 19.1879 263.746 19.1879 263.506C19.1879 263.226 18.8684 263.107 18.5888 262.987C16.9112 262.268 15.7129 260.55 15.7129 258.713C15.7129 256.436 17.2706 254.719 19.7072 254.04C20.3462 253.88 20.4261 253.92 20.506 254.359L22.5031 266.262C22.583 266.701 22.5431 266.701 21.944 266.821C21.3049 266.941 20.506 267.021 19.7072 267.021C12.7172 267.021 8.20363 263.147 8.20363 257.594ZM23.7813 220.727C25.0994 220.727 26.1779 221.806 26.1779 224.003C26.1779 228.436 22.3833 232.031 19.2278 234.787C18.9482 235.027 18.7885 234.987 18.7086 234.468C18.5488 233.429 18.4689 232.071 18.4689 230.793C18.4689 224.562 21.3448 220.727 23.7813 220.727ZM22.623 253.72C25.8583 254 28.5345 256.716 28.5345 260.231C28.5345 262.747 27.0167 264.784 24.7799 265.903C24.3006 266.142 24.2207 266.142 24.1408 265.663L22.1836 254.279C22.1037 253.8 22.1437 253.68 22.623 253.72Z" fill="#F0F0F3"/>
<path fill-rule="evenodd" clip-rule="evenodd" d="M53.2473 76.6664C51.9205 76.3857 50.6191 76.5388 49.3433 76.9471C46.5366 77.8657 45.3118 80.4683 46.6642 83.0709C47.1745 84.0405 46.9959 84.3722 46.1538 84.755C45.0311 85.2653 44.1891 86.0563 43.8064 87.2811C42.8878 90.2154 45.0311 92.4353 49.3433 92.4353C50.1854 92.4353 51.5377 92.1291 52.737 91.3636C54.8293 90.0368 55.5948 87.4342 54.2424 85.3929C53.4259 84.1936 53.6811 83.7343 54.7527 83.0709C56.0796 82.2289 56.7175 80.9021 56.3858 79.2945C56.0541 77.6105 54.7527 76.9981 53.2473 76.6664ZM49.1392 91.4147C47.0979 91.3126 46.2559 90.394 46.2559 88.7355C46.2559 87.23 47.5317 85.2908 48.4758 85.3419C49.3178 85.3929 51.7418 87.97 51.7418 88.8631C51.7674 90.2664 50.364 91.4657 49.1392 91.4147ZM51.946 82.7392C50.6447 82.7137 49.4199 81.5144 49.3433 79.9324C49.2668 78.376 50.3129 77.7126 51.7163 77.636C53.1707 77.5595 53.8852 78.3505 53.9617 79.9069C53.7831 81.1317 53.4259 82.7647 51.946 82.7392ZM60.4428 85.1364C60.4644 84.4463 60.7092 83.8064 60.9385 83.2069C61.2519 82.3878 61.5364 81.6443 61.1828 80.9518C60.8511 80.3139 59.167 80.7222 57.9677 81.3345C59.4222 81.5897 59.5242 82.2276 59.167 83.4269C58.5291 85.3916 58.0698 87.4329 57.6615 89.4742C57.4064 90.8265 57.8657 92.0258 59.3966 92.332C61.0297 92.6381 62.2289 91.7706 63.0709 90.4948C64.0916 88.9383 64.7295 87.1777 63.7599 85.4171C62.9257 83.951 61.5908 84.5884 60.4744 85.1214L60.4428 85.1364ZM62.4586 86.8205C62.2799 88.2749 61.8972 89.6783 60.9786 90.852C60.6469 91.2858 60.1876 91.7706 59.5752 91.5154C58.9884 91.2858 58.9118 90.6479 59.0139 90.0865C59.2946 88.6576 59.6008 87.2287 60.5959 86.106C60.9531 85.6978 61.3869 85.2385 61.9993 85.5447C62.5096 85.7743 62.5096 86.3102 62.4586 86.8205ZM71.351 87.5873C71.1405 88.2507 70.93 88.9141 70.7258 89.5775C70.241 91.2361 70.241 91.2361 72.4099 90.8789C72.3133 90.9816 72.2199 91.0826 72.1291 91.1809C71.0924 92.3025 70.3996 93.052 69.2969 91.6443C68.8887 91.1085 68.7101 91.0064 68.1232 91.6699C67.0005 92.9457 65.3675 92.3843 64.8827 90.6747C64.3213 88.7355 65.7502 85.7757 67.5874 84.806C68.2753 84.4308 68.9632 84.5829 69.6571 84.7362C70.3789 84.8958 71.1071 85.0567 71.8485 84.6274C72.2313 84.4233 72.0782 85.2398 71.9761 85.597C71.772 86.2605 71.5615 86.9239 71.351 87.5873ZM68.1742 90.5471C69.0673 89.45 69.45 88.1231 69.7307 86.7708C69.8328 86.2605 69.6542 85.7501 69.1438 85.546C68.7356 85.3929 68.3273 85.6481 68.0466 85.9543C67.0005 87.0515 66.6433 88.4548 66.4647 89.8072C66.4775 89.9484 66.4742 90.0897 66.471 90.2265C66.4614 90.6333 66.4528 91.0005 66.8729 91.2106C67.4628 91.5164 67.7721 91.0928 68.041 90.7244C68.0862 90.6625 68.1302 90.6022 68.1742 90.5471Z" fill="#F0F0F3"/>
<path d="M73.7141 88.2354H81.2434V80.7061" stroke="#F0F0F3"/>
<path fill-rule="evenodd" clip-rule="evenodd" d="M115.156 86.7074C113.829 86.4267 112.527 86.5798 111.252 86.9881C108.445 87.9067 107.22 90.5093 108.572 93.1119C109.083 94.0815 108.904 94.4133 108.062 94.796C106.939 95.3063 106.097 96.0973 105.715 97.3221C104.796 100.256 106.939 102.476 111.252 102.476C112.094 102.476 113.446 102.17 114.645 101.405C116.738 100.078 117.503 97.4752 116.151 95.4339C115.334 94.2346 115.589 93.7754 116.661 93.1119C117.988 92.2699 118.626 90.9431 118.294 89.3356C117.962 87.6515 116.661 87.0391 115.156 86.7074ZM111.048 101.456C109.006 101.354 108.164 100.435 108.164 98.7765C108.164 97.2711 109.44 95.3318 110.384 95.3829C111.226 95.4339 113.65 98.011 113.65 98.9041C113.676 100.307 112.272 101.507 111.048 101.456ZM113.854 92.7802C112.553 92.7547 111.328 91.5555 111.252 89.9735C111.175 88.417 112.221 87.7536 113.625 87.677C115.079 87.6005 115.794 88.3915 115.87 89.9479C115.691 91.1727 115.334 92.8057 113.854 92.7802ZM122.351 95.1775C122.373 94.4874 122.618 93.8474 122.847 93.2479C123.16 92.4288 123.445 91.6853 123.091 90.9928C122.759 90.3549 121.075 90.7632 119.876 91.3756C121.331 91.6307 121.433 92.2686 121.075 93.4679C120.437 95.4326 119.978 97.4739 119.57 99.5152C119.315 100.868 119.774 102.067 121.305 102.373C122.938 102.679 124.137 101.812 124.979 100.536C126 98.9793 126.638 97.2187 125.668 95.4581C124.834 93.992 123.499 94.6294 122.383 95.1624L122.351 95.1775ZM124.367 96.8615C124.188 98.3159 123.806 99.7193 122.887 100.893C122.555 101.327 122.096 101.812 121.484 101.556C120.897 101.327 120.82 100.689 120.922 100.128C121.203 98.6987 121.509 97.2698 122.504 96.1471C122.862 95.7388 123.295 95.2795 123.908 95.5857C124.418 95.8154 124.418 96.3512 124.367 96.8615ZM133.259 97.6264C133.049 98.2899 132.838 98.9533 132.634 99.6167C132.149 101.275 132.149 101.275 134.318 100.918C134.222 101.021 134.128 101.122 134.038 101.22C133.001 102.342 132.308 103.091 131.205 101.683C130.797 101.148 130.618 101.046 130.032 101.709C128.909 102.985 127.276 102.423 126.791 100.714C126.23 98.7747 127.659 95.8148 129.496 94.8452C130.184 94.4699 130.872 94.622 131.566 94.7754C132.287 94.9349 133.015 95.0958 133.757 94.6666C134.14 94.4624 133.987 95.279 133.884 95.6362C133.68 96.2996 133.47 96.963 133.259 97.6264ZM130.083 100.586C130.976 99.4891 131.358 98.1623 131.639 96.8099C131.741 96.2996 131.563 95.7893 131.052 95.5851C130.644 95.432 130.236 95.6872 129.955 95.9934C128.909 97.0906 128.552 98.494 128.373 99.8463C128.386 99.9876 128.383 100.129 128.379 100.266C128.37 100.672 128.361 101.04 128.781 101.25C129.371 101.556 129.68 101.132 129.949 100.763C129.995 100.702 130.039 100.641 130.083 100.586Z" fill="#F0F0F3"/>
<path d="M135.622 98.2765H143.152V90.7471" stroke="#F0F0F3"/>
<path fill-rule="evenodd" clip-rule="evenodd" d="M182.92 74.1576C181.593 73.8769 180.292 74.03 179.016 74.4383C176.209 75.3569 174.985 77.9595 176.337 80.5621C176.847 81.5317 176.669 81.8635 175.827 82.2462C174.704 82.7565 173.862 83.5475 173.479 84.7723C172.561 87.7066 174.704 89.9265 179.016 89.9265C179.858 89.9265 181.211 89.6203 182.41 88.8548C184.502 87.528 185.268 84.9254 183.915 82.8841C183.099 81.6848 183.354 81.2256 184.426 80.5621C185.752 79.7201 186.39 78.3933 186.059 76.7858C185.727 75.1017 184.426 74.4893 182.92 74.1576ZM178.812 88.9059C176.771 88.8038 175.929 87.8852 175.929 86.2267C175.929 84.7212 177.205 82.782 178.149 82.8331C178.991 82.8841 181.415 85.4612 181.415 86.3543C181.44 87.7577 180.037 88.9569 178.812 88.9059ZM181.619 80.2304C180.318 80.2049 179.093 79.0057 179.016 77.4237C178.94 75.8672 179.986 75.2038 181.389 75.1272C182.844 75.0507 183.558 75.8417 183.635 77.3981C183.456 78.6229 183.099 80.2559 181.619 80.2304ZM190.116 82.6271C190.137 81.937 190.382 81.297 190.611 80.6976C190.925 79.8784 191.209 79.1349 190.856 78.4425C190.524 77.8046 188.84 78.2128 187.641 78.8252C189.095 79.0804 189.197 79.7183 188.84 80.9175C188.202 82.8822 187.743 84.9235 187.334 86.9648C187.079 88.3172 187.539 89.5164 189.069 89.8226C190.703 90.1288 191.902 89.2613 192.744 87.9854C193.764 86.429 194.402 84.6684 193.433 82.9078C192.599 81.4417 191.264 82.079 190.147 82.612L190.116 82.6271ZM192.131 84.3111C191.953 85.7656 191.57 87.1689 190.651 88.3427C190.32 88.7764 189.86 89.2613 189.248 89.0061C188.661 88.7764 188.585 88.1385 188.687 87.5772C188.967 86.1483 189.274 84.7194 190.269 83.5967C190.626 83.1884 191.06 82.7291 191.672 83.0353C192.182 83.265 192.182 83.8008 192.131 84.3111ZM201.024 85.0789C200.813 85.7423 200.603 86.4057 200.399 87.0691C199.914 88.7277 199.914 88.7277 202.083 88.3705C201.986 88.4732 201.893 88.5742 201.802 88.6725C200.765 89.7941 200.072 90.5436 198.97 89.1359C198.562 88.6001 198.383 88.498 197.796 89.1615C196.673 90.4373 195.04 89.8759 194.556 88.1663C193.994 86.2271 195.423 83.2672 197.26 82.2976C197.948 81.9224 198.636 82.0745 199.33 82.2278C200.052 82.3873 200.78 82.5483 201.521 82.119C201.904 81.9149 201.751 82.7314 201.649 83.0886C201.445 83.7521 201.234 84.4155 201.024 85.0789ZM197.847 88.0387C198.74 86.9416 199.123 85.6147 199.404 84.2624C199.506 83.7521 199.327 83.2417 198.817 83.0376C198.408 82.8845 198 83.1397 197.72 83.4459C196.673 84.5431 196.316 85.9464 196.138 87.2988C196.15 87.44 196.147 87.5813 196.144 87.7181C196.134 88.1249 196.126 88.4921 196.546 88.7022C197.136 89.008 197.445 88.5844 197.714 88.216C197.759 88.1541 197.803 88.0938 197.847 88.0387Z" fill="#F0F0F3"/>
<path d="M203.387 85.7267H210.916V78.1973" stroke="#F0F0F3"/>
<path fill-rule="evenodd" clip-rule="evenodd" d="M243.155 74.1576C241.828 73.8769 240.527 74.03 239.251 74.4383C236.444 75.3569 235.22 77.9595 236.572 80.5621C237.082 81.5317 236.904 81.8635 236.062 82.2462C234.939 82.7565 234.097 83.5475 233.714 84.7723C232.796 87.7066 234.939 89.9265 239.251 89.9265C240.093 89.9265 241.446 89.6203 242.645 88.8548C244.737 87.528 245.503 84.9254 244.15 82.8841C243.334 81.6848 243.589 81.2256 244.661 80.5621C245.987 79.7201 246.625 78.3933 246.294 76.7858C245.962 75.1017 244.661 74.4893 243.155 74.1576ZM239.047 88.9059C237.006 88.8038 236.164 87.8852 236.164 86.2267C236.164 84.7212 237.44 82.782 238.384 82.8331C239.226 82.8841 241.65 85.4612 241.65 86.3543C241.675 87.7577 240.272 88.9569 239.047 88.9059ZM241.854 80.2304C240.553 80.2049 239.328 79.0057 239.251 77.4237C239.175 75.8672 240.221 75.2038 241.624 75.1272C243.079 75.0507 243.793 75.8417 243.87 77.3981C243.691 78.6229 243.334 80.2559 241.854 80.2304ZM250.351 82.6271C250.372 81.937 250.617 81.297 250.846 80.6976C251.16 79.8784 251.444 79.1349 251.091 78.4425C250.759 77.8046 249.075 78.2128 247.876 78.8252C249.33 79.0804 249.432 79.7183 249.075 80.9175C248.437 82.8822 247.978 84.9235 247.569 86.9648C247.314 88.3172 247.774 89.5164 249.305 89.8226C250.938 90.1288 252.137 89.2613 252.979 87.9854C254 86.429 254.637 84.6684 253.668 82.9078C252.834 81.4417 251.499 82.079 250.382 82.612L250.351 82.6271ZM252.367 84.3111C252.188 85.7656 251.805 87.1689 250.887 88.3427C250.555 88.7764 250.096 89.2613 249.483 89.0061C248.896 88.7764 248.82 88.1385 248.922 87.5772C249.203 86.1483 249.509 84.7194 250.504 83.5967C250.861 83.1884 251.295 82.7291 251.907 83.0353C252.418 83.265 252.418 83.8008 252.367 84.3111ZM261.259 85.0789C261.048 85.7423 260.838 86.4057 260.634 87.0691C260.149 88.7277 260.149 88.7277 262.318 88.3705C262.221 88.4732 262.128 88.5742 262.037 88.6725C261 89.7941 260.308 90.5436 259.205 89.1359C258.797 88.6001 258.618 88.498 258.031 89.1615C256.908 90.4373 255.275 89.8759 254.791 88.1663C254.229 86.2271 255.658 83.2672 257.495 82.2976C258.183 81.9224 258.871 82.0745 259.565 82.2278C260.287 82.3873 261.015 82.5483 261.756 82.119C262.139 81.9149 261.986 82.7314 261.884 83.0886C261.68 83.7521 261.469 84.4155 261.259 85.0789ZM258.082 88.0387C258.975 86.9416 259.358 85.6147 259.639 84.2624C259.741 83.7521 259.562 83.2417 259.052 83.0376C258.643 82.8845 258.235 83.1397 257.955 83.4459C256.908 84.5431 256.551 85.9464 256.373 87.2988C256.385 87.44 256.382 87.5813 256.379 87.7181C256.369 88.1249 256.361 88.4921 256.781 88.7022C257.371 89.008 257.68 88.5844 257.949 88.216C257.994 88.1541 258.038 88.0938 258.082 88.0387Z" fill="#F0F0F3"/>
<path d="M263.622 85.7267H271.151V78.1973" stroke="#F0F0F3"/>
<path fill-rule="evenodd" clip-rule="evenodd" d="M308.813 74.1576C307.486 73.8769 306.185 74.03 304.909 74.4383C302.103 75.3569 300.878 77.9595 302.23 80.5621C302.741 81.5317 302.562 81.8635 301.72 82.2462C300.597 82.7565 299.755 83.5475 299.372 84.7723C298.454 87.7066 300.597 89.9265 304.909 89.9265C305.751 89.9265 307.104 89.6203 308.303 88.8548C310.395 87.528 311.161 84.9254 309.808 82.8841C308.992 81.6848 309.247 81.2256 310.319 80.5621C311.646 79.7201 312.284 78.3933 311.952 76.7858C311.62 75.1017 310.319 74.4893 308.813 74.1576ZM304.705 88.9059C302.664 88.8038 301.822 87.8852 301.822 86.2267C301.822 84.7212 303.098 82.782 304.042 82.8331C304.884 82.8841 307.308 85.4612 307.308 86.3543C307.333 87.7577 305.93 88.9569 304.705 88.9059ZM307.512 80.2304C306.211 80.2049 304.986 79.0057 304.909 77.4237C304.833 75.8672 305.879 75.2038 307.282 75.1272C308.737 75.0507 309.451 75.8417 309.528 77.3981C309.349 78.6229 308.992 80.2559 307.512 80.2304ZM316.009 82.6271C316.03 81.937 316.275 81.297 316.505 80.6976C316.818 79.8784 317.102 79.1349 316.749 78.4425C316.417 77.8046 314.733 78.2128 313.534 78.8252C314.988 79.0804 315.09 79.7183 314.733 80.9175C314.095 82.8822 313.636 84.9235 313.228 86.9648C312.972 88.3172 313.432 89.5164 314.963 89.8226C316.596 90.1288 317.795 89.2613 318.637 87.9854C319.658 86.429 320.296 84.6684 319.326 82.9078C318.492 81.4417 317.157 82.079 316.04 82.612L316.009 82.6271ZM318.025 84.3111C317.846 85.7656 317.463 87.1689 316.545 88.3427C316.213 88.7764 315.754 89.2613 315.141 89.0061C314.554 88.7764 314.478 88.1385 314.58 87.5772C314.861 86.1483 315.167 84.7194 316.162 83.5967C316.519 83.1884 316.953 82.7291 317.565 83.0353C318.076 83.265 318.076 83.8008 318.025 84.3111ZM326.917 85.0789C326.706 85.7423 326.496 86.4057 326.292 87.0691C325.807 88.7277 325.807 88.7277 327.976 88.3705C327.879 88.4732 327.786 88.5742 327.695 88.6725C326.658 89.7941 325.966 90.5436 324.863 89.1359C324.455 88.6001 324.276 88.498 323.689 89.1615C322.567 90.4373 320.933 89.8759 320.449 88.1663C319.887 86.2271 321.316 83.2672 323.153 82.2976C323.841 81.9224 324.529 82.0745 325.223 82.2278C325.945 82.3873 326.673 82.5483 327.415 82.119C327.797 81.9149 327.644 82.7314 327.542 83.0886C327.338 83.7521 327.128 84.4155 326.917 85.0789ZM323.74 88.0387C324.633 86.9416 325.016 85.6147 325.297 84.2624C325.399 83.7521 325.22 83.2417 324.71 83.0376C324.302 82.8845 323.893 83.1397 323.613 83.4459C322.567 84.5431 322.209 85.9464 322.031 87.2988C322.044 87.44 322.04 87.5813 322.037 87.7181C322.027 88.1249 322.019 88.4921 322.439 88.7022C323.029 89.008 323.338 88.5844 323.607 88.216C323.652 88.1541 323.696 88.0938 323.74 88.0387Z" fill="#F0F0F3"/>
<path d="M329.28 85.7267H336.81V78.1973" stroke="#F0F0F3"/>
<path d="M778.593 14.3008V59.3747" stroke="#F0F0F3" stroke-width="0.862542" stroke-miterlimit="2"/>
<path d="M62.6456 68.7652C62.6456 71.0819 64.5629 72.4799 66.9595 72.4799C70.9138 72.4799 75.7868 68.8051 75.7868 65.0106C75.7868 62.7738 73.9894 61.2959 71.433 61.2959C66.56 61.2959 62.6456 64.9307 62.6456 68.7652Z" fill="#F0F0F3"/>
<path d="M115.759 65.8506C115.919 65.8506 116.678 65.4912 116.797 65.4113C116.837 65.4113 116.877 65.3713 116.917 65.3713C117.197 65.3713 117.436 65.7708 117.436 66.0903V70.0446C117.436 70.484 117.237 70.8435 116.997 70.9633C116.757 71.0432 115.919 71.4027 115.919 71.4027C115.639 71.4826 115.439 71.8021 115.439 72.0418V74.8777C115.439 75.1174 115.559 75.2372 115.759 75.2372C115.799 75.2372 115.879 75.1973 115.919 75.1973C115.919 75.1973 116.478 74.9576 116.837 74.8378C116.877 74.7978 116.917 74.7978 116.957 74.7978C117.237 74.7978 117.436 75.2372 117.436 75.4369V80.3499C117.436 80.5895 117.676 80.7892 117.956 80.7892C118.355 80.7892 118.635 80.5895 118.635 80.3499V74.7978C118.635 74.2786 118.834 73.999 119.034 73.9191L121.471 72.9205C121.511 72.9205 121.591 72.8806 121.63 72.8806C121.95 72.8806 122.15 73.3599 122.15 73.5995V78.5924C122.15 78.832 122.389 79.0318 122.669 79.0318C123.108 79.0318 123.348 78.832 123.348 78.5924V72.9205C123.348 72.601 123.508 72.1217 123.787 72.0018C124.067 71.882 124.906 71.5625 124.906 71.5625C125.185 71.4426 125.385 71.1231 125.385 70.8834V68.0475C125.385 67.8478 125.265 67.728 125.105 67.728C125.026 67.728 124.986 67.728 124.906 67.7679L123.867 68.1673C123.628 68.1673 123.348 67.9277 123.348 67.4484V63.7337C123.348 63.4541 123.548 62.6952 123.867 62.5753L124.906 62.1759C125.185 62.0561 125.385 61.7365 125.385 61.4969V58.6609C125.385 58.4612 125.265 58.3414 125.105 58.3414C125.026 58.3414 124.986 58.3414 124.906 58.3813C124.906 58.3813 124.107 58.7009 123.907 58.7408C123.628 58.7408 123.348 58.5411 123.348 58.2216V53.3486C123.348 53.1089 123.108 52.9092 122.789 52.9092C122.389 52.9092 122.15 53.1089 122.15 53.3486V58.5411C122.11 58.9405 121.99 59.4598 121.63 59.6995C121.151 59.9791 119.793 60.5383 119.114 60.698C118.755 60.698 118.635 60.2187 118.635 59.8992V55.106C118.635 54.8664 118.355 54.6667 118.076 54.6667C117.676 54.6667 117.436 54.8664 117.436 55.106V60.4983C117.436 61.0575 117.197 61.4569 116.957 61.5768C116.718 61.6966 115.919 62.0161 115.919 62.0161C115.639 62.096 115.439 62.4156 115.439 62.6552V65.4912C115.439 65.7308 115.559 65.8506 115.759 65.8506ZM118.515 68.0874C118.515 66.8492 118.555 65.4512 118.635 65.1317C118.715 64.4526 120.552 63.6138 121.551 63.6138C121.83 63.6138 122.07 63.6937 122.15 63.8535C122.23 64.0532 122.309 65.0518 122.309 66.1302C122.309 67.2087 122.23 68.3271 122.15 68.6866C121.91 69.4854 120.033 70.2843 119.114 70.2843C118.874 70.2843 118.675 70.2044 118.635 70.0846C118.555 69.9248 118.515 69.0461 118.515 68.0874Z" fill="#F0F0F3"/>
<path d="M127.881 68.7652C127.881 71.0819 129.798 72.4799 132.195 72.4799C136.149 72.4799 141.022 68.8051 141.022 65.0106C141.022 62.7738 139.225 61.2959 136.669 61.2959C131.796 61.2959 127.881 64.9307 127.881 68.7652Z" fill="#F0F0F3"/>
<path d="M186.937 63.7584C186.937 66.075 188.854 67.473 191.251 67.473C195.205 67.473 200.078 63.7983 200.078 60.0037C200.078 57.7669 198.281 56.2891 195.724 56.2891C190.851 56.2891 186.937 59.9239 186.937 63.7584Z" fill="#F0F0F3"/>
<path d="M240.196 63.667C240.316 63.8267 240.435 63.8667 240.555 63.8667C240.675 63.8667 240.795 63.7868 240.795 63.7868C241.993 63.1078 242.952 62.0293 243.95 61.3503C247.505 58.8738 248.744 56.4373 248.744 54.5999C248.744 52.3232 246.986 50.8853 245.149 50.7654C244.47 50.7654 243.511 51.085 242.952 51.4445C242.712 51.6442 242.273 52.0037 242.073 52.0037C241.993 52.0037 241.953 52.0037 241.873 51.9637C241.594 51.8439 241.434 51.5643 241.434 51.2847C241.474 50.4059 241.714 40.8197 241.714 40.0208C241.714 39.5815 241.354 39.3418 240.955 39.3418C240.396 39.3418 239.756 39.7412 239.716 40.4602C239.716 40.4602 239.876 63.2675 240.196 63.667ZM241.554 54.8396C241.833 54.0407 243.431 52.8824 244.35 52.8824C245.508 52.8824 245.988 54.2005 245.988 55.1991C245.988 57.356 244.15 59.5129 242.433 60.5914C242.273 60.6712 242.153 60.7112 242.033 60.7112C241.674 60.7112 241.594 60.3118 241.594 60.112C241.594 60.112 241.474 57.7155 241.474 56.1178C241.474 55.4787 241.514 54.9994 241.554 54.8396Z" fill="#F0F0F3"/>
<path d="M251.246 58.7525C251.246 61.0692 253.163 62.4672 255.56 62.4672C259.514 62.4672 264.387 58.7924 264.387 54.9979C264.387 52.7611 262.59 51.2832 260.034 51.2832C255.161 51.2832 251.246 54.918 251.246 58.7525Z" fill="#F0F0F3"/>
<path d="M310.302 58.7525C310.302 61.0692 312.219 62.4672 314.616 62.4672C318.57 62.4672 323.443 58.7924 323.443 54.9979C323.443 52.7611 321.646 51.2832 319.089 51.2832C314.216 51.2832 310.302 54.918 310.302 58.7525Z" fill="#F0F0F3"/>
<path d="M422.455 85.8848C422.615 85.8848 423.374 85.5253 423.494 85.4455C423.534 85.4455 423.574 85.4055 423.614 85.4055C423.893 85.4055 424.133 85.8049 424.133 86.1245V90.0788C424.133 90.5182 423.933 90.8777 423.693 90.9975C423.454 91.0774 422.615 91.4369 422.615 91.4369C422.335 91.5168 422.136 91.8363 422.136 92.076V94.9119C422.136 95.1515 422.255 95.2714 422.455 95.2714C422.495 95.2714 422.575 95.2314 422.615 95.2314C422.615 95.2314 423.174 94.9918 423.534 94.8719C423.574 94.832 423.614 94.832 423.653 94.832C423.933 94.832 424.133 95.2714 424.133 95.4711V100.384C424.133 100.624 424.372 100.823 424.652 100.823C425.051 100.823 425.331 100.624 425.331 100.384V94.832C425.331 94.3127 425.531 94.0332 425.73 93.9533L428.167 92.9547C428.207 92.9547 428.287 92.9148 428.327 92.9148C428.646 92.9148 428.846 93.3941 428.846 93.6337V98.6266C428.846 98.8662 429.086 99.0659 429.365 99.0659C429.805 99.0659 430.044 98.8662 430.044 98.6266V92.9547C430.044 92.6352 430.204 92.1558 430.484 92.036C430.763 91.9162 431.602 91.5966 431.602 91.5966C431.882 91.4768 432.081 91.1573 432.081 90.9176V88.0817C432.081 87.882 431.962 87.7621 431.802 87.7621C431.722 87.7621 431.682 87.7621 431.602 87.8021L430.564 88.2015C430.324 88.2015 430.044 87.9618 430.044 87.4825V83.7679C430.044 83.4883 430.244 82.7293 430.564 82.6095L431.602 82.2101C431.882 82.0903 432.081 81.7707 432.081 81.5311V78.6951C432.081 78.4954 431.962 78.3756 431.802 78.3756C431.722 78.3756 431.682 78.3756 431.602 78.4155C431.602 78.4155 430.803 78.7351 430.603 78.775C430.324 78.775 430.044 78.5753 430.044 78.2558V73.3827C430.044 73.1431 429.805 72.9434 429.485 72.9434C429.086 72.9434 428.846 73.1431 428.846 73.3827V78.5753C428.806 78.9747 428.686 79.494 428.327 79.7336C427.847 80.0132 426.489 80.5724 425.81 80.7322C425.451 80.7322 425.331 80.2529 425.331 79.9333V75.1402C425.331 74.9006 425.051 74.7008 424.772 74.7008C424.372 74.7008 424.133 74.9006 424.133 75.1402V80.5325C424.133 81.0917 423.893 81.4911 423.653 81.6109C423.414 81.7308 422.615 82.0503 422.615 82.0503C422.335 82.1302 422.136 82.4497 422.136 82.6894V85.5253C422.136 85.765 422.255 85.8848 422.455 85.8848ZM425.211 88.1216C425.211 86.8834 425.251 85.4854 425.331 85.1659C425.411 84.4868 427.248 83.648 428.247 83.648C428.526 83.648 428.766 83.7279 428.846 83.8877C428.926 84.0874 429.006 85.086 429.006 86.1644C429.006 87.2429 428.926 88.3613 428.846 88.7208C428.606 89.5196 426.729 90.3185 425.81 90.3185C425.571 90.3185 425.371 90.2386 425.331 90.1188C425.251 89.959 425.211 89.0802 425.211 88.1216Z" fill="#F0F0F3"/>
<path d="M434.578 88.7974C434.578 91.1141 436.495 92.5121 438.891 92.5121C442.846 92.5121 447.719 88.8374 447.719 85.0428C447.719 82.806 445.921 81.3281 443.365 81.3281C438.492 81.3281 434.578 84.9629 434.578 88.7974Z" fill="#F0F0F3"/>
<path d="M493.633 83.7925C493.633 86.1092 495.551 87.5072 497.947 87.5072C501.901 87.5072 506.774 83.8325 506.774 80.0379C506.774 77.8011 504.977 76.3232 502.421 76.3232C497.548 76.3232 493.633 79.958 493.633 83.7925Z" fill="#F0F0F3"/>
<path d="M546.891 83.6992C547.01 83.8589 547.13 83.8989 547.25 83.8989C547.37 83.8989 547.49 83.819 547.49 83.819C548.688 83.14 549.647 82.0615 550.645 81.3825C554.2 78.906 555.438 76.4695 555.438 74.6322C555.438 72.3554 553.681 70.9175 551.844 70.7977C551.165 70.7977 550.206 71.1172 549.647 71.4767C549.407 71.6764 548.968 72.0359 548.768 72.0359C548.688 72.0359 548.648 72.0359 548.568 71.9959C548.289 71.8761 548.129 71.5965 548.129 71.3169C548.169 70.4382 548.408 60.8519 548.408 60.053C548.408 59.6137 548.049 59.374 547.65 59.374C547.09 59.374 546.451 59.7735 546.411 60.4924C546.411 60.4924 546.571 83.2997 546.891 83.6992ZM548.249 74.8718C548.528 74.073 550.126 72.9146 551.045 72.9146C552.203 72.9146 552.682 74.2327 552.682 75.2313C552.682 77.3882 550.845 79.5451 549.127 80.6236C548.968 80.7035 548.848 80.7434 548.728 80.7434C548.369 80.7434 548.289 80.344 548.289 80.1443C548.289 80.1443 548.169 77.7477 548.169 76.15C548.169 75.5109 548.209 75.0316 548.249 74.8718Z" fill="#F0F0F3"/>
<path d="M557.941 78.7847C557.941 81.1014 559.858 82.4994 562.255 82.4994C566.209 82.4994 571.082 78.8247 571.082 75.0301C571.082 72.7933 569.285 71.3154 566.728 71.3154C561.855 71.3154 557.941 74.9502 557.941 78.7847Z" fill="#F0F0F3"/>
<path d="M616.996 78.7847C616.996 81.1014 618.913 82.4994 621.31 82.4994C625.264 82.4994 630.137 78.8247 630.137 75.0301C630.137 72.7933 628.34 71.3154 625.784 71.3154C620.91 71.3154 616.996 74.9502 616.996 78.7847Z" fill="#F0F0F3"/>
<path d="M670.256 78.6865C670.375 78.8463 670.495 78.8862 670.615 78.8862C670.735 78.8862 670.855 78.8063 670.855 78.8063C672.053 78.1273 673.012 77.0488 674.01 76.3698C677.565 73.8933 678.803 71.4568 678.803 69.6195C678.803 67.3427 677.046 65.9048 675.208 65.785C674.529 65.785 673.571 66.1045 673.012 66.464C672.772 66.6637 672.333 67.0232 672.133 67.0232C672.053 67.0232 672.013 67.0232 671.933 66.9832C671.654 66.8634 671.494 66.5838 671.494 66.3042C671.534 65.4255 671.773 55.8392 671.773 55.0404C671.773 54.601 671.414 54.3613 671.014 54.3613C670.455 54.3613 669.816 54.7608 669.776 55.4797C669.776 55.4797 669.936 78.2871 670.256 78.6865ZM671.614 69.8591C671.893 69.0603 673.491 67.9019 674.41 67.9019C675.568 67.9019 676.047 69.22 676.047 70.2186C676.047 72.3755 674.21 74.5324 672.492 75.6109C672.333 75.6908 672.213 75.7307 672.093 75.7307C671.733 75.7307 671.654 75.3313 671.654 75.1316C671.654 75.1316 671.534 72.735 671.534 71.1373C671.534 70.4982 671.574 70.0189 671.614 69.8591Z" fill="#F0F0F3"/>
<path d="M681.306 73.7779C681.306 76.0946 683.223 77.4926 685.62 77.4926C689.574 77.4926 694.447 73.8178 694.447 70.0233C694.447 67.7865 692.65 66.3086 690.093 66.3086C685.22 66.3086 681.306 69.9434 681.306 73.7779Z" fill="#F0F0F3"/>
<path d="M740.361 73.7779C740.361 76.0946 742.278 77.4926 744.675 77.4926C748.629 77.4926 753.502 73.8178 753.502 70.0233C753.502 67.7865 751.705 66.3086 749.148 66.3086C744.275 66.3086 740.361 69.9434 740.361 73.7779Z" fill="#F0F0F3"/>
<path d="M19.5474 56.9228C20.4661 56.9228 21.5046 56.8429 22.3034 56.6831C22.7428 56.6032 22.8227 56.5633 22.9026 57.0426C23.3819 59.7188 23.981 63.1938 23.981 65.0711C23.981 70.9826 19.9868 71.7016 17.6301 71.7016C15.4732 71.7016 14.4347 71.0625 14.4347 70.5433C14.4347 70.2637 14.7942 70.1438 15.7129 69.8642C16.9511 69.5047 18.389 68.4263 18.389 66.1096C18.389 63.9128 16.991 62.0354 14.5545 62.0354C11.8784 62.0354 10.2807 64.1524 10.2807 66.6289C10.2807 69.2251 11.8384 73.1395 17.8698 73.1395C20.546 73.1395 25.7385 71.9413 25.7385 65.151C25.7385 62.8742 25.0195 59.0797 24.5802 56.6032C24.5003 56.1239 24.5402 56.1639 25.0994 55.9242C29.1337 54.3265 31.8098 50.9313 31.8098 46.4178C31.8098 41.3051 28.0552 36.7916 22.1836 36.7916C21.1451 36.7916 21.1451 36.7916 21.0253 36.0726L20.0267 30.2809C19.9468 29.8016 20.0267 29.7617 20.2664 29.522C24.5802 25.4878 27.8555 20.4151 27.8555 14.3038C27.8555 10.8288 26.8969 7.39371 25.2592 4.99714C24.6601 4.1184 23.6215 3 23.1822 3C22.623 3 21.3848 4.03851 20.5859 4.91726C17.6301 8.19256 16.6715 13.1854 16.6715 17.3395C16.6715 19.6561 16.9511 22.2524 17.2307 23.8901C17.3106 24.3694 17.3505 24.4493 16.8712 24.8487C11.1195 29.6019 5.00821 35.3137 5.00821 43.3822C5.00821 50.3322 9.7614 56.9228 19.5474 56.9228ZM8.20363 46.0583C8.20363 43.7017 8.60306 40.5462 11.9183 36.7916C14.3149 34.1154 16.1522 32.6376 18.0296 31.1197C18.429 30.8002 18.5089 30.8401 18.5888 31.2795L19.4276 36.3922C19.5474 37.1511 19.5474 37.1111 18.8284 37.3508C15.3134 38.5491 13.0367 41.7046 13.0367 45.0997C13.0367 48.6945 14.914 51.2509 17.6301 52.1696C17.9497 52.2894 18.429 52.4092 18.7086 52.4092C19.0281 52.4092 19.1879 52.2095 19.1879 51.9699C19.1879 51.6903 18.8684 51.5704 18.5888 51.4506C16.9112 50.7316 15.7129 49.0141 15.7129 47.1767C15.7129 44.9 17.2706 43.1824 19.7072 42.5034C20.3462 42.3436 20.4261 42.3836 20.506 42.823L22.5031 54.7259C22.583 55.1653 22.5431 55.1653 21.944 55.2851C21.3049 55.4049 20.506 55.4848 19.7072 55.4848C12.7172 55.4848 8.20363 51.6104 8.20363 46.0583ZM23.7813 9.19113C25.0994 9.19113 26.1779 10.2696 26.1779 12.4664C26.1779 16.9001 22.3833 20.4949 19.2278 23.251C18.9482 23.4907 18.7885 23.4507 18.7086 22.9315C18.5488 21.8929 18.4689 20.5349 18.4689 19.2567C18.4689 13.0256 21.3448 9.19113 23.7813 9.19113ZM22.623 42.1839C25.8583 42.4635 28.5345 45.1796 28.5345 48.6945C28.5345 51.2109 27.0167 53.248 24.7799 54.3664C24.3006 54.6061 24.2207 54.6061 24.1408 54.1268L22.1836 42.7431C22.1037 42.2638 22.1437 42.1439 22.623 42.1839Z" fill="#F0F0F3"/>
<path d="M3.05176e-05 133.916H781.097" stroke="#F0F0F3" stroke-width="0.862542" stroke-miterlimit="2"/>
<path d="M3.05176e-05 123.902H781.097" stroke="#F0F0F3" stroke-width="0.862542" stroke-miterlimit="2"/>
<path d="M3.05176e-05 143.937H781.097" stroke="#F0F0F3" stroke-width="0.862542" stroke-miterlimit="2"/>
<path d="M3.05176e-05 153.948H781.097" stroke="#F0F0F3" stroke-width="0.862542" stroke-miterlimit="2"/>
<path d="M3.05176e-05 163.968H781.097" stroke="#F0F0F3" stroke-width="0.862542" stroke-miterlimit="2"/>
<path d="M395.174 157.925C395.334 157.925 396.093 157.565 396.213 157.485C396.253 157.485 396.292 157.446 396.332 157.446C396.612 157.446 396.852 157.845 396.852 158.165V162.119C396.852 162.558 396.652 162.918 396.412 163.038C396.173 163.117 395.334 163.477 395.334 163.477C395.054 163.557 394.855 163.876 394.855 164.116V166.952C394.855 167.192 394.974 167.311 395.174 167.311C395.214 167.311 395.294 167.271 395.334 167.271C395.334 167.271 395.893 167.032 396.253 166.912C396.292 166.872 396.332 166.872 396.372 166.872C396.652 166.872 396.852 167.311 396.852 167.511V172.424C396.852 172.664 397.091 172.863 397.371 172.863C397.77 172.863 398.05 172.664 398.05 172.424V166.872C398.05 166.353 398.25 166.073 398.449 165.993L400.886 164.995C400.926 164.995 401.006 164.955 401.046 164.955C401.365 164.955 401.565 165.434 401.565 165.674V170.667C401.565 170.906 401.805 171.106 402.084 171.106C402.524 171.106 402.763 170.906 402.763 170.667V164.995C402.763 164.675 402.923 164.196 403.203 164.076C403.482 163.956 404.321 163.637 404.321 163.637C404.601 163.517 404.8 163.197 404.8 162.958V160.122C404.8 159.922 404.68 159.802 404.521 159.802C404.441 159.802 404.401 159.802 404.321 159.842L403.282 160.242C403.043 160.242 402.763 160.002 402.763 159.523V155.808C402.763 155.528 402.963 154.769 403.282 154.65L404.321 154.25C404.601 154.13 404.8 153.811 404.8 153.571V150.735C404.8 150.535 404.68 150.416 404.521 150.416C404.441 150.416 404.401 150.416 404.321 150.456C404.321 150.456 403.522 150.775 403.322 150.815C403.043 150.815 402.763 150.615 402.763 150.296V145.423C402.763 145.183 402.524 144.983 402.204 144.983C401.805 144.983 401.565 145.183 401.565 145.423V150.615C401.525 151.015 401.405 151.534 401.046 151.774C400.566 152.053 399.208 152.612 398.529 152.772C398.17 152.772 398.05 152.293 398.05 151.973V147.18C398.05 146.941 397.77 146.741 397.491 146.741C397.091 146.741 396.852 146.941 396.852 147.18V152.573C396.852 153.132 396.612 153.531 396.372 153.651C396.133 153.771 395.334 154.09 395.334 154.09C395.054 154.17 394.855 154.49 394.855 154.729V157.565C394.855 157.805 394.974 157.925 395.174 157.925ZM397.93 160.162C397.93 158.923 397.97 157.525 398.05 157.206C398.13 156.527 399.967 155.688 400.966 155.688C401.245 155.688 401.485 155.768 401.565 155.928C401.645 156.127 401.725 157.126 401.725 158.204C401.725 159.283 401.645 160.401 401.565 160.761C401.325 161.56 399.448 162.359 398.529 162.359C398.29 162.359 398.09 162.279 398.05 162.159C397.97 161.999 397.93 161.12 397.93 160.162Z" fill="#F0F0F3"/>
<path d="M407.297 160.839C407.297 163.156 409.214 164.554 411.61 164.554C415.565 164.554 420.438 160.879 420.438 157.085C420.438 154.848 418.64 153.37 416.084 153.37C411.211 153.37 407.297 157.005 407.297 160.839Z" fill="#F0F0F3"/>
<path d="M0 238.357H781.097" stroke="#F0F0F3" stroke-width="0.862542" stroke-miterlimit="2"/>
<path d="M0 228.343H781.097" stroke="#F0F0F3" stroke-width="0.862542" stroke-miterlimit="2"/>
<path d="M0 248.377H781.097" stroke="#F0F0F3" stroke-width="0.862542" stroke-miterlimit="2"/>
<path d="M0 258.389H781.097" stroke="#F0F0F3" stroke-width="0.862542" stroke-miterlimit="2"/>
<path d="M0 268.408H781.097" stroke="#F0F0F3" stroke-width="0.862542" stroke-miterlimit="2"/>
<path d="M40.3431 225.838V270.912" stroke="#F0F0F3" stroke-width="0.86" stroke-miterlimit="2"/>
<path d="M105.566 225.838V270.912" stroke="#F0F0F3" stroke-width="0.86" stroke-miterlimit="2"/>
<path d="M164.598 225.838V270.912" stroke="#F0F0F3" stroke-width="0.86" stroke-miterlimit="2"/>
<path d="M228.909 225.838V270.912" stroke="#F0F0F3" stroke-width="0.86" stroke-miterlimit="2"/>
<path d="M287.965 225.838V270.912" stroke="#F0F0F3" stroke-width="0.86" stroke-miterlimit="2"/>
<path d="M347.022 225.838V270.912" stroke="#F0F0F3" stroke-width="0.86" stroke-miterlimit="2"/>
<path d="M412.243 225.838V270.912" stroke="#F0F0F3" stroke-width="0.86" stroke-miterlimit="2"/>
<path d="M471.3 225.838V270.912" stroke="#F0F0F3" stroke-width="0.86" stroke-miterlimit="2"/>
<path d="M535.609 225.838V270.912" stroke="#F0F0F3" stroke-width="0.86" stroke-miterlimit="2"/>
<path d="M594.667 225.838V270.912" stroke="#F0F0F3" stroke-width="0.86" stroke-miterlimit="2"/>
<path d="M658.978 225.838V270.912" stroke="#F0F0F3" stroke-width="0.86" stroke-miterlimit="2"/>
<path d="M718.033 225.838V270.912" stroke="#F0F0F3" stroke-width="0.86" stroke-miterlimit="2"/>
<path d="M375.49 230.22C375.49 232.537 377.407 233.935 379.804 233.935C383.758 233.935 388.631 230.26 388.631 226.466C388.631 224.229 386.834 222.751 384.277 222.751C379.404 222.751 375.49 226.386 375.49 230.22Z" fill="#F0F0F3"/>
<path d="M0 26.8223H781.097" stroke="#F0F0F3" stroke-width="0.862542" stroke-miterlimit="2"/>
<path d="M0 16.8076H781.097" stroke="#F0F0F3" stroke-width="0.862542" stroke-miterlimit="2"/>
<path d="M0 36.8418H781.097" stroke="#F0F0F3" stroke-width="0.862542" stroke-miterlimit="2"/>
<path d="M0 46.8545H781.097" stroke="#F0F0F3" stroke-width="0.862542" stroke-miterlimit="2"/>
<path d="M0 56.874H781.097" stroke="#F0F0F3" stroke-width="0.862542" stroke-miterlimit="2"/>
<path d="M40.3431 14.3008V59.3747" stroke="#F0F0F3" stroke-width="0.86" stroke-miterlimit="2"/>
<path d="M99.3974 14.3008V59.3747" stroke="#F0F0F3" stroke-width="0.86" stroke-miterlimit="2"/>
<path d="M164.635 14.3008V59.3747" stroke="#F0F0F3" stroke-width="0.86" stroke-miterlimit="2"/>
<path d="M223.69 14.3008V59.3747" stroke="#F0F0F3" stroke-width="0.86" stroke-miterlimit="2"/>
<path d="M288 14.3008V59.3747" stroke="#F0F0F3" stroke-width="0.86" stroke-miterlimit="2"/>
<path d="M347.054 14.3008V59.3747" stroke="#F0F0F3" stroke-width="0.86" stroke-miterlimit="2"/>
<path d="M406.109 14.3008V59.3747" stroke="#F0F0F3" stroke-width="0.86" stroke-miterlimit="2"/>
<path d="M471.331 14.3008V59.3747" stroke="#F0F0F3" stroke-width="0.86" stroke-miterlimit="2"/>
<path d="M530.385 14.3008V59.3747" stroke="#F0F0F3" stroke-width="0.86" stroke-miterlimit="2"/>
<path d="M594.694 14.3008V59.3747" stroke="#F0F0F3" stroke-width="0.86" stroke-miterlimit="2"/>
<path d="M653.75 14.3008V59.3747" stroke="#F0F0F3" stroke-width="0.86" stroke-miterlimit="2"/>
<path d="M718.059 14.3008V59.3747" stroke="#F0F0F3" stroke-width="0.86" stroke-miterlimit="2"/>
<path d="M57.6367 66.8877H80.7826" stroke="#F0F0F3" stroke-width="0.862542" stroke-miterlimit="2"/>
<path d="M124.125 66.8867H146.02" stroke="#F0F0F3" stroke-width="0.862542" stroke-miterlimit="2"/>
<path d="M364.347 86.9209H387.494" stroke="#F0F0F3" stroke-width="0.862542" stroke-miterlimit="2"/>
<path d="M364.347 76.9014H387.494" stroke="#F0F0F3" stroke-width="0.862542" stroke-miterlimit="2"/>
<path d="M364.347 66.8867H387.494" stroke="#F0F0F3" stroke-width="0.862542" stroke-miterlimit="2"/>
<path d="M430.821 86.9209H452.716" stroke="#F0F0F3" stroke-width="0.862542" stroke-miterlimit="2"/>
<path d="M433.075 76.9014H452.716" stroke="#F0F0F3" stroke-width="0.862542" stroke-miterlimit="2"/>
<path d="M429.569 66.8867H452.716" stroke="#F0F0F3" stroke-width="0.862542" stroke-miterlimit="2"/>
<path d="M488.624 76.9014H511.771" stroke="#F0F0F3" stroke-width="0.862542" stroke-miterlimit="2"/>
<path d="M488.624 66.8867H511.771" stroke="#F0F0F3" stroke-width="0.862542" stroke-miterlimit="2"/>
<path d="M554.184 76.9014H576.079" stroke="#F0F0F3" stroke-width="0.862542" stroke-miterlimit="2"/>
<path d="M552.933 66.8867H576.08" stroke="#F0F0F3" stroke-width="0.862542" stroke-miterlimit="2"/>
<path d="M611.988 76.9014H635.135" stroke="#F0F0F3" stroke-width="0.862542" stroke-miterlimit="2"/>
<path d="M611.988 66.8867H635.135" stroke="#F0F0F3" stroke-width="0.862542" stroke-miterlimit="2"/>
<path d="M679.803 66.8867H699.444" stroke="#F0F0F3" stroke-width="0.862542" stroke-miterlimit="2"/>
<path d="M735.353 66.8867H758.5" stroke="#F0F0F3" stroke-width="0.862542" stroke-miterlimit="2"/>
<path d="M369.355 88.7974C369.355 91.1141 371.273 92.5121 373.669 92.5121C377.624 92.5121 382.497 88.8374 382.497 85.0428C382.497 82.806 380.699 81.3281 378.143 81.3281C373.27 81.3281 369.355 84.9629 369.355 88.7974Z" fill="#F0F0F3"/>
</svg>
