<svg width="493" height="54" viewBox="0 0 493 54" fill="none" xmlns="http://www.w3.org/2000/svg">
<path fill-rule="evenodd" clip-rule="evenodd" d="M79.6143 5.53516H79.8872V8.55029H79.6143C79.5381 8.20752 79.4006 7.90495 79.2017 7.64258C78.4442 8.4974 77.4772 8.9248 76.3008 8.9248C75.0566 8.9248 74.0389 8.53125 73.2476 7.74414C72.4604 6.95703 72.0669 5.91602 72.0669 4.62109C72.0669 3.77051 72.2489 2.9707 72.6128 2.22168C72.9767 1.46842 73.4845 0.909831 74.1362 0.545898C74.7879 0.181966 75.5031 0 76.2817 0C76.925 0 77.5068 0.133301 78.0273 0.399902C78.5521 0.662272 78.9435 0.954264 79.2017 1.27588C79.3836 0.916178 79.4937 0.543783 79.5317 0.158691H79.811L79.8872 3.42139H79.6143C79.4238 2.26188 79.0345 1.45573 78.4463 1.00293C77.8623 0.55013 77.2021 0.32373 76.4658 0.32373C75.5645 0.32373 74.8472 0.689779 74.314 1.42188C73.785 2.15397 73.5205 3.20133 73.5205 4.56396C73.5205 5.85465 73.8104 6.84489 74.3901 7.53467C74.9699 8.22021 75.6914 8.56299 76.5547 8.56299C77.016 8.56299 77.4878 8.45085 77.9702 8.22656C78.4526 8.00228 78.8335 7.62354 79.1128 7.09033C79.3963 6.5529 79.5635 6.03451 79.6143 5.53516ZM84.0811 3.06885C84.0811 3.23682 84.0303 3.38037 83.9287 3.49951C83.8291 3.61865 83.6914 3.7085 83.5156 3.76904C83.3418 3.83154 83.1406 3.86279 82.9121 3.86279C82.7578 3.86279 82.6025 3.84717 82.4463 3.81592C82.29 3.78662 82.1533 3.7417 82.0361 3.68115L81.9219 3.84521H81.6934L81.6641 3.0835H81.9102C81.9531 3.21436 82.0518 3.33252 82.2061 3.43799C82.3604 3.5415 82.584 3.59326 82.877 3.59326C82.9512 3.59326 83.0312 3.58838 83.1172 3.57861C83.2031 3.56689 83.2852 3.53662 83.3633 3.48779C83.4434 3.43896 83.4834 3.36377 83.4834 3.26221C83.4834 3.17432 83.4424 3.11084 83.3604 3.07178C83.2803 3.03076 83.1289 2.98193 82.9062 2.92529C82.6367 2.85693 82.416 2.79248 82.2441 2.73193C82.0723 2.66943 81.9268 2.58057 81.8076 2.46533C81.6885 2.3501 81.6289 2.20166 81.6289 2.02002C81.6289 1.78955 81.7344 1.60693 81.9453 1.47217C82.1582 1.3374 82.4365 1.27002 82.7803 1.27002C82.9951 1.27002 83.167 1.2876 83.2959 1.32275C83.4248 1.35791 83.5332 1.396 83.6211 1.43701L83.6914 1.2876H83.9258V1.96729H83.6855C83.6641 1.88721 83.6152 1.81396 83.5391 1.74756C83.4629 1.68115 83.3613 1.63037 83.2344 1.59521C83.1094 1.55811 82.9639 1.53955 82.7979 1.53955C82.6611 1.53955 82.5244 1.5542 82.3877 1.5835C82.2529 1.61279 82.1855 1.68213 82.1855 1.7915C82.1855 1.83643 82.1982 1.87354 82.2236 1.90283C82.251 1.93213 82.2969 1.95947 82.3613 1.98486C82.4258 2.01025 82.5391 2.04346 82.7012 2.08447L82.9912 2.15771C83.3096 2.23779 83.5703 2.33643 83.7734 2.45361C83.9785 2.5708 84.0811 2.77588 84.0811 3.06885ZM87.7227 3.74854C87.666 3.75244 87.5674 3.7583 87.4268 3.76611C87.2861 3.77588 87.1279 3.78857 86.9521 3.8042C86.7783 3.82178 86.6387 3.84131 86.5332 3.86279V3.43506C86.2812 3.72412 85.9795 3.86865 85.6279 3.86865C85.3721 3.86865 85.1826 3.81396 85.0596 3.70459C84.9365 3.59521 84.8604 3.4751 84.8311 3.34424C84.8018 3.21143 84.7871 3.06982 84.7871 2.91943V2.05518C84.7871 1.93994 84.7803 1.85596 84.7666 1.80322C84.7529 1.74854 84.7168 1.70752 84.6582 1.68018C84.5996 1.65088 84.5029 1.63623 84.3682 1.63623V1.3667H85.543V2.98096C85.543 3.31299 85.6709 3.479 85.9268 3.479C86.0732 3.479 86.1973 3.42725 86.2988 3.32373C86.4004 3.21826 86.4785 3.11768 86.5332 3.02197V2.05518C86.5332 1.93408 86.5254 1.84717 86.5098 1.79443C86.4961 1.7417 86.459 1.70264 86.3984 1.67725C86.3379 1.6499 86.2373 1.63623 86.0967 1.63623V1.3667H87.2891V3.13037C87.2891 3.22217 87.2979 3.29053 87.3154 3.33545C87.333 3.38037 87.373 3.41553 87.4355 3.44092C87.498 3.46436 87.5938 3.47705 87.7227 3.479V3.74854ZM90.5264 3.06885C90.5264 3.23682 90.4756 3.38037 90.374 3.49951C90.2744 3.61865 90.1367 3.7085 89.9609 3.76904C89.7871 3.83154 89.5859 3.86279 89.3574 3.86279C89.2031 3.86279 89.0479 3.84717 88.8916 3.81592C88.7354 3.78662 88.5986 3.7417 88.4814 3.68115L88.3672 3.84521H88.1387L88.1094 3.0835H88.3555C88.3984 3.21436 88.4971 3.33252 88.6514 3.43799C88.8057 3.5415 89.0293 3.59326 89.3223 3.59326C89.3965 3.59326 89.4766 3.58838 89.5625 3.57861C89.6484 3.56689 89.7305 3.53662 89.8086 3.48779C89.8887 3.43896 89.9287 3.36377 89.9287 3.26221C89.9287 3.17432 89.8877 3.11084 89.8057 3.07178C89.7256 3.03076 89.5742 2.98193 89.3516 2.92529C89.082 2.85693 88.8613 2.79248 88.6895 2.73193C88.5176 2.66943 88.3721 2.58057 88.2529 2.46533C88.1338 2.3501 88.0742 2.20166 88.0742 2.02002C88.0742 1.78955 88.1797 1.60693 88.3906 1.47217C88.6035 1.3374 88.8818 1.27002 89.2256 1.27002C89.4404 1.27002 89.6123 1.2876 89.7412 1.32275C89.8701 1.35791 89.9785 1.396 90.0664 1.43701L90.1367 1.2876H90.3711V1.96729H90.1309C90.1094 1.88721 90.0605 1.81396 89.9844 1.74756C89.9082 1.68115 89.8066 1.63037 89.6797 1.59521C89.5547 1.55811 89.4092 1.53955 89.2432 1.53955C89.1064 1.53955 88.9697 1.5542 88.833 1.5835C88.6982 1.61279 88.6309 1.68213 88.6309 1.7915C88.6309 1.83643 88.6436 1.87354 88.6689 1.90283C88.6963 1.93213 88.7422 1.95947 88.8066 1.98486C88.8711 2.01025 88.9844 2.04346 89.1465 2.08447L89.4365 2.15771C89.7549 2.23779 90.0156 2.33643 90.2188 2.45361C90.4238 2.5708 90.5264 2.77588 90.5264 3.06885ZM158.887 5.53516H158.614C158.563 6.03451 158.396 6.5529 158.113 7.09033C157.833 7.62354 157.453 8.00228 156.97 8.22656C156.488 8.45085 156.016 8.56299 155.555 8.56299C154.691 8.56299 153.97 8.22021 153.39 7.53467C152.81 6.84489 152.521 5.85465 152.521 4.56396C152.521 3.20133 152.785 2.15397 153.314 1.42188C153.847 0.689779 154.564 0.32373 155.466 0.32373C156.202 0.32373 156.862 0.55013 157.446 1.00293C158.035 1.45573 158.424 2.26188 158.614 3.42139H158.887L158.811 0.158691H158.532C158.494 0.543783 158.384 0.916178 158.202 1.27588C157.944 0.954264 157.552 0.662272 157.027 0.399902C156.507 0.133301 155.925 0 155.282 0C154.503 0 153.788 0.181966 153.136 0.545898C152.485 0.909831 151.977 1.46842 151.613 2.22168C151.249 2.9707 151.067 3.77051 151.067 4.62109C151.067 5.91602 151.46 6.95703 152.248 7.74414C153.039 8.53125 154.057 8.9248 155.301 8.9248C156.477 8.9248 157.444 8.4974 158.202 7.64258C158.401 7.90495 158.538 8.20752 158.614 8.55029H158.887V5.53516ZM173.137 4.25635L173.005 4.98877H172.759C172.769 4.9458 172.773 4.91162 172.773 4.88623C172.773 4.80615 172.725 4.76611 172.627 4.76611H170.693V4.49072C170.951 4.25049 171.204 3.98193 171.452 3.68506C171.702 3.38623 171.91 3.07764 172.076 2.75928C172.242 2.43896 172.325 2.13623 172.325 1.85107C172.325 1.68701 172.295 1.54932 172.234 1.43799C172.176 1.32471 172.099 1.2417 172.003 1.18896C171.909 1.13428 171.809 1.10693 171.701 1.10693C171.6 1.10693 171.507 1.13135 171.423 1.18018C171.339 1.22705 171.273 1.29053 171.227 1.37061C171.18 1.45068 171.156 1.53467 171.156 1.62256C171.156 1.72607 171.196 1.85986 171.276 2.02393C171.282 2.03564 171.285 2.04541 171.285 2.05322C171.285 2.06885 171.244 2.09326 171.162 2.12646L170.972 2.20557C170.907 2.23291 170.869 2.24658 170.857 2.24658C170.826 2.24658 170.79 2.19385 170.749 2.08838C170.708 1.98291 170.688 1.86768 170.688 1.74268C170.688 1.56885 170.731 1.4126 170.819 1.27393C170.909 1.13525 171.044 1.02588 171.224 0.945801C171.405 0.86377 171.625 0.822754 171.883 0.822754C172.199 0.822754 172.448 0.884277 172.63 1.00732C172.813 1.12842 172.937 1.26709 172.999 1.42334C173.063 1.57764 173.096 1.72217 173.096 1.85693C173.096 2.13037 173.007 2.39697 172.829 2.65674C172.651 2.91455 172.408 3.19775 172.1 3.50635C172.084 3.52197 172.021 3.58057 171.912 3.68213C171.805 3.78369 171.682 3.89893 171.543 4.02783C171.404 4.15479 171.321 4.23096 171.294 4.25635H173.137ZM163.081 3.06885C163.081 3.23682 163.03 3.38037 162.929 3.49951C162.829 3.61865 162.691 3.7085 162.516 3.76904C162.342 3.83154 162.141 3.86279 161.912 3.86279C161.758 3.86279 161.603 3.84717 161.446 3.81592C161.29 3.78662 161.153 3.7417 161.036 3.68115L160.922 3.84521H160.693L160.664 3.0835H160.91C160.953 3.21436 161.052 3.33252 161.206 3.43799C161.36 3.5415 161.584 3.59326 161.877 3.59326C161.951 3.59326 162.031 3.58838 162.117 3.57861C162.203 3.56689 162.285 3.53662 162.363 3.48779C162.443 3.43896 162.483 3.36377 162.483 3.26221C162.483 3.17432 162.442 3.11084 162.36 3.07178C162.28 3.03076 162.129 2.98193 161.906 2.92529C161.637 2.85693 161.416 2.79248 161.244 2.73193C161.072 2.66943 160.927 2.58057 160.808 2.46533C160.688 2.3501 160.629 2.20166 160.629 2.02002C160.629 1.78955 160.734 1.60693 160.945 1.47217C161.158 1.3374 161.437 1.27002 161.78 1.27002C161.995 1.27002 162.167 1.2876 162.296 1.32275C162.425 1.35791 162.533 1.396 162.621 1.43701L162.691 1.2876H162.926V1.96729H162.686C162.664 1.88721 162.615 1.81396 162.539 1.74756C162.463 1.68115 162.361 1.63037 162.234 1.59521C162.109 1.55811 161.964 1.53955 161.798 1.53955C161.661 1.53955 161.524 1.5542 161.388 1.5835C161.253 1.61279 161.186 1.68213 161.186 1.7915C161.186 1.83643 161.198 1.87354 161.224 1.90283C161.251 1.93213 161.297 1.95947 161.361 1.98486C161.426 2.01025 161.539 2.04346 161.701 2.08447L161.991 2.15771C162.31 2.23779 162.57 2.33643 162.773 2.45361C162.979 2.5708 163.081 2.77588 163.081 3.06885ZM166.723 3.74854C166.666 3.75244 166.567 3.7583 166.427 3.76611C166.286 3.77588 166.128 3.78857 165.952 3.8042C165.778 3.82178 165.639 3.84131 165.533 3.86279V3.43506C165.281 3.72412 164.979 3.86865 164.628 3.86865C164.372 3.86865 164.183 3.81396 164.06 3.70459C163.937 3.59521 163.86 3.4751 163.831 3.34424C163.802 3.21143 163.787 3.06982 163.787 2.91943V2.05518C163.787 1.93994 163.78 1.85596 163.767 1.80322C163.753 1.74854 163.717 1.70752 163.658 1.68018C163.6 1.65088 163.503 1.63623 163.368 1.63623V1.3667H164.543V2.98096C164.543 3.31299 164.671 3.479 164.927 3.479C165.073 3.479 165.197 3.42725 165.299 3.32373C165.4 3.21826 165.479 3.11768 165.533 3.02197V2.05518C165.533 1.93408 165.525 1.84717 165.51 1.79443C165.496 1.7417 165.459 1.70264 165.398 1.67725C165.338 1.6499 165.237 1.63623 165.097 1.63623V1.3667H166.289V3.13037C166.289 3.22217 166.298 3.29053 166.315 3.33545C166.333 3.38037 166.373 3.41553 166.436 3.44092C166.498 3.46436 166.594 3.47705 166.723 3.479V3.74854ZM169.526 3.06885C169.526 3.23682 169.476 3.38037 169.374 3.49951C169.274 3.61865 169.137 3.7085 168.961 3.76904C168.787 3.83154 168.586 3.86279 168.357 3.86279C168.203 3.86279 168.048 3.84717 167.892 3.81592C167.735 3.78662 167.599 3.7417 167.481 3.68115L167.367 3.84521H167.139L167.109 3.0835H167.355C167.398 3.21436 167.497 3.33252 167.651 3.43799C167.806 3.5415 168.029 3.59326 168.322 3.59326C168.396 3.59326 168.477 3.58838 168.562 3.57861C168.648 3.56689 168.73 3.53662 168.809 3.48779C168.889 3.43896 168.929 3.36377 168.929 3.26221C168.929 3.17432 168.888 3.11084 168.806 3.07178C168.726 3.03076 168.574 2.98193 168.352 2.92529C168.082 2.85693 167.861 2.79248 167.689 2.73193C167.518 2.66943 167.372 2.58057 167.253 2.46533C167.134 2.3501 167.074 2.20166 167.074 2.02002C167.074 1.78955 167.18 1.60693 167.391 1.47217C167.604 1.3374 167.882 1.27002 168.226 1.27002C168.44 1.27002 168.612 1.2876 168.741 1.32275C168.87 1.35791 168.979 1.396 169.066 1.43701L169.137 1.2876H169.371V1.96729H169.131C169.109 1.88721 169.061 1.81396 168.984 1.74756C168.908 1.68115 168.807 1.63037 168.68 1.59521C168.555 1.55811 168.409 1.53955 168.243 1.53955C168.106 1.53955 167.97 1.5542 167.833 1.5835C167.698 1.61279 167.631 1.68213 167.631 1.7915C167.631 1.83643 167.644 1.87354 167.669 1.90283C167.696 1.93213 167.742 1.95947 167.807 1.98486C167.871 2.01025 167.984 2.04346 168.146 2.08447L168.437 2.15771C168.755 2.23779 169.016 2.33643 169.219 2.45361C169.424 2.5708 169.526 2.77588 169.526 3.06885ZM256.739 3.26074C256.813 3.09082 256.85 2.89648 256.85 2.67773C256.85 2.39844 256.794 2.16504 256.683 1.97754C256.574 1.79004 256.433 1.6543 256.261 1.57031C256.091 1.48438 255.916 1.44141 255.734 1.44141C255.533 1.44141 255.323 1.51367 255.104 1.6582C255.124 1.44336 255.151 1.24121 255.186 1.05176C255.223 0.860352 255.291 0.68457 255.388 0.524414C255.488 0.364258 255.625 0.28418 255.801 0.28418C255.942 0.28418 256.064 0.353516 256.167 0.492188C256.207 0.544922 256.241 0.587891 256.27 0.621094C256.301 0.654297 256.334 0.680664 256.37 0.700195C256.407 0.717773 256.449 0.726562 256.496 0.726562C256.578 0.726562 256.643 0.698242 256.692 0.641602C256.743 0.583008 256.768 0.521484 256.768 0.457031C256.768 0.386719 256.743 0.317383 256.692 0.249023C256.641 0.178711 256.559 0.120117 256.446 0.0732422C256.333 0.0244141 256.186 0 256.006 0C255.649 0 255.339 0.103516 255.078 0.310547C254.818 0.517578 254.621 0.798828 254.486 1.1543C254.351 1.50977 254.284 1.89355 254.284 2.30566C254.284 2.62402 254.326 2.89648 254.41 3.12305C254.496 3.34961 254.607 3.53027 254.744 3.66504C254.88 3.79785 255.023 3.89258 255.171 3.94922C255.322 4.00586 255.463 4.03418 255.596 4.03418C255.743 4.03418 255.89 4.00488 256.039 3.94629C256.189 3.8877 256.325 3.80176 256.446 3.68848C256.567 3.57324 256.665 3.43066 256.739 3.26074ZM256.042 2.21777C256.061 2.34668 256.071 2.48633 256.071 2.63672C256.071 2.83594 256.068 2.99316 256.062 3.1084C256.056 3.22168 256.038 3.3291 256.006 3.43066C255.975 3.53223 255.925 3.61133 255.857 3.66797C255.789 3.72266 255.696 3.75 255.579 3.75C255.463 3.75 255.37 3.7207 255.297 3.66211C255.225 3.60352 255.169 3.52441 255.13 3.4248C255.091 3.32324 255.066 3.21875 255.054 3.11133C255.044 3.00391 255.04 2.8877 255.04 2.7627C255.04 2.06934 255.217 1.72266 255.573 1.72266C255.717 1.72266 255.827 1.77246 255.901 1.87207C255.977 1.97168 256.024 2.08691 256.042 2.21777ZM256.733 8.16992C256.815 8 256.856 7.81738 256.856 7.62207C256.856 7.44824 256.834 7.31055 256.792 7.20898C256.749 7.10742 256.692 7.01367 256.622 6.92773C256.483 6.74805 256.273 6.65234 255.992 6.64062C256.097 6.57422 256.185 6.5166 256.255 6.46777C256.326 6.41699 256.399 6.35449 256.475 6.28027C256.551 6.20605 256.616 6.11816 256.668 6.0166C256.721 5.91504 256.748 5.80664 256.748 5.69141C256.748 5.53906 256.702 5.41113 256.61 5.30762C256.52 5.20215 256.397 5.125 256.241 5.07617C256.084 5.02539 255.906 5 255.705 5C255.38 5 255.125 5.05273 254.937 5.1582C254.75 5.26172 254.62 5.38086 254.547 5.51562C254.475 5.64844 254.439 5.7666 254.439 5.87012C254.439 5.96777 254.463 6.06152 254.512 6.15137C254.561 6.24121 254.609 6.28613 254.656 6.28613C254.685 6.28613 254.723 6.27344 254.77 6.24805L255.016 6.14258L255.075 6.10742C255.094 6.0957 255.104 6.08301 255.104 6.06934C255.104 6.06152 255.088 6.03711 255.057 5.99609C254.989 5.91211 254.955 5.82031 254.955 5.7207C254.955 5.64648 254.979 5.5752 255.028 5.50684C255.079 5.43848 255.146 5.38477 255.23 5.3457C255.316 5.30469 255.404 5.28418 255.494 5.28418C255.646 5.28418 255.776 5.3291 255.883 5.41895C255.993 5.50879 256.047 5.63965 256.047 5.81152C256.047 5.95605 256.019 6.08008 255.962 6.18359C255.906 6.28711 255.824 6.38281 255.716 6.4707C255.611 6.55859 255.439 6.68262 255.201 6.84277C255.144 6.87988 255.101 6.91602 255.072 6.95117C255.042 6.98633 255.028 7.02637 255.028 7.07129C255.028 7.11621 255.042 7.15137 255.072 7.17676C255.101 7.20215 255.134 7.21484 255.171 7.21484C255.22 7.21484 255.3 7.16699 255.412 7.07129C255.519 6.9834 255.619 6.93945 255.71 6.93945C255.851 6.93945 255.947 7.00879 255.998 7.14746C256.05 7.28418 256.077 7.49316 256.077 7.77441C256.077 7.99707 256.031 8.21582 255.939 8.43066C255.849 8.64355 255.647 8.75 255.333 8.75C255.241 8.75 255.168 8.72852 255.116 8.68555C255.063 8.64258 255.011 8.57031 254.96 8.46875C254.904 8.34766 254.849 8.25781 254.796 8.19922C254.746 8.13867 254.672 8.1084 254.577 8.1084C254.499 8.1084 254.429 8.1377 254.369 8.19629C254.308 8.25293 254.278 8.33203 254.278 8.43359C254.278 8.54688 254.32 8.65039 254.404 8.74414C254.49 8.83594 254.608 8.90723 254.758 8.95801C254.909 9.00879 255.081 9.03418 255.274 9.03418C255.489 9.03418 255.692 8.99805 255.883 8.92578C256.075 8.85352 256.244 8.75195 256.39 8.62109C256.539 8.49023 256.653 8.33984 256.733 8.16992ZM247.554 5.7124H247.281C247.23 6.21175 247.063 6.73014 246.779 7.26758C246.5 7.80078 246.119 8.17952 245.637 8.40381C245.154 8.62809 244.682 8.74023 244.221 8.74023C243.358 8.74023 242.636 8.39746 242.057 7.71191C241.477 7.02214 241.187 6.0319 241.187 4.74121C241.187 3.37858 241.451 2.33122 241.98 1.59912C242.514 0.867025 243.231 0.500977 244.132 0.500977C244.869 0.500977 245.529 0.727376 246.113 1.18018C246.701 1.63298 247.09 2.43913 247.281 3.59863H247.554L247.478 0.335938H247.198C247.16 0.721029 247.05 1.09342 246.868 1.45312C246.61 1.13151 246.219 0.839518 245.694 0.577148C245.173 0.310547 244.591 0.177246 243.948 0.177246C243.17 0.177246 242.454 0.359212 241.803 0.723145C241.151 1.08708 240.643 1.64567 240.279 2.39893C239.915 3.14795 239.733 3.94775 239.733 4.79834C239.733 6.09326 240.127 7.13428 240.914 7.92139C241.705 8.7085 242.723 9.10205 243.967 9.10205C245.144 9.10205 246.111 8.67464 246.868 7.81982C247.067 8.08219 247.205 8.38477 247.281 8.72754H247.554V5.7124ZM252.985 3.25977C253.157 2.99674 253.243 2.68815 253.243 2.33398C253.243 2.02669 253.168 1.74154 253.02 1.47852C252.874 1.21549 252.658 1.00586 252.372 0.849609C252.085 0.693359 251.744 0.615234 251.348 0.615234C250.817 0.615234 250.359 0.76237 249.973 1.05664C249.588 1.34831 249.395 1.77669 249.395 2.3418C249.395 2.7194 249.487 3.03841 249.672 3.29883C249.86 3.55924 250.099 3.75326 250.391 3.88086C250.685 4.00846 250.997 4.07227 251.325 4.07227C251.674 4.07227 251.994 4.00325 252.286 3.86523C252.58 3.72461 252.813 3.52279 252.985 3.25977ZM251.989 1.31055C252.106 1.53451 252.165 1.86784 252.165 2.31055C252.165 2.56836 252.146 2.79883 252.11 3.00195C252.076 3.20247 251.997 3.37174 251.872 3.50977C251.749 3.64518 251.57 3.71289 251.333 3.71289C250.973 3.71289 250.74 3.58919 250.633 3.3418C250.527 3.0944 250.473 2.77018 250.473 2.36914C250.473 2.04362 250.497 1.7793 250.543 1.57617C250.593 1.37044 250.678 1.2194 250.797 1.12305C250.92 1.02409 251.089 0.974609 251.305 0.974609C251.644 0.974609 251.872 1.08659 251.989 1.31055ZM341.184 2.67773C341.184 2.89648 341.146 3.09082 341.072 3.26074C340.998 3.43066 340.9 3.57324 340.779 3.68848C340.658 3.80176 340.522 3.8877 340.372 3.94629C340.224 4.00488 340.076 4.03418 339.93 4.03418C339.797 4.03418 339.655 4.00586 339.505 3.94922C339.356 3.89258 339.214 3.79785 339.077 3.66504C338.94 3.53027 338.829 3.34961 338.743 3.12305C338.659 2.89648 338.617 2.62402 338.617 2.30566C338.617 1.89355 338.685 1.50977 338.819 1.1543C338.954 0.798828 339.151 0.517578 339.411 0.310547C339.673 0.103516 339.982 0 340.34 0C340.52 0 340.666 0.0244141 340.779 0.0732422C340.893 0.120117 340.975 0.178711 341.025 0.249023C341.076 0.317383 341.102 0.386719 341.102 0.457031C341.102 0.521484 341.076 0.583008 341.025 0.641602C340.977 0.698242 340.911 0.726562 340.829 0.726562C340.782 0.726562 340.74 0.717773 340.703 0.700195C340.668 0.680664 340.635 0.654297 340.604 0.621094C340.574 0.587891 340.54 0.544922 340.501 0.492188C340.397 0.353516 340.275 0.28418 340.135 0.28418C339.959 0.28418 339.821 0.364258 339.722 0.524414C339.624 0.68457 339.557 0.860352 339.52 1.05176C339.484 1.24121 339.457 1.44336 339.438 1.6582C339.656 1.51367 339.866 1.44141 340.067 1.44141C340.249 1.44141 340.425 1.48438 340.595 1.57031C340.767 1.6543 340.907 1.79004 341.017 1.97754C341.128 2.16504 341.184 2.39844 341.184 2.67773ZM340.404 2.63672C340.404 2.48633 340.395 2.34668 340.375 2.21777C340.357 2.08691 340.311 1.97168 340.234 1.87207C340.16 1.77246 340.051 1.72266 339.906 1.72266C339.551 1.72266 339.373 2.06934 339.373 2.7627C339.373 2.8877 339.378 3.00391 339.388 3.11133C339.399 3.21875 339.425 3.32324 339.464 3.4248C339.503 3.52441 339.559 3.60352 339.631 3.66211C339.703 3.7207 339.797 3.75 339.912 3.75C340.029 3.75 340.122 3.72266 340.19 3.66797C340.259 3.61133 340.309 3.53223 340.34 3.43066C340.371 3.3291 340.39 3.22168 340.396 3.1084C340.401 2.99316 340.404 2.83594 340.404 2.63672ZM341.239 8.94336H339.432V8.66211H339.534C339.679 8.66211 339.783 8.65039 339.848 8.62695C339.912 8.60352 339.952 8.56641 339.968 8.51562C339.983 8.46289 339.991 8.375 339.991 8.25195V7.67188H338.585V7.29395L340.308 5H340.703V7.33496H341.239V7.67188H340.703V8.25195C340.703 8.37891 340.713 8.4707 340.732 8.52734C340.752 8.58203 340.791 8.61816 340.85 8.63574C340.91 8.65332 341.008 8.66211 341.143 8.66211H341.239V8.94336ZM339.991 7.33496V5.87012L338.898 7.33496H339.991ZM331.887 5.7124H331.614C331.563 6.21175 331.396 6.73014 331.113 7.26758C330.833 7.80078 330.453 8.17952 329.97 8.40381C329.488 8.62809 329.016 8.74023 328.555 8.74023C327.691 8.74023 326.97 8.39746 326.39 7.71191C325.81 7.02214 325.521 6.0319 325.521 4.74121C325.521 3.37858 325.785 2.33122 326.314 1.59912C326.847 0.867025 327.564 0.500977 328.466 0.500977C329.202 0.500977 329.862 0.727376 330.446 1.18018C331.035 1.63298 331.424 2.43913 331.614 3.59863H331.887L331.811 0.335938H331.532C331.494 0.721029 331.384 1.09342 331.202 1.45312C330.944 1.13151 330.552 0.839518 330.027 0.577148C329.507 0.310547 328.925 0.177246 328.282 0.177246C327.503 0.177246 326.788 0.359212 326.136 0.723145C325.485 1.08708 324.977 1.64567 324.613 2.39893C324.249 3.14795 324.067 3.94775 324.067 4.79834C324.067 6.09326 324.46 7.13428 325.248 7.92139C326.039 8.7085 327.057 9.10205 328.301 9.10205C329.477 9.10205 330.444 8.67464 331.202 7.81982C331.401 8.08219 331.538 8.38477 331.614 8.72754H331.887V5.7124ZM337.576 2.33398C337.576 2.68815 337.49 2.99674 337.318 3.25977C337.146 3.52279 336.913 3.72461 336.619 3.86523C336.327 4.00326 336.007 4.07227 335.658 4.07227C335.33 4.07227 335.019 4.00846 334.725 3.88086C334.433 3.75326 334.193 3.55924 334.006 3.29883C333.821 3.03841 333.729 2.7194 333.729 2.3418C333.729 1.77669 333.921 1.34831 334.307 1.05664C334.692 0.76237 335.15 0.615234 335.682 0.615234C336.077 0.615234 336.419 0.693359 336.705 0.849609C336.992 1.00586 337.208 1.21549 337.354 1.47852C337.502 1.74154 337.576 2.02669 337.576 2.33398ZM336.498 2.31055C336.498 1.86784 336.439 1.53451 336.322 1.31055C336.205 1.08659 335.977 0.974609 335.639 0.974609C335.423 0.974609 335.253 1.02409 335.131 1.12305C335.011 1.2194 334.926 1.37044 334.877 1.57617C334.83 1.7793 334.807 2.04362 334.807 2.36914C334.807 2.77018 334.86 3.0944 334.967 3.3418C335.074 3.58919 335.307 3.71289 335.666 3.71289C335.903 3.71289 336.083 3.64518 336.205 3.50977C336.33 3.37174 336.41 3.20247 336.443 3.00195C336.48 2.79883 336.498 2.56836 336.498 2.31055ZM437.055 0.433594L434.846 7.27734C434.779 7.48047 434.711 7.65625 434.641 7.80469C434.574 7.95312 434.484 8.07617 434.371 8.17383C434.262 8.27148 434.119 8.32031 433.943 8.32031C433.76 8.32031 433.6 8.25586 433.463 8.12695C433.326 7.99805 433.258 7.83398 433.258 7.63477C433.258 7.54883 433.277 7.45117 433.316 7.3418C433.359 7.22852 433.408 7.12109 433.463 7.01953C433.518 6.91797 433.559 6.84375 433.586 6.79688L436.059 1.70508H433.586C433.336 1.70508 433.16 1.71484 433.059 1.73438C432.957 1.75 432.873 1.79688 432.807 1.875C432.744 1.95312 432.68 2.08984 432.613 2.28516L432.555 2.46094H431.963L432.766 0H433.322C433.287 0.132812 433.27 0.21875 433.27 0.257812C433.27 0.304688 433.283 0.339844 433.311 0.363281C433.357 0.410156 433.514 0.433594 433.779 0.433594H437.055ZM424.614 5.90771H424.887V8.92285H424.614C424.538 8.58008 424.401 8.27751 424.202 8.01514C423.444 8.86995 422.477 9.29736 421.301 9.29736C420.057 9.29736 419.039 8.90381 418.248 8.1167C417.46 7.32959 417.067 6.28857 417.067 4.99365C417.067 4.14307 417.249 3.34326 417.613 2.59424C417.977 1.84098 418.485 1.28239 419.136 0.918457C419.788 0.554525 420.503 0.372559 421.282 0.372559C421.925 0.372559 422.507 0.505859 423.027 0.772461C423.552 1.03483 423.944 1.32682 424.202 1.64844C424.384 1.28874 424.494 0.916341 424.532 0.53125H424.811L424.887 3.79395H424.614C424.424 2.63444 424.035 1.82829 423.446 1.37549C422.862 0.922689 422.202 0.696289 421.466 0.696289C420.564 0.696289 419.847 1.06234 419.314 1.79443C418.785 2.52653 418.521 3.57389 418.521 4.93652C418.521 6.22721 418.81 7.21745 419.39 7.90723C419.97 8.59277 420.691 8.93555 421.555 8.93555C422.016 8.93555 422.488 8.82341 422.97 8.59912C423.453 8.37484 423.833 7.99609 424.113 7.46289C424.396 6.92546 424.563 6.40706 424.614 5.90771ZM430.318 3.45508C430.49 3.19206 430.576 2.88346 430.576 2.5293C430.576 2.22201 430.502 1.93685 430.354 1.67383C430.208 1.41081 429.992 1.20117 429.705 1.04492C429.419 0.888672 429.077 0.810547 428.682 0.810547C428.15 0.810547 427.692 0.957682 427.307 1.25195C426.921 1.54362 426.729 1.97201 426.729 2.53711C426.729 2.91471 426.821 3.23372 427.006 3.49414C427.193 3.75456 427.433 3.94857 427.725 4.07617C428.019 4.20378 428.33 4.26758 428.658 4.26758C429.007 4.26758 429.327 4.19857 429.619 4.06055C429.913 3.91992 430.146 3.7181 430.318 3.45508ZM429.322 1.50586C429.439 1.72982 429.498 2.06315 429.498 2.50586C429.498 2.76367 429.48 2.99414 429.443 3.19727C429.41 3.39779 429.33 3.56706 429.205 3.70508C429.083 3.84049 428.903 3.9082 428.666 3.9082C428.307 3.9082 428.074 3.78451 427.967 3.53711C427.86 3.28971 427.807 2.96549 427.807 2.56445C427.807 2.23893 427.83 1.97461 427.877 1.77148C427.926 1.56576 428.011 1.41471 428.131 1.31836C428.253 1.2194 428.423 1.16992 428.639 1.16992C428.977 1.16992 429.205 1.2819 429.322 1.50586ZM15.1096 48.4061C15.1096 47.2979 14.7782 45.3061 14.4881 43.6724H0V42.8099H9.01087C6.07985 41.9164 4.26591 39.822 3.5316 37.3613H0V36.4988H3.32096C3.21052 35.9234 3.15552 35.3341 3.15552 34.7407C3.15552 33.4148 3.41746 32.1899 3.86899 31.0504H0V30.1878H4.25378C5.28175 28.1166 6.91968 26.3356 8.68022 24.7396H0V23.877H9.66105C9.9839 23.6006 10.3078 23.3297 10.63 23.0634C10.9181 22.8234 10.9084 22.7665 10.8632 22.4996L10.8565 22.4594C10.6842 21.4503 10.5119 19.8633 10.5044 18.4285H0V17.5659H10.5214C10.6316 15.1214 11.2867 12.3711 12.9705 10.5054C13.4738 9.95169 14.2539 9.29736 14.6063 9.29736C14.8831 9.29736 15.5374 10.002 15.9149 10.5557C16.9468 12.0657 17.5508 14.23 17.5508 16.4195C17.5508 16.8083 17.5297 17.1904 17.4891 17.5659H125.129V16.4194H125.474V17.5659H208.118V16.4194H208.463V17.5659H300.412V16.4194H300.757V17.5659H329.757C329.711 14.104 329.688 10.8092 329.688 10.8092C329.713 10.3562 330.116 10.1046 330.468 10.1046C330.72 10.1046 330.946 10.2556 330.946 10.5324C330.946 11.0208 330.804 16.7224 330.773 17.5659H332.035C332.373 17.4146 332.791 17.3022 333.111 17.3022C333.443 17.3239 333.772 17.4142 334.071 17.5659H389.976V16.4194H390.321V17.5659H486.915V16.4194H487.26V17.5659H491.338V16.4194H491.683V17.5659H492.141V18.4285H491.683V23.877H492.141V24.7396H491.683V30.1878H492.141V31.0504H491.683V36.4988H492.141V37.3613H491.683V42.8099H492.141V43.6724H491.683V44.8189H491.338V43.6724H487.26V44.8189H486.915V43.6724H441.732C441.213 44.623 440.291 45.4668 439.247 46.0317C439.275 46.0308 439.303 46.0302 439.331 46.0297C439.365 46.0292 439.399 46.0289 439.434 46.0289C441.044 46.0289 442.177 46.96 442.177 48.3694C442.177 48.6216 442.143 48.8729 442.079 49.1209H445.321V49.9834H441.732C440.792 51.7047 438.532 53.0755 436.615 53.0755C435.105 53.0755 433.897 52.1947 433.897 50.735C433.897 50.4823 433.924 50.2309 433.976 49.9834H430.744V49.1209H434.263C434.701 48.168 435.506 47.327 436.537 46.7637C435.064 46.7339 433.897 45.8585 433.897 44.424C433.897 44.1713 433.924 43.9199 433.976 43.6724H431.72C431.25 44.4272 430.476 45.24 429.3 46.0597C429.037 46.2383 428.779 46.4606 428.512 46.6902C428.14 47.0109 427.751 47.3456 427.312 47.5949C427.312 47.5949 427.236 47.6452 427.161 47.6452C427.085 47.6452 427.01 47.6201 426.934 47.5194C426.868 47.4362 426.812 45.8112 426.767 43.6724H390.321V44.8189H389.976V43.6724H300.757V44.8189H300.412V43.6724H255.225C254.285 45.3937 252.025 46.7645 250.108 46.7645C248.598 46.7645 247.39 45.8836 247.39 44.424C247.39 44.1713 247.417 43.9199 247.469 43.6724H238.474C238.004 44.4272 237.23 45.24 236.054 46.0597C235.791 46.2382 235.533 46.4605 235.266 46.6901L235.266 46.6902C234.894 47.0108 234.505 47.3456 234.065 47.5949C234.065 47.5949 233.99 47.6452 233.914 47.6452C233.839 47.6452 233.763 47.6201 233.688 47.5194C233.621 47.4362 233.566 45.8112 233.521 43.6724H208.463V44.8189H208.118V43.6724H170.292C170.673 44.0685 170.891 44.5951 170.891 45.2138C170.891 47.1626 168.851 49.0612 166.748 49.6967V49.9834H162.931C161.991 51.7047 159.731 53.0755 157.814 53.0755C156.304 53.0755 155.096 52.1947 155.096 50.735C155.096 50.4823 155.123 50.2309 155.175 49.9834H151.94V49.1209H155.461C156.257 47.3901 158.265 46.0289 160.632 46.0289C161.493 46.0289 162.218 46.295 162.706 46.7582C162.988 45.524 163.888 44.3921 165.137 43.6724H125.474V44.8189H125.129V43.6724H15.5946C15.8672 45.1974 16.2169 47.1961 16.2169 48.4565C16.2169 52.7348 12.9453 53.4897 11.2591 53.4897C7.45899 53.4897 6.4775 51.0234 6.4775 49.3876C6.4775 47.8273 7.48416 46.4935 9.17031 46.4935C10.7055 46.4935 11.5863 47.6763 11.5863 49.0604C11.5863 50.5201 10.6803 51.1996 9.90014 51.4261C9.32131 51.6023 9.09481 51.6778 9.09481 51.8539C9.09481 52.1811 9.74914 52.5838 11.1081 52.5838C12.593 52.5838 15.1096 52.1308 15.1096 48.4061ZM12.4168 42.3662C8.41645 42.3662 5.70343 40.3521 5.23957 37.3613H8.41654C8.82396 38.8138 9.81522 39.84 11.1081 40.2773C11.3095 40.3528 11.6115 40.4283 11.7876 40.4283C11.989 40.4283 12.0896 40.3025 12.0896 40.1515C12.0896 39.9849 11.9096 39.9083 11.741 39.8367L11.7121 39.8243C10.7254 39.4015 10.0019 38.4303 9.91003 37.3613H13.4189L14.1784 41.888C14.2279 42.1601 14.2045 42.1647 13.8453 42.2365L13.8261 42.2403C13.4235 42.3158 12.9201 42.3662 12.4168 42.3662ZM8.25061 36.4988H5.16924C5.16897 36.4749 5.16884 36.4509 5.16884 36.4269C5.16884 35.0398 5.38847 33.2134 7.12034 31.0504H11.5678C9.52178 31.8755 8.21399 33.7804 8.21399 35.8229C8.21399 36.0552 8.22643 36.2806 8.25061 36.4988ZM12.2162 30.1878H7.87428C9.19478 28.7649 10.2505 27.9114 11.3238 27.0437L11.3598 27.0146C11.6115 26.8133 11.6618 26.8384 11.7121 27.1153L12.2162 30.1878ZM12.4168 34.187C11.1166 34.5494 10.2135 35.3811 9.96757 36.4988H13.2742L12.9201 34.3884C12.8698 34.1115 12.8195 34.0864 12.4168 34.187ZM15.2103 41.5105L14.4969 37.3613H17.9165C17.9573 37.5962 17.9786 37.8388 17.9786 38.0878C17.9786 39.6733 17.0223 40.9568 15.6129 41.6615C15.3109 41.8125 15.2606 41.8125 15.2103 41.5105ZM14.3486 36.4988H17.6676C17.0894 35.0955 15.769 34.1166 14.2539 33.9857C13.9519 33.9605 13.9268 34.036 13.9771 34.338L14.3486 36.4988ZM74.6329 37.3613H20.0064C19.7501 39.8518 18.1406 41.7217 15.8143 42.643C15.7792 42.658 15.7474 42.6713 15.7186 42.6833C15.5936 42.7355 15.5248 42.7642 15.4921 42.8099H72.7086C72.3319 42.4199 72.1072 41.898 72.1072 41.2685C72.1072 39.7278 73.1101 38.2384 74.6329 37.3613ZM16.4077 31.0504C18.6325 31.963 19.9843 34.1159 20.0404 36.4988H79.9888C80.7844 34.7681 82.7925 33.4068 85.1597 33.4068C86.7703 33.4068 87.9028 34.338 87.9028 35.7473C87.9028 35.9995 87.8687 36.2509 87.8046 36.4988H125.129V31.0504H16.4077ZM13.2473 30.1352L13.2561 30.1878H125.129V24.7396H14.016C13.6209 25.179 13.2034 25.6018 12.7691 26.0079L12.7408 26.036C12.612 26.1634 12.5711 26.2038 12.6181 26.4861L13.2473 30.1352ZM125.129 23.877H14.744C16.0174 22.2652 16.9713 20.449 17.3597 18.4285H125.129V23.877ZM12.1148 22.0568C13.2886 21.0316 14.6028 19.8221 15.4824 18.4285H11.687C11.6541 18.7839 11.6366 19.1547 11.6366 19.5401C11.6366 20.3455 11.687 21.2011 11.7876 21.8554C11.838 22.1826 11.9386 22.2078 12.1148 22.0568ZM11.8017 17.5659H15.9554C16.2914 16.8426 16.4938 16.0746 16.4938 15.2618C16.4938 13.8777 15.8143 13.1982 14.9838 13.1982C13.7259 13.1982 12.2822 14.8202 11.8017 17.5659ZM329.99 25.431C330.065 25.5316 330.141 25.5568 330.216 25.5568C330.292 25.5568 330.367 25.5065 330.367 25.5065C330.745 25.2927 331.084 25.0162 331.408 24.7396H339.478C337.955 25.6167 336.952 27.106 336.952 28.6466C336.952 29.276 337.177 29.7979 337.553 30.1878H326.84C326.884 28.4359 326.928 26.5795 326.928 26.31C326.928 26.0332 326.701 25.8822 326.45 25.8822C326.097 25.8822 325.695 26.1339 325.669 26.5869C325.669 26.5869 325.68 28.1172 325.702 30.1878H300.757V24.7396H329.92C329.942 25.1511 329.965 25.3997 329.99 25.431ZM345.232 26.2809C345.232 25.6622 345.014 25.1356 344.632 24.7396H389.976V30.1878H342.422C343.978 29.3062 345.232 27.809 345.232 26.2809ZM325.711 31.0504H300.757V36.4988H325.788C325.756 34.7509 325.73 32.7753 325.711 31.0504ZM325.805 37.3613H300.757V42.8099H389.976V37.3613H344.787C343.847 39.0826 341.587 40.4534 339.67 40.4534C338.16 40.4534 336.952 39.5726 336.952 38.1129C336.952 37.8602 336.979 37.6088 337.031 37.3613H330.757C330.288 38.1162 329.514 38.9291 328.337 39.7489C328.075 39.9275 327.816 40.1498 327.55 40.3794C327.178 40.7001 326.789 41.0348 326.349 41.2841C326.349 41.2841 326.273 41.3344 326.198 41.3344C326.122 41.3344 326.047 41.3093 325.971 41.2086C325.905 41.1254 325.849 39.5002 325.805 37.3613ZM345.134 36.4988C345.198 36.2509 345.232 35.9995 345.232 35.7473C345.232 34.338 344.099 33.4068 342.489 33.4068C340.122 33.4068 338.114 34.7681 337.318 36.4988H331.177C331.301 36.142 331.357 35.8054 331.357 35.4958C331.357 34.0613 330.25 33.1553 329.092 33.0798C328.664 33.0798 328.06 33.2812 327.708 33.5077C327.557 33.6335 327.28 33.86 327.154 33.86C327.104 33.86 327.079 33.86 327.028 33.8348C326.852 33.7593 326.752 33.5832 326.752 33.407C326.761 33.1993 326.788 32.2199 326.818 31.0504H389.976V36.4988H345.134ZM329.2 37.3613C328.766 38.1531 328.059 38.8452 327.381 39.2708C327.28 39.3211 327.205 39.3463 327.129 39.3463C326.903 39.3463 326.852 39.0946 326.852 38.9688C326.852 38.9688 326.813 38.1792 326.791 37.3613H329.2ZM329.543 36.4988H326.777L326.777 36.4521C326.777 36.0495 326.802 35.7475 326.827 35.6468C327.003 35.1435 328.01 34.4136 328.589 34.4136C329.319 34.4136 329.621 35.2441 329.621 35.8733C329.621 36.0826 329.593 36.2919 329.543 36.4988ZM329.769 18.4285C329.799 20.4995 329.837 22.5378 329.883 23.877H300.757V18.4285H329.769ZM486.915 42.8099H442.079C442.143 42.562 442.177 42.3106 442.177 42.0583C442.177 40.649 441.044 39.7178 439.434 39.7178C439.371 39.7178 439.309 39.7188 439.247 39.7207C440.291 39.1557 441.213 38.312 441.732 37.3613H486.915V42.8099ZM433.897 38.1129C433.897 39.5474 435.064 40.4229 436.537 40.4526C435.506 41.016 434.701 41.857 434.263 42.8099H432.139C432.264 42.4529 432.32 42.1163 432.32 41.8066C432.32 40.3721 431.212 39.4661 430.055 39.3906C429.627 39.3906 429.023 39.5919 428.671 39.8184C428.52 39.9443 428.243 40.1708 428.117 40.1708C428.067 40.1708 428.041 40.1708 427.991 40.1456C427.815 40.0701 427.714 39.8939 427.714 39.7178C427.724 39.5101 427.751 38.5308 427.781 37.3613H433.976C433.924 37.6088 433.897 37.8602 433.897 38.1129ZM486.915 36.4988H442.079C442.143 36.2509 442.177 35.9995 442.177 35.7473C442.177 34.338 441.044 33.4068 439.434 33.4068C439.398 33.4068 439.363 33.4071 439.328 33.4077C439.301 33.4082 439.274 33.4088 439.247 33.4096C440.291 32.8446 441.213 32.0009 441.732 31.0504H486.915V36.4988ZM434.263 36.4988C434.701 35.546 435.506 34.7052 436.537 34.1418C435.063 34.1119 433.897 33.2365 433.897 31.8021C433.897 31.5493 433.924 31.2979 433.976 31.0504H431.713C431.234 31.8089 430.447 32.629 429.255 33.463C429.036 33.6158 428.812 33.8121 428.577 34.0189L428.577 34.019L428.577 34.0191L428.577 34.0194C428.348 34.2206 428.108 34.4316 427.849 34.6222C427.835 35.2069 427.819 35.8598 427.803 36.4988H434.263ZM427.754 43.6724C427.775 44.4902 427.815 45.2796 427.815 45.2796C427.815 45.4054 427.865 45.6571 428.092 45.6571C428.167 45.6571 428.243 45.6319 428.343 45.5816C429.021 45.156 429.728 44.464 430.162 43.6724H427.754ZM430.505 42.8099H427.739L427.739 42.7629C427.739 42.3603 427.765 42.0583 427.79 41.9576C427.966 41.4543 428.973 40.7244 429.551 40.7244C430.281 40.7244 430.583 41.5549 430.583 42.1841C430.583 42.3935 430.556 42.6029 430.505 42.8099ZM426.673 37.3613C426.693 39.0863 426.718 41.062 426.751 42.8099H390.321V37.3613H415.379C415.423 39.5002 415.479 41.1254 415.545 41.2086C415.621 41.3093 415.696 41.3344 415.772 41.3344C415.847 41.3344 415.923 41.2841 415.923 41.2841C416.363 41.0348 416.751 40.7001 417.124 40.3794C417.39 40.1498 417.648 39.9275 417.911 39.7489C419.088 38.9291 419.862 38.1162 420.331 37.3613H426.673ZM420.751 36.4988H426.664C426.643 34.4281 426.632 32.8977 426.632 32.8977C426.641 32.7312 426.702 32.5919 426.792 32.4823C426.782 32.1736 426.773 31.8443 426.764 31.5C426.286 32.104 425.581 32.7835 424.65 33.4378C424.448 33.5869 424.24 33.7697 424.022 33.9616C423.614 34.3202 423.17 34.7107 422.662 34.973C422.662 34.973 422.586 35.0233 422.511 35.0233C422.435 35.0233 422.36 34.9981 422.284 34.8975C422.226 34.8225 422.173 33.1947 422.129 31.0504H416.392C416.362 32.2199 416.335 33.1993 416.326 33.407C416.326 33.5832 416.426 33.7593 416.602 33.8348C416.653 33.86 416.678 33.86 416.728 33.86C416.854 33.86 417.131 33.6335 417.282 33.5077C417.634 33.2812 418.238 33.0798 418.666 33.0798C419.824 33.1553 420.931 34.0613 420.931 35.4958C420.931 35.8054 420.875 36.142 420.751 36.4988ZM416.414 30.1878C416.458 28.4359 416.502 26.5795 416.502 26.31C416.502 26.0332 416.275 25.8822 416.024 25.8822C415.671 25.8822 415.269 26.1339 415.243 26.5869C415.243 26.5869 415.254 28.1172 415.276 30.1878H390.321V24.7396H422.03C422.051 26.4645 422.079 28.4401 422.112 30.1878H416.414ZM415.285 31.0504C415.304 32.7753 415.33 34.7509 415.362 36.4988H390.321V31.0504H415.285ZM416.351 36.4988L416.351 36.4521C416.351 36.0495 416.376 35.7475 416.401 35.6468C416.577 35.1435 417.584 34.4136 418.163 34.4136C418.893 34.4136 419.195 35.2441 419.195 35.8733C419.195 36.0826 419.167 36.2919 419.117 36.4988H416.351ZM416.365 37.3613H418.774C418.34 38.1531 417.633 38.8452 416.955 39.2708C416.854 39.3211 416.779 39.3463 416.703 39.3463C416.477 39.3463 416.426 39.0946 416.426 38.9688C416.426 38.9688 416.387 38.1792 416.365 37.3613ZM442.079 30.1878H486.915V24.7396H427.768C427.742 25.9139 427.72 26.897 427.72 27.0959C427.72 27.2972 427.796 27.4734 427.972 27.5237C427.997 27.5488 428.047 27.5488 428.098 27.5488C428.255 27.5488 428.401 27.4389 428.534 27.3381C428.592 27.2943 428.648 27.2522 428.702 27.2217C429.104 26.9952 429.431 26.819 429.884 26.819H430.035C431.218 26.8442 432.326 27.7753 432.326 29.1847C432.326 29.4942 432.268 29.8306 432.14 30.1878H434.263C435.058 28.4572 437.066 27.0959 439.434 27.0959C441.044 27.0959 442.177 28.0271 442.177 29.4364C442.177 29.6886 442.143 29.9399 442.079 30.1878ZM427.889 32.739L427.888 32.8029L427.886 32.9342C427.93 32.9936 427.991 33.0351 428.072 33.0351C428.123 33.0351 428.198 33.01 428.299 32.9596C429.018 32.5121 429.727 31.8413 430.149 31.0504H427.739C427.753 31.549 427.772 32.039 427.784 32.3384C427.85 32.4086 427.89 32.5034 427.89 32.6208C427.89 32.6464 427.89 32.6863 427.889 32.739ZM427.722 30.1878H430.473C430.516 29.9916 430.539 29.7911 430.539 29.5873C430.539 29.084 430.388 28.6562 430.161 28.3542C430.01 28.178 429.809 28.1025 429.557 28.1025C428.953 28.1025 427.896 28.8575 427.745 29.3608C427.72 29.4363 427.72 29.6628 427.72 29.9397C427.72 29.9784 427.72 30.0185 427.721 30.0597C427.721 30.1013 427.721 30.1441 427.722 30.1878ZM427.798 23.4179L427.788 23.877H486.915V18.4285H390.321V23.877H422.02C421.996 21.8062 421.982 20.2757 421.982 20.2757C422.007 19.8479 422.41 19.6214 422.762 19.6214C423.014 19.6214 423.241 19.7472 423.241 20.0241C423.241 20.2568 423.199 21.8132 423.156 23.4106L423.156 23.4179L423.143 23.877H426.646C426.624 21.8135 426.613 20.2757 426.613 20.2757C426.663 19.8479 427.066 19.6214 427.393 19.6214C427.645 19.6214 427.871 19.7472 427.871 20.0241C427.871 20.2566 427.835 21.8108 427.799 23.4068L427.798 23.4179ZM425.536 31.0504H423.104C423.125 31.8531 423.165 32.6325 423.165 32.6325C423.165 32.7835 423.241 33.0351 423.442 33.0351C423.492 33.0351 423.593 33.01 423.668 32.9596C424.388 32.5121 425.107 31.8413 425.536 31.0504ZM423.09 30.1878H425.866C425.91 29.9916 425.933 29.7911 425.933 29.5873C425.933 28.9582 425.682 28.1025 424.927 28.1025C424.323 28.1025 423.291 28.8575 423.14 29.3608C423.115 29.4615 423.09 29.7635 423.09 30.1662V30.1878ZM426.656 24.7396H423.12C423.089 25.9139 423.064 26.897 423.064 27.0959C423.064 27.2972 423.165 27.4734 423.341 27.5237C423.392 27.5488 423.417 27.5488 423.467 27.5488C423.613 27.5488 423.739 27.4543 423.863 27.3602C423.932 27.3087 424 27.2573 424.071 27.2217L424.098 27.2065C424.487 26.9874 424.786 26.819 425.254 26.819H425.405C425.883 26.819 426.311 26.97 426.688 27.2217C426.676 26.3753 426.665 25.5319 426.656 24.7396ZM335.376 19.7182C335.376 19.2204 335.242 18.7863 335.02 18.4285H339.478C337.955 19.3055 336.952 20.795 336.952 22.3355C336.952 22.9651 337.177 23.487 337.554 23.877H332.489C334.627 22.3493 335.376 20.8525 335.376 19.7182ZM345.232 19.9699C345.232 19.3511 345.014 18.8245 344.632 18.4285H389.976V23.877H342.422C343.977 22.9955 345.232 21.4981 345.232 19.9699ZM330.846 19.8692C331.022 19.3658 332.028 18.636 332.607 18.636C333.337 18.636 333.639 19.4665 333.639 20.0957C333.639 21.4546 332.481 22.8136 331.399 23.4931C331.299 23.5435 331.223 23.5686 331.148 23.5686C330.921 23.5686 330.871 23.317 330.871 23.1911C330.871 23.1911 330.795 21.6811 330.795 20.6745C330.795 20.2718 330.82 19.9698 330.846 19.8692ZM255.571 42.8099C255.636 42.562 255.67 42.3106 255.67 42.0583C255.67 40.649 254.537 39.7178 252.927 39.7178L252.879 39.718L252.829 39.7186L252.789 39.7194L252.74 39.7207C253.784 39.1557 254.706 38.312 255.225 37.3613H300.412V42.8099H255.571ZM247.756 42.8099C248.194 41.857 248.999 41.016 250.03 40.4526C248.557 40.4229 247.39 39.5474 247.39 38.1129C247.39 37.8602 247.417 37.6088 247.469 37.3613H245.213C244.743 38.1162 243.97 38.9291 242.793 39.7489C242.53 39.9275 242.272 40.1498 242.005 40.3794C241.633 40.7 241.244 41.0348 240.804 41.2841C240.804 41.2841 240.729 41.3344 240.654 41.3344C240.578 41.3344 240.503 41.3093 240.427 41.2086C240.36 41.1254 240.305 39.5002 240.26 37.3613H234.535C234.505 38.5308 234.478 39.5101 234.468 39.7178C234.468 39.8939 234.569 40.0701 234.745 40.1456C234.795 40.1708 234.82 40.1708 234.871 40.1708C234.997 40.1708 235.273 39.9443 235.424 39.8184C235.777 39.5919 236.381 39.3906 236.809 39.3906C237.966 39.4661 239.074 40.3721 239.074 41.8066C239.074 42.1163 239.018 42.4529 238.893 42.8099H247.756ZM255.67 35.7473C255.67 35.9995 255.636 36.2509 255.571 36.4988H300.412V31.0504H241.274C241.244 32.2199 241.217 33.1993 241.207 33.407C241.207 33.5832 241.308 33.7593 241.484 33.8348C241.534 33.86 241.559 33.86 241.61 33.86C241.736 33.86 242.012 33.6335 242.163 33.5077C242.516 33.2812 243.12 33.0798 243.548 33.0798C244.705 33.1553 245.813 34.0613 245.813 35.4958C245.813 35.8054 245.757 36.142 245.632 36.4988H247.756C248.551 34.7681 250.559 33.4068 252.927 33.4068C254.537 33.4068 255.67 34.338 255.67 35.7473ZM234.644 32.6208C234.644 32.8903 234.601 34.7469 234.557 36.4988H240.243C240.211 34.7509 240.185 32.7753 240.166 31.0504H208.463V36.4988H233.418C233.397 34.4281 233.386 32.8977 233.386 32.8977C233.411 32.4447 233.814 32.193 234.166 32.193C234.418 32.193 234.644 32.344 234.644 32.6208ZM233.504 42.8099C233.472 41.062 233.446 39.0863 233.427 37.3613H208.463V42.8099H233.504ZM234.493 42.7629L234.493 42.8099H237.259C237.31 42.6029 237.337 42.3935 237.337 42.1841C237.337 41.5549 237.035 40.7244 236.305 40.7244C235.726 40.7244 234.72 41.4543 234.544 41.9576C234.518 42.0583 234.493 42.3603 234.493 42.7629ZM236.916 43.6724H234.507C234.529 44.4902 234.569 45.2796 234.569 45.2796C234.569 45.4054 234.619 45.6571 234.846 45.6571C234.921 45.6571 234.997 45.6319 235.097 45.5816C235.775 45.156 236.482 44.464 236.916 43.6724ZM80.2752 39.7051C80.7722 40.1873 81.511 40.4534 82.341 40.4534C84.2581 40.4534 86.5179 39.0826 87.458 37.3613H125.129V42.8099H77.5767C78.8582 42.0838 79.9352 40.9399 80.2752 39.7051ZM491.338 42.8099V37.3613H487.26V42.8099H491.338ZM491.338 36.4988V31.0504H487.26V36.4988H491.338ZM491.338 30.1878V24.7396H487.26V30.1878H491.338ZM491.338 23.877V18.4285H487.26V23.877H491.338ZM208.463 18.4285H300.412V23.877H208.463V18.4285ZM255.07 24.7396H300.412V30.1878H252.86C254.415 29.3062 255.67 27.809 255.67 26.2809C255.67 25.6622 255.451 25.1356 255.07 24.7396ZM249.915 24.7396C248.393 25.6167 247.39 27.106 247.39 28.6466C247.39 29.276 247.615 29.7979 247.991 30.1878H241.296C241.34 28.4359 241.383 26.5795 241.383 26.31C241.383 26.0332 241.157 25.8822 240.905 25.8822C240.553 25.8822 240.15 26.1339 240.125 26.5869C240.125 26.5869 240.136 28.1172 240.157 30.1878H208.463V24.7396H249.915ZM243.998 36.4988C244.049 36.2919 244.076 36.0826 244.076 35.8733C244.076 35.2441 243.774 34.4136 243.044 34.4136C242.465 34.4136 241.459 35.1435 241.283 35.6468C241.257 35.7475 241.232 36.0495 241.232 36.4521L241.232 36.4988H243.998ZM241.246 37.3613H243.656C243.221 38.1531 242.514 38.8452 241.836 39.2708C241.736 39.3211 241.66 39.3463 241.585 39.3463C241.358 39.3463 241.308 39.0946 241.308 38.9688C241.308 38.9688 241.268 38.1792 241.246 37.3613ZM208.118 42.8099V37.3613H162.931C161.991 39.0826 159.731 40.4534 157.814 40.4534C156.304 40.4534 155.096 39.5726 155.096 38.1129C155.096 37.8602 155.123 37.6088 155.175 37.3613H125.474V42.8099H208.118ZM155.461 36.4988H125.474V31.0504H208.118V36.4988H163.277C163.341 36.2509 163.375 35.9995 163.375 35.7473C163.375 34.338 162.243 33.4068 160.632 33.4068C158.265 33.4068 156.257 34.7681 155.461 36.4988ZM208.118 30.1878V24.7396H125.474V30.1878H208.118ZM208.118 23.877V18.4285H125.474V23.877H208.118ZM72.186 49.9834H68.9514V49.1209H72.4729C73.2685 47.3901 75.2767 46.0289 77.6438 46.0289C79.2545 46.0289 80.387 46.96 80.387 48.3694C80.387 48.6216 80.3528 48.8729 80.2887 49.1209H83.5354V49.9834H79.9421C79.0021 51.7047 76.7423 53.0755 74.8252 53.0755C73.3152 53.0755 72.1072 52.1947 72.1072 50.735C72.1072 50.4823 72.1342 50.2309 72.186 49.9834Z" fill="black"/>
</svg>
