<?xml version="1.0" encoding="utf-8"?>
<!-- Generator: Adobe Illustrator 23.0.1, SVG Export Plug-In . SVG Version: 6.00 Build 0)  -->
<svg version="1.1" id="Layer_1" xmlns="http://www.w3.org/2000/svg" xmlns:xlink="http://www.w3.org/1999/xlink" x="0px" y="0px"
	 viewBox="0 0 64.36 158.46" style="enable-background:new 0 0 64.36 158.46;" xml:space="preserve">
<style type="text/css">
	.st0{fill:url(#SVGID_1_);}
	.st1{fill:url(#SVGID_2_);}
	.st2{fill:url(#SVGID_3_);}
</style>
<g>
	<linearGradient id="SVGID_1_" gradientUnits="userSpaceOnUse" x1="37.5275" y1="68.931" x2="64.3628" y2="68.931">
		<stop  offset="0" style="stop-color:#161519"/>
		<stop  offset="0.9153" style="stop-color:#2C2C30"/>
	</linearGradient>
	<polygon class="st0" points="41.27,52.25 40,63.59 53.02,63.59 53.02,74.28 38.8,74.28 37.53,85.61 64.36,85.61 64.36,52.25 	"/>
	<linearGradient id="SVGID_2_" gradientUnits="userSpaceOnUse" x1="42.3517" y1="36.9544" x2="58.6934" y2="36.9544">
		<stop  offset="0" style="stop-color:#161519"/>
		<stop  offset="0.9153" style="stop-color:#2C2C30"/>
	</linearGradient>
	<polygon class="st1" points="42.35,42.62 58.69,42.62 58.69,31.29 43.62,31.29 	"/>
	<linearGradient id="SVGID_3_" gradientUnits="userSpaceOnUse" x1="0" y1="79.2292" x2="43.8652" y2="79.2292">
		<stop  offset="0" style="stop-color:#161519"/>
		<stop  offset="0.9153" style="stop-color:#2C2C30"/>
	</linearGradient>
	<path class="st2" d="M25.56,152.16c1.42-4.57,2.36-9.26,2.81-14.08l5.89-52.47h0.03l1.27-11.34h-0.03l1.2-10.69h0.03l1.27-11.34H38
		l1.08-9.62h0.03l1.27-11.34h-0.03L43.87,0c-1.02-0.06-18.92,3.92-25.31,14.09c-6.39,10.16,8.57-3.56,14.68-6.03
		c-1.12,2.75-1.95,6.28-2.49,10.58l-1.41,12.65H0v54.33h23.28l-3.39,30.45c-0.44,5.33-1.2,10.78-2.26,16.34
		c-1.06,5.56-2.75,8.92-5.06,10.07c2.82,10.23,5.34,15.54,7.54,15.94C22.32,158.81,24.13,156.73,25.56,152.16z M11.34,74.28V42.62
		h16.74L27,52.25h-7.98v11.34h6.71l-1.19,10.69H11.34z"/>
</g>
</svg>
