<?xml version="1.0" encoding="utf-8"?>
<!-- Generator: Adobe Illustrator 23.0.1, SVG Export Plug-In . SVG Version: 6.00 Build 0)  -->
<svg version="1.1" id="Layer_1" xmlns="http://www.w3.org/2000/svg" xmlns:xlink="http://www.w3.org/1999/xlink" x="0px" y="0px"
	 viewBox="0 0 404.7 404.7" style="enable-background:new 0 0 404.7 404.7;" xml:space="preserve">
<style type="text/css">
	.st0{fill:#FFFFFF;}
</style>
<g>
	<polygon class="st0" points="157.97,195.21 187.29,195.21 189.93,171.47 175.03,171.47 175.03,146.28 192.75,146.28 195.15,124.89 
		157.97,124.89 	"/>
	<path class="st0" d="M202.35,0C90.59,0,0,90.59,0,202.35S90.59,404.7,202.35,404.7S404.7,314.1,404.7,202.35S314.1,0,202.35,0z
		 M214.37,171.44l-2.67,23.75h0.07l-2.82,25.19h-0.07L195.8,336.93c-1,10.71-3.09,21.12-6.24,31.28
		c-3.18,10.15-7.2,14.77-12.11,13.91c-4.89-0.89-10.48-12.68-16.75-35.41c5.13-2.55,8.89-10.02,11.24-22.37s4.04-24.46,5.02-36.3
		l7.53-67.64h-51.71V99.72h65.17l3.13-28.1c1.2-9.55,3.04-17.39,5.53-23.5c-13.57,5.49-46.8,35.96-32.61,13.39
		c14.19-22.59,53.96-31.43,56.22-31.3l-7.82,69.48h0.07l-2.82,25.19h-0.07l-2.4,21.37h0.07l-2.82,25.19H214.37z M263.15,99.72v25.17
		h-36.3l2.82-25.17H263.15z M275.74,220.38h-59.6l2.82-25.17h31.59v-23.75h-28.92l2.82-25.19h51.29V220.38z"/>
</g>
</svg>
